<svg id="Crowdfunding" xmlns="http://www.w3.org/2000/svg" viewBox="0 0 1047.93 182.69"><defs><style>.cls-1{fill:#4d4d4f;}</style></defs><path id="noir" class="cls-1" d="M43.21,71.53Q28,102.91,28,122.68q0,13.78,7.45,21.85Q40.28,150,46.63,150a9.11,9.11,0,0,0,1.47-.12,20.17,20.17,0,0,0,7.32-1.83,71.2,71.2,0,0,0,10-5.74,60.52,60.52,0,0,1,8.48-4.94,15,15,0,0,1,5.92-1.16q6.6,0,10.26,4.51a13,13,0,0,1,3.17,8.3,15.66,15.66,0,0,1-2.81,8.43q-2.92,3.66-10.92,9a91.53,91.53,0,0,1-15.2,8.42,48.2,48.2,0,0,1-17.7,3.67,45.08,45.08,0,0,1-4.64-.25q-15.38-1.83-27.1-14.4Q0,148.07,0,123.9v-.73a98,98,0,0,1,1.71-18.38,143.5,143.5,0,0,1,6-20.93q14.16-40.53,37.6-64.94Q63.72,0,78.25,0a22,22,0,0,1,6.47,1Q91.31,3.3,93,7.2a17,17,0,0,1,1.64,6.1,11.81,11.81,0,0,1-2.19,6.59q-2.56,4-9.89,5.37a25.21,25.21,0,0,0-6.71,2.32A26.75,26.75,0,0,0,70,32.22Q55.66,46.76,43.21,71.53Zm131.17,77.06a11.33,11.33,0,0,1,.34,2.65,8.93,8.93,0,0,1-5.55,8.29,7.7,7.7,0,0,1-3.25.6,29.48,29.48,0,0,1-8.21-1.54c-2.56-.8-5.49-1.59-8.8-2.39s-6.35-1.5-9.14-2.1a35.68,35.68,0,0,0-5.38-.89c-1.83,0-2.85.42-3.08,1.28a9.18,9.18,0,0,0-.34,2.39,42,42,0,0,0,.77,6.67q.85,5,.94,6.58c0,1,.08,1.73.08,2.13a9.08,9.08,0,0,1-.42,3,8.24,8.24,0,0,1-1.88,3.16,10.67,10.67,0,0,1-3.16,2.48,10.27,10.27,0,0,1-3.85.69,10.65,10.65,0,0,1-3.85-.69,11.07,11.07,0,0,1-5-5.38q-2.22-5.73-4.74-26.15t-4.06-44.69c-.28-4.56-.43-7.92-.43-10.08v-4.7q0-4.53.18-10.77.17-7.86.42-11.49a13.57,13.57,0,0,1,1-5,10,10,0,0,1,2.39-2.78q4.79-4.44,17.18-4.87c.85-.06,1.68-.09,2.47-.09q17.44,0,30,9.15a32.09,32.09,0,0,1,12.13,19.82,37.53,37.53,0,0,1,.51,6.15q0,17-14.78,34.78c-.91,1.09-1.84,2.18-2.78,3.29s-1.66,2-2.18,2.52a5.34,5.34,0,0,0-1.7,3.34,2.25,2.25,0,0,0,.94,1.79q1,.94,7,2.56,8,2.15,11.62,4.53A10.25,10.25,0,0,1,174.38,148.59ZM151.22,95.53a22.07,22.07,0,0,0,.6-5.21,15.33,15.33,0,0,0-.68-4.79q-1.45-4.27-6.76-7.48a34.27,34.27,0,0,0-12.81-4.31,18.4,18.4,0,0,0-2.14-.26h-.77a4.62,4.62,0,0,0-.94.09,5.62,5.62,0,0,0-1.28.43,1.3,1.3,0,0,1-.26.17,3.06,3.06,0,0,0-1.45,1,3.56,3.56,0,0,0-.55,2c0,.91-.05,1.68-.05,2.31,0,1.25,0,2.88.09,4.87q.25,4.53.77,12.48c0,.79,0,1.62.08,2.47.35,5.19.61,9.3.81,12.35s.42,5.33.65,6.84a13.61,13.61,0,0,0,.72,3.12,2.06,2.06,0,0,0,1,1.11,1.26,1.26,0,0,0,.69.34h.85l1.28-.51a15.36,15.36,0,0,0,3.47-2.74c1.62-1.54,3.33-3.27,5.12-5.21a64.29,64.29,0,0,0,4.4-5.21,53.33,53.33,0,0,0,4.36-7.18A38.19,38.19,0,0,0,151.22,95.53ZM265.3,109.11c.11,1.94.17,3.88.17,5.82a98.71,98.71,0,0,1-3.68,26.83,75.92,75.92,0,0,1-13.24,27q-6.75,8.46-15.38,11.62a21,21,0,0,1-3.59,1,35.56,35.56,0,0,1-4.36.34h-2a23.27,23.27,0,0,1-5-.43q-10.5-2.82-18.58-12.82t-11.92-25a118.26,118.26,0,0,1-2.82-25.81,133.53,133.53,0,0,1,4.61-34.18,89.78,89.78,0,0,1,6.58-16.75,29.1,29.1,0,0,1,5.6-8.12,14.17,14.17,0,0,1,6.71-3.41,40,40,0,0,1,7.52-.6c1,0,2.07,0,3.16.08a72.27,72.27,0,0,1,12.22,1.46Q262,63.31,265.3,109.11Zm-19.4,5.73A73.24,73.24,0,0,0,242,90.74q-3-8.71-8.38-12.47t-14.35-3.76h-.43a13.81,13.81,0,0,0-5,.64,4.73,4.73,0,0,0-2.35,2.43,60.89,60.89,0,0,0-3.54,12,162.84,162.84,0,0,0-2.78,17q-.6,6.24-.6,11.88,0,19.56,7.09,32.81,6.15,10.6,12.56,10.6a8.8,8.8,0,0,0,4.36-1.2q5.13-3,10.09-12.82,6.15-12.72,6.7-21.66T245.9,114.84ZM383.09,128q-.55-8.58-1.16-17.22t-1-13.41q-.6-6.84-1.63-14.48t-2-13.51A52.15,52.15,0,0,0,375.7,62a10.19,10.19,0,0,0-5.56-5.72,8.61,8.61,0,0,0-3.16-.6,10.41,10.41,0,0,0-4.53,1.11,8.69,8.69,0,0,0-4.87,6.67,7.09,7.09,0,0,0-.26,1.87v.77c0,.52.05,1.2.13,2.05s.27,2.2.56,4q2.06,14.1,3,24.1t2.09,26.49q.94,15.28.94,23.07a36.31,36.31,0,0,1-.42,7,3.8,3.8,0,0,1-1,1.54,1.9,1.9,0,0,1-1.32.6c-.46,0-1.24-.57-2.35-1.71a22.54,22.54,0,0,1-2.95-3.76q-8.54-13.25-15.89-41.18a100.62,100.62,0,0,0-3.08-10.13,12.19,12.19,0,0,0-2.65-4.4,9.48,9.48,0,0,0-3.33-2.39,12.33,12.33,0,0,0-4.53-.69,9.72,9.72,0,0,0-7.18,2.57c-1.7,1.71-3.19,4.7-4.44,9q-1.2,4.09-3.37,13t-3.81,16.79q-1.53,7.35-2.43,10.34c-.6,2-1.16,3.08-1.67,3.25a1.55,1.55,0,0,1-.68.17q-1.11,0-1.8-1.8a35.67,35.67,0,0,1-1.11-6.75q-.51-5-.68-11.45v-3.5q0-9,.77-20.76a186,186,0,0,1,2.31-20.43,31.6,31.6,0,0,0,.76-6v-.51a7,7,0,0,0-.59-3.08,8,8,0,0,0-6.07-4.87,10.34,10.34,0,0,0-1.28-.08,9.53,9.53,0,0,0-6.5,2.82A11.65,11.65,0,0,0,286,74.08a84.69,84.69,0,0,0-2.47,10.25,189.87,189.87,0,0,0-3.08,20q-.6,6.75-.6,15.12,0,2.74.09,5.73.6,36.48,11.19,47.68,5.13,5.55,11.2,5.55a15.69,15.69,0,0,0,5.63-1.11,10.91,10.91,0,0,0,2.57-1.36,24.29,24.29,0,0,0,2.82-2.48,29.11,29.11,0,0,0,5.77-8.55,86.52,86.52,0,0,0,4.65-14.35c.52-2.11,1-4,1.46-5.56a21.76,21.76,0,0,1,.94-2.9c.51-1.08,1.08-1.63,1.7-1.63q1.64,0,3.94,4.88,15,31.78,31.1,35.12a20,20,0,0,0,2.56.17q10.43,0,15.3-11.71,3.15-9.06,3.16-23.5c0-1.37,0-2.76-.09-4.19Q383.65,136.64,383.09,128ZM477,85.1a58.78,58.78,0,0,1,2.4,45.21,70.29,70.29,0,0,1-13.89,22.85,69.4,69.4,0,0,1-21.15,16.28,46.2,46.2,0,0,1-6.45,2.69,42.59,42.59,0,0,1-7.05,1.58c-1.37.23-2.73.5-4.1.82s-2.42.58-3.16.81a17.71,17.71,0,0,1-4.87.77,10,10,0,0,1-4.19-.86,11.08,11.08,0,0,1-5-6.49q-.43-1.62-1.63-9.23t-2.43-16.88q-1.25-9.27-2-15.93-1.53-13.43-2-21.92t-.47-22.35v-9c0-2.34,0-4.19.05-5.56a30.38,30.38,0,0,1,.17-3.12,8.76,8.76,0,0,1,.3-1.62,10.84,10.84,0,0,1,.42-1.15A9.51,9.51,0,0,1,406,57.16c1.79-1,4.57-1.59,8.33-1.88,1.82-.17,3.67-.25,5.55-.25a84.66,84.66,0,0,1,23,3.5q13.33,3.77,21.4,10A42.61,42.61,0,0,1,477,85.1Zm-14,25.55a35.24,35.24,0,0,0-1-9.23q-3.84-15.12-14.18-20.16a63.43,63.43,0,0,0-13-4.62A49.54,49.54,0,0,0,424.66,75a9,9,0,0,0-2.31.26c-1.94.45-2.9,2.11-2.9,5a15.45,15.45,0,0,0,.08,1.63q.09,1.53.39,5.94c.19,2.93.41,6.16.64,9.69q.68,10.7,1.62,19.87t2.31,19.87q.67,5.13,1.11,8.16c.28,2,.52,3.56.72,4.61a8.47,8.47,0,0,0,.69,2.31,4.82,4.82,0,0,0,.9,1.24,3.23,3.23,0,0,0,2.47,1.11h.17a10.84,10.84,0,0,0,4.11-1.45q5.89-3,13.75-10.86,10.51-10.15,13.5-22.13A41.51,41.51,0,0,0,463,110.65Zm92.2-57.33a10.81,10.81,0,0,0-7.65-2.65,92.25,92.25,0,0,0-11.45,1.45q-8.79,1.46-17.64,3.25t-13,3.07q-6.57,2-8.11,6.84a55.89,55.89,0,0,0-.52,8.37q-.17,7.27-.25,17.18v20.85q0,6.66.25,10.85,1.11,17.17,3.33,34.61c.75,5.92,1.34,10.11,1.8,12.56a17.87,17.87,0,0,0,1.62,5.3,9.08,9.08,0,0,0,1.8,2.82,10.78,10.78,0,0,0,2.65,1.88v-.09a9.17,9.17,0,0,0,3.84.86,16.6,16.6,0,0,0,3.33-.52,8,8,0,0,0,4.28-3.07,8.55,8.55,0,0,0,1.88-4.79,11,11,0,0,0,.08-1.37,58.26,58.26,0,0,0-.77-8.11c-.45-3.36-.77-6-.94-7.78,0-1-.08-1.79-.08-2.48a14.86,14.86,0,0,1,.13-2,2.73,2.73,0,0,1,.81-1.66,4.18,4.18,0,0,1,1.66-1.11,15.14,15.14,0,0,1,3.46-.73q2.4-.3,6.84-.64,3.42-.25,6-.51a26.23,26.23,0,0,0,3.16-.43q6.24-1.87,7.44-7.43a14.13,14.13,0,0,0,.17-2.05q0-5.22-5.21-8.12a9.9,9.9,0,0,0-5-1,70.54,70.54,0,0,0-9.31.86c-3,.45-5.16.77-6.58.94-.74,0-1.37.08-1.88.08a6.14,6.14,0,0,1-1.49-.17,2.75,2.75,0,0,1-1.41-.94,4.25,4.25,0,0,1-1.07-1.37,6.77,6.77,0,0,1-.56-2.13q-.16-1.2-.38-7.05c-.15-3.9-.27-8.45-.39-13.63s-.24-9.7-.38-13.54-.24-6.11-.3-6.8-.09-1.34-.09-2q0-5.39,3.93-6.67.78-.16,4.32-.72t8.25-1.16q9-1.2,13.54-1.92a29.28,29.28,0,0,0,6.45-1.58,9.94,9.94,0,0,0,3.33-2.31,9.47,9.47,0,0,0,3.16-6.75c0-.06,0-.71-.08-2S557.09,55.08,555.18,53.32Zm77.63,1.62a5.1,5.1,0,0,0-2-1,17.38,17.38,0,0,0-2.91-.17,14.88,14.88,0,0,0-3,.22,7,7,0,0,0-2.09,1q-3.95,2.4-4.7,8.37-.18,1.38-.26,7t-.09,12.26q-.16,79.64-16.92,79.64c-2.33,0-4.67-1.34-7-4a26.4,26.4,0,0,1-5.3-10.25q-4.95-16.41-5.64-58.53-.17-8.46-.38-14.7t-.3-7.35q-.6-6.15-5.22-8.2a8,8,0,0,0-3.33-.77,9.37,9.37,0,0,0-4,1.15c-1.57.77-2.86,2.41-3.89,4.92a11.72,11.72,0,0,0-.6,2.39c-.17,1-.33,2.6-.47,4.74s-.33,5.11-.55,8.93q-.6,9.92-.6,19,0,10.68.85,20.17,1.89,22.55,5.56,34.6t10.85,18.89a33,33,0,0,0,16,9.14,24.87,24.87,0,0,0,4.44.43q9.75,0,18.46-8.46,7.77-7.35,12-23.93,3.59-13.59,5.13-38.88.34-6.15.51-16.83t.17-20.08q0-9.41-.25-11.71Q636.41,57.42,632.81,54.94Zm98.44-1.54A9.42,9.42,0,0,0,724.58,50h-.42a9.36,9.36,0,0,0-6.58,2.74,8.77,8.77,0,0,0-2.35,3.89,30.89,30.89,0,0,0-1,7q-.43,6.06-1.07,15.59T712,97.07q-.25,4-.55,10.76T711,121q-.18,5.73-.34,9.19t-.39,5.34a10.31,10.31,0,0,1-.55,2.65,2.57,2.57,0,0,1-.86,1.11.94.94,0,0,1-.51.17,1.08,1.08,0,0,1-.47-.17,5.87,5.87,0,0,1-1.07-1,20.45,20.45,0,0,1-1.19-1.83,23.87,23.87,0,0,1-1.2-2.27c-.29-.8-.8-2.06-1.54-3.8l-2.31-5.43q-4.35-10.33-14.52-38.19Q680.32,71,677.2,65t-6.11-6.88a10,10,0,0,0-3.16-.51,14.55,14.55,0,0,0-5.72,1.49A10.76,10.76,0,0,0,657,64.34a14.14,14.14,0,0,0-.68,2.26,25.71,25.71,0,0,0-.51,3q-.25,3.17-.34,12.9-.09,6.58-.09,13.33c0,2.28,0,5.75.09,10.43s.17,8.77.34,12.3q.26,3.59.68,10.55t.86,14q.67,11.81,1.19,18.25c.34,4.3.66,7.43.94,9.4a15.49,15.49,0,0,0,1.11,4.31,10.11,10.11,0,0,0,5.81,5.64,9,9,0,0,0,2.74.43,11.62,11.62,0,0,0,3.54-.73,9.25,9.25,0,0,0,4.15-3.12,8.39,8.39,0,0,0,1.88-4.53c0-.62.08-1.36.08-2.22q0-2.64-.34-6.83-.6-6.42-1.11-14.61t-.85-14.62c-.12-3.19-.17-5.38-.17-6.58v-.77q.51-2.13,1.53-2.13a.89.89,0,0,1,.35.08,2.92,2.92,0,0,1,1.19,1.24,36.14,36.14,0,0,1,1.88,3.63c.8,1.71,1.85,4.14,3.16,7.27q6.84,16.07,11.45,24.65t8.42,11.66a13.3,13.3,0,0,0,8.59,3.08h.34q7,0,11.28-6.84,2.91-4.09,4.19-13.33t1.79-30.16q.6-21,2.48-47.25.6-9.24.77-14.27v-1.2a28.06,28.06,0,0,0-.56-6.41A8.79,8.79,0,0,0,731.25,53.4Zm94.59,31.7a58.78,58.78,0,0,1,2.4,45.21,70.29,70.29,0,0,1-13.89,22.85,69.4,69.4,0,0,1-21.15,16.28,46.2,46.2,0,0,1-6.45,2.69,42.59,42.59,0,0,1-7,1.58c-1.37.23-2.73.5-4.1.82s-2.42.58-3.16.81a17.71,17.71,0,0,1-4.87.77,10,10,0,0,1-4.19-.86,11.08,11.08,0,0,1-5-6.49q-.44-1.62-1.63-9.23t-2.43-16.88q-1.24-9.27-2-15.93-1.53-13.43-2-21.92t-.47-22.35v-9c0-2.34,0-4.19.05-5.56a30.38,30.38,0,0,1,.17-3.12,8.76,8.76,0,0,1,.3-1.62,10.84,10.84,0,0,1,.42-1.15,9.51,9.51,0,0,1,4.15-4.79c1.79-1,4.57-1.59,8.33-1.88,1.82-.17,3.67-.25,5.55-.25a84.66,84.66,0,0,1,23,3.5q13.34,3.77,21.4,10A42.61,42.61,0,0,1,825.84,85.1Zm-14,25.55a35.24,35.24,0,0,0-1-9.23Q807.05,86.3,796.7,81.26a63.14,63.14,0,0,0-13-4.62A49.54,49.54,0,0,0,773.55,75a9,9,0,0,0-2.31.26c-1.94.45-2.9,2.11-2.9,5a15.45,15.45,0,0,0,.08,1.63q.09,1.53.39,5.94c.19,2.93.41,6.16.64,9.69q.67,10.7,1.62,19.87t2.31,19.87q.68,5.13,1.11,8.16c.28,2,.52,3.56.72,4.61a8.47,8.47,0,0,0,.69,2.31,5,5,0,0,0,.89,1.24,3.26,3.26,0,0,0,2.48,1.11h.17a10.84,10.84,0,0,0,4.11-1.45q5.9-3,13.75-10.86,10.51-10.15,13.5-22.13A41.51,41.51,0,0,0,811.87,110.65Zm54.73,25.81q-.51-9.83-.77-22-.17-8-.51-19c-.11-5.93-.23-11.22-.34-15.9q-.26-7.77-.47-13.33T864.12,60a8.54,8.54,0,0,0-3.67-4.36,7.84,7.84,0,0,0-4.1-1.19,6.88,6.88,0,0,0-1.45.17q-5.73,1.36-7.52,7.86-.78,3.42-1.11,16-.25,10.08-.26,22,0,3,0,12.22t.64,21.1q.51,8.21,1.28,18.12t1.2,13.76q1,8,6.32,10.42a10.65,10.65,0,0,0,3.59.69h.52a8.28,8.28,0,0,0,3.07-.52,10.13,10.13,0,0,0,4.79-4.44,10.53,10.53,0,0,0,1-4.87v-1.62c0-2.06-.14-4.79-.42-8.21Q867.12,146.28,866.6,136.46ZM965,53.4A9.42,9.42,0,0,0,958.37,50H958a9.36,9.36,0,0,0-6.58,2.74A8.77,8.77,0,0,0,949,56.61a30.89,30.89,0,0,0-1,7q-.43,6.06-1.07,15.59t-1.16,17.82q-.25,4-.55,10.76T944.79,121q-.18,5.73-.34,9.19t-.39,5.34a10.31,10.31,0,0,1-.55,2.65,2.57,2.57,0,0,1-.86,1.11.94.94,0,0,1-.51.17,1.12,1.12,0,0,1-.47-.17,5.87,5.87,0,0,1-1.07-1,20.45,20.45,0,0,1-1.19-1.83,23.87,23.87,0,0,1-1.2-2.27c-.29-.8-.8-2.06-1.54-3.8l-2.31-5.43Q930,114.59,919.84,86.73,914.11,71,911,65t-6.11-6.88a10,10,0,0,0-3.16-.51A14.55,14.55,0,0,0,896,59.08a10.8,10.8,0,0,0-5.22,5.26,14.14,14.14,0,0,0-.68,2.26,25.71,25.71,0,0,0-.51,3q-.26,3.17-.34,12.9-.09,6.58-.09,13.33c0,2.28,0,5.75.09,10.43s.17,8.77.34,12.3q.25,3.59.68,10.55t.86,14q.68,11.81,1.19,18.25c.34,4.3.66,7.43.94,9.4a15.49,15.49,0,0,0,1.11,4.31,10.11,10.11,0,0,0,5.81,5.64,9,9,0,0,0,2.74.43,11.62,11.62,0,0,0,3.54-.73,9.25,9.25,0,0,0,4.15-3.12,8.39,8.39,0,0,0,1.88-4.53c0-.62.08-1.36.08-2.22q0-2.64-.34-6.83-.6-6.42-1.11-14.61t-.85-14.62c-.12-3.19-.17-5.38-.17-6.58v-.77q.51-2.13,1.53-2.13a.89.89,0,0,1,.35.08,2.92,2.92,0,0,1,1.19,1.24,36.14,36.14,0,0,1,1.88,3.63c.8,1.71,1.85,4.14,3.16,7.27q6.84,16.07,11.45,24.65t8.42,11.66a13.3,13.3,0,0,0,8.59,3.08H947q7,0,11.28-6.84,2.91-4.09,4.19-13.33t1.79-30.16q.6-21,2.48-47.25.6-9.24.77-14.27v-1.2a28.06,28.06,0,0,0-.56-6.41A8.79,8.79,0,0,0,965,53.4Zm76.31,48.45a14.84,14.84,0,0,0-1.8-.77,7.22,7.22,0,0,0-2-.3c-.8,0-1.94,0-3.42,0a85.91,85.91,0,0,0-9.66.73,39.83,39.83,0,0,0-7.35,1.49q-4.86,2.06-6,6.5a9.5,9.5,0,0,0-.25,2.13,8.67,8.67,0,0,0,2.56,6.07,7.18,7.18,0,0,0,2.82,1.92,18.25,18.25,0,0,0,4.36.81c2.9.12,4.7.75,5.38,1.88a4.86,4.86,0,0,1,.51,2.57,24,24,0,0,1-.51,4.36q-3.42,20.42-6.92,27.17c-1.48,2.22-3.11,3.33-4.87,3.33s-3.42-1-5.3-3q-3.59-4.36-5.94-13.42a74.31,74.31,0,0,1-2.35-18.79,84.1,84.1,0,0,1,9.23-38.37,48.56,48.56,0,0,1,15.47-19q4.79-3.51,4.87-7.61a5.32,5.32,0,0,0,.08-.94,7.28,7.28,0,0,0-2.82-5.72,7.72,7.72,0,0,0-5.3-2,15.93,15.93,0,0,0-6.83,1.88,44.48,44.48,0,0,0-9.36,6.84,67.58,67.58,0,0,0-8.67,9.66,83.23,83.23,0,0,0-5.47,9.48A107.4,107.4,0,0,0,987,89.72a104.13,104.13,0,0,0-5.9,33.84v.51a96.11,96.11,0,0,0,5.39,32.47,41.32,41.32,0,0,0,10,15.68A27.94,27.94,0,0,0,1011,180a23.16,23.16,0,0,0,3.42.26,23.72,23.72,0,0,0,13.07-4.1q9.66-5.9,14.19-25,1.36-5.47,2.77-13.16t2.44-14.7a80.6,80.6,0,0,0,1-9.83Q1047.93,105.1,1041.35,101.85Z" transform="translate(0 0)"/></svg>