<svg id="Contact" xmlns="http://www.w3.org/2000/svg" viewBox="0 0 589.83 182.78"><defs><style>.cls-1{fill:#4d4d4f;}</style></defs><path id="noir" class="cls-1" d="M43.21,73.54Q28,104.92,28,124.69q0,13.8,7.45,21.85Q40.28,152,46.63,152a9.11,9.11,0,0,0,1.47-.12,20.17,20.17,0,0,0,7.32-1.83,71.2,71.2,0,0,0,10-5.74,60.52,60.52,0,0,1,8.48-4.94,15.17,15.17,0,0,1,5.92-1.16q6.6,0,10.26,4.52a13,13,0,0,1,3.17,8.3,15.66,15.66,0,0,1-2.81,8.42q-2.92,3.66-10.92,9a91.63,91.63,0,0,1-15.2,8.43,48.18,48.18,0,0,1-17.7,3.66,42.43,42.43,0,0,1-4.64-.25q-15.38-1.83-27.1-14.4Q0,150.08,0,125.91v-.73a97.86,97.86,0,0,1,1.71-18.37,143.59,143.59,0,0,1,6-20.94q14.16-40.53,37.6-64.94Q63.72,2,78.25,2a22,22,0,0,1,6.47,1Q91.31,5.3,93,9.21a17.08,17.08,0,0,1,1.64,6.11,11.86,11.86,0,0,1-2.19,6.59q-2.56,4-9.89,5.37a24.52,24.52,0,0,0-6.71,2.32A26.15,26.15,0,0,0,70,34.24Q55.66,48.76,43.21,73.54Zm140.4,37.59c.11,1.94.17,3.87.17,5.81a98.71,98.71,0,0,1-3.68,26.83,75.76,75.76,0,0,1-13.24,27q-6.75,8.46-15.38,11.62a19.28,19.28,0,0,1-3.59,1,35.56,35.56,0,0,1-4.36.34h-2a22.69,22.69,0,0,1-5-.43q-10.5-2.82-18.58-12.81t-11.92-25a118.19,118.19,0,0,1-2.82-25.81,133.58,133.58,0,0,1,4.61-34.18,89.4,89.4,0,0,1,6.58-16.74,29,29,0,0,1,5.6-8.12,14.1,14.1,0,0,1,6.71-3.42,40,40,0,0,1,7.52-.6c1,0,2.07,0,3.16.09a72.3,72.3,0,0,1,12.22,1.45Q180.28,65.33,183.61,111.13Zm-19.4,5.72a73.18,73.18,0,0,0-3.93-24.09q-3-8.72-8.38-12.48t-14.35-3.76h-.43a14.07,14.07,0,0,0-5,.64,4.71,4.71,0,0,0-2.35,2.44,60.53,60.53,0,0,0-3.54,12,163,163,0,0,0-2.78,17q-.6,6.23-.6,11.87,0,19.58,7.09,32.82,6.17,10.59,12.56,10.59a8.77,8.77,0,0,0,4.36-1.2q5.13-3,10.09-12.81,6.15-12.74,6.7-21.66C164,122.22,164.21,118.45,164.21,116.85Zm111.6-61.43A9.36,9.36,0,0,0,269.14,52h-.43a9.36,9.36,0,0,0-6.58,2.73,8.92,8.92,0,0,0-2.35,3.89,31.65,31.65,0,0,0-1,7.05q-.42,6.08-1.07,15.59t-1.15,17.82q-.25,4-.56,10.77T255.55,123c-.11,3.81-.22,6.88-.34,9.18s-.24,4.09-.38,5.34a9.71,9.71,0,0,1-.56,2.65,2.5,2.5,0,0,1-.85,1.11.87.87,0,0,1-.51.17.93.93,0,0,1-.47-.17,5.68,5.68,0,0,1-1.07-1c-.34-.46-.74-1.07-1.2-1.84s-.85-1.52-1.2-2.26-.79-2.07-1.53-3.81l-2.31-5.42q-4.37-10.35-14.53-38.2Q224.89,73,221.76,67t-6.11-6.87a9.69,9.69,0,0,0-3.16-.52,14.42,14.42,0,0,0-5.73,1.5,10.76,10.76,0,0,0-5.21,5.25,12.47,12.47,0,0,0-.68,2.27,28.2,28.2,0,0,0-.52,3q-.25,3.16-.34,12.9-.07,6.58-.08,13.33,0,3.42.08,10.43t.34,12.3c.18,2.4.4,5.91.69,10.56s.57,9.3.85,14q.69,11.79,1.2,18.24t.94,9.4a14.81,14.81,0,0,0,1.11,4.32,10.17,10.17,0,0,0,5.81,5.64,9.24,9.24,0,0,0,2.73.42,11.91,11.91,0,0,0,3.55-.72,9.51,9.51,0,0,0,4.15-3.12,8.37,8.37,0,0,0,1.87-4.53q.09-.94.09-2.22,0-2.65-.34-6.84-.6-6.4-1.11-14.61T221,136.51c-.11-3.19-.17-5.39-.17-6.58v-.77c.34-1.42.86-2.14,1.54-2.14a.72.72,0,0,1,.34.09,2.92,2.92,0,0,1,1.2,1.24,36,36,0,0,1,1.88,3.63q1.2,2.57,3.16,7.26,6.84,16.06,11.45,24.65t8.42,11.67a13.26,13.26,0,0,0,8.58,3.07h.35q7,0,11.28-6.83,2.9-4.11,4.18-13.33T275,128.3q.58-21,2.48-47.25.59-9.22.76-14.27v-1.2a28.07,28.07,0,0,0-.55-6.4A8.73,8.73,0,0,0,275.81,55.42ZM359,73.79q6.24-2.91,6.5-8.46V65q0-5.38-5.81-8.55a8.88,8.88,0,0,0-1.8-.51,21.2,21.2,0,0,0-3.07-.21c-1.43,0-3.59,0-6.5,0a363.94,363.94,0,0,0-49.05,4.19A33.57,33.57,0,0,0,290.63,62a8.52,8.52,0,0,0-4.14,3.72,8.67,8.67,0,0,0-1.11,4.18,12.63,12.63,0,0,0,.76,3.63c.52,1.57,1.94,2.87,4.28,3.89a10.29,10.29,0,0,0,4.1.6h.85c1.88,0,4.45-.14,7.69-.43,1.77-.11,3.25-.17,4.45-.17a18.43,18.43,0,0,1,2.82.22,3,3,0,0,1,2.22,1.58,2.3,2.3,0,0,1,.38,1,12.87,12.87,0,0,1,.17,2.14c0,1,0,2.45,0,4.35V99.08a501.51,501.51,0,0,0,3.93,61.52q1.53,12.22,3.2,17.05c1.11,3.22,2.78,5.28,5,6.2a9.9,9.9,0,0,0,4.1.94,16,16,0,0,0,3.21-.52,8,8,0,0,0,4.23-3.07,7.93,7.93,0,0,0,1.88-4.62,9,9,0,0,0,.08-1.28,45.91,45.91,0,0,0-.77-7.18q-4.44-27.17-5.55-71c-.12-4-.2-7.18-.26-9.58s-.08-4.18-.08-5.38a17.85,17.85,0,0,1,.13-2.6,3.37,3.37,0,0,1,.38-1.24A3.31,3.31,0,0,1,334,76.61a8.65,8.65,0,0,1,3.37-.86q2.4-.25,7-.51,5-.17,7.91-.38c1.9-.15,3.33-.29,4.27-.43A10.44,10.44,0,0,0,359,73.79Zm69.56,92.37a9.75,9.75,0,0,1,.25,2,3,3,0,0,1-.08.77q-1.36,7.86-9,8.21a10,10,0,0,1-7.09-2.82,13.59,13.59,0,0,1-2.65-3.21,26.23,26.23,0,0,1-2.23-5.08,14.29,14.29,0,0,0-2.26-4.4,4.31,4.31,0,0,0-2.95-1.5,9.37,9.37,0,0,0-1.45-.08c-1.08,0-2.59.05-4.53.17q-4.78.25-10.21.64c-3.62.25-6.34.5-8.16.72-2.56.29-4.32.94-5.26,2s-1.52,3-1.75,5.81a15,15,0,0,1-1.11,5,8.88,8.88,0,0,1-2.56,3.2,5.25,5.25,0,0,1-1.8,1,11.4,11.4,0,0,1-2.48.34h-.93a10.61,10.61,0,0,1-1.54-.09,5.49,5.49,0,0,1-1.71-.59,11.17,11.17,0,0,1-2.69-2.23,10.76,10.76,0,0,1-2-3q-.85-1.87-.86-6.75A152.71,152.71,0,0,1,355.1,148q1.54-10.86,5-25.25t7.82-27.9q10.43-32,21.87-37.34a8.14,8.14,0,0,1,2.53-.94,22.72,22.72,0,0,1,3.37-.17,14.87,14.87,0,0,1,5,.72,12.85,12.85,0,0,1,4.1,2.69A18.86,18.86,0,0,1,409.41,66a49.32,49.32,0,0,1,3.11,11.2q1.37,7.42,3,20.85,5.73,46.74,11.8,64.08A35.85,35.85,0,0,1,428.59,166.16ZM400.82,136a5.59,5.59,0,0,0-.09-.94c-.06-.74-.18-1.78-.38-3.11s-.47-3.18-.81-5.52q-.69-4.19-1.54-10.55T396.46,104q-1.62-12.32-2.22-13.93A1.76,1.76,0,0,0,392.7,89h-.17a2.88,2.88,0,0,0-2,1.45Q389,93,385.65,104T379,127.79q-2.05,8.11-2,11.28a3.84,3.84,0,0,0,.25,1.62,3.42,3.42,0,0,0,.69.65,8.7,8.7,0,0,0,1.19.72,5,5,0,0,0,1.11.43l2.48-.34c1.65-.17,3.65-.4,6-.69s4.5-.65,6.33-.94a23,23,0,0,0,3.41-.68,3.63,3.63,0,0,0,2-2.14,3.85,3.85,0,0,0,.34-.94A3.72,3.72,0,0,0,400.82,136Zm84-58.36a18.48,18.48,0,0,1,4.11-3.24,17.21,17.21,0,0,1,4.69-1.63c3.42-.62,5.73-1.88,6.93-3.76a8.29,8.29,0,0,0,1.53-4.61,11.9,11.9,0,0,0-1.15-4.27q-1.16-2.74-5.77-4.36a15.16,15.16,0,0,0-4.52-.69q-10.19,0-23.08,13.25-16.4,17.09-26.31,45.46a100.13,100.13,0,0,0-4.19,14.65,68.45,68.45,0,0,0-1.2,12.86v.52q0,16.91,10.43,28,8.21,8.8,19,10.09a32,32,0,0,0,3.24.17,33.74,33.74,0,0,0,12.39-2.57,64.36,64.36,0,0,0,10.64-5.89,36,36,0,0,0,7.65-6.33,11,11,0,0,0,2-5.89,9.07,9.07,0,0,0-2.22-5.81,8.71,8.71,0,0,0-7.17-3.16,10.55,10.55,0,0,0-4.15.81,42.3,42.3,0,0,0-5.94,3.46,49.2,49.2,0,0,1-7,4,14.23,14.23,0,0,1-5.13,1.29,7,7,0,0,1-1,.08,10.29,10.29,0,0,1-7.86-3.84q-5.2-5.64-5.21-15.3,0-13.84,10.68-35.8Q474.82,87.79,484.81,77.63ZM584,56.44a9,9,0,0,0-1.79-.51,21.36,21.36,0,0,0-3.08-.21c-1.42,0-3.59,0-6.49,0a363.94,363.94,0,0,0-49,4.19A33.34,33.34,0,0,0,514.94,62a8.65,8.65,0,0,0-5.26,7.9,12.72,12.72,0,0,0,.77,3.63c.51,1.57,1.94,2.87,4.27,3.89a10.33,10.33,0,0,0,4.1.6h.86q2.82,0,7.69-.43c1.76-.11,3.24-.17,4.44-.17a18.43,18.43,0,0,1,2.82.22,2.93,2.93,0,0,1,2.22,1.58,2.44,2.44,0,0,1,.39,1,15.56,15.56,0,0,1,.17,2.14c0,1,0,2.45,0,4.35V99.08a501.51,501.51,0,0,0,3.93,61.52q1.54,12.22,3.21,17.05c1.11,3.22,2.77,5.28,5,6.2a9.83,9.83,0,0,0,4.1.94,16,16,0,0,0,3.2-.52,8,8,0,0,0,4.23-3.07,7.87,7.87,0,0,0,1.88-4.62,7.59,7.59,0,0,0,.09-1.28,47.18,47.18,0,0,0-.77-7.18q-4.46-27.17-5.56-71c-.11-4-.2-7.18-.25-9.58s-.09-4.18-.09-5.38a17.85,17.85,0,0,1,.13-2.6,3.37,3.37,0,0,1,.38-1.24,3.41,3.41,0,0,1,1.41-1.71,8.71,8.71,0,0,1,3.38-.86q2.38-.25,7-.51,5-.17,7.9-.38c1.91-.15,3.33-.29,4.27-.43a10.66,10.66,0,0,0,2.44-.64q6.23-2.91,6.49-8.46V65Q589.83,59.61,584,56.44Z" transform="translate(0 -2.01)"/></svg>