<svg id="Layer_2" data-name="Layer 2" xmlns="http://www.w3.org/2000/svg" viewBox="0 0 858.65 186.23"><defs><style>.cls-1{fill:#7b7c7f;}</style></defs><path class="cls-1" d="M191.55,163.67q-6.06-17.34-11.79-64.09-1.62-13.41-3-20.84a48.72,48.72,0,0,0-3.12-11.2,18.84,18.84,0,0,0-4.57-6.24,13,13,0,0,0-4.1-2.69,14.87,14.87,0,0,0-5-.72,22.88,22.88,0,0,0-3.38.17A8.18,8.18,0,0,0,154,59q-11.44,5.3-21.87,37.34-4.36,13.5-7.82,27.9t-5,25.25a150.62,150.62,0,0,0-1.54,18.28q0,4.88.85,6.75a11.22,11.22,0,0,0,2,3,11.36,11.36,0,0,0,2.69,2.23,5.68,5.68,0,0,0,1.71.59,10.7,10.7,0,0,0,1.54.09h.94a11.5,11.5,0,0,0,2.48-.34,5.13,5.13,0,0,0,1.79-1,8.91,8.91,0,0,0,2.57-3.2,15,15,0,0,0,1.11-5q.34-4.28,1.75-5.81c.94-1,2.69-1.68,5.25-2,1.83-.22,4.55-.47,8.17-.72s7-.47,10.21-.64c1.93-.12,3.44-.17,4.53-.17a9.47,9.47,0,0,1,1.45.08,4.33,4.33,0,0,1,2.95,1.5,14.29,14.29,0,0,1,2.26,4.4,26.92,26.92,0,0,0,2.22,5.08,13.84,13.84,0,0,0,2.65,3.21,10,10,0,0,0,7.09,2.82q7.6-.34,9-8.21a3.5,3.5,0,0,0,.08-.77,9.19,9.19,0,0,0-.26-2A33.81,33.81,0,0,0,191.55,163.67ZM165,138.29a3.85,3.85,0,0,1-.34.94,3.66,3.66,0,0,1-2,2.14,23.29,23.29,0,0,1-3.42.68q-2.73.44-6.32.94t-6,.69l-2.48.34a4.63,4.63,0,0,1-1.11-.43,7.47,7.47,0,0,1-1.2-.73,2.66,2.66,0,0,1-.68-.64,3.82,3.82,0,0,1-.26-1.62q0-3.16,2.05-11.28,3.25-12.81,6.63-23.8T154.81,92a2.83,2.83,0,0,1,2-1.45H157a1.76,1.76,0,0,1,1.53,1.11q.6,1.62,2.23,13.93.67,5.46,1.53,11.83T163.78,128q.51,3.51.81,5.52c.2,1.33.33,2.37.39,3.11a6.75,6.75,0,0,1,.08.94A4.48,4.48,0,0,1,165,138.29Zm-72.82-124A69,69,0,0,0,77,6,89.15,89.15,0,0,0,59.2.73,85,85,0,0,0,47.49,0,185.27,185.27,0,0,0,22.58,2Q12.46,3.3,8.24,5.13a10.91,10.91,0,0,0-5.92,5.73,17.57,17.57,0,0,0-1.47,4.7,67.85,67.85,0,0,0-.67,8.49Q0,29.78,0,40.89T.24,61.46q.26,9.46,1,24.66t2.2,42q1,17,1.71,26.92T6.65,170a23.55,23.55,0,0,0,2.08,7.33,13.93,13.93,0,0,0,3.35,4,12.4,12.4,0,0,0,4.4,2.68,29.51,29.51,0,0,0,7.08,1.22q4.64.38,8.3.37h3.3a60.49,60.49,0,0,0,7.08-.61q29.54-4.51,43.7-22.46,8.18-11,9.89-22.46a43.26,43.26,0,0,0,.36-5.5,28.48,28.48,0,0,0-3.9-14.77,33.7,33.7,0,0,0-2.75-3.23c-1.26-1.34-2.59-2.71-4-4.09a28.77,28.77,0,0,1-4.88-5,4.48,4.48,0,0,1-.73-2.32,3.67,3.67,0,0,1,.24-1.34,19.84,19.84,0,0,1,2-2.93q1.77-2.31,4.22-5.13,11.34-12.69,16.11-22.58a82.22,82.22,0,0,0,3.48-8,70.53,70.53,0,0,0,2.13-7.57,59.28,59.28,0,0,0,.74-10.13A47.37,47.37,0,0,0,108,37.6Q104.49,23.8,92.16,14.28Zm-31.49,134a38.31,38.31,0,0,1-15.14,7.51,27.08,27.08,0,0,1-6,1.1,5.92,5.92,0,0,1-3.42-1.1,5.28,5.28,0,0,1-2.68-3.35,29,29,0,0,1-.74-7.76,21.11,21.11,0,0,1,.86-7.14,6.39,6.39,0,0,1,3.54-3.35,31,31,0,0,1,7.51-1.65,79.66,79.66,0,0,1,10.31-.67,25,25,0,0,1,7.33.73q4.4,1.59,4.39,5.37Q66.65,143.19,60.67,148.25ZM80.44,49.68a22.85,22.85,0,0,1-1.52,7.81,51.93,51.93,0,0,1-5.19,9.16,110.45,110.45,0,0,1-17.09,19q-10.86,9.89-19,13.8c-.73.32-1.39.59-2,.79a4.06,4.06,0,0,1-1.22.31c-2.6,0-4.11-2.08-4.51-6.23-.08-.89-.25-3.25-.49-7.08s-.49-8.22-.73-13.18q-.5-7.69-.92-15.81t-.79-13q-.5-6.23-.49-9.4a13.29,13.29,0,0,1,.61-4.76,5.44,5.44,0,0,1,2.07-2.44,3.4,3.4,0,0,1,1.59-.86,18.34,18.34,0,0,1,3.42-.3q2.45-.06,7.45-.06,4.75,0,7.44.12a41.23,41.23,0,0,1,4.64.43,32.76,32.76,0,0,1,4.4,1,65.17,65.17,0,0,1,10.07,3.73,36.44,36.44,0,0,1,7.5,4.45,11.83,11.83,0,0,1,2.14,2.2A11.07,11.07,0,0,1,79.35,42a8.81,8.81,0,0,1,1.09,3,11.5,11.5,0,0,1,.13,1.83C80.57,47.69,80.52,48.63,80.44,49.68ZM385.9,28.12q-2.49-7.26.73-12.1a15.47,15.47,0,0,1,1.13-1.41,8.38,8.38,0,0,1,7.46-2.88,7.59,7.59,0,0,1,4.33,2,21.22,21.22,0,0,1,4.84,7.51,18,18,0,0,0,4.51,7.08,11.43,11.43,0,0,0,1.73,1.26,19.86,19.86,0,0,0,4.44,2.14,22.34,22.34,0,0,0,5.37,1A10.42,10.42,0,0,1,426.29,35a8.39,8.39,0,0,1,2,4c.53,1.91-.3,4.18-2.47,6.8l-.28.32q-3.29,3.63-10.13,3.77a31.46,31.46,0,0,1-17-5.44A25.92,25.92,0,0,1,395.22,42,37.37,37.37,0,0,1,385.9,28.12ZM683.23,158.63a7,7,0,0,1,.08,1,9.09,9.09,0,0,1-3.16,6.92,67.5,67.5,0,0,1-5.55,4.14q-4,2.78-8.33,5.51t-6.63,3.93a36.32,36.32,0,0,1-15,3.68,24.31,24.31,0,0,1-5.38-.6q-15.63-4.1-20.25-31.62a207.56,207.56,0,0,1-2.14-31.53q0-16.23,1.8-35.8Q619.4,76,620,71.64a30.47,30.47,0,0,1,1.37-6.32,8.9,8.9,0,0,1,2.14-3.25,11.13,11.13,0,0,1,2.78-2.18,17.53,17.53,0,0,1,4.4-1.45c1.93-.43,4.7-.92,8.28-1.49q8.89-1.38,14.62-2a99.22,99.22,0,0,1,10.25-.6h1.28a28.32,28.32,0,0,1,6.41.52,8.49,8.49,0,0,1,4.1,2.47A9.42,9.42,0,0,1,678.44,64a9,9,0,0,1-.17,1.71,9.63,9.63,0,0,1-5.64,6.75,14.47,14.47,0,0,1-2.9.77,56.3,56.3,0,0,1-5.94.6q-4.06.25-11.58.6c-2.51.11-4.74.25-6.71.42s-3.17.32-3.63.43q-3.25.94-3.93,3.51a46.63,46.63,0,0,0-.47,6.28q-.21,5.34-.43,12.43t-.3,12.3q-.07,5.22-.08,7.78v2.14c.05,1.36.11,2.39.17,3.07a4.88,4.88,0,0,0,.3,1.54,3.34,3.34,0,0,0,.72,1,2,2,0,0,0,1.37.85,10,10,0,0,0,1.11.08,19.07,19.07,0,0,0,3.16-.34q2.57-.42,7.44-1.62a91.52,91.52,0,0,1,9.31-2c1.37-.14,2.22-.21,2.56-.21a7.82,7.82,0,0,1,4.11.94,9.29,9.29,0,0,1,4.87,5.64,10.94,10.94,0,0,1,.34,2.56q0,5.82-6.84,9.14a28.67,28.67,0,0,1-5.25,1.54q-3.81.85-12.61,2.4c-1.53.34-2.93.67-4.18,1a15.23,15.23,0,0,0-2.4.72,6.31,6.31,0,0,0-.89.94,5.15,5.15,0,0,0-.73,1.2,3.84,3.84,0,0,0-.3,1,6.29,6.29,0,0,0,0,.73v.77a18.62,18.62,0,0,0,.43,2.22q1.37,7,3.37,8.89a6,6,0,0,0,4.06,1.88,9.2,9.2,0,0,0,3.42-.77,29.38,29.38,0,0,0,3.72-2c1.73-1.05,3.6-2.24,5.59-3.55,2.91-1.93,5.19-3.39,6.84-4.35a25.93,25.93,0,0,1,4-2,9.29,9.29,0,0,1,3.17-.56,11.72,11.72,0,0,1,1.28-.08,4.68,4.68,0,0,1,1.36.17,6.73,6.73,0,0,1,2.23.94A8,8,0,0,1,683.23,158.63Zm79.29-92.28c.17,1.53.26,5.44.26,11.7s-.06,13-.17,20.08-.29,12.73-.51,16.84q-1.54,25.29-5.13,38.88-4.19,16.58-12,23.92-8.71,8.46-18.46,8.46a23.81,23.81,0,0,1-4.44-.43,32.87,32.87,0,0,1-16-9.14q-7.18-6.84-10.85-18.88t-5.56-34.61q-.86-9.48-.85-20.17,0-9,.59-19,.35-5.72.56-8.93c.14-2.13.3-3.71.47-4.74a11.9,11.9,0,0,1,.6-2.39q1.53-3.77,3.89-4.91a9.41,9.41,0,0,1,4-1.16,8.14,8.14,0,0,1,3.33.77q4.62,2.06,5.22,8.2c0,.74.15,3.2.29,7.35s.27,9.06.39,14.7q.68,42.12,5.64,58.53a26.39,26.39,0,0,0,5.3,10.26c2.33,2.67,4.67,4,7,4q16.75,0,16.92-79.64,0-6.66.09-12.26c0-3.73.14-6,.25-7q.78-6,4.7-8.38a7.1,7.1,0,0,1,2.1-1,15,15,0,0,1,3-.21,17.47,17.47,0,0,1,2.91.17,5,5,0,0,1,2,1Q761.67,61,762.52,66.35Zm66.61,54.21a8.84,8.84,0,0,0-.38,2.35,7.86,7.86,0,0,0,.17,1.63c0,.62,1.44,3.12,4.31,7.47s7.65,11.35,14.32,21q4.44,6.49,6.7,10a32.26,32.26,0,0,1,3,5.38,10.1,10.1,0,0,1,.69,3.55,8.72,8.72,0,0,1-2.23,6.32,8,8,0,0,1-3.58,2.52,11.34,11.34,0,0,1-3.42.65,8.21,8.21,0,0,1-2-.26,13,13,0,0,1-6.75-4.79q-.86-1.11-3.63-5.08t-6.2-8.93q-3.68-5.38-6-8.8t-3.67-5.26c-.89-1.22-1.54-2.08-2-2.56a3.26,3.26,0,0,0-.9-.81,3.86,3.86,0,0,0-1.36-.26,3.67,3.67,0,0,0-2.74,1.28q-.6.69-3.16,4.62t-5.9,9.31l-5.81,9.27q-2.48,4-3,4.75-2.64,3.67-4.7,3.84c-1.36.12-2.16.17-2.39.17a8.49,8.49,0,0,1-6.32-3,8.06,8.06,0,0,1-2-5.55,17.24,17.24,0,0,1,2-7.44q2.31-4.69,7.52-14.18t8.8-15.64c1.19-2,2-3.49,2.56-4.48a10.24,10.24,0,0,0,.94-2.31,10.6,10.6,0,0,0,.17-2.18v-2.65L795,108.64q-2.75-4.61-5.65-9.57l-5.81-9.74c-1.25-2.11-2.55-4.19-3.88-6.24s-2.44-3.61-3.29-4.7a28,28,0,0,1-3.29-4.74,8.59,8.59,0,0,1-.82-3.8,7.86,7.86,0,0,1,4.19-6.92,5.61,5.61,0,0,1,1.8-.73,9.33,9.33,0,0,1,1.62-.13h1a11.53,11.53,0,0,1,4.05,1,15.29,15.29,0,0,1,3.81,2.69q6.75,6.57,19.91,27.6,1.71,2.73,3.07,4.74a15.37,15.37,0,0,0,1.88,2.44,2.67,2.67,0,0,0,1.8.76A3.63,3.63,0,0,0,817.9,100a63.56,63.56,0,0,0,3.8-5.12q3.12-4.45,7.22-10.6,5.3-7.86,8.12-12t4.18-5.77a17.06,17.06,0,0,1,2.22-2.35,10.52,10.52,0,0,1,6-2,9.86,9.86,0,0,1,4.27,1,8.15,8.15,0,0,1,4.06,4.15,12.26,12.26,0,0,1,.89,4.14,12.39,12.39,0,0,1-.59,3.68,49.21,49.21,0,0,1-2.7,4.65q-2.34,3.81-5.68,8.68-14,20.92-18.71,28.37A17.36,17.36,0,0,0,829.13,120.56ZM600.34,98.05q.69,7,.69,16.49a117.71,117.71,0,0,1-.77,15.12q-3.76,26.42-18.46,42.13a38.72,38.72,0,0,1-10.34,8.2,25.11,25.11,0,0,1-6.79,2.27,33.92,33.92,0,0,1-5.43.55,23.47,23.47,0,0,1-2.82-.17,24,24,0,0,1-13.76-6.92Q537,170.59,537,165.21q.53-8.81,9.15-9.31h.17q3.75,0,7.77,3.67c2.22,2.05,4.22,3.08,6,3.08a4.85,4.85,0,0,0,1.29-.17q3.93-1.2,8-6.2a47.36,47.36,0,0,0,7.09-12.43,58.43,58.43,0,0,0,3.55-12,96.44,96.44,0,0,0,1.24-14.61v-2.73a199.34,199.34,0,0,0-1.11-20.94q-1.29-12-3.17-16.23a3.37,3.37,0,0,0-1.92-2.14,7.58,7.58,0,0,0-2.18-.34,22.87,22.87,0,0,0-3.93.43q-4.1.68-12.22,2.65-6.15,1.53-9.91,2.39c-2.51.57-4.37,1-5.6,1.2a17.52,17.52,0,0,1-2.86.34H538a13.32,13.32,0,0,1-2.13-.17q-5.13-1.2-6.54-3.93A10.79,10.79,0,0,1,527.88,73a9.76,9.76,0,0,1,.68-3.42Q530,65.75,535,63.44a73.06,73.06,0,0,1,11.11-3q8-1.71,16.92-3.16t14.53-1.8c.79-.05,1.56-.08,2.3-.08a13.29,13.29,0,0,1,5.9,1.11,11.77,11.77,0,0,1,4.87,5.64Q597.86,76.77,600.34,98.05ZM437.82,163.67Q431.75,146.33,426,99.58q-1.63-13.41-3-20.84a49.32,49.32,0,0,0-3.11-11.2,18.86,18.86,0,0,0-4.58-6.24,12.85,12.85,0,0,0-4.1-2.69,14.87,14.87,0,0,0-5-.72,22.72,22.72,0,0,0-3.37.17,8,8,0,0,0-2.52.94q-11.46,5.3-21.88,37.34-4.37,13.5-7.82,27.9t-5,25.25a152.71,152.71,0,0,0-1.54,18.28q0,4.88.86,6.75a10.76,10.76,0,0,0,2,3,11.17,11.17,0,0,0,2.69,2.23,5.49,5.49,0,0,0,1.71.59,10.7,10.7,0,0,0,1.54.09h.94a11.39,11.39,0,0,0,2.47-.34,5.25,5.25,0,0,0,1.8-1,8.88,8.88,0,0,0,2.56-3.2,15,15,0,0,0,1.11-5q.35-4.28,1.75-5.81c.94-1,2.7-1.68,5.26-2,1.82-.22,4.54-.47,8.16-.72s7-.47,10.21-.64c1.94-.12,3.45-.17,4.53-.17a9.37,9.37,0,0,1,1.45.08,4.31,4.31,0,0,1,2.95,1.5,14.29,14.29,0,0,1,2.26,4.4,26.86,26.86,0,0,0,2.23,5.08,13.59,13.59,0,0,0,2.65,3.21,10,10,0,0,0,7.09,2.82q7.6-.34,9-8.21a3,3,0,0,0,.09-.77,9.88,9.88,0,0,0-.26-2A35.85,35.85,0,0,0,437.82,163.67Zm-26.58-25.38a3.48,3.48,0,0,1-.34.94,3.65,3.65,0,0,1-2,2.14,23.61,23.61,0,0,1-3.42.68c-1.83.29-3.93.6-6.33.94s-4.33.52-6,.69l-2.47.34a4.83,4.83,0,0,1-1.12-.43,7.82,7.82,0,0,1-1.19-.73,2.94,2.94,0,0,1-.69-.64,3.84,3.84,0,0,1-.25-1.62q0-3.16,2.05-11.28,3.24-12.81,6.62-23.8T401.07,92a2.85,2.85,0,0,1,2-1.45h.17a1.76,1.76,0,0,1,1.54,1.11q.6,1.62,2.22,13.93.69,5.46,1.54,11.83T410.05,128q.51,3.51.81,5.52c.2,1.33.33,2.37.38,3.11a5.59,5.59,0,0,1,.09.94A3.72,3.72,0,0,1,411.24,138.29Zm-146.12,8q-3.67-2.4-11.62-4.53c-4-1.08-6.32-1.94-7-2.57a2.25,2.25,0,0,1-.94-1.79,5.32,5.32,0,0,1,1.71-3.33c.51-.57,1.23-1.41,2.17-2.52l2.78-3.29Q267,110.53,267,93.52a37.53,37.53,0,0,0-.51-6.15,32.14,32.14,0,0,0-12.13-19.83q-12.57-9.14-30-9.14c-.8,0-1.63,0-2.48.08q-12.39.44-17.18,4.87a10.09,10.09,0,0,0-2.39,2.78,13.57,13.57,0,0,0-1,5q-.25,3.64-.42,11.5c-.12,4.15-.17,7.74-.17,10.76v4.7q0,3.25.42,10.09,1.55,24.25,4.06,44.69t4.74,26.14a11.07,11.07,0,0,0,5.05,5.39,10.77,10.77,0,0,0,3.84.68,10.44,10.44,0,0,0,3.85-.68,10.84,10.84,0,0,0,3.16-2.48,8.26,8.26,0,0,0,1.88-3.16,9.16,9.16,0,0,0,.42-3c0-.4,0-1.11-.08-2.14s-.37-3.22-.94-6.58a42,42,0,0,1-.77-6.67,9.29,9.29,0,0,1,.34-2.39c.23-.85,1.25-1.28,3.08-1.28a34.68,34.68,0,0,1,5.38.9c2.79.6,5.84,1.29,9.14,2.09s6.24,1.6,8.81,2.39a29.36,29.36,0,0,0,8.2,1.54,7.7,7.7,0,0,0,3.25-.6,9.19,9.19,0,0,0,4.7-4.44,9.33,9.33,0,0,0,.85-3.85,10.75,10.75,0,0,0-.34-2.64A10.22,10.22,0,0,0,265.12,146.33Zm-21.36-40.51A52.32,52.32,0,0,1,239.4,113a61,61,0,0,1-4.4,5.21q-2.69,2.91-5.12,5.22a15.46,15.46,0,0,1-3.46,2.73l-1.29.51h-.85a1.21,1.21,0,0,1-.68-.34,2,2,0,0,1-1-1.11,13.61,13.61,0,0,1-.72-3.12q-.34-2.26-.64-6.84t-.82-12.34c-.05-.86-.08-1.68-.08-2.48q-.51-7.95-.77-12.48c-.06-2-.09-3.61-.09-4.87,0-.62,0-1.39,0-2.3a3.61,3.61,0,0,1,.55-2.05,3.06,3.06,0,0,1,1.46-1,1.08,1.08,0,0,0,.25-.17,5.62,5.62,0,0,1,1.28-.43A5.49,5.49,0,0,1,224,77h.77a17.38,17.38,0,0,1,2.14.25,34.21,34.21,0,0,1,12.82,4.32c3.53,2.13,5.78,4.63,6.75,7.47a15.38,15.38,0,0,1,.68,4.79,22.07,22.07,0,0,1-.6,5.21A37.58,37.58,0,0,1,243.76,105.82Z" transform="translate(0 0)"/></svg>