<svg id="Layer_3" data-name="Layer 3" xmlns="http://www.w3.org/2000/svg" viewBox="0 0 858.65 186.23"><defs><style>.cls-1{fill:#4d4d4f;}</style></defs><path class="cls-1" d="M385.9,28.12q-2.49-7.26.73-12.1a15.47,15.47,0,0,1,1.13-1.41,8.38,8.38,0,0,1,7.46-2.88,7.59,7.59,0,0,1,4.33,2,21.22,21.22,0,0,1,4.84,7.51,18,18,0,0,0,4.51,7.08,11.43,11.43,0,0,0,1.73,1.26,19.86,19.86,0,0,0,4.44,2.14,22.34,22.34,0,0,0,5.37,1A10.42,10.42,0,0,1,426.29,35a8.39,8.39,0,0,1,2,4c.53,1.91-.3,4.18-2.47,6.8l-.28.32q-3.29,3.63-10.13,3.77a31.46,31.46,0,0,1-17-5.44A25.92,25.92,0,0,1,395.22,42,37.37,37.37,0,0,1,385.9,28.12ZM108,37.6a47.37,47.37,0,0,1,.86,9.89,59.28,59.28,0,0,1-.74,10.13A70.53,70.53,0,0,1,106,65.19a82.22,82.22,0,0,1-3.48,8q-4.76,9.89-16.11,22.58Q84,98.64,82.21,101a19.84,19.84,0,0,0-2,2.93,3.67,3.67,0,0,0-.24,1.34,4.48,4.48,0,0,0,.73,2.32,28.77,28.77,0,0,0,4.88,5c1.38,1.38,2.71,2.75,4,4.09a33.7,33.7,0,0,1,2.75,3.23,28.48,28.48,0,0,1,3.9,14.77,43.26,43.26,0,0,1-.36,5.5q-1.72,11.48-9.89,22.46-14.16,17.94-43.7,22.46a60.49,60.49,0,0,1-7.08.61h-3.3q-3.66,0-8.3-.37a29.51,29.51,0,0,1-7.08-1.22,12.4,12.4,0,0,1-4.4-2.68,13.93,13.93,0,0,1-3.35-4A23.55,23.55,0,0,1,6.65,170q-.79-5-1.52-14.95T3.42,128.17q-1.47-26.85-2.2-42t-1-24.66Q0,52,0,40.89T.18,24.05a67.85,67.85,0,0,1,.67-8.49,17.57,17.57,0,0,1,1.47-4.7A10.91,10.91,0,0,1,8.24,5.13Q12.46,3.3,22.58,2A185.27,185.27,0,0,1,47.49,0,85,85,0,0,1,59.2.73,89.15,89.15,0,0,1,77,6a69,69,0,0,1,15.19,8.3Q104.49,23.81,108,37.6ZM66.65,137.94q0-3.78-4.39-5.37a25,25,0,0,0-7.33-.73,79.66,79.66,0,0,0-10.31.67,31,31,0,0,0-7.51,1.65,6.39,6.39,0,0,0-3.54,3.35,21.11,21.11,0,0,0-.86,7.14,29,29,0,0,0,.74,7.76,5.28,5.28,0,0,0,2.68,3.35,5.92,5.92,0,0,0,3.42,1.1,27.08,27.08,0,0,0,6-1.1,38.31,38.31,0,0,0,15.14-7.51Q66.66,143.2,66.65,137.94ZM80.57,46.87A11.5,11.5,0,0,0,80.44,45a8.81,8.81,0,0,0-1.09-3,11.07,11.07,0,0,0-1.53-2.56,11.83,11.83,0,0,0-2.14-2.2,36.44,36.44,0,0,0-7.5-4.45,65.17,65.17,0,0,0-10.07-3.73,32.76,32.76,0,0,0-4.4-1,41.23,41.23,0,0,0-4.64-.43q-2.68-.12-7.44-.12-5,0-7.45.06a18.34,18.34,0,0,0-3.42.3,3.4,3.4,0,0,0-1.59.86,5.44,5.44,0,0,0-2.07,2.44,13.29,13.29,0,0,0-.61,4.76q0,3.18.49,9.4.36,4.88.79,13t.92,15.81q.36,7.44.73,13.18c.24,3.83.41,6.19.49,7.08.4,4.15,1.91,6.23,4.51,6.23a4.06,4.06,0,0,0,1.22-.31c.57-.2,1.23-.47,2-.79q8.17-3.92,19-13.8a110.45,110.45,0,0,0,17.09-19,51.93,51.93,0,0,0,5.19-9.16,22.85,22.85,0,0,0,1.52-7.81C80.52,48.63,80.57,47.69,80.57,46.87ZM192.83,167.69a9.19,9.19,0,0,1,.26,2,3.5,3.5,0,0,1-.08.77q-1.38,7.86-9,8.21a10,10,0,0,1-7.09-2.82,13.84,13.84,0,0,1-2.65-3.21,26.92,26.92,0,0,1-2.22-5.08,14.29,14.29,0,0,0-2.26-4.4,4.33,4.33,0,0,0-2.95-1.5,9.47,9.47,0,0,0-1.45-.08c-1.09,0-2.6.05-4.53.17-3.19.17-6.6.38-10.21.64s-6.34.5-8.17.72c-2.56.29-4.31.94-5.25,2s-1.52,3-1.75,5.81a15,15,0,0,1-1.11,5,8.91,8.91,0,0,1-2.57,3.2,5.13,5.13,0,0,1-1.79,1,11.5,11.5,0,0,1-2.48.34h-.94a10.7,10.7,0,0,1-1.54-.09,5.68,5.68,0,0,1-1.71-.59,11.36,11.36,0,0,1-2.69-2.23,11.22,11.22,0,0,1-2-3q-.85-1.87-.85-6.75a150.62,150.62,0,0,1,1.54-18.28q1.53-10.86,5-25.25t7.82-27.9Q142.58,64.3,154,59a8.18,8.18,0,0,1,2.52-.94,22.88,22.88,0,0,1,3.38-.17,14.87,14.87,0,0,1,5,.72,13,13,0,0,1,4.1,2.69,18.84,18.84,0,0,1,4.57,6.24,48.72,48.72,0,0,1,3.12,11.2q1.36,7.42,3,20.84,5.73,46.76,11.79,64.09A33.81,33.81,0,0,1,192.83,167.69Zm-27.77-30.17a6.75,6.75,0,0,0-.08-.94c-.06-.74-.19-1.78-.39-3.11s-.47-3.18-.81-5.52q-.67-4.19-1.54-10.55t-1.53-11.83q-1.64-12.31-2.23-13.93A1.76,1.76,0,0,0,157,90.53h-.18a2.83,2.83,0,0,0-2,1.45q-1.55,2.56-4.91,13.54t-6.63,23.8q-2,8.12-2.05,11.28a3.82,3.82,0,0,0,.26,1.62,2.66,2.66,0,0,0,.68.64,7.47,7.47,0,0,0,1.2.73,4.63,4.63,0,0,0,1.11.43l2.48-.34q2.48-.26,6-.69t6.32-.94a23.29,23.29,0,0,0,3.42-.68,3.66,3.66,0,0,0,2-2.14,3.85,3.85,0,0,0,.34-.94A4.48,4.48,0,0,0,165.06,137.52Zm513.3,13.85a6.73,6.73,0,0,0-2.23-.94,4.68,4.68,0,0,0-1.36-.17,11.72,11.72,0,0,0-1.28.08,9.29,9.29,0,0,0-3.17.56,25.93,25.93,0,0,0-4,2c-1.65,1-3.93,2.42-6.84,4.35-2,1.31-3.86,2.5-5.59,3.55a29.38,29.38,0,0,1-3.72,2,9.2,9.2,0,0,1-3.42.77,6,6,0,0,1-4.06-1.88q-2-1.89-3.37-8.89a18.62,18.62,0,0,1-.43-2.22v-.77a6.29,6.29,0,0,1,0-.73,3.84,3.84,0,0,1,.3-1,5.15,5.15,0,0,1,.73-1.2,6.31,6.31,0,0,1,.89-.94,15.23,15.23,0,0,1,2.4-.72c1.25-.31,2.65-.64,4.18-1q8.8-1.54,12.61-2.4a28.67,28.67,0,0,0,5.25-1.54q6.84-3.33,6.84-9.14a10.94,10.94,0,0,0-.34-2.56,9.29,9.29,0,0,0-4.87-5.64,7.82,7.82,0,0,0-4.11-.94c-.34,0-1.19.07-2.56.21a91.52,91.52,0,0,0-9.31,2q-4.87,1.2-7.44,1.62a19.07,19.07,0,0,1-3.16.34,10,10,0,0,1-1.11-.08,2,2,0,0,1-1.37-.85,3.34,3.34,0,0,1-.72-1,4.88,4.88,0,0,1-.3-1.54c-.06-.68-.12-1.71-.17-3.07v-2.14q0-2.57.08-7.78t.3-12.3q.21-7.1.43-12.43a46.63,46.63,0,0,1,.47-6.28q.67-2.56,3.93-3.51c.46-.11,1.67-.25,3.63-.43s4.2-.31,6.71-.42q7.51-.34,11.58-.6a56.3,56.3,0,0,0,5.94-.6,14.47,14.47,0,0,0,2.9-.77,9.63,9.63,0,0,0,5.64-6.75,9,9,0,0,0,.17-1.71,9.42,9.42,0,0,0-2.82-6.58,8.49,8.49,0,0,0-4.1-2.47,28.32,28.32,0,0,0-6.41-.52h-1.28a99.22,99.22,0,0,0-10.25.6q-5.73.6-14.62,2c-3.58.57-6.35,1.06-8.28,1.49a17.53,17.53,0,0,0-4.4,1.45,11.13,11.13,0,0,0-2.78,2.18,8.9,8.9,0,0,0-2.14,3.25A30.47,30.47,0,0,0,620,71.64q-.59,4.36-1.36,12.65-1.8,19.58-1.8,35.8A207.56,207.56,0,0,0,619,151.62q4.6,27.52,20.25,31.62a24.31,24.31,0,0,0,5.38.6,36.32,36.32,0,0,0,15-3.68q2.31-1.18,6.63-3.93t8.33-5.51a67.5,67.5,0,0,0,5.55-4.14,9.09,9.09,0,0,0,3.16-6.92,7,7,0,0,0-.08-1A8,8,0,0,0,678.36,151.37Zm79.72-92.89a5,5,0,0,0-2-1,17.47,17.47,0,0,0-2.91-.17,15,15,0,0,0-3,.21,7.1,7.1,0,0,0-2.1,1q-3.93,2.4-4.7,8.38c-.11.91-.2,3.23-.25,7S743,81.64,743,86.08q-.16,79.65-16.92,79.64c-2.33,0-4.67-1.34-7-4a26.39,26.39,0,0,1-5.3-10.26q-5-16.39-5.64-58.53c-.12-5.64-.24-10.54-.39-14.7s-.24-6.61-.29-7.35q-.6-6.15-5.22-8.2A8.14,8.14,0,0,0,699,61.9a9.41,9.41,0,0,0-4,1.16q-2.36,1.14-3.89,4.91a11.9,11.9,0,0,0-.6,2.39c-.17,1-.33,2.61-.47,4.74s-.33,5.12-.56,8.93q-.59,9.91-.59,19,0,10.68.85,20.17,1.88,22.56,5.56,34.61t10.85,18.88a32.87,32.87,0,0,0,16,9.14,23.81,23.81,0,0,0,4.44.43q9.74,0,18.46-8.46,7.77-7.35,12-23.92,3.59-13.59,5.13-38.88.33-6.16.51-16.84t.17-20.08c0-6.26-.09-10.17-.26-11.7Q761.67,61,758.08,58.48ZM831,116.85q4.69-7.44,18.71-28.37,3.33-4.87,5.68-8.68a49.21,49.21,0,0,0,2.7-4.65,12.39,12.39,0,0,0,.59-3.68,12.26,12.26,0,0,0-.89-4.14,8.15,8.15,0,0,0-4.06-4.15,9.86,9.86,0,0,0-4.27-1,10.52,10.52,0,0,0-6,2,17.06,17.06,0,0,0-2.22,2.35q-1.37,1.66-4.18,5.77t-8.12,12q-4.11,6.15-7.22,10.6a63.56,63.56,0,0,1-3.8,5.12,3.63,3.63,0,0,1-2.48,1.28,2.67,2.67,0,0,1-1.8-.76,15.37,15.37,0,0,1-1.88-2.44q-1.37-2-3.07-4.74-13.17-21-19.91-27.6A15.29,15.29,0,0,0,785,63.06a11.53,11.53,0,0,0-4.05-1h-1a9.33,9.33,0,0,0-1.62.13,5.61,5.61,0,0,0-1.8.73,7.86,7.86,0,0,0-4.19,6.92,8.59,8.59,0,0,0,.82,3.8,28,28,0,0,0,3.29,4.74c.85,1.09,2,2.65,3.29,4.7s2.63,4.13,3.88,6.24l5.81,9.74q2.91,5,5.65,9.57l7.17,11.88v2.65a10.6,10.6,0,0,1-.17,2.18,10.24,10.24,0,0,1-.94,2.31c-.51,1-1.37,2.49-2.56,4.48q-3.59,6.15-8.8,15.64T782.18,162a17.24,17.24,0,0,0-2,7.44,8.06,8.06,0,0,0,2,5.55,8.49,8.49,0,0,0,6.32,3c.23,0,1-.05,2.39-.17s2.94-1.39,4.7-3.84q.51-.78,3-4.75l5.81-9.27q3.35-5.39,5.9-9.31t3.16-4.62a3.67,3.67,0,0,1,2.74-1.28,3.86,3.86,0,0,1,1.36.26,3.26,3.26,0,0,1,.9.81c.43.48,1.08,1.34,2,2.56s2.1,3,3.67,5.26,3.57,5.21,6,8.8q3.42,5,6.2,8.93t3.63,5.08a13,13,0,0,0,6.75,4.79,8.21,8.21,0,0,0,2,.26,11.34,11.34,0,0,0,3.42-.65,8,8,0,0,0,3.58-2.52,8.72,8.72,0,0,0,2.23-6.32,10.1,10.1,0,0,0-.69-3.55,32.26,32.26,0,0,0-3-5.38q-2.26-3.54-6.7-10-10-14.44-14.32-21c-2.87-4.35-4.31-6.85-4.31-7.47a7.86,7.86,0,0,1-.17-1.63,8.84,8.84,0,0,1,.38-2.35A17.36,17.36,0,0,1,831,116.85ZM439.1,167.69a9.88,9.88,0,0,1,.26,2,3,3,0,0,1-.09.77q-1.36,7.86-9,8.21a10,10,0,0,1-7.09-2.82,13.59,13.59,0,0,1-2.65-3.21,26.86,26.86,0,0,1-2.23-5.08,14.29,14.29,0,0,0-2.26-4.4,4.31,4.31,0,0,0-2.95-1.5,9.37,9.37,0,0,0-1.45-.08c-1.08,0-2.59.05-4.53.17q-4.78.25-10.21.64c-3.62.25-6.34.5-8.16.72-2.56.29-4.32.94-5.26,2s-1.52,3-1.75,5.81a15,15,0,0,1-1.11,5,8.88,8.88,0,0,1-2.56,3.2,5.25,5.25,0,0,1-1.8,1,11.39,11.39,0,0,1-2.47.34h-.94a10.7,10.7,0,0,1-1.54-.09,5.49,5.49,0,0,1-1.71-.59,11.17,11.17,0,0,1-2.69-2.23,10.76,10.76,0,0,1-2-3q-.85-1.87-.86-6.75a152.71,152.71,0,0,1,1.54-18.28q1.54-10.86,5-25.25t7.82-27.9q10.43-32,21.88-37.34a8,8,0,0,1,2.52-.94,22.72,22.72,0,0,1,3.37-.17,14.87,14.87,0,0,1,5,.72,12.85,12.85,0,0,1,4.1,2.69,18.86,18.86,0,0,1,4.58,6.24A49.32,49.32,0,0,1,423,78.74q1.38,7.42,3,20.84,5.72,46.76,11.79,64.09A35.85,35.85,0,0,1,439.1,167.69Zm-27.77-30.17a5.59,5.59,0,0,0-.09-.94c-.05-.74-.18-1.78-.38-3.11s-.47-3.18-.81-5.52q-.69-4.19-1.54-10.55T407,105.57q-1.62-12.31-2.22-13.93a1.76,1.76,0,0,0-1.54-1.11H403a2.85,2.85,0,0,0-2,1.45q-1.53,2.56-4.91,13.54t-6.62,23.8q-2.06,8.12-2.05,11.28a3.84,3.84,0,0,0,.25,1.62,2.94,2.94,0,0,0,.69.64,7.82,7.82,0,0,0,1.19.73,4.83,4.83,0,0,0,1.12.43l2.47-.34c1.65-.17,3.65-.4,6-.69s4.5-.65,6.33-.94a23.61,23.61,0,0,0,3.42-.68,3.65,3.65,0,0,0,2-2.14,3.48,3.48,0,0,0,.34-.94A3.72,3.72,0,0,0,411.33,137.52ZM590.6,62.16a11.77,11.77,0,0,0-4.87-5.64,13.29,13.29,0,0,0-5.9-1.11c-.74,0-1.51,0-2.3.08q-5.64.34-14.53,1.8t-16.92,3.16a73.06,73.06,0,0,0-11.11,3q-5,2.31-6.41,6.15a9.76,9.76,0,0,0-.68,3.42,10.79,10.79,0,0,0,1.41,4.79q1.41,2.73,6.54,3.93a13.32,13.32,0,0,0,2.13.17h.43a17.52,17.52,0,0,0,2.86-.34c1.23-.23,3.09-.63,5.6-1.2S552.66,79,556.76,78q8.12-2,12.22-2.65a22.87,22.87,0,0,1,3.93-.43,7.58,7.58,0,0,1,2.18.34A3.37,3.37,0,0,1,577,77.37q1.89,4.27,3.17,16.23a199.34,199.34,0,0,1,1.11,20.94v2.73a96.44,96.44,0,0,1-1.24,14.61,58.43,58.43,0,0,1-3.55,12,47.36,47.36,0,0,1-7.09,12.43q-4.11,5-8,6.2a4.85,4.85,0,0,1-1.29.17c-1.76,0-3.76-1-6-3.08q-4-3.67-7.77-3.67h-.17q-8.64.51-9.15,9.31,0,5.39,5.64,10.51a24,24,0,0,0,13.76,6.92,23.47,23.47,0,0,0,2.82.17,33.92,33.92,0,0,0,5.43-.55,25.11,25.11,0,0,0,6.79-2.27,38.72,38.72,0,0,0,10.34-8.2q14.7-15.72,18.46-42.13a117.71,117.71,0,0,0,.77-15.12q0-9.48-.69-16.49Q597.87,76.77,590.6,62.16Zm-320.86,90a10.75,10.75,0,0,1,.34,2.64,9.33,9.33,0,0,1-.85,3.85,9.19,9.19,0,0,1-4.7,4.44,7.7,7.7,0,0,1-3.25.6,29.36,29.36,0,0,1-8.2-1.54c-2.57-.79-5.5-1.59-8.81-2.39s-6.35-1.49-9.14-2.09a34.68,34.68,0,0,0-5.38-.9c-1.83,0-2.85.43-3.08,1.28a9.29,9.29,0,0,0-.34,2.39,42,42,0,0,0,.77,6.67q.85,5,.94,6.58c.06,1,.08,1.74.08,2.14a9.16,9.16,0,0,1-.42,3,8.26,8.26,0,0,1-1.88,3.16,10.84,10.84,0,0,1-3.16,2.48,10.44,10.44,0,0,1-3.85.68,10.77,10.77,0,0,1-3.84-.68,11.07,11.07,0,0,1-5.05-5.39q-2.22-5.72-4.74-26.14t-4.06-44.69q-.42-6.84-.42-10.09v-4.7c0-3,.05-6.61.17-10.76q.16-7.86.42-11.5a13.57,13.57,0,0,1,1-5,10.09,10.09,0,0,1,2.39-2.78q4.78-4.44,17.18-4.87c.85,0,1.68-.08,2.48-.08q17.43,0,30,9.14a32.14,32.14,0,0,1,12.13,19.83,37.53,37.53,0,0,1,.51,6.15q0,17-14.78,34.78l-2.78,3.29c-.94,1.11-1.66,1.95-2.17,2.52a5.32,5.32,0,0,0-1.71,3.33,2.25,2.25,0,0,0,.94,1.79c.68.63,3,1.49,7,2.57q8,2.13,11.62,4.53A10.22,10.22,0,0,1,269.74,152.14ZM246.58,99.07a22.07,22.07,0,0,0,.6-5.21,15.38,15.38,0,0,0-.68-4.79c-1-2.84-3.22-5.34-6.75-7.47a34.21,34.21,0,0,0-12.82-4.32,17.38,17.38,0,0,0-2.14-.25H224a5.49,5.49,0,0,0-.94.08,5.62,5.62,0,0,0-1.28.43,1.08,1.08,0,0,1-.25.17,3.06,3.06,0,0,0-1.46,1,3.61,3.61,0,0,0-.55,2.05c0,.91,0,1.68,0,2.3,0,1.26,0,2.88.09,4.87q.25,4.53.77,12.48c0,.8,0,1.62.08,2.48q.52,7.77.82,12.34t.64,6.84a13.61,13.61,0,0,0,.72,3.12,2,2,0,0,0,1,1.11,1.21,1.21,0,0,0,.68.34h.85l1.29-.51a15.46,15.46,0,0,0,3.46-2.73q2.43-2.31,5.12-5.22a61,61,0,0,0,4.4-5.21,52.32,52.32,0,0,0,4.36-7.18A37.58,37.58,0,0,0,246.58,99.07Z" transform="translate(0 0)"/></svg>