<svg id="Equipe" xmlns="http://www.w3.org/2000/svg" viewBox="0 0 488.7 189.62"><defs><style>.cls-1{fill:#7b7c7f;}.cls-2{fill:#4d4d4f;}</style></defs><path id="gris" class="cls-1" d="M94.85,149.54A8.9,8.9,0,0,1,95,151a13,13,0,0,1-4.52,9.89,92.62,92.62,0,0,1-7.93,5.92q-5.74,4-11.9,7.87t-9.46,5.62q-11.47,5.25-21.49,5.25a34.8,34.8,0,0,1-7.69-.86Q9.65,178.84,3.05,139.53a298.45,298.45,0,0,1-3-45Q0,71.29,2.56,43.34q1.11-11.85,2-18.07a42.68,42.68,0,0,1,2-9A12.4,12.4,0,0,1,9.52,11.6a15.87,15.87,0,0,1,4-3.12,25.08,25.08,0,0,1,6.29-2.07q4.14-.92,11.84-2.14Q44.31,2.32,52.49,1.46A145,145,0,0,1,67.14.61H69a41.16,41.16,0,0,1,9.15.73A12.23,12.23,0,0,1,84,4.88a13.42,13.42,0,0,1,4,9.4,12.54,12.54,0,0,1-.24,2.44q-1.35,6.36-8.06,9.65a21,21,0,0,1-4.15,1.1,81.94,81.94,0,0,1-8.48.85q-5.8.36-16.54.85c-3.58.17-6.78.37-9.59.62a45.15,45.15,0,0,0-5.18.61q-4.65,1.34-5.62,5a67.61,67.61,0,0,0-.67,9q-.3,7.64-.61,17.76t-.43,17.58q-.12,7.46-.12,11.11v3.05c.08,2,.16,3.42.24,4.4a7.68,7.68,0,0,0,.43,2.19,4.59,4.59,0,0,0,1,1.47A2.88,2.88,0,0,0,32,103.15q1.1.12,1.59.12a27.35,27.35,0,0,0,4.52-.49q3.66-.6,10.62-2.32A133.88,133.88,0,0,1,62,97.6c2-.21,3.18-.31,3.66-.31a11.17,11.17,0,0,1,5.86,1.34,13.29,13.29,0,0,1,7,8.06,14.89,14.89,0,0,1,.49,3.66q0,8.31-9.77,13.06a40.1,40.1,0,0,1-7.5,2.2q-5.44,1.22-18,3.42-3.3.74-6,1.4a22.26,22.26,0,0,0-3.42,1A8.33,8.33,0,0,0,33,132.81a7.83,7.83,0,0,0-1,1.71,5.3,5.3,0,0,0-.42,1.41,7.53,7.53,0,0,0-.07,1v1.1a30.59,30.59,0,0,0,.61,3.18c1.31,6.67,2.91,10.9,4.83,12.69a8.54,8.54,0,0,0,5.79,2.69,13.1,13.1,0,0,0,4.89-1.1,40.85,40.85,0,0,0,5.31-2.87c2.48-1.51,5.14-3.19,8-5.07q6.23-4.14,9.77-6.22a36.35,36.35,0,0,1,5.74-2.87,13.14,13.14,0,0,1,4.51-.79,15.13,15.13,0,0,1,1.83-.13,7.23,7.23,0,0,1,2,.25,9.9,9.9,0,0,1,3.17,1.34A11.47,11.47,0,0,1,94.85,149.54Zm95.29,25.66a8.59,8.59,0,0,1,2.39,6.06v.86q-.76,7.42-8.8,8.11c-.8,0-1.63,0-2.48-.08a8.69,8.69,0,0,1-2.05-.34q-4.37-1.2-14.95-7.1c-2.63-1.42-4.59-2.42-5.9-3a9,9,0,0,0-3.42-.85h-.51a14.9,14.9,0,0,0-4,.94,19.64,19.64,0,0,1-5.34,1c-1.62,0-2.72.08-3.29.08a27.45,27.45,0,0,1-5.21-.43q-12.23-3.08-20.85-15.29T104,134.52a121.81,121.81,0,0,1-1.19-17.09,133.1,133.1,0,0,1,1.28-18.28,107.87,107.87,0,0,1,9.48-32.39q3.77-7.77,7.74-10.38t12.34-2.61h1.29q21.87,0,32.72,11.54Q178.43,76.08,182,97.18A98.08,98.08,0,0,1,183.47,114a101.1,101.1,0,0,1-3.07,24.61,92.5,92.5,0,0,1-6.75,18.12c-.69,1.54-1.29,2.9-1.8,4.1a10,10,0,0,0-.77,2.14q0,1.78,2.22,3.33a42.5,42.5,0,0,0,7.95,3.76,47,47,0,0,1,5.77,2.65A12.1,12.1,0,0,1,190.14,175.2Zm-26.32-61.36a76.38,76.38,0,0,0-3.76-23.58q-3-9-8.42-12.82T136.73,73.6a12.09,12.09,0,0,0-5.21.89q-1.8.9-3,4A65.62,65.62,0,0,0,126.14,88a127.29,127.29,0,0,0-3.68,28v1q0,19.41,6.07,31.45,5,9.83,11.28,12.13a6.8,6.8,0,0,0,2.39.52,7.53,7.53,0,0,0,2.65-.6q4-1.45,8.12-7.35a56.28,56.28,0,0,0,6.92-14.36A83.72,83.72,0,0,0,163.82,113.84ZM270,58.73a5.1,5.1,0,0,0-2-1,17.38,17.38,0,0,0-2.91-.17,14.18,14.18,0,0,0-3,.22,7.1,7.1,0,0,0-2.1,1c-2.62,1.59-4.18,4.39-4.7,8.37-.11.91-.2,3.24-.25,7S255,81.88,255,86.33Q254.83,166,238.07,166c-2.33,0-4.67-1.34-7-4a26.48,26.48,0,0,1-5.3-10.25q-5-16.41-5.64-58.54-.18-8.46-.38-14.69t-.3-7.35q-.6-6.15-5.22-8.2a8,8,0,0,0-3.33-.77,9.37,9.37,0,0,0-4,1.15q-2.35,1.15-3.89,4.91a11.84,11.84,0,0,0-.6,2.4c-.17,1-.33,2.6-.47,4.74s-.33,5.11-.55,8.93q-.6,9.91-.6,19,0,10.68.85,20.16Q203.55,146,207.23,158t10.85,18.88a32.89,32.89,0,0,0,16,9.15,24.82,24.82,0,0,0,4.44.42q9.75,0,18.46-8.45,7.77-7.35,12-23.93,3.58-13.59,5.13-38.88c.22-4.1.4-9.71.51-16.83s.17-13.82.17-20.08-.08-10.17-.25-11.71Q273.61,61.21,270,58.73Zm43.41,81.52q-.51-9.83-.77-22-.17-8-.51-19-.18-8.89-.34-15.9-.26-7.77-.47-13.33c-.15-3.7-.27-5.81-.39-6.32a8.55,8.55,0,0,0-3.67-4.36,7.75,7.75,0,0,0-4.1-1.19,6.43,6.43,0,0,0-1.46.17q-5.72,1.36-7.52,7.86-.76,3.42-1.11,16-.25,10.08-.25,22,0,3,0,12.22t.64,21.1q.51,8.2,1.28,18.12t1.2,13.75q1,8,6.32,10.43a10.43,10.43,0,0,0,3.59.68h.51a8.35,8.35,0,0,0,3.08-.51,10.07,10.07,0,0,0,4.78-4.44,10.51,10.51,0,0,0,1-4.87V169q0-3.07-.43-8.2Q314,150.07,313.44,140.25Zm97.24-52.73a27.62,27.62,0,0,1,.51,5.39v1.62a28.53,28.53,0,0,1-.94,6.37,36.17,36.17,0,0,1-2.73,6.62q-3.67,7.44-11.88,16Q385,134.87,366.85,145.2q-2.57,1.55-4.49,2.74c-1.28.8-2,1.28-2.26,1.45a4.13,4.13,0,0,0-1.54,2.18,10.73,10.73,0,0,0-.34,2.86c0,.63,0,1.34.08,2.14.17,2.11.54,5.12,1.11,9.06.4,2.5.67,4.43.81,5.76s.22,2.38.22,3.12a6.52,6.52,0,0,1-.26,1.88,9.59,9.59,0,0,1-3.33,5.43,8.86,8.86,0,0,1-5.73,2.09,9.27,9.27,0,0,1-4.18-1,8.71,8.71,0,0,1-4.53-4.75q-1.55-3.45-2.65-11.49-1.89-13.15-3.08-29.31t-1.19-30.25q0-4,.34-11.75c.22-5.15.5-10,.81-14.65s.61-7.75.9-9.4q1.36-8.12,7.86-10.51a22.87,22.87,0,0,1,5.17-.64c2.25-.09,4.06-.13,5.42-.13q3.08,0,6.5.17c3.76.17,7,.46,9.74.86q21.11,2.9,30.59,13.07a35.75,35.75,0,0,1,3.46,3.72,17.78,17.78,0,0,1,2.09,3.54A25.39,25.39,0,0,1,410.68,87.52Zm-19.4,6.07a7.54,7.54,0,0,0-2.56-5.72q-3.84-4.78-20.85-8.12a53.88,53.88,0,0,0-6.54-1.16l-1.49,0a4.49,4.49,0,0,0-3,.77,3.23,3.23,0,0,0-1.16,1.37,10.21,10.21,0,0,0-.55,3c-.12,1.42-.17,3.59-.17,6.49s0,7,.17,12q.09,8.11.26,14c.11,3.91.22,6.17.34,6.8q.42,3.33,2.82,3.33a10,10,0,0,0,4.78-1.88,95.59,95.59,0,0,0,12.86-9.57,77.64,77.64,0,0,0,10.3-10.6Q391.29,98.12,391.28,93.59Zm97.33,65.28a8,8,0,0,0-4.87-7.26,7.15,7.15,0,0,0-2.22-.94,5.19,5.19,0,0,0-1.37-.17,9.86,9.86,0,0,0-1.28.09,9.22,9.22,0,0,0-3.16.55,25.52,25.52,0,0,0-4,2q-2.47,1.46-6.83,4.36c-2,1.31-3.86,2.49-5.6,3.54a26.92,26.92,0,0,1-3.72,2,9.16,9.16,0,0,1-3.42.77,6,6,0,0,1-4.05-1.88q-2-1.87-3.38-8.89a20,20,0,0,1-.43-2.22v-.77a6.23,6.23,0,0,1,.05-.72,3.36,3.36,0,0,1,.29-1,5.7,5.7,0,0,1,.73-1.19,5.46,5.46,0,0,1,.9-.94,15.76,15.76,0,0,1,2.39-.73c1.25-.31,2.65-.64,4.19-1,5.86-1,10.07-1.82,12.6-2.39a28.84,28.84,0,0,0,5.26-1.54q6.82-3.33,6.83-9.14a10.51,10.51,0,0,0-.34-2.57,9.26,9.26,0,0,0-4.87-5.64,7.85,7.85,0,0,0-4.1-.94c-.34,0-1.2.07-2.57.22a94,94,0,0,0-9.31,2c-3.25.8-5.72,1.34-7.43,1.63a19.17,19.17,0,0,1-3.16.34,11.07,11.07,0,0,1-1.12-.09,2,2,0,0,1-1.36-.85,3.16,3.16,0,0,1-.73-1,5.53,5.53,0,0,1-.3-1.53c-.06-.69-.11-1.71-.17-3.08v-2.14q0-2.56.09-7.77t.3-12.31q.21-7.08.42-12.43a46.81,46.81,0,0,1,.47-6.28q.69-2.57,3.93-3.5a31.85,31.85,0,0,1,3.63-.43q3-.26,6.71-.43,7.52-.34,11.58-.6a59.22,59.22,0,0,0,5.94-.59,15.53,15.53,0,0,0,2.91-.77,9.63,9.63,0,0,0,5.64-6.75,9,9,0,0,0,.17-1.71A9.38,9.38,0,0,0,481,57.62a8.59,8.59,0,0,0-4.11-2.48,29,29,0,0,0-6.4-.51h-1.29a101.86,101.86,0,0,0-10.25.59q-5.73.6-14.61,2-5.39.86-8.29,1.5a17.13,17.13,0,0,0-4.4,1.45,11.08,11.08,0,0,0-2.78,2.18,8.64,8.64,0,0,0-2.13,3.24,30,30,0,0,0-1.37,6.33q-.6,4.35-1.37,12.64-1.8,19.57-1.79,35.81a209,209,0,0,0,2.13,31.53q4.62,27.51,20.25,31.61a24.33,24.33,0,0,0,5.39.6,36.33,36.33,0,0,0,15-3.67c1.54-.8,3.74-2.11,6.62-3.93s5.65-3.66,8.33-5.51a63.62,63.62,0,0,0,5.55-4.15,9.07,9.07,0,0,0,3.17-6.92A6.06,6.06,0,0,0,488.61,158.87Z" transform="translate(0 -0.61)"/><path id="noir" class="cls-2" d="M94.85,149.54A8.9,8.9,0,0,1,95,151a13,13,0,0,1-4.52,9.89,92.62,92.62,0,0,1-7.93,5.92q-5.74,4-11.9,7.87t-9.46,5.62q-11.47,5.25-21.49,5.25a34.8,34.8,0,0,1-7.69-.86Q9.65,178.84,3.05,139.53a298.45,298.45,0,0,1-3-45Q0,71.29,2.56,43.34q1.11-11.85,2-18.07a42.68,42.68,0,0,1,2-9A12.4,12.4,0,0,1,9.52,11.6a15.87,15.87,0,0,1,4-3.12,25.08,25.08,0,0,1,6.29-2.07q4.14-.92,11.84-2.14Q44.31,2.32,52.49,1.46A145,145,0,0,1,67.14.61H69a41.16,41.16,0,0,1,9.15.73A12.23,12.23,0,0,1,84,4.88a13.42,13.42,0,0,1,4,9.4,12.54,12.54,0,0,1-.24,2.44q-1.35,6.36-8.06,9.65a21,21,0,0,1-4.15,1.1,81.94,81.94,0,0,1-8.48.85q-5.8.36-16.54.85c-3.58.17-6.78.37-9.59.62a45.15,45.15,0,0,0-5.18.61q-4.65,1.34-5.62,5a67.61,67.61,0,0,0-.67,9q-.3,7.64-.61,17.76t-.43,17.58q-.12,7.46-.12,11.11v3.05c.08,2,.16,3.42.24,4.4a7.68,7.68,0,0,0,.43,2.19,4.59,4.59,0,0,0,1,1.47A2.88,2.88,0,0,0,32,103.15q1.1.12,1.59.12a27.35,27.35,0,0,0,4.52-.49q3.66-.6,10.62-2.32A133.88,133.88,0,0,1,62,97.6c2-.21,3.18-.31,3.66-.31a11.17,11.17,0,0,1,5.86,1.34,13.29,13.29,0,0,1,7,8.06,14.89,14.89,0,0,1,.49,3.66q0,8.31-9.77,13.06a40.1,40.1,0,0,1-7.5,2.2q-5.44,1.22-18,3.42-3.3.74-6,1.4a22.26,22.26,0,0,0-3.42,1A8.33,8.33,0,0,0,33,132.81a7.83,7.83,0,0,0-1,1.71,5.3,5.3,0,0,0-.42,1.41,7.53,7.53,0,0,0-.07,1v1.1a30.59,30.59,0,0,0,.61,3.18c1.31,6.67,2.91,10.9,4.83,12.69a8.54,8.54,0,0,0,5.79,2.69,13.1,13.1,0,0,0,4.89-1.1,40.85,40.85,0,0,0,5.31-2.87c2.48-1.51,5.14-3.19,8-5.07q6.23-4.14,9.77-6.22a36.35,36.35,0,0,1,5.74-2.87,13.14,13.14,0,0,1,4.51-.79,15.13,15.13,0,0,1,1.83-.13,7.23,7.23,0,0,1,2,.25,9.9,9.9,0,0,1,3.17,1.34A11.47,11.47,0,0,1,94.85,149.54Zm95.29,25.66a8.59,8.59,0,0,1,2.39,6.06v.86q-.76,7.42-8.8,8.11c-.8,0-1.63,0-2.48-.08a8.69,8.69,0,0,1-2.05-.34q-4.37-1.2-14.95-7.1c-2.63-1.42-4.59-2.42-5.9-3a9,9,0,0,0-3.42-.85h-.51a14.9,14.9,0,0,0-4,.94,19.64,19.64,0,0,1-5.34,1c-1.62,0-2.72.08-3.29.08a27.45,27.45,0,0,1-5.21-.43q-12.23-3.08-20.85-15.29T104,134.52a121.81,121.81,0,0,1-1.19-17.09,133.1,133.1,0,0,1,1.28-18.28,107.87,107.87,0,0,1,9.48-32.39q3.77-7.77,7.74-10.38t12.34-2.61h1.29q21.87,0,32.72,11.54Q178.43,76.08,182,97.18A98.08,98.08,0,0,1,183.47,114a101.1,101.1,0,0,1-3.07,24.61,92.5,92.5,0,0,1-6.75,18.12c-.69,1.54-1.29,2.9-1.8,4.1a10,10,0,0,0-.77,2.14q0,1.78,2.22,3.33a42.5,42.5,0,0,0,7.95,3.76,47,47,0,0,1,5.77,2.65A12.1,12.1,0,0,1,190.14,175.2Zm-26.32-61.36a76.38,76.38,0,0,0-3.76-23.58q-3-9-8.42-12.82T136.73,73.6a12.09,12.09,0,0,0-5.21.89q-1.8.9-3,4A65.62,65.62,0,0,0,126.14,88a127.29,127.29,0,0,0-3.68,28v1q0,19.41,6.07,31.45,5,9.83,11.28,12.13a6.8,6.8,0,0,0,2.39.52,7.53,7.53,0,0,0,2.65-.6q4-1.45,8.12-7.35a56.28,56.28,0,0,0,6.92-14.36A83.72,83.72,0,0,0,163.82,113.84ZM270,58.73a5.1,5.1,0,0,0-2-1,17.38,17.38,0,0,0-2.91-.17,14.18,14.18,0,0,0-3,.22,7.1,7.1,0,0,0-2.1,1c-2.62,1.59-4.18,4.39-4.7,8.37-.11.91-.2,3.24-.25,7S255,81.88,255,86.33Q254.83,166,238.07,166c-2.33,0-4.67-1.34-7-4a26.48,26.48,0,0,1-5.3-10.25q-5-16.41-5.64-58.54-.18-8.46-.38-14.69t-.3-7.35q-.6-6.15-5.22-8.2a8,8,0,0,0-3.33-.77,9.37,9.37,0,0,0-4,1.15q-2.35,1.15-3.89,4.91a11.84,11.84,0,0,0-.6,2.4c-.17,1-.33,2.6-.47,4.74s-.33,5.11-.55,8.93q-.6,9.91-.6,19,0,10.68.85,20.16Q203.55,146,207.23,158t10.85,18.88a32.89,32.89,0,0,0,16,9.15,24.82,24.82,0,0,0,4.44.42q9.75,0,18.46-8.45,7.77-7.35,12-23.93,3.58-13.59,5.13-38.88c.22-4.1.4-9.71.51-16.83s.17-13.82.17-20.08-.08-10.17-.25-11.71Q273.61,61.21,270,58.73Zm43.41,81.52q-.51-9.83-.77-22-.17-8-.51-19-.18-8.89-.34-15.9-.26-7.77-.47-13.33c-.15-3.7-.27-5.81-.39-6.32a8.55,8.55,0,0,0-3.67-4.36,7.75,7.75,0,0,0-4.1-1.19,6.43,6.43,0,0,0-1.46.17q-5.72,1.36-7.52,7.86-.76,3.42-1.11,16-.25,10.08-.25,22,0,3,0,12.22t.64,21.1q.51,8.2,1.28,18.12t1.2,13.75q1,8,6.32,10.43a10.43,10.43,0,0,0,3.59.68h.51a8.35,8.35,0,0,0,3.08-.51,10.07,10.07,0,0,0,4.78-4.44,10.51,10.51,0,0,0,1-4.87V169q0-3.07-.43-8.2Q314,150.07,313.44,140.25Zm97.24-52.73a27.62,27.62,0,0,1,.51,5.39v1.62a28.53,28.53,0,0,1-.94,6.37,36.17,36.17,0,0,1-2.73,6.62q-3.67,7.44-11.88,16Q385,134.87,366.85,145.2q-2.57,1.55-4.49,2.74c-1.28.8-2,1.28-2.26,1.45a4.13,4.13,0,0,0-1.54,2.18,10.73,10.73,0,0,0-.34,2.86c0,.63,0,1.34.08,2.14.17,2.11.54,5.12,1.11,9.06.4,2.5.67,4.43.81,5.76s.22,2.38.22,3.12a6.52,6.52,0,0,1-.26,1.88,9.59,9.59,0,0,1-3.33,5.43,8.86,8.86,0,0,1-5.73,2.09,9.27,9.27,0,0,1-4.18-1,8.71,8.71,0,0,1-4.53-4.75q-1.55-3.45-2.65-11.49-1.89-13.15-3.08-29.31t-1.19-30.25q0-4,.34-11.75c.22-5.15.5-10,.81-14.65s.61-7.75.9-9.4q1.36-8.12,7.86-10.51a22.87,22.87,0,0,1,5.17-.64c2.25-.09,4.06-.13,5.42-.13q3.08,0,6.5.17c3.76.17,7,.46,9.74.86q21.11,2.9,30.59,13.07a35.75,35.75,0,0,1,3.46,3.72,17.78,17.78,0,0,1,2.09,3.54A25.39,25.39,0,0,1,410.68,87.52Zm-19.4,6.07a7.54,7.54,0,0,0-2.56-5.72q-3.84-4.78-20.85-8.12a53.88,53.88,0,0,0-6.54-1.16l-1.49,0a4.49,4.49,0,0,0-3,.77,3.23,3.23,0,0,0-1.16,1.37,10.21,10.21,0,0,0-.55,3c-.12,1.42-.17,3.59-.17,6.49s0,7,.17,12q.09,8.11.26,14c.11,3.91.22,6.17.34,6.8q.42,3.33,2.82,3.33a10,10,0,0,0,4.78-1.88,95.59,95.59,0,0,0,12.86-9.57,77.64,77.64,0,0,0,10.3-10.6Q391.29,98.12,391.28,93.59Zm97.33,65.28a8,8,0,0,0-4.87-7.26,7.15,7.15,0,0,0-2.22-.94,5.19,5.19,0,0,0-1.37-.17,9.86,9.86,0,0,0-1.28.09,9.22,9.22,0,0,0-3.16.55,25.52,25.52,0,0,0-4,2q-2.47,1.46-6.83,4.36c-2,1.31-3.86,2.49-5.6,3.54a26.92,26.92,0,0,1-3.72,2,9.16,9.16,0,0,1-3.42.77,6,6,0,0,1-4.05-1.88q-2-1.87-3.38-8.89a20,20,0,0,1-.43-2.22v-.77a6.23,6.23,0,0,1,.05-.72,3.36,3.36,0,0,1,.29-1,5.7,5.7,0,0,1,.73-1.19,5.46,5.46,0,0,1,.9-.94,15.76,15.76,0,0,1,2.39-.73c1.25-.31,2.65-.64,4.19-1,5.86-1,10.07-1.82,12.6-2.39a28.84,28.84,0,0,0,5.26-1.54q6.82-3.33,6.83-9.14a10.51,10.51,0,0,0-.34-2.57,9.26,9.26,0,0,0-4.87-5.64,7.85,7.85,0,0,0-4.1-.94c-.34,0-1.2.07-2.57.22a94,94,0,0,0-9.31,2c-3.25.8-5.72,1.34-7.43,1.63a19.17,19.17,0,0,1-3.16.34,11.07,11.07,0,0,1-1.12-.09,2,2,0,0,1-1.36-.85,3.16,3.16,0,0,1-.73-1,5.53,5.53,0,0,1-.3-1.53c-.06-.69-.11-1.71-.17-3.08v-2.14q0-2.56.09-7.77t.3-12.31q.21-7.08.42-12.43a46.81,46.81,0,0,1,.47-6.28q.69-2.57,3.93-3.5a31.85,31.85,0,0,1,3.63-.43q3-.26,6.71-.43,7.52-.34,11.58-.6a59.22,59.22,0,0,0,5.94-.59,15.53,15.53,0,0,0,2.91-.77,9.63,9.63,0,0,0,5.64-6.75,9,9,0,0,0,.17-1.71A9.38,9.38,0,0,0,481,57.62a8.59,8.59,0,0,0-4.11-2.48,29,29,0,0,0-6.4-.51h-1.29a101.86,101.86,0,0,0-10.25.59q-5.73.6-14.61,2-5.39.86-8.29,1.5a17.13,17.13,0,0,0-4.4,1.45,11.08,11.08,0,0,0-2.78,2.18,8.64,8.64,0,0,0-2.13,3.24,30,30,0,0,0-1.37,6.33q-.6,4.35-1.37,12.64-1.8,19.57-1.79,35.81a209,209,0,0,0,2.13,31.53q4.62,27.51,20.25,31.61a24.33,24.33,0,0,0,5.39.6,36.33,36.33,0,0,0,15-3.67c1.54-.8,3.74-2.11,6.62-3.93s5.65-3.66,8.33-5.51a63.62,63.62,0,0,0,5.55-4.15,9.07,9.07,0,0,0,3.17-6.92A6.06,6.06,0,0,0,488.61,158.87Z" transform="translate(0 -0.61)"/></svg>