<svg id="Charte" xmlns="http://www.w3.org/2000/svg" viewBox="0 0 491.14 182.78"><defs><style>.cls-1{fill:#7b7c7f;}.cls-2{fill:#4d4d4f;}.cls-3{fill:#0903f9;}</style></defs><path id="gris" class="cls-1" d="M43.21,71.53Q28,102.91,28,122.68q0,13.78,7.45,21.85Q40.28,150,46.63,150a9.11,9.11,0,0,0,1.47-.12,20.17,20.17,0,0,0,7.32-1.83,71.2,71.2,0,0,0,10-5.74,60.52,60.52,0,0,1,8.48-4.94,15,15,0,0,1,5.92-1.16q6.6,0,10.26,4.51a13,13,0,0,1,3.17,8.3,15.66,15.66,0,0,1-2.81,8.43q-2.92,3.66-10.92,9a91.53,91.53,0,0,1-15.2,8.42,48.18,48.18,0,0,1-17.7,3.66,45.06,45.06,0,0,1-4.64-.24q-15.38-1.83-27.1-14.4Q0,148.07,0,123.9v-.74a98,98,0,0,1,1.71-18.37,143.15,143.15,0,0,1,6-20.93q14.16-40.53,37.6-64.94Q63.72,0,78.25,0a22,22,0,0,1,6.47,1Q91.31,3.3,93,7.2a17,17,0,0,1,1.64,6.1,11.81,11.81,0,0,1-2.19,6.59q-2.56,4-9.89,5.37a24.86,24.86,0,0,0-6.71,2.32A26.75,26.75,0,0,0,70,32.22Q55.66,46.76,43.21,71.53ZM169.85,136q-.6-13-.86-41.1-.17-13.5-.38-23.24t-.3-11.2q-.6-6.83-5.21-9.05a8.26,8.26,0,0,0-3.25-.69,15.19,15.19,0,0,0-2.95.43,6.31,6.31,0,0,0-3.54,2.56A9.87,9.87,0,0,0,151.48,58a70,70,0,0,0-1,9.19q-.85,13.59-1.11,22.47c-.06,3-.08,6.07-.08,9.32s0,6.75.08,10.34q.16,6.83.21,10.85t0,6.06a25.49,25.49,0,0,1-.17,2.91,3.25,3.25,0,0,1-.47,1.37,3.69,3.69,0,0,1-.85,1.06,5.87,5.87,0,0,1-1.2.9,27.87,27.87,0,0,1-4.1,1.11q-3.07.69-6.24,1.28a27.9,27.9,0,0,1-4.44.6,5,5,0,0,1-2.39-.6,3.91,3.91,0,0,1-1.63-1.53q-.68-1-1.28-11.71t-1.45-37.85q-.26-8-.47-13.93t-.3-6.84Q123.79,58,120,56.14a7.84,7.84,0,0,0-3.42-.77,9.55,9.55,0,0,0-4.87,1.45A5.93,5.93,0,0,0,110,58.27a14.44,14.44,0,0,0-1.45,2.31,15.1,15.1,0,0,0-.9,2.14,12,12,0,0,0-.43,2.56c-.08,1.08-.18,2.73-.3,5q-.68,12.65-.68,24.43c0,3.54.11,8.93.34,16.2s1.11,20.66,2.65,40.2q.6,7.44,1,11.58a49.07,49.07,0,0,0,.94,6.28,13.42,13.42,0,0,0,1.28,3.5q3.07,5,8.2,5h2.69c1.74,0,3.6-1.7,5.6-5.12l1.19-2.22-.25-6.07c-.06-1.48-.09-2.71-.09-3.68,0-.51,0-1.13,0-1.88a3.73,3.73,0,0,1,.55-1.92,4.83,4.83,0,0,1,1.62-1.49,4.37,4.37,0,0,1,1.63-.73,33.42,33.42,0,0,1,3.37-.64c1.51-.23,3.66-.48,6.45-.77a17.48,17.48,0,0,1,2.82-.26,5.54,5.54,0,0,1,3.89,1.29q1.41,1.28,2,6.75c.51,4.1.93,7,1.24,8.75a20.26,20.26,0,0,0,1.07,4.06,10,10,0,0,0,6.75,6.58,7.42,7.42,0,0,0,2,.26,12,12,0,0,0,3.29-.6,9.18,9.18,0,0,0,3.81-2.39,8.84,8.84,0,0,0,2.47-5.21,16.65,16.65,0,0,0,.09-1.88,76.08,76.08,0,0,0-.77-9.06Q170.45,149,169.85,136Zm91.43,28.11a10,10,0,0,1,.26,2,3,3,0,0,1-.09.77q-1.36,7.86-9,8.2a10,10,0,0,1-7.09-2.82,13.74,13.74,0,0,1-2.65-3.2,26.42,26.42,0,0,1-2.22-5.09,14.62,14.62,0,0,0-2.27-4.4,4.3,4.3,0,0,0-2.95-1.49,8,8,0,0,0-1.45-.09c-1.08,0-2.59.06-4.53.17-3.19.17-6.59.39-10.21.64s-6.34.5-8.16.73c-2.56.29-4.32.94-5.26,2s-1.52,3-1.75,5.82a14.9,14.9,0,0,1-1.11,5,8.83,8.83,0,0,1-2.56,3.21,5.38,5.38,0,0,1-1.8,1,11.28,11.28,0,0,1-2.47.35h-.94a10.7,10.7,0,0,1-1.54-.09,5.26,5.26,0,0,1-1.71-.6,12.31,12.31,0,0,1-4.7-5.21q-.86-1.87-.86-6.75a152.68,152.68,0,0,1,1.54-18.29q1.54-10.84,5-25.25t7.82-27.9q10.42-32,21.88-37.34a8.53,8.53,0,0,1,2.52-.94,24.21,24.21,0,0,1,3.37-.17,14.6,14.6,0,0,1,5,.73,12.68,12.68,0,0,1,4.1,2.69A18.66,18.66,0,0,1,242.1,64a49.21,49.21,0,0,1,3.11,11.19q1.38,7.44,3,20.85,5.72,46.74,11.79,64.09A36.56,36.56,0,0,1,261.28,164.14ZM233.51,134a5.5,5.5,0,0,0-.09-.94c0-.74-.18-1.78-.38-3.12s-.47-3.17-.81-5.51q-.69-4.18-1.54-10.55T229.15,102q-1.62-12.3-2.22-13.93A1.76,1.76,0,0,0,225.39,87h-.17a2.89,2.89,0,0,0-2,1.46Q221.72,91,218.34,102t-6.62,23.8q-2.06,8.11-2.05,11.28a3.84,3.84,0,0,0,.25,1.62,3.44,3.44,0,0,0,.69.64,7.82,7.82,0,0,0,1.19.73,4.32,4.32,0,0,0,1.12.42l2.47-.34c1.65-.17,3.65-.39,6-.68s4.5-.66,6.33-.94a23.61,23.61,0,0,0,3.42-.68,3.68,3.68,0,0,0,2-2.14,3.6,3.6,0,0,0,.34-.94A3.72,3.72,0,0,0,233.51,134Zm104.67,14.61a10.85,10.85,0,0,1,.35,2.65,8.92,8.92,0,0,1-5.56,8.29,7.67,7.67,0,0,1-3.25.6,29.79,29.79,0,0,1-8.2-1.54c-2.56-.8-5.5-1.59-8.8-2.39s-6.35-1.5-9.14-2.1a35.74,35.74,0,0,0-5.39-.89c-1.82,0-2.85.42-3.07,1.28a9.18,9.18,0,0,0-.34,2.39,41.72,41.72,0,0,0,.76,6.67c.57,3.36.89,5.55.94,6.58s.09,1.73.09,2.13a8.8,8.8,0,0,1-.43,3,8,8,0,0,1-1.88,3.16,10.55,10.55,0,0,1-3.16,2.48,10.18,10.18,0,0,1-3.84.69,10.65,10.65,0,0,1-3.85-.69,11.07,11.07,0,0,1-5-5.38q-2.22-5.73-4.74-26.15t-4.06-44.69q-.44-6.84-.43-10.08v-4.7q0-4.53.17-10.77c.11-5.24.26-9.07.43-11.49a13.62,13.62,0,0,1,1-5,10,10,0,0,1,2.4-2.78q4.79-4.44,17.17-4.87c.86-.06,1.68-.09,2.48-.09q17.43,0,30,9.15a32.11,32.11,0,0,1,12.14,19.82,37.53,37.53,0,0,1,.51,6.15q0,17-14.78,34.78L317.89,128c-.94,1.11-1.67,2-2.18,2.52A5.36,5.36,0,0,0,314,133.9a2.25,2.25,0,0,0,.94,1.79q1,.94,7,2.56,7.95,2.15,11.62,4.53A10.19,10.19,0,0,1,338.18,148.59ZM315,95.53a22.6,22.6,0,0,0,.59-5.21,15,15,0,0,0-.68-4.79q-1.45-4.27-6.75-7.48a34.26,34.26,0,0,0-12.82-4.31,18.07,18.07,0,0,0-2.13-.26h-.77a4.55,4.55,0,0,0-.94.09,6,6,0,0,0-1.28.42,1.17,1.17,0,0,1-.26.18,3,3,0,0,0-1.45,1,3.63,3.63,0,0,0-.56,2c0,.91,0,1.68,0,2.31,0,1.25,0,2.88.08,4.87q.27,4.53.77,12.48c0,.79,0,1.62.09,2.47l.81,12.35q.3,4.57.64,6.84a13.48,13.48,0,0,0,.73,3.12,2,2,0,0,0,1,1.11,1.24,1.24,0,0,0,.68.34h.86l1.28-.51a15.38,15.38,0,0,0,3.46-2.74c1.62-1.54,3.33-3.27,5.13-5.21a66.41,66.41,0,0,0,4.4-5.21,53.33,53.33,0,0,0,4.36-7.18A39.77,39.77,0,0,0,315,95.53Zm98.26-41.1a9.71,9.71,0,0,0-1.79-.52,22.82,22.82,0,0,0-3.08-.21c-1.42,0-3.59,0-6.49,0a363.94,363.94,0,0,0-49.05,4.19A33.63,33.63,0,0,0,344.21,60,8.65,8.65,0,0,0,339,67.93a12.85,12.85,0,0,0,.77,3.63c.51,1.57,1.94,2.86,4.27,3.89a10.38,10.38,0,0,0,4.11.6H349c1.88,0,4.44-.15,7.69-.43,1.77-.11,3.25-.17,4.44-.17a19.74,19.74,0,0,1,2.82.21,3,3,0,0,1,2.23,1.58,2.57,2.57,0,0,1,.38,1,14.09,14.09,0,0,1,.17,2.14c0,1,0,2.45,0,4.36V97.07a501.51,501.51,0,0,0,3.93,61.52q1.55,12.22,3.21,17c1.11,3.21,2.78,5.28,5,6.19a9.68,9.68,0,0,0,4.1.94,15.78,15.78,0,0,0,3.2-.51,8,8,0,0,0,4.23-3.08,7.81,7.81,0,0,0,1.88-4.61,7.59,7.59,0,0,0,.09-1.28,47.18,47.18,0,0,0-.77-7.18q-4.44-27.18-5.55-71-.18-6-.26-9.57c-.06-2.39-.09-4.19-.09-5.38a19.5,19.5,0,0,1,.13-2.61,3.69,3.69,0,0,1,.39-1.24,3.31,3.31,0,0,1,1.41-1.71,8.86,8.86,0,0,1,3.37-.85c1.6-.17,3.93-.34,7-.51q5-.18,7.9-.39c1.91-.14,3.33-.28,4.27-.43a10,10,0,0,0,2.44-.64q6.24-2.89,6.49-8.46V63Q419.1,57.59,413.29,54.43Zm77.76,100.66a8,8,0,0,0-4.87-7.27,7.05,7.05,0,0,0-2.22-.94,5.13,5.13,0,0,0-1.37-.17,9.86,9.86,0,0,0-1.28.09,9.22,9.22,0,0,0-3.16.55,26,26,0,0,0-4,2q-2.47,1.45-6.83,4.36c-2,1.31-3.86,2.49-5.6,3.55a27.67,27.67,0,0,1-3.72,2,9,9,0,0,1-3.42.77,5.93,5.93,0,0,1-4.05-1.88q-2-1.87-3.38-8.88a20.54,20.54,0,0,1-.43-2.23v-.77a6.39,6.39,0,0,1,.05-.72,3.38,3.38,0,0,1,.3-1,6.06,6.06,0,0,1,1.62-2.14,15.76,15.76,0,0,1,2.39-.73c1.25-.31,2.65-.64,4.19-1q8.81-1.53,12.6-2.39a28.59,28.59,0,0,0,5.26-1.54q6.83-3.33,6.83-9.14a10.57,10.57,0,0,0-.34-2.57,9.31,9.31,0,0,0-4.87-5.64,7.85,7.85,0,0,0-4.1-.94c-.34,0-1.2.08-2.56.22a91.49,91.49,0,0,0-9.32,2c-3.25.79-5.72,1.33-7.43,1.62a19.17,19.17,0,0,1-3.16.34c-.23,0-.6,0-1.11-.08a2,2,0,0,1-1.37-.86,3.24,3.24,0,0,1-.73-1,5.7,5.7,0,0,1-.3-1.54c0-.69-.11-1.71-.17-3.08V114q0-2.56.09-7.78c.05-3.47.15-7.58.3-12.3s.28-8.88.42-12.44a48.76,48.76,0,0,1,.47-6.28c.46-1.71,1.77-2.87,3.93-3.5a31.82,31.82,0,0,1,3.64-.43c2-.17,4.2-.31,6.7-.43q7.53-.33,11.58-.59a58.51,58.51,0,0,0,5.94-.6,15.53,15.53,0,0,0,2.91-.77,9.63,9.63,0,0,0,5.64-6.75,9,9,0,0,0,.17-1.71,9.4,9.4,0,0,0-2.82-6.58,8.69,8.69,0,0,0-4.1-2.48,29.12,29.12,0,0,0-6.41-.51h-1.29a99.53,99.53,0,0,0-10.25.6q-5.73.6-14.61,2-5.39.85-8.29,1.5a17.27,17.27,0,0,0-4.4,1.45,11.08,11.08,0,0,0-2.78,2.18,8.68,8.68,0,0,0-2.13,3.25,29.67,29.67,0,0,0-1.37,6.32q-.6,4.35-1.37,12.65-1.79,19.56-1.79,35.8a209,209,0,0,0,2.13,31.53q4.62,27.51,20.26,31.62a24.84,24.84,0,0,0,5.38.59,36.33,36.33,0,0,0,15-3.67c1.54-.8,3.74-2.11,6.62-3.93s5.65-3.66,8.33-5.51A63.71,63.71,0,0,0,488,163a9.1,9.1,0,0,0,3.16-6.92A5.86,5.86,0,0,0,491.05,155.09Z" transform="translate(0 0)"/><path id="noir" class="cls-2" d="M43.21,71.53Q28,102.91,28,122.68q0,13.78,7.45,21.85Q40.28,150,46.63,150a9.11,9.11,0,0,0,1.47-.12,20.17,20.17,0,0,0,7.32-1.83,71.2,71.2,0,0,0,10-5.74,60.52,60.52,0,0,1,8.48-4.94,15,15,0,0,1,5.92-1.16q6.6,0,10.26,4.51a13,13,0,0,1,3.17,8.3,15.66,15.66,0,0,1-2.81,8.43q-2.92,3.66-10.92,9a91.53,91.53,0,0,1-15.2,8.42,48.18,48.18,0,0,1-17.7,3.66,45.06,45.06,0,0,1-4.64-.24q-15.38-1.83-27.1-14.4Q0,148.07,0,123.9v-.74a98,98,0,0,1,1.71-18.37,143.15,143.15,0,0,1,6-20.93q14.16-40.53,37.6-64.94Q63.72,0,78.25,0a22,22,0,0,1,6.47,1Q91.31,3.3,93,7.2a17,17,0,0,1,1.64,6.1,11.81,11.81,0,0,1-2.19,6.59q-2.56,4-9.89,5.37a24.86,24.86,0,0,0-6.71,2.32A26.75,26.75,0,0,0,70,32.22Q55.66,46.76,43.21,71.53ZM169.85,136q-.6-13-.86-41.1-.17-13.5-.38-23.24t-.3-11.2q-.6-6.83-5.21-9.05a8.26,8.26,0,0,0-3.25-.69,15.19,15.19,0,0,0-2.95.43,6.31,6.31,0,0,0-3.54,2.56A9.87,9.87,0,0,0,151.48,58a70,70,0,0,0-1,9.19q-.85,13.59-1.11,22.47c-.06,3-.08,6.07-.08,9.32s0,6.75.08,10.34q.16,6.83.21,10.85t0,6.06a25.49,25.49,0,0,1-.17,2.91,3.25,3.25,0,0,1-.47,1.37,3.69,3.69,0,0,1-.85,1.06,5.87,5.87,0,0,1-1.2.9,27.87,27.87,0,0,1-4.1,1.11q-3.07.69-6.24,1.28a27.9,27.9,0,0,1-4.44.6,5,5,0,0,1-2.39-.6,3.91,3.91,0,0,1-1.63-1.53q-.68-1-1.28-11.71t-1.45-37.85q-.26-8-.47-13.93t-.3-6.84Q123.79,58,120,56.14a7.84,7.84,0,0,0-3.42-.77,9.55,9.55,0,0,0-4.87,1.45A5.93,5.93,0,0,0,110,58.27a14.44,14.44,0,0,0-1.45,2.31,15.1,15.1,0,0,0-.9,2.14,12,12,0,0,0-.43,2.56c-.08,1.08-.18,2.73-.3,5q-.68,12.65-.68,24.43c0,3.54.11,8.93.34,16.2s1.11,20.66,2.65,40.2q.6,7.44,1,11.58a49.07,49.07,0,0,0,.94,6.28,13.42,13.42,0,0,0,1.28,3.5q3.07,5,8.2,5h2.69c1.74,0,3.6-1.7,5.6-5.12l1.19-2.22-.25-6.07c-.06-1.48-.09-2.71-.09-3.68,0-.51,0-1.13,0-1.88a3.73,3.73,0,0,1,.55-1.92,4.83,4.83,0,0,1,1.62-1.49,4.37,4.37,0,0,1,1.63-.73,33.42,33.42,0,0,1,3.37-.64c1.51-.23,3.66-.48,6.45-.77a17.48,17.48,0,0,1,2.82-.26,5.54,5.54,0,0,1,3.89,1.29q1.41,1.28,2,6.75c.51,4.1.93,7,1.24,8.75a20.26,20.26,0,0,0,1.07,4.06,10,10,0,0,0,6.75,6.58,7.42,7.42,0,0,0,2,.26,12,12,0,0,0,3.29-.6,9.18,9.18,0,0,0,3.81-2.39,8.84,8.84,0,0,0,2.47-5.21,16.65,16.65,0,0,0,.09-1.88,76.08,76.08,0,0,0-.77-9.06Q170.45,149,169.85,136Zm91.43,28.11a10,10,0,0,1,.26,2,3,3,0,0,1-.09.77q-1.36,7.86-9,8.2a10,10,0,0,1-7.09-2.82,13.74,13.74,0,0,1-2.65-3.2,26.42,26.42,0,0,1-2.22-5.09,14.62,14.62,0,0,0-2.27-4.4,4.3,4.3,0,0,0-2.95-1.49,8,8,0,0,0-1.45-.09c-1.08,0-2.59.06-4.53.17-3.19.17-6.59.39-10.21.64s-6.34.5-8.16.73c-2.56.29-4.32.94-5.26,2s-1.52,3-1.75,5.82a14.9,14.9,0,0,1-1.11,5,8.83,8.83,0,0,1-2.56,3.21,5.38,5.38,0,0,1-1.8,1,11.28,11.28,0,0,1-2.47.35h-.94a10.7,10.7,0,0,1-1.54-.09,5.26,5.26,0,0,1-1.71-.6,12.31,12.31,0,0,1-4.7-5.21q-.86-1.87-.86-6.75a152.68,152.68,0,0,1,1.54-18.29q1.54-10.84,5-25.25t7.82-27.9q10.42-32,21.88-37.34a8.53,8.53,0,0,1,2.52-.94,24.21,24.21,0,0,1,3.37-.17,14.6,14.6,0,0,1,5,.73,12.68,12.68,0,0,1,4.1,2.69A18.66,18.66,0,0,1,242.1,64a49.21,49.21,0,0,1,3.11,11.19q1.38,7.44,3,20.85,5.72,46.74,11.79,64.09A36.56,36.56,0,0,1,261.28,164.14ZM233.51,134a5.5,5.5,0,0,0-.09-.94c0-.74-.18-1.78-.38-3.12s-.47-3.17-.81-5.51q-.69-4.18-1.54-10.55T229.15,102q-1.62-12.3-2.22-13.93A1.76,1.76,0,0,0,225.39,87h-.17a2.89,2.89,0,0,0-2,1.46Q221.72,91,218.34,102t-6.62,23.8q-2.06,8.11-2.05,11.28a3.84,3.84,0,0,0,.25,1.62,3.44,3.44,0,0,0,.69.64,7.82,7.82,0,0,0,1.19.73,4.32,4.32,0,0,0,1.12.42l2.47-.34c1.65-.17,3.65-.39,6-.68s4.5-.66,6.33-.94a23.61,23.61,0,0,0,3.42-.68,3.68,3.68,0,0,0,2-2.14,3.6,3.6,0,0,0,.34-.94A3.72,3.72,0,0,0,233.51,134Zm104.67,14.61a10.85,10.85,0,0,1,.35,2.65,8.92,8.92,0,0,1-5.56,8.29,7.67,7.67,0,0,1-3.25.6,29.79,29.79,0,0,1-8.2-1.54c-2.56-.8-5.5-1.59-8.8-2.39s-6.35-1.5-9.14-2.1a35.74,35.74,0,0,0-5.39-.89c-1.82,0-2.85.42-3.07,1.28a9.18,9.18,0,0,0-.34,2.39,41.72,41.72,0,0,0,.76,6.67c.57,3.36.89,5.55.94,6.58s.09,1.73.09,2.13a8.8,8.8,0,0,1-.43,3,8,8,0,0,1-1.88,3.16,10.55,10.55,0,0,1-3.16,2.48,10.18,10.18,0,0,1-3.84.69,10.65,10.65,0,0,1-3.85-.69,11.07,11.07,0,0,1-5-5.38q-2.22-5.73-4.74-26.15t-4.06-44.69q-.44-6.84-.43-10.08v-4.7q0-4.53.17-10.77c.11-5.24.26-9.07.43-11.49a13.62,13.62,0,0,1,1-5,10,10,0,0,1,2.4-2.78q4.79-4.44,17.17-4.87c.86-.06,1.68-.09,2.48-.09q17.43,0,30,9.15a32.11,32.11,0,0,1,12.14,19.82,37.53,37.53,0,0,1,.51,6.15q0,17-14.78,34.78L317.89,128c-.94,1.11-1.67,2-2.18,2.52A5.36,5.36,0,0,0,314,133.9a2.25,2.25,0,0,0,.94,1.79q1,.94,7,2.56,7.95,2.15,11.62,4.53A10.19,10.19,0,0,1,338.18,148.59ZM315,95.53a22.6,22.6,0,0,0,.59-5.21,15,15,0,0,0-.68-4.79q-1.45-4.27-6.75-7.48a34.26,34.26,0,0,0-12.82-4.31,18.07,18.07,0,0,0-2.13-.26h-.77a4.55,4.55,0,0,0-.94.09,6,6,0,0,0-1.28.42,1.17,1.17,0,0,1-.26.18,3,3,0,0,0-1.45,1,3.63,3.63,0,0,0-.56,2c0,.91,0,1.68,0,2.31,0,1.25,0,2.88.08,4.87q.27,4.53.77,12.48c0,.79,0,1.62.09,2.47l.81,12.35q.3,4.57.64,6.84a13.48,13.48,0,0,0,.73,3.12,2,2,0,0,0,1,1.11,1.24,1.24,0,0,0,.68.34h.86l1.28-.51a15.38,15.38,0,0,0,3.46-2.74c1.62-1.54,3.33-3.27,5.13-5.21a66.41,66.41,0,0,0,4.4-5.21,53.33,53.33,0,0,0,4.36-7.18A39.77,39.77,0,0,0,315,95.53Zm98.26-41.1a9.71,9.71,0,0,0-1.79-.52,22.82,22.82,0,0,0-3.08-.21c-1.42,0-3.59,0-6.49,0a363.94,363.94,0,0,0-49.05,4.19A33.63,33.63,0,0,0,344.21,60,8.65,8.65,0,0,0,339,67.93a12.85,12.85,0,0,0,.77,3.63c.51,1.57,1.94,2.86,4.27,3.89a10.38,10.38,0,0,0,4.11.6H349c1.88,0,4.44-.15,7.69-.43,1.77-.11,3.25-.17,4.44-.17a19.74,19.74,0,0,1,2.82.21,3,3,0,0,1,2.23,1.58,2.57,2.57,0,0,1,.38,1,14.09,14.09,0,0,1,.17,2.14c0,1,0,2.45,0,4.36V97.07a501.51,501.51,0,0,0,3.93,61.52q1.55,12.22,3.21,17c1.11,3.21,2.78,5.28,5,6.19a9.68,9.68,0,0,0,4.1.94,15.78,15.78,0,0,0,3.2-.51,8,8,0,0,0,4.23-3.08,7.81,7.81,0,0,0,1.88-4.61,7.59,7.59,0,0,0,.09-1.28,47.18,47.18,0,0,0-.77-7.18q-4.44-27.18-5.55-71-.18-6-.26-9.57c-.06-2.39-.09-4.19-.09-5.38a19.5,19.5,0,0,1,.13-2.61,3.69,3.69,0,0,1,.39-1.24,3.31,3.31,0,0,1,1.41-1.71,8.86,8.86,0,0,1,3.37-.85c1.6-.17,3.93-.34,7-.51q5-.18,7.9-.39c1.91-.14,3.33-.28,4.27-.43a10,10,0,0,0,2.44-.64q6.24-2.89,6.49-8.46V63Q419.1,57.59,413.29,54.43Zm77.76,100.66a8,8,0,0,0-4.87-7.27,7.05,7.05,0,0,0-2.22-.94,5.13,5.13,0,0,0-1.37-.17,9.86,9.86,0,0,0-1.28.09,9.22,9.22,0,0,0-3.16.55,26,26,0,0,0-4,2q-2.47,1.45-6.83,4.36c-2,1.31-3.86,2.49-5.6,3.55a27.67,27.67,0,0,1-3.72,2,9,9,0,0,1-3.42.77,5.93,5.93,0,0,1-4.05-1.88q-2-1.87-3.38-8.88a20.54,20.54,0,0,1-.43-2.23v-.77a6.39,6.39,0,0,1,.05-.72,3.38,3.38,0,0,1,.3-1,6.06,6.06,0,0,1,1.62-2.14,15.76,15.76,0,0,1,2.39-.73c1.25-.31,2.65-.64,4.19-1q8.81-1.53,12.6-2.39a28.59,28.59,0,0,0,5.26-1.54q6.83-3.33,6.83-9.14a10.57,10.57,0,0,0-.34-2.57,9.31,9.31,0,0,0-4.87-5.64,7.85,7.85,0,0,0-4.1-.94c-.34,0-1.2.08-2.56.22a91.49,91.49,0,0,0-9.32,2c-3.25.79-5.72,1.33-7.43,1.62a19.17,19.17,0,0,1-3.16.34c-.23,0-.6,0-1.11-.08a2,2,0,0,1-1.37-.86,3.24,3.24,0,0,1-.73-1,5.7,5.7,0,0,1-.3-1.54c0-.69-.11-1.71-.17-3.08V114q0-2.56.09-7.78c.05-3.47.15-7.58.3-12.3s.28-8.88.42-12.44a48.76,48.76,0,0,1,.47-6.28c.46-1.71,1.77-2.87,3.93-3.5a31.82,31.82,0,0,1,3.64-.43c2-.17,4.2-.31,6.7-.43q7.53-.33,11.58-.59a58.51,58.51,0,0,0,5.94-.6,15.53,15.53,0,0,0,2.91-.77,9.63,9.63,0,0,0,5.64-6.75,9,9,0,0,0,.17-1.71,9.4,9.4,0,0,0-2.82-6.58,8.69,8.69,0,0,0-4.1-2.48,29.12,29.12,0,0,0-6.41-.51h-1.29a99.53,99.53,0,0,0-10.25.6q-5.73.6-14.61,2-5.39.85-8.29,1.5a17.27,17.27,0,0,0-4.4,1.45,11.08,11.08,0,0,0-2.78,2.18,8.68,8.68,0,0,0-2.13,3.25,29.67,29.67,0,0,0-1.37,6.32q-.6,4.35-1.37,12.65-1.79,19.56-1.79,35.8a209,209,0,0,0,2.13,31.53q4.62,27.51,20.26,31.62a24.84,24.84,0,0,0,5.38.59,36.33,36.33,0,0,0,15-3.67c1.54-.8,3.74-2.11,6.62-3.93s5.65-3.66,8.33-5.51A63.71,63.71,0,0,0,488,163a9.1,9.1,0,0,0,3.16-6.92A5.86,5.86,0,0,0,491.05,155.09Z" transform="translate(0 0)"/><path id="bleu" class="cls-3" d="M43.21,71.53Q28,102.91,28,122.68q0,13.78,7.45,21.85Q40.28,150,46.63,150a9.11,9.11,0,0,0,1.47-.12,20.17,20.17,0,0,0,7.32-1.83,71.2,71.2,0,0,0,10-5.74,60.52,60.52,0,0,1,8.48-4.94,15,15,0,0,1,5.92-1.16q6.6,0,10.26,4.51a13,13,0,0,1,3.17,8.3,15.66,15.66,0,0,1-2.81,8.43q-2.92,3.66-10.92,9a91.53,91.53,0,0,1-15.2,8.42,48.18,48.18,0,0,1-17.7,3.66,45.06,45.06,0,0,1-4.64-.24q-15.38-1.83-27.1-14.4Q0,148.07,0,123.9v-.74a98,98,0,0,1,1.71-18.37,143.15,143.15,0,0,1,6-20.93q14.16-40.53,37.6-64.94Q63.72,0,78.25,0a22,22,0,0,1,6.47,1Q91.31,3.3,93,7.2a17,17,0,0,1,1.64,6.1,11.81,11.81,0,0,1-2.19,6.59q-2.56,4-9.89,5.37a24.86,24.86,0,0,0-6.71,2.32A26.75,26.75,0,0,0,70,32.22Q55.66,46.76,43.21,71.53ZM169.85,136q-.6-13-.86-41.1-.17-13.5-.38-23.24t-.3-11.2q-.6-6.83-5.21-9.05a8.26,8.26,0,0,0-3.25-.69,15.19,15.19,0,0,0-2.95.43,6.31,6.31,0,0,0-3.54,2.56A9.87,9.87,0,0,0,151.48,58a70,70,0,0,0-1,9.19q-.85,13.59-1.11,22.47c-.06,3-.08,6.07-.08,9.32s0,6.75.08,10.34q.16,6.83.21,10.85t0,6.06a25.49,25.49,0,0,1-.17,2.91,3.25,3.25,0,0,1-.47,1.37,3.69,3.69,0,0,1-.85,1.06,5.87,5.87,0,0,1-1.2.9,27.87,27.87,0,0,1-4.1,1.11q-3.07.69-6.24,1.28a27.9,27.9,0,0,1-4.44.6,5,5,0,0,1-2.39-.6,3.91,3.91,0,0,1-1.63-1.53q-.68-1-1.28-11.71t-1.45-37.85q-.26-8-.47-13.93t-.3-6.84Q123.79,58,120,56.14a7.84,7.84,0,0,0-3.42-.77,9.55,9.55,0,0,0-4.87,1.45A5.93,5.93,0,0,0,110,58.27a14.44,14.44,0,0,0-1.45,2.31,15.1,15.1,0,0,0-.9,2.14,12,12,0,0,0-.43,2.56c-.08,1.08-.18,2.73-.3,5q-.68,12.65-.68,24.43c0,3.54.11,8.93.34,16.2s1.11,20.66,2.65,40.2q.6,7.44,1,11.58a49.07,49.07,0,0,0,.94,6.28,13.42,13.42,0,0,0,1.28,3.5q3.07,5,8.2,5h2.69c1.74,0,3.6-1.7,5.6-5.12l1.19-2.22-.25-6.07c-.06-1.48-.09-2.71-.09-3.68,0-.51,0-1.13,0-1.88a3.73,3.73,0,0,1,.55-1.92,4.83,4.83,0,0,1,1.62-1.49,4.37,4.37,0,0,1,1.63-.73,33.42,33.42,0,0,1,3.37-.64c1.51-.23,3.66-.48,6.45-.77a17.48,17.48,0,0,1,2.82-.26,5.54,5.54,0,0,1,3.89,1.29q1.41,1.28,2,6.75c.51,4.1.93,7,1.24,8.75a20.26,20.26,0,0,0,1.07,4.06,10,10,0,0,0,6.75,6.58,7.42,7.42,0,0,0,2,.26,12,12,0,0,0,3.29-.6,9.18,9.18,0,0,0,3.81-2.39,8.84,8.84,0,0,0,2.47-5.21,16.65,16.65,0,0,0,.09-1.88,76.08,76.08,0,0,0-.77-9.06Q170.45,149,169.85,136Zm91.43,28.11a10,10,0,0,1,.26,2,3,3,0,0,1-.09.77q-1.36,7.86-9,8.2a10,10,0,0,1-7.09-2.82,13.74,13.74,0,0,1-2.65-3.2,26.42,26.42,0,0,1-2.22-5.09,14.62,14.62,0,0,0-2.27-4.4,4.3,4.3,0,0,0-2.95-1.49,8,8,0,0,0-1.45-.09c-1.08,0-2.59.06-4.53.17-3.19.17-6.59.39-10.21.64s-6.34.5-8.16.73c-2.56.29-4.32.94-5.26,2s-1.52,3-1.75,5.82a14.9,14.9,0,0,1-1.11,5,8.83,8.83,0,0,1-2.56,3.21,5.38,5.38,0,0,1-1.8,1,11.28,11.28,0,0,1-2.47.35h-.94a10.7,10.7,0,0,1-1.54-.09,5.26,5.26,0,0,1-1.71-.6,12.31,12.31,0,0,1-4.7-5.21q-.86-1.87-.86-6.75a152.68,152.68,0,0,1,1.54-18.29q1.54-10.84,5-25.25t7.82-27.9q10.42-32,21.88-37.34a8.53,8.53,0,0,1,2.52-.94,24.21,24.21,0,0,1,3.37-.17,14.6,14.6,0,0,1,5,.73,12.68,12.68,0,0,1,4.1,2.69A18.66,18.66,0,0,1,242.1,64a49.21,49.21,0,0,1,3.11,11.19q1.38,7.44,3,20.85,5.72,46.74,11.79,64.09A36.56,36.56,0,0,1,261.28,164.14ZM233.51,134a5.5,5.5,0,0,0-.09-.94c0-.74-.18-1.78-.38-3.12s-.47-3.17-.81-5.51q-.69-4.18-1.54-10.55T229.15,102q-1.62-12.3-2.22-13.93A1.76,1.76,0,0,0,225.39,87h-.17a2.89,2.89,0,0,0-2,1.46Q221.72,91,218.34,102t-6.62,23.8q-2.06,8.11-2.05,11.28a3.84,3.84,0,0,0,.25,1.62,3.44,3.44,0,0,0,.69.64,7.82,7.82,0,0,0,1.19.73,4.32,4.32,0,0,0,1.12.42l2.47-.34c1.65-.17,3.65-.39,6-.68s4.5-.66,6.33-.94a23.61,23.61,0,0,0,3.42-.68,3.68,3.68,0,0,0,2-2.14,3.6,3.6,0,0,0,.34-.94A3.72,3.72,0,0,0,233.51,134Zm104.67,14.61a10.85,10.85,0,0,1,.35,2.65,8.92,8.92,0,0,1-5.56,8.29,7.67,7.67,0,0,1-3.25.6,29.79,29.79,0,0,1-8.2-1.54c-2.56-.8-5.5-1.59-8.8-2.39s-6.35-1.5-9.14-2.1a35.74,35.74,0,0,0-5.39-.89c-1.82,0-2.85.42-3.07,1.28a9.18,9.18,0,0,0-.34,2.39,41.72,41.72,0,0,0,.76,6.67c.57,3.36.89,5.55.94,6.58s.09,1.73.09,2.13a8.8,8.8,0,0,1-.43,3,8,8,0,0,1-1.88,3.16,10.55,10.55,0,0,1-3.16,2.48,10.18,10.18,0,0,1-3.84.69,10.65,10.65,0,0,1-3.85-.69,11.07,11.07,0,0,1-5-5.38q-2.22-5.73-4.74-26.15t-4.06-44.69q-.44-6.84-.43-10.08v-4.7q0-4.53.17-10.77c.11-5.24.26-9.07.43-11.49a13.62,13.62,0,0,1,1-5,10,10,0,0,1,2.4-2.78q4.79-4.44,17.17-4.87c.86-.06,1.68-.09,2.48-.09q17.43,0,30,9.15a32.11,32.11,0,0,1,12.14,19.82,37.53,37.53,0,0,1,.51,6.15q0,17-14.78,34.78L317.89,128c-.94,1.11-1.67,2-2.18,2.52A5.36,5.36,0,0,0,314,133.9a2.25,2.25,0,0,0,.94,1.79q1,.94,7,2.56,7.95,2.15,11.62,4.53A10.19,10.19,0,0,1,338.18,148.59ZM315,95.53a22.6,22.6,0,0,0,.59-5.21,15,15,0,0,0-.68-4.79q-1.45-4.27-6.75-7.48a34.26,34.26,0,0,0-12.82-4.31,18.07,18.07,0,0,0-2.13-.26h-.77a4.55,4.55,0,0,0-.94.09,6,6,0,0,0-1.28.42,1.17,1.17,0,0,1-.26.18,3,3,0,0,0-1.45,1,3.63,3.63,0,0,0-.56,2c0,.91,0,1.68,0,2.31,0,1.25,0,2.88.08,4.87q.27,4.53.77,12.48c0,.79,0,1.62.09,2.47l.81,12.35q.3,4.57.64,6.84a13.48,13.48,0,0,0,.73,3.12,2,2,0,0,0,1,1.11,1.24,1.24,0,0,0,.68.34h.86l1.28-.51a15.38,15.38,0,0,0,3.46-2.74c1.62-1.54,3.33-3.27,5.13-5.21a66.41,66.41,0,0,0,4.4-5.21,53.33,53.33,0,0,0,4.36-7.18A39.77,39.77,0,0,0,315,95.53Zm98.26-41.1a9.71,9.71,0,0,0-1.79-.52,22.82,22.82,0,0,0-3.08-.21c-1.42,0-3.59,0-6.49,0a363.94,363.94,0,0,0-49.05,4.19A33.63,33.63,0,0,0,344.21,60,8.65,8.65,0,0,0,339,67.93a12.85,12.85,0,0,0,.77,3.63c.51,1.57,1.94,2.86,4.27,3.89a10.38,10.38,0,0,0,4.11.6H349c1.88,0,4.44-.15,7.69-.43,1.77-.11,3.25-.17,4.44-.17a19.74,19.74,0,0,1,2.82.21,3,3,0,0,1,2.23,1.58,2.57,2.57,0,0,1,.38,1,14.09,14.09,0,0,1,.17,2.14c0,1,0,2.45,0,4.36V97.07a501.51,501.51,0,0,0,3.93,61.52q1.55,12.22,3.21,17c1.11,3.21,2.78,5.28,5,6.19a9.68,9.68,0,0,0,4.1.94,15.78,15.78,0,0,0,3.2-.51,8,8,0,0,0,4.23-3.08,7.81,7.81,0,0,0,1.88-4.61,7.59,7.59,0,0,0,.09-1.28,47.18,47.18,0,0,0-.77-7.18q-4.44-27.18-5.55-71-.18-6-.26-9.57c-.06-2.39-.09-4.19-.09-5.38a19.5,19.5,0,0,1,.13-2.61,3.69,3.69,0,0,1,.39-1.24,3.31,3.31,0,0,1,1.41-1.71,8.86,8.86,0,0,1,3.37-.85c1.6-.17,3.93-.34,7-.51q5-.18,7.9-.39c1.91-.14,3.33-.28,4.27-.43a10,10,0,0,0,2.44-.64q6.24-2.89,6.49-8.46V63Q419.1,57.59,413.29,54.43Zm77.76,100.66a8,8,0,0,0-4.87-7.27,7.05,7.05,0,0,0-2.22-.94,5.13,5.13,0,0,0-1.37-.17,9.86,9.86,0,0,0-1.28.09,9.22,9.22,0,0,0-3.16.55,26,26,0,0,0-4,2q-2.47,1.45-6.83,4.36c-2,1.31-3.86,2.49-5.6,3.55a27.67,27.67,0,0,1-3.72,2,9,9,0,0,1-3.42.77,5.93,5.93,0,0,1-4.05-1.88q-2-1.87-3.38-8.88a20.54,20.54,0,0,1-.43-2.23v-.77a6.39,6.39,0,0,1,.05-.72,3.38,3.38,0,0,1,.3-1,6.06,6.06,0,0,1,1.62-2.14,15.76,15.76,0,0,1,2.39-.73c1.25-.31,2.65-.64,4.19-1q8.81-1.53,12.6-2.39a28.59,28.59,0,0,0,5.26-1.54q6.83-3.33,6.83-9.14a10.57,10.57,0,0,0-.34-2.57,9.31,9.31,0,0,0-4.87-5.64,7.85,7.85,0,0,0-4.1-.94c-.34,0-1.2.08-2.56.22a91.49,91.49,0,0,0-9.32,2c-3.25.79-5.72,1.33-7.43,1.62a19.17,19.17,0,0,1-3.16.34c-.23,0-.6,0-1.11-.08a2,2,0,0,1-1.37-.86,3.24,3.24,0,0,1-.73-1,5.7,5.7,0,0,1-.3-1.54c0-.69-.11-1.71-.17-3.08V114q0-2.56.09-7.78c.05-3.47.15-7.58.3-12.3s.28-8.88.42-12.44a48.76,48.76,0,0,1,.47-6.28c.46-1.71,1.77-2.87,3.93-3.5a31.82,31.82,0,0,1,3.64-.43c2-.17,4.2-.31,6.7-.43q7.53-.33,11.58-.59a58.51,58.51,0,0,0,5.94-.6,15.53,15.53,0,0,0,2.91-.77,9.63,9.63,0,0,0,5.64-6.75,9,9,0,0,0,.17-1.71,9.4,9.4,0,0,0-2.82-6.58,8.69,8.69,0,0,0-4.1-2.48,29.12,29.12,0,0,0-6.41-.51h-1.29a99.53,99.53,0,0,0-10.25.6q-5.73.6-14.61,2-5.39.85-8.29,1.5a17.27,17.27,0,0,0-4.4,1.45,11.08,11.08,0,0,0-2.78,2.18,8.68,8.68,0,0,0-2.13,3.25,29.67,29.67,0,0,0-1.37,6.32q-.6,4.35-1.37,12.65-1.79,19.56-1.79,35.8a209,209,0,0,0,2.13,31.53q4.62,27.51,20.26,31.62a24.84,24.84,0,0,0,5.38.59,36.33,36.33,0,0,0,15-3.67c1.54-.8,3.74-2.11,6.62-3.93s5.65-3.66,8.33-5.51A63.71,63.71,0,0,0,488,163a9.1,9.1,0,0,0,3.16-6.92A5.86,5.86,0,0,0,491.05,155.09Z" transform="translate(0 0)"/></svg>