<svg id="Events" xmlns="http://www.w3.org/2000/svg" viewBox="0 0 499.46 185.95"><defs><style>.cls-1{fill:#4d4d4f;}</style></defs><path id="noir" class="cls-1" d="M94.85,148.93a8.9,8.9,0,0,1,.12,1.46,13,13,0,0,1-4.52,9.89,92.62,92.62,0,0,1-7.93,5.92q-5.74,4-11.9,7.87t-9.46,5.62q-11.47,5.25-21.49,5.25a34.8,34.8,0,0,1-7.69-.86Q9.65,178.23,3.05,138.92a298.45,298.45,0,0,1-3-45Q0,70.68,2.56,42.72q1.11-11.83,2-18.06a42.68,42.68,0,0,1,2-9A12.4,12.4,0,0,1,9.52,11a15.87,15.87,0,0,1,4-3.12A25.08,25.08,0,0,1,19.78,5.8q4.14-.91,11.84-2.14,12.69-2,20.87-2.81A145,145,0,0,1,67.14,0H69a41.16,41.16,0,0,1,9.15.73A12.23,12.23,0,0,1,84,4.27a13.42,13.42,0,0,1,4,9.4,12.54,12.54,0,0,1-.24,2.44q-1.35,6.36-8.06,9.65a21,21,0,0,1-4.15,1.1,81.94,81.94,0,0,1-8.48.85q-5.8.36-16.54.85c-3.58.17-6.78.37-9.58.61a46.63,46.63,0,0,0-5.19.62q-4.65,1.34-5.62,5a67.61,67.61,0,0,0-.67,9q-.3,7.64-.61,17.76T28.44,79.1q-.12,7.45-.12,11.11v3.05c.08,1.95.16,3.42.24,4.4A7.68,7.68,0,0,0,29,99.85a4.59,4.59,0,0,0,1,1.47A2.88,2.88,0,0,0,32,102.54q1.1.12,1.59.12a27.35,27.35,0,0,0,4.52-.49q3.66-.6,10.62-2.32A130.86,130.86,0,0,1,62,97c2-.21,3.18-.31,3.66-.31A11.17,11.17,0,0,1,71.53,98a13.29,13.29,0,0,1,7,8.06,14.89,14.89,0,0,1,.49,3.66q0,8.31-9.77,13.06a40.1,40.1,0,0,1-7.5,2.2q-5.44,1.22-18,3.42-3.3.74-6,1.4a22.26,22.26,0,0,0-3.42,1A8.33,8.33,0,0,0,33,132.2a7.83,7.83,0,0,0-1,1.71,5.8,5.8,0,0,0-.43,1.41,9.43,9.43,0,0,0-.06,1v1.1a30.59,30.59,0,0,0,.61,3.18c1.31,6.67,2.91,10.9,4.83,12.69A8.54,8.54,0,0,0,42.72,156a13.1,13.1,0,0,0,4.89-1.1A40.85,40.85,0,0,0,52.92,152c2.48-1.51,5.14-3.19,8-5.07q6.23-4.14,9.77-6.22a36.35,36.35,0,0,1,5.74-2.87,13.14,13.14,0,0,1,4.51-.79,15.13,15.13,0,0,1,1.83-.13,7.23,7.23,0,0,1,2,.25,9.9,9.9,0,0,1,3.17,1.34A11.47,11.47,0,0,1,94.85,148.93Zm83.41-85.86a9,9,0,0,0-7.78-4.35,11.29,11.29,0,0,0-2,.17q-5.73,1.45-7.44,7.52c-.11.51-.28,1.91-.51,4.18s-.48,4.87-.77,7.78-.51,6.41-.85,10.17-.66,7.06-.94,9.91a4,4,0,0,1-.09.85q-.42,4.53-1.15,11.58t-1.41,13.72Q154,139,153.05,145.7a60.43,60.43,0,0,1-1.88,9.57,16.51,16.51,0,0,1-1.37,3.46,3.79,3.79,0,0,1-1.62,1.5,2.24,2.24,0,0,1-1.11.34,2.67,2.67,0,0,1-.51-.08,5.35,5.35,0,0,1-1.45-1.11q-2.75-2.56-6.67-11.41a171.08,171.08,0,0,1-7.18-19.53c-1.19-4.1-2.38-8.68-3.54-13.75S125,102.12,123,92.21q-1.53-7.77-2.77-13.54t-1.58-6.79q-2.57-6.5-8.21-6.5-4.86,0-7.43,4.7a11.75,11.75,0,0,0-1,5.64,50.32,50.32,0,0,0,.69,7.52.38.38,0,0,1,.08.26l.81,6q.48,3.47.82,6.28a227.39,227.39,0,0,0,7.09,34.44q6.32,22.38,14.44,36.18t16.66,17A10.6,10.6,0,0,0,145,184a19.92,19.92,0,0,0,2,.09h1.2a15.93,15.93,0,0,0,3.54-.3,13,13,0,0,0,2.78-1.07Q167.75,176,172,152c.23-1.54.56-4.11,1-7.69s.84-7.35,1.24-11.28q2-19.32,3-29.82t1.54-15.86q.51-5.34.77-9.1.44-5.3.43-8.37c0-.63-.06-1.58-.17-2.86A8.72,8.72,0,0,0,178.26,63.07ZM255.85,151a7.19,7.19,0,0,0-2.23-.94,5.05,5.05,0,0,0-1.36-.17A9.74,9.74,0,0,0,251,150a9.28,9.28,0,0,0-3.17.55,25.93,25.93,0,0,0-4,2Q241.33,154,237,156.9c-2,1.31-3.86,2.49-5.59,3.54a26.92,26.92,0,0,1-3.72,2,9.2,9.2,0,0,1-3.42.77,6,6,0,0,1-4.06-1.88q-2-1.87-3.37-8.89a18.25,18.25,0,0,1-.43-2.22v-.77a6.13,6.13,0,0,1,0-.72,3.78,3.78,0,0,1,.3-1,5.31,5.31,0,0,1,.73-1.19,5.85,5.85,0,0,1,.89-.94,16,16,0,0,1,2.4-.73c1.25-.31,2.65-.64,4.18-1q8.81-1.54,12.61-2.39a29.51,29.51,0,0,0,5.25-1.54q6.84-3.33,6.84-9.14a11,11,0,0,0-.34-2.57,9.29,9.29,0,0,0-4.87-5.64,7.91,7.91,0,0,0-4.11-.94c-.34,0-1.19.07-2.56.22a93.35,93.35,0,0,0-9.31,2q-4.87,1.2-7.44,1.63a19.07,19.07,0,0,1-3.16.34,10.72,10.72,0,0,1-1.11-.09,2,2,0,0,1-1.37-.85,3.12,3.12,0,0,1-.72-1,4.87,4.87,0,0,1-.3-1.53c-.06-.69-.12-1.71-.17-3.08v-2.14q0-2.56.08-7.77t.3-12.31q.21-7.08.43-12.43a46.81,46.81,0,0,1,.47-6.28q.67-2.57,3.93-3.5a31.85,31.85,0,0,1,3.63-.43c2-.17,4.2-.31,6.71-.43q7.52-.35,11.58-.6t5.94-.59a15.18,15.18,0,0,0,2.9-.77,9.63,9.63,0,0,0,5.64-6.75,8.27,8.27,0,0,0,.17-1.71A9.38,9.38,0,0,0,253.11,57a8.51,8.51,0,0,0-4.1-2.48A29.06,29.06,0,0,0,242.6,54h-1.28a101.86,101.86,0,0,0-10.25.59q-5.73.6-14.61,2c-3.59.57-6.36,1.07-8.29,1.5a17.13,17.13,0,0,0-4.4,1.45A10.91,10.91,0,0,0,201,61.71,8.78,8.78,0,0,0,198.85,65a30.44,30.44,0,0,0-1.37,6.33q-.58,4.35-1.36,12.64-1.8,19.58-1.8,35.81a209,209,0,0,0,2.14,31.53q4.62,27.51,20.25,31.61a24.31,24.31,0,0,0,5.38.6,36.29,36.29,0,0,0,15-3.67q2.31-1.2,6.63-3.93t8.33-5.51a65.26,65.26,0,0,0,5.55-4.15,9.06,9.06,0,0,0,3.16-6.92,7.26,7.26,0,0,0-.08-1A8,8,0,0,0,255.85,151Zm89.29-94.42a9.32,9.32,0,0,0-6.66-3.42h-.43a9.33,9.33,0,0,0-6.58,2.74,8.79,8.79,0,0,0-2.35,3.88,31.65,31.65,0,0,0-1,7q-.43,6.08-1.07,15.6t-1.15,17.81q-.26,4-.56,10.77t-.47,13.16c-.11,3.82-.23,6.88-.34,9.19s-.24,4.08-.39,5.34a10,10,0,0,1-.55,2.65,2.5,2.5,0,0,1-.86,1.11.94.94,0,0,1-.51.17,1.12,1.12,0,0,1-.47-.17,6.67,6.67,0,0,1-1.07-1,19.43,19.43,0,0,1-1.19-1.84,23.75,23.75,0,0,1-1.2-2.26c-.28-.8-.8-2.06-1.54-3.8s-1.51-3.55-2.3-5.43q-4.37-10.34-14.53-38.2-5.73-15.72-8.84-21.74T285,61.28a10,10,0,0,0-3.17-.51,14.55,14.55,0,0,0-5.72,1.49,10.74,10.74,0,0,0-5.21,5.26,13,13,0,0,0-.69,2.26,25.71,25.71,0,0,0-.51,3q-.26,3.15-.34,12.9-.09,6.59-.09,13.33,0,3.42.09,10.42t.34,12.31q.26,3.59.68,10.55t.86,14q.67,11.79,1.19,18.25c.35,4.3.66,7.43.95,9.39a14.81,14.81,0,0,0,1.11,4.32,10.06,10.06,0,0,0,5.81,5.64,9.26,9.26,0,0,0,2.73.43,12,12,0,0,0,3.55-.73,9.28,9.28,0,0,0,4.14-3.12,8.35,8.35,0,0,0,1.88-4.53q.09-.93.09-2.22,0-2.64-.35-6.84-.58-6.4-1.11-14.61t-.85-14.61c-.12-3.19-.17-5.38-.17-6.58v-.77c.34-1.42.85-2.13,1.54-2.13a.88.88,0,0,1,.34.08,2.92,2.92,0,0,1,1.19,1.24,32.2,32.2,0,0,1,1.88,3.63c.8,1.71,1.85,4.13,3.17,7.27q6.82,16.07,11.45,24.65t8.41,11.66a13.32,13.32,0,0,0,8.59,3.08h.34q7,0,11.28-6.84,2.91-4.1,4.19-13.33t1.79-30.16q.6-21,2.48-47.26.6-9.22.77-14.27V66.75a28.06,28.06,0,0,0-.56-6.41A8.79,8.79,0,0,0,345.14,56.58Zm89.72,9.91v-.34q0-5.39-5.81-8.54a9.71,9.71,0,0,0-1.79-.52,22.82,22.82,0,0,0-3.08-.21c-1.42,0-3.59,0-6.49,0A363.83,363.83,0,0,0,368.64,61,33.57,33.57,0,0,0,360,63.2a8.65,8.65,0,0,0-5.26,7.91,12.85,12.85,0,0,0,.77,3.63c.51,1.57,1.94,2.86,4.27,3.89a10.38,10.38,0,0,0,4.11.59h.85q2.82,0,7.69-.42c1.77-.12,3.25-.17,4.44-.17a19.74,19.74,0,0,1,2.82.21,2.93,2.93,0,0,1,2.22,1.58,2.41,2.41,0,0,1,.39,1,15.56,15.56,0,0,1,.17,2.14c0,1,0,2.45,0,4.36v12.34a501.54,501.54,0,0,0,3.93,61.53q1.54,12.21,3.21,17c1.11,3.22,2.77,5.29,5,6.2a9.68,9.68,0,0,0,4.1.94,15.78,15.78,0,0,0,3.2-.51,8,8,0,0,0,4.23-3.08,7.84,7.84,0,0,0,1.88-4.61,7.72,7.72,0,0,0,.09-1.29,47.07,47.07,0,0,0-.77-7.17q-4.44-27.18-5.56-71c-.11-4-.2-7.18-.25-9.57s-.09-4.19-.09-5.38a19.5,19.5,0,0,1,.13-2.61,3.72,3.72,0,0,1,.38-1.24,3.38,3.38,0,0,1,1.42-1.71,8.68,8.68,0,0,1,3.37-.85c1.59-.17,3.93-.35,7-.52q5-.16,7.9-.38c1.91-.14,3.33-.28,4.27-.43a10,10,0,0,0,2.44-.64Q434.61,72.05,434.86,66.49Zm63.58,74.21a26.72,26.72,0,0,0-3.08-6.36,38.73,38.73,0,0,0-10.17-10.94q-6.66-5-20.08-12.05-6.41-3.42-9.78-5.3a35.22,35.22,0,0,1-4.79-3,6.71,6.71,0,0,1-1.92-2.26,4.45,4.45,0,0,1-.68-2.4q0-4.52,8.46-11.36,10.5-8.62,18.37-9.83c.74-.11,1.51-.24,2.31-.38a17.2,17.2,0,0,0,1.79-.39,8.22,8.22,0,0,0,5.55-5.55,7.45,7.45,0,0,0,.35-2.22,8.85,8.85,0,0,0-2.06-5.47,11.82,11.82,0,0,0-9.31-3.85,28.44,28.44,0,0,0-8.54,1.54,78.26,78.26,0,0,0-8.81,3.85q-5.12,2.56-8.8,4.87a59.73,59.73,0,0,0-10.38,9,40.88,40.88,0,0,0-7.05,10.13,26.83,26.83,0,0,0-2.39,10.59q0,9.49,8.63,17.35a47.19,47.19,0,0,0,4.06,3.12q2.17,1.5,6.71,4t13.41,7.18q9.75,5.22,14.23,9.14t5,7.61a6.51,6.51,0,0,1,.08.94,5.38,5.38,0,0,1-.13,1.07,10.72,10.72,0,0,1-.72,2q-2.22,4.11-8.46,7.65a40,40,0,0,1-13.42,4.74q-8.71,1.29-10,7.44a10,10,0,0,0-.17,1.88,10.23,10.23,0,0,0,1.41,4.91,9.83,9.83,0,0,0,4.65,4.15,15.74,15.74,0,0,0,5.56.94q7.52,0,18.71-5.39,18-9.31,22-23.32a17.59,17.59,0,0,0,.43-3.08c.05-.74.08-1.57.08-2.48v-1.54A25.59,25.59,0,0,0,498.44,140.7Z" transform="translate(0 0)"/></svg>