<svg id="Concept" xmlns="http://www.w3.org/2000/svg" viewBox="0 0 595.13 182.78"><defs><style>.cls-1{fill:#0903f9;}</style></defs><path id="bleu" class="cls-1" d="M43.21,71.53Q28,102.91,28,122.68q0,13.78,7.45,21.85Q40.28,150,46.63,150a9.11,9.11,0,0,0,1.47-.12,20.17,20.17,0,0,0,7.32-1.83,71.2,71.2,0,0,0,10-5.74,60.52,60.52,0,0,1,8.48-4.94,15,15,0,0,1,5.92-1.16q6.6,0,10.26,4.51a13,13,0,0,1,3.17,8.3,15.66,15.66,0,0,1-2.81,8.43q-2.92,3.66-10.92,9a91.53,91.53,0,0,1-15.2,8.42,48.18,48.18,0,0,1-17.7,3.66,45.06,45.06,0,0,1-4.64-.24q-15.38-1.83-27.1-14.4Q0,148.07,0,123.9v-.73a98,98,0,0,1,1.71-18.38,143.15,143.15,0,0,1,6-20.93q14.16-40.53,37.6-64.94Q63.72,0,78.25,0a22,22,0,0,1,6.47,1Q91.31,3.3,93,7.2a17,17,0,0,1,1.64,6.1,11.81,11.81,0,0,1-2.19,6.59q-2.56,4-9.89,5.37a24.86,24.86,0,0,0-6.71,2.32A26.75,26.75,0,0,0,70,32.22Q55.67,46.76,43.21,71.53Zm140.4,37.58c.11,1.94.17,3.88.17,5.82a98.71,98.71,0,0,1-3.68,26.83,75.92,75.92,0,0,1-13.24,27q-6.75,8.46-15.38,11.62a20,20,0,0,1-3.59,1,33.32,33.32,0,0,1-4.36.35h-2a23.31,23.31,0,0,1-5-.43Q126,178.5,117.94,168.5t-11.92-25a118.26,118.26,0,0,1-2.82-25.81,133.53,133.53,0,0,1,4.61-34.18,89.78,89.78,0,0,1,6.58-16.75,29.1,29.1,0,0,1,5.6-8.12,14.17,14.17,0,0,1,6.71-3.41,40,40,0,0,1,7.52-.6c1,0,2.08,0,3.16.08a72.27,72.27,0,0,1,12.22,1.46Q180.28,63.31,183.61,109.11Zm-19.4,5.73a73.24,73.24,0,0,0-3.93-24.1q-3-8.71-8.38-12.47t-14.35-3.76h-.43a13.84,13.84,0,0,0-5,.64,4.73,4.73,0,0,0-2.35,2.43,60.89,60.89,0,0,0-3.54,12,162.84,162.84,0,0,0-2.78,17q-.6,6.24-.6,11.88,0,19.56,7.09,32.81,6.17,10.6,12.57,10.6a8.76,8.76,0,0,0,4.35-1.2q5.13-3,10.09-12.82,6.15-12.72,6.7-21.66T164.21,114.84ZM275.81,53.4A9.36,9.36,0,0,0,269.14,50h-.43a9.37,9.37,0,0,0-6.58,2.74,8.86,8.86,0,0,0-2.35,3.89,31.47,31.47,0,0,0-1,7q-.42,6.06-1.07,15.59t-1.15,17.82q-.25,4-.56,10.76T255.55,121q-.17,5.73-.34,9.19c-.11,2.31-.24,4.09-.38,5.34a9.9,9.9,0,0,1-.56,2.65,2.56,2.56,0,0,1-.85,1.11.94.94,0,0,1-.51.17,1,1,0,0,1-.47-.17,5.87,5.87,0,0,1-1.07-1c-.34-.45-.74-1.07-1.2-1.83s-.85-1.53-1.2-2.27-.79-2.06-1.53-3.8l-2.31-5.43q-4.37-10.33-14.53-38.19Q224.89,71,221.76,65t-6.11-6.88a10,10,0,0,0-3.16-.51,14.55,14.55,0,0,0-5.73,1.49,10.74,10.74,0,0,0-5.21,5.26,12.32,12.32,0,0,0-.68,2.26,28,28,0,0,0-.52,3q-.25,3.17-.34,12.9-.09,6.58-.08,13.33c0,2.28,0,5.75.08,10.42s.17,8.78.34,12.31c.18,2.39.4,5.91.69,10.55s.57,9.3.85,14q.69,11.79,1.2,18.25t.94,9.4a14.82,14.82,0,0,0,1.11,4.31,10.11,10.11,0,0,0,5.81,5.64,8.94,8.94,0,0,0,2.73.43,11.67,11.67,0,0,0,3.55-.73,9.28,9.28,0,0,0,4.14-3.12,8.24,8.24,0,0,0,1.88-4.53q.09-.93.09-2.22,0-2.64-.34-6.83-.6-6.42-1.11-14.62T221,134.49q-.17-4.78-.17-6.58v-.77c.34-1.42.86-2.13,1.54-2.13a.84.84,0,0,1,.34.08,3,3,0,0,1,1.2,1.24,38.42,38.42,0,0,1,1.88,3.63c.79,1.71,1.85,4.14,3.16,7.27q6.84,16.07,11.45,24.65t8.42,11.66a13.27,13.27,0,0,0,8.58,3.08h.35q7,0,11.28-6.84,2.9-4.09,4.18-13.33t1.8-30.16q.58-21,2.47-47.25.6-9.24.77-14.27v-1.2a28.17,28.17,0,0,0-.55-6.41A8.79,8.79,0,0,0,275.81,53.4Zm61.86,22.22a19.07,19.07,0,0,1,4.1-3.25,17.64,17.64,0,0,1,4.7-1.62q5.13-.94,6.92-3.76a8.25,8.25,0,0,0,1.54-4.62,12,12,0,0,0-1.15-4.27q-1.15-2.73-5.77-4.36a15.49,15.49,0,0,0-4.53-.68q-10.17,0-23.07,13.24Q304,83.4,294.09,111.76a100,100,0,0,0-4.18,14.66,68.37,68.37,0,0,0-1.2,12.86v.51q0,16.92,10.42,28,8.21,8.81,19,10.08a32.16,32.16,0,0,0,3.25.17,33.71,33.71,0,0,0,12.39-2.56,63.73,63.73,0,0,0,10.64-5.9,35.76,35.76,0,0,0,7.65-6.32,11,11,0,0,0,2-5.9,9.09,9.09,0,0,0-2.22-5.81,8.74,8.74,0,0,0-7.18-3.16,10.54,10.54,0,0,0-4.14.81,44.46,44.46,0,0,0-5.94,3.46,50.46,50.46,0,0,1-7,4,13.9,13.9,0,0,1-5.12,1.28,6.06,6.06,0,0,1-1,.09,10.27,10.27,0,0,1-7.86-3.85q-5.22-5.64-5.21-15.29,0-13.84,10.68-35.81Q327.67,85.79,337.67,75.62Zm87.16,72.2a7.25,7.25,0,0,0-2.22-.94,5.19,5.19,0,0,0-1.37-.17,9.74,9.74,0,0,0-1.28.09,9.22,9.22,0,0,0-3.16.55,25.52,25.52,0,0,0-4,2q-2.47,1.45-6.83,4.36c-2,1.31-3.86,2.49-5.6,3.55a27.67,27.67,0,0,1-3.72,2,9,9,0,0,1-3.42.77,6,6,0,0,1-4.06-1.88q-2-1.87-3.37-8.88a20.54,20.54,0,0,1-.43-2.23v-.76a6.29,6.29,0,0,1,0-.73,3.73,3.73,0,0,1,.3-1,6.24,6.24,0,0,1,1.63-2.14,15.76,15.76,0,0,1,2.39-.73c1.25-.31,2.65-.64,4.19-1,5.86-1,10.07-1.82,12.6-2.39a28.84,28.84,0,0,0,5.26-1.54q6.83-3.33,6.83-9.14a10.57,10.57,0,0,0-.34-2.57,9.35,9.35,0,0,0-4.87-5.64,7.87,7.87,0,0,0-4.1-.94c-.34,0-1.2.08-2.57.22a92.12,92.12,0,0,0-9.31,2c-3.25.79-5.72,1.34-7.43,1.62a19.17,19.17,0,0,1-3.17.34c-.22,0-.59,0-1.11-.08a2,2,0,0,1-1.36-.86,3.09,3.09,0,0,1-.73-1,5.7,5.7,0,0,1-.3-1.54c-.06-.69-.11-1.71-.17-3.08V114q0-2.56.09-7.78t.29-12.31q.23-7.08.43-12.43a46.81,46.81,0,0,1,.47-6.28c.46-1.71,1.77-2.87,3.93-3.5a31.85,31.85,0,0,1,3.63-.43c2-.17,4.2-.31,6.71-.43q7.51-.33,11.58-.59a58.51,58.51,0,0,0,5.94-.6,15.18,15.18,0,0,0,2.9-.77,9.58,9.58,0,0,0,5.64-6.75,8.27,8.27,0,0,0,.17-1.71,9.4,9.4,0,0,0-2.82-6.58,8.59,8.59,0,0,0-4.1-2.48,29,29,0,0,0-6.41-.51H410.3a99.22,99.22,0,0,0-10.25.6q-5.73.6-14.61,2c-3.59.57-6.36,1.07-8.29,1.5a17.13,17.13,0,0,0-4.4,1.45A11.08,11.08,0,0,0,370,58.53a8.82,8.82,0,0,0-2.14,3.25,30.45,30.45,0,0,0-1.36,6.32q-.6,4.35-1.37,12.65-1.8,19.56-1.79,35.8a209,209,0,0,0,2.13,31.53q4.62,27.51,20.25,31.62a24.93,24.93,0,0,0,5.39.59,36.33,36.33,0,0,0,15-3.67q2.29-1.2,6.62-3.93t8.33-5.51a61.59,61.59,0,0,0,5.55-4.15,9.07,9.07,0,0,0,3.17-6.92,5.86,5.86,0,0,0-.09-1A8,8,0,0,0,424.83,147.82ZM512.5,83.74a27.52,27.52,0,0,1,.51,5.38v1.62a29,29,0,0,1-.94,6.37,36.17,36.17,0,0,1-2.73,6.62q-3.68,7.44-11.88,16-10.68,11.37-28.8,21.7c-1.7,1-3.2,1.94-4.48,2.74s-2,1.28-2.27,1.45a4.21,4.21,0,0,0-1.53,2.18,10.71,10.71,0,0,0-.35,2.86c0,.63,0,1.34.09,2.14q.25,3.16,1.11,9.06c.4,2.5.67,4.43.81,5.76s.22,2.38.22,3.12a6.52,6.52,0,0,1-.26,1.88,9.56,9.56,0,0,1-3.33,5.43,8.86,8.86,0,0,1-5.73,2.09,9.27,9.27,0,0,1-4.18-1,8.72,8.72,0,0,1-4.53-4.74q-1.55-3.47-2.65-11.5-1.89-13.16-3.08-29.31t-1.2-30.25q0-4,.35-11.75t.81-14.65c.31-4.61.61-7.75.9-9.4q1.36-8.11,7.86-10.51a23.47,23.47,0,0,1,5.17-.64c2.25-.09,4.06-.13,5.42-.13q3.07,0,6.5.17c3.76.17,7,.46,9.74.86q21.1,2.89,30.59,13.07A35.75,35.75,0,0,1,508.1,74a18.07,18.07,0,0,1,2.09,3.54A25.44,25.44,0,0,1,512.5,83.74ZM493.1,89.8a7.54,7.54,0,0,0-2.56-5.72Q486.7,79.3,469.69,76a53.33,53.33,0,0,0-6.54-1.15l-1.49,0a4.49,4.49,0,0,0-3,.77,3.22,3.22,0,0,0-1.16,1.37,10.21,10.21,0,0,0-.55,3c-.12,1.43-.17,3.59-.17,6.5s0,7,.17,12q.07,8.13.25,14c.12,3.91.23,6.17.35,6.8q.42,3.33,2.82,3.33a10,10,0,0,0,4.78-1.88A95.59,95.59,0,0,0,478,111.08a78.24,78.24,0,0,0,10.3-10.6Q493.11,94.33,493.1,89.8Zm96.22-35.37a9.59,9.59,0,0,0-1.8-.52,22.63,22.63,0,0,0-3.07-.21c-1.43,0-3.59,0-6.5,0a363.66,363.66,0,0,0-49,4.19A33.62,33.62,0,0,0,520.23,60a8.62,8.62,0,0,0-4.14,3.72A8.7,8.7,0,0,0,515,67.93a12.5,12.5,0,0,0,.77,3.63c.51,1.57,1.93,2.86,4.27,3.89a10.29,10.29,0,0,0,4.1.6H525c1.89,0,4.45-.15,7.7-.43,1.76-.11,3.24-.17,4.44-.17a19.74,19.74,0,0,1,2.82.21,2.93,2.93,0,0,1,2.22,1.58,2.42,2.42,0,0,1,.38,1,13.89,13.89,0,0,1,.18,2.14c0,1,0,2.45,0,4.36V97.07a501.51,501.51,0,0,0,3.93,61.52q1.53,12.22,3.2,17c1.11,3.21,2.78,5.28,5,6.19a9.75,9.75,0,0,0,4.1.94,15.75,15.75,0,0,0,3.21-.51,8,8,0,0,0,4.23-3.08,7.88,7.88,0,0,0,1.88-4.61,9,9,0,0,0,.08-1.28,45.91,45.91,0,0,0-.77-7.18q-4.44-27.18-5.55-71-.16-6-.26-9.57c0-2.39-.08-4.19-.08-5.38a17.92,17.92,0,0,1,.13-2.61,3.5,3.5,0,0,1,.38-1.24,3.41,3.41,0,0,1,1.41-1.71,8.87,8.87,0,0,1,3.38-.85c1.59-.17,3.93-.34,7-.51q5-.18,7.91-.39c1.9-.14,3.33-.28,4.27-.43a10,10,0,0,0,2.43-.64q6.24-2.89,6.5-8.46V63Q595.13,57.59,589.32,54.43Z" transform="translate(0 0)"/></svg>