<svg id="Coin_Gourmand" data-name="Coin Gourmand" xmlns="http://www.w3.org/2000/svg" viewBox="0 0 1150.98 182.69"><defs><style>.cls-1{fill:#4d4d4f;}</style></defs><path id="noir" class="cls-1" d="M43.21,71.53Q28,102.91,28,122.68q0,13.78,7.45,21.85Q40.28,150,46.63,150a9.11,9.11,0,0,0,1.47-.12,20.17,20.17,0,0,0,7.32-1.83,71.2,71.2,0,0,0,10-5.74,60.52,60.52,0,0,1,8.48-4.94,15,15,0,0,1,5.92-1.16q6.6,0,10.26,4.51a13,13,0,0,1,3.17,8.3,15.66,15.66,0,0,1-2.81,8.43q-2.92,3.66-10.92,9a91.53,91.53,0,0,1-15.2,8.42,48.18,48.18,0,0,1-17.7,3.66,45.06,45.06,0,0,1-4.64-.24q-15.38-1.83-27.1-14.4Q0,148.07,0,123.9v-.74a97.94,97.94,0,0,1,1.71-18.37,143.15,143.15,0,0,1,6-20.93q14.16-40.53,37.6-64.94Q63.72,0,78.25,0a22,22,0,0,1,6.47,1Q91.31,3.3,93,7.2a17,17,0,0,1,1.64,6.1,11.81,11.81,0,0,1-2.19,6.59q-2.56,4-9.89,5.37a24.86,24.86,0,0,0-6.71,2.32A26.75,26.75,0,0,0,70,32.22Q55.66,46.76,43.21,71.53Zm140.4,37.58c.11,1.94.17,3.88.17,5.81a98.72,98.72,0,0,1-3.68,26.84,75.92,75.92,0,0,1-13.24,27q-6.75,8.46-15.38,11.62a21,21,0,0,1-3.59,1,37.69,37.69,0,0,1-4.36.34h-2a23.27,23.27,0,0,1-5-.43Q126,178.5,117.94,168.5t-11.92-25a118.33,118.33,0,0,1-2.82-25.81,133.47,133.47,0,0,1,4.61-34.18,89.51,89.51,0,0,1,6.58-16.75,29.1,29.1,0,0,1,5.6-8.12,14.17,14.17,0,0,1,6.71-3.41,40,40,0,0,1,7.52-.6c1,0,2.07,0,3.16.08a72.27,72.27,0,0,1,12.22,1.46Q180.28,63.31,183.61,109.11Zm-19.4,5.73a73.24,73.24,0,0,0-3.93-24.1q-3-8.71-8.38-12.47t-14.35-3.76h-.43a13.84,13.84,0,0,0-5,.64,4.73,4.73,0,0,0-2.35,2.43,60.89,60.89,0,0,0-3.54,12,162.84,162.84,0,0,0-2.78,17q-.6,6.24-.6,11.88,0,19.56,7.09,32.81,6.17,10.6,12.56,10.6a8.77,8.77,0,0,0,4.36-1.2q5.13-3,10.09-12.82,6.15-12.72,6.7-21.66T164.21,114.84Zm56.57,21.62q-.53-9.83-.77-22-.18-8-.52-19c-.11-5.93-.22-11.22-.34-15.9q-.26-7.77-.47-13.33T218.3,60a8.61,8.61,0,0,0-3.68-4.36,7.82,7.82,0,0,0-4.1-1.19,6.34,6.34,0,0,0-1.45.17q-5.73,1.36-7.52,7.86-.77,3.42-1.11,16-.25,10.08-.26,22,0,3,0,12.22t.64,21.1q.51,8.21,1.28,18.12t1.19,13.76q1,8,6.33,10.42a10.38,10.38,0,0,0,3.59.68h.51a8.35,8.35,0,0,0,3.08-.51,10.11,10.11,0,0,0,4.78-4.44,10.51,10.51,0,0,0,1-4.87v-1.63c0-2.05-.15-4.78-.43-8.2Q221.29,146.28,220.78,136.46ZM319.21,53.4A9.36,9.36,0,0,0,312.55,50h-.43a9.37,9.37,0,0,0-6.58,2.74,8.86,8.86,0,0,0-2.35,3.89,31.47,31.47,0,0,0-1,7q-.43,6.06-1.07,15.59T300,97.07q-.25,4-.56,10.76T299,121c-.11,3.82-.23,6.88-.34,9.19s-.24,4.09-.38,5.34a10.21,10.21,0,0,1-.56,2.65,2.56,2.56,0,0,1-.85,1.11,1,1,0,0,1-.52.17,1.12,1.12,0,0,1-.47-.17,6.34,6.34,0,0,1-1.06-1,18.29,18.29,0,0,1-1.2-1.83,23.87,23.87,0,0,1-1.2-2.27c-.28-.8-.8-2.06-1.54-3.8s-1.51-3.55-2.3-5.43Q284.17,114.59,274,86.73,268.28,71,265.17,65t-6.11-6.88a10,10,0,0,0-3.16-.51,14.55,14.55,0,0,0-5.73,1.49A10.74,10.74,0,0,0,245,64.34a13,13,0,0,0-.69,2.26,30.6,30.6,0,0,0-.51,3c-.17,2.1-.28,6.41-.34,12.9q-.09,6.58-.09,13.33,0,3.42.09,10.42t.34,12.31q.26,3.59.69,10.55t.85,14q.69,11.81,1.2,18.25t.94,9.4a14.82,14.82,0,0,0,1.11,4.31,10.08,10.08,0,0,0,5.81,5.64,8.94,8.94,0,0,0,2.73.43,11.67,11.67,0,0,0,3.55-.73,9.28,9.28,0,0,0,4.14-3.12,8.32,8.32,0,0,0,1.88-4.53q.09-.93.09-2.22c0-1.76-.12-4-.34-6.83q-.6-6.42-1.11-14.62t-.86-14.61q-.17-4.78-.17-6.58v-.77c.34-1.42.85-2.13,1.54-2.13a.84.84,0,0,1,.34.08,3,3,0,0,1,1.2,1.24,37.18,37.18,0,0,1,1.88,3.63c.79,1.71,1.85,4.14,3.16,7.27q6.83,16.07,11.45,24.65t8.41,11.66a13.32,13.32,0,0,0,8.59,3.08h.34q7,0,11.28-6.84,2.91-4.09,4.19-13.33t1.79-30.16q.6-21,2.48-47.25.6-9.24.77-14.27v-1.2a28.17,28.17,0,0,0-.55-6.41A8.8,8.8,0,0,0,319.21,53.4ZM481,101.85a13.61,13.61,0,0,0-1.8-.77,7.15,7.15,0,0,0-2-.3c-.8,0-1.94,0-3.42,0a85.55,85.55,0,0,0-9.65.73,39.46,39.46,0,0,0-7.35,1.49q-4.87,2.06-6,6.5a9,9,0,0,0-.26,2.13,8.67,8.67,0,0,0,2.56,6.07,7.32,7.32,0,0,0,2.82,1.92,18.36,18.36,0,0,0,4.36.81c2.91.12,4.7.74,5.38,1.88a4.75,4.75,0,0,1,.52,2.57,23.29,23.29,0,0,1-.52,4.36q-3.42,20.42-6.92,27.17-2.22,3.33-4.87,3.33-2.47,0-5.3-3-3.58-4.36-5.93-13.42a74.33,74.33,0,0,1-2.35-18.8,84.08,84.08,0,0,1,9.22-38.36,48.56,48.56,0,0,1,15.47-19q4.78-3.51,4.87-7.61a4.48,4.48,0,0,0,.09-.94,7.26,7.26,0,0,0-2.82-5.72,7.76,7.76,0,0,0-5.3-2A16,16,0,0,0,455,52.8a44.19,44.19,0,0,0-9.35,6.84A67.07,67.07,0,0,0,437,69.3a84.77,84.77,0,0,0-5.47,9.48,109.65,109.65,0,0,0-4.87,10.94,104.12,104.12,0,0,0-5.89,33.84v.51a96.1,96.1,0,0,0,5.38,32.47,41.44,41.44,0,0,0,10,15.68A28,28,0,0,0,450.63,180a23.16,23.16,0,0,0,3.42.26,23.78,23.78,0,0,0,13.08-4.1q9.64-5.9,14.18-25,1.37-5.47,2.78-13.16t2.43-14.7a78.57,78.57,0,0,0,1-9.83Q487.55,105.1,481,101.85Zm98.09,7.26c.12,1.94.18,3.88.18,5.81a98.72,98.72,0,0,1-3.68,26.84,75.92,75.92,0,0,1-13.24,27q-6.75,8.46-15.38,11.62a21,21,0,0,1-3.59,1,37.69,37.69,0,0,1-4.36.34h-2a23.27,23.27,0,0,1-5-.43q-10.5-2.82-18.58-12.82t-11.92-25a118.33,118.33,0,0,1-2.82-25.81,133,133,0,0,1,4.61-34.18,89.51,89.51,0,0,1,6.58-16.75,29.1,29.1,0,0,1,5.6-8.12,14.13,14.13,0,0,1,6.71-3.41,40,40,0,0,1,7.52-.6c1,0,2.07,0,3.16.08a72.27,72.27,0,0,1,12.22,1.46Q575.74,63.31,579.06,109.11Zm-19.39,5.73a73.24,73.24,0,0,0-3.93-24.1q-3-8.71-8.38-12.47T533,74.51h-.43a13.81,13.81,0,0,0-5,.64,4.69,4.69,0,0,0-2.35,2.43,60.89,60.89,0,0,0-3.54,12,160.23,160.23,0,0,0-2.78,17q-.6,6.24-.6,11.88,0,19.56,7.09,32.81,6.15,10.6,12.56,10.6a8.8,8.8,0,0,0,4.36-1.2q5.13-3,10.08-12.82,6.17-12.72,6.71-21.66T559.67,114.84Zm103.39-59.9a5.17,5.17,0,0,0-2-1,17.38,17.38,0,0,0-2.91-.17,14.88,14.88,0,0,0-3,.22,7.1,7.1,0,0,0-2.1,1c-2.62,1.59-4.18,4.39-4.7,8.37-.11.92-.2,3.24-.25,7S648,78.1,648,82.54q-.16,79.64-16.92,79.64c-2.33,0-4.67-1.34-7-4a26.27,26.27,0,0,1-5.3-10.25q-5-16.41-5.64-58.53c-.12-5.64-.24-10.54-.39-14.7s-.24-6.61-.29-7.35q-.6-6.15-5.22-8.2a8,8,0,0,0-3.33-.77,9.37,9.37,0,0,0-4,1.15q-2.36,1.16-3.89,4.91a11.84,11.84,0,0,0-.6,2.4c-.17,1-.33,2.6-.47,4.74s-.33,5.11-.55,8.93q-.6,9.92-.6,19,0,10.68.85,20.16,1.88,22.56,5.56,34.61t10.85,18.89a33,33,0,0,0,16,9.14,24.87,24.87,0,0,0,4.44.43q9.74,0,18.46-8.46,7.77-7.35,12-23.93,3.59-13.59,5.13-38.88c.22-4.1.4-9.71.51-16.83s.17-13.81.17-20.08-.08-10.17-.26-11.71Q666.65,57.42,663.06,54.94Zm90.58,93.65a11.33,11.33,0,0,1,.34,2.65,8.93,8.93,0,0,1-5.55,8.29,7.7,7.7,0,0,1-3.25.6,29.73,29.73,0,0,1-8.2-1.54c-2.57-.8-5.5-1.59-8.81-2.39s-6.35-1.5-9.14-2.1a35.68,35.68,0,0,0-5.38-.89c-1.83,0-2.85.42-3.08,1.28a9.18,9.18,0,0,0-.34,2.39,42,42,0,0,0,.77,6.67q.86,5,.94,6.58c0,1,.08,1.73.08,2.13a9.12,9.12,0,0,1-.42,3,8.24,8.24,0,0,1-1.88,3.16,10.84,10.84,0,0,1-3.16,2.48,10.27,10.27,0,0,1-3.85.68,10.65,10.65,0,0,1-3.85-.68,11.07,11.07,0,0,1-5-5.38q-2.22-5.73-4.74-26.15T685,104.67c-.28-4.56-.43-7.92-.43-10.08v-4.7q0-4.53.18-10.77.16-7.86.42-11.49a13.57,13.57,0,0,1,1-5,10,10,0,0,1,2.39-2.78q4.78-4.44,17.18-4.87c.85-.06,1.68-.09,2.47-.09q17.44,0,30,9.15a32.09,32.09,0,0,1,12.13,19.82A37.53,37.53,0,0,1,750.9,90q0,17-14.78,34.78L733.34,128c-.94,1.11-1.66,2-2.18,2.52a5.34,5.34,0,0,0-1.7,3.34,2.25,2.25,0,0,0,.94,1.79q1,.94,7,2.56,8,2.15,11.62,4.53A10.25,10.25,0,0,1,753.64,148.59ZM730.48,95.53a22.07,22.07,0,0,0,.6-5.21,15.33,15.33,0,0,0-.68-4.79q-1.46-4.27-6.75-7.48a34.38,34.38,0,0,0-12.82-4.31,18.4,18.4,0,0,0-2.14-.26h-.77a4.62,4.62,0,0,0-.94.09,5.52,5.52,0,0,0-1.28.42,1,1,0,0,1-.26.18,3.06,3.06,0,0,0-1.45,1,3.56,3.56,0,0,0-.55,2c0,.91-.05,1.68-.05,2.31,0,1.25,0,2.88.09,4.87q.25,4.53.77,12.48c0,.79,0,1.62.08,2.47.35,5.19.61,9.3.82,12.35s.41,5.33.64,6.84a13.61,13.61,0,0,0,.72,3.12,2.06,2.06,0,0,0,1,1.11,1.34,1.34,0,0,0,.69.34H709l1.28-.51a15.36,15.36,0,0,0,3.47-2.74c1.62-1.54,3.33-3.27,5.12-5.21a64.29,64.29,0,0,0,4.4-5.21,53.33,53.33,0,0,0,4.36-7.18A38.19,38.19,0,0,0,730.48,95.53Zm143,41.78q0-8.2.25-17.51.6-16.41.6-27,0-5.3-.3-13a46.24,46.24,0,0,0-2.18-13.2q-3.49-10.43-11.1-13.5A14.49,14.49,0,0,0,855.24,52a17.61,17.61,0,0,0-10.09,3.59q-9.39,7.6-19.65,29.65a46.1,46.1,0,0,1-3.16,6.24c-.63.85-1.2,1.28-1.71,1.28a.94.94,0,0,1-.43-.09,1.33,1.33,0,0,1-.81-.42,3.86,3.86,0,0,1-.6-1.2q-.3-.85-.72-2.52c-.29-1.11-.63-2.64-1-4.57a77.75,77.75,0,0,0-4.4-15.47,25.16,25.16,0,0,0-6.2-8.89,20.82,20.82,0,0,0-3.5-2.77,13.1,13.1,0,0,0-3.67-1.5,15.48,15.48,0,0,0-3.68-.51h-1.15a11.54,11.54,0,0,0-3.21.77q-7.43,2.39-13.2,12.05t-8.84,24.69a207.66,207.66,0,0,0-3.59,40.5q0,10.09.47,16A131.81,131.81,0,0,0,768,162.43a39.6,39.6,0,0,0,2.74,9.49,10.13,10.13,0,0,0,4.1,4.61,10.54,10.54,0,0,0,4.95,1.37,8.29,8.29,0,0,0,6.07-2.82,7.64,7.64,0,0,0,2-5.38,14,14,0,0,0-.34-2.91c-.58-2.56-1-4.54-1.2-5.94s-.43-3.26-.6-5.59-.37-6.16-.43-11.28v-7.61c0-2.56,0-5.74,0-9.52s.15-6.88.38-9.28c.11-1.48.29-3.29.51-5.42s.46-4.12.69-5.94q1.88-14.26,4.35-20.34,1.63-3.93,3.25-3.93a2.52,2.52,0,0,1,1.8,1.2,8.59,8.59,0,0,1,1.11,2.9q.6,2.31,1.54,8t2.47,16.45q1.54,10.73,3.93,28.16c.4,3.13.77,5.53,1.11,7.18a13,13,0,0,0,1.29,3.8,14.59,14.59,0,0,0,2,2.61,11.22,11.22,0,0,0,2.14,1.75,7,7,0,0,0,2.13.81,11.13,11.13,0,0,0,2.31.26,11.26,11.26,0,0,0,10.17-7,29.87,29.87,0,0,0,1.07-3c.43-1.4.81-2.84,1.15-4.32q7.35-32.64,16.66-51.35,2.05-4,3.25-6.11a11.83,11.83,0,0,1,2-2.78,2.48,2.48,0,0,1,1.71-.68,1.73,1.73,0,0,1,1.06.29,2.84,2.84,0,0,1,.73,1.24,7.36,7.36,0,0,1,.39,2c.08.91.12,2.51.12,4.78s0,5.5-.08,9.83q-.35,20.51-.52,31.19-.08,7.09-.08,11.71c0,1.59,0,3.53,0,5.81s.1,4.75.22,7.43a125.36,125.36,0,0,0,1.36,15.47q.85,4.44,2.74,6.49a9.55,9.55,0,0,0,1.36,1.28,7.63,7.63,0,0,0,1.63,1,9.13,9.13,0,0,0,3.93.94,13.57,13.57,0,0,0,3.67-.73,8,8,0,0,0,4.28-3.72,11.35,11.35,0,0,0,1.53-4.18,16.53,16.53,0,0,0,.09-1.88,42.61,42.61,0,0,0-.26-4.27Q873.44,153,873.44,137.31Zm89,26.83a9.84,9.84,0,0,1,.25,2,3.57,3.57,0,0,1-.08.77q-1.38,7.86-9,8.2a10,10,0,0,1-7.09-2.82,14,14,0,0,1-2.65-3.2,27.05,27.05,0,0,1-2.22-5.09,14.41,14.41,0,0,0-2.26-4.4,4.32,4.32,0,0,0-3-1.49,8.06,8.06,0,0,0-1.45-.09c-1.09,0-2.6.06-4.53.17-3.19.17-6.6.39-10.21.64s-6.34.5-8.16.73q-3.85.43-5.26,2t-1.75,5.82a14.9,14.9,0,0,1-1.11,5,8.86,8.86,0,0,1-2.57,3.21,5.25,5.25,0,0,1-1.79,1,11.39,11.39,0,0,1-2.48.35h-.94a10.7,10.7,0,0,1-1.54-.09,5.29,5.29,0,0,1-1.7-.6,10.91,10.91,0,0,1-2.7-2.22,11.25,11.25,0,0,1-2-3c-.58-1.25-.86-3.5-.86-6.75A150.6,150.6,0,0,1,889,145.94q1.53-10.84,5-25.25t7.82-27.9q10.43-32,21.87-37.34a8.74,8.74,0,0,1,2.52-.94,24.38,24.38,0,0,1,3.38-.17,14.6,14.6,0,0,1,5,.73,12.68,12.68,0,0,1,4.1,2.69A18.64,18.64,0,0,1,943.29,64a48.61,48.61,0,0,1,3.12,11.19q1.37,7.44,3,20.85,5.73,46.74,11.79,64.09A37.26,37.26,0,0,1,962.48,164.14ZM934.7,134a5.42,5.42,0,0,0-.08-.94q-.09-1.11-.39-3.12c-.2-1.34-.47-3.17-.81-5.51q-.67-4.18-1.54-10.55T930.35,102q-1.64-12.3-2.23-13.93A1.75,1.75,0,0,0,926.59,87h-.17a2.87,2.87,0,0,0-2,1.46Q922.92,91,919.54,102t-6.63,23.8q-2,8.11-2,11.28a3.82,3.82,0,0,0,.26,1.62,3.07,3.07,0,0,0,.68.64,7.94,7.94,0,0,0,1.2.73,4.41,4.41,0,0,0,1.11.42l2.48-.34c1.65-.17,3.64-.39,6-.68s4.5-.66,6.32-.94a22.77,22.77,0,0,0,3.42-.69,3.65,3.65,0,0,0,2-2.13,4,4,0,0,0,.34-.94A3.73,3.73,0,0,0,934.7,134ZM1050.57,53.4a9.36,9.36,0,0,0-6.66-3.42h-.43a9.37,9.37,0,0,0-6.58,2.74,8.86,8.86,0,0,0-2.35,3.89,31.47,31.47,0,0,0-1,7q-.43,6.06-1.07,15.59t-1.15,17.82q-.25,4-.56,10.76t-.47,13.16c-.11,3.82-.23,6.88-.34,9.19s-.24,4.09-.38,5.34a10.21,10.21,0,0,1-.56,2.65,2.56,2.56,0,0,1-.85,1.11,1,1,0,0,1-.52.17,1.12,1.12,0,0,1-.47-.17,6.34,6.34,0,0,1-1.06-1,20.23,20.23,0,0,1-1.2-1.83,23.87,23.87,0,0,1-1.2-2.27c-.28-.8-.8-2.06-1.53-3.8s-1.52-3.55-2.31-5.43q-4.36-10.33-14.53-38.19Q999.64,71,996.53,65t-6.11-6.88a10,10,0,0,0-3.16-.51,14.55,14.55,0,0,0-5.73,1.49,10.74,10.74,0,0,0-5.21,5.26,12.32,12.32,0,0,0-.68,2.26,25.73,25.73,0,0,0-.52,3c-.17,2.1-.28,6.41-.34,12.9q-.09,6.58-.08,13.33c0,2.28,0,5.75.08,10.42s.17,8.78.34,12.31q.25,3.59.69,10.55t.85,14q.69,11.81,1.2,18.25t.94,9.4a14.82,14.82,0,0,0,1.11,4.31,10.08,10.08,0,0,0,5.81,5.64,8.94,8.94,0,0,0,2.73.43,11.67,11.67,0,0,0,3.55-.73,9.28,9.28,0,0,0,4.14-3.12,8.32,8.32,0,0,0,1.88-4.53q.09-.93.09-2.22c0-1.76-.12-4-.34-6.83q-.6-6.42-1.12-14.62t-.85-14.61q-.16-4.78-.17-6.58v-.77c.34-1.42.85-2.13,1.54-2.13a.84.84,0,0,1,.34.08,3,3,0,0,1,1.2,1.24,37.18,37.18,0,0,1,1.88,3.63c.79,1.71,1.85,4.14,3.16,7.27q6.84,16.07,11.45,24.65t8.41,11.66a13.32,13.32,0,0,0,8.59,3.08h.34q7,0,11.28-6.84,2.91-4.09,4.19-13.33t1.8-30.16q.59-21,2.47-47.25.6-9.24.77-14.27v-1.2a28.17,28.17,0,0,0-.55-6.41A8.8,8.8,0,0,0,1050.57,53.4ZM1151,110.57a60.23,60.23,0,0,1-3.42,19.74,70.29,70.29,0,0,1-13.89,22.85,69.16,69.16,0,0,1-21.15,16.28,45.7,45.7,0,0,1-6.45,2.69,42.59,42.59,0,0,1-7,1.58c-1.36.23-2.73.5-4.1.82s-2.42.58-3.16.81a17.71,17.71,0,0,1-4.87.77,10,10,0,0,1-4.19-.86,11.08,11.08,0,0,1-5-6.49c-.28-1.08-.83-4.16-1.62-9.23s-1.61-10.7-2.44-16.88-1.49-11.49-2-15.93q-1.53-13.43-2-21.92t-.47-22.35v-9c0-2.34,0-4.19,0-5.56s.08-2.4.17-3.12a9.69,9.69,0,0,1,.3-1.62,11,11,0,0,1,.43-1.15,9.5,9.5,0,0,1,4.14-4.79c1.79-1,4.57-1.59,8.33-1.88,1.82-.17,3.68-.25,5.56-.25a84.65,84.65,0,0,1,23,3.5q13.34,3.77,21.41,10a42.8,42.8,0,0,1,12.69,16.53A60.56,60.56,0,0,1,1151,110.57Zm-19.79.08a34.82,34.82,0,0,0-1-9.23Q1126.37,86.3,1116,81.26a62.76,62.76,0,0,0-13-4.62A49.61,49.61,0,0,0,1092.87,75a9,9,0,0,0-2.31.26q-2.89.68-2.9,5c0,.51,0,1.06.08,1.63q.09,1.53.39,5.93t.64,9.7q.69,10.68,1.62,19.87t2.31,19.87c.46,3.42.82,6.14,1.11,8.16s.53,3.56.73,4.61a8.53,8.53,0,0,0,.68,2.31,5.35,5.35,0,0,0,.9,1.24,3.25,3.25,0,0,0,2.48,1.11h.17a10.86,10.86,0,0,0,4.1-1.45q5.89-3,13.76-10.86,10.5-10.15,13.5-22.13A41.54,41.54,0,0,0,1131.19,110.65Z" transform="translate(0 0)"/></svg>