<svg id="horaires" xmlns="http://www.w3.org/2000/svg" viewBox="0 0 626.93 185.18"><defs><style>.cls-1{fill:#4d4d4f;}</style></defs><path id="noir" class="cls-1" d="M93.63,158.32a108.51,108.51,0,0,1,1.1,12.94A25,25,0,0,1,94.6,174a12.54,12.54,0,0,1-3.54,7.45,12.89,12.89,0,0,1-5.43,3.41,17.26,17.26,0,0,1-4.7.86,10.47,10.47,0,0,1-2.81-.37,14.29,14.29,0,0,1-9.64-9.4A29,29,0,0,1,67,170.1q-.67-3.72-1.77-12.51-.85-7.8-2.87-9.64a8,8,0,0,0-5.56-1.83,25.15,25.15,0,0,0-4,.36c-4,.41-7.06.78-9.21,1.1a46.24,46.24,0,0,0-4.82.92,6.08,6.08,0,0,0-2.32,1,7,7,0,0,0-2.32,2.13,5.45,5.45,0,0,0-.8,2.75c0,1.06-.06,2-.06,2.68,0,1.39,0,3.14.13,5.25l.36,8.67L32,174.19q-4.28,7.34-8,7.33H20.14q-7.32,0-11.72-7.2a19.73,19.73,0,0,1-1.83-5,73.81,73.81,0,0,1-1.34-9q-.62-5.93-1.47-16.54Q.5,101.94,0,86.36T-.49,63.23q0-16.84,1-34.91.24-4.76.43-7.08a16.51,16.51,0,0,1,.61-3.66,22.14,22.14,0,0,1,3.35-6.35A8.82,8.82,0,0,1,7.32,9.16a13.65,13.65,0,0,1,7-2.08,11.35,11.35,0,0,1,4.89,1.1q5.49,2.69,6.59,9.76c.08.9.22,4.15.42,9.77s.43,12.25.68,19.9q1.22,38.82,2.07,54.07t1.83,16.73a5.56,5.56,0,0,0,2.32,2.2,7.11,7.11,0,0,0,3.42.85,40,40,0,0,0,6.35-.85q4.51-.85,8.91-1.84a42,42,0,0,0,5.86-1.58,9.51,9.51,0,0,0,1.71-1.28,5.87,5.87,0,0,0,1.22-1.53,4.85,4.85,0,0,0,.67-1.95,38.09,38.09,0,0,0,.24-4.15c0-2,0-4.84,0-8.67s-.14-9-.3-15.5Q61,76.42,61,69.34T61.16,56q.36-12.69,1.58-32.1A99.41,99.41,0,0,1,64.21,10.8a14.15,14.15,0,0,1,2.68-6A9,9,0,0,1,72,1.1,20.86,20.86,0,0,1,76.17.49a11.89,11.89,0,0,1,4.64,1q6.6,3.18,7.45,12.94.12,2.08.42,16t.55,33.2q.38,40.15,1.22,58.71T93.63,158.32ZM194,112.9c.12,1.94.17,3.88.17,5.81a98.59,98.59,0,0,1-3.67,26.83,75.74,75.74,0,0,1-13.25,27q-6.75,8.46-15.38,11.62a19.51,19.51,0,0,1-3.59,1,33.31,33.31,0,0,1-4.35.34h-2a23.38,23.38,0,0,1-5-.42q-10.52-2.82-18.59-12.82t-11.92-25a118.17,118.17,0,0,1-2.82-25.8,133,133,0,0,1,4.62-34.18,88.83,88.83,0,0,1,6.58-16.75,28.89,28.89,0,0,1,5.6-8.12,14.07,14.07,0,0,1,6.7-3.42,41,41,0,0,1,7.52-.59c1,0,2.08,0,3.16.08A73.21,73.21,0,0,1,160,59.92Q190.65,67.1,194,112.9Zm-19.4,5.73a73.24,73.24,0,0,0-3.93-24.1q-3-8.72-8.37-12.47T147.92,78.3h-.42a13.77,13.77,0,0,0-5,.64,4.66,4.66,0,0,0-2.35,2.43,61.23,61.23,0,0,0-3.55,12,162.38,162.38,0,0,0-2.77,17q-.6,6.24-.6,11.88,0,19.56,7.09,32.81,6.15,10.59,12.56,10.59a8.82,8.82,0,0,0,4.36-1.19q5.13-3,10.08-12.82Q173.47,138.88,174,130C174.4,124,174.58,120.22,174.58,118.63Zm103.74,33.75a10.77,10.77,0,0,1,.34,2.65,8.9,8.9,0,0,1-5.55,8.29,7.7,7.7,0,0,1-3.25.6,29.73,29.73,0,0,1-8.2-1.54q-3.86-1.2-8.8-2.39t-9.15-2.1a34.68,34.68,0,0,0-5.38-.9c-1.82,0-2.85.43-3.08,1.29a9.62,9.62,0,0,0-.34,2.39,41.76,41.76,0,0,0,.77,6.66q.85,5.05.94,6.58c.06,1,.09,1.74.09,2.14a9.1,9.1,0,0,1-.43,3,8.12,8.12,0,0,1-1.88,3.16,10.71,10.71,0,0,1-3.16,2.48,10.2,10.2,0,0,1-3.85.68,10.59,10.59,0,0,1-3.84-.68,11,11,0,0,1-5-5.38q-2.23-5.73-4.75-26.15t-4.06-44.69q-.42-6.84-.42-10.08v-4.7c0-3,.05-6.61.17-10.77q.17-7.86.43-11.49a13.62,13.62,0,0,1,1-5,10,10,0,0,1,2.39-2.78q4.78-4.44,17.18-4.87c.85-.06,1.68-.09,2.48-.09q17.43,0,30,9.15a32,32,0,0,1,12.13,19.82,36.47,36.47,0,0,1,.52,6.15q0,17-14.79,34.78L258,131.83c-.94,1.11-1.67,1.95-2.18,2.52a5.34,5.34,0,0,0-1.71,3.33,2.27,2.27,0,0,0,.94,1.8c.68.62,3,1.48,7,2.56q7.95,2.15,11.63,4.53A10.27,10.27,0,0,1,278.32,152.38ZM255.16,99.32a22.15,22.15,0,0,0,.6-5.22,15.31,15.31,0,0,0-.68-4.78q-1.46-4.27-6.75-7.48a34.38,34.38,0,0,0-12.82-4.31,17.92,17.92,0,0,0-2.14-.26h-.77a4.45,4.45,0,0,0-.93.09,5.57,5.57,0,0,0-1.29.42.72.72,0,0,1-.25.17,3.11,3.11,0,0,0-1.46,1,3.63,3.63,0,0,0-.55,2c0,.91,0,1.68,0,2.31,0,1.25,0,2.87.08,4.87q.26,4.53.77,12.47c0,.8,0,1.63.09,2.48l.81,12.35q.3,4.58.64,6.83a14.18,14.18,0,0,0,.72,3.12,2,2,0,0,0,1,1.11,1.25,1.25,0,0,0,.68.35h.86l1.28-.52a15.15,15.15,0,0,0,3.46-2.73q2.43-2.31,5.13-5.21a64.59,64.59,0,0,0,4.4-5.22,53.18,53.18,0,0,0,4.35-7.17A38.19,38.19,0,0,0,255.16,99.32Zm109,68.61a9.75,9.75,0,0,1,.25,2,3.64,3.64,0,0,1-.08.77c-.91,5.24-3.91,8-9,8.2a10,10,0,0,1-7.1-2.82,14,14,0,0,1-2.65-3.2,27.05,27.05,0,0,1-2.22-5.09,14.29,14.29,0,0,0-2.26-4.4,4.35,4.35,0,0,0-2.95-1.5,9.47,9.47,0,0,0-1.45-.08c-1.09,0-2.6.06-4.53.17-3.19.17-6.6.38-10.21.64s-6.34.5-8.16.73c-2.57.28-4.32.94-5.26,2s-1.52,3-1.75,5.81a14.9,14.9,0,0,1-1.11,5,8.93,8.93,0,0,1-2.56,3.21,5.38,5.38,0,0,1-1.8,1,10.81,10.81,0,0,1-2.48.34H298a10.76,10.76,0,0,1-1.53-.08,5.26,5.26,0,0,1-1.71-.6,10.7,10.7,0,0,1-2.69-2.22,11.06,11.06,0,0,1-2-3c-.57-1.25-.86-3.51-.86-6.75a152.68,152.68,0,0,1,1.54-18.29q1.55-10.84,5-25.25t7.82-27.9q10.43-32,21.87-37.34a8.74,8.74,0,0,1,2.52-.94,24.48,24.48,0,0,1,3.38-.17,14.6,14.6,0,0,1,5,.73,12.68,12.68,0,0,1,4.1,2.69A18.5,18.5,0,0,1,345,67.79,48.46,48.46,0,0,1,348.13,79q1.37,7.44,3,20.85,5.73,46.74,11.8,64.09A36.56,36.56,0,0,1,364.2,167.93Zm-27.77-30.16a5.41,5.41,0,0,0-.09-.94c-.06-.74-.19-1.78-.38-3.12s-.47-3.18-.82-5.51c-.45-2.79-1-6.31-1.53-10.55s-1.09-8.19-1.54-11.84q-1.63-12.3-2.22-13.93a1.77,1.77,0,0,0-1.54-1.11h-.17a2.86,2.86,0,0,0-2,1.45q-1.53,2.57-4.91,13.55t-6.62,23.8q-2.06,8.12-2.05,11.27a3.87,3.87,0,0,0,.25,1.63,3.17,3.17,0,0,0,.69.64,8.71,8.71,0,0,0,1.19.73,4.84,4.84,0,0,0,1.11.42l2.48-.34c1.65-.17,3.65-.4,6-.68s4.5-.66,6.33-.94a24,24,0,0,0,3.41-.69,3.65,3.65,0,0,0,2-2.13,4,4,0,0,0,.34-.94A3.8,3.8,0,0,0,336.43,137.77Zm60.84,2.48q-.52-9.83-.77-22-.18-8-.52-19-.17-8.89-.34-15.9-.25-7.77-.47-13.33t-.38-6.32a8.57,8.57,0,0,0-3.68-4.36,7.73,7.73,0,0,0-4.1-1.19,6.34,6.34,0,0,0-1.45.17q-5.73,1.36-7.52,7.86-.77,3.42-1.11,16-.26,10.08-.26,22,0,3,.05,12.22t.64,21.1q.51,8.2,1.28,18.12t1.19,13.75c.69,5.36,2.79,8.84,6.33,10.43a10.33,10.33,0,0,0,3.59.68h.51a8.25,8.25,0,0,0,3.07-.51,10.09,10.09,0,0,0,4.79-4.44,10.51,10.51,0,0,0,1-4.87V169c0-2-.15-4.78-.43-8.2Q397.78,150.07,397.27,140.25Zm88.61,12.13a11.27,11.27,0,0,1,.34,2.65,8.94,8.94,0,0,1-5.56,8.29,7.62,7.62,0,0,1-3.24.6,29.79,29.79,0,0,1-8.21-1.54q-3.84-1.2-8.8-2.39t-9.14-2.1a34.87,34.87,0,0,0-5.38-.9c-1.83,0-2.85.43-3.08,1.29a9.18,9.18,0,0,0-.34,2.39,40.61,40.61,0,0,0,.77,6.66q.86,5.05.94,6.58c.05,1,.08,1.74.08,2.14a9.12,9.12,0,0,1-.42,3A8.15,8.15,0,0,1,442,182.2a10.58,10.58,0,0,1-3.16,2.48,10.18,10.18,0,0,1-3.84.68,10.65,10.65,0,0,1-3.85-.68,11.07,11.07,0,0,1-5-5.38q-2.22-5.73-4.74-26.15t-4.06-44.69c-.28-4.56-.43-7.92-.43-10.08v-4.7q0-4.53.17-10.77.18-7.86.43-11.49a13.37,13.37,0,0,1,1-5,10,10,0,0,1,2.39-2.78q4.78-4.44,17.17-4.87c.86-.06,1.68-.09,2.48-.09q17.43,0,30,9.15a32.09,32.09,0,0,1,12.13,19.82,37.53,37.53,0,0,1,.51,6.15q0,17-14.78,34.78l-2.78,3.29c-.94,1.11-1.66,1.95-2.18,2.52a5.34,5.34,0,0,0-1.71,3.33,2.3,2.3,0,0,0,.94,1.8c.69.62,3,1.48,7,2.56q8,2.15,11.62,4.53A10.25,10.25,0,0,1,485.88,152.38ZM462.72,99.32a22.15,22.15,0,0,0,.6-5.22,15,15,0,0,0-.69-4.78q-1.44-4.27-6.75-7.48a34.27,34.27,0,0,0-12.81-4.31,18.4,18.4,0,0,0-2.14-.26h-.77a4.62,4.62,0,0,0-.94.09,5.52,5.52,0,0,0-1.28.42.78.78,0,0,1-.26.17,3.08,3.08,0,0,0-1.45,1,3.56,3.56,0,0,0-.55,2c0,.91-.05,1.68-.05,2.31,0,1.25,0,2.87.09,4.87q.25,4.53.77,12.47c0,.8,0,1.63.08,2.48l.81,12.35c.2,3,.42,5.33.64,6.83a14,14,0,0,0,.73,3.12,2.06,2.06,0,0,0,1,1.11,1.3,1.3,0,0,0,.69.35h.85l1.28-.52a14.92,14.92,0,0,0,3.47-2.73q2.43-2.31,5.12-5.21a62.58,62.58,0,0,0,4.4-5.22,53.19,53.19,0,0,0,4.36-7.17A38.19,38.19,0,0,0,462.72,99.32Zm97.41,52.29a7.05,7.05,0,0,0-2.22-.94,5.13,5.13,0,0,0-1.37-.17,9.86,9.86,0,0,0-1.28.09,9.22,9.22,0,0,0-3.16.55,25.52,25.52,0,0,0-4,2q-2.48,1.46-6.83,4.36c-2,1.31-3.86,2.49-5.6,3.54a26.92,26.92,0,0,1-3.72,2,9.15,9.15,0,0,1-3.41.77,6,6,0,0,1-4.06-1.88q-2-1.87-3.38-8.89a20.46,20.46,0,0,1-.43-2.22v-.77a6.23,6.23,0,0,1,.05-.72,3.14,3.14,0,0,1,.3-1,5.64,5.64,0,0,1,.72-1.19,5.46,5.46,0,0,1,.9-.94,15.76,15.76,0,0,1,2.39-.73c1.25-.31,2.65-.64,4.19-1,5.86-1,10.07-1.82,12.6-2.39a29.42,29.42,0,0,0,5.26-1.54q6.83-3.33,6.83-9.14a10.51,10.51,0,0,0-.34-2.57,9.26,9.26,0,0,0-4.87-5.64,7.85,7.85,0,0,0-4.1-.94c-.34,0-1.2.07-2.56.22a93.31,93.31,0,0,0-9.32,2c-3.25.8-5.72,1.34-7.43,1.63a19.17,19.17,0,0,1-3.16.34,10.72,10.72,0,0,1-1.11-.09,2,2,0,0,1-1.37-.85,3.16,3.16,0,0,1-.73-1,5.53,5.53,0,0,1-.3-1.53c-.05-.69-.11-1.71-.17-3.08v-2.14q0-2.56.09-7.77t.3-12.31q.21-7.08.42-12.43a48.76,48.76,0,0,1,.47-6.28q.69-2.57,3.93-3.5a31.82,31.82,0,0,1,3.64-.43c2-.17,4.2-.31,6.7-.43q7.53-.34,11.58-.6a59.22,59.22,0,0,0,5.94-.59,15.53,15.53,0,0,0,2.91-.77,9.63,9.63,0,0,0,5.64-6.75,9,9,0,0,0,.17-1.71,9.38,9.38,0,0,0-2.82-6.58,8.61,8.61,0,0,0-4.1-2.48,29.12,29.12,0,0,0-6.41-.51H545.6a102,102,0,0,0-10.25.59q-5.73.6-14.61,2-5.38.86-8.29,1.5a17.27,17.27,0,0,0-4.4,1.45,11.08,11.08,0,0,0-2.78,2.18,8.64,8.64,0,0,0-2.13,3.24,29.8,29.8,0,0,0-1.37,6.33q-.6,4.35-1.37,12.64-1.78,19.57-1.79,35.81a209,209,0,0,0,2.13,31.53q4.62,27.51,20.26,31.61a24.24,24.24,0,0,0,5.38.6,36.33,36.33,0,0,0,15-3.67c1.54-.8,3.74-2.11,6.62-3.93s5.65-3.66,8.33-5.51a68.19,68.19,0,0,0,5.56-4.15,9.1,9.1,0,0,0,3.16-6.92,6.06,6.06,0,0,0-.09-1A8,8,0,0,0,560.13,151.61Zm65.28-10.3a26.28,26.28,0,0,0-3.07-6.36A38.87,38.87,0,0,0,612.17,124q-6.66-5-20.08-12.05-6.4-3.42-9.78-5.3a34.58,34.58,0,0,1-4.79-3,6.71,6.71,0,0,1-1.92-2.26,4.46,4.46,0,0,1-.69-2.4q0-4.52,8.46-11.36,10.51-8.62,18.38-9.83c.73-.11,1.5-.24,2.3-.38a16.92,16.92,0,0,0,1.8-.39,8.22,8.22,0,0,0,5.55-5.55,7.44,7.44,0,0,0,.34-2.22,8.84,8.84,0,0,0-2-5.47,11.84,11.84,0,0,0-9.31-3.85,28.5,28.5,0,0,0-8.55,1.54,78.22,78.22,0,0,0-8.8,3.85q-5.13,2.56-8.8,4.87a59.73,59.73,0,0,0-10.38,9,40.88,40.88,0,0,0-7.05,10.13,26.66,26.66,0,0,0-2.39,10.59q0,9.5,8.63,17.35a45.68,45.68,0,0,0,4.06,3.12q2.17,1.5,6.7,4t13.42,7.18q9.74,5.22,14.23,9.14t5,7.61a4.68,4.68,0,0,1,0,2,11.53,11.53,0,0,1-.72,2q-2.23,4.11-8.46,7.65a40,40,0,0,1-13.42,4.74q-8.71,1.29-10,7.44a10.86,10.86,0,0,0-.17,1.88,10.34,10.34,0,0,0,1.41,4.91,9.85,9.85,0,0,0,4.66,4.15,15.68,15.68,0,0,0,5.55.94q7.53,0,18.72-5.39,18-9.31,22-23.32a17.6,17.6,0,0,0,.42-3.08c.06-.74.09-1.57.09-2.48v-1.54A25.18,25.18,0,0,0,625.41,141.31Z" transform="translate(0.49 -0.49)"/></svg>