<svg id="Magasin" xmlns="http://www.w3.org/2000/svg" viewBox="0 0 615.26 182.74"><defs><style>.cls-1{fill:#0903f9;}</style></defs><path id="bleu" class="cls-1" d="M155.52,160.77a58.87,58.87,0,0,1,.37,6.1,25.48,25.48,0,0,1-.12,2.69,16.21,16.21,0,0,1-2.2,6c-1.79,2.85-3.83,4.62-6.1,5.31a19.72,19.72,0,0,1-5.25,1,12.83,12.83,0,0,1-5.62-1.34,10.58,10.58,0,0,1-2.32-1.46,14.77,14.77,0,0,1-1.95-1.83q-2.69-2.94-3.91-9.28t-1.95-22.1q-.25-5.73-.31-10.62t-.06-8.3q0-6.58.12-16.72.25-15.26.74-44.56.12-9.27.12-14t-.18-6.84a10.7,10.7,0,0,0-.55-2.81,4.08,4.08,0,0,0-1-1.77,2.48,2.48,0,0,0-1.53-.42,3.59,3.59,0,0,0-2.44,1,17.28,17.28,0,0,0-2.81,4q-1.71,3-4.63,8.73Q100.58,80.2,90.09,126.83c-.49,2.12-1,4.17-1.65,6.17a41.74,41.74,0,0,1-1.52,4.33q-2.69,5.61-6.78,7.81a16.36,16.36,0,0,1-7.75,2.2A15.22,15.22,0,0,1,69.1,147,10.08,10.08,0,0,1,66,145.81a16.41,16.41,0,0,1-3.05-2.5,21.15,21.15,0,0,1-2.81-3.72,18.72,18.72,0,0,1-1.83-5.43q-.72-3.54-1.58-10.26Q53.35,99,51.15,83.68t-3.54-23.5Q46.28,52,45.41,48.71a12.23,12.23,0,0,0-1.58-4.15c-.9-1.14-1.75-1.71-2.57-1.71-1.54,0-3.09,1.87-4.63,5.61q-3.56,8.67-6.23,29.05c-.33,2.61-.65,5.44-1,8.49s-.57,5.63-.73,7.75q-.5,5.13-.55,13.24c0,5.42-.06,10-.06,13.62v10.86c.08,7.32.28,12.7.61,16.11s.53,6,.86,8,.89,4.82,1.7,8.48a18.94,18.94,0,0,1,.49,4.15,10.86,10.86,0,0,1-2.81,7.69,11.83,11.83,0,0,1-8.66,4,15,15,0,0,1-7.08-2,14.59,14.59,0,0,1-5.86-6.59q-2.2-4.51-3.91-13.55A189.55,189.55,0,0,1,.68,138.31Q0,129.88,0,115.48,0,83.24,5.13,57.62q4.4-21.48,12.64-35.28T36.63,5.13A16,16,0,0,1,41.2,4h1.65a21.75,21.75,0,0,1,5.25.73A19,19,0,0,1,53.35,6.9a30.14,30.14,0,0,1,5,4,36,36,0,0,1,8.85,12.7q3.48,7.94,6.29,22.09.86,4.16,1.47,6.54c.4,1.58.75,2.78,1,3.6a5.55,5.55,0,0,0,.86,1.71,1.9,1.9,0,0,0,1.16.61,1.35,1.35,0,0,0,.61.12c.73,0,1.54-.61,2.44-1.83a65.74,65.74,0,0,0,4.52-8.91Q100.22,16,113.65,5.13,121,0,128.06,0a20.61,20.61,0,0,1,7.81,1.59Q146.73,6,151.74,20.87a66.54,66.54,0,0,1,3.11,18.86q.42,11.06.43,18.62,0,15.13-.86,38.57-.36,13.32-.36,25Q154.06,144.29,155.52,160.77Zm94.45,5a9.84,9.84,0,0,1,.25,2,3.57,3.57,0,0,1-.08.77q-1.37,7.86-9,8.2a10,10,0,0,1-7.1-2.82,14,14,0,0,1-2.65-3.2,27.05,27.05,0,0,1-2.22-5.09,14.41,14.41,0,0,0-2.26-4.4,4.3,4.3,0,0,0-2.95-1.49,8,8,0,0,0-1.45-.09c-1.08,0-2.59.06-4.53.17-3.19.17-6.59.39-10.21.64s-6.34.5-8.16.73c-2.57.29-4.32.94-5.26,2s-1.52,3-1.75,5.81a15,15,0,0,1-1.11,5,8.88,8.88,0,0,1-2.56,3.2,5.6,5.6,0,0,1-1.8,1,11.4,11.4,0,0,1-2.48.34h-.94a10.55,10.55,0,0,1-1.53-.09,5.26,5.26,0,0,1-1.71-.6,12.31,12.31,0,0,1-4.7-5.21q-.86-1.87-.86-6.75a152.84,152.84,0,0,1,1.54-18.29q1.54-10.84,5-25.25t7.82-27.9q10.42-32,21.87-37.34a8.74,8.74,0,0,1,2.52-.94,24.48,24.48,0,0,1,3.38-.17,14.85,14.85,0,0,1,5,.73,12.68,12.68,0,0,1,4.1,2.69,18.5,18.5,0,0,1,4.57,6.24,48.76,48.76,0,0,1,3.12,11.19q1.36,7.44,3,20.85,5.73,46.74,11.8,64.09A36.56,36.56,0,0,1,250,165.73ZM222.2,135.57a5.5,5.5,0,0,0-.09-.94c-.06-.74-.18-1.78-.38-3.12s-.47-3.17-.82-5.51q-.67-4.19-1.53-10.55t-1.54-11.84c-1.08-8.2-1.83-12.84-2.22-13.92a1.78,1.78,0,0,0-1.54-1.12h-.17a2.87,2.87,0,0,0-2,1.46q-1.53,2.56-4.91,13.54t-6.62,23.8q-2.06,8.12-2,11.28a3.84,3.84,0,0,0,.25,1.62,2.94,2.94,0,0,0,.69.64,7.82,7.82,0,0,0,1.19.73,5,5,0,0,0,1.11.43l2.48-.35c1.65-.17,3.65-.39,6-.68s4.5-.65,6.33-.94a23,23,0,0,0,3.41-.68,3.66,3.66,0,0,0,2-2.14,3.85,3.85,0,0,0,.34-.94A3.72,3.72,0,0,0,222.2,135.57Zm96.55-32.13a14.13,14.13,0,0,0-1.79-.77,7.23,7.23,0,0,0-2-.3c-.79,0-1.93,0-3.41,0a85.91,85.91,0,0,0-9.66.73,40.31,40.31,0,0,0-7.35,1.49q-4.87,2.06-6,6.5a9.53,9.53,0,0,0-.26,2.13,8.67,8.67,0,0,0,2.57,6.07,7.18,7.18,0,0,0,2.82,1.92,18.25,18.25,0,0,0,4.36.81c2.9.12,4.7.75,5.38,1.88a4.86,4.86,0,0,1,.51,2.57,24,24,0,0,1-.51,4.36Q300,151.21,296.54,158c-1.48,2.22-3.11,3.33-4.87,3.33s-3.42-1-5.3-3q-3.58-4.35-5.94-13.41a74.44,74.44,0,0,1-2.35-18.8,84.1,84.1,0,0,1,9.23-38.37,48.48,48.48,0,0,1,15.47-19q4.77-3.5,4.87-7.6a5.49,5.49,0,0,0,.08-.94,7.28,7.28,0,0,0-2.82-5.73,7.74,7.74,0,0,0-5.3-2,15.93,15.93,0,0,0-6.83,1.88,44.22,44.22,0,0,0-9.36,6.84,66.4,66.4,0,0,0-8.67,9.66,81.75,81.75,0,0,0-5.47,9.48,105.24,105.24,0,0,0-4.87,10.94,104.13,104.13,0,0,0-5.9,33.84v.51a96.11,96.11,0,0,0,5.39,32.47,41.32,41.32,0,0,0,10,15.68,27.91,27.91,0,0,0,14.48,7.73,23.16,23.16,0,0,0,3.42.26,23.72,23.72,0,0,0,13.07-4.1q9.66-5.89,14.19-24.95,1.36-5.48,2.77-13.16t2.44-14.7a80,80,0,0,0,1-9.83Q325.33,106.69,318.75,103.44Zm91.09,62.29a10,10,0,0,1,.26,2,3,3,0,0,1-.09.77q-1.36,7.86-9,8.2a10,10,0,0,1-7.09-2.82,13.74,13.74,0,0,1-2.65-3.2,27.05,27.05,0,0,1-2.22-5.09,14.39,14.39,0,0,0-2.27-4.4,4.27,4.27,0,0,0-2.94-1.49,8.11,8.11,0,0,0-1.46-.09c-1.08,0-2.59.06-4.53.17-3.19.17-6.59.39-10.21.64s-6.33.5-8.16.73c-2.56.29-4.31.94-5.25,2s-1.53,3-1.75,5.81a15.21,15.21,0,0,1-1.11,5,8.91,8.91,0,0,1-2.57,3.2,5.57,5.57,0,0,1-1.79,1,11.5,11.5,0,0,1-2.48.34h-.94a10.7,10.7,0,0,1-1.54-.09,5.34,5.34,0,0,1-1.71-.6,10.88,10.88,0,0,1-2.69-2.22,11.38,11.38,0,0,1-2-3q-.85-1.87-.85-6.75a150.76,150.76,0,0,1,1.54-18.29q1.53-10.84,5-25.25t7.81-27.9q10.43-32,21.88-37.34a8.74,8.74,0,0,1,2.52-.94,24.38,24.38,0,0,1,3.38-.17,14.85,14.85,0,0,1,5,.73,12.79,12.79,0,0,1,4.1,2.69,18.64,18.64,0,0,1,4.57,6.24,48.76,48.76,0,0,1,3.12,11.19q1.37,7.44,3,20.85,5.73,46.74,11.79,64.09A36.56,36.56,0,0,1,409.84,165.73Zm-27.77-30.16a6.62,6.62,0,0,0-.08-.94q-.09-1.11-.39-3.12c-.2-1.34-.47-3.17-.81-5.51q-.69-4.19-1.54-10.55t-1.54-11.84q-1.62-12.3-2.22-13.92A1.77,1.77,0,0,0,374,88.57h-.17a2.86,2.86,0,0,0-2,1.46q-1.54,2.56-4.92,13.54t-6.62,23.8q-2,8.12-2,11.28a3.82,3.82,0,0,0,.26,1.62,2.85,2.85,0,0,0,.68.64,7.47,7.47,0,0,0,1.2.73,4.63,4.63,0,0,0,1.11.43l2.48-.35c1.65-.17,3.64-.39,6-.68s4.5-.65,6.32-.94a23.61,23.61,0,0,0,3.42-.68,3.62,3.62,0,0,0,2-2.14,3.53,3.53,0,0,0,.35-.94A4.48,4.48,0,0,0,382.07,135.57Zm94.76-2.82a38.82,38.82,0,0,0-10.16-10.94q-6.68-5-20.08-12-6.42-3.42-9.79-5.3a34.79,34.79,0,0,1-4.78-3,6.77,6.77,0,0,1-1.93-2.26,4.53,4.53,0,0,1-.68-2.39q0-4.53,8.46-11.37,10.51-8.62,18.37-9.82l2.31-.39c.8-.14,1.39-.27,1.79-.38a8.24,8.24,0,0,0,5.56-5.56,7.77,7.77,0,0,0,.34-2.22,8.84,8.84,0,0,0-2.05-5.47,11.84,11.84,0,0,0-9.32-3.84,28.18,28.18,0,0,0-8.54,1.54,76.13,76.13,0,0,0-8.8,3.84q-5.13,2.56-8.8,4.87a59.79,59.79,0,0,0-10.39,9,40.34,40.34,0,0,0-7,10.12,26.76,26.76,0,0,0-2.4,10.6q0,9.48,8.63,17.34a44.83,44.83,0,0,0,4.06,3.12c1.46,1,3.69,2.32,6.71,4s7.49,4,13.42,7.17q9.73,5.22,14.22,9.15t5,7.6a5.5,5.5,0,0,1,.09.94,6.14,6.14,0,0,1-.13,1.07,11.52,11.52,0,0,1-.73,2q-2.22,4.1-8.46,7.65a40.51,40.51,0,0,1-13.41,4.74q-8.71,1.27-10,7.43a11,11,0,0,0-.17,1.88,10.34,10.34,0,0,0,1.41,4.91,9.85,9.85,0,0,0,4.66,4.15,15.46,15.46,0,0,0,5.55.94q7.51,0,18.71-5.38,18-9.31,22-23.33a17.59,17.59,0,0,0,.43-3.08c.06-.74.09-1.56.09-2.48V146a25.06,25.06,0,0,0-1-6.88A26.39,26.39,0,0,0,476.83,132.75Zm37.52,5.3q-.51-9.83-.77-22-.18-8-.51-19-.18-8.88-.35-15.89-.26-7.78-.47-13.33c-.14-3.71-.27-5.81-.38-6.33a8.59,8.59,0,0,0-3.67-4.36A7.88,7.88,0,0,0,504.09,56a7,7,0,0,0-1.45.17q-5.73,1.37-7.52,7.86-.76,3.42-1.11,16-.25,10.08-.26,22,0,3,.05,12.22t.64,21.11q.51,8.19,1.28,18.11t1.2,13.76q1,8,6.32,10.42a10.6,10.6,0,0,0,3.59.69h.51a8.14,8.14,0,0,0,3.08-.52,10,10,0,0,0,4.78-4.44,10.51,10.51,0,0,0,1-4.87v-1.62c0-2-.15-4.79-.43-8.21Q514.86,147.87,514.35,138.05Zm100.36-79.3A8.69,8.69,0,0,0,612.78,55a9.4,9.4,0,0,0-6.66-3.42h-.43a9.37,9.37,0,0,0-6.58,2.74,8.86,8.86,0,0,0-2.35,3.89,31.47,31.47,0,0,0-1,7q-.43,6.06-1.07,15.59t-1.15,17.82c-.17,2.68-.36,6.26-.56,10.76s-.35,8.89-.47,13.16c-.11,3.82-.23,6.88-.34,9.19s-.24,4.09-.38,5.34a10.21,10.21,0,0,1-.56,2.65,2.56,2.56,0,0,1-.85,1.11,1,1,0,0,1-.52.17,1.12,1.12,0,0,1-.47-.17,5.93,5.93,0,0,1-1.06-1,18.89,18.89,0,0,1-1.2-1.83c-.46-.77-.85-1.53-1.2-2.27s-.8-2.06-1.53-3.8-1.52-3.55-2.31-5.43q-4.36-10.33-14.53-38.19-5.73-15.72-8.84-21.75t-6.11-6.88a10,10,0,0,0-3.16-.51,14.55,14.55,0,0,0-5.73,1.49,10.74,10.74,0,0,0-5.21,5.26,12.32,12.32,0,0,0-.68,2.26,28,28,0,0,0-.52,3q-.26,3.17-.34,12.9-.09,6.59-.08,13.33c0,2.28,0,5.76.08,10.43s.17,8.77.34,12.3q.25,3.59.69,10.55t.85,14q.69,11.81,1.2,18.25t.94,9.4a14.82,14.82,0,0,0,1.11,4.31,10.08,10.08,0,0,0,5.81,5.64,8.94,8.94,0,0,0,2.73.43,11.67,11.67,0,0,0,3.55-.73,9.28,9.28,0,0,0,4.14-3.12,8.32,8.32,0,0,0,1.88-4.52c.06-.63.09-1.37.09-2.23,0-1.76-.12-4-.34-6.83-.4-4.27-.77-9.15-1.11-14.61s-.63-10.34-.86-14.62q-.16-4.79-.17-6.58v-.76c.34-1.43.86-2.14,1.54-2.14a.84.84,0,0,1,.34.08,3,3,0,0,1,1.2,1.24,37.65,37.65,0,0,1,1.88,3.64c.79,1.7,1.85,4.13,3.16,7.26q6.84,16.06,11.45,24.65t8.41,11.66a13.26,13.26,0,0,0,8.59,3.08h.34q7,0,11.28-6.83,2.91-4.11,4.19-13.33t1.8-30.17q.59-21,2.47-47.25.6-9.22.77-14.27v-1.2A28.17,28.17,0,0,0,614.71,58.75Z" transform="translate(0 0)"/></svg>