<svg id="Accueil" xmlns="http://www.w3.org/2000/svg" viewBox="0 0 537.29 180.86"><defs><style>.cls-1{fill:#4d4d4f;}</style></defs><path class="cls-1" d="M105.35,151.12Q96.68,126.34,88.5,59.57,86.18,40.4,84.23,29.79t-4.46-16a26.62,26.62,0,0,0-6.53-8.91A18.24,18.24,0,0,0,67.38,1a21.1,21.1,0,0,0-7.2-1,34.4,34.4,0,0,0-4.82.24,12,12,0,0,0-3.6,1.35Q35.4,9.15,20.51,54.93,14.28,74.22,9.34,94.79T2.2,130.86A215.43,215.43,0,0,0,0,157q0,7,1.22,9.65a16.09,16.09,0,0,0,2.87,4.27,15.74,15.74,0,0,0,3.84,3.17,8.09,8.09,0,0,0,2.45.86,16.19,16.19,0,0,0,2.19.12h1.35a16.25,16.25,0,0,0,3.54-.49A7.62,7.62,0,0,0,20,173.1a12.68,12.68,0,0,0,3.66-4.58,21.62,21.62,0,0,0,1.59-7.14c.32-4.07,1.16-6.84,2.5-8.3s3.85-2.4,7.51-2.81q3.9-.5,11.66-1t14.58-.91q4.16-.25,6.47-.25a12.33,12.33,0,0,1,2.08.12,6.19,6.19,0,0,1,4.21,2.14,20.3,20.3,0,0,1,3.23,6.29,38.53,38.53,0,0,0,3.18,7.26,19.87,19.87,0,0,0,3.78,4.58,14.3,14.3,0,0,0,10.13,4q10.88-.5,12.82-11.72a4.63,4.63,0,0,0,.12-1.1,14.23,14.23,0,0,0-.36-2.81A53.77,53.77,0,0,0,105.35,151.12Zm-38-36.25a5.13,5.13,0,0,1-.49,1.34,5.2,5.2,0,0,1-2.8,3.05,33.56,33.56,0,0,1-4.89,1c-2.6.41-5.61.85-9,1.34s-6.18.73-8.54,1l-3.54.49a6.9,6.9,0,0,1-1.59-.61,11.38,11.38,0,0,1-1.71-1,4.46,4.46,0,0,1-1-.92,5.53,5.53,0,0,1-.36-2.32q0-4.51,2.93-16.11,4.63-18.31,9.46-34t7-19.34a4.07,4.07,0,0,1,2.8-2.08h.25a2.52,2.52,0,0,1,2.2,1.59q.84,2.31,3.17,19.9,1,7.8,2.2,16.9t2.19,15.08q.73,5,1.16,7.87c.29,1.91.47,3.4.55,4.46a8.31,8.31,0,0,1,.12,1.34A5.75,5.75,0,0,1,67.38,114.87Zm78.56-13.56q-10.69,22-10.69,35.8,0,9.66,5.22,15.29a10.24,10.24,0,0,0,7.86,3.85,5.86,5.86,0,0,0,1-.09,13.9,13.9,0,0,0,5.13-1.28,49.21,49.21,0,0,0,7-4,41.18,41.18,0,0,1,5.94-3.46,10.55,10.55,0,0,1,4.14-.82,8.72,8.72,0,0,1,7.18,3.17,9.07,9.07,0,0,1,2.22,5.81,11,11,0,0,1-2,5.89,35.66,35.66,0,0,1-7.64,6.33,64.76,64.76,0,0,1-10.64,5.89,33.74,33.74,0,0,1-12.39,2.57,29.36,29.36,0,0,1-3.25-.18q-10.77-1.27-19-10.08-10.42-11.1-10.42-28v-.51a68.44,68.44,0,0,1,1.19-12.86,99.78,99.78,0,0,1,4.19-14.65Q131,81.56,147.39,64.48q12.9-13.25,23.07-13.25a15.18,15.18,0,0,1,4.53.69c3.07,1.08,5,2.53,5.77,4.35a12.21,12.21,0,0,1,1.15,4.28,8.25,8.25,0,0,1-1.54,4.61c-1.2,1.88-3.5,3.13-6.92,3.76a17.52,17.52,0,0,0-4.7,1.62,19.07,19.07,0,0,0-4.1,3.25Q154.64,84,145.94,101.31Zm72.29,0q-10.69,22-10.69,35.8,0,9.66,5.22,15.29a10.24,10.24,0,0,0,7.86,3.85,5.86,5.86,0,0,0,1-.09,13.9,13.9,0,0,0,5.13-1.28,49.21,49.21,0,0,0,7-4,41.18,41.18,0,0,1,5.94-3.46,10.55,10.55,0,0,1,4.14-.82,8.72,8.72,0,0,1,7.18,3.17,9.07,9.07,0,0,1,2.22,5.81,11,11,0,0,1-2,5.89,35.66,35.66,0,0,1-7.64,6.33A64.76,64.76,0,0,1,233,173.68a33.74,33.74,0,0,1-12.39,2.57,29.36,29.36,0,0,1-3.25-.18q-10.77-1.27-19-10.08Q188,154.89,188,138v-.51a68.44,68.44,0,0,1,1.19-12.86,99.78,99.78,0,0,1,4.19-14.65q9.91-28.38,26.32-45.46,12.9-13.25,23.07-13.25a15.18,15.18,0,0,1,4.53.69c3.07,1.08,5,2.53,5.77,4.35a12.21,12.21,0,0,1,1.15,4.28,8.25,8.25,0,0,1-1.54,4.61c-1.2,1.88-3.5,3.13-6.92,3.76a17.52,17.52,0,0,0-4.7,1.62,19.07,19.07,0,0,0-4.1,3.25Q226.94,84,218.23,101.31ZM334.52,61c.17,1.54.26,5.45.26,11.71s-.06,13-.17,20.08-.29,12.73-.52,16.83q-1.53,25.3-5.12,38.88-4.19,16.59-12,23.93-8.72,8.46-18.45,8.46a24,24,0,0,1-4.45-.43,33,33,0,0,1-16-9.14q-7.17-6.84-10.85-18.89t-5.55-34.6q-.86-9.49-.86-20.17,0-9.06.6-19,.35-5.72.56-8.93c.14-2.13.3-3.71.47-4.74a11.72,11.72,0,0,1,.6-2.39c1-2.51,2.32-4.15,3.88-4.92a9.56,9.56,0,0,1,4-1.15,8.14,8.14,0,0,1,3.33.77q4.62,2.06,5.21,8.2.09,1.11.3,7.35t.39,14.7q.68,42.12,5.64,58.53a26.51,26.51,0,0,0,5.29,10.26c2.34,2.67,4.67,4,7,4q16.74,0,16.92-79.64,0-6.66.08-12.26t.26-7q.76-6,4.7-8.38a7.18,7.18,0,0,1,2.09-1,15.12,15.12,0,0,1,3-.21,16.29,16.29,0,0,1,2.9.17,5,5,0,0,1,2,1Q333.67,55.6,334.52,61Zm83.57,92.29a5.86,5.86,0,0,1,.09,1,9.11,9.11,0,0,1-3.17,6.93,64.08,64.08,0,0,1-5.55,4.14q-4,2.78-8.33,5.51t-6.62,3.93a36.35,36.35,0,0,1-15,3.68,24.33,24.33,0,0,1-5.39-.6q-15.63-4.11-20.25-31.62a209,209,0,0,1-2.13-31.53q0-16.23,1.79-35.8.76-8.3,1.37-12.65A29.82,29.82,0,0,1,356.23,60a8.76,8.76,0,0,1,2.13-3.25,11.08,11.08,0,0,1,2.78-2.18,17.53,17.53,0,0,1,4.4-1.45c1.94-.43,4.7-.92,8.29-1.5q8.88-1.37,14.61-2a99.38,99.38,0,0,1,10.25-.6H400a29,29,0,0,1,6.4.51A8.67,8.67,0,0,1,410.49,52a9.42,9.42,0,0,1,2.82,6.58,8.28,8.28,0,0,1-.18,1.71A9.59,9.59,0,0,1,407.5,67a14.79,14.79,0,0,1-2.91.77,55.7,55.7,0,0,1-5.94.6q-4.06.25-11.58.6-3.75.17-6.71.42a34.54,34.54,0,0,0-3.63.43q-3.24.94-3.93,3.5a47,47,0,0,0-.47,6.28q-.21,5.35-.42,12.44t-.3,12.3q-.09,5.22-.09,7.78v2.13c.06,1.37.11,2.4.17,3.08a5.61,5.61,0,0,0,.3,1.54,3.24,3.24,0,0,0,.73,1,2,2,0,0,0,1.36.86,10.32,10.32,0,0,0,1.12.08,19.17,19.17,0,0,0,3.16-.34c1.71-.28,4.18-.82,7.43-1.62a92.12,92.12,0,0,1,9.31-2c1.37-.14,2.23-.21,2.57-.21a7.78,7.78,0,0,1,4.1.94,9.26,9.26,0,0,1,4.87,5.64,10.43,10.43,0,0,1,.34,2.56q0,5.8-6.83,9.14a28.59,28.59,0,0,1-5.26,1.54c-2.53.57-6.74,1.37-12.6,2.39-1.54.35-2.94.67-4.19,1a15,15,0,0,0-2.39.72,5.46,5.46,0,0,0-.9.94,5.93,5.93,0,0,0-.73,1.2,3.39,3.39,0,0,0-.29,1,6.4,6.4,0,0,0-.05.73v.77a20.92,20.92,0,0,0,.43,2.22q1.36,7,3.38,8.89a6,6,0,0,0,4.05,1.88,9.16,9.16,0,0,0,3.42-.77,29.38,29.38,0,0,0,3.72-2c1.74-1.06,3.6-2.24,5.6-3.55,2.9-1.93,5.18-3.39,6.83-4.36a26.21,26.21,0,0,1,4-2,9.23,9.23,0,0,1,3.16-.56,9.66,9.66,0,0,1,1.28-.08,4.8,4.8,0,0,1,1.37.17,6.7,6.7,0,0,1,2.22.94A8,8,0,0,1,418.09,153.26Zm30.85,2q.42,5.13.42,8.21v1.62a10.37,10.37,0,0,1-1,4.87,10.06,10.06,0,0,1-4.79,4.45,8.25,8.25,0,0,1-3.07.51H440a10.6,10.6,0,0,1-3.59-.69c-3.54-1.59-5.64-5.07-6.33-10.42q-.42-3.84-1.19-13.76t-1.28-18.11q-.6-11.88-.64-21.11t-.05-12.22q0-11.88.26-22,.35-12.56,1.11-16,1.8-6.5,7.52-7.86a6.88,6.88,0,0,1,1.45-.17,7.76,7.76,0,0,1,4.1,1.2A8.55,8.55,0,0,1,445,58.15q.17.78.38,6.33t.47,13.33q.18,7,.34,15.89.35,10.93.52,19,.25,12.14.77,22T448.94,155.22Zm88.35-1.88a10.52,10.52,0,0,1-1.36,5,8.38,8.38,0,0,1-2.48,2.82,30.65,30.65,0,0,1-5.21,2.82l-4.83,2.27c-2,.93-4,1.86-5.94,2.77q-6.08,2.91-9.14,4.15a34.8,34.8,0,0,1-6,1.83,33.82,33.82,0,0,1-7.94,1,28.9,28.9,0,0,1-3.08-.17q-15.12-2.15-21-19.4-3.42-9.57-3.42-29,0-3.33.09-6.92.16-8.2.64-17t1.07-14q.33-3.33,1.19-9.65t1.71-12q.85-5.73,1.2-7.26,1.71-7.09,7.52-8.8a7.66,7.66,0,0,1,2-.26,7.8,7.8,0,0,1,3.34.77A8,8,0,0,1,489.53,56a6.06,6.06,0,0,1,.59,1.45,6.46,6.46,0,0,1,.18,1.62c0,.63,0,1.49-.09,2.57Q490,65,489.27,75.33t-1.62,22.3q-.78,8.64-.77,26.75,0,8.28,0,12.22c0,2.62.11,4.55.26,5.81s.32,2.42.55,3.5q1.62,6.84,4.36,9a4.49,4.49,0,0,0,2.48,1l1.37,0a12.53,12.53,0,0,0,4-.69c.8-.28,2.12-.82,4-1.62s3.77-1.68,5.76-2.65q8.12-3.84,11.62-5.21a18.46,18.46,0,0,1,5.64-1.45,7.52,7.52,0,0,1,1.11-.09,8.3,8.3,0,0,1,6.84,3.08A9.46,9.46,0,0,1,537.29,153.34Z"/></svg>