<?xml version="1.0" encoding="utf-8"?>
<!-- Generator: Adobe Illustrator 26.0.1, SVG Export Plug-In . SVG Version: 6.00 Build 0)  -->
<svg version="1.1" id="Layer_1" xmlns="http://www.w3.org/2000/svg" xmlns:xlink="http://www.w3.org/1999/xlink" x="0px" y="0px"
	 viewBox="0 0 1000 1000" style="enable-background:new 0 0 1000 1000;" xml:space="preserve">
<style type="text/css">
	.st0{fill:#4D4D4D;}
	.st1{display:none;}
	.st2{display:inline;fill:#1A1A1A;}
	.st3{display:inline;fill:#326145;}
</style>
<path class="st0" d="M278.1,567.99c0.73,5.62,1.1,9.93,1.1,12.94c0,1.06-0.04,1.95-0.12,2.69c-0.41,3.01-1.59,5.49-3.54,7.45
	c-1.71,1.71-3.52,2.85-5.43,3.42c-1.91,0.57-3.48,0.85-4.7,0.85c-0.98,0-1.91-0.12-2.81-0.37c-4.72-1.46-7.93-4.6-9.64-9.4
	c-0.57-1.38-1.08-3.32-1.53-5.8c-0.45-2.48-1.04-6.65-1.77-12.51c-0.57-5.21-1.53-8.42-2.87-9.64s-3.19-1.83-5.55-1.83
	c-1.22,0-2.56,0.12-4.03,0.37c-3.99,0.41-7.06,0.77-9.22,1.1c-2.16,0.33-3.77,0.63-4.82,0.92c-1.06,0.29-1.83,0.63-2.32,1.04
	c-1.06,0.65-1.83,1.36-2.32,2.14c-0.49,0.77-0.75,1.69-0.79,2.75c-0.04,1.06-0.06,1.95-0.06,2.69c0,1.38,0.04,3.13,0.12,5.25
	l0.37,8.67l-1.71,3.17c-2.85,4.88-5.51,7.32-8,7.32c-2.48,0-3.77,0-3.85,0c-4.88,0-8.79-2.4-11.72-7.2c-0.73-1.3-1.34-2.97-1.83-5
	c-0.49-2.03-0.94-5.02-1.34-8.97c-0.41-3.95-0.9-9.46-1.46-16.54c-2.2-27.91-3.46-47.06-3.78-57.43
	c-0.33-10.38-0.49-18.09-0.49-23.13c0-11.23,0.32-22.87,0.98-34.91c0.16-3.17,0.31-5.53,0.43-7.08c0.12-1.54,0.32-2.77,0.61-3.66
	c0.28-0.89,0.71-1.91,1.28-3.05c0.73-1.38,1.42-2.48,2.08-3.3c0.65-0.81,1.46-1.5,2.44-2.08c2.36-1.38,4.68-2.08,6.96-2.08
	c1.71,0,3.34,0.37,4.88,1.1c3.66,1.79,5.86,5.05,6.59,9.77c0.08,0.9,0.22,4.15,0.43,9.77c0.2,5.62,0.43,12.25,0.67,19.9
	c0.81,25.88,1.5,43.91,2.08,54.08c0.57,10.17,1.18,15.75,1.83,16.72c0.49,0.9,1.26,1.63,2.32,2.2c1.06,0.57,2.2,0.85,3.42,0.85
	s3.34-0.28,6.35-0.85c3.01-0.57,5.98-1.18,8.91-1.83c2.93-0.65,4.88-1.18,5.86-1.59c0.57-0.32,1.14-0.75,1.71-1.28
	c0.57-0.53,0.98-1.04,1.22-1.53c0.32-0.49,0.55-1.14,0.67-1.95c0.12-0.81,0.2-2.2,0.24-4.15c0.04-1.95,0.04-4.84,0-8.67
	c-0.04-3.82-0.14-8.99-0.31-15.5c-0.08-5.13-0.12-10.05-0.12-14.77c0-4.64,0.04-9.07,0.12-13.31c0.24-8.46,0.77-19.17,1.59-32.1
	c0.41-6.18,0.89-10.56,1.46-13.12c0.57-2.56,1.46-4.58,2.69-6.04c1.54-2.03,3.23-3.25,5.07-3.66c1.83-0.41,3.23-0.61,4.21-0.61
	c1.54,0,3.09,0.33,4.64,0.98c4.39,2.12,6.88,6.43,7.45,12.94c0.08,1.38,0.22,6.71,0.43,15.99c0.2,9.28,0.39,20.35,0.55,33.2
	c0.24,26.78,0.65,46.35,1.22,58.72C275.49,544.35,276.55,556.36,278.1,567.99z M380.92,520.63c0.12,1.99,0.18,3.99,0.18,5.98
	c0,9.43-1.26,18.63-3.78,27.6c-3.05,10.9-7.59,20.16-13.62,27.77c-4.63,5.8-9.9,9.79-15.82,11.95c-1.41,0.53-2.64,0.88-3.69,1.05
	s-2.55,0.29-4.48,0.35h-2.02c-2.23,0-3.96-0.15-5.19-0.44c-7.21-1.93-13.58-6.33-19.12-13.18s-9.62-15.44-12.26-25.75
	c-1.93-8.67-2.9-17.52-2.9-26.54c0-11.48,1.58-23.2,4.75-35.16c1.82-6.33,4.07-12.07,6.77-17.23c1.93-3.81,3.85-6.59,5.76-8.35
	c1.9-1.76,4.2-2.93,6.9-3.52c2.11-0.41,4.69-0.62,7.73-0.62c1.05,0,2.14,0.03,3.25,0.09c4.51,0.18,8.7,0.67,12.57,1.49
	C366.98,471.06,378.64,489.23,380.92,520.63z M360.97,526.52c0-8.73-1.35-16.99-4.04-24.79c-2.05-5.98-4.92-10.25-8.61-12.83
	c-3.69-2.58-8.61-3.87-14.77-3.87h-0.44c-2.4,0-4.12,0.22-5.14,0.66c-1.03,0.44-1.83,1.27-2.42,2.5c-1.17,2.46-2.39,6.58-3.65,12.35
	c-1.26,5.77-2.21,11.59-2.86,17.45c-0.41,4.28-0.62,8.35-0.62,12.22c0,13.42,2.43,24.67,7.29,33.75c4.22,7.27,8.53,10.9,12.92,10.9
	c1.52,0,3.02-0.41,4.48-1.23c3.52-2.05,6.97-6.45,10.37-13.18c4.22-8.73,6.52-16.16,6.9-22.28
	C360.78,532.05,360.97,528.16,360.97,526.52z M467.67,561.24c0.23,0.94,0.35,1.85,0.35,2.72c0,1.35-0.29,2.67-0.88,3.96
	c-1,2.05-2.61,3.57-4.83,4.57c-0.88,0.41-1.99,0.62-3.34,0.62c-2.17,0-4.98-0.53-8.44-1.58c-2.64-0.82-5.66-1.64-9.05-2.46
	c-3.4-0.82-6.53-1.54-9.4-2.15c-2.87-0.62-4.72-0.92-5.54-0.92c-1.88,0-2.93,0.44-3.16,1.32c-0.23,0.88-0.35,1.7-0.35,2.46
	c0,1.58,0.26,3.87,0.79,6.86c0.58,3.46,0.91,5.71,0.97,6.77c0.06,1.05,0.09,1.79,0.09,2.2c0,1.23-0.15,2.26-0.44,3.08
	c-0.29,1.05-0.94,2.14-1.93,3.25c-1,1.11-2.08,1.96-3.25,2.55c-1.17,0.47-2.49,0.7-3.96,0.7c-1.41,0-2.72-0.23-3.96-0.7
	c-2.29-1.17-4.01-3.02-5.19-5.54c-1.52-3.92-3.15-12.89-4.88-26.89c-1.73-14-3.12-29.33-4.17-45.97c-0.29-4.69-0.44-8.14-0.44-10.37
	c0-2.23,0-3.84,0-4.83c0-3.11,0.06-6.8,0.18-11.07c0.12-5.39,0.26-9.33,0.44-11.82c0.18-2.49,0.53-4.22,1.05-5.19
	s1.35-1.92,2.46-2.86c3.28-3.05,9.17-4.72,17.67-5.01c0.88-0.06,1.73-0.09,2.55-0.09c11.95,0,22.24,3.13,30.85,9.4
	c6.62,5.1,10.78,11.9,12.48,20.39c0.35,2.11,0.53,4.22,0.53,6.33c0,11.66-5.07,23.59-15.21,35.77c-0.94,1.11-1.89,2.24-2.86,3.38
	s-1.71,2.01-2.24,2.59c-1.17,1.29-1.76,2.43-1.76,3.43c0,0.7,0.32,1.32,0.97,1.85c0.7,0.65,3.11,1.52,7.21,2.64
	c5.45,1.46,9.43,3.02,11.95,4.66C465.45,556.9,467.03,558.9,467.67,561.24z M443.85,506.66c0.41-1.7,0.62-3.49,0.62-5.36
	c0-1.88-0.23-3.52-0.7-4.92c-1-2.93-3.31-5.49-6.94-7.69c-3.63-2.2-8.03-3.68-13.18-4.44c-1.11-0.18-1.85-0.26-2.2-0.26
	s-0.62,0-0.79,0c-0.35,0-0.67,0.03-0.97,0.09c-0.35,0.06-0.79,0.21-1.32,0.44c-0.06,0.06-0.15,0.12-0.26,0.18
	c-0.65,0.23-1.14,0.59-1.49,1.05c-0.35,0.47-0.54,1.17-0.57,2.11c-0.03,0.94-0.04,1.73-0.04,2.37c0,1.29,0.03,2.96,0.09,5.01
	c0.18,3.11,0.44,7.38,0.79,12.83c0,0.82,0.03,1.67,0.09,2.55c0.35,5.33,0.63,9.57,0.83,12.7c0.21,3.13,0.42,5.48,0.66,7.03
	c0.23,1.55,0.48,2.62,0.75,3.21c0.26,0.59,0.6,0.97,1.01,1.14c0.29,0.23,0.53,0.35,0.7,0.35s0.32,0,0.44,0h0.44l1.32-0.53
	c0.7-0.29,1.89-1.23,3.56-2.81s3.43-3.37,5.27-5.36c1.85-1.99,3.35-3.78,4.53-5.36c1.58-2.17,3.08-4.63,4.48-7.38
	C442.36,510.85,443.33,508.54,443.85,506.66z M556,577.24c0.18,0.82,0.26,1.49,0.26,2.02c0,0.29-0.03,0.56-0.09,0.79
	c-0.94,5.39-4.01,8.2-9.23,8.44c-2.81,0-5.24-0.97-7.29-2.9c-1.05-0.94-1.96-2.04-2.72-3.3c-0.76-1.26-1.52-3-2.29-5.23
	c-0.76-2.11-1.54-3.62-2.33-4.53c-0.79-0.91-1.8-1.42-3.03-1.54c-0.29-0.06-0.79-0.09-1.49-0.09c-1.11,0-2.67,0.06-4.66,0.18
	c-3.28,0.18-6.78,0.4-10.5,0.66c-3.72,0.26-6.52,0.51-8.39,0.75c-2.64,0.29-4.44,0.97-5.41,2.02s-1.57,3.05-1.8,5.98
	c-0.18,2.17-0.56,3.88-1.14,5.14c-0.59,1.26-1.46,2.36-2.64,3.3c-0.65,0.53-1.26,0.88-1.85,1.05c-0.59,0.18-1.44,0.29-2.55,0.35
	h-0.97c-0.65,0-1.17-0.03-1.58-0.09c-0.65-0.12-1.23-0.32-1.76-0.62c-0.94-0.53-1.86-1.29-2.77-2.29c-0.91-1-1.6-2.02-2.07-3.08
	c-0.59-1.29-0.88-3.6-0.88-6.94c0-4.45,0.53-10.72,1.58-18.81c1.05-7.44,2.77-16.1,5.14-25.97c2.37-9.87,5.05-19.44,8.04-28.7
	c7.15-21.97,14.65-34.77,22.5-38.41c1-0.53,1.86-0.85,2.59-0.97c0.73-0.12,1.89-0.18,3.47-0.18c2.11,0,3.84,0.25,5.19,0.75
	c1.35,0.5,2.75,1.42,4.22,2.77c1.93,1.7,3.5,3.84,4.7,6.42c1.2,2.58,2.27,6.42,3.21,11.51c0.94,5.1,1.96,12.25,3.08,21.45
	c3.92,32.05,7.97,54.02,12.13,65.92C555.39,575.04,555.83,576.42,556,577.24z M527.44,546.21c0-0.29-0.03-0.62-0.09-0.97
	c-0.06-0.76-0.19-1.83-0.4-3.21c-0.21-1.38-0.48-3.27-0.83-5.67c-0.47-2.87-1-6.49-1.58-10.85c-0.59-4.36-1.11-8.42-1.58-12.17
	c-1.11-8.44-1.88-13.21-2.29-14.33c-0.41-0.76-0.94-1.14-1.58-1.14h-0.18c-0.7,0.06-1.38,0.56-2.02,1.49
	c-1.05,1.76-2.74,6.4-5.05,13.93c-2.32,7.53-4.58,15.69-6.81,24.48c-1.41,5.57-2.11,9.43-2.11,11.6c0,0.76,0.09,1.32,0.26,1.67
	c0.12,0.18,0.35,0.4,0.7,0.66s0.76,0.51,1.23,0.75c0.47,0.23,0.85,0.38,1.14,0.44l2.55-0.35c1.7-0.18,3.75-0.41,6.15-0.7
	c2.46-0.35,4.63-0.67,6.5-0.97c1.88-0.29,3.05-0.53,3.52-0.7c0.94-0.41,1.61-1.14,2.02-2.2c0.18-0.35,0.29-0.67,0.35-0.97
	C527.41,546.71,527.44,546.45,527.44,546.21z M590.02,548.76c-0.35-6.74-0.62-14.27-0.79-22.59c-0.12-5.51-0.29-12.01-0.53-19.51
	c-0.12-6.09-0.23-11.54-0.35-16.35c-0.18-5.33-0.34-9.9-0.48-13.71c-0.15-3.81-0.28-5.98-0.4-6.5c-0.7-1.88-1.96-3.37-3.78-4.48
	c-1.35-0.82-2.75-1.23-4.22-1.23c-0.47,0-0.97,0.06-1.49,0.18c-3.93,0.94-6.5,3.63-7.73,8.09c-0.53,2.34-0.91,7.82-1.14,16.44
	c-0.18,6.91-0.26,14.44-0.26,22.59c0,2.05,0.01,6.24,0.04,12.57c0.03,6.33,0.25,13.57,0.66,21.71c0.35,5.62,0.79,11.84,1.32,18.63
	c0.53,6.8,0.94,11.51,1.23,14.15c0.7,5.51,2.87,9.08,6.5,10.72c1,0.41,2.23,0.65,3.69,0.7h0.53c1.23,0,2.29-0.18,3.16-0.53
	c2.17-1,3.81-2.52,4.92-4.57c0.64-1.11,1-2.78,1.05-5.01v-1.67c0-2.11-0.15-4.92-0.44-8.44
	C590.87,562.56,590.37,555.5,590.02,548.76z M681.16,561.24c0.23,0.94,0.35,1.85,0.35,2.72c0,1.35-0.29,2.67-0.88,3.96
	c-1,2.05-2.61,3.57-4.83,4.57c-0.88,0.41-1.99,0.62-3.34,0.62c-2.17,0-4.98-0.53-8.44-1.58c-2.64-0.82-5.66-1.64-9.05-2.46
	c-3.4-0.82-6.53-1.54-9.4-2.15c-2.87-0.62-4.72-0.92-5.54-0.92c-1.88,0-2.93,0.44-3.16,1.32c-0.23,0.88-0.35,1.7-0.35,2.46
	c0,1.58,0.26,3.87,0.79,6.86c0.58,3.46,0.91,5.71,0.97,6.77c0.06,1.05,0.09,1.79,0.09,2.2c0,1.23-0.15,2.26-0.44,3.08
	c-0.29,1.05-0.94,2.14-1.93,3.25c-1,1.11-2.08,1.96-3.25,2.55c-1.17,0.47-2.49,0.7-3.96,0.7c-1.41,0-2.72-0.23-3.96-0.7
	c-2.29-1.17-4.01-3.02-5.19-5.54c-1.52-3.92-3.15-12.89-4.88-26.89c-1.73-14-3.12-29.33-4.17-45.97c-0.29-4.69-0.44-8.14-0.44-10.37
	c0-2.23,0-3.84,0-4.83c0-3.11,0.06-6.8,0.18-11.07c0.12-5.39,0.26-9.33,0.44-11.82c0.18-2.49,0.53-4.22,1.05-5.19
	s1.35-1.92,2.46-2.86c3.28-3.05,9.17-4.72,17.67-5.01c0.88-0.06,1.73-0.09,2.55-0.09c11.95,0,22.24,3.13,30.85,9.4
	c6.62,5.1,10.78,11.9,12.48,20.39c0.35,2.11,0.53,4.22,0.53,6.33c0,11.66-5.07,23.59-15.21,35.77c-0.94,1.11-1.89,2.24-2.86,3.38
	s-1.71,2.01-2.24,2.59c-1.17,1.29-1.76,2.43-1.76,3.43c0,0.7,0.32,1.32,0.97,1.85c0.7,0.65,3.11,1.52,7.21,2.64
	c5.45,1.46,9.43,3.02,11.95,4.66C678.93,556.9,680.51,558.9,681.16,561.24z M657.34,506.66c0.41-1.7,0.62-3.49,0.62-5.36
	c0-1.88-0.23-3.52-0.7-4.92c-1-2.93-3.31-5.49-6.94-7.69c-3.63-2.2-8.03-3.68-13.18-4.44c-1.11-0.18-1.85-0.26-2.2-0.26
	s-0.62,0-0.79,0c-0.35,0-0.67,0.03-0.97,0.09c-0.35,0.06-0.79,0.21-1.32,0.44c-0.06,0.06-0.15,0.12-0.26,0.18
	c-0.65,0.23-1.14,0.59-1.49,1.05c-0.35,0.47-0.54,1.17-0.57,2.11c-0.03,0.94-0.04,1.73-0.04,2.37c0,1.29,0.03,2.96,0.09,5.01
	c0.18,3.11,0.44,7.38,0.79,12.83c0,0.82,0.03,1.67,0.09,2.55c0.35,5.33,0.63,9.57,0.83,12.7c0.21,3.13,0.42,5.48,0.66,7.03
	c0.23,1.55,0.48,2.62,0.75,3.21c0.26,0.59,0.6,0.97,1.01,1.14c0.29,0.23,0.53,0.35,0.7,0.35s0.32,0,0.44,0h0.44l1.32-0.53
	c0.7-0.29,1.89-1.23,3.56-2.81s3.43-3.37,5.27-5.36c1.85-1.99,3.35-3.78,4.53-5.36c1.58-2.17,3.08-4.63,4.48-7.38
	C655.85,510.85,656.81,508.54,657.34,506.66z M757.54,560.45c-0.88-0.53-1.64-0.85-2.29-0.97c-0.41-0.12-0.88-0.18-1.41-0.18
	c-0.41,0-0.85,0.03-1.32,0.09c-1.11,0-2.2,0.19-3.25,0.57c-1.05,0.38-2.43,1.07-4.13,2.07c-1.7,1-4.04,2.49-7.03,4.48
	c-2.05,1.35-3.97,2.56-5.76,3.65c-1.79,1.08-3.06,1.77-3.82,2.07c-1.29,0.53-2.46,0.79-3.52,0.79c-1.41,0-2.8-0.64-4.17-1.93
	c-1.38-1.29-2.54-4.34-3.47-9.14c-0.23-1-0.38-1.76-0.44-2.29v-0.79c0-0.23,0.01-0.48,0.04-0.75c0.03-0.26,0.13-0.6,0.31-1.01
	c0.18-0.41,0.42-0.82,0.75-1.23c0.32-0.41,0.63-0.73,0.92-0.97c0.35-0.18,1.17-0.42,2.46-0.75c1.29-0.32,2.72-0.66,4.31-1.01
	c6.03-1.05,10.36-1.88,12.96-2.46c2.61-0.58,4.41-1.11,5.41-1.58c4.69-2.29,7.03-5.42,7.03-9.4c0-0.82-0.12-1.7-0.35-2.64
	c-0.76-2.52-2.43-4.45-5.01-5.8c-1.05-0.64-2.46-0.97-4.22-0.97c-0.35,0-1.23,0.07-2.64,0.22c-1.41,0.15-4.6,0.83-9.58,2.07
	c-3.34,0.82-5.89,1.38-7.65,1.67c-1.35,0.23-2.43,0.35-3.25,0.35c-0.23,0-0.62-0.03-1.14-0.09c-0.53-0.06-1-0.35-1.41-0.88
	c-0.35-0.35-0.6-0.7-0.75-1.05c-0.15-0.35-0.25-0.88-0.31-1.58c-0.06-0.7-0.12-1.76-0.18-3.16v-2.2c0-1.76,0.03-4.42,0.09-8
	c0.06-3.57,0.16-7.79,0.31-12.66c0.15-4.86,0.29-9.13,0.44-12.79c0.15-3.66,0.31-5.81,0.48-6.46c0.47-1.76,1.82-2.96,4.04-3.6
	c0.47-0.12,1.71-0.26,3.74-0.44s4.32-0.32,6.9-0.44c5.16-0.23,9.13-0.44,11.91-0.62c2.78-0.18,4.82-0.38,6.11-0.62
	c1.29-0.23,2.29-0.5,2.99-0.79c3.22-1.58,5.16-3.9,5.8-6.94c0.12-0.58,0.18-1.17,0.18-1.76c0-2.46-0.97-4.72-2.9-6.77
	c-1.23-1.29-2.64-2.14-4.22-2.55c-1.41-0.35-3.6-0.53-6.59-0.53h-1.32c-3.11,0-6.62,0.21-10.55,0.62
	c-3.93,0.41-8.94,1.08-15.03,2.02c-3.69,0.59-6.53,1.1-8.53,1.54c-1.99,0.44-3.5,0.94-4.53,1.49c-1.03,0.56-1.98,1.3-2.86,2.24
	c-0.94,0.88-1.67,1.99-2.2,3.34c-0.53,1.35-1,3.52-1.41,6.5c-0.41,2.99-0.88,7.33-1.41,13.01c-1.23,13.42-1.85,25.69-1.85,36.83
	c0,12.13,0.73,22.94,2.2,32.43c3.16,18.87,10.11,29.71,20.83,32.52c1.82,0.41,3.66,0.62,5.54,0.62c4.8,0,9.96-1.26,15.47-3.78
	c1.58-0.82,3.85-2.17,6.81-4.04c2.96-1.88,5.81-3.76,8.57-5.67c2.75-1.9,4.66-3.33,5.71-4.26c2.17-1.99,3.25-4.36,3.25-7.12
	c0-0.35-0.03-0.7-0.09-1.05C762.37,564.46,760.7,561.97,757.54,560.45z M824.68,549.86c-0.65-2.08-1.7-4.26-3.16-6.55
	c-2.4-4.04-5.89-7.79-10.46-11.25c-4.57-3.46-11.46-7.59-20.65-12.39c-4.39-2.34-7.75-4.16-10.06-5.45
	c-2.32-1.29-3.96-2.33-4.92-3.12s-1.63-1.57-1.98-2.33c-0.47-0.76-0.7-1.58-0.7-2.46c0-3.11,2.9-7,8.7-11.69
	c7.21-5.92,13.5-9.29,18.9-10.11c0.76-0.12,1.55-0.25,2.37-0.4c0.82-0.15,1.44-0.28,1.85-0.4c2.99-1.05,4.89-2.96,5.71-5.71
	c0.23-0.76,0.35-1.52,0.35-2.29c0-1.93-0.7-3.81-2.11-5.62c-2.34-2.64-5.54-3.96-9.58-3.96c-2.58,0-5.51,0.53-8.79,1.58
	c-2.52,0.88-5.54,2.2-9.05,3.96s-6.53,3.43-9.05,5.01c-3.87,2.64-7.43,5.73-10.68,9.27c-3.25,3.55-5.67,7.02-7.25,10.42
	c-1.64,3.81-2.46,7.44-2.46,10.9c0,6.5,2.96,12.45,8.88,17.84c1.29,1.11,2.68,2.18,4.17,3.21c1.49,1.03,3.79,2.39,6.9,4.09
	c3.11,1.7,7.7,4.16,13.8,7.38c6.68,3.57,11.56,6.71,14.63,9.4c3.08,2.7,4.79,5.3,5.14,7.82c0.06,0.35,0.09,0.67,0.09,0.97
	c0,0.29-0.04,0.66-0.13,1.1s-0.34,1.13-0.75,2.07c-1.52,2.81-4.42,5.44-8.7,7.87c-4.28,2.43-8.88,4.06-13.8,4.88
	c-5.98,0.88-9.4,3.43-10.28,7.65c-0.12,0.65-0.18,1.29-0.18,1.93c0,1.58,0.48,3.27,1.45,5.05c0.97,1.79,2.56,3.21,4.79,4.26
	c1.7,0.64,3.6,0.97,5.71,0.97c5.16,0,11.57-1.85,19.25-5.54c12.36-6.39,19.89-14.38,22.59-23.99c0.23-1,0.38-2.05,0.44-3.16
	c0.06-0.76,0.09-1.61,0.09-2.55v-1.58C825.68,554.3,825.33,551.94,824.68,549.86z"/>
<g id="CONCEPT" class="st1">
	<path class="st2" d="M246.57,484.98c-10.17,20.92-15.26,37.96-15.26,51.15c0,9.2,2.48,16.48,7.45,21.85
		c3.25,3.66,7,5.49,11.23,5.49c0.49,0,0.98-0.04,1.46-0.12c2.28-0.08,4.72-0.69,7.32-1.83c2.6-1.14,5.94-3.05,10.01-5.74
		c3.82-2.52,6.65-4.17,8.48-4.94c1.83-0.77,3.8-1.16,5.92-1.16c4.39,0,7.81,1.51,10.25,4.52c2.12,2.61,3.17,5.37,3.17,8.3
		c0,2.69-0.94,5.49-2.81,8.42c-1.95,2.44-5.6,5.45-10.93,9.03c-5.33,3.58-10.4,6.39-15.2,8.42c-6.19,2.44-12.08,3.66-17.7,3.66
		c-1.55,0-3.09-0.08-4.64-0.24c-10.25-1.22-19.29-6.02-27.1-14.4c-9.93-10.58-14.89-23.93-14.89-40.04v-0.73
		c0-6.27,0.57-12.39,1.71-18.37c1.14-5.98,3.13-12.96,5.98-20.94c9.44-27.02,21.97-48.66,37.6-64.94
		c12.29-12.61,23.27-18.92,32.96-18.92c2.2,0,4.35,0.33,6.47,0.98c4.39,1.55,7.14,3.62,8.24,6.23c1.1,2.61,1.65,4.64,1.65,6.1
		c0,2.2-0.73,4.39-2.2,6.59c-1.71,2.69-5,4.48-9.89,5.37c-2.69,0.57-4.92,1.34-6.71,2.32c-1.79,0.98-3.74,2.52-5.86,4.64
		C263.78,455.36,254.87,468.47,246.57,484.98z M389.43,520.63c0.12,1.99,0.18,3.99,0.18,5.98c0,9.43-1.26,18.63-3.78,27.6
		c-3.05,10.9-7.59,20.16-13.62,27.77c-4.63,5.8-9.9,9.79-15.82,11.95c-1.41,0.53-2.64,0.88-3.69,1.05s-2.55,0.29-4.48,0.35h-2.02
		c-2.23,0-3.96-0.15-5.19-0.44c-7.21-1.93-13.58-6.33-19.12-13.18s-9.62-15.44-12.26-25.75c-1.93-8.67-2.9-17.52-2.9-26.54
		c0-11.48,1.58-23.2,4.75-35.16c1.82-6.33,4.07-12.07,6.77-17.23c1.93-3.81,3.85-6.59,5.76-8.35c1.9-1.76,4.2-2.93,6.9-3.52
		c2.11-0.41,4.69-0.62,7.73-0.62c1.05,0,2.14,0.03,3.25,0.09c4.51,0.18,8.7,0.67,12.57,1.49
		C375.49,471.06,387.15,489.23,389.43,520.63z M369.48,526.52c0-8.73-1.35-16.99-4.04-24.79c-2.05-5.98-4.92-10.25-8.61-12.83
		c-3.69-2.58-8.61-3.87-14.77-3.87h-0.44c-2.4,0-4.12,0.22-5.14,0.66c-1.03,0.44-1.83,1.27-2.42,2.5
		c-1.17,2.46-2.39,6.58-3.65,12.35c-1.26,5.77-2.21,11.59-2.86,17.45c-0.41,4.28-0.62,8.35-0.62,12.22
		c0,13.42,2.43,24.67,7.29,33.75c4.22,7.27,8.53,10.9,12.92,10.9c1.52,0,3.02-0.41,4.48-1.23c3.52-2.05,6.97-6.45,10.37-13.18
		c4.22-8.73,6.52-16.16,6.9-22.28C369.29,532.05,369.48,528.16,369.48,526.52z M484.27,463.33c-1.88-2.17-4.16-3.34-6.86-3.52h-0.44
		c-2.52,0-4.78,0.94-6.77,2.81c-1.11,1.05-1.92,2.39-2.42,4c-0.5,1.61-0.83,4.03-1.01,7.25c-0.29,4.16-0.66,9.51-1.1,16.04
		c-0.44,6.53-0.83,12.64-1.19,18.33c-0.18,2.75-0.37,6.45-0.57,11.07c-0.21,4.63-0.37,9.14-0.48,13.54
		c-0.12,3.93-0.23,7.08-0.35,9.45c-0.12,2.37-0.25,4.21-0.4,5.49c-0.15,1.29-0.34,2.2-0.57,2.72c-0.23,0.53-0.53,0.91-0.88,1.14
		c-0.18,0.12-0.35,0.18-0.53,0.18c-0.12,0-0.28-0.06-0.48-0.18c-0.21-0.12-0.57-0.47-1.1-1.05c-0.35-0.47-0.76-1.1-1.23-1.89
		c-0.47-0.79-0.88-1.57-1.23-2.33c-0.29-0.82-0.82-2.12-1.58-3.91c-0.76-1.79-1.55-3.65-2.37-5.58
		c-2.99-7.09-7.97-20.18-14.94-39.29c-3.93-10.78-6.96-18.24-9.1-22.37c-2.14-4.13-4.23-6.49-6.28-7.08
		c-1.05-0.35-2.14-0.53-3.25-0.53c-1.64,0-3.6,0.51-5.89,1.54c-2.29,1.03-4.07,2.83-5.36,5.41c-0.23,0.53-0.47,1.3-0.7,2.33
		c-0.23,1.03-0.41,2.07-0.53,3.12c-0.18,2.17-0.29,6.59-0.35,13.27c-0.06,4.51-0.09,9.08-0.09,13.71c0,2.34,0.03,5.92,0.09,10.72
		c0.06,4.8,0.18,9.02,0.35,12.66c0.18,2.46,0.41,6.08,0.7,10.85c0.29,4.78,0.58,9.57,0.88,14.37c0.47,8.09,0.88,14.34,1.23,18.76
		c0.35,4.42,0.67,7.65,0.97,9.67c0.29,2.02,0.67,3.5,1.14,4.44c1.17,2.75,3.16,4.69,5.98,5.8c0.94,0.29,1.88,0.44,2.81,0.44
		c0.94,0,2.15-0.25,3.65-0.75c1.49-0.5,2.91-1.57,4.26-3.21c1.05-1.23,1.7-2.78,1.93-4.66c0.06-0.64,0.09-1.41,0.09-2.29
		c0-1.82-0.12-4.16-0.35-7.03c-0.41-4.39-0.79-9.4-1.14-15.03s-0.65-10.63-0.88-15.03c-0.12-3.28-0.18-5.54-0.18-6.77v-0.79
		c0.35-1.46,0.88-2.2,1.58-2.2c0.12,0,0.23,0.03,0.35,0.09c0.35,0.12,0.76,0.54,1.23,1.27c0.47,0.73,1.11,1.98,1.93,3.74
		c0.82,1.76,1.9,4.25,3.25,7.47c4.69,11.02,8.61,19.47,11.78,25.36s6.05,9.89,8.66,12c2.61,2.11,5.55,3.16,8.83,3.16h0.35
		c4.8,0,8.67-2.34,11.6-7.03c1.99-2.81,3.43-7.38,4.31-13.71s1.49-16.67,1.85-31.03c0.41-14.41,1.26-30.62,2.55-48.6
		c0.41-6.33,0.67-11.22,0.79-14.68v-1.23c0-2.87-0.19-5.07-0.57-6.59C485.86,465.67,485.2,464.38,484.27,463.33z M547.9,486.18
		c1.52-1.52,2.93-2.64,4.22-3.34c1.29-0.7,2.9-1.26,4.83-1.67c3.52-0.64,5.89-1.93,7.12-3.87c1.05-1.58,1.58-3.16,1.58-4.75
		c0-1.05-0.4-2.52-1.19-4.39c-0.79-1.88-2.77-3.37-5.93-4.48c-1.52-0.47-3.08-0.7-4.66-0.7c-6.97,0-14.88,4.54-23.73,13.62
		c-11.25,11.72-20.27,27.31-27.07,46.76c-2.05,5.74-3.49,10.77-4.31,15.07c-0.82,4.31-1.23,8.72-1.23,13.23v0.53
		c0,11.6,3.57,21.21,10.72,28.83c5.62,6.04,12.13,9.49,19.51,10.37c1.11,0.12,2.23,0.18,3.34,0.18c4.04,0,8.29-0.88,12.74-2.64
		c3.46-1.46,7.1-3.49,10.94-6.06c3.84-2.58,6.46-4.75,7.87-6.5c1.35-2.11,2.02-4.13,2.02-6.06c0-2.11-0.76-4.1-2.29-5.98
		c-1.76-2.17-4.22-3.25-7.38-3.25c-1.52,0-2.94,0.28-4.26,0.83c-1.32,0.56-3.35,1.74-6.11,3.56c-2.93,1.93-5.33,3.31-7.21,4.13
		c-1.88,0.82-3.63,1.26-5.27,1.32c-0.35,0.06-0.7,0.09-1.05,0.09c-3.05,0-5.74-1.32-8.09-3.96c-3.57-3.87-5.36-9.11-5.36-15.73
		c0-9.49,3.66-21.77,10.99-36.83C534.63,502.59,541.04,493.15,547.9,486.18z M637.55,560.45c-0.88-0.53-1.64-0.85-2.29-0.97
		c-0.41-0.12-0.88-0.18-1.41-0.18c-0.41,0-0.85,0.03-1.32,0.09c-1.11,0-2.2,0.19-3.25,0.57c-1.05,0.38-2.43,1.07-4.13,2.07
		c-1.7,1-4.04,2.49-7.03,4.48c-2.05,1.35-3.97,2.56-5.76,3.65c-1.79,1.08-3.06,1.77-3.82,2.07c-1.29,0.53-2.46,0.79-3.52,0.79
		c-1.41,0-2.8-0.64-4.17-1.93c-1.38-1.29-2.54-4.34-3.47-9.14c-0.23-1-0.38-1.76-0.44-2.29v-0.79c0-0.23,0.01-0.48,0.04-0.75
		c0.03-0.26,0.13-0.6,0.31-1.01c0.18-0.41,0.42-0.82,0.75-1.23c0.32-0.41,0.63-0.73,0.92-0.97c0.35-0.18,1.17-0.42,2.46-0.75
		c1.29-0.32,2.72-0.66,4.31-1.01c6.03-1.05,10.36-1.88,12.96-2.46c2.61-0.58,4.41-1.11,5.41-1.58c4.69-2.29,7.03-5.42,7.03-9.4
		c0-0.82-0.12-1.7-0.35-2.64c-0.76-2.52-2.43-4.45-5.01-5.8c-1.05-0.64-2.46-0.97-4.22-0.97c-0.35,0-1.23,0.07-2.64,0.22
		c-1.41,0.15-4.6,0.83-9.58,2.07c-3.34,0.82-5.89,1.38-7.65,1.67c-1.35,0.23-2.43,0.35-3.25,0.35c-0.23,0-0.62-0.03-1.14-0.09
		c-0.53-0.06-1-0.35-1.41-0.88c-0.35-0.35-0.6-0.7-0.75-1.05c-0.15-0.35-0.25-0.88-0.31-1.58c-0.06-0.7-0.12-1.76-0.18-3.16v-2.2
		c0-1.76,0.03-4.42,0.09-8c0.06-3.57,0.16-7.79,0.31-12.66c0.15-4.86,0.29-9.13,0.44-12.79c0.15-3.66,0.31-5.81,0.48-6.46
		c0.47-1.76,1.82-2.96,4.04-3.6c0.47-0.12,1.71-0.26,3.74-0.44s4.32-0.32,6.9-0.44c5.16-0.23,9.13-0.44,11.91-0.62
		c2.78-0.18,4.82-0.38,6.11-0.62c1.29-0.23,2.29-0.5,2.99-0.79c3.22-1.58,5.16-3.9,5.8-6.94c0.12-0.58,0.18-1.17,0.18-1.76
		c0-2.46-0.97-4.72-2.9-6.77c-1.23-1.29-2.64-2.14-4.22-2.55c-1.41-0.35-3.6-0.53-6.59-0.53h-1.32c-3.11,0-6.62,0.21-10.55,0.62
		c-3.93,0.41-8.94,1.08-15.03,2.02c-3.69,0.59-6.53,1.1-8.53,1.54c-1.99,0.44-3.5,0.94-4.53,1.49c-1.03,0.56-1.98,1.3-2.86,2.24
		c-0.94,0.88-1.67,1.99-2.2,3.34c-0.53,1.35-1,3.52-1.41,6.5c-0.41,2.99-0.88,7.33-1.41,13.01c-1.23,13.42-1.85,25.69-1.85,36.83
		c0,12.13,0.73,22.94,2.2,32.43c3.16,18.87,10.11,29.71,20.83,32.52c1.82,0.41,3.66,0.62,5.54,0.62c4.8,0,9.96-1.26,15.47-3.78
		c1.58-0.82,3.85-2.17,6.81-4.04c2.96-1.88,5.81-3.76,8.57-5.67c2.75-1.9,4.66-3.33,5.71-4.26c2.17-1.99,3.25-4.36,3.25-7.12
		c0-0.35-0.03-0.7-0.09-1.05C642.38,564.46,640.71,561.97,637.55,560.45z M727.72,494.53c0.35,1.76,0.53,3.6,0.53,5.54v1.67
		c-0.12,2.46-0.44,4.64-0.97,6.55c-0.53,1.9-1.46,4.17-2.81,6.81c-2.52,5.1-6.59,10.58-12.22,16.44
		c-7.33,7.79-17.2,15.24-29.62,22.32c-1.76,1.05-3.3,1.99-4.61,2.81c-1.32,0.82-2.1,1.32-2.33,1.49c-0.82,0.65-1.35,1.39-1.58,2.24
		c-0.23,0.85-0.35,1.83-0.35,2.94c0,0.65,0.03,1.38,0.09,2.2c0.18,2.17,0.56,5.27,1.14,9.32c0.41,2.58,0.69,4.56,0.83,5.93
		c0.15,1.38,0.22,2.45,0.22,3.21c0,0.7-0.09,1.35-0.26,1.93c-0.53,2.29-1.67,4.15-3.43,5.58s-3.72,2.15-5.89,2.15
		c-1.46,0-2.9-0.35-4.31-1.05c-2.05-0.88-3.6-2.5-4.66-4.88s-1.96-6.31-2.72-11.82c-1.29-9.02-2.34-19.07-3.16-30.15
		c-0.82-11.07-1.23-21.45-1.23-31.11c0-2.75,0.12-6.78,0.35-12.08c0.23-5.3,0.51-10.33,0.83-15.07c0.32-4.75,0.63-7.97,0.92-9.67
		c0.94-5.57,3.63-9.17,8.09-10.81c1.23-0.35,3-0.57,5.32-0.66c2.31-0.09,4.17-0.13,5.58-0.13c2.11,0,4.34,0.06,6.68,0.18
		c3.87,0.18,7.21,0.47,10.02,0.88c14.47,1.99,24.96,6.47,31.46,13.45c1.58,1.52,2.77,2.8,3.56,3.82c0.79,1.03,1.51,2.24,2.15,3.65
		C726.58,490.66,727.37,492.77,727.72,494.53z M707.77,500.77c0-2.29-0.88-4.25-2.64-5.89c-2.64-3.28-9.79-6.06-21.45-8.35
		c-3.57-0.76-5.82-1.16-6.72-1.19c-0.91-0.03-1.42-0.04-1.54-0.04c-1.46,0-2.49,0.26-3.08,0.79c-0.53,0.35-0.92,0.82-1.19,1.41
		c-0.26,0.59-0.45,1.61-0.57,3.08c-0.12,1.46-0.18,3.69-0.18,6.68c0,3.05,0.06,7.18,0.18,12.39c0.06,5.57,0.15,10.36,0.26,14.37
		c0.12,4.01,0.23,6.34,0.35,6.99c0.29,2.29,1.26,3.43,2.9,3.43c1.23,0,2.87-0.64,4.92-1.93c4.39-2.69,8.8-5.98,13.23-9.84
		c4.42-3.87,7.95-7.5,10.59-10.9C706.13,507.54,707.77,503.88,707.77,500.77z M806.74,464.38c-0.59-0.23-1.2-0.41-1.85-0.53
		c-0.65-0.12-1.7-0.19-3.16-0.22c-1.46-0.03-3.69-0.04-6.68-0.04c-15.47,0.18-32.29,1.61-50.45,4.31c-3.99,0.59-6.96,1.33-8.92,2.24
		c-1.96,0.91-3.38,2.18-4.26,3.82c-0.76,1.41-1.14,2.84-1.14,4.31c0,0.88,0.26,2.12,0.79,3.74c0.53,1.61,1.99,2.94,4.39,4
		c0.88,0.41,2.29,0.62,4.22,0.62h0.88c1.93,0,4.57-0.15,7.91-0.44c1.82-0.12,3.34-0.18,4.57-0.18c0.94,0,1.9,0.07,2.9,0.22
		c1,0.15,1.76,0.69,2.29,1.63c0.18,0.23,0.31,0.57,0.4,1.01s0.15,1.17,0.18,2.2c0.03,1.03,0.04,2.52,0.04,4.48c0,1.96,0,4.56,0,7.78
		v4.92c0,20.39,1.35,41.48,4.04,63.28c1.05,8.38,2.15,14.22,3.3,17.53s2.86,5.43,5.14,6.37c1.41,0.64,2.81,0.97,4.22,0.97
		c0.7,0,1.8-0.18,3.3-0.53s2.94-1.41,4.35-3.16c1.17-1.41,1.82-2.99,1.93-4.75c0.06-0.35,0.09-0.79,0.09-1.32
		c0-1.76-0.26-4.22-0.79-7.38c-3.05-18.63-4.95-42.98-5.71-73.04c-0.12-4.1-0.21-7.38-0.26-9.84c-0.06-2.46-0.09-4.31-0.09-5.54
		s0.04-2.12,0.13-2.68c0.09-0.56,0.22-0.98,0.4-1.27c0.29-0.76,0.78-1.35,1.45-1.76c0.67-0.41,1.83-0.7,3.47-0.88
		c1.64-0.18,4.04-0.35,7.21-0.53c3.46-0.12,6.17-0.25,8.13-0.4c1.96-0.15,3.43-0.29,4.39-0.44c0.97-0.15,1.8-0.37,2.5-0.66
		c4.28-1.99,6.5-4.89,6.68-8.7v-0.35C812.71,469.48,810.72,466.55,806.74,464.38z"/>
</g>
<g id="CHARTE" class="st1">
	<path class="st3" d="M294.34,484.98c-10.17,20.92-15.26,37.96-15.26,51.15c0,9.2,2.48,16.48,7.45,21.85
		c3.25,3.66,7,5.49,11.23,5.49c0.49,0,0.98-0.04,1.46-0.12c2.28-0.08,4.72-0.69,7.32-1.83c2.6-1.14,5.94-3.05,10.01-5.74
		c3.82-2.52,6.65-4.17,8.48-4.94c1.83-0.77,3.8-1.16,5.92-1.16c4.39,0,7.81,1.51,10.25,4.52c2.12,2.61,3.17,5.37,3.17,8.3
		c0,2.69-0.94,5.49-2.81,8.42c-1.95,2.44-5.6,5.45-10.93,9.03c-5.33,3.58-10.4,6.39-15.2,8.42c-6.19,2.44-12.08,3.66-17.7,3.66
		c-1.55,0-3.09-0.08-4.64-0.24c-10.25-1.22-19.29-6.02-27.1-14.4c-9.93-10.58-14.89-23.93-14.89-40.04v-0.73
		c0-6.27,0.57-12.39,1.71-18.37c1.14-5.98,3.13-12.96,5.98-20.94c9.44-27.02,21.97-48.66,37.6-64.94
		c12.29-12.61,23.27-18.92,32.96-18.92c2.2,0,4.35,0.33,6.47,0.98c4.39,1.55,7.14,3.62,8.24,6.23c1.1,2.61,1.65,4.64,1.65,6.1
		c0,2.2-0.73,4.39-2.2,6.59c-1.71,2.69-5,4.48-9.89,5.37c-2.69,0.57-4.92,1.34-6.71,2.32c-1.79,0.98-3.74,2.52-5.86,4.64
		C311.55,455.36,302.64,468.47,294.34,484.98z M423.05,548.32c-0.41-8.91-0.7-23-0.88-42.28c-0.12-9.26-0.25-17.23-0.4-23.91
		c-0.15-6.68-0.25-10.52-0.31-11.51c-0.41-4.69-2.2-7.79-5.36-9.32c-1.11-0.47-2.23-0.7-3.34-0.7c-0.7,0-1.71,0.15-3.03,0.44
		c-1.32,0.29-2.54,1.17-3.65,2.64c-0.88,1.05-1.52,2.5-1.93,4.35c-0.41,1.85-0.76,5-1.05,9.45c-0.59,9.32-0.97,17.02-1.14,23.12
		c-0.06,3.05-0.09,6.24-0.09,9.58c0,3.4,0.03,6.94,0.09,10.63c0.12,4.69,0.19,8.41,0.22,11.16c0.03,2.75,0.03,4.83,0,6.24
		c-0.03,1.41-0.09,2.4-0.18,2.99c-0.09,0.59-0.25,1.05-0.48,1.41c-0.18,0.35-0.47,0.72-0.88,1.1c-0.41,0.38-0.82,0.69-1.23,0.92
		c-0.7,0.29-2.11,0.67-4.22,1.14c-2.11,0.47-4.25,0.91-6.42,1.32c-2.17,0.41-3.69,0.62-4.57,0.62s-1.7-0.21-2.46-0.62
		c-0.76-0.41-1.32-0.94-1.67-1.58c-0.47-0.7-0.91-4.72-1.32-12.04c-0.41-7.32-0.91-20.3-1.49-38.94
		c-0.18-5.51-0.34-10.28-0.48-14.33c-0.15-4.04-0.25-6.39-0.31-7.03c-0.53-3.4-2.11-5.74-4.75-7.03c-1.11-0.53-2.29-0.79-3.52-0.79
		c-1.64,0-3.31,0.5-5.01,1.49c-0.7,0.41-1.29,0.91-1.76,1.49c-0.47,0.59-0.97,1.38-1.49,2.37c-0.41,0.82-0.72,1.55-0.92,2.2
		c-0.21,0.65-0.35,1.52-0.44,2.64c-0.09,1.11-0.19,2.81-0.31,5.1c-0.47,8.67-0.7,17.05-0.7,25.14c0,3.63,0.12,9.18,0.35,16.66
		c0.23,7.47,1.14,21.26,2.72,41.35c0.41,5.1,0.76,9.07,1.05,11.91c0.29,2.84,0.62,5,0.97,6.46c0.35,1.46,0.79,2.67,1.32,3.6
		c2.11,3.46,4.92,5.19,8.44,5.19c0.06,0,0.98,0,2.77,0c1.79,0,3.71-1.76,5.76-5.27l1.23-2.29l-0.26-6.24
		c-0.06-1.52-0.09-2.78-0.09-3.78c0-0.53,0.01-1.17,0.04-1.93c0.03-0.76,0.22-1.42,0.57-1.98c0.35-0.56,0.91-1.07,1.67-1.54
		c0.35-0.29,0.91-0.54,1.67-0.75c0.76-0.21,1.92-0.42,3.47-0.66c1.55-0.23,3.76-0.5,6.64-0.79c1.05-0.18,2.02-0.26,2.9-0.26
		c1.7,0,3.03,0.44,4,1.32s1.66,3.19,2.07,6.94c0.53,4.22,0.95,7.22,1.27,9.01c0.32,1.79,0.69,3.18,1.1,4.17
		c1.23,3.46,3.54,5.71,6.94,6.77c0.64,0.18,1.32,0.26,2.02,0.26c0.88,0,2.01-0.21,3.38-0.62c1.38-0.41,2.68-1.23,3.91-2.46
		c1.41-1.41,2.25-3.19,2.55-5.36c0.06-0.53,0.09-1.17,0.09-1.93c0-2.17-0.26-5.27-0.79-9.32
		C424.22,565.87,423.46,557.23,423.05,548.32z M517.09,577.24c0.18,0.82,0.26,1.49,0.26,2.02c0,0.29-0.03,0.56-0.09,0.79
		c-0.94,5.39-4.01,8.2-9.23,8.44c-2.81,0-5.24-0.97-7.29-2.9c-1.05-0.94-1.96-2.04-2.72-3.3c-0.76-1.26-1.52-3-2.29-5.23
		c-0.76-2.11-1.54-3.62-2.33-4.53c-0.79-0.91-1.8-1.42-3.03-1.54c-0.29-0.06-0.79-0.09-1.49-0.09c-1.11,0-2.67,0.06-4.66,0.18
		c-3.28,0.18-6.78,0.4-10.5,0.66c-3.72,0.26-6.52,0.51-8.39,0.75c-2.64,0.29-4.44,0.97-5.41,2.02s-1.57,3.05-1.8,5.98
		c-0.18,2.17-0.56,3.88-1.14,5.14c-0.59,1.26-1.46,2.36-2.64,3.3c-0.65,0.53-1.26,0.88-1.85,1.05c-0.59,0.18-1.44,0.29-2.55,0.35
		h-0.97c-0.65,0-1.17-0.03-1.58-0.09c-0.65-0.12-1.23-0.32-1.76-0.62c-0.94-0.53-1.86-1.29-2.77-2.29c-0.91-1-1.6-2.02-2.07-3.08
		c-0.59-1.29-0.88-3.6-0.88-6.94c0-4.45,0.53-10.72,1.58-18.81c1.05-7.44,2.77-16.1,5.14-25.97c2.37-9.87,5.05-19.44,8.04-28.7
		c7.15-21.97,14.65-34.77,22.5-38.41c1-0.53,1.86-0.85,2.59-0.97c0.73-0.12,1.89-0.18,3.47-0.18c2.11,0,3.84,0.25,5.19,0.75
		c1.35,0.5,2.75,1.42,4.22,2.77c1.93,1.7,3.5,3.84,4.7,6.42c1.2,2.58,2.27,6.42,3.21,11.51c0.94,5.1,1.96,12.25,3.08,21.45
		c3.92,32.05,7.97,54.02,12.13,65.92C516.48,575.04,516.92,576.42,517.09,577.24z M488.53,546.21c0-0.29-0.03-0.62-0.09-0.97
		c-0.06-0.76-0.19-1.83-0.4-3.21c-0.21-1.38-0.48-3.27-0.83-5.67c-0.47-2.87-1-6.49-1.58-10.85c-0.59-4.36-1.11-8.42-1.58-12.17
		c-1.11-8.44-1.88-13.21-2.29-14.33c-0.41-0.76-0.94-1.14-1.58-1.14H480c-0.7,0.06-1.38,0.56-2.02,1.49
		c-1.05,1.76-2.74,6.4-5.05,13.93c-2.32,7.53-4.58,15.69-6.81,24.48c-1.41,5.57-2.11,9.43-2.11,11.6c0,0.76,0.09,1.32,0.26,1.67
		c0.12,0.18,0.35,0.4,0.7,0.66s0.76,0.51,1.23,0.75c0.47,0.23,0.85,0.38,1.14,0.44l2.55-0.35c1.7-0.18,3.75-0.41,6.15-0.7
		c2.46-0.35,4.63-0.67,6.5-0.97c1.88-0.29,3.05-0.53,3.52-0.7c0.94-0.41,1.61-1.14,2.02-2.2c0.18-0.35,0.29-0.67,0.35-0.97
		C488.5,546.71,488.53,546.45,488.53,546.21z M596.2,561.24c0.23,0.94,0.35,1.85,0.35,2.72c0,1.35-0.29,2.67-0.88,3.96
		c-1,2.05-2.61,3.57-4.83,4.57c-0.88,0.41-1.99,0.62-3.34,0.62c-2.17,0-4.98-0.53-8.44-1.58c-2.64-0.82-5.66-1.64-9.05-2.46
		c-3.4-0.82-6.53-1.54-9.4-2.15c-2.87-0.62-4.72-0.92-5.54-0.92c-1.88,0-2.93,0.44-3.16,1.32c-0.23,0.88-0.35,1.7-0.35,2.46
		c0,1.58,0.26,3.87,0.79,6.86c0.58,3.46,0.91,5.71,0.97,6.77c0.06,1.05,0.09,1.79,0.09,2.2c0,1.23-0.15,2.26-0.44,3.08
		c-0.29,1.05-0.94,2.14-1.93,3.25c-1,1.11-2.08,1.96-3.25,2.55c-1.17,0.47-2.49,0.7-3.96,0.7c-1.41,0-2.72-0.23-3.96-0.7
		c-2.29-1.17-4.01-3.02-5.19-5.54c-1.52-3.92-3.15-12.89-4.88-26.89c-1.73-14-3.12-29.33-4.17-45.97
		c-0.29-4.69-0.44-8.14-0.44-10.37c0-2.23,0-3.84,0-4.83c0-3.11,0.06-6.8,0.18-11.07c0.12-5.39,0.26-9.33,0.44-11.82
		c0.18-2.49,0.53-4.22,1.05-5.19s1.35-1.92,2.46-2.86c3.28-3.05,9.17-4.72,17.67-5.01c0.88-0.06,1.73-0.09,2.55-0.09
		c11.95,0,22.24,3.13,30.85,9.4c6.62,5.1,10.78,11.9,12.48,20.39c0.35,2.11,0.53,4.22,0.53,6.33c0,11.66-5.07,23.59-15.21,35.77
		c-0.94,1.11-1.89,2.24-2.86,3.38s-1.71,2.01-2.24,2.59c-1.17,1.29-1.76,2.43-1.76,3.43c0,0.7,0.32,1.32,0.97,1.85
		c0.7,0.65,3.11,1.52,7.21,2.64c5.45,1.46,9.43,3.02,11.95,4.66C593.97,556.9,595.55,558.9,596.2,561.24z M572.38,506.66
		c0.41-1.7,0.62-3.49,0.62-5.36c0-1.88-0.23-3.52-0.7-4.92c-1-2.93-3.31-5.49-6.94-7.69c-3.63-2.2-8.03-3.68-13.18-4.44
		c-1.11-0.18-1.85-0.26-2.2-0.26s-0.62,0-0.79,0c-0.35,0-0.67,0.03-0.97,0.09c-0.35,0.06-0.79,0.21-1.32,0.44
		c-0.06,0.06-0.15,0.12-0.26,0.18c-0.65,0.23-1.14,0.59-1.49,1.05c-0.35,0.47-0.54,1.17-0.57,2.11c-0.03,0.94-0.04,1.73-0.04,2.37
		c0,1.29,0.03,2.96,0.09,5.01c0.18,3.11,0.44,7.38,0.79,12.83c0,0.82,0.03,1.67,0.09,2.55c0.35,5.33,0.63,9.57,0.83,12.7
		c0.21,3.13,0.42,5.48,0.66,7.03c0.23,1.55,0.48,2.62,0.75,3.21c0.26,0.59,0.6,0.97,1.01,1.14c0.29,0.23,0.53,0.35,0.7,0.35
		s0.32,0,0.44,0h0.44l1.32-0.53c0.7-0.29,1.89-1.23,3.56-2.81s3.43-3.37,5.27-5.36c1.85-1.99,3.35-3.78,4.53-5.36
		c1.58-2.17,3.08-4.63,4.48-7.38C570.88,510.85,571.85,508.54,572.38,506.66z M673.45,464.38c-0.59-0.23-1.2-0.41-1.85-0.53
		c-0.65-0.12-1.7-0.19-3.16-0.22c-1.46-0.03-3.69-0.04-6.68-0.04c-15.47,0.18-32.29,1.61-50.45,4.31c-3.99,0.59-6.96,1.33-8.92,2.24
		c-1.96,0.91-3.38,2.18-4.26,3.82c-0.76,1.41-1.14,2.84-1.14,4.31c0,0.88,0.26,2.12,0.79,3.74c0.53,1.61,1.99,2.94,4.39,4
		c0.88,0.41,2.29,0.62,4.22,0.62h0.88c1.93,0,4.57-0.15,7.91-0.44c1.82-0.12,3.34-0.18,4.57-0.18c0.94,0,1.9,0.07,2.9,0.22
		c1,0.15,1.76,0.69,2.29,1.63c0.18,0.23,0.31,0.57,0.4,1.01s0.15,1.17,0.18,2.2c0.03,1.03,0.04,2.52,0.04,4.48c0,1.96,0,4.56,0,7.78
		v4.92c0,20.39,1.35,41.48,4.04,63.28c1.05,8.38,2.15,14.22,3.3,17.53s2.86,5.43,5.14,6.37c1.41,0.64,2.81,0.97,4.22,0.97
		c0.7,0,1.8-0.18,3.3-0.53s2.94-1.41,4.35-3.16c1.17-1.41,1.82-2.99,1.93-4.75c0.06-0.35,0.09-0.79,0.09-1.32
		c0-1.76-0.26-4.22-0.79-7.38c-3.05-18.63-4.95-42.98-5.71-73.04c-0.12-4.1-0.21-7.38-0.26-9.84c-0.06-2.46-0.09-4.31-0.09-5.54
		s0.04-2.12,0.13-2.68c0.09-0.56,0.22-0.98,0.4-1.27c0.29-0.76,0.78-1.35,1.45-1.76c0.67-0.41,1.83-0.7,3.47-0.88
		c1.64-0.18,4.04-0.35,7.21-0.53c3.46-0.12,6.17-0.25,8.13-0.4c1.96-0.15,3.43-0.29,4.39-0.44c0.97-0.15,1.8-0.37,2.5-0.66
		c4.28-1.99,6.5-4.89,6.68-8.7v-0.35C679.43,469.48,677.44,466.55,673.45,464.38z M753.43,567.92c-0.18-3.46-1.85-5.95-5.01-7.47
		c-0.88-0.53-1.64-0.85-2.29-0.97c-0.41-0.12-0.88-0.18-1.41-0.18c-0.41,0-0.85,0.03-1.32,0.09c-1.11,0-2.2,0.19-3.25,0.57
		c-1.05,0.38-2.43,1.07-4.13,2.07c-1.7,1-4.04,2.49-7.03,4.48c-2.05,1.35-3.97,2.56-5.76,3.65c-1.79,1.08-3.06,1.77-3.82,2.07
		c-1.29,0.53-2.46,0.79-3.52,0.79c-1.41,0-2.8-0.64-4.17-1.93c-1.38-1.29-2.54-4.34-3.47-9.14c-0.23-1-0.38-1.76-0.44-2.29v-0.79
		c0-0.23,0.01-0.48,0.04-0.75c0.03-0.26,0.13-0.6,0.31-1.01c0.18-0.41,0.42-0.82,0.75-1.23c0.32-0.41,0.63-0.73,0.92-0.97
		c0.35-0.18,1.17-0.42,2.46-0.75c1.29-0.32,2.72-0.66,4.31-1.01c6.03-1.05,10.36-1.88,12.96-2.46c2.61-0.58,4.41-1.11,5.41-1.58
		c4.69-2.29,7.03-5.42,7.03-9.4c0-0.82-0.12-1.7-0.35-2.64c-0.76-2.52-2.43-4.45-5.01-5.8c-1.05-0.64-2.46-0.97-4.22-0.97
		c-0.35,0-1.23,0.07-2.64,0.22c-1.41,0.15-4.6,0.83-9.58,2.07c-3.34,0.82-5.89,1.38-7.65,1.67c-1.35,0.23-2.43,0.35-3.25,0.35
		c-0.23,0-0.62-0.03-1.14-0.09c-0.53-0.06-1-0.35-1.41-0.88c-0.35-0.35-0.6-0.7-0.75-1.05c-0.15-0.35-0.25-0.88-0.31-1.58
		c-0.06-0.7-0.12-1.76-0.18-3.16v-2.2c0-1.76,0.03-4.42,0.09-8c0.06-3.57,0.16-7.79,0.31-12.66c0.15-4.86,0.29-9.13,0.44-12.79
		c0.15-3.66,0.31-5.81,0.48-6.46c0.47-1.76,1.82-2.96,4.04-3.6c0.47-0.12,1.71-0.26,3.74-0.44s4.32-0.32,6.9-0.44
		c5.16-0.23,9.13-0.44,11.91-0.62c2.78-0.18,4.82-0.38,6.11-0.62c1.29-0.23,2.29-0.5,2.99-0.79c3.22-1.58,5.16-3.9,5.8-6.94
		c0.12-0.58,0.18-1.17,0.18-1.76c0-2.46-0.97-4.72-2.9-6.77c-1.23-1.29-2.64-2.14-4.22-2.55c-1.41-0.35-3.6-0.53-6.59-0.53h-1.32
		c-3.11,0-6.62,0.21-10.55,0.62c-3.93,0.41-8.94,1.08-15.03,2.02c-3.69,0.59-6.53,1.1-8.53,1.54c-1.99,0.44-3.5,0.94-4.53,1.49
		c-1.03,0.56-1.98,1.3-2.86,2.24c-0.94,0.88-1.67,1.99-2.2,3.34c-0.53,1.35-1,3.52-1.41,6.5c-0.41,2.99-0.88,7.33-1.41,13.01
		c-1.23,13.42-1.85,25.69-1.85,36.83c0,12.13,0.73,22.94,2.2,32.43c3.16,18.87,10.11,29.71,20.83,32.52
		c1.82,0.41,3.66,0.62,5.54,0.62c4.8,0,9.96-1.26,15.47-3.78c1.58-0.82,3.85-2.17,6.81-4.04c2.96-1.88,5.81-3.76,8.57-5.67
		c2.75-1.9,4.66-3.33,5.71-4.26c2.17-1.99,3.25-4.36,3.25-7.12C753.52,568.62,753.49,568.27,753.43,567.92z"/>
	<rect x="-447.65" y="274.96" style="display:inline;fill:none;" width="0" height="2.37"/>
</g>
<g id="EQUIPE" class="st1">
	<path class="st3" d="M350.1,559.2c0.08,0.49,0.12,0.98,0.12,1.46c0,3.83-1.51,7.12-4.52,9.89c-1.46,1.3-4.11,3.28-7.93,5.92
		c-3.83,2.65-7.79,5.27-11.9,7.87c-4.11,2.61-7.26,4.48-9.46,5.62c-7.65,3.5-14.81,5.25-21.48,5.25c-2.61,0-5.17-0.29-7.69-0.85
		c-14.89-3.91-24.54-18.96-28.93-45.17c-2.04-13.18-3.05-28.2-3.05-45.04c0-15.46,0.85-32.51,2.56-51.15
		c0.73-7.89,1.38-13.92,1.95-18.07c0.57-4.15,1.22-7.16,1.95-9.03c0.73-1.87,1.75-3.42,3.05-4.64c1.22-1.3,2.54-2.34,3.97-3.11
		c1.42-0.77,3.52-1.46,6.29-2.08c2.77-0.61,6.71-1.32,11.84-2.14c8.46-1.3,15.42-2.24,20.87-2.81c5.45-0.57,10.33-0.85,14.65-0.85
		h1.83c4.15,0,7.2,0.24,9.16,0.73c2.2,0.57,4.15,1.75,5.86,3.54c2.69,2.85,4.03,5.98,4.03,9.4c0,0.81-0.08,1.63-0.24,2.44
		c-0.9,4.23-3.58,7.45-8.06,9.64c-0.98,0.41-2.36,0.77-4.15,1.1c-1.79,0.33-4.62,0.61-8.48,0.85c-3.87,0.24-9.38,0.53-16.54,0.85
		c-3.58,0.16-6.77,0.37-9.58,0.61s-4.54,0.45-5.19,0.61c-3.09,0.9-4.96,2.56-5.62,5c-0.24,0.9-0.47,3.89-0.67,8.97
		c-0.2,5.09-0.41,11.01-0.61,17.76c-0.2,6.76-0.35,12.62-0.43,17.58c-0.08,4.96-0.12,8.67-0.12,11.11v3.05
		c0.08,1.95,0.16,3.42,0.24,4.39c0.08,0.98,0.22,1.71,0.43,2.2c0.2,0.49,0.55,0.98,1.04,1.46c0.57,0.73,1.22,1.14,1.95,1.22
		c0.73,0.08,1.26,0.12,1.59,0.12c1.14,0,2.64-0.16,4.52-0.49c2.44-0.41,5.98-1.18,10.62-2.32c6.92-1.71,11.35-2.67,13.31-2.87
		s3.17-0.31,3.66-0.31c2.44,0,4.39,0.45,5.86,1.34c3.58,1.87,5.9,4.56,6.96,8.06c0.32,1.3,0.49,2.52,0.49,3.66
		c0,5.54-3.26,9.89-9.77,13.06c-1.38,0.65-3.89,1.38-7.51,2.2c-3.62,0.81-9.62,1.95-18.01,3.42c-2.2,0.49-4.19,0.96-5.98,1.4
		c-1.79,0.45-2.93,0.79-3.42,1.04c-0.41,0.33-0.84,0.77-1.28,1.34c-0.45,0.57-0.79,1.14-1.04,1.71c-0.24,0.57-0.39,1.04-0.43,1.4
		c-0.04,0.37-0.06,0.71-0.06,1.04v1.1c0.08,0.73,0.28,1.79,0.61,3.17c1.3,6.67,2.91,10.91,4.82,12.7c1.91,1.79,3.85,2.69,5.8,2.69
		c1.46,0,3.09-0.37,4.88-1.1c1.06-0.41,2.83-1.36,5.31-2.87c2.48-1.5,5.15-3.19,8-5.07c4.15-2.77,7.4-4.84,9.77-6.23
		c2.36-1.38,4.27-2.34,5.74-2.87c1.46-0.53,2.97-0.79,4.52-0.79c0.65-0.08,1.26-0.12,1.83-0.12c0.73,0,1.38,0.08,1.95,0.24
		c0.89,0.16,1.95,0.61,3.17,1.34C347.53,550.95,349.85,554.4,350.1,559.2z M448.04,584.71c1.64,1.76,2.46,3.84,2.46,6.24v0.88
		c-0.53,5.1-3.55,7.88-9.05,8.35c-0.82,0-1.67-0.03-2.55-0.09c-0.88-0.06-1.58-0.18-2.11-0.35c-2.99-0.82-8.12-3.25-15.38-7.29
		c-2.7-1.46-4.72-2.49-6.06-3.08c-1.35-0.58-2.52-0.88-3.52-0.88h-0.53c-1.11,0.06-2.49,0.38-4.13,0.97c-1.99,0.65-3.82,1-5.49,1.05
		c-1.67,0.06-2.8,0.09-3.38,0.09c-2.05,0-3.84-0.15-5.36-0.44c-8.38-2.11-15.53-7.35-21.45-15.73c-5.92-8.38-9.93-18.9-12.04-31.55
		c-0.82-5.74-1.23-11.6-1.23-17.58c0-6.15,0.44-12.42,1.32-18.81c1.76-12.48,5.01-23.58,9.76-33.31c2.58-5.33,5.23-8.89,7.95-10.68
		c2.72-1.79,6.96-2.68,12.7-2.68h1.32c15,0,26.22,3.96,33.66,11.87c7.38,7.38,12.3,18.31,14.77,32.78c1,5.74,1.49,11.51,1.49,17.31
		c0,8.44-1.05,16.88-3.16,25.31c-1.35,5.62-3.66,11.84-6.94,18.63c-0.7,1.58-1.32,2.99-1.85,4.22s-0.79,1.96-0.79,2.2
		c0,1.23,0.76,2.37,2.29,3.43c1.52,1.05,4.25,2.34,8.17,3.87c2.64,1.05,4.61,1.96,5.93,2.72
		C446.15,582.92,447.22,583.77,448.04,584.71z M420.97,521.6c0-8.2-1.29-16.29-3.87-24.26c-2.05-6.15-4.94-10.55-8.66-13.18
		c-3.72-2.64-8.83-3.96-15.34-3.96c-2.34,0-4.13,0.31-5.36,0.92s-2.24,1.98-3.03,4.09s-1.63,5.36-2.5,9.76
		c-2.52,10.96-3.78,20.57-3.78,28.83v1.05c0,13.3,2.08,24.08,6.24,32.34c3.4,6.74,7.26,10.9,11.6,12.48
		c0.94,0.35,1.76,0.53,2.46,0.53c0.76,0,1.67-0.21,2.72-0.62c2.75-1,5.54-3.52,8.35-7.56s5.19-8.96,7.12-14.77
		C419.62,538.59,420.97,530.04,420.97,521.6z M530.22,464.91c-0.76-0.58-1.44-0.94-2.02-1.05c-0.59-0.12-1.58-0.18-2.99-0.18
		c-1.46,0-2.5,0.07-3.12,0.22c-0.62,0.15-1.33,0.48-2.15,1.01c-2.7,1.64-4.31,4.51-4.83,8.61c-0.12,0.94-0.21,3.33-0.26,7.16
		c-0.06,3.84-0.09,8.04-0.09,12.61c-0.12,54.61-5.92,81.91-17.4,81.91c-2.4,0-4.8-1.38-7.21-4.13c-2.4-2.75-4.22-6.27-5.45-10.55
		c-3.4-11.25-5.33-31.32-5.8-60.21c-0.12-5.8-0.25-10.84-0.4-15.12c-0.15-4.28-0.25-6.8-0.31-7.56c-0.41-4.22-2.2-7.03-5.36-8.44
		c-1.17-0.53-2.32-0.79-3.43-0.79c-1.11,0-2.48,0.4-4.09,1.19c-1.61,0.79-2.94,2.48-4,5.05c-0.23,0.59-0.44,1.41-0.62,2.46
		s-0.34,2.68-0.48,4.88c-0.15,2.2-0.34,5.26-0.57,9.18c-0.41,6.8-0.62,13.3-0.62,19.51c0,7.33,0.29,14.24,0.88,20.74
		c1.29,15.47,3.19,27.33,5.71,35.6c2.52,8.26,6.24,14.74,11.16,19.42c4.98,4.92,10.46,8.06,16.44,9.4c1.58,0.29,3.11,0.44,4.57,0.44
		c6.68,0,13.01-2.9,18.98-8.7c5.33-5.04,9.43-13.24,12.3-24.61c2.46-9.32,4.22-22.65,5.27-39.99c0.23-4.22,0.41-9.99,0.53-17.31
		c0.12-7.32,0.18-14.21,0.18-20.65c0-6.45-0.09-10.46-0.26-12.04C534.2,469.31,532.68,466.61,530.22,464.91z M574.87,548.76
		c-0.35-6.74-0.62-14.27-0.79-22.59c-0.12-5.51-0.29-12.01-0.53-19.51c-0.12-6.09-0.23-11.54-0.35-16.35
		c-0.18-5.33-0.34-9.9-0.48-13.71c-0.15-3.81-0.28-5.98-0.4-6.5c-0.7-1.88-1.96-3.37-3.78-4.48c-1.35-0.82-2.75-1.23-4.22-1.23
		c-0.47,0-0.97,0.06-1.49,0.18c-3.93,0.94-6.5,3.63-7.73,8.09c-0.53,2.34-0.91,7.82-1.14,16.44c-0.18,6.91-0.26,14.44-0.26,22.59
		c0,2.05,0.01,6.24,0.04,12.57c0.03,6.33,0.25,13.57,0.66,21.71c0.35,5.62,0.79,11.84,1.32,18.63c0.53,6.8,0.94,11.51,1.23,14.15
		c0.7,5.51,2.87,9.08,6.5,10.72c1,0.41,2.23,0.65,3.69,0.7h0.53c1.23,0,2.29-0.18,3.16-0.53c2.17-1,3.81-2.52,4.92-4.57
		c0.64-1.11,1-2.78,1.05-5.01v-1.67c0-2.11-0.15-4.92-0.44-8.44C575.72,562.56,575.22,555.5,574.87,548.76z M674.89,494.53
		c0.35,1.76,0.53,3.6,0.53,5.54v1.67c-0.12,2.46-0.44,4.64-0.97,6.55c-0.53,1.9-1.46,4.17-2.81,6.81
		c-2.52,5.1-6.59,10.58-12.22,16.44c-7.33,7.79-17.2,15.24-29.62,22.32c-1.76,1.05-3.3,1.99-4.61,2.81
		c-1.32,0.82-2.1,1.32-2.33,1.49c-0.82,0.65-1.35,1.39-1.58,2.24c-0.23,0.85-0.35,1.83-0.35,2.94c0,0.65,0.03,1.38,0.09,2.2
		c0.18,2.17,0.56,5.27,1.14,9.32c0.41,2.58,0.69,4.56,0.83,5.93c0.15,1.38,0.22,2.45,0.22,3.21c0,0.7-0.09,1.35-0.26,1.93
		c-0.53,2.29-1.67,4.15-3.43,5.58s-3.72,2.15-5.89,2.15c-1.46,0-2.9-0.35-4.31-1.05c-2.05-0.88-3.6-2.5-4.66-4.88
		s-1.96-6.31-2.72-11.82c-1.29-9.02-2.34-19.07-3.16-30.15c-0.82-11.07-1.23-21.45-1.23-31.11c0-2.75,0.12-6.78,0.35-12.08
		c0.23-5.3,0.51-10.33,0.83-15.07c0.32-4.75,0.63-7.97,0.92-9.67c0.94-5.57,3.63-9.17,8.09-10.81c1.23-0.35,3-0.57,5.32-0.66
		c2.31-0.09,4.17-0.13,5.58-0.13c2.11,0,4.34,0.06,6.68,0.18c3.87,0.18,7.21,0.47,10.02,0.88c14.47,1.99,24.96,6.47,31.46,13.45
		c1.58,1.52,2.77,2.8,3.56,3.82c0.79,1.03,1.51,2.24,2.15,3.65C673.75,490.66,674.54,492.77,674.89,494.53z M654.94,500.77
		c0-2.29-0.88-4.25-2.64-5.89c-2.64-3.28-9.79-6.06-21.45-8.35c-3.57-0.76-5.82-1.16-6.72-1.19c-0.91-0.03-1.42-0.04-1.54-0.04
		c-1.46,0-2.49,0.26-3.08,0.79c-0.53,0.35-0.92,0.82-1.19,1.41c-0.26,0.59-0.45,1.61-0.57,3.08c-0.12,1.46-0.18,3.69-0.18,6.68
		c0,3.05,0.06,7.18,0.18,12.39c0.06,5.57,0.15,10.36,0.26,14.37c0.12,4.01,0.23,6.34,0.35,6.99c0.29,2.29,1.26,3.43,2.9,3.43
		c1.23,0,2.87-0.64,4.92-1.93c4.39-2.69,8.8-5.98,13.23-9.84c4.42-3.87,7.95-7.5,10.59-10.9
		C653.3,507.54,654.94,503.88,654.94,500.77z M755.04,567.92c-0.18-3.46-1.85-5.95-5.01-7.47c-0.88-0.53-1.64-0.85-2.29-0.97
		c-0.41-0.12-0.88-0.18-1.41-0.18c-0.41,0-0.85,0.03-1.32,0.09c-1.11,0-2.2,0.19-3.25,0.57c-1.05,0.38-2.43,1.07-4.13,2.07
		c-1.7,1-4.04,2.49-7.03,4.48c-2.05,1.35-3.97,2.56-5.76,3.65c-1.79,1.08-3.06,1.77-3.82,2.07c-1.29,0.53-2.46,0.79-3.52,0.79
		c-1.41,0-2.8-0.64-4.17-1.93c-1.38-1.29-2.54-4.34-3.47-9.14c-0.23-1-0.38-1.76-0.44-2.29v-0.79c0-0.23,0.01-0.48,0.04-0.75
		c0.03-0.26,0.13-0.6,0.31-1.01c0.18-0.41,0.42-0.82,0.75-1.23c0.32-0.41,0.63-0.73,0.92-0.97c0.35-0.18,1.17-0.42,2.46-0.75
		c1.29-0.32,2.72-0.66,4.31-1.01c6.03-1.05,10.36-1.88,12.96-2.46c2.61-0.58,4.41-1.11,5.41-1.58c4.69-2.29,7.03-5.42,7.03-9.4
		c0-0.82-0.12-1.7-0.35-2.64c-0.76-2.52-2.43-4.45-5.01-5.8c-1.05-0.64-2.46-0.97-4.22-0.97c-0.35,0-1.23,0.07-2.64,0.22
		c-1.41,0.15-4.6,0.83-9.58,2.07c-3.34,0.82-5.89,1.38-7.65,1.67c-1.35,0.23-2.43,0.35-3.25,0.35c-0.23,0-0.62-0.03-1.14-0.09
		c-0.53-0.06-1-0.35-1.41-0.88c-0.35-0.35-0.6-0.7-0.75-1.05c-0.15-0.35-0.25-0.88-0.31-1.58c-0.06-0.7-0.12-1.76-0.18-3.16v-2.2
		c0-1.76,0.03-4.42,0.09-8c0.06-3.57,0.16-7.79,0.31-12.66c0.15-4.86,0.29-9.13,0.44-12.79c0.15-3.66,0.31-5.81,0.48-6.46
		c0.47-1.76,1.82-2.96,4.04-3.6c0.47-0.12,1.71-0.26,3.74-0.44s4.32-0.32,6.9-0.44c5.16-0.23,9.13-0.44,11.91-0.62
		c2.78-0.18,4.82-0.38,6.11-0.62c1.29-0.23,2.29-0.5,2.99-0.79c3.22-1.58,5.16-3.9,5.8-6.94c0.12-0.58,0.18-1.17,0.18-1.76
		c0-2.46-0.97-4.72-2.9-6.77c-1.23-1.29-2.64-2.14-4.22-2.55c-1.41-0.35-3.6-0.53-6.59-0.53h-1.32c-3.11,0-6.62,0.21-10.55,0.62
		c-3.93,0.41-8.94,1.08-15.03,2.02c-3.69,0.59-6.53,1.1-8.53,1.54c-1.99,0.44-3.5,0.94-4.53,1.49c-1.03,0.56-1.98,1.3-2.86,2.24
		c-0.94,0.88-1.67,1.99-2.2,3.34c-0.53,1.35-1,3.52-1.41,6.5c-0.41,2.99-0.88,7.33-1.41,13.01c-1.23,13.42-1.85,25.69-1.85,36.83
		c0,12.13,0.73,22.94,2.2,32.43c3.16,18.87,10.11,29.71,20.83,32.52c1.82,0.41,3.66,0.62,5.54,0.62c4.8,0,9.96-1.26,15.47-3.78
		c1.58-0.82,3.85-2.17,6.81-4.04c2.96-1.88,5.81-3.76,8.57-5.67c2.75-1.9,4.66-3.33,5.71-4.26c2.17-1.99,3.25-4.36,3.25-7.12
		C755.13,568.62,755.1,568.27,755.04,567.92z"/>
</g>
</svg>
