<svg id="Layer_1" data-name="Layer 1" xmlns="http://www.w3.org/2000/svg" viewBox="0 0 997.97 1214.15"><defs><style>.cls-1{fill:#0903f9;}.cls-2{fill:#41553d;}</style></defs><path class="cls-1" d="M78.31,101.34a9.7,9.7,0,0,1,2.46,6.24,10.91,10.91,0,0,1-1.4,5.1,8.65,8.65,0,0,1-2.55,2.9,32.32,32.32,0,0,1-5.36,2.9l-5,2.33c-2.08,1-4.12,1.92-6.11,2.85-4.16,2-7.29,3.42-9.4,4.26a34.83,34.83,0,0,1-6.16,1.89,34.79,34.79,0,0,1-8.17,1.06,27.9,27.9,0,0,1-3.16-.18q-15.55-2.19-21.62-20Q8.34,100.9,8.35,81q0-3.44.09-7.12.17-8.44.66-17.49t1.1-14.42q.35-3.42,1.23-9.93T13.18,19.6q.88-5.9,1.23-7.47c1.18-4.86,3.75-7.88,7.74-9a7.79,7.79,0,0,1,5.45.52,8.14,8.14,0,0,1,4,3.87A6.68,6.68,0,0,1,32.26,9a7.4,7.4,0,0,1,.17,1.67q0,1-.09,2.64c-.11,2.29-.44,7-1,14.06s-1.09,14.74-1.67,22.94q-.8,8.88-.79,27.51,0,8.53,0,12.57t.26,6c.15,1.29.34,2.49.58,3.6q1.66,7,4.48,9.23a4.6,4.6,0,0,0,2.55,1l1.4,0a12.93,12.93,0,0,0,4.13-.7c.82-.29,2.19-.85,4.09-1.67s3.88-1.73,5.93-2.72q8.35-4,12-5.36a19.06,19.06,0,0,1,5.8-1.5,7.91,7.91,0,0,1,1.14-.09A8.53,8.53,0,0,1,78.31,101.34ZM124.8,3.87q-4.83,0-9.31,4-2.37,1.85-7.52,6.55t-9.8,9.14c-3.1,3-5,4.79-5.62,5.49a21.43,21.43,0,0,0-1.89,3.61,9.24,9.24,0,0,0-.84,3.42,7.8,7.8,0,0,0,1.63,4.49,9.24,9.24,0,0,0,3.91,3.25,7.93,7.93,0,0,0,2.81.44q.27,0,1.41-.09a8.05,8.05,0,0,0,2.55-.7,50.54,50.54,0,0,0,4.61-3.3q3.74-2.85,8.57-6.68t8.92-7.16q4.09-3.35,5.58-4.75Q134,17.4,134,13.1a8.88,8.88,0,0,0-2.55-6.64A9.42,9.42,0,0,0,124.8,3.87Zm99.85,112.94a10.4,10.4,0,0,1,.26,2,3.18,3.18,0,0,1-.09.79q-1.4,8.09-9.22,8.44a10.29,10.29,0,0,1-7.3-2.9,14.34,14.34,0,0,1-2.72-3.3,27,27,0,0,1-2.29-5.23A14.78,14.78,0,0,0,201,112.1a4.42,4.42,0,0,0-3-1.53,8.43,8.43,0,0,0-1.49-.09c-1.12,0-2.67.06-4.66.17-3.28.18-6.79.4-10.51.66s-6.51.52-8.39.75c-2.64.29-4.44,1-5.4,2s-1.57,3-1.81,6a15.14,15.14,0,0,1-1.14,5.14,9,9,0,0,1-2.64,3.3,5.65,5.65,0,0,1-1.84,1.05,11.44,11.44,0,0,1-2.55.35h-1a11.32,11.32,0,0,1-1.58-.09,5.65,5.65,0,0,1-1.76-.61,11.29,11.29,0,0,1-2.76-2.29,11.53,11.53,0,0,1-2.07-3.07q-.88-1.94-.88-7a156.51,156.51,0,0,1,1.58-18.8q1.59-11.16,5.14-26t8.05-28.69Q173,10.46,184.75,5a8.67,8.67,0,0,1,2.59-1,25.71,25.71,0,0,1,3.47-.17,15.43,15.43,0,0,1,5.19.74,13.49,13.49,0,0,1,4.22,2.77,19.23,19.23,0,0,1,4.7,6.42,50.38,50.38,0,0,1,3.21,11.51q1.4,7.65,3.07,21.45,5.9,48.08,12.13,65.92A38.09,38.09,0,0,1,224.65,116.81Zm-28.57-31a7.15,7.15,0,0,0-.08-1c-.06-.76-.19-1.83-.4-3.2s-.48-3.27-.83-5.67q-.71-4.31-1.59-10.86T191.6,52.91q-1.66-12.66-2.28-14.33a1.81,1.81,0,0,0-1.59-1.14h-.17a2.93,2.93,0,0,0-2,1.5q-1.59,2.63-5.06,13.93t-6.81,24.47q-2.1,8.35-2.11,11.61a3.89,3.89,0,0,0,.27,1.67,3,3,0,0,0,.7.65,7.16,7.16,0,0,0,1.23.75,4.75,4.75,0,0,0,1.14.44l2.55-.35q2.55-.27,6.15-.7l6.51-1a25,25,0,0,0,3.51-.7A5.25,5.25,0,0,0,196,86.57,4.7,4.7,0,0,0,196.08,85.78Zm114.68,15.64q0-5.91.18-12.62.44-11.8.43-19.44,0-3.81-.21-9.38a33.67,33.67,0,0,0-1.57-9.5q-2.54-7.51-8-9.73a10.47,10.47,0,0,0-3.94-.8,12.68,12.68,0,0,0-7.26,2.59Q283.63,48,276.24,63.89A31.59,31.59,0,0,1,274,68.38c-.45.61-.86.92-1.23.92a.67.67,0,0,1-.3-.06.92.92,0,0,1-.59-.31,2.69,2.69,0,0,1-.43-.86c-.14-.41-.32-1-.52-1.81s-.45-1.9-.74-3.3A55.7,55.7,0,0,0,267,51.83a18.14,18.14,0,0,0-4.46-6.4,14.9,14.9,0,0,0-2.52-2,9.69,9.69,0,0,0-2.65-1.08,11.22,11.22,0,0,0-2.64-.36h-.83a8.1,8.1,0,0,0-2.31.55q-5.35,1.73-9.51,8.67A57.18,57.18,0,0,0,235.7,69a148.94,148.94,0,0,0-2.59,29.17q0,7.26.34,11.5a96.52,96.52,0,0,0,1.39,9.84,28.68,28.68,0,0,0,2,6.83,7.42,7.42,0,0,0,3,3.33,7.64,7.64,0,0,0,3.57,1,6,6,0,0,0,4.36-2,5.48,5.48,0,0,0,1.42-3.88,9.36,9.36,0,0,0-.25-2.09c-.41-1.84-.7-3.27-.86-4.27s-.31-2.35-.43-4-.27-4.43-.31-8.12v-5.48c0-1.85,0-4.13,0-6.86s.12-4.95.28-6.68c.08-1.06.21-2.36.37-3.9s.33-3,.49-4.28q1.35-10.27,3.14-14.64c.78-1.89,1.56-2.83,2.34-2.83a1.81,1.81,0,0,1,1.29.86,6.23,6.23,0,0,1,.8,2.09q.44,1.66,1.11,5.79t1.78,11.84q1.11,7.73,2.83,20.27c.29,2.26.55,4,.8,5.17a9.55,9.55,0,0,0,.92,2.74,10.27,10.27,0,0,0,1.42,1.87,7.62,7.62,0,0,0,1.54,1.26,4.93,4.93,0,0,0,1.53.59,8.19,8.19,0,0,0,1.67.18,8.1,8.1,0,0,0,7.32-5,21.2,21.2,0,0,0,.77-2.19c.3-1,.58-2,.83-3.1q5.28-23.5,12-37c1-1.93,1.77-3.39,2.34-4.4a8.91,8.91,0,0,1,1.42-2A1.85,1.85,0,0,1,295.5,60a1.21,1.21,0,0,1,.77.22,2.1,2.1,0,0,1,.52.89,5.62,5.62,0,0,1,.28,1.41q.09,1,.09,3.45t-.06,7.07q-.25,14.78-.37,22.46c0,3.41-.06,6.21-.06,8.43,0,1.15,0,2.54,0,4.18s.07,3.43.15,5.36a88.63,88.63,0,0,0,1,11.13,9.54,9.54,0,0,0,2,4.68,8.38,8.38,0,0,0,1,.92A5.61,5.61,0,0,0,302,131a6.48,6.48,0,0,0,2.83.67,9.86,9.86,0,0,0,2.64-.52,5.79,5.79,0,0,0,3.08-2.67,8.36,8.36,0,0,0,1.11-3,12.84,12.84,0,0,0,.06-1.35,28.83,28.83,0,0,0-.19-3.08Q310.76,112.67,310.76,101.42Zm63.67-59.31a3.57,3.57,0,0,0-1.41-.74,12.47,12.47,0,0,0-2.09-.12,11,11,0,0,0-2.19.15,5.11,5.11,0,0,0-1.51.71q-2.82,1.72-3.38,6c-.08.65-.14,2.33-.18,5s-.07,5.63-.07,8.83q-.12,57.34-12.18,57.34-2.52,0-5-2.89a19.12,19.12,0,0,1-3.82-7.38Q339,97.23,338.5,66.9q-.12-6.09-.27-10.58c-.11-3-.18-4.76-.22-5.29q-.43-4.43-3.75-5.91a5.8,5.8,0,0,0-2.4-.55,6.8,6.8,0,0,0-2.86.83,6.36,6.36,0,0,0-2.8,3.54,8,8,0,0,0-.43,1.72c-.13.74-.24,1.88-.34,3.41s-.24,3.69-.4,6.43q-.43,7.14-.43,13.66,0,7.7.61,14.52,1.35,16.25,4,24.92T337,127.2a23.77,23.77,0,0,0,11.5,6.58,18,18,0,0,0,3.2.31q7,0,13.29-6.09,5.6-5.3,8.61-17.23,2.58-9.78,3.69-28,.26-4.44.37-12.12t.13-14.46c0-4.51-.07-7.32-.19-8.43A8,8,0,0,0,374.43,42.11ZM434.48,97a27.88,27.88,0,0,0-7.32-7.88,108,108,0,0,0-14.46-8.67q-4.62-2.46-7-3.82a25.41,25.41,0,0,1-3.45-2.18,4.72,4.72,0,0,1-1.38-1.63,3.22,3.22,0,0,1-.5-1.72q0-3.27,6.09-8.19,7.57-6.21,13.23-7.07l1.66-.28a10.49,10.49,0,0,0,1.29-.28,5.89,5.89,0,0,0,4-4,5.28,5.28,0,0,0,.25-1.6,6.33,6.33,0,0,0-1.48-3.94,8.49,8.49,0,0,0-6.7-2.77,20.37,20.37,0,0,0-6.16,1.11,54.92,54.92,0,0,0-6.33,2.77c-2.46,1.23-4.58,2.4-6.34,3.5a42.86,42.86,0,0,0-7.47,6.49,29.57,29.57,0,0,0-5.08,7.29,19.27,19.27,0,0,0-1.72,7.63q0,6.84,6.21,12.49a34.08,34.08,0,0,0,2.92,2.25q1.57,1.08,4.83,2.86t9.66,5.17a57.15,57.15,0,0,1,10.25,6.58q3.22,2.83,3.6,5.47a4.37,4.37,0,0,1,.06.68,3.53,3.53,0,0,1-.1.77,7.75,7.75,0,0,1-.52,1.45q-1.61,3-6.09,5.5a29,29,0,0,1-9.66,3.42q-6.27.91-7.2,5.35a7.7,7.7,0,0,0-.12,1.35,7.44,7.44,0,0,0,1,3.54,7,7,0,0,0,3.35,3,11,11,0,0,0,4,.68q5.42,0,13.47-3.87,13-6.71,15.81-16.8a12,12,0,0,0,.31-2.22c0-.53.06-1.12.06-1.78v-1.11a18.13,18.13,0,0,0-.74-5A19.26,19.26,0,0,0,434.48,97Zm55.62,12a5.18,5.18,0,0,0-1.6-.67,3.71,3.71,0,0,0-1-.13,7.7,7.7,0,0,0-.92.07,6.6,6.6,0,0,0-2.28.4,17.68,17.68,0,0,0-2.89,1.44q-1.79,1.05-4.92,3.14-2.16,1.41-4,2.55a20.24,20.24,0,0,1-2.68,1.45,6.52,6.52,0,0,1-2.46.55,4.31,4.31,0,0,1-2.92-1.35c-1-.9-1.77-3-2.43-6.4a15.69,15.69,0,0,1-.31-1.6v-.55a5,5,0,0,1,0-.53,2.71,2.71,0,0,1,.22-.7,3.72,3.72,0,0,1,.52-.86,3.9,3.9,0,0,1,.65-.68,10.46,10.46,0,0,1,1.72-.52c.9-.23,1.91-.47,3-.71,4.23-.74,7.25-1.31,9.08-1.72a20.51,20.51,0,0,0,3.78-1.11q4.92-2.4,4.92-6.59a7.82,7.82,0,0,0-.24-1.84,6.69,6.69,0,0,0-3.51-4.06,5.63,5.63,0,0,0-3-.68c-.25,0-.86.05-1.85.16a66.11,66.11,0,0,0-6.7,1.44q-3.51.87-5.36,1.17a14.45,14.45,0,0,1-2.27.25,6.41,6.41,0,0,1-.8-.07,1.45,1.45,0,0,1-1-.61,2.39,2.39,0,0,1-.52-.74,3.88,3.88,0,0,1-.21-1.11c-.05-.49-.09-1.23-.13-2.21V84.62c0-1.23,0-3.1.06-5.6s.12-5.45.22-8.86.2-6.38.31-8.95a32,32,0,0,1,.34-4.52,3.65,3.65,0,0,1,2.83-2.52,23.45,23.45,0,0,1,2.61-.31c1.42-.12,3-.23,4.83-.31,3.61-.16,6.39-.31,8.34-.43a41.28,41.28,0,0,0,4.27-.43,10.72,10.72,0,0,0,2.09-.55A6.91,6.91,0,0,0,490,47.28a5.71,5.71,0,0,0,.13-1.23,6.77,6.77,0,0,0-2-4.74,6.24,6.24,0,0,0-3-1.79,21.27,21.27,0,0,0-4.61-.36h-.92a71,71,0,0,0-7.39.43c-2.74.28-6.25.76-10.52,1.41q-3.87.61-6,1.08a12.55,12.55,0,0,0-3.17,1,8,8,0,0,0-2,1.57A6.33,6.33,0,0,0,449.06,47a21.25,21.25,0,0,0-1,4.55q-.43,3.14-1,9.11-1.29,14.09-1.29,25.78a149.47,149.47,0,0,0,1.54,22.7q3.32,19.81,14.58,22.76a17.32,17.32,0,0,0,3.87.43,26.16,26.16,0,0,0,10.83-2.64q1.67-.87,4.77-2.83c2.07-1.31,4.07-2.64,6-4a48,48,0,0,0,4-3,6.55,6.55,0,0,0,2.27-5,4.71,4.71,0,0,0-.06-.74A5.77,5.77,0,0,0,490.1,109Zm75-26.89a5,5,0,0,0-1.58-.4c-.7-.08-1.8-.16-3.29-.22s-3.64-.08-6.42-.08H542.67q-13.89,0-21.18.26A53.49,53.49,0,0,0,511,82.75a9.86,9.86,0,0,0-4.74,2.5,8.31,8.31,0,0,0-2.73,6.16c0,.06,0,.7,0,1.93s1,2.67,2.95,4.31a7.12,7.12,0,0,0,2.55,1.53,18.82,18.82,0,0,0,4.3.75c1.94.18,4.81.32,8.62.44l10.15.4c3.6.14,6.63.28,9.1.39q7.38.36,12.39.35c1.29,0,3.1,0,5.45-.08a19.64,19.64,0,0,0,6.11-1,9.58,9.58,0,0,0,4.26-2.94,9.45,9.45,0,0,0,2.37-6.06,17.68,17.68,0,0,0-.83-4.13Q570.18,84.37,565.08,82.09Zm102.66-55a34.19,34.19,0,0,1,.62,7.12,42.88,42.88,0,0,1-.53,7.29,49.11,49.11,0,0,1-1.54,5.45,56.78,56.78,0,0,1-2.5,5.8Q660.36,59.86,652.18,69q-1.75,2-3,3.7a14.48,14.48,0,0,0-1.45,2.1,2.57,2.57,0,0,0-.17,1,3.24,3.24,0,0,0,.52,1.67A21,21,0,0,0,651.57,81c1,1,1.95,2,2.86,2.94a23.58,23.58,0,0,1,2,2.33,20.41,20.41,0,0,1,2.82,10.63,30,30,0,0,1-.27,4,35.84,35.84,0,0,1-7.12,16.17q-10.2,12.92-31.46,16.17a43.09,43.09,0,0,1-5.1.44H612.9q-2.64,0-6-.26a21.56,21.56,0,0,1-5.1-.88,8.93,8.93,0,0,1-3.16-1.93,10,10,0,0,1-2.42-2.91,17.13,17.13,0,0,1-1.49-5.27q-.57-3.6-1.1-10.77t-1.23-19.37Q591.37,73,590.84,62t-.71-17.76Q590,37.44,590,29.44t.13-12.13a48,48,0,0,1,.48-6.1,12.65,12.65,0,0,1,1.06-3.39,7.88,7.88,0,0,1,4.26-4.13q3-1.32,10.33-2.28A132.71,132.71,0,0,1,624.15,0a61.58,61.58,0,0,1,8.43.53,63.47,63.47,0,0,1,12.79,3.78,49.36,49.36,0,0,1,10.94,6A30.48,30.48,0,0,1,667.74,27.07ZM638,99.32q0-2.73-3.17-3.87a18,18,0,0,0-5.27-.53,56.53,56.53,0,0,0-7.43.49,22.44,22.44,0,0,0-5.4,1.18A4.61,4.61,0,0,0,614.13,99a15.16,15.16,0,0,0-.62,5.14,21,21,0,0,0,.53,5.58,3.79,3.79,0,0,0,1.93,2.42,4.21,4.21,0,0,0,2.46.79,19.17,19.17,0,0,0,4.31-.79,27.43,27.43,0,0,0,10.9-5.41Q637.94,103.1,638,99.32Zm10-65.57a9.31,9.31,0,0,0-.09-1.32,6.34,6.34,0,0,0-.79-2.2,8.34,8.34,0,0,0-1.1-1.84,8.6,8.6,0,0,0-1.54-1.58A25.75,25.75,0,0,0,639,23.6a46.47,46.47,0,0,0-7.25-2.68,24.78,24.78,0,0,0-3.16-.75,33.31,33.31,0,0,0-3.34-.31c-1.29-.05-3.08-.08-5.36-.08s-4.19,0-5.36,0a12.64,12.64,0,0,0-2.46.22,2.5,2.5,0,0,0-1.15.61,3.92,3.92,0,0,0-1.49,1.76,9.77,9.77,0,0,0-.44,3.43q0,2.28.35,6.77.27,3.51.57,9.36t.66,11.38c.18,3.57.35,6.74.53,9.49s.29,4.46.35,5.1c.29,3,1.38,4.48,3.25,4.48a2.93,2.93,0,0,0,.88-.22q.61-.21,1.41-.57,5.88-2.8,13.71-9.93A80,80,0,0,0,643,48a37.76,37.76,0,0,0,3.74-6.59,16.59,16.59,0,0,0,1.1-5.63C647.93,35,648,34.34,648,33.75Zm80.83,87a7.11,7.11,0,0,1,.18,1.41,2.26,2.26,0,0,1-.06.55q-1,5.67-6.46,5.91a7.22,7.22,0,0,1-5.11-2,10,10,0,0,1-1.9-2.31,18.69,18.69,0,0,1-1.6-3.66,10.72,10.72,0,0,0-1.63-3.17,3.12,3.12,0,0,0-2.13-1.07,6.13,6.13,0,0,0-1-.06c-.78,0-1.87,0-3.26.12-2.3.12-4.75.28-7.35.46s-4.57.36-5.88.52a6,6,0,0,0-3.78,1.42c-.68.74-1.1,2.13-1.26,4.18a10.93,10.93,0,0,1-.8,3.6,6.46,6.46,0,0,1-1.85,2.31,3.93,3.93,0,0,1-1.29.74,8.3,8.3,0,0,1-1.79.24h-.67a8.39,8.39,0,0,1-1.11-.06,3.82,3.82,0,0,1-1.23-.43,7.91,7.91,0,0,1-1.94-1.6,8,8,0,0,1-1.44-2.15,13.14,13.14,0,0,1-.62-4.86,108.8,108.8,0,0,1,1.11-13.17q1.11-7.81,3.6-18.18t5.63-20.09q7.5-23.07,15.75-26.88a6,6,0,0,1,1.81-.68,17.43,17.43,0,0,1,2.43-.12,10.57,10.57,0,0,1,3.63.52,9.28,9.28,0,0,1,3,1.94,13.54,13.54,0,0,1,3.3,4.49,35.36,35.36,0,0,1,2.24,8.06q1,5.36,2.16,15,4.11,33.66,8.49,46.14A25.26,25.26,0,0,1,728.8,120.74ZM708.8,99a4.27,4.27,0,0,0-.06-.68c0-.53-.13-1.28-.28-2.24s-.33-2.29-.58-4c-.33-2-.7-4.55-1.11-7.6s-.78-5.9-1.1-8.52a93.68,93.68,0,0,0-1.6-10,1.28,1.28,0,0,0-1.11-.8h-.12a2,2,0,0,0-1.42,1q-1.11,1.84-3.54,9.75t-4.77,17.13a40,40,0,0,0-1.47,8.12,2.79,2.79,0,0,0,.18,1.17,2.23,2.23,0,0,0,.49.46,5.89,5.89,0,0,0,.87.53,3.26,3.26,0,0,0,.8.3l1.78-.24c1.19-.13,2.62-.29,4.31-.5s3.24-.47,4.55-.67a18.61,18.61,0,0,0,2.46-.49,2.64,2.64,0,0,0,1.42-1.54,2.79,2.79,0,0,0,.24-.68A2.88,2.88,0,0,0,708.8,99Zm75.37,10.52a8,8,0,0,1,.25,1.91,6.43,6.43,0,0,1-4,6,5.53,5.53,0,0,1-2.34.43,21.54,21.54,0,0,1-5.91-1.1c-1.84-.58-4-1.15-6.33-1.73s-4.58-1.07-6.59-1.5a25.46,25.46,0,0,0-3.87-.65c-1.32,0-2.06.31-2.22.92a6.91,6.91,0,0,0-.24,1.73,29.7,29.7,0,0,0,.55,4.79c.41,2.42.63,4,.68,4.74s.06,1.25.06,1.54a6.56,6.56,0,0,1-.31,2.15,6,6,0,0,1-1.35,2.28,7.69,7.69,0,0,1-2.28,1.78,7.35,7.35,0,0,1-2.77.5,7.69,7.69,0,0,1-2.77-.5,8,8,0,0,1-3.63-3.87q-1.59-4.12-3.41-18.83t-2.92-32.18q-.32-4.92-.31-7.25V67.27c0-2.17,0-4.76.12-7.75.08-3.77.19-6.53.31-8.28a9.71,9.71,0,0,1,.74-3.63,7.16,7.16,0,0,1,1.72-2q3.45-3.21,12.37-3.51c.61,0,1.21-.06,1.78-.06q12.56,0,21.59,6.58a23.11,23.11,0,0,1,8.74,14.27,26.58,26.58,0,0,1,.37,4.43q0,12.26-10.64,25l-2,2.37c-.68.8-1.2,1.41-1.57,1.82a3.83,3.83,0,0,0-1.23,2.4,1.63,1.63,0,0,0,.67,1.29q.75.68,5.05,1.84a31.3,31.3,0,0,1,8.37,3.26A7.38,7.38,0,0,1,784.17,109.54ZM767.5,71.33a16.32,16.32,0,0,0,.43-3.75,10.91,10.91,0,0,0-.5-3.45,10.42,10.42,0,0,0-4.86-5.38,24.71,24.71,0,0,0-9.22-3.11,13.19,13.19,0,0,0-1.54-.18h-.56a3.48,3.48,0,0,0-.67.06,3.72,3.72,0,0,0-.93.31.7.7,0,0,1-.18.12,2.28,2.28,0,0,0-1.05.74,2.64,2.64,0,0,0-.4,1.48c0,.65,0,1.21,0,1.66,0,.9,0,2.07.06,3.5.13,2.18.31,5.17.56,9,0,.57,0,1.17.06,1.78.25,3.73.44,6.7.58,8.89s.3,3.84.47,4.92a9.34,9.34,0,0,0,.52,2.25,1.46,1.46,0,0,0,.71.8.9.9,0,0,0,.49.24h.61l.93-.37a11,11,0,0,0,2.49-2q1.75-1.66,3.69-3.76a44.86,44.86,0,0,0,3.17-3.75,38.68,38.68,0,0,0,3.14-5.17A27.91,27.91,0,0,0,767.5,71.33Zm46.7,45.48q-3.08-5.53-7.82-6.24a13.33,13.33,0,0,0-1.49-.09,6.94,6.94,0,0,0-5.89,3,6.21,6.21,0,0,0-1.15,3.78,17.41,17.41,0,0,0,1.94,7.12,14.74,14.74,0,0,1,1.84,6.67,9.46,9.46,0,0,1-.17,1.76,16.46,16.46,0,0,1-1.15,3.91,17.77,17.77,0,0,1-2.37,3.83,8.62,8.62,0,0,0-1.84,4.83,6.91,6.91,0,0,0,1.31,3.47q1.32,2.07,5.54,2.24h.35q4.05,0,7.91-4.13a26,26,0,0,0,6.07-13.44,22.21,22.21,0,0,0,.26-3.34A30.73,30.73,0,0,0,814.2,116.81Z" transform="translate(-3.14 0)"/><path class="cls-2" d="M10.64,339.38q-7.5-8-7.5-20.18v-.37A48.93,48.93,0,0,1,4,309.57,72.57,72.57,0,0,1,7,299q7.14-20.43,19-32.73,9.3-9.54,16.61-9.54a11,11,0,0,1,3.27.5q3.31,1.17,4.15,3.13a8.75,8.75,0,0,1,.83,3.08,5.91,5.91,0,0,1-1.11,3.32q-1.29,2-5,2.71a12.76,12.76,0,0,0-3.39,1.17,13.49,13.49,0,0,0-3,2.34q-7.2,7.32-13.47,19.81-7.7,15.81-7.69,25.78,0,6.95,3.75,11a7.42,7.42,0,0,0,5.66,2.77,4.62,4.62,0,0,0,.74-.06,10,10,0,0,0,3.69-.93,35.88,35.88,0,0,0,5-2.89A31.1,31.1,0,0,1,40.39,326a7.58,7.58,0,0,1,3-.59,6.27,6.27,0,0,1,5.17,2.28,6.51,6.51,0,0,1,1.6,4.18,8,8,0,0,1-1.41,4.25,25.78,25.78,0,0,1-5.51,4.55,46.39,46.39,0,0,1-7.66,4.25,24.3,24.3,0,0,1-8.92,1.84,22.92,22.92,0,0,1-2.34-.12A21.83,21.83,0,0,1,10.64,339.38Zm55.74-79.52a7.89,7.89,0,0,0,2.81.44c.17,0,.64,0,1.4-.09a8.05,8.05,0,0,0,2.55-.7,48.6,48.6,0,0,0,4.62-3.3q3.73-2.85,8.57-6.68t8.92-7.16q4.08-3.35,5.58-4.75,4.22-4.22,4.22-8.52a8.88,8.88,0,0,0-2.55-6.64,9.44,9.44,0,0,0-6.68-2.59q-4.83,0-9.32,4-2.37,1.84-7.51,6.55t-9.8,9.14c-3.11,3-5,4.79-5.63,5.49a21.43,21.43,0,0,0-1.89,3.61,9.39,9.39,0,0,0-.83,3.42,7.78,7.78,0,0,0,1.62,4.49A9.26,9.26,0,0,0,66.38,259.86ZM136,347.93a17.48,17.48,0,0,0,3.88.43,26.23,26.23,0,0,0,10.83-2.64q1.67-.87,4.77-2.83c2.07-1.31,4.07-2.64,6-4a47.38,47.38,0,0,0,4-3,6.56,6.56,0,0,0,2.28-5,4.71,4.71,0,0,0-.06-.74,5.77,5.77,0,0,0-3.51-5.23,5.08,5.08,0,0,0-1.6-.67,3.58,3.58,0,0,0-1-.13,7.55,7.55,0,0,0-.92.07,6.6,6.6,0,0,0-2.28.4,17.68,17.68,0,0,0-2.89,1.44q-1.78,1.05-4.92,3.14-2.16,1.41-4,2.55a21.6,21.6,0,0,1-2.68,1.45,6.52,6.52,0,0,1-2.46.55,4.29,4.29,0,0,1-2.92-1.35c-1-.9-1.78-3-2.43-6.4a13.31,13.31,0,0,1-.31-1.6v-.55a5,5,0,0,1,0-.53,2.62,2.62,0,0,1,.21-.7,3.78,3.78,0,0,1,.53-.86,3.88,3.88,0,0,1,.64-.68,10.7,10.7,0,0,1,1.73-.52c.9-.23,1.9-.47,3-.71q6.33-1.11,9.08-1.72a20.77,20.77,0,0,0,3.78-1.11q4.92-2.4,4.92-6.59a7.82,7.82,0,0,0-.24-1.84,6.72,6.72,0,0,0-3.51-4.06,5.63,5.63,0,0,0-2.95-.68c-.25,0-.87.05-1.85.16a66.67,66.67,0,0,0-6.71,1.44c-2.33.58-4.12,1-5.35,1.17a14.44,14.44,0,0,1-2.28.25,6.56,6.56,0,0,1-.8-.07,1.45,1.45,0,0,1-1-.61,2.23,2.23,0,0,1-.52-.74,3.51,3.51,0,0,1-.22-1.11c0-.49-.08-1.23-.12-2.21v-1.54c0-1.23,0-3.1.06-5.6s.11-5.45.22-8.86.2-6.38.3-9a35.82,35.82,0,0,1,.34-4.52,3.66,3.66,0,0,1,2.83-2.52,23.77,23.77,0,0,1,2.62-.31c1.41-.12,3-.23,4.83-.31,3.61-.16,6.38-.31,8.33-.43a41.23,41.23,0,0,0,4.28-.43,10.72,10.72,0,0,0,2.09-.55,6.91,6.91,0,0,0,4.06-4.86,6.41,6.41,0,0,0,.12-1.23,6.73,6.73,0,0,0-2-4.74,6.21,6.21,0,0,0-2.95-1.79,21.27,21.27,0,0,0-4.61-.36h-.93a71,71,0,0,0-7.38.43c-2.75.28-6.25.76-10.52,1.41q-3.87.62-6,1.08a12.83,12.83,0,0,0-3.17,1,8.33,8.33,0,0,0-2,1.57,6.43,6.43,0,0,0-1.53,2.34,21.75,21.75,0,0,0-1,4.55c-.29,2.09-.61,5.13-1,9.11q-1.29,14.08-1.29,25.78a150.87,150.87,0,0,0,1.53,22.7Q124.73,345,136,347.93ZM160,287.76q0,6.84,6.21,12.49a34.26,34.26,0,0,0,2.93,2.25q1.56,1.08,4.83,2.86t9.66,5.17a57,57,0,0,1,10.24,6.58q3.22,2.83,3.6,5.47a4.37,4.37,0,0,1,.06.68,4.14,4.14,0,0,1-.09.77,8,8,0,0,1-.53,1.45q-1.59,3-6.09,5.5a29,29,0,0,1-9.66,3.42q-6.27.92-7.19,5.35a6.86,6.86,0,0,0-.13,1.35,7.44,7.44,0,0,0,1,3.54,7,7,0,0,0,3.35,3,11,11,0,0,0,4,.68q5.42,0,13.47-3.87,13-6.71,15.82-16.8a12.92,12.92,0,0,0,.3-2.22c0-.53.06-1.12.06-1.78v-1.11a18.15,18.15,0,0,0-.73-4.95A19.32,19.32,0,0,0,209,313a27.88,27.88,0,0,0-7.32-7.88,108,108,0,0,0-14.46-8.67q-4.6-2.46-7-3.82a26.08,26.08,0,0,1-3.45-2.18,4.83,4.83,0,0,1-1.38-1.63,3.21,3.21,0,0,1-.49-1.72q0-3.27,6.09-8.19,7.56-6.21,13.22-7.07c.54-.08,1.09-.18,1.67-.28a11.43,11.43,0,0,0,1.29-.28,5.93,5.93,0,0,0,4-4,5.59,5.59,0,0,0,.24-1.6,6.37,6.37,0,0,0-1.47-3.94,8.52,8.52,0,0,0-6.71-2.77,20.26,20.26,0,0,0-6.15,1.11,54.22,54.22,0,0,0-6.34,2.77q-3.69,1.84-6.34,3.5a43.22,43.22,0,0,0-7.47,6.49,29.57,29.57,0,0,0-5.08,7.29A19.27,19.27,0,0,0,160,287.76Zm52.42-14.89a7.38,7.38,0,0,0,2.95.43H216c1.35,0,3.2-.1,5.53-.3,1.27-.08,2.34-.13,3.2-.13a14.22,14.22,0,0,1,2,.16,2.11,2.11,0,0,1,1.6,1.14,1.62,1.62,0,0,1,.28.7,10.67,10.67,0,0,1,.12,1.54c0,.72,0,1.77,0,3.14v8.89a362.49,362.49,0,0,0,2.83,44.3A69.77,69.77,0,0,0,234,345c.8,2.32,2,3.8,3.6,4.46a7,7,0,0,0,2.95.68,11.77,11.77,0,0,0,2.31-.37,5.83,5.83,0,0,0,3.05-2.22,5.64,5.64,0,0,0,1.35-3.32,5.8,5.8,0,0,0,.06-.92,33.54,33.54,0,0,0-.55-5.17q-3.21-19.56-4-51.13c-.08-2.87-.15-5.16-.19-6.89s-.06-3-.06-3.87a13.85,13.85,0,0,1,.09-1.88,2.74,2.74,0,0,1,.28-.89,2.43,2.43,0,0,1,1-1.23,6.33,6.33,0,0,1,2.43-.62c1.14-.12,2.83-.24,5-.37,2.42-.08,4.32-.17,5.69-.27s2.4-.21,3.08-.31a7.66,7.66,0,0,0,1.75-.46c3-1.4,4.55-3.43,4.68-6.09v-.25q0-3.87-4.19-6.15a6.84,6.84,0,0,0-1.29-.37,16,16,0,0,0-2.21-.15q-1.55,0-4.68,0a260.82,260.82,0,0,0-35.31,3,24,24,0,0,0-6.25,1.57,6.19,6.19,0,0,0-3,2.68,6.25,6.25,0,0,0-.8,3,9,9,0,0,0,.55,2.61A5.06,5.06,0,0,0,212.46,272.87Zm115.85,41.84q-.87-11.62-.86-21.78,0-2.9.24-8.46c.17-3.71.36-7.23.59-10.55s.44-5.58.64-6.77q1-5.83,5.66-7.57a16.91,16.91,0,0,1,3.72-.46c1.62-.06,2.93-.09,3.91-.09q2.22,0,4.68.12c2.7.13,5,.33,7,.62q15.19,2.09,22,9.41a27.91,27.91,0,0,1,2.49,2.68,14,14,0,0,1,1.51,2.55,18.55,18.55,0,0,1,1.66,4.43,20.19,20.19,0,0,1,.37,3.88v1.17a21.38,21.38,0,0,1-.68,4.58,26.82,26.82,0,0,1-2,4.77,47.64,47.64,0,0,1-8.55,11.5q-7.69,8.19-20.74,15.63c-1.23.74-2.3,1.4-3.23,2s-1.46.92-1.63,1a3.05,3.05,0,0,0-1.1,1.57,7.6,7.6,0,0,0-.25,2.06c0,.46,0,1,.06,1.54.13,1.52.39,3.69.8,6.52.29,1.81.48,3.19.59,4.16s.15,1.71.15,2.24a4.86,4.86,0,0,1-.18,1.36,6.87,6.87,0,0,1-2.4,3.9,6.35,6.35,0,0,1-4.13,1.51,6.69,6.69,0,0,1-3-.74,6.24,6.24,0,0,1-3.26-3.41,33.39,33.39,0,0,1-1.91-8.28Q329.17,326.35,328.31,314.71Zm13.16-34q0,3.19.13,8.67.06,5.85.18,10.06c.08,2.81.16,4.44.25,4.89.2,1.6.88,2.4,2,2.4a7.14,7.14,0,0,0,3.44-1.35,68.8,68.8,0,0,0,9.26-6.89,56.47,56.47,0,0,0,7.42-7.63c2.29-2.95,3.44-5.52,3.44-7.69a5.41,5.41,0,0,0-1.85-4.12q-2.76-3.45-15-5.85a39,39,0,0,0-4.7-.83l-1.08,0a3.21,3.21,0,0,0-2.15.56,2.2,2.2,0,0,0-.83,1,7,7,0,0,0-.4,2.15C341.51,277.1,341.47,278.66,341.47,280.75Zm63.93,65.71a20.32,20.32,0,0,0,2.21.12,24.74,24.74,0,0,0,5.72-.74,25.74,25.74,0,0,0,4.31-1.32c1.48-.6,3.67-1.59,6.58-3l4.28-2c1.45-.67,2.61-1.22,3.47-1.63a20.91,20.91,0,0,0,3.76-2,5.91,5.91,0,0,0,1.78-2,7.53,7.53,0,0,0,1-3.56,6.79,6.79,0,0,0-1.73-4.37,6,6,0,0,0-4.92-2.22,5.81,5.81,0,0,0-.8.06A13.59,13.59,0,0,0,427,324.8q-2.52,1-8.37,3.75c-1.43.7-2.82,1.34-4.15,1.91s-2.29,1-2.86,1.17a9,9,0,0,1-2.89.49l-1,0a3.24,3.24,0,0,1-1.78-.71c-1.31-1-2.36-3.18-3.14-6.46-.16-.78-.3-1.62-.4-2.52s-.16-2.3-.18-4.18,0-4.82,0-8.8q0-13.05.55-19.26.62-8.61,1.17-16.06c.37-5,.59-8.24.68-9.84,0-.78.06-1.39.06-1.85a4.36,4.36,0,0,0-.13-1.16,4.09,4.09,0,0,0-.43-1.05,5.7,5.7,0,0,0-2.83-2.71,5.54,5.54,0,0,0-2.4-.55,5.93,5.93,0,0,0-1.41.18c-2.79.82-4.6,2.94-5.41,6.34q-.26,1.11-.87,5.23T390,277.37c-.41,3-.69,5.35-.86,6.95-.29,2.5-.54,5.86-.77,10.09s-.38,8.3-.46,12.24q-.06,2.58-.06,5,0,14,2.46,20.86Q394.51,344.92,405.4,346.46Zm40.23-16.86q2.65,8.67,7.82,13.6a23.77,23.77,0,0,0,11.5,6.58,18,18,0,0,0,3.2.31q7,0,13.29-6.09,5.6-5.29,8.61-17.23,2.58-9.78,3.69-28,.25-4.44.37-12.12t.13-14.46c0-4.51-.07-7.32-.19-8.43a8,8,0,0,0-3.2-5.66,3.57,3.57,0,0,0-1.41-.74,12.53,12.53,0,0,0-2.1-.12,10.92,10.92,0,0,0-2.18.15,5.11,5.11,0,0,0-1.51.71q-2.82,1.72-3.38,6c-.08.65-.14,2.33-.18,5S480,274.78,480,278q-.12,57.34-12.18,57.34-2.52,0-5-2.89a19,19,0,0,1-3.82-7.38q-3.57-11.82-4.06-42.15-.12-6.09-.27-10.58c-.11-3-.18-4.76-.22-5.29q-.44-4.42-3.75-5.91a5.8,5.8,0,0,0-2.4-.55,6.8,6.8,0,0,0-2.86.83,6.36,6.36,0,0,0-2.8,3.54,8,8,0,0,0-.43,1.72c-.13.74-.24,1.88-.34,3.41s-.24,3.69-.4,6.43q-.43,7.14-.43,13.66,0,7.69.61,14.52Q443,320.92,445.63,329.6ZM550.9,313a27.88,27.88,0,0,0-7.32-7.88,108,108,0,0,0-14.46-8.67q-4.62-2.46-7-3.82a25.81,25.81,0,0,1-3.44-2.18,4.72,4.72,0,0,1-1.38-1.63,3.22,3.22,0,0,1-.5-1.72q0-3.27,6.09-8.19,7.57-6.21,13.23-7.07l1.66-.28a10.49,10.49,0,0,0,1.29-.28,5.89,5.89,0,0,0,4-4,5.28,5.28,0,0,0,.25-1.6,6.33,6.33,0,0,0-1.48-3.94,8.49,8.49,0,0,0-6.7-2.77,20.37,20.37,0,0,0-6.16,1.11,54.92,54.92,0,0,0-6.33,2.77c-2.46,1.23-4.58,2.4-6.34,3.5a42.86,42.86,0,0,0-7.47,6.49,29.57,29.57,0,0,0-5.08,7.29,19.27,19.27,0,0,0-1.72,7.63q0,6.84,6.21,12.49a34.08,34.08,0,0,0,2.92,2.25q1.57,1.08,4.83,2.86t9.66,5.17a57.15,57.15,0,0,1,10.25,6.58q3.23,2.83,3.6,5.47a4.37,4.37,0,0,1,.06.68,3.53,3.53,0,0,1-.1.77,7.75,7.75,0,0,1-.52,1.45q-1.6,3-6.09,5.5a29,29,0,0,1-9.66,3.42q-6.27.92-7.2,5.35a7.7,7.7,0,0,0-.12,1.35,7.44,7.44,0,0,0,1,3.54,7,7,0,0,0,3.35,3,11,11,0,0,0,4,.68q5.41,0,13.47-3.87,13-6.71,15.81-16.8a12,12,0,0,0,.31-2.22c0-.53.06-1.12.06-1.78v-1.11a18.13,18.13,0,0,0-.74-4.95A19.26,19.26,0,0,0,550.9,313Zm71.74-.31a86.07,86.07,0,0,1-.87-12.31,95.76,95.76,0,0,1,.93-13.16,77.31,77.31,0,0,1,6.83-23.32q2.7-5.59,5.56-7.47t8.89-1.88h.93q15.75,0,23.56,8.31,7.75,7.74,10.34,22.94a71.52,71.52,0,0,1,1,12.12,73.08,73.08,0,0,1-2.21,17.72,66.56,66.56,0,0,1-4.86,13.05c-.5,1.1-.93,2.09-1.3,2.95a7.32,7.32,0,0,0-.55,1.54,3,3,0,0,0,1.6,2.4,30.7,30.7,0,0,0,5.72,2.7,35.39,35.39,0,0,1,4.16,1.91,8.79,8.79,0,0,1,2.24,1.78,6.2,6.2,0,0,1,1.72,4.37V347q-.55,5.35-6.33,5.84c-.58,0-1.17,0-1.79-.06a6.14,6.14,0,0,1-1.47-.24q-3.15-.87-10.77-5.11c-1.89-1-3.3-1.74-4.25-2.15a6.33,6.33,0,0,0-2.46-.62h-.37a10.59,10.59,0,0,0-2.89.68,14.54,14.54,0,0,1-3.84.74q-1.76.06-2.37.06a20.4,20.4,0,0,1-3.75-.31q-8.8-2.22-15-11T622.64,312.68Zm13.28-12.61q0,14,4.37,22.64,3.57,7.08,8.12,8.73a5,5,0,0,0,1.73.37,5.34,5.34,0,0,0,1.9-.43c1.93-.69,3.88-2.46,5.85-5.29a40.21,40.21,0,0,0,5-10.33,60.21,60.21,0,0,0,2.83-18,54.71,54.71,0,0,0-2.71-17q-2.15-6.46-6.06-9.23t-10.73-2.77a8.62,8.62,0,0,0-3.75.65,4.92,4.92,0,0,0-2.13,2.86,47.59,47.59,0,0,0-1.75,6.83,91.85,91.85,0,0,0-2.65,20.18Zm61,29.53q2.64,8.67,7.81,13.6a23.77,23.77,0,0,0,11.5,6.58,18.12,18.12,0,0,0,3.2.31q7,0,13.29-6.09,5.6-5.29,8.62-17.23,2.58-9.78,3.69-28,.24-4.44.37-12.12t.12-14.46q0-6.76-.19-8.43a8,8,0,0,0-3.19-5.66,3.66,3.66,0,0,0-1.42-.74,12.47,12.47,0,0,0-2.09-.12,11,11,0,0,0-2.19.15,5,5,0,0,0-1.5.71q-2.84,1.72-3.39,6c-.08.65-.14,2.33-.18,5s-.06,5.63-.06,8.83q-.14,57.34-12.18,57.34-2.53,0-5-2.89a19.11,19.11,0,0,1-3.81-7.38q-3.57-11.82-4.06-42.15-.13-6.09-.28-10.58c-.1-3-.18-4.76-.22-5.29q-.42-4.42-3.75-5.91a5.8,5.8,0,0,0-2.4-.55,6.84,6.84,0,0,0-2.86.83,6.36,6.36,0,0,0-2.8,3.54,8.69,8.69,0,0,0-.43,1.72c-.12.74-.24,1.88-.34,3.41s-.23,3.69-.4,6.43q-.43,7.14-.43,13.66,0,7.69.62,14.52Q694.31,320.92,697,329.6ZM766,259.86a7.93,7.93,0,0,0,2.81.44c.18,0,.64,0,1.41-.09a7.93,7.93,0,0,0,2.54-.7,48.6,48.6,0,0,0,4.62-3.3q3.74-2.85,8.57-6.68t8.92-7.16q4.08-3.35,5.58-4.75,4.21-4.22,4.22-8.52a8.88,8.88,0,0,0-2.55-6.64,9.44,9.44,0,0,0-6.68-2.59q-4.83,0-9.32,4-2.37,1.84-7.51,6.55t-9.8,9.14c-3.11,3-5,4.79-5.63,5.49a20.71,20.71,0,0,0-1.88,3.61,9.24,9.24,0,0,0-.84,3.42,7.73,7.73,0,0,0,1.63,4.49A9.18,9.18,0,0,0,766,259.86Zm57.67,69.74q2.64,8.67,7.81,13.6A23.84,23.84,0,0,0,843,349.78a18,18,0,0,0,3.2.31q7,0,13.29-6.09,5.6-5.29,8.61-17.23,2.58-9.78,3.69-28,.25-4.44.37-12.12t.12-14.46q0-6.76-.18-8.43a8,8,0,0,0-3.2-5.66,3.57,3.57,0,0,0-1.41-.74,12.53,12.53,0,0,0-2.1-.12,10.92,10.92,0,0,0-2.18.15,5.11,5.11,0,0,0-1.51.71q-2.82,1.72-3.38,6c-.08.65-.15,2.33-.19,5s-.06,5.63-.06,8.83q-.12,57.34-12.18,57.34-2.52,0-5-2.89a19,19,0,0,1-3.82-7.38q-3.57-11.82-4.06-42.15-.12-6.09-.28-10.58c-.1-3-.17-4.76-.21-5.29q-.43-4.42-3.75-5.91a5.8,5.8,0,0,0-2.4-.55,6.8,6.8,0,0,0-2.86.83,6.32,6.32,0,0,0-2.8,3.54,8,8,0,0,0-.43,1.72c-.13.74-.24,1.88-.34,3.41s-.24,3.69-.4,6.43q-.43,7.14-.43,13.66,0,7.69.61,14.52Q821.06,320.92,823.71,329.6Zm61.77-25.66c.12,1.73.29,4.26.49,7.6s.41,6.7.62,10.06q.49,8.49.86,13.14c.25,3.09.47,5.35.68,6.76a10.67,10.67,0,0,0,.8,3.11,7.27,7.27,0,0,0,4.18,4.06,6.38,6.38,0,0,0,2,.31,8.75,8.75,0,0,0,2.55-.52,6.76,6.76,0,0,0,3-2.25A6.14,6.14,0,0,0,902,343c0-.45.06-1,.06-1.6,0-1.27-.08-2.91-.25-4.92q-.42-4.62-.8-10.52c-.24-3.94-.45-7.45-.61-10.52q-.12-3.45-.12-4.74v-.55c.24-1,.61-1.54,1.1-1.54a.57.57,0,0,1,.25.06c.25.08.53.38.86.89a24,24,0,0,1,1.35,2.62q.87,1.85,2.28,5.23,4.92,11.56,8.25,17.74t6,8.4a9.58,9.58,0,0,0,6.19,2.22h.24q5.05,0,8.12-4.92,2.1-3,3-9.6a213.4,213.4,0,0,0,1.29-21.72q.43-15.14,1.79-34c.28-4.43.47-7.86.55-10.28v-.86a19.94,19.94,0,0,0-.4-4.61,6.4,6.4,0,0,0-1.38-2.71,6.74,6.74,0,0,0-4.8-2.46h-.31a6.73,6.73,0,0,0-4.74,2,6.36,6.36,0,0,0-1.69,2.8,22.31,22.31,0,0,0-.71,5.07q-.3,4.38-.77,11.23T926,288.44q-.18,2.9-.4,7.75t-.34,9.48c-.08,2.74-.16,4.95-.24,6.61s-.18,2.94-.28,3.84a7.23,7.23,0,0,1-.4,1.91,1.79,1.79,0,0,1-.61.8.7.7,0,0,1-.37.12.73.73,0,0,1-.34-.12,4.48,4.48,0,0,1-.77-.74,14,14,0,0,1-.86-1.32,16.12,16.12,0,0,1-.86-1.63c-.21-.57-.58-1.49-1.11-2.74s-1.09-2.55-1.66-3.9Q914.59,301,907.26,281a152.26,152.26,0,0,0-6.37-15.66c-1.5-2.89-3-4.54-4.4-5a7.24,7.24,0,0,0-2.27-.36,10.38,10.38,0,0,0-4.13,1.07,7.76,7.76,0,0,0-3.75,3.79,9.39,9.39,0,0,0-.49,1.63,19.44,19.44,0,0,0-.37,2.18c-.12,1.52-.2,4.61-.25,9.29q-.06,4.74-.06,9.6,0,2.46.06,7.5T885.48,303.94ZM45.31,474A34.55,34.55,0,0,1,53,478.17a21.36,21.36,0,0,1,8,11.75,23.68,23.68,0,0,1,.43,5A29.57,29.57,0,0,1,61,500,34.65,34.65,0,0,1,60,503.82a38.38,38.38,0,0,1-1.75,4.06,51.63,51.63,0,0,1-8.12,11.39c-.82.94-1.53,1.8-2.12,2.58a9.26,9.26,0,0,0-1,1.48,1.81,1.81,0,0,0-.12.67,2.25,2.25,0,0,0,.37,1.17,14.42,14.42,0,0,0,2.46,2.53c.7.69,1.36,1.38,2,2.06A15,15,0,0,1,53,531.39a14.22,14.22,0,0,1,2,7.44,21.94,21.94,0,0,1-.18,2.77,25.17,25.17,0,0,1-5,11.32q-7.12,9-22,11.32a30.89,30.89,0,0,1-3.57.31H22.58c-1.23,0-2.63-.06-4.18-.19a15.21,15.21,0,0,1-3.57-.61,6.26,6.26,0,0,1-2.22-1.36,6.87,6.87,0,0,1-1.69-2,11.93,11.93,0,0,1-1.05-3.69c-.26-1.68-.52-4.19-.76-7.53s-.54-7.87-.87-13.57Q7.51,522,7.14,514.38T6.64,502q-.12-4.77-.12-10.37t.09-8.49A35.33,35.33,0,0,1,7,478.81a8.74,8.74,0,0,1,.74-2.36,5.5,5.5,0,0,1,3-2.9A30.76,30.76,0,0,1,17.9,472a94.2,94.2,0,0,1,12.55-1,42.33,42.33,0,0,1,5.91.37A43.86,43.86,0,0,1,45.31,474Zm-5.2,66.5a2.8,2.8,0,0,0-2.21-2.7,12.44,12.44,0,0,0-3.69-.37,41.38,41.38,0,0,0-5.2.33,16.5,16.5,0,0,0-3.79.83,3.27,3.27,0,0,0-1.78,1.7,10.55,10.55,0,0,0-.43,3.6,14.45,14.45,0,0,0,.37,3.9,2.66,2.66,0,0,0,1.35,1.69,3,3,0,0,0,1.73.56,13.69,13.69,0,0,0,3-.56,19.32,19.32,0,0,0,7.63-3.78Q40.11,543.14,40.11,540.49Zm5.63-49.65a5.92,5.92,0,0,0-1.07-1.1,18.61,18.61,0,0,0-3.79-2.25,33.38,33.38,0,0,0-5.07-1.88,17.31,17.31,0,0,0-2.22-.52c-.65-.1-1.43-.17-2.34-.22s-2.15-.06-3.75-.06-2.93,0-3.75,0A9.9,9.9,0,0,0,22,485a1.59,1.59,0,0,0-.8.43,2.68,2.68,0,0,0-1.05,1.23,6.62,6.62,0,0,0-.31,2.4c0,1.07.08,2.64.25,4.74q.18,2.46.4,6.55c.14,2.73.3,5.38.46,8s.25,4.71.37,6.64.2,3.12.24,3.57c.21,2.09,1,3.14,2.28,3.14a2,2,0,0,0,.62-.16c.28-.1.61-.23,1-.4a42.14,42.14,0,0,0,9.6-7,55.28,55.28,0,0,0,8.61-9.6A26.63,26.63,0,0,0,46.3,500a11.75,11.75,0,0,0,.77-3.94q.06-.79.06-1.41a6,6,0,0,0-.06-.93,4.55,4.55,0,0,0-.56-1.54A5.28,5.28,0,0,0,45.74,490.84Zm58.63-10.21a34.78,34.78,0,0,1,2.25,8.06q1,5.35,2.15,15,4.13,33.66,8.49,46.14a25.91,25.91,0,0,1,.93,2.9,7.11,7.11,0,0,1,.18,1.41,2.26,2.26,0,0,1-.06.55q-1,5.67-6.46,5.91a7.22,7.22,0,0,1-5.11-2,10,10,0,0,1-1.9-2.31,18.69,18.69,0,0,1-1.6-3.66,10.72,10.72,0,0,0-1.63-3.17,3.14,3.14,0,0,0-2.13-1.07,6.13,6.13,0,0,0-1-.06c-.78,0-1.87,0-3.26.12-2.3.12-4.75.28-7.36.46s-4.56.36-5.87.52a6,6,0,0,0-3.78,1.42c-.68.74-1.1,2.13-1.27,4.18a10.69,10.69,0,0,1-.8,3.6,6.43,6.43,0,0,1-1.84,2.31,3.93,3.93,0,0,1-1.29.74,8.3,8.3,0,0,1-1.79.24h-.67a8.29,8.29,0,0,1-1.11-.06,3.82,3.82,0,0,1-1.23-.43,7.91,7.91,0,0,1-1.94-1.6,8.06,8.06,0,0,1-1.45-2.15,13.19,13.19,0,0,1-.61-4.86,108.8,108.8,0,0,1,1.11-13.17q1.09-7.82,3.6-18.18t5.63-20.09q7.5-23.07,15.75-26.88a6,6,0,0,1,1.81-.68,17.43,17.43,0,0,1,2.43-.12,10.57,10.57,0,0,1,3.63.52,9.28,9.28,0,0,1,3,1.94A13.38,13.38,0,0,1,104.37,480.63ZM98.19,531a4.27,4.27,0,0,0-.06-.68c0-.53-.13-1.28-.28-2.24s-.34-2.29-.58-4c-.33-2-.7-4.55-1.11-7.6s-.78-5.9-1.11-8.52a90.84,90.84,0,0,0-1.6-10,1.26,1.26,0,0,0-1.1-.8h-.13a2,2,0,0,0-1.41,1.05q-1.11,1.84-3.54,9.75T82.5,525.11A40,40,0,0,0,81,533.23a2.79,2.79,0,0,0,.18,1.17,2.23,2.23,0,0,0,.49.46,6.33,6.33,0,0,0,.86.53,3.59,3.59,0,0,0,.8.3l1.79-.24c1.19-.13,2.62-.29,4.31-.5s3.24-.47,4.55-.67a18.61,18.61,0,0,0,2.46-.49,2.63,2.63,0,0,0,1.41-1.54,2.48,2.48,0,0,0,.25-.68A2.88,2.88,0,0,0,98.19,531Zm44.36,14.76a7,7,0,0,0-.25,1.73,30,30,0,0,0,.56,4.79c.41,2.42.63,4,.67,4.74s.07,1.25.07,1.54a6.56,6.56,0,0,1-.31,2.15,5.91,5.91,0,0,1-1.36,2.28,7.53,7.53,0,0,1-2.27,1.78,7.39,7.39,0,0,1-2.77.5,7.69,7.69,0,0,1-2.77-.5,8,8,0,0,1-3.63-3.87q-1.61-4.12-3.41-18.83t-2.93-32.18q-.3-4.92-.3-7.25v-3.39c0-2.17,0-4.76.12-7.75q.12-5.65.31-8.28a9.71,9.71,0,0,1,.74-3.63,7.16,7.16,0,0,1,1.72-2c2.29-2.14,6.42-3.31,12.36-3.51.62,0,1.21-.06,1.79-.06q12.56,0,21.59,6.58a23.11,23.11,0,0,1,8.74,14.27,26.58,26.58,0,0,1,.37,4.43q0,12.26-10.64,25l-2,2.37c-.68.8-1.2,1.41-1.57,1.82a3.83,3.83,0,0,0-1.23,2.4,1.63,1.63,0,0,0,.67,1.29q.75.68,5.05,1.84a31.3,31.3,0,0,1,8.37,3.26,7.38,7.38,0,0,1,3.32,4.19,8,8,0,0,1,.24,1.91,6.39,6.39,0,0,1-4,6,5.45,5.45,0,0,1-2.33.43,21.54,21.54,0,0,1-5.91-1.1c-1.84-.58-4-1.15-6.34-1.73s-4.57-1.07-6.58-1.5a25.32,25.32,0,0,0-3.88-.65C143.45,544.86,142.71,545.17,142.55,545.78Zm-.18-22.95a11,11,0,0,0,2.49-2q1.75-1.67,3.69-3.76a44.86,44.86,0,0,0,3.17-3.75,38.66,38.66,0,0,0,3.13-5.17,27.3,27.3,0,0,0,2-4.86,16.32,16.32,0,0,0,.43-3.75,10.91,10.91,0,0,0-.5-3.45,10.42,10.42,0,0,0-4.86-5.38,24.7,24.7,0,0,0-9.23-3.11,13.11,13.11,0,0,0-1.53-.18h-.56a3.48,3.48,0,0,0-.67.06,3.72,3.72,0,0,0-.93.31.7.7,0,0,1-.18.12,2.28,2.28,0,0,0-1.05.74,2.64,2.64,0,0,0-.4,1.48c0,.65,0,1.21,0,1.66,0,.9,0,2.07.06,3.5.13,2.18.31,5.17.56,9,0,.57,0,1.17.06,1.78.24,3.73.44,6.7.58,8.89s.3,3.84.46,4.92a9.73,9.73,0,0,0,.53,2.25,1.46,1.46,0,0,0,.71.8.87.87,0,0,0,.49.24h.61Zm47.33,45.88a17.77,17.77,0,0,1-2.37,3.83,8.64,8.64,0,0,0-1.85,4.83,6.85,6.85,0,0,0,1.32,3.47q1.32,2.07,5.54,2.24h.35q4,0,7.91-4.13a26.06,26.06,0,0,0,6.07-13.44,22.21,22.21,0,0,0,.26-3.34,30.73,30.73,0,0,0-3.34-13.36q-3.08-5.53-7.82-6.24a13.37,13.37,0,0,0-1.5-.09,6.93,6.93,0,0,0-5.88,3,6.21,6.21,0,0,0-1.15,3.78,17.41,17.41,0,0,0,1.94,7.12A14.74,14.74,0,0,1,191,563a9.46,9.46,0,0,1-.17,1.76A16.46,16.46,0,0,1,189.7,568.71Zm111.84-6.07a22.92,22.92,0,0,0,2.34.12,24.26,24.26,0,0,0,8.92-1.84,46,46,0,0,0,7.66-4.25,25.78,25.78,0,0,0,5.51-4.55,8,8,0,0,0,1.41-4.25,6.51,6.51,0,0,0-1.6-4.18,6.27,6.27,0,0,0-5.16-2.28,7.63,7.63,0,0,0-3,.59,30.56,30.56,0,0,0-4.27,2.49,35.89,35.89,0,0,1-5.05,2.89,10,10,0,0,1-3.69.93,4.62,4.62,0,0,1-.74.06,7.42,7.42,0,0,1-5.66-2.77q-3.75-4.07-3.75-11,0-10,7.69-25.78,6.27-12.49,13.47-19.81a13.28,13.28,0,0,1,3-2.34,12.68,12.68,0,0,1,3.38-1.17q3.69-.67,5-2.71a5.91,5.91,0,0,0,1.11-3.32,8.75,8.75,0,0,0-.83-3.08c-.55-1.31-1.94-2.35-4.15-3.13a11,11,0,0,0-3.26-.5q-7.32,0-16.61,9.54-11.82,12.3-18.95,32.73a72.74,72.74,0,0,0-3,10.55,49.77,49.77,0,0,0-.86,9.26v.37q0,12.18,7.51,20.18A21.8,21.8,0,0,0,301.54,562.64Zm71.52-126.77q-4.83,0-9.32,4-2.37,1.84-7.51,6.55t-9.8,9.14c-3.11,3-5,4.79-5.63,5.49a20.71,20.71,0,0,0-1.88,3.61,9.24,9.24,0,0,0-.84,3.42,7.73,7.73,0,0,0,1.63,4.49,9.18,9.18,0,0,0,3.91,3.25,7.93,7.93,0,0,0,2.81.44c.18,0,.64,0,1.41-.09a8.05,8.05,0,0,0,2.55-.7,50.54,50.54,0,0,0,4.61-3.3q3.74-2.85,8.57-6.68t8.92-7.16q4.08-3.35,5.58-4.75,4.21-4.22,4.22-8.52a8.88,8.88,0,0,0-2.55-6.64A9.44,9.44,0,0,0,373.06,435.87Zm58.81,35.29H431a71,71,0,0,0-7.39.43c-2.75.28-6.25.76-10.52,1.41q-3.87.62-6,1.08a12.59,12.59,0,0,0-3.16,1,8,8,0,0,0-2,1.57,6.33,6.33,0,0,0-1.54,2.34,21.75,21.75,0,0,0-1,4.55q-.42,3.14-1,9.11-1.29,14.08-1.29,25.78a149.47,149.47,0,0,0,1.54,22.7Q402,561,413.23,563.93a17.32,17.32,0,0,0,3.87.43,26.19,26.19,0,0,0,10.83-2.64q1.67-.87,4.77-2.83c2.07-1.31,4.07-2.64,6-4a49.83,49.83,0,0,0,4-3,6.58,6.58,0,0,0,2.27-5,4.71,4.71,0,0,0-.06-.74A5.77,5.77,0,0,0,441.4,541a5,5,0,0,0-1.6-.67,3.58,3.58,0,0,0-1-.13,7.7,7.7,0,0,0-.92.07,6.6,6.6,0,0,0-2.28.4,17.68,17.68,0,0,0-2.89,1.44q-1.78,1-4.92,3.14-2.16,1.41-4,2.55a20.9,20.9,0,0,1-2.68,1.45,6.52,6.52,0,0,1-2.46.55,4.31,4.31,0,0,1-2.92-1.35c-1-.9-1.78-3-2.43-6.4a13.31,13.31,0,0,1-.31-1.6v-.55a5,5,0,0,1,0-.53,2.37,2.37,0,0,1,.22-.7,3.4,3.4,0,0,1,.52-.86,3.56,3.56,0,0,1,.65-.68,10.46,10.46,0,0,1,1.72-.52c.9-.23,1.91-.47,3-.71,4.23-.74,7.25-1.31,9.08-1.72a20.77,20.77,0,0,0,3.78-1.11q4.92-2.4,4.92-6.59a7.82,7.82,0,0,0-.24-1.84,6.72,6.72,0,0,0-3.51-4.06,5.63,5.63,0,0,0-3-.68c-.25,0-.86,0-1.85.16a66.11,66.11,0,0,0-6.7,1.44q-3.51.87-5.36,1.17a14.45,14.45,0,0,1-2.27.25,6.41,6.41,0,0,1-.8-.07,1.45,1.45,0,0,1-1-.61,2.39,2.39,0,0,1-.52-.74,3.82,3.82,0,0,1-.22-1.11c0-.49-.08-1.23-.12-2.21v-1.54c0-1.23,0-3.1.06-5.6s.11-5.45.22-8.86.2-6.38.31-9a34.71,34.71,0,0,1,.33-4.52,3.66,3.66,0,0,1,2.83-2.52,23.77,23.77,0,0,1,2.62-.31c1.41-.12,3-.23,4.83-.31,3.61-.16,6.39-.31,8.33-.43a41.23,41.23,0,0,0,4.28-.43,10.72,10.72,0,0,0,2.09-.55,6.91,6.91,0,0,0,4.06-4.86,6.42,6.42,0,0,0,.13-1.23,6.77,6.77,0,0,0-2-4.74,6.29,6.29,0,0,0-3-1.79A21.27,21.27,0,0,0,431.87,471.16Zm57.22,70.25c0-.53.06-1.12.06-1.78v-1.11a18.13,18.13,0,0,0-.74-4.95,18.94,18.94,0,0,0-2.22-4.58,27.88,27.88,0,0,0-7.32-7.88,108,108,0,0,0-14.46-8.67q-4.61-2.46-7-3.82a26.08,26.08,0,0,1-3.45-2.18,5,5,0,0,1-1.38-1.63,3.21,3.21,0,0,1-.49-1.72q0-3.27,6.09-8.19,7.56-6.21,13.23-7.07l1.66-.28a11.43,11.43,0,0,0,1.29-.28,5.93,5.93,0,0,0,4-4,5.59,5.59,0,0,0,.24-1.6,6.37,6.37,0,0,0-1.47-3.94,8.51,8.51,0,0,0-6.71-2.77,20.37,20.37,0,0,0-6.15,1.11,55,55,0,0,0-6.34,2.77q-3.69,1.84-6.33,3.5a43.29,43.29,0,0,0-7.48,6.49,29.24,29.24,0,0,0-5.07,7.29,19.29,19.29,0,0,0-1.73,7.63q0,6.84,6.22,12.49a32.59,32.59,0,0,0,2.92,2.25q1.56,1.08,4.83,2.86t9.66,5.17a57,57,0,0,1,10.24,6.58q3.23,2.83,3.6,5.47a4.37,4.37,0,0,1,.06.68,4.14,4.14,0,0,1-.09.77,8.57,8.57,0,0,1-.52,1.45q-1.6,3-6.09,5.5a29.11,29.11,0,0,1-9.66,3.42q-6.29.92-7.2,5.35a7.7,7.7,0,0,0-.12,1.35,7.42,7.42,0,0,0,1,3.54,7,7,0,0,0,3.35,3,11,11,0,0,0,4,.68q5.42,0,13.48-3.87,13-6.7,15.81-16.8A14,14,0,0,0,489.09,541.41Zm31-51.92a2.47,2.47,0,0,1,1-1.23,6.33,6.33,0,0,1,2.43-.62c1.15-.12,2.83-.24,5-.37,2.42-.08,4.32-.17,5.69-.27s2.4-.21,3.08-.31a7.52,7.52,0,0,0,1.75-.46q4.5-2.1,4.68-6.09v-.25c0-2.58-1.4-4.63-4.18-6.15a6.94,6.94,0,0,0-1.3-.37,16,16,0,0,0-2.21-.15c-1,0-2.58,0-4.68,0a261,261,0,0,0-35.31,3,24,24,0,0,0-6.25,1.57,6.25,6.25,0,0,0-3.78,5.69,9.33,9.33,0,0,0,.55,2.61,5.06,5.06,0,0,0,3.08,2.8,7.41,7.41,0,0,0,2.95.43h.62c1.35,0,3.2-.1,5.54-.3,1.27-.08,2.33-.13,3.2-.13a14.44,14.44,0,0,1,2,.16,2.12,2.12,0,0,1,1.6,1.14,1.76,1.76,0,0,1,.27.7,10.67,10.67,0,0,1,.12,1.54c0,.72,0,1.77,0,3.14v8.89a360.51,360.51,0,0,0,2.83,44.3A69.07,69.07,0,0,0,511.2,561c.8,2.32,2,3.8,3.6,4.46a7.09,7.09,0,0,0,3,.68,11.7,11.7,0,0,0,2.3-.37,5.83,5.83,0,0,0,3.05-2.22,5.64,5.64,0,0,0,1.35-3.32,5.8,5.8,0,0,0,.06-.92,33.54,33.54,0,0,0-.55-5.17q-3.19-19.56-4-51.13c-.08-2.87-.14-5.16-.18-6.89s-.07-3-.07-3.87a12,12,0,0,1,.1-1.88A2.54,2.54,0,0,1,520.09,489.49Zm88.54,56.11q2.64,8.67,7.81,13.6a23.77,23.77,0,0,0,11.5,6.58,18.12,18.12,0,0,0,3.2.31q7,0,13.29-6.09,5.6-5.29,8.62-17.23,2.58-9.78,3.69-28,.24-4.44.37-12.12t.12-14.46q0-6.76-.19-8.43a8,8,0,0,0-3.2-5.66,3.57,3.57,0,0,0-1.41-.74,12.47,12.47,0,0,0-2.09-.12,11,11,0,0,0-2.19.15,5,5,0,0,0-1.5.71q-2.83,1.72-3.39,6c-.08.65-.14,2.33-.18,5S643,490.78,643,494q-.13,57.35-12.18,57.34-2.54,0-5.05-2.89a19.11,19.11,0,0,1-3.81-7.38q-3.57-11.82-4.06-42.15-.13-6.09-.28-10.58c-.1-3-.18-4.76-.22-5.29q-.42-4.42-3.75-5.91a5.8,5.8,0,0,0-2.4-.55,6.84,6.84,0,0,0-2.86.83,6.36,6.36,0,0,0-2.8,3.54,8.69,8.69,0,0,0-.43,1.72c-.12.74-.24,1.88-.34,3.41s-.23,3.69-.4,6.43q-.44,7.14-.43,13.66,0,7.69.62,14.52Q606,536.92,608.63,545.6Zm115.54-20.12q.42-15.14,1.78-34,.43-6.65.55-10.28v-.86a19.94,19.94,0,0,0-.4-4.61,6.18,6.18,0,0,0-1.38-2.71,6.7,6.7,0,0,0-4.8-2.46h-.31a6.72,6.72,0,0,0-4.73,2,6.38,6.38,0,0,0-1.7,2.8,23,23,0,0,0-.7,5.07q-.32,4.38-.77,11.23t-.83,12.83q-.2,2.9-.4,7.75t-.34,9.48c-.08,2.74-.17,5-.25,6.61s-.17,2.94-.27,3.84a7.67,7.67,0,0,1-.4,1.91,1.8,1.8,0,0,1-.62.8.68.68,0,0,1-.37.12.81.81,0,0,1-.34-.12,4.48,4.48,0,0,1-.77-.74c-.24-.32-.53-.77-.86-1.32s-.61-1.1-.86-1.63-.57-1.49-1.11-2.74-1.08-2.55-1.66-3.9Q699.49,517,692.17,497a152.86,152.86,0,0,0-6.36-15.66q-2.25-4.33-4.4-5a7.35,7.35,0,0,0-2.28-.36,10.34,10.34,0,0,0-4.12,1.07,7.72,7.72,0,0,0-3.75,3.79,9.26,9.26,0,0,0-.5,1.63,22,22,0,0,0-.37,2.18c-.12,1.52-.2,4.61-.24,9.29q-.06,4.74-.06,9.6,0,2.46.06,7.5t.24,8.86c.13,1.73.29,4.26.5,7.6s.41,6.7.61,10.06q.5,8.49.86,13.14c.25,3.09.47,5.35.68,6.76a10.67,10.67,0,0,0,.8,3.11,7.27,7.27,0,0,0,4.18,4.06,6.48,6.48,0,0,0,2,.31,8.8,8.8,0,0,0,2.56-.52,6.74,6.74,0,0,0,3-2.25,6,6,0,0,0,1.35-3.26c0-.45.06-1,.06-1.6q0-1.9-.24-4.92-.44-4.62-.8-10.52c-.25-3.94-.45-7.45-.62-10.52q-.12-3.45-.12-4.74v-.55c.25-1,.62-1.54,1.11-1.54a.53.53,0,0,1,.24.06,2.07,2.07,0,0,1,.87.89,28.27,28.27,0,0,1,1.35,2.62q.85,1.85,2.28,5.23,4.92,11.57,8.24,17.74t6.06,8.4a9.55,9.55,0,0,0,6.18,2.22h.25q5,0,8.12-4.92,2.08-3,3-9.6A215.66,215.66,0,0,0,724.17,525.48Zm101,36.36a25.64,25.64,0,0,0,4.3-1.32c1.48-.6,3.67-1.59,6.59-3l4.27-2c1.46-.67,2.62-1.22,3.48-1.63a21.11,21.11,0,0,0,3.75-2,5.91,5.91,0,0,0,1.78-2,7.53,7.53,0,0,0,1-3.56,6.83,6.83,0,0,0-1.72-4.37,6.41,6.41,0,0,0-5.73-2.16,13.66,13.66,0,0,0-4.06,1q-2.52,1-8.36,3.75c-1.44.7-2.82,1.34-4.16,1.91s-2.28,1-2.86,1.17a9,9,0,0,1-2.89.49l-1,0a3.27,3.27,0,0,1-1.79-.71c-1.31-1-2.36-3.18-3.13-6.46a24.67,24.67,0,0,1-.4-2.52c-.11-.9-.17-2.3-.19-4.18s0-4.82,0-8.8q0-13,.55-19.26.62-8.61,1.17-16.06t.68-9.84c0-.78.06-1.39.06-1.85a4.87,4.87,0,0,0-.12-1.16,4.48,4.48,0,0,0-.43-1.05,5.74,5.74,0,0,0-2.83-2.71,5.54,5.54,0,0,0-2.4-.55,6.07,6.07,0,0,0-1.42.18c-2.79.82-4.59,2.94-5.41,6.34-.17.74-.45,2.48-.86,5.23s-.82,5.64-1.23,8.68-.7,5.35-.86,6.95q-.43,3.75-.77,10.09t-.46,12.24c0,1.72-.07,3.38-.07,5q0,14,2.46,20.86,4.26,12.43,15.14,14a20.59,20.59,0,0,0,2.21.12A24.82,24.82,0,0,0,825.13,561.84Zm45.59-29c-.25-4.71-.44-10-.56-15.81q-.12-5.78-.37-13.66c-.08-4.26-.16-8.08-.24-11.44q-.19-5.59-.34-9.6c-.11-2.66-.2-4.18-.28-4.55a6.15,6.15,0,0,0-2.64-3.14,5.66,5.66,0,0,0-3-.86,4.89,4.89,0,0,0-1,.12q-4.12,1-5.42,5.66a81.08,81.08,0,0,0-.8,11.51q-.18,7.26-.18,15.81c0,1.43,0,4.37,0,8.8s.17,9.49.46,15.19q.38,5.91.92,13c.37,4.75.66,8.06.86,9.9.5,3.86,2,6.36,4.56,7.51a7.74,7.74,0,0,0,2.58.49h.37a5.93,5.93,0,0,0,2.22-.37,7.28,7.28,0,0,0,3.44-3.2,7.59,7.59,0,0,0,.74-3.51v-1.16q0-2.22-.31-5.91Q871.08,539.88,870.72,532.8ZM901,563.93a17.48,17.48,0,0,0,3.88.43,26.23,26.23,0,0,0,10.83-2.64c1.11-.58,2.69-1.52,4.77-2.83s4.07-2.64,6-4a46.32,46.32,0,0,0,4-3,6.56,6.56,0,0,0,2.28-5,4.71,4.71,0,0,0-.06-.74,5.77,5.77,0,0,0-3.51-5.23,5.08,5.08,0,0,0-1.6-.67,3.63,3.63,0,0,0-1-.13,7.55,7.55,0,0,0-.92.07,6.6,6.6,0,0,0-2.28.4,17.68,17.68,0,0,0-2.89,1.44q-1.79,1-4.92,3.14-2.16,1.41-4,2.55a21.6,21.6,0,0,1-2.68,1.45,6.52,6.52,0,0,1-2.46.55,4.29,4.29,0,0,1-2.92-1.35c-1-.9-1.78-3-2.43-6.4a13.31,13.31,0,0,1-.31-1.6v-.55a5,5,0,0,1,0-.53,2.62,2.62,0,0,1,.21-.7,3.78,3.78,0,0,1,.53-.86,3.88,3.88,0,0,1,.64-.68,10.7,10.7,0,0,1,1.73-.52c.9-.23,1.9-.47,3-.71q6.33-1.11,9.08-1.72a20.77,20.77,0,0,0,3.78-1.11q4.92-2.4,4.92-6.59a7.82,7.82,0,0,0-.24-1.84,6.72,6.72,0,0,0-3.51-4.06,5.66,5.66,0,0,0-3-.68c-.24,0-.86,0-1.84.16a66.67,66.67,0,0,0-6.71,1.44c-2.33.58-4.12,1-5.35,1.17a14.44,14.44,0,0,1-2.28.25,6.56,6.56,0,0,1-.8-.07,1.45,1.45,0,0,1-1-.61,2.23,2.23,0,0,1-.52-.74,3.51,3.51,0,0,1-.22-1.11c0-.49-.08-1.23-.12-2.21v-1.54c0-1.23,0-3.1.06-5.6s.11-5.45.22-8.86.2-6.38.3-9a35.82,35.82,0,0,1,.34-4.52,3.66,3.66,0,0,1,2.83-2.52,23.77,23.77,0,0,1,2.62-.31c1.41-.12,3-.23,4.83-.31,3.6-.16,6.38-.31,8.33-.43a41.23,41.23,0,0,0,4.28-.43,10.72,10.72,0,0,0,2.09-.55,6.94,6.94,0,0,0,4.06-4.86,6.41,6.41,0,0,0,.12-1.23,6.73,6.73,0,0,0-2-4.74,6.21,6.21,0,0,0-3-1.79,21.27,21.27,0,0,0-4.61-.36h-.93a71,71,0,0,0-7.38.43c-2.75.28-6.26.76-10.52,1.41q-3.87.62-6,1.08a12.83,12.83,0,0,0-3.17,1,8.33,8.33,0,0,0-2,1.57,6.43,6.43,0,0,0-1.53,2.34,21.75,21.75,0,0,0-1,4.55c-.29,2.09-.61,5.13-1,9.11q-1.29,14.08-1.29,25.78a150.87,150.87,0,0,0,1.53,22.7Q889.73,561,901,563.93Zm59.68,1.85a18.12,18.12,0,0,0,3.2.31q7,0,13.29-6.09,5.6-5.29,8.61-17.23,2.6-9.78,3.69-28,.25-4.44.37-12.12T990,488.2q0-6.76-.19-8.43a8,8,0,0,0-3.2-5.66,3.57,3.57,0,0,0-1.41-.74,12.47,12.47,0,0,0-2.09-.12,11,11,0,0,0-2.19.15,5.11,5.11,0,0,0-1.51.71q-2.82,1.72-3.38,6c-.08.65-.14,2.33-.18,5s-.07,5.63-.07,8.83q-.12,57.35-12.18,57.34-2.52,0-5-2.89a19.12,19.12,0,0,1-3.82-7.38q-3.57-11.82-4.06-42.15-.12-6.09-.27-10.58c-.11-3-.18-4.76-.22-5.29q-.43-4.42-3.75-5.91a5.8,5.8,0,0,0-2.4-.55,6.84,6.84,0,0,0-2.86.83,6.36,6.36,0,0,0-2.8,3.54,8,8,0,0,0-.43,1.72c-.13.74-.24,1.88-.34,3.41s-.24,3.69-.4,6.43q-.43,7.14-.43,13.66,0,7.69.61,14.52,1.36,16.25,4,24.92t7.82,13.6A23.77,23.77,0,0,0,960.66,565.78ZM6.18,726q-.33-6.12-.34-16.09V703.4c0-1.68,0-3,0-4s.06-1.73.12-2.25A7.44,7.44,0,0,1,6.21,696c.09-.26.19-.54.31-.83a6.82,6.82,0,0,1,3-3.44,15.69,15.69,0,0,1,6-1.36c1.32-.12,2.65-.18,4-.18a61.08,61.08,0,0,1,16.55,2.52q9.6,2.71,15.41,7.23a30.65,30.65,0,0,1,9.14,11.91,42.28,42.28,0,0,1,1.72,32.54,50.57,50.57,0,0,1-10,16.46A50.19,50.19,0,0,1,37.1,772.55a33.33,33.33,0,0,1-4.65,1.94,32,32,0,0,1-5.07,1.14c-1,.16-2,.36-2.95.58s-1.75.42-2.28.58a12.64,12.64,0,0,1-3.51.56,7.17,7.17,0,0,1-3-.62A7.92,7.92,0,0,1,12,772.06q-.32-1.17-1.17-6.65T9.07,753.26q-.88-6.68-1.44-11.47Q6.52,732.13,6.18,726Zm13-17.69q0,.55.06,1.17c0,.74.13,2.16.27,4.27s.3,4.44.47,7q.48,7.68,1.16,14.3t1.67,14.31q.48,3.69.8,5.87c.2,1.46.37,2.56.52,3.32a6.2,6.2,0,0,0,.49,1.66,3.58,3.58,0,0,0,.65.9,2.34,2.34,0,0,0,1.78.8h.12a7.7,7.7,0,0,0,3-1,42,42,0,0,0,9.9-7.81q7.58-7.32,9.72-15.94a30.15,30.15,0,0,0,.77-6.89,24.92,24.92,0,0,0-.71-6.64q-2.76-10.89-10.21-14.52a44.8,44.8,0,0,0-9.38-3.32A35.57,35.57,0,0,0,23,704.57a6.52,6.52,0,0,0-1.66.18C19.89,705.08,19.2,706.27,19.2,708.32ZM122.12,763a4.71,4.71,0,0,0-.06-.74,5.77,5.77,0,0,0-3.5-5.23,5.18,5.18,0,0,0-1.6-.67,3.71,3.71,0,0,0-1-.13,7.7,7.7,0,0,0-.92.07,6.6,6.6,0,0,0-2.28.4,18.54,18.54,0,0,0-2.89,1.44c-1.19.7-2.83,1.74-4.92,3.14q-2.16,1.41-4,2.55a20.24,20.24,0,0,1-2.68,1.45,6.52,6.52,0,0,1-2.46.55,4.31,4.31,0,0,1-2.92-1.35c-1-.9-1.77-3-2.43-6.4a15.69,15.69,0,0,1-.31-1.6v-.55a5,5,0,0,1,0-.53,2.71,2.71,0,0,1,.22-.7,3.72,3.72,0,0,1,.52-.86,3.9,3.9,0,0,1,.65-.68,10.46,10.46,0,0,1,1.72-.52c.9-.23,1.91-.47,3-.71,4.23-.74,7.25-1.31,9.08-1.72a20.51,20.51,0,0,0,3.78-1.11q4.92-2.4,4.92-6.59a7.82,7.82,0,0,0-.24-1.84,6.69,6.69,0,0,0-3.51-4.06,5.63,5.63,0,0,0-3-.68c-.25,0-.86,0-1.85.16a66.11,66.11,0,0,0-6.7,1.44q-3.51.87-5.36,1.17a13.34,13.34,0,0,1-2.27.25,6.41,6.41,0,0,1-.8-.07,1.45,1.45,0,0,1-1-.61,2.39,2.39,0,0,1-.52-.74,3.88,3.88,0,0,1-.21-1.11c0-.49-.09-1.23-.13-2.21v-1.54c0-1.23,0-3.09.06-5.6s.12-5.45.22-8.86.2-6.38.31-8.95a32,32,0,0,1,.34-4.52,3.65,3.65,0,0,1,2.83-2.52,23.45,23.45,0,0,1,2.61-.31c1.42-.12,3-.23,4.83-.31,3.61-.16,6.39-.31,8.34-.43a38.62,38.62,0,0,0,4.27-.43,10.72,10.72,0,0,0,2.09-.55,6.91,6.91,0,0,0,4.06-4.86,5.71,5.71,0,0,0,.13-1.23,6.79,6.79,0,0,0-2-4.74,6.24,6.24,0,0,0-3-1.79,21.27,21.27,0,0,0-4.61-.36h-.92a71,71,0,0,0-7.39.43c-2.74.28-6.25.76-10.52,1.41q-3.87.62-6,1.08a12.55,12.55,0,0,0-3.17,1,8,8,0,0,0-2,1.57A6.33,6.33,0,0,0,77.52,695a21.25,21.25,0,0,0-1,4.55q-.44,3.13-1,9.11-1.29,14.09-1.29,25.78a149.47,149.47,0,0,0,1.54,22.7Q79.12,777,90.38,779.93a17.32,17.32,0,0,0,3.87.43,26.16,26.16,0,0,0,10.83-2.64q1.67-.87,4.77-2.83c2.07-1.31,4.07-2.64,6-4a48,48,0,0,0,4-3A6.58,6.58,0,0,0,122.12,763Zm99.73,9.6a33.75,33.75,0,0,1-4.64,1.94,32.37,32.37,0,0,1-5.08,1.14c-1,.16-2,.36-2.95.58s-1.74.42-2.28.58a12.63,12.63,0,0,1-3.5.56,7.22,7.22,0,0,1-3-.62,8,8,0,0,1-3.63-4.67q-.3-1.17-1.17-6.65t-1.75-12.15q-.9-6.68-1.45-11.47c-.73-6.44-1.22-11.7-1.44-15.78s-.34-9.45-.34-16.09V703.4c0-1.68,0-3,0-4s.06-1.73.12-2.25A8.54,8.54,0,0,1,191,696a7.2,7.2,0,0,1,.31-.83,6.8,6.8,0,0,1,3-3.44,15.7,15.7,0,0,1,6-1.36c1.31-.12,2.64-.18,4-.18a61.2,61.2,0,0,1,16.55,2.52q9.6,2.71,15.41,7.23a30.74,30.74,0,0,1,9.14,11.91,42.28,42.28,0,0,1,1.72,32.54,50.77,50.77,0,0,1-10,16.46A50.07,50.07,0,0,1,221.85,772.55Zm13.45-42.33a25.34,25.34,0,0,0-.71-6.64q-2.78-10.89-10.21-14.52a44.88,44.88,0,0,0-9.39-3.32,35.57,35.57,0,0,0-7.29-1.17,6.58,6.58,0,0,0-1.66.18c-1.39.33-2.09,1.52-2.09,3.57q0,.55.06,1.17c0,.74.13,2.16.28,4.27s.3,4.44.46,7q.5,7.68,1.17,14.3t1.66,14.31c.33,2.46.59,4.42.8,5.87s.38,2.56.52,3.32a6.14,6.14,0,0,0,.5,1.66,3.82,3.82,0,0,0,.64.9,2.36,2.36,0,0,0,1.79.8H212a7.67,7.67,0,0,0,3-1,42.25,42.25,0,0,0,9.91-7.81q7.56-7.32,9.72-15.94A30.15,30.15,0,0,0,235.3,730.22ZM306.88,763a4.71,4.71,0,0,0-.06-.74,5.78,5.78,0,0,0-3.51-5.23,5.08,5.08,0,0,0-1.6-.67,3.63,3.63,0,0,0-1-.13,7.86,7.86,0,0,0-.93.07,6.54,6.54,0,0,0-2.27.4,18.12,18.12,0,0,0-2.89,1.44c-1.19.7-2.83,1.74-4.93,3.14-1.43.94-2.78,1.79-4,2.55a21,21,0,0,1-2.67,1.45,6.52,6.52,0,0,1-2.46.55,4.33,4.33,0,0,1-2.93-1.35c-1-.9-1.77-3-2.43-6.4a15.08,15.08,0,0,1-.3-1.6v-.55a5,5,0,0,1,0-.53,2.62,2.62,0,0,1,.21-.7,3.78,3.78,0,0,1,.53-.86,3.88,3.88,0,0,1,.64-.68,10.81,10.81,0,0,1,1.72-.52c.91-.23,1.91-.47,3-.71,4.22-.74,7.25-1.31,9.07-1.72a20.68,20.68,0,0,0,3.79-1.11q4.92-2.4,4.92-6.59a7.37,7.37,0,0,0-.25-1.84,6.67,6.67,0,0,0-3.5-4.06,5.66,5.66,0,0,0-3-.68c-.24,0-.86,0-1.84.16a66.08,66.08,0,0,0-6.71,1.44q-3.51.87-5.35,1.17a13.34,13.34,0,0,1-2.28.25,6.56,6.56,0,0,1-.8-.07,1.43,1.43,0,0,1-1-.61,2.23,2.23,0,0,1-.52-.74,3.51,3.51,0,0,1-.22-1.11c0-.49-.08-1.23-.12-2.21v-1.54c0-1.23,0-3.09.06-5.6s.11-5.45.21-8.86.21-6.38.31-8.95a33.82,33.82,0,0,1,.34-4.52,3.66,3.66,0,0,1,2.83-2.52,23.77,23.77,0,0,1,2.62-.31c1.41-.12,3-.23,4.82-.31,3.61-.16,6.39-.31,8.34-.43a38.86,38.86,0,0,0,4.28-.43,10.72,10.72,0,0,0,2.09-.55,6.94,6.94,0,0,0,4.06-4.86,6.41,6.41,0,0,0,.12-1.23,6.74,6.74,0,0,0-2-4.74,6.21,6.21,0,0,0-2.95-1.79,21.37,21.37,0,0,0-4.62-.36h-.92a71,71,0,0,0-7.38.43c-2.75.28-6.26.76-10.52,1.41q-3.88.62-6,1.08a12.83,12.83,0,0,0-3.17,1,8.14,8.14,0,0,0-2,1.57,6.45,6.45,0,0,0-1.54,2.34,22.57,22.57,0,0,0-1,4.55c-.29,2.09-.61,5.13-1,9.11Q259,722.78,259,734.47a150.77,150.77,0,0,0,1.54,22.7q3.33,19.82,14.58,22.76a17.41,17.41,0,0,0,3.88.43,26.23,26.23,0,0,0,10.83-2.64q1.65-.87,4.77-2.83c2.07-1.31,4.07-2.64,6-4a48,48,0,0,0,4-3A6.56,6.56,0,0,0,306.88,763Zm39.5-58a13.26,13.26,0,0,1,2.95-2.34,12.68,12.68,0,0,1,3.38-1.17q3.71-.68,5-2.71a5.9,5.9,0,0,0,1.1-3.32,8.54,8.54,0,0,0-.83-3.08q-.83-2-4.15-3.13a11,11,0,0,0-3.26-.5q-7.32,0-16.61,9.54Q322.13,710.61,315,731a71.32,71.32,0,0,0-3,10.55,48.94,48.94,0,0,0-.87,9.26v.37q0,12.18,7.51,20.18a21.83,21.83,0,0,0,13.66,7.26,22.92,22.92,0,0,0,2.34.12,24.3,24.3,0,0,0,8.92-1.84,46.39,46.39,0,0,0,7.66-4.25,25.67,25.67,0,0,0,5.5-4.55,7.88,7.88,0,0,0,1.42-4.25,6.56,6.56,0,0,0-1.6-4.18,6.27,6.27,0,0,0-5.17-2.28,7.55,7.55,0,0,0-3,.59,30.52,30.52,0,0,0-4.28,2.49,35.88,35.88,0,0,1-5,2.89,10.12,10.12,0,0,1-3.7.93,4.49,4.49,0,0,1-.73.06A7.41,7.41,0,0,1,329,761.6q-3.77-4.07-3.76-11,0-10,7.69-25.78Q339.18,712.32,346.38,705Zm31.44-14.71a29.46,29.46,0,0,1,5.41-.43q1.11,0,2.28.06A53.31,53.31,0,0,1,394.3,691q22.09,5.16,24.49,38.14c.08,1.4.12,2.79.12,4.19a71.26,71.26,0,0,1-2.64,19.32,54.55,54.55,0,0,1-9.54,19.44,25.32,25.32,0,0,1-11.07,8.36,14,14,0,0,1-2.59.74,23.15,23.15,0,0,1-3.13.25h-1.42a16.19,16.19,0,0,1-3.63-.31q-7.56-2-13.38-9.23a46.5,46.5,0,0,1-8.58-18,84.76,84.76,0,0,1-2-18.58,95.66,95.66,0,0,1,3.32-24.61A63.92,63.92,0,0,1,369,698.6a20.63,20.63,0,0,1,4-5.85A10.13,10.13,0,0,1,377.82,690.29ZM380,706.41a43.84,43.84,0,0,0-2.55,8.65,115,115,0,0,0-2,12.21q-.44,4.49-.43,8.55,0,14.08,5.1,23.63,4.44,7.62,9.05,7.62a6.33,6.33,0,0,0,3.14-.86q3.69-2.15,7.25-9.23,4.44-9.16,4.83-15.59c.27-4.29.4-7,.4-8.15A52.61,52.61,0,0,0,402,715.89q-2.14-6.28-6-9t-10.34-2.7h-.31a10,10,0,0,0-3.6.46A3.36,3.36,0,0,0,380,706.41Zm102.13,24.37q.24-4.44.37-12.12t.12-14.46q0-6.76-.18-8.43a8,8,0,0,0-3.2-5.66,3.66,3.66,0,0,0-1.42-.74,12.39,12.39,0,0,0-2.09-.12,10.92,10.92,0,0,0-2.18.15,5,5,0,0,0-1.51.71q-2.83,1.73-3.38,6c-.09.65-.15,2.33-.19,5s-.06,5.63-.06,8.83q-.12,57.35-12.18,57.34c-1.68,0-3.37-1-5.05-2.89a19.11,19.11,0,0,1-3.81-7.38q-3.57-11.82-4.06-42.15c-.08-4.06-.18-7.58-.28-10.58s-.17-4.76-.21-5.29q-.44-4.42-3.76-5.91a5.8,5.8,0,0,0-2.4-.55,6.84,6.84,0,0,0-2.86.83,6.36,6.36,0,0,0-2.8,3.54,9.45,9.45,0,0,0-.43,1.72c-.12.74-.23,1.88-.34,3.42s-.23,3.68-.4,6.42q-.42,7.14-.43,13.66,0,7.7.62,14.52,1.35,16.25,4,24.92t7.81,13.6a23.79,23.79,0,0,0,11.51,6.58,17.94,17.94,0,0,0,3.2.31q7,0,13.28-6.09,5.61-5.29,8.62-17.23Q481.05,749,482.16,730.78Zm65-37.1a6.48,6.48,0,0,0-5.6-3.14,8.76,8.76,0,0,0-1.41.12,7.15,7.15,0,0,0-5.36,5.42c-.08.37-.2,1.37-.37,3s-.34,3.51-.55,5.6-.37,4.61-.61,7.32-.48,5.09-.68,7.14a3.15,3.15,0,0,1-.06.61q-.31,3.27-.83,8.34l-1,9.87q-1,10.34-1.66,15.2a43.51,43.51,0,0,1-1.35,6.89,12,12,0,0,1-1,2.49,2.84,2.84,0,0,1-1.17,1.08,1.63,1.63,0,0,1-.8.24,1.8,1.8,0,0,1-.37-.06,3.72,3.72,0,0,1-1-.8q-2-1.85-4.8-8.21a121.22,121.22,0,0,1-5.17-14.06q-1.29-4.43-2.55-9.9t-3.42-16.18q-1.1-5.61-2-9.75t-1.13-4.9q-1.85-4.66-5.91-4.67a5.81,5.81,0,0,0-5.35,3.38,8.54,8.54,0,0,0-.74,4.06,36.39,36.39,0,0,0,.49,5.42.24.24,0,0,1,.06.18c.17,1.23.36,2.68.59,4.34s.42,3.17.58,4.52A164.75,164.75,0,0,0,499.08,742q4.55,16.13,10.4,26.06t12,12.21a7.33,7.33,0,0,0,1.79.43q.62.06,1.47.06h.86a11.92,11.92,0,0,0,2.56-.21,10.08,10.08,0,0,0,2-.77q9.47-4.8,12.55-22.09c.16-1.1.4-3,.71-5.53s.6-5.3.89-8.13q1.41-13.89,2.15-21.47l1.11-11.41c.24-2.56.43-4.75.55-6.55q.32-3.81.31-6c0-.45,0-1.14-.12-2.06A6.23,6.23,0,0,0,547.19,693.68Zm27.69,86.25a17.32,17.32,0,0,0,3.87.43,26.23,26.23,0,0,0,10.83-2.64q1.67-.87,4.77-2.83c2.07-1.31,4.07-2.64,6-4a47.38,47.38,0,0,0,4-3,6.56,6.56,0,0,0,2.28-5,4.71,4.71,0,0,0-.06-.74,5.77,5.77,0,0,0-3.51-5.23,5.08,5.08,0,0,0-1.6-.67,3.58,3.58,0,0,0-1-.13,7.55,7.55,0,0,0-.92.07,6.6,6.6,0,0,0-2.28.4,18.54,18.54,0,0,0-2.89,1.44c-1.19.7-2.83,1.74-4.92,3.14q-2.16,1.41-4,2.55a20.9,20.9,0,0,1-2.68,1.45,6.52,6.52,0,0,1-2.46.55,4.29,4.29,0,0,1-2.92-1.35c-1-.9-1.78-3-2.43-6.4a13.31,13.31,0,0,1-.31-1.6v-.55a5,5,0,0,1,0-.53,2.37,2.37,0,0,1,.22-.7,3.4,3.4,0,0,1,.52-.86,3.88,3.88,0,0,1,.64-.68,10.7,10.7,0,0,1,1.73-.52c.9-.23,1.9-.47,3-.71,4.23-.74,7.25-1.31,9.08-1.72a20.77,20.77,0,0,0,3.78-1.11q4.92-2.4,4.92-6.59a7.82,7.82,0,0,0-.24-1.84,6.72,6.72,0,0,0-3.51-4.06,5.63,5.63,0,0,0-2.95-.68c-.25,0-.87,0-1.85.16a66.67,66.67,0,0,0-6.71,1.44c-2.33.58-4.12,1-5.35,1.17a13.34,13.34,0,0,1-2.27.25,6.26,6.26,0,0,1-.8-.07,1.45,1.45,0,0,1-1-.61,2.23,2.23,0,0,1-.52-.74,3.51,3.51,0,0,1-.22-1.11c0-.49-.08-1.23-.12-2.21v-1.54c0-1.23,0-3.09.06-5.6s.11-5.45.22-8.86.2-6.38.3-8.95a35.82,35.82,0,0,1,.34-4.52,3.66,3.66,0,0,1,2.83-2.52,23.77,23.77,0,0,1,2.62-.31c1.41-.12,3-.23,4.83-.31,3.61-.16,6.38-.31,8.33-.43a38.59,38.59,0,0,0,4.28-.43,10.72,10.72,0,0,0,2.09-.55,6.91,6.91,0,0,0,4.06-4.86,6.41,6.41,0,0,0,.12-1.23,6.74,6.74,0,0,0-2-4.74,6.21,6.21,0,0,0-3-1.79,21.27,21.27,0,0,0-4.61-.36h-.93a71,71,0,0,0-7.38.43c-2.75.28-6.25.76-10.52,1.41q-3.87.62-6,1.08a12.83,12.83,0,0,0-3.17,1,8.33,8.33,0,0,0-2,1.57A6.43,6.43,0,0,0,562,695a21.75,21.75,0,0,0-1,4.55c-.29,2.09-.61,5.13-1,9.11q-1.29,14.09-1.29,25.78a150.87,150.87,0,0,0,1.53,22.7Q563.62,777,574.88,779.93Zm55.43-18.15a6.51,6.51,0,0,0-.25,1.73,30,30,0,0,0,.56,4.79c.41,2.43.63,4,.67,4.74s.06,1.25.06,1.54a6.59,6.59,0,0,1-.3,2.15,5.91,5.91,0,0,1-1.36,2.28,7.65,7.65,0,0,1-2.27,1.78,7.39,7.39,0,0,1-2.77.5,7.66,7.66,0,0,1-2.77-.5,8,8,0,0,1-3.63-3.87q-1.61-4.12-3.42-18.83t-2.92-32.18c-.2-3.28-.31-5.7-.31-7.25v-3.39c0-2.17,0-4.76.13-7.75q.12-5.65.31-8.27a9.65,9.65,0,0,1,.73-3.63,7.1,7.1,0,0,1,1.73-2q3.43-3.21,12.36-3.51c.62,0,1.21-.06,1.79-.06q12.54,0,21.59,6.58A23.11,23.11,0,0,1,659,710.9a27.68,27.68,0,0,1,.37,4.43q0,12.25-10.65,25l-2,2.37c-.67.8-1.2,1.41-1.56,1.82a3.8,3.8,0,0,0-1.24,2.4,1.64,1.64,0,0,0,.68,1.29c.49.45,2.17,1.07,5,1.84a31.07,31.07,0,0,1,8.36,3.26,7.4,7.4,0,0,1,3.33,4.19,8.06,8.06,0,0,1,.24,1.91,6.39,6.39,0,0,1-4,6,5.47,5.47,0,0,1-2.34.43,21.54,21.54,0,0,1-5.9-1.1c-1.85-.58-4-1.15-6.34-1.73s-4.57-1.07-6.58-1.5a25.32,25.32,0,0,0-3.88-.65C631.21,760.86,630.47,761.17,630.31,761.78Zm-.19-22.95a10.53,10.53,0,0,0,2.49-2q1.75-1.67,3.7-3.76a44.54,44.54,0,0,0,3.16-3.75,37.66,37.66,0,0,0,3.14-5.17,26.85,26.85,0,0,0,2-4.86,15.79,15.79,0,0,0,.43-3.75,10.92,10.92,0,0,0-.49-3.45,10.51,10.51,0,0,0-4.86-5.38,24.7,24.7,0,0,0-9.23-3.11,13,13,0,0,0-1.54-.18h-.55a3.58,3.58,0,0,0-.68.06,3.8,3.8,0,0,0-.92.31.7.7,0,0,1-.18.12,2.23,2.23,0,0,0-1,.74,2.56,2.56,0,0,0-.4,1.48c0,.65,0,1.21,0,1.66,0,.9,0,2.07.06,3.5.12,2.18.31,5.17.56,9,0,.57,0,1.17.06,1.78.24,3.73.44,6.7.58,8.89s.3,3.84.46,4.92a9.73,9.73,0,0,0,.53,2.25,1.49,1.49,0,0,0,.7.8.92.92,0,0,0,.5.24h.61Zm85.27-49.09a6.84,6.84,0,0,0-1.29-.37,16,16,0,0,0-2.21-.15q-1.54,0-4.68,0a260.82,260.82,0,0,0-35.31,3,24,24,0,0,0-6.25,1.57,6.19,6.19,0,0,0-3,2.68,6.28,6.28,0,0,0-.8,3,9.09,9.09,0,0,0,.55,2.62,5.07,5.07,0,0,0,3.08,2.79,7.38,7.38,0,0,0,3,.43h.62c1.35,0,3.2-.1,5.53-.3,1.28-.08,2.34-.13,3.2-.13a14.22,14.22,0,0,1,2,.16,2.11,2.11,0,0,1,1.6,1.14,1.62,1.62,0,0,1,.28.7,10.67,10.67,0,0,1,.12,1.54c0,.72,0,1.77,0,3.14v8.89a362.49,362.49,0,0,0,2.83,44.3A69.77,69.77,0,0,0,687,777c.8,2.32,2,3.8,3.6,4.46a7.08,7.08,0,0,0,2.95.68,11.66,11.66,0,0,0,2.31-.37,5.83,5.83,0,0,0,3-2.22,5.64,5.64,0,0,0,1.35-3.32,5.8,5.8,0,0,0,.06-.92,33.54,33.54,0,0,0-.55-5.17q-3.21-19.56-4-51.13c-.08-2.87-.15-5.16-.19-6.89s-.06-3-.06-3.87a13.85,13.85,0,0,1,.09-1.88,2.83,2.83,0,0,1,.28-.89,2.43,2.43,0,0,1,1-1.23,6.33,6.33,0,0,1,2.43-.62c1.15-.12,2.83-.24,5-.37,2.42-.08,4.32-.17,5.69-.27s2.4-.21,3.08-.31a7.52,7.52,0,0,0,1.75-.46q4.5-2.1,4.68-6.09v-.25Q719.58,692,715.39,689.74Zm18.15.34a12.59,12.59,0,0,0-3.16,1,8,8,0,0,0-2,1.57,6.33,6.33,0,0,0-1.54,2.34,21.75,21.75,0,0,0-1,4.55q-.42,3.13-1,9.11-1.29,14.09-1.29,25.78a149.47,149.47,0,0,0,1.54,22.7q3.32,19.82,14.58,22.76a17.32,17.32,0,0,0,3.87.43,26.19,26.19,0,0,0,10.83-2.64q1.67-.87,4.77-2.83c2.07-1.31,4.07-2.64,6-4a49.83,49.83,0,0,0,4-3,6.58,6.58,0,0,0,2.27-5,4.71,4.71,0,0,0-.06-.74,5.77,5.77,0,0,0-3.51-5.23,5,5,0,0,0-1.6-.67,3.58,3.58,0,0,0-1-.13,7.7,7.7,0,0,0-.92.07,6.6,6.6,0,0,0-2.28.4,18.54,18.54,0,0,0-2.89,1.44c-1.19.7-2.83,1.74-4.92,3.14q-2.16,1.41-4,2.55a20.9,20.9,0,0,1-2.68,1.45,6.52,6.52,0,0,1-2.46.55,4.31,4.31,0,0,1-2.92-1.35c-1-.9-1.78-3-2.43-6.4a13.31,13.31,0,0,1-.31-1.6v-.55a5,5,0,0,1,0-.53,2.37,2.37,0,0,1,.22-.7,3.4,3.4,0,0,1,.52-.86,3.56,3.56,0,0,1,.65-.68,10.46,10.46,0,0,1,1.72-.52c.9-.23,1.91-.47,3-.71,4.23-.74,7.25-1.31,9.08-1.72a20.77,20.77,0,0,0,3.78-1.11q4.92-2.4,4.92-6.59a7.82,7.82,0,0,0-.24-1.84,6.72,6.72,0,0,0-3.51-4.06,5.63,5.63,0,0,0-3-.68c-.25,0-.86,0-1.85.16a66.11,66.11,0,0,0-6.7,1.44q-3.51.87-5.36,1.17a13.34,13.34,0,0,1-2.27.25,6.41,6.41,0,0,1-.8-.07,1.45,1.45,0,0,1-1-.61,2.39,2.39,0,0,1-.52-.74,3.82,3.82,0,0,1-.22-1.11c0-.49-.08-1.23-.12-2.21v-1.54c0-1.23,0-3.09.06-5.6s.11-5.45.22-8.86.2-6.38.31-8.95a34.71,34.71,0,0,1,.33-4.52,3.66,3.66,0,0,1,2.83-2.52,23.77,23.77,0,0,1,2.62-.31c1.41-.12,3-.23,4.83-.31,3.61-.16,6.39-.31,8.33-.43a38.59,38.59,0,0,0,4.28-.43,10.72,10.72,0,0,0,2.09-.55,6.91,6.91,0,0,0,4.06-4.86,6.42,6.42,0,0,0,.13-1.23,6.79,6.79,0,0,0-2-4.74,6.29,6.29,0,0,0-3-1.79,21.27,21.27,0,0,0-4.61-.36h-.92a71,71,0,0,0-7.39.43c-2.75.28-6.25.76-10.52,1.41Q735.64,689.62,733.54,690.08Zm69,91.43a21,21,0,0,0,.26-3.34,30.73,30.73,0,0,0-3.34-13.36q-3.08-5.53-7.82-6.24a13.2,13.2,0,0,0-1.49-.09,7,7,0,0,0-5.89,3,6.27,6.27,0,0,0-1.14,3.78,17.37,17.37,0,0,0,1.93,7.12,14.76,14.76,0,0,1,1.85,6.67,8.69,8.69,0,0,1-.18,1.76,16,16,0,0,1-1.14,3.91,18.26,18.26,0,0,1-2.38,3.83,8.62,8.62,0,0,0-1.84,4.83,6.85,6.85,0,0,0,1.32,3.47q1.32,2.07,5.53,2.24h.36q4,0,7.91-4.13A26,26,0,0,0,802.52,781.51Zm86.2-4.78a8,8,0,0,1-3.63-4.67q-.3-1.17-1.16-6.65t-1.76-12.15c-.59-4.45-1.08-8.27-1.44-11.47q-1.11-9.66-1.45-15.78t-.34-16.09V703.4c0-1.68,0-3,0-4a21.47,21.47,0,0,1,.13-2.25,7.44,7.44,0,0,1,.21-1.17c.08-.26.19-.54.31-.83a6.85,6.85,0,0,1,3-3.44,15.7,15.7,0,0,1,6-1.36c1.31-.12,2.65-.18,4-.18a61.2,61.2,0,0,1,16.55,2.52q9.6,2.71,15.41,7.23a30.74,30.74,0,0,1,9.14,11.91,42.28,42.28,0,0,1,1.72,32.54,50.6,50.6,0,0,1-10,16.46,50,50,0,0,1-15.22,11.72,33.84,33.84,0,0,1-4.65,1.94,32.37,32.37,0,0,1-5.08,1.14c-1,.16-2,.36-3,.58s-1.74.42-2.27.58a12.75,12.75,0,0,1-3.51.56A7.25,7.25,0,0,1,888.72,776.73Zm3.57-68.41q0,.55.06,1.17c0,.74.14,2.16.28,4.27s.3,4.44.46,7q.49,7.68,1.17,14.3t1.66,14.31q.5,3.69.8,5.87c.21,1.46.38,2.56.52,3.32a6.14,6.14,0,0,0,.5,1.66,3.82,3.82,0,0,0,.64.9,2.37,2.37,0,0,0,1.79.8h.12a7.67,7.67,0,0,0,3-1,42.25,42.25,0,0,0,9.91-7.81q7.56-7.32,9.72-15.94a30.15,30.15,0,0,0,.77-6.89,25.34,25.34,0,0,0-.71-6.64q-2.76-10.89-10.21-14.52a45,45,0,0,0-9.38-3.32,35.77,35.77,0,0,0-7.29-1.17,6.61,6.61,0,0,0-1.67.18C893,705.08,892.29,706.27,892.29,708.32Zm71.18,71.61a17.41,17.41,0,0,0,3.88.43,26.23,26.23,0,0,0,10.83-2.64c1.11-.58,2.69-1.52,4.77-2.83s4.07-2.64,6-4a46.32,46.32,0,0,0,4-3,6.56,6.56,0,0,0,2.28-5,4.71,4.71,0,0,0-.06-.74,5.77,5.77,0,0,0-3.51-5.23,5.08,5.08,0,0,0-1.6-.67,3.63,3.63,0,0,0-1-.13,7.86,7.86,0,0,0-.93.07,6.58,6.58,0,0,0-2.27.4,18.54,18.54,0,0,0-2.89,1.44c-1.19.7-2.83,1.74-4.93,3.14q-2.14,1.41-4,2.55a21,21,0,0,1-2.67,1.45,6.52,6.52,0,0,1-2.46.55,4.29,4.29,0,0,1-2.92-1.35c-1-.9-1.78-3-2.43-6.4a13.31,13.31,0,0,1-.31-1.6v-.55a5,5,0,0,1,0-.53,2.62,2.62,0,0,1,.21-.7,3.78,3.78,0,0,1,.53-.86,3.88,3.88,0,0,1,.64-.68,10.7,10.7,0,0,1,1.73-.52c.9-.23,1.9-.47,3-.71,4.22-.74,7.25-1.31,9.07-1.72a20.68,20.68,0,0,0,3.79-1.11q4.92-2.4,4.92-6.59a7.37,7.37,0,0,0-.25-1.84,6.67,6.67,0,0,0-3.5-4.06,5.66,5.66,0,0,0-3-.68c-.24,0-.86,0-1.84.16a66.08,66.08,0,0,0-6.71,1.44q-3.51.87-5.35,1.17a13.34,13.34,0,0,1-2.28.25,6.56,6.56,0,0,1-.8-.07,1.43,1.43,0,0,1-1-.61,2.23,2.23,0,0,1-.52-.74,3.51,3.51,0,0,1-.22-1.11c0-.49-.08-1.23-.12-2.21v-1.54c0-1.23,0-3.09.06-5.6s.11-5.45.22-8.86.2-6.38.3-8.95a33.82,33.82,0,0,1,.34-4.52,3.66,3.66,0,0,1,2.83-2.52,23.77,23.77,0,0,1,2.62-.31c1.41-.12,3-.23,4.83-.31,3.6-.16,6.38-.31,8.33-.43a38.59,38.59,0,0,0,4.28-.43,10.72,10.72,0,0,0,2.09-.55,6.94,6.94,0,0,0,4.06-4.86,6.41,6.41,0,0,0,.12-1.23,6.74,6.74,0,0,0-2-4.74,6.21,6.21,0,0,0-2.95-1.79,21.27,21.27,0,0,0-4.61-.36h-.93a71,71,0,0,0-7.38.43c-2.75.28-6.26.76-10.52,1.41q-3.87.62-6,1.08a12.83,12.83,0,0,0-3.17,1,8.14,8.14,0,0,0-2,1.57,6.31,6.31,0,0,0-1.53,2.34,21.75,21.75,0,0,0-1,4.55c-.29,2.09-.61,5.13-1,9.11q-1.29,14.09-1.3,25.78a150.77,150.77,0,0,0,1.54,22.7Q952.22,777,963.47,779.93ZM55.31,978.21a6.61,6.61,0,0,1-3.38,3.2,5.53,5.53,0,0,1-2.34.43,21.54,21.54,0,0,1-5.91-1.1c-1.84-.58-4-1.15-6.34-1.73s-4.57-1.07-6.58-1.5a25.46,25.46,0,0,0-3.87-.65c-1.32,0-2.06.31-2.22.92a6.91,6.91,0,0,0-.24,1.73A29.7,29.7,0,0,0,25,984.3c.41,2.43.63,4,.68,4.74s.06,1.25.06,1.54a6.56,6.56,0,0,1-.31,2.15A6,6,0,0,1,24.06,995a7.69,7.69,0,0,1-2.28,1.78,7.35,7.35,0,0,1-2.77.5,7.69,7.69,0,0,1-2.77-.5,8,8,0,0,1-3.63-3.87Q11,988.8,9.2,974.09T6.28,941.91Q6,937,6,934.66v-3.39c0-2.17,0-4.76.12-7.75.08-3.77.19-6.53.31-8.28a9.6,9.6,0,0,1,.74-3.62,7,7,0,0,1,1.72-2q3.45-3.21,12.37-3.51c.61,0,1.21-.06,1.78-.06q12.55,0,21.59,6.58a23.11,23.11,0,0,1,8.74,14.27,26.58,26.58,0,0,1,.37,4.43q0,12.25-10.64,25l-2,2.37c-.68.8-1.2,1.41-1.57,1.82a3.83,3.83,0,0,0-1.23,2.4,1.63,1.63,0,0,0,.67,1.29c.5.45,2.18,1.07,5.05,1.84a31.3,31.3,0,0,1,8.37,3.26,7.38,7.38,0,0,1,3.32,4.19,8,8,0,0,1,.25,1.91A6.6,6.6,0,0,1,55.31,978.21ZM39,935.33a16.32,16.32,0,0,0,.43-3.75,10.91,10.91,0,0,0-.5-3.45,10.42,10.42,0,0,0-4.86-5.38,24.71,24.71,0,0,0-9.22-3.11,13.19,13.19,0,0,0-1.54-.18h-.56a3.48,3.48,0,0,0-.67.06,3.72,3.72,0,0,0-.93.31A.7.7,0,0,1,21,920a2.28,2.28,0,0,0-1.05.74,2.64,2.64,0,0,0-.4,1.48c0,.65,0,1.21,0,1.66,0,.9,0,2.07.06,3.5.13,2.18.31,5.17.56,9,0,.57,0,1.17.06,1.78.25,3.73.44,6.7.58,8.89s.3,3.84.47,4.92a9.34,9.34,0,0,0,.52,2.25,1.46,1.46,0,0,0,.71.8.9.9,0,0,0,.49.24h.61l.93-.37a11,11,0,0,0,2.49-2q1.75-1.67,3.69-3.76a44.86,44.86,0,0,0,3.17-3.75A38.68,38.68,0,0,0,37,940.19,27.91,27.91,0,0,0,39,935.33ZM109.14,973a5.08,5.08,0,0,0-1.6-.67,3.58,3.58,0,0,0-1-.13,7.55,7.55,0,0,0-.92.07,6.6,6.6,0,0,0-2.28.4,17.68,17.68,0,0,0-2.89,1.44q-1.78,1-4.92,3.14-2.16,1.41-4,2.55a21.6,21.6,0,0,1-2.68,1.45,6.52,6.52,0,0,1-2.46.55,4.29,4.29,0,0,1-2.92-1.35c-1-.9-1.78-3-2.43-6.4a13.31,13.31,0,0,1-.31-1.6v-.55a5,5,0,0,1,0-.53,2.37,2.37,0,0,1,.22-.7,3.4,3.4,0,0,1,.52-.86,3.88,3.88,0,0,1,.64-.68,10.7,10.7,0,0,1,1.73-.52c.9-.23,1.9-.47,3-.71,4.23-.74,7.25-1.31,9.08-1.72a20.77,20.77,0,0,0,3.78-1.11q4.92-2.4,4.92-6.59a7.82,7.82,0,0,0-.24-1.84,6.72,6.72,0,0,0-3.51-4.06,5.63,5.63,0,0,0-3-.68c-.25,0-.87,0-1.85.16a66.67,66.67,0,0,0-6.71,1.44c-2.33.58-4.12,1-5.35,1.17a14.44,14.44,0,0,1-2.28.25,6.29,6.29,0,0,1-.79-.07,1.45,1.45,0,0,1-1-.61,2.23,2.23,0,0,1-.52-.74,3.51,3.51,0,0,1-.22-1.11c0-.49-.08-1.23-.12-2.21v-1.54c0-1.23,0-3.1.06-5.6s.11-5.45.22-8.86.2-6.38.3-8.95a35.82,35.82,0,0,1,.34-4.52,3.66,3.66,0,0,1,2.83-2.52,21.38,21.38,0,0,1,2.62-.31c1.41-.12,3-.23,4.83-.31,3.61-.16,6.38-.31,8.33-.43a41.23,41.23,0,0,0,4.28-.43,10.72,10.72,0,0,0,2.09-.55,6.91,6.91,0,0,0,4.06-4.86,6.41,6.41,0,0,0,.12-1.23,6.74,6.74,0,0,0-2-4.74,6.21,6.21,0,0,0-3-1.79,21.27,21.27,0,0,0-4.61-.36h-.93a71,71,0,0,0-7.38.43c-2.75.28-6.25.76-10.52,1.41q-3.87.62-6,1.08a12.43,12.43,0,0,0-3.17,1,8.33,8.33,0,0,0-2,1.57A6.43,6.43,0,0,0,68.11,911a21.75,21.75,0,0,0-1,4.55c-.29,2.09-.61,5.13-1,9.11q-1.29,14.09-1.29,25.78a150.87,150.87,0,0,0,1.53,22.7Q69.71,993,81,995.93a17.32,17.32,0,0,0,3.87.43,26.23,26.23,0,0,0,10.83-2.64q1.67-.87,4.77-2.83c2.07-1.31,4.07-2.64,6-4a47.38,47.38,0,0,0,4-3,6.56,6.56,0,0,0,2.28-5,4.71,4.71,0,0,0-.06-.74A5.77,5.77,0,0,0,109.14,973Zm65.53-49.52c.28-4.43.47-7.86.55-10.28v-.86a20,20,0,0,0-.4-4.61,6.3,6.3,0,0,0-1.39-2.71,6.7,6.7,0,0,0-4.79-2.46h-.31a6.75,6.75,0,0,0-4.74,2,6.36,6.36,0,0,0-1.69,2.8,22.31,22.31,0,0,0-.71,5.07q-.3,4.38-.77,11.23t-.83,12.83q-.18,2.89-.4,7.75t-.34,9.48c-.08,2.74-.16,5-.24,6.61s-.18,2.94-.28,3.84a7.23,7.23,0,0,1-.4,1.91,1.79,1.79,0,0,1-.61.8.7.7,0,0,1-.37.12.73.73,0,0,1-.34-.12,4.14,4.14,0,0,1-.77-.74,14,14,0,0,1-.86-1.32,16.12,16.12,0,0,1-.86-1.63c-.21-.57-.58-1.49-1.11-2.74s-1.09-2.55-1.66-3.9Q148.21,949,140.89,929a152.26,152.26,0,0,0-6.37-15.66c-1.5-2.89-3-4.55-4.4-5a7.33,7.33,0,0,0-2.27-.36,10.38,10.38,0,0,0-4.13,1.07,7.72,7.72,0,0,0-3.75,3.79,9.39,9.39,0,0,0-.49,1.63,17.4,17.4,0,0,0-.37,2.18c-.12,1.52-.21,4.61-.25,9.29q-.06,4.74-.06,9.6,0,2.46.06,7.5c0,3.37.13,6.32.25,8.86.12,1.73.29,4.26.49,7.6s.41,6.7.62,10.06q.48,8.49.86,13.14c.24,3.09.47,5.35.68,6.76a11.06,11.06,0,0,0,.79,3.11,7.28,7.28,0,0,0,4.19,4.06,6.38,6.38,0,0,0,2,.31,8.55,8.55,0,0,0,2.55-.53,6.59,6.59,0,0,0,3-2.24A6.07,6.07,0,0,0,135.6,991c0-.45.06-1,.06-1.6,0-1.27-.08-2.91-.25-4.92q-.42-4.62-.8-10.52c-.24-3.94-.45-7.45-.61-10.52q-.12-3.45-.12-4.74v-.55c.24-1,.61-1.54,1.1-1.54a.57.57,0,0,1,.25.06,2.12,2.12,0,0,1,.86.89,24,24,0,0,1,1.35,2.62q.87,1.85,2.28,5.23,4.92,11.57,8.24,17.75T154,991.5a9.58,9.58,0,0,0,6.19,2.22h.24q5.06,0,8.12-4.92,2.1-3,3-9.6a216.43,216.43,0,0,0,1.29-21.72Q173.32,942.35,174.67,923.46ZM218,921a13.26,13.26,0,0,1,3-2.34,12.68,12.68,0,0,1,3.38-1.17q3.7-.68,5-2.71a5.91,5.91,0,0,0,1.11-3.32,8.6,8.6,0,0,0-.84-3.08q-.82-2-4.15-3.13a10.93,10.93,0,0,0-3.26-.5q-7.32,0-16.61,9.54-11.81,12.32-19,32.73a71.32,71.32,0,0,0-3,10.55,48.94,48.94,0,0,0-.87,9.26v.37q0,12.18,7.51,20.18a21.83,21.83,0,0,0,13.66,7.26,22.92,22.92,0,0,0,2.34.12,24.3,24.3,0,0,0,8.92-1.84,46.39,46.39,0,0,0,7.66-4.25,25.67,25.67,0,0,0,5.5-4.55,7.88,7.88,0,0,0,1.42-4.25,6.51,6.51,0,0,0-1.6-4.18,6.27,6.27,0,0,0-5.17-2.28,7.55,7.55,0,0,0-3,.59,30.52,30.52,0,0,0-4.28,2.49,35.88,35.88,0,0,1-5,2.89,10.12,10.12,0,0,1-3.69.93,4.71,4.71,0,0,1-.74.06,7.41,7.41,0,0,1-5.66-2.77q-3.76-4.07-3.76-11,0-10,7.69-25.78Q210.79,928.32,218,921Zm72.41,24.11c.08,1.4.12,2.79.12,4.19a71.26,71.26,0,0,1-2.64,19.32,54.39,54.39,0,0,1-9.54,19.44,25.32,25.32,0,0,1-11.07,8.36,14,14,0,0,1-2.59.74,23.15,23.15,0,0,1-3.13.25h-1.42a16.19,16.19,0,0,1-3.63-.31q-7.56-2-13.38-9.23a46.5,46.5,0,0,1-8.58-18,84.76,84.76,0,0,1-2-18.58,95.66,95.66,0,0,1,3.32-24.61,63.92,63.92,0,0,1,4.74-12.06,20.63,20.63,0,0,1,4-5.85,10.13,10.13,0,0,1,4.83-2.46,29.46,29.46,0,0,1,5.41-.43q1.11,0,2.28.06A53.31,53.31,0,0,1,265.9,907Q288,912.13,290.39,945.11Zm-14,4.13a52.57,52.57,0,0,0-2.84-17.35q-2.14-6.28-6-9t-10.34-2.7h-.31a10,10,0,0,0-3.6.46,3.36,3.36,0,0,0-1.69,1.75,43.84,43.84,0,0,0-2.55,8.65,117.65,117.65,0,0,0-2,12.21q-.44,4.49-.43,8.55,0,14.08,5.1,23.63,4.44,7.62,9.05,7.62a6.33,6.33,0,0,0,3.14-.86q3.69-2.15,7.26-9.23,4.43-9.16,4.83-15.59C276.29,953.1,276.43,950.38,276.43,949.24Zm79.79,8.24q.43-15.13,1.79-34c.28-4.43.47-7.86.55-10.28v-.86a20,20,0,0,0-.4-4.61,6.3,6.3,0,0,0-1.39-2.71,6.7,6.7,0,0,0-4.79-2.46h-.31a6.73,6.73,0,0,0-4.74,2,6.36,6.36,0,0,0-1.69,2.8,22.31,22.31,0,0,0-.71,5.07q-.3,4.38-.77,11.23t-.83,12.83q-.18,2.89-.4,7.75t-.34,9.48c-.08,2.74-.16,5-.24,6.61s-.18,2.94-.28,3.84a7.23,7.23,0,0,1-.4,1.91,1.79,1.79,0,0,1-.61.8.7.7,0,0,1-.37.12.73.73,0,0,1-.34-.12,4.14,4.14,0,0,1-.77-.74,14,14,0,0,1-.86-1.32,16.12,16.12,0,0,1-.86-1.63c-.21-.57-.58-1.49-1.11-2.74s-1.09-2.55-1.66-3.9Q331.56,949,324.23,929a152.26,152.26,0,0,0-6.37-15.66c-1.5-2.89-3-4.55-4.4-5a7.33,7.33,0,0,0-2.27-.36,10.38,10.38,0,0,0-4.13,1.07,7.72,7.72,0,0,0-3.75,3.79,9.39,9.39,0,0,0-.49,1.63,17.4,17.4,0,0,0-.37,2.18c-.12,1.52-.21,4.61-.25,9.29q-.06,4.74-.06,9.6,0,2.46.06,7.5c0,3.37.13,6.32.25,8.86.12,1.73.29,4.26.49,7.6s.41,6.7.62,10.06q.48,8.49.86,13.14c.24,3.09.47,5.35.67,6.76a11.36,11.36,0,0,0,.8,3.11,7.28,7.28,0,0,0,4.19,4.06,6.38,6.38,0,0,0,2,.31,8.55,8.55,0,0,0,2.55-.53,6.59,6.59,0,0,0,3-2.24,6.07,6.07,0,0,0,1.36-3.26c0-.45.06-1,.06-1.6,0-1.27-.08-2.91-.25-4.92q-.42-4.62-.8-10.52c-.24-3.94-.45-7.45-.61-10.52q-.12-3.45-.12-4.74v-.55c.24-1,.61-1.54,1.1-1.54a.57.57,0,0,1,.25.06,2.12,2.12,0,0,1,.86.89,24,24,0,0,1,1.35,2.62q.87,1.85,2.28,5.23,4.92,11.57,8.24,17.75t6.06,8.39a9.58,9.58,0,0,0,6.19,2.22h.24q5.06,0,8.12-4.92,2.1-3,3-9.6T356.22,957.48Zm60.48-39.25q4.49-2.1,4.67-6.09v-.25q0-3.87-4.18-6.15a6.84,6.84,0,0,0-1.29-.37,16.07,16.07,0,0,0-2.22-.15c-1,0-2.58,0-4.67,0a261.09,261.09,0,0,0-35.32,3,23.77,23.77,0,0,0-6.24,1.57,6.25,6.25,0,0,0-3.78,5.69,9,9,0,0,0,.55,2.61,5,5,0,0,0,3.08,2.8,7.34,7.34,0,0,0,2.95.43h.61c1.36,0,3.2-.1,5.54-.3,1.27-.09,2.34-.13,3.2-.13a14.33,14.33,0,0,1,2,.16,2.11,2.11,0,0,1,1.6,1.14,1.76,1.76,0,0,1,.28.7,10.67,10.67,0,0,1,.12,1.54c0,.72,0,1.77,0,3.14v8.89a360.51,360.51,0,0,0,2.83,44.3A69.77,69.77,0,0,0,388.8,993c.8,2.32,2,3.8,3.6,4.46a7,7,0,0,0,3,.68,11.88,11.88,0,0,0,2.31-.37,5.81,5.81,0,0,0,3-2.22,5.71,5.71,0,0,0,1.36-3.32,5.8,5.8,0,0,0,.06-.92,33.8,33.8,0,0,0-.56-5.17q-3.19-19.56-4-51.13c-.08-2.87-.14-5.16-.18-6.89s-.06-3-.06-3.87a13.85,13.85,0,0,1,.09-1.88,3.32,3.32,0,0,1,1.29-2.12,6.33,6.33,0,0,1,2.43-.62c1.15-.12,2.83-.24,5.05-.37,2.42-.08,4.31-.17,5.69-.27s2.4-.21,3.08-.31A7.66,7.66,0,0,0,416.7,918.23Zm29.35,59.55a6.51,6.51,0,0,0-.25,1.73,29.7,29.7,0,0,0,.55,4.79c.41,2.43.64,4,.68,4.74s.06,1.25.06,1.54a6.31,6.31,0,0,1-.31,2.15,5.75,5.75,0,0,1-1.35,2.28,7.69,7.69,0,0,1-2.28,1.78,7.34,7.34,0,0,1-2.76.5,7.66,7.66,0,0,1-2.77-.5,8,8,0,0,1-3.63-3.87q-1.61-4.12-3.42-18.83t-2.92-32.18q-.31-4.92-.31-7.25v-3.39c0-2.17,0-4.76.13-7.75q.12-5.65.3-8.28a9.8,9.8,0,0,1,.74-3.62,7,7,0,0,1,1.72-2q3.45-3.21,12.37-3.51c.62,0,1.21-.06,1.78-.06q12.56,0,21.6,6.58a23.16,23.16,0,0,1,8.74,14.27,27.66,27.66,0,0,1,.36,4.43q0,12.25-10.64,25l-2,2.37c-.68.8-1.2,1.41-1.57,1.82a3.83,3.83,0,0,0-1.23,2.4,1.64,1.64,0,0,0,.68,1.29c.49.45,2.17,1.07,5,1.84a31,31,0,0,1,8.37,3.26,7.38,7.38,0,0,1,3.32,4.19,7.54,7.54,0,0,1,.25,1.91,6.6,6.6,0,0,1-.62,2.76,6.53,6.53,0,0,1-3.38,3.2,5.5,5.5,0,0,1-2.34.43,21.48,21.48,0,0,1-5.9-1.1c-1.85-.58-4-1.15-6.34-1.73s-4.57-1.07-6.58-1.5a25.51,25.51,0,0,0-3.88-.65C447,976.86,446.21,977.17,446.05,977.78Zm-.19-22.95a11,11,0,0,0,2.49-2q1.75-1.67,3.69-3.76a43,43,0,0,0,3.17-3.75,37.66,37.66,0,0,0,3.14-5.17,27.91,27.91,0,0,0,2-4.86,15.79,15.79,0,0,0,.43-3.75,10.92,10.92,0,0,0-.49-3.45,10.51,10.51,0,0,0-4.86-5.38,24.76,24.76,0,0,0-9.23-3.11,13,13,0,0,0-1.54-.18h-.55a3.58,3.58,0,0,0-.68.06,3.8,3.8,0,0,0-.92.31.62.62,0,0,1-.19.12,2.2,2.2,0,0,0-1,.74,2.56,2.56,0,0,0-.4,1.48c0,.65,0,1.21,0,1.66,0,.9,0,2.07.06,3.5.12,2.18.31,5.17.55,9,0,.57,0,1.17.06,1.78.25,3.73.44,6.7.59,8.89s.3,3.84.46,4.92a9.86,9.86,0,0,0,.52,2.25,1.5,1.5,0,0,0,.71.8.9.9,0,0,0,.49.24h.62ZM534.09,979a4.74,4.74,0,0,0-.07-.74,5.77,5.77,0,0,0-3.5-5.23,5.18,5.18,0,0,0-1.6-.67,3.71,3.71,0,0,0-1-.13,7.85,7.85,0,0,0-.92.07,6.6,6.6,0,0,0-2.28.4,18.09,18.09,0,0,0-2.89,1.44q-1.79,1-4.92,3.14-2.16,1.41-4,2.55a20.24,20.24,0,0,1-2.68,1.45,6.52,6.52,0,0,1-2.46.55,4.31,4.31,0,0,1-2.92-1.35c-1-.9-1.77-3-2.43-6.4a15.69,15.69,0,0,1-.31-1.6v-.55a5,5,0,0,1,0-.53,2.71,2.71,0,0,1,.22-.7,3.72,3.72,0,0,1,.52-.86,3.9,3.9,0,0,1,.65-.68,10.46,10.46,0,0,1,1.72-.52c.9-.23,1.91-.47,3-.71q6.33-1.11,9.07-1.72a20.51,20.51,0,0,0,3.78-1.11c3.28-1.6,4.93-3.8,4.93-6.59a7.86,7.86,0,0,0-.25-1.84,6.66,6.66,0,0,0-3.51-4.06,5.63,5.63,0,0,0-2.95-.68c-.25,0-.86,0-1.85.16a66.11,66.11,0,0,0-6.7,1.44q-3.51.87-5.35,1.17a14.68,14.68,0,0,1-2.28.25,6.41,6.41,0,0,1-.8-.07,1.45,1.45,0,0,1-1-.61,2.39,2.39,0,0,1-.52-.74,3.88,3.88,0,0,1-.21-1.11c-.05-.49-.09-1.23-.13-2.21v-1.54c0-1.23,0-3.1.06-5.6s.12-5.45.22-8.86.2-6.38.31-8.95a32,32,0,0,1,.34-4.52,3.65,3.65,0,0,1,2.83-2.52,21.1,21.1,0,0,1,2.61-.31c1.42-.12,3-.23,4.83-.31,3.61-.16,6.39-.31,8.34-.43a41.28,41.28,0,0,0,4.27-.43,10.72,10.72,0,0,0,2.09-.55,7,7,0,0,0,4.07-4.86,6.41,6.41,0,0,0,.12-1.23,6.79,6.79,0,0,0-2-4.74,6.24,6.24,0,0,0-3-1.79,21.27,21.27,0,0,0-4.61-.36h-.92a70.71,70.71,0,0,0-7.38.43c-2.75.28-6.26.76-10.53,1.41q-3.87.62-6,1.08a12.29,12.29,0,0,0-3.17,1,8,8,0,0,0-2,1.57,6.33,6.33,0,0,0-1.54,2.34,21.25,21.25,0,0,0-1,4.55q-.44,3.13-1,9.11-1.29,14.09-1.29,25.78a149.47,149.47,0,0,0,1.54,22.7q3.32,19.82,14.58,22.76a17.35,17.35,0,0,0,3.88.43A26.15,26.15,0,0,0,517,993.72q1.66-.87,4.77-2.83c2.07-1.31,4.07-2.64,6-4a48,48,0,0,0,4-3A6.56,6.56,0,0,0,534.09,979Zm98.31,13.57c1.48-.6,3.67-1.59,6.58-3l4.28-2,3.47-1.64a20.91,20.91,0,0,0,3.76-2,5.91,5.91,0,0,0,1.78-2,7.53,7.53,0,0,0,1-3.56,6.79,6.79,0,0,0-1.73-4.37,6.39,6.39,0,0,0-5.72-2.16,13.29,13.29,0,0,0-4.06,1q-2.52,1-8.37,3.75c-1.43.7-2.82,1.34-4.15,1.91s-2.29,1-2.86,1.17a9,9,0,0,1-2.89.49l-1,0a3.27,3.27,0,0,1-1.78-.71c-1.31-1-2.36-3.18-3.14-6.46-.16-.78-.3-1.62-.4-2.52s-.16-2.3-.18-4.18,0-4.82,0-8.8q0-13,.55-19.26.62-8.61,1.17-16.06c.37-5,.59-8.24.68-9.84,0-.78.06-1.39.06-1.85a4.92,4.92,0,0,0-.12-1.16,4.54,4.54,0,0,0-.44-1,5.66,5.66,0,0,0-2.83-2.71,5.53,5.53,0,0,0-2.39-.55,5.94,5.94,0,0,0-1.42.18q-4.19,1.25-5.41,6.34-.25,1.11-.87,5.23t-1.23,8.68c-.41,3-.69,5.35-.86,7q-.42,3.75-.77,10.09t-.46,12.24q-.06,2.58-.06,5,0,14,2.46,20.86,4.25,12.43,15.14,14a20.32,20.32,0,0,0,2.21.12,24.74,24.74,0,0,0,5.72-.74A25.74,25.74,0,0,0,632.4,992.52Zm73.21-86.41a3.57,3.57,0,0,0-1.41-.74,12.47,12.47,0,0,0-2.09-.12,11,11,0,0,0-2.19.15,5.11,5.11,0,0,0-1.51.71q-2.82,1.73-3.38,6c-.08.65-.14,2.33-.18,5s-.07,5.63-.07,8.83q-.12,57.35-12.18,57.34-2.52,0-5-2.89a19.12,19.12,0,0,1-3.82-7.38q-3.57-11.82-4.06-42.15-.12-6.09-.27-10.58c-.11-3-.18-4.76-.22-5.29q-.44-4.42-3.75-5.91a5.8,5.8,0,0,0-2.4-.55,6.8,6.8,0,0,0-2.86.83,6.36,6.36,0,0,0-2.8,3.54,8,8,0,0,0-.43,1.72c-.13.74-.24,1.88-.34,3.41s-.24,3.69-.4,6.43q-.44,7.14-.43,13.66,0,7.7.61,14.52,1.36,16.25,4,24.92t7.82,13.6a23.77,23.77,0,0,0,11.5,6.58,18,18,0,0,0,3.2.31q7,0,13.29-6.09,5.59-5.29,8.61-17.23,2.6-9.78,3.69-28,.25-4.44.37-12.12T709,920.2c0-4.51-.07-7.32-.19-8.43A8,8,0,0,0,705.61,906.11Zm70.14,21.72a42.28,42.28,0,0,1,1.72,32.54,52.47,52.47,0,0,1-25.22,28.18,33.33,33.33,0,0,1-4.65,1.94,32.23,32.23,0,0,1-5.07,1.14c-1,.16-2,.36-3,.58s-1.74.42-2.27.58a12.64,12.64,0,0,1-3.51.56,7.17,7.17,0,0,1-3-.62,7.92,7.92,0,0,1-3.63-4.67q-.31-1.17-1.17-6.65t-1.76-12.15q-.88-6.68-1.44-11.47-1.11-9.66-1.45-15.78T721,925.92V919.4c0-1.68,0-3,0-4s.07-1.73.13-2.25a7.44,7.44,0,0,1,.21-1.17c.08-.26.19-.54.31-.83a6.85,6.85,0,0,1,3-3.44,15.8,15.8,0,0,1,6-1.36c1.31-.12,2.65-.18,4-.18a61.14,61.14,0,0,1,16.55,2.52q9.6,2.71,15.41,7.23A30.74,30.74,0,0,1,775.75,927.83Zm-10.06,18.39a25.34,25.34,0,0,0-.71-6.64q-2.76-10.89-10.21-14.52a44.24,44.24,0,0,0-9.38-3.32,35.57,35.57,0,0,0-7.29-1.17,6.52,6.52,0,0,0-1.66.18q-2.1.5-2.1,3.57a9.64,9.64,0,0,0,.07,1.17c0,.74.13,2.16.27,4.27s.3,4.44.46,7q.5,7.68,1.17,14.3T738,965.36q.49,3.69.8,5.87c.21,1.46.38,2.56.53,3.32a5.85,5.85,0,0,0,.49,1.66,3.82,3.82,0,0,0,.64.9,2.37,2.37,0,0,0,1.79.8h.12a7.76,7.76,0,0,0,3-1,42,42,0,0,0,9.9-7.81q7.57-7.32,9.72-15.94A30.15,30.15,0,0,0,765.69,946.22ZM805.1,964.8c-.25-4.71-.43-10-.56-15.81q-.12-5.78-.37-13.66c-.08-4.26-.16-8.08-.24-11.44q-.2-5.6-.34-9.6c-.1-2.67-.2-4.18-.28-4.55a6.15,6.15,0,0,0-2.64-3.14,5.66,5.66,0,0,0-3-.86,4.89,4.89,0,0,0-1,.12q-4.12,1-5.42,5.66a81.08,81.08,0,0,0-.8,11.51q-.18,7.26-.18,15.81,0,2.16,0,8.8t.46,15.19q.38,5.91.92,13c.37,4.75.66,8.06.87,9.9q.74,5.79,4.55,7.51a7.74,7.74,0,0,0,2.58.49h.37a5.93,5.93,0,0,0,2.22-.37,7.28,7.28,0,0,0,3.44-3.2,7.59,7.59,0,0,0,.74-3.51v-1.16q0-2.22-.31-5.91Q805.47,971.88,805.1,964.8Zm75,25.16a6.21,6.21,0,0,1,1.73,4.37V995q-.55,5.35-6.34,5.84c-.57,0-1.17,0-1.78-.06a6.23,6.23,0,0,1-1.48-.24q-3.13-.87-10.77-5.11c-1.88-1-3.3-1.74-4.24-2.15a6.42,6.42,0,0,0-2.46-.62h-.37a10.51,10.51,0,0,0-2.89.68,14.68,14.68,0,0,1-3.85.74q-1.76.06-2.37.06a20.56,20.56,0,0,1-3.75-.31q-8.8-2.22-15-11t-8.43-22.09a86.07,86.07,0,0,1-.86-12.31,97.32,97.32,0,0,1,.92-13.16A77.6,77.6,0,0,1,825,911.89q2.7-5.6,5.57-7.47c1.9-1.25,4.87-1.88,8.89-1.88h.92q15.75,0,23.56,8.31,7.75,7.74,10.34,22.94a70.52,70.52,0,0,1,1.05,12.12,72.6,72.6,0,0,1-2.22,17.72,65.3,65.3,0,0,1-4.86,13c-.49,1.1-.92,2.09-1.29,3a7,7,0,0,0-.56,1.54,3.06,3.06,0,0,0,1.6,2.4,30.87,30.87,0,0,0,5.73,2.7,35.1,35.1,0,0,1,4.15,1.91A8.79,8.79,0,0,1,880.15,990Zm-18.94-44.17a55,55,0,0,0-2.71-17q-2.16-6.46-6.06-9.23c-2.61-1.84-6.18-2.77-10.74-2.77a8.62,8.62,0,0,0-3.75.65,4.91,4.91,0,0,0-2.12,2.86,47.33,47.33,0,0,0-1.76,6.83,91.78,91.78,0,0,0-2.64,20.18v.74q0,14,4.37,22.64c2.37,4.71,5.08,7.63,8.12,8.73a4.9,4.9,0,0,0,1.72.37,5.38,5.38,0,0,0,1.91-.43c1.92-.69,3.87-2.46,5.84-5.29a40.54,40.54,0,0,0,5-10.33A60.53,60.53,0,0,0,861.21,945.79Zm76.47-39.68a3.6,3.6,0,0,0-1.42-.74,12.39,12.39,0,0,0-2.09-.12,10.92,10.92,0,0,0-2.18.15,5,5,0,0,0-1.51.71c-1.89,1.15-3,3.16-3.38,6-.09.65-.15,2.33-.19,5s-.06,5.63-.06,8.83q-.12,57.35-12.18,57.34c-1.68,0-3.37-1-5-2.89a19.11,19.11,0,0,1-3.81-7.38q-3.57-11.82-4.06-42.15c-.08-4.06-.18-7.59-.28-10.58s-.17-4.76-.21-5.29q-.43-4.42-3.76-5.91a5.8,5.8,0,0,0-2.4-.55,6.84,6.84,0,0,0-2.86.83,6.4,6.4,0,0,0-2.8,3.54,9.45,9.45,0,0,0-.43,1.72c-.12.74-.23,1.88-.33,3.41s-.24,3.69-.4,6.43q-.43,7.14-.44,13.66,0,7.7.62,14.52,1.35,16.25,4,24.92t7.81,13.6a23.79,23.79,0,0,0,11.51,6.58,18,18,0,0,0,3.2.31q7,0,13.28-6.09,5.61-5.29,8.62-17.23,2.58-9.78,3.69-28,.24-4.44.37-12.12t.12-14.46q0-6.76-.18-8.43A8,8,0,0,0,937.68,906.11Zm63.37,72.1a5.77,5.77,0,0,0-3.51-5.23,5.08,5.08,0,0,0-1.6-.67,3.63,3.63,0,0,0-1-.13,7.86,7.86,0,0,0-.93.07,6.58,6.58,0,0,0-2.27.4,17.68,17.68,0,0,0-2.89,1.44q-1.79,1-4.93,3.14-2.15,1.41-4,2.55a21,21,0,0,1-2.67,1.45,6.52,6.52,0,0,1-2.46.55,4.29,4.29,0,0,1-2.92-1.35c-1-.9-1.78-3-2.43-6.4a13.31,13.31,0,0,1-.31-1.6v-.55a5,5,0,0,1,0-.53,2.62,2.62,0,0,1,.21-.7,3.78,3.78,0,0,1,.53-.86,3.88,3.88,0,0,1,.64-.68,10.7,10.7,0,0,1,1.73-.52c.9-.23,1.9-.47,3-.71,4.22-.74,7.25-1.31,9.07-1.72a20.68,20.68,0,0,0,3.79-1.11q4.92-2.4,4.92-6.59a7.37,7.37,0,0,0-.25-1.84,6.67,6.67,0,0,0-3.5-4.06,5.66,5.66,0,0,0-3-.68c-.24,0-.86,0-1.84.16a66.08,66.08,0,0,0-6.71,1.44q-3.51.87-5.35,1.17a14.44,14.44,0,0,1-2.28.25,6.56,6.56,0,0,1-.8-.07,1.43,1.43,0,0,1-1-.61,2.23,2.23,0,0,1-.52-.74,3.51,3.51,0,0,1-.22-1.11c0-.49-.08-1.23-.12-2.21v-1.54c0-1.23,0-3.1.06-5.6s.11-5.45.22-8.86.2-6.38.3-8.95a33.82,33.82,0,0,1,.34-4.52,3.66,3.66,0,0,1,2.83-2.52,21.38,21.38,0,0,1,2.62-.31c1.41-.12,3-.23,4.83-.31,3.6-.16,6.38-.31,8.33-.43a41.23,41.23,0,0,0,4.28-.43,10.72,10.72,0,0,0,2.09-.55,6.94,6.94,0,0,0,4.06-4.86,6.41,6.41,0,0,0,.12-1.23,6.74,6.74,0,0,0-2-4.74,6.21,6.21,0,0,0-3-1.79,21.27,21.27,0,0,0-4.61-.36h-.93a71,71,0,0,0-7.38.43c-2.75.28-6.26.76-10.52,1.41q-3.88.62-6,1.08a12.43,12.43,0,0,0-3.17,1,8.14,8.14,0,0,0-2,1.57,6.31,6.31,0,0,0-1.53,2.34,21.75,21.75,0,0,0-1,4.55c-.29,2.09-.61,5.13-1,9.11q-1.29,14.09-1.3,25.78a150.77,150.77,0,0,0,1.54,22.7q3.33,19.82,14.58,22.76a17.41,17.41,0,0,0,3.88.43,26.23,26.23,0,0,0,10.83-2.64c1.11-.58,2.69-1.52,4.77-2.83s4.07-2.64,6-4a48,48,0,0,0,4-3,6.56,6.56,0,0,0,2.28-5A4.71,4.71,0,0,0,1001.05,978.21ZM50.33,1189a5.18,5.18,0,0,0-1.6-.67,3.71,3.71,0,0,0-1-.13,7.7,7.7,0,0,0-.92.07,6.6,6.6,0,0,0-2.28.4,17.68,17.68,0,0,0-2.89,1.44q-1.78,1-4.92,3.14-2.16,1.41-4,2.55a20.24,20.24,0,0,1-2.68,1.45,6.52,6.52,0,0,1-2.46.55,4.31,4.31,0,0,1-2.92-1.35c-1-.9-1.77-3-2.43-6.4a15.69,15.69,0,0,1-.31-1.6v-.55a5,5,0,0,1,0-.53,2.71,2.71,0,0,1,.22-.7,3.72,3.72,0,0,1,.52-.86,3.9,3.9,0,0,1,.65-.68,10.46,10.46,0,0,1,1.72-.52c.9-.23,1.91-.47,3-.71,4.23-.74,7.25-1.31,9.08-1.72a20.51,20.51,0,0,0,3.78-1.11c3.28-1.6,4.93-3.8,4.93-6.59a7.86,7.86,0,0,0-.25-1.84,6.66,6.66,0,0,0-3.51-4.06,5.63,5.63,0,0,0-2.95-.68c-.25,0-.86,0-1.85.16a66.11,66.11,0,0,0-6.7,1.44c-2.34.58-4.12,1-5.36,1.17a14.45,14.45,0,0,1-2.27.25,6.41,6.41,0,0,1-.8-.07,1.45,1.45,0,0,1-1-.61,2.39,2.39,0,0,1-.52-.74,3.88,3.88,0,0,1-.21-1.11c-.05-.49-.09-1.23-.13-2.21v-1.54c0-1.23,0-3.1.06-5.6s.12-5.45.22-8.86.2-6.38.31-9a32,32,0,0,1,.34-4.52,3.65,3.65,0,0,1,2.83-2.52,21.1,21.1,0,0,1,2.61-.31c1.42-.12,3-.23,4.83-.31,3.61-.16,6.39-.31,8.34-.43a41.28,41.28,0,0,0,4.27-.43,10.72,10.72,0,0,0,2.09-.55,6.91,6.91,0,0,0,4.06-4.86,5.71,5.71,0,0,0,.13-1.23,6.79,6.79,0,0,0-2-4.74,6.24,6.24,0,0,0-3-1.79,21.27,21.27,0,0,0-4.61-.36h-.92a71,71,0,0,0-7.39.43c-2.74.28-6.25.76-10.52,1.41q-3.87.62-6,1.08a12.29,12.29,0,0,0-3.17,1,8,8,0,0,0-2,1.57A6.33,6.33,0,0,0,9.29,1127a21.25,21.25,0,0,0-1,4.55q-.44,3.14-1,9.11Q6,1154.77,6,1166.47a149.47,149.47,0,0,0,1.54,22.7q3.31,19.82,14.58,22.76a17.32,17.32,0,0,0,3.87.43,26.16,26.16,0,0,0,10.83-2.64q1.66-.87,4.77-2.83c2.07-1.31,4.07-2.64,6-4a48,48,0,0,0,4-3,6.55,6.55,0,0,0,2.27-5,4.71,4.71,0,0,0-.06-.74A5.77,5.77,0,0,0,50.33,1189Zm57.58-67.24a6.84,6.84,0,0,0-1.29-.37,16,16,0,0,0-2.21-.15q-1.55,0-4.68,0a260.82,260.82,0,0,0-35.31,3,23.86,23.86,0,0,0-6.25,1.57,6.25,6.25,0,0,0-3.78,5.69,9,9,0,0,0,.55,2.61,5,5,0,0,0,3.08,2.8,7.38,7.38,0,0,0,2.95.43h.62c1.35,0,3.19-.1,5.53-.3,1.27-.09,2.34-.13,3.2-.13a14.33,14.33,0,0,1,2,.16,2.11,2.11,0,0,1,1.6,1.14,1.76,1.76,0,0,1,.28.7,10.67,10.67,0,0,1,.12,1.54c0,.72,0,1.77,0,3.14v8.89a360.51,360.51,0,0,0,2.83,44.3A69.77,69.77,0,0,0,79.52,1209c.8,2.32,2,3.8,3.6,4.46a7,7,0,0,0,2.95.68,11.88,11.88,0,0,0,2.31-.37,5.81,5.81,0,0,0,3-2.22,5.65,5.65,0,0,0,1.36-3.32,5.8,5.8,0,0,0,.06-.92,34.85,34.85,0,0,0-.55-5.17q-3.21-19.56-4-51.13c-.09-2.87-.15-5.16-.19-6.89s-.06-3-.06-3.87a13.85,13.85,0,0,1,.09-1.88,2.59,2.59,0,0,1,.28-.89,2.41,2.41,0,0,1,1-1.23,6.44,6.44,0,0,1,2.43-.62c1.15-.12,2.83-.24,5.05-.37,2.42-.08,4.32-.17,5.69-.27s2.4-.21,3.08-.31a7.66,7.66,0,0,0,1.75-.46q4.48-2.1,4.68-6.09v-.25Q112.1,1124,107.91,1121.74Zm119.42,22.09a42.28,42.28,0,0,1,1.72,32.54,52.47,52.47,0,0,1-25.22,28.18,33.33,33.33,0,0,1-4.65,1.94,32.23,32.23,0,0,1-5.07,1.14c-1,.16-2,.36-3,.58s-1.74.42-2.27.58a12.64,12.64,0,0,1-3.51.56,7.17,7.17,0,0,1-3-.62,7.92,7.92,0,0,1-3.63-4.67q-.31-1.17-1.17-6.65t-1.76-12.15q-.88-6.67-1.44-11.47-1.11-9.66-1.45-15.78t-.34-16.09v-6.52c0-1.68,0-3,0-4s.07-1.73.13-2.25a7.44,7.44,0,0,1,.21-1.17c.08-.26.19-.54.31-.83a6.85,6.85,0,0,1,3-3.44,15.8,15.8,0,0,1,6-1.36c1.31-.12,2.65-.18,4-.18a61.14,61.14,0,0,1,16.55,2.52q9.6,2.71,15.41,7.23A30.74,30.74,0,0,1,227.33,1143.83Zm-10.06,18.39a25.34,25.34,0,0,0-.71-6.64q-2.76-10.89-10.21-14.52a44.24,44.24,0,0,0-9.38-3.32,35.57,35.57,0,0,0-7.29-1.17,6.52,6.52,0,0,0-1.66.18q-2.1.49-2.1,3.57a9.64,9.64,0,0,0,.07,1.17c0,.74.13,2.16.27,4.27s.3,4.44.46,7q.5,7.68,1.17,14.3t1.66,14.31q.49,3.69.8,5.87c.21,1.46.38,2.56.53,3.32a5.85,5.85,0,0,0,.49,1.66,3.82,3.82,0,0,0,.64.9,2.37,2.37,0,0,0,1.79.8h.12a7.76,7.76,0,0,0,3-1.05,42,42,0,0,0,9.9-7.81q7.58-7.32,9.72-15.94A30.15,30.15,0,0,0,217.27,1162.22Zm61.46-78.35q-4.85,0-9.32,4-2.37,1.85-7.51,6.55t-9.8,9.14c-3.11,3-5,4.79-5.63,5.49a21.43,21.43,0,0,0-1.89,3.61,9.19,9.19,0,0,0-.83,3.42,7.78,7.78,0,0,0,1.62,4.49,9.3,9.3,0,0,0,3.91,3.25,8,8,0,0,0,2.82.44c.17,0,.64,0,1.4-.09a8.05,8.05,0,0,0,2.55-.7,48.6,48.6,0,0,0,4.62-3.3q3.74-2.85,8.57-6.68t8.92-7.16q4.08-3.34,5.58-4.75,4.22-4.21,4.22-8.52a8.88,8.88,0,0,0-2.55-6.64A9.44,9.44,0,0,0,278.73,1083.87ZM347.07,1189a5.08,5.08,0,0,0-1.6-.67,3.63,3.63,0,0,0-1-.13,7.86,7.86,0,0,0-.93.07,6.54,6.54,0,0,0-2.27.4,17.68,17.68,0,0,0-2.89,1.44q-1.78,1-4.93,3.14-2.14,1.41-4,2.55a21.6,21.6,0,0,1-2.68,1.45,6.52,6.52,0,0,1-2.46.55,4.29,4.29,0,0,1-2.92-1.35c-1-.9-1.78-3-2.43-6.4a13.31,13.31,0,0,1-.31-1.6v-.55a5,5,0,0,1,0-.53,2.62,2.62,0,0,1,.21-.7,3.78,3.78,0,0,1,.53-.86,3.88,3.88,0,0,1,.64-.68,10.7,10.7,0,0,1,1.73-.52c.9-.23,1.9-.47,3-.71,4.22-.74,7.25-1.31,9.07-1.72a20.68,20.68,0,0,0,3.79-1.11q4.92-2.4,4.92-6.59a7.37,7.37,0,0,0-.25-1.84,6.67,6.67,0,0,0-3.5-4.06,5.66,5.66,0,0,0-3-.68c-.24,0-.86,0-1.84.16a66.08,66.08,0,0,0-6.71,1.44q-3.51.87-5.35,1.17a14.44,14.44,0,0,1-2.28.25,6.56,6.56,0,0,1-.8-.07,1.43,1.43,0,0,1-1-.61,2.23,2.23,0,0,1-.52-.74,3.51,3.51,0,0,1-.22-1.11c0-.49-.08-1.23-.12-2.21v-1.54c0-1.23,0-3.1.06-5.6s.11-5.45.21-8.86.21-6.38.31-9a33.82,33.82,0,0,1,.34-4.52,3.66,3.66,0,0,1,2.83-2.52,21.38,21.38,0,0,1,2.62-.31c1.41-.12,3-.23,4.83-.31,3.6-.16,6.38-.31,8.33-.43a41.55,41.55,0,0,0,4.28-.43,10.72,10.72,0,0,0,2.09-.55,6.94,6.94,0,0,0,4.06-4.86,6.41,6.41,0,0,0,.12-1.23,6.74,6.74,0,0,0-2-4.74,6.21,6.21,0,0,0-3-1.79,21.27,21.27,0,0,0-4.61-.36h-.93a71,71,0,0,0-7.38.43c-2.75.28-6.26.76-10.52,1.41q-3.87.62-6,1.08a12.43,12.43,0,0,0-3.17,1,8.14,8.14,0,0,0-2,1.57A6.31,6.31,0,0,0,306,1127a21.75,21.75,0,0,0-1,4.55c-.29,2.09-.61,5.13-1,9.11q-1.29,14.08-1.3,25.78a150.77,150.77,0,0,0,1.54,22.7q3.33,19.82,14.58,22.76a17.41,17.41,0,0,0,3.88.43,26.23,26.23,0,0,0,10.83-2.64c1.11-.58,2.69-1.52,4.77-2.83s4.07-2.64,6-4a46.32,46.32,0,0,0,4-3,6.56,6.56,0,0,0,2.28-5,4.71,4.71,0,0,0-.06-.74A5.77,5.77,0,0,0,347.07,1189Zm60.36-63.3a6.48,6.48,0,0,0-5.6-3.14,8.88,8.88,0,0,0-1.42.12,7.14,7.14,0,0,0-5.35,5.42c-.08.37-.21,1.37-.37,3s-.35,3.51-.55,5.6-.37,4.61-.62,7.32-.47,5.09-.68,7.14a3.15,3.15,0,0,1-.06.61c-.2,2.18-.48,5-.83,8.34s-.68,6.67-1,9.87q-1,10.33-1.66,15.2a44.42,44.42,0,0,1-1.36,6.89,12.17,12.17,0,0,1-1,2.49,2.9,2.9,0,0,1-1.17,1.08,1.66,1.66,0,0,1-.8.24,1.71,1.71,0,0,1-.37-.06,3.85,3.85,0,0,1-1.05-.8q-2-1.85-4.79-8.21a121.9,121.9,0,0,1-5.17-14.06q-1.29-4.42-2.56-9.9t-3.41-16.18c-.74-3.74-1.4-7-2-9.76s-1-4.39-1.14-4.89q-1.85-4.66-5.9-4.67a5.83,5.83,0,0,0-5.36,3.38,8.56,8.56,0,0,0-.73,4.06,36.39,36.39,0,0,0,.49,5.42.24.24,0,0,1,.06.18c.16,1.23.36,2.68.58,4.34s.42,3.17.59,4.52a164.7,164.7,0,0,0,5.1,24.79q4.56,16.13,10.4,26.06t12,12.21a7.25,7.25,0,0,0,1.78.43c.41,0,.91.06,1.48.06h.86a11.75,11.75,0,0,0,2.55-.21,9.64,9.64,0,0,0,2-.77q9.48-4.8,12.55-22.09c.17-1.1.4-3,.71-5.53s.61-5.3.89-8.13q1.43-13.89,2.16-21.47l1.11-11.41c.24-2.56.43-4.75.55-6.55.2-2.55.31-4.55.31-6,0-.45-.05-1.14-.13-2.06A6.2,6.2,0,0,0,407.43,1125.68Zm60.23,75.06a7.11,7.11,0,0,1,.18,1.41,2.26,2.26,0,0,1-.06.55q-1,5.67-6.46,5.91a7.22,7.22,0,0,1-5.11-2,10,10,0,0,1-1.9-2.31,18.69,18.69,0,0,1-1.6-3.66,10.72,10.72,0,0,0-1.63-3.17,3.12,3.12,0,0,0-2.13-1.07,6.13,6.13,0,0,0-1-.06c-.78,0-1.87,0-3.26.12q-3.45.18-7.35.46c-2.61.18-4.57.36-5.88.52a6,6,0,0,0-3.78,1.42c-.68.74-1.1,2.13-1.26,4.18a10.93,10.93,0,0,1-.8,3.6,6.57,6.57,0,0,1-1.85,2.31,3.93,3.93,0,0,1-1.29.74,8.3,8.3,0,0,1-1.79.24H420a8.39,8.39,0,0,1-1.11-.06,3.82,3.82,0,0,1-1.23-.43,7.91,7.91,0,0,1-1.94-1.6,7.79,7.79,0,0,1-1.44-2.15,12.93,12.93,0,0,1-.62-4.86,108.8,108.8,0,0,1,1.11-13.17q1.11-7.82,3.6-18.18t5.63-20.09q7.5-23.07,15.75-26.88a6,6,0,0,1,1.81-.68,17.43,17.43,0,0,1,2.43-.12,10.57,10.57,0,0,1,3.63.52,9.28,9.28,0,0,1,2.95,1.94,13.54,13.54,0,0,1,3.3,4.49,35.52,35.52,0,0,1,2.24,8.06q1,5.36,2.15,15,4.13,33.66,8.49,46.14A25.91,25.91,0,0,1,467.66,1200.74Zm-20-21.72a4.27,4.27,0,0,0-.06-.68c0-.53-.13-1.28-.28-2.24s-.33-2.29-.58-4c-.33-2-.7-4.55-1.11-7.6s-.78-5.9-1.11-8.52a95.15,95.15,0,0,0-1.59-10,1.28,1.28,0,0,0-1.11-.8h-.13a2,2,0,0,0-1.41,1q-1.11,1.85-3.54,9.75T432,1173.11a40,40,0,0,0-1.47,8.12,2.79,2.79,0,0,0,.18,1.17,2.23,2.23,0,0,0,.49.46,5.89,5.89,0,0,0,.87.53,3.26,3.26,0,0,0,.8.3l1.78-.24c1.19-.13,2.62-.29,4.31-.5s3.24-.47,4.55-.67a18.61,18.61,0,0,0,2.46-.49,2.6,2.6,0,0,0,1.41-1.54,2.48,2.48,0,0,0,.25-.68A2.88,2.88,0,0,0,447.66,1179Zm68.23-2a27.88,27.88,0,0,0-7.32-7.88,108,108,0,0,0-14.46-8.67q-4.61-2.46-7-3.82a26.08,26.08,0,0,1-3.45-2.18,4.93,4.93,0,0,1-1.38-1.63,3.21,3.21,0,0,1-.49-1.72c0-2.18,2-4.9,6.09-8.19q7.56-6.21,13.22-7.07c.54-.08,1.09-.18,1.67-.28a11.43,11.43,0,0,0,1.29-.28,5.93,5.93,0,0,0,4-4,5.59,5.59,0,0,0,.24-1.6,6.37,6.37,0,0,0-1.47-3.94,8.51,8.51,0,0,0-6.71-2.77,20.31,20.31,0,0,0-6.15,1.11,54.22,54.22,0,0,0-6.34,2.77q-3.69,1.85-6.34,3.5a43.6,43.6,0,0,0-7.47,6.49,29.57,29.57,0,0,0-5.08,7.29,19.27,19.27,0,0,0-1.72,7.63q0,6.84,6.21,12.49a34.26,34.26,0,0,0,2.93,2.25q1.56,1.08,4.83,2.86t9.66,5.17a57,57,0,0,1,10.24,6.58q3.22,2.84,3.6,5.47a4.37,4.37,0,0,1,.06.68,4.14,4.14,0,0,1-.09.77,8,8,0,0,1-.53,1.45q-1.59,3-6.09,5.5a29,29,0,0,1-9.66,3.42q-6.27.91-7.19,5.35a6.86,6.86,0,0,0-.13,1.35,7.44,7.44,0,0,0,1,3.54,7,7,0,0,0,3.35,3,11,11,0,0,0,4,.68q5.42,0,13.47-3.87,13-6.71,15.82-16.8a12.92,12.92,0,0,0,.3-2.22c0-.53.06-1.12.06-1.78v-1.11a18.15,18.15,0,0,0-.73-5A18.94,18.94,0,0,0,515.89,1177Zm27,3.81c-.25-4.71-.43-10-.55-15.81q-.14-5.77-.37-13.66c-.08-4.26-.17-8.08-.25-11.44q-.18-5.6-.34-9.6c-.1-2.67-.19-4.18-.27-4.55a6.22,6.22,0,0,0-2.65-3.14,5.63,5.63,0,0,0-3-.86,5,5,0,0,0-1,.12q-4.12,1-5.41,5.66a79.51,79.51,0,0,0-.8,11.51q-.18,7.26-.19,15.81,0,2.16,0,8.8t.47,15.19q.36,5.91.92,13.05c.37,4.75.65,8.06.86,9.9q.74,5.79,4.55,7.51a7.8,7.8,0,0,0,2.59.49h.37a5.84,5.84,0,0,0,2.21-.37,7.25,7.25,0,0,0,3.45-3.2,7.6,7.6,0,0,0,.73-3.51v-1.16q0-2.22-.3-5.91C543.49,1190.46,543.15,1185.52,542.9,1180.8Zm70.44-19.69c.09,1.4.13,2.79.13,4.19a70.87,70.87,0,0,1-2.65,19.32,54.54,54.54,0,0,1-9.53,19.44,25.35,25.35,0,0,1-11.08,8.36,13.73,13.73,0,0,1-2.58.74,23.48,23.48,0,0,1-3.14.25h-1.41a16.19,16.19,0,0,1-3.63-.31q-7.58-2-13.39-9.23a46.78,46.78,0,0,1-8.58-18,85.37,85.37,0,0,1-2-18.58,96.1,96.1,0,0,1,3.32-24.61,63.92,63.92,0,0,1,4.74-12.06,20.83,20.83,0,0,1,4-5.85,10.13,10.13,0,0,1,4.83-2.46,29.54,29.54,0,0,1,5.41-.43q1.11,0,2.28.06a53.44,53.44,0,0,1,8.8,1Q610.94,1128.13,613.34,1161.11Zm-14,4.13a52.56,52.56,0,0,0-2.83-17.35q-2.16-6.29-6-9t-10.34-2.7h-.3a9.88,9.88,0,0,0-3.6.46,3.33,3.33,0,0,0-1.69,1.75,43,43,0,0,0-2.56,8.65,117.65,117.65,0,0,0-2,12.21q-.43,4.49-.43,8.55,0,14.09,5.11,23.63,4.42,7.62,9,7.62a6.3,6.3,0,0,0,3.14-.86q3.69-2.14,7.26-9.23,4.43-9.17,4.83-15.59T599.38,1165.24ZM679.73,1121a6.7,6.7,0,0,0-4.8-2.46h-.31a6.72,6.72,0,0,0-4.73,2,6.38,6.38,0,0,0-1.7,2.8,22.42,22.42,0,0,0-.7,5.07q-.32,4.38-.77,11.23t-.83,12.83q-.2,2.89-.4,7.75t-.34,9.48c-.08,2.74-.17,4.95-.25,6.61s-.17,2.94-.28,3.84a6.84,6.84,0,0,1-.4,1.91,1.72,1.72,0,0,1-.61.8.68.68,0,0,1-.37.12.81.81,0,0,1-.34-.12,4.48,4.48,0,0,1-.77-.74c-.24-.32-.53-.77-.86-1.32s-.61-1.1-.86-1.63-.57-1.49-1.11-2.74-1.08-2.55-1.66-3.9q-3.14-7.45-10.46-27.5a155.26,155.26,0,0,0-6.36-15.66c-1.5-2.89-3-4.55-4.4-5a7.35,7.35,0,0,0-2.28-.36,10.34,10.34,0,0,0-4.12,1.07,7.78,7.78,0,0,0-3.76,3.79,10.37,10.37,0,0,0-.49,1.63,22,22,0,0,0-.37,2.18c-.12,1.52-.2,4.61-.24,9.29q-.06,4.74-.06,9.6,0,2.46.06,7.5t.24,8.86c.13,1.73.29,4.26.5,7.6s.41,6.7.61,10.06q.5,8.49.86,13.14c.25,3.09.47,5.35.68,6.76a10.67,10.67,0,0,0,.8,3.11,7.27,7.27,0,0,0,4.18,4.06,6.43,6.43,0,0,0,2,.31,8.43,8.43,0,0,0,2.55-.53,6.66,6.66,0,0,0,3-2.24,6,6,0,0,0,1.35-3.26c0-.45.06-1,.06-1.6q0-1.9-.24-4.92-.44-4.62-.8-10.52c-.25-3.94-.45-7.45-.62-10.52q-.12-3.45-.12-4.74v-.55c.25-1,.61-1.54,1.11-1.54a.53.53,0,0,1,.24.06,2,2,0,0,1,.86.89,25.5,25.5,0,0,1,1.36,2.62q.85,1.84,2.27,5.23,4.92,11.57,8.25,17.75t6.06,8.39a9.53,9.53,0,0,0,6.18,2.22h.25q5,0,8.12-4.92,2.08-3,3-9.6a215.66,215.66,0,0,0,1.3-21.72q.42-15.13,1.78-34,.43-6.64.55-10.28v-.86a20,20,0,0,0-.4-4.61A6.29,6.29,0,0,0,679.73,1121ZM289.3,639.63q-4.83,0-9.32,4-2.37,1.85-7.51,6.55t-9.8,9.14q-4.67,4.44-5.62,5.49a20.06,20.06,0,0,0-1.89,3.61,9.24,9.24,0,0,0-.84,3.42,7.73,7.73,0,0,0,1.63,4.49,9.18,9.18,0,0,0,3.91,3.25,7.93,7.93,0,0,0,2.81.44c.18,0,.64,0,1.41-.09a8.05,8.05,0,0,0,2.55-.7,50.54,50.54,0,0,0,4.61-3.3q3.74-2.85,8.57-6.68t8.92-7.16q4.08-3.35,5.58-4.75,4.21-4.21,4.22-8.52a8.88,8.88,0,0,0-2.55-6.64A9.44,9.44,0,0,0,289.3,639.63Zm44.21,431.6q-4.83,0-9.32,4-2.37,1.85-7.51,6.55t-9.8,9.14c-3.11,3-5,4.79-5.63,5.49a21.71,21.71,0,0,0-1.89,3.6,9.49,9.49,0,0,0-.83,3.43,7.68,7.68,0,0,0,1.63,4.48,9.13,9.13,0,0,0,3.91,3.26,7.93,7.93,0,0,0,2.81.44q.25,0,1.41-.09a7.93,7.93,0,0,0,2.54-.7,48.6,48.6,0,0,0,4.62-3.3q3.74-2.85,8.57-6.68t8.92-7.16q4.08-3.35,5.58-4.75,4.22-4.21,4.22-8.52a8.88,8.88,0,0,0-2.55-6.64A9.44,9.44,0,0,0,333.51,1071.23Z" transform="translate(-3.14 0)"/></svg>