<svg id="Layer_1" data-name="Layer 1" xmlns="http://www.w3.org/2000/svg" viewBox="0 0 924.81 999.18"><defs><style>.cls-1{fill:#0903f9;}.cls-2{fill:#41553d;}</style></defs><g id="bar_à_jeux" data-name="bar à jeux"><path class="cls-1" d="M78.31,100.78A9.7,9.7,0,0,1,80.77,107a10.91,10.91,0,0,1-1.4,5.1,8.65,8.65,0,0,1-2.55,2.9,31.58,31.58,0,0,1-5.36,2.9l-5,2.33-6.11,2.86q-6.24,3-9.4,4.26a35.68,35.68,0,0,1-6.16,1.89,35.28,35.28,0,0,1-8.17,1.05,30.41,30.41,0,0,1-3.16-.17q-15.55-2.2-21.62-19.95-3.53-9.85-3.52-29.8c0-2.28,0-4.66.09-7.12q.17-8.43.66-17.49t1.1-14.41q.35-3.43,1.23-9.93T13.18,19q.88-5.88,1.23-7.47c1.18-4.86,3.75-7.88,7.74-9a8.06,8.06,0,0,1,2-.26,7.92,7.92,0,0,1,3.43.79,8.16,8.16,0,0,1,4,3.86,6.55,6.55,0,0,1,.62,1.5,7.34,7.34,0,0,1,.17,1.67q0,1-.09,2.64c-.11,2.28-.44,7-1,14.06s-1.09,14.73-1.67,22.94q-.8,8.88-.79,27.51,0,8.52,0,12.57t.26,6c.15,1.29.34,2.49.57,3.61q1.68,7,4.49,9.22a4.5,4.5,0,0,0,2.55,1l1.4,0a12.93,12.93,0,0,0,4.13-.7c.82-.3,2.19-.85,4.09-1.67s3.88-1.73,5.93-2.73q8.35-4,12-5.36a18.7,18.7,0,0,1,5.8-1.49,7.91,7.91,0,0,1,1.14-.09A8.52,8.52,0,0,1,78.31,100.78ZM124.8,3.31q-4.83,0-9.31,4Q113.12,9.2,108,13.9T98.17,23c-3.1,3-5,4.79-5.62,5.5a20.94,20.94,0,0,0-1.89,3.6,9.28,9.28,0,0,0-.84,3.43,7.77,7.77,0,0,0,1.63,4.48,9.16,9.16,0,0,0,3.91,3.25,7.71,7.71,0,0,0,2.81.44q.27,0,1.41-.09a7.79,7.79,0,0,0,2.55-.7,46.49,46.49,0,0,0,4.61-3.3q3.74-2.85,8.57-6.68t8.92-7.16q4.09-3.35,5.58-4.75Q134,16.85,134,12.54a8.9,8.9,0,0,0-2.55-6.64A9.42,9.42,0,0,0,124.8,3.31Zm99.85,112.94a10.4,10.4,0,0,1,.26,2,3.12,3.12,0,0,1-.09.79q-1.4,8.09-9.22,8.44a10.29,10.29,0,0,1-7.3-2.9,14.34,14.34,0,0,1-2.72-3.3,27,27,0,0,1-2.29-5.23,14.83,14.83,0,0,0-2.33-4.52,4.43,4.43,0,0,0-3-1.54,8.43,8.43,0,0,0-1.49-.09c-1.12,0-2.67.06-4.66.18-3.28.17-6.79.39-10.51.66s-6.51.51-8.39.74c-2.64.3-4.44,1-5.4,2s-1.57,3-1.81,6a15.14,15.14,0,0,1-1.14,5.14,9.13,9.13,0,0,1-2.64,3.3,5.31,5.31,0,0,1-1.84,1.05,11.34,11.34,0,0,1-2.55.36h-1a11.32,11.32,0,0,1-1.58-.09,5.66,5.66,0,0,1-1.76-.62,11.45,11.45,0,0,1-2.77-2.28,11.77,11.77,0,0,1-2.06-3.08q-.88-1.94-.88-6.94a156.8,156.8,0,0,1,1.58-18.81q1.59-11.16,5.14-26t8.05-28.7q10.71-33,22.5-38.41a8.61,8.61,0,0,1,2.59-1,23.78,23.78,0,0,1,3.47-.18,15.16,15.16,0,0,1,5.19.75,13.17,13.17,0,0,1,4.21,2.77,19.07,19.07,0,0,1,4.71,6.41,50.05,50.05,0,0,1,3.2,11.52q1.41,7.64,3.08,21.44,5.9,48.08,12.13,65.92A38.09,38.09,0,0,1,224.65,116.25Zm-28.57-31a6.89,6.89,0,0,0-.08-1c-.06-.76-.19-1.83-.4-3.21s-.48-3.27-.83-5.67q-.71-4.3-1.59-10.85T191.6,52.35Q189.94,39.71,189.32,38a1.81,1.81,0,0,0-1.59-1.14h-.17a2.88,2.88,0,0,0-2,1.49Q184,41,180.48,52.31t-6.81,24.48q-2.1,8.34-2.11,11.6a3.86,3.86,0,0,0,.27,1.67,3.26,3.26,0,0,0,.7.66,8.69,8.69,0,0,0,1.23.75,4.64,4.64,0,0,0,1.14.43l2.55-.35c1.7-.17,3.75-.41,6.15-.7s4.63-.67,6.51-1a23.57,23.57,0,0,0,3.51-.7,3.74,3.74,0,0,0,2-2.2,3.84,3.84,0,0,0,.36-1A4.91,4.91,0,0,0,196.08,85.22Zm114.67,15.64q0-5.91.19-12.61.44-11.82.43-19.44c0-2.55-.07-5.67-.22-9.39a33.33,33.33,0,0,0-1.56-9.5q-2.54-7.5-8-9.72a10.51,10.51,0,0,0-3.94-.8A12.67,12.67,0,0,0,290.39,42q-6.76,5.48-14.15,21.35A31,31,0,0,1,274,67.82q-.68.93-1.23.93a.56.56,0,0,1-.3-.07,1,1,0,0,1-.59-.3,2.81,2.81,0,0,1-.43-.86c-.14-.41-.32-1-.52-1.82s-.45-1.9-.74-3.29A55.63,55.63,0,0,0,267,51.27a18.23,18.23,0,0,0-4.46-6.4,15.42,15.42,0,0,0-2.52-2,9.37,9.37,0,0,0-2.65-1.07,10.77,10.77,0,0,0-2.64-.37h-.83a8.1,8.1,0,0,0-2.31.55q-5.35,1.73-9.51,8.68a57,57,0,0,0-6.36,17.78,148.76,148.76,0,0,0-2.59,29.16q0,7.26.34,11.5a99.27,99.27,0,0,0,1.38,9.85,29.39,29.39,0,0,0,2,6.83,7.39,7.39,0,0,0,3,3.32,7.52,7.52,0,0,0,3.57,1,6,6,0,0,0,4.36-2,5.45,5.45,0,0,0,1.42-3.87,9.22,9.22,0,0,0-.25-2.09c-.41-1.85-.7-3.27-.86-4.28s-.31-2.35-.43-4-.27-4.43-.31-8.12v-5.48q0-2.76,0-6.86c0-2.72.12-4.95.28-6.67.08-1.07.2-2.37.37-3.91s.33-3,.49-4.27q1.35-10.27,3.14-14.65c.78-1.88,1.56-2.83,2.34-2.83a1.81,1.81,0,0,1,1.29.86A6.22,6.22,0,0,1,256,64c.29,1.1.65,3,1.11,5.78s1,6.7,1.78,11.84,1.68,11.91,2.83,20.28c.29,2.25.55,4,.8,5.16a9.44,9.44,0,0,0,.92,2.74,10.32,10.32,0,0,0,1.42,1.88,8.06,8.06,0,0,0,1.54,1.26,4.91,4.91,0,0,0,1.53.58,7.57,7.57,0,0,0,1.67.19,8.23,8.23,0,0,0,3.9-1.11,8.34,8.34,0,0,0,3.42-3.94,21.71,21.71,0,0,0,.77-2.18c.3-1,.58-2,.83-3.11q5.28-23.5,12-37,1.49-2.89,2.34-4.4a8.68,8.68,0,0,1,1.42-2,1.8,1.8,0,0,1,1.23-.49,1.28,1.28,0,0,1,.77.21,2.1,2.1,0,0,1,.52.89,5.62,5.62,0,0,1,.28,1.42c.06.65.09,1.8.09,3.44s0,4-.06,7.08q-.25,14.76-.37,22.45-.06,5.11-.06,8.43c0,1.15,0,2.55,0,4.19s.07,3.42.15,5.35a91.62,91.62,0,0,0,1,11.14,9.55,9.55,0,0,0,2,4.67,7,7,0,0,0,1,.92,5.22,5.22,0,0,0,1.17.74,6.5,6.5,0,0,0,2.83.68,10.28,10.28,0,0,0,2.64-.52,5.77,5.77,0,0,0,3.08-2.68,8.29,8.29,0,0,0,1.11-3,12.58,12.58,0,0,0,.06-1.35,28.66,28.66,0,0,0-.19-3.07Q310.76,112.12,310.75,100.86Zm63.68-59.31a3.7,3.7,0,0,0-1.41-.74,12.53,12.53,0,0,0-2.1-.12,10.92,10.92,0,0,0-2.18.15,5.38,5.38,0,0,0-1.51.71q-2.82,1.73-3.38,6c-.08.66-.14,2.33-.18,5s-.07,5.62-.07,8.82q-.12,57.35-12.18,57.34-2.52,0-5-2.89a18.91,18.91,0,0,1-3.82-7.38Q339,96.67,338.5,66.35q-.12-6.09-.27-10.59c-.11-3-.18-4.75-.22-5.29q-.43-4.42-3.75-5.9a5.82,5.82,0,0,0-2.4-.56,6.8,6.8,0,0,0-2.86.83,6.43,6.43,0,0,0-2.8,3.54,8.2,8.2,0,0,0-.43,1.72c-.13.74-.24,1.88-.34,3.42s-.24,3.68-.4,6.43q-.43,7.14-.43,13.66,0,7.68.61,14.52,1.35,16.23,4,24.91t7.82,13.6a23.69,23.69,0,0,0,11.5,6.58,17.14,17.14,0,0,0,3.2.31q7,0,13.29-6.09,5.6-5.3,8.61-17.23,2.58-9.78,3.69-28,.26-4.43.37-12.12t.13-14.46c0-4.51-.07-7.32-.19-8.43A8,8,0,0,0,374.43,41.55Zm60.05,54.88a27.85,27.85,0,0,0-7.32-7.87,109,109,0,0,0-14.46-8.68q-4.62-2.46-7.05-3.81a25.63,25.63,0,0,1-3.44-2.19,4.63,4.63,0,0,1-1.38-1.63,3.22,3.22,0,0,1-.5-1.72q0-3.25,6.09-8.18,7.57-6.23,13.23-7.08l1.66-.27c.58-.11,1-.2,1.29-.28a5.9,5.9,0,0,0,4-4,5.24,5.24,0,0,0,.25-1.6,6.35,6.35,0,0,0-1.48-3.94,8.52,8.52,0,0,0-6.7-2.77,20.37,20.37,0,0,0-6.16,1.11,56.73,56.73,0,0,0-6.33,2.77c-2.46,1.23-4.58,2.4-6.34,3.51a42.44,42.44,0,0,0-7.47,6.49,29.21,29.21,0,0,0-5.08,7.29,19.23,19.23,0,0,0-1.72,7.63q0,6.83,6.21,12.49a34,34,0,0,0,2.92,2.24q1.57,1.08,4.83,2.86T409.19,94a57.72,57.72,0,0,1,10.25,6.58q3.22,2.83,3.6,5.48a4.18,4.18,0,0,1,.06.68,3.45,3.45,0,0,1-.1.76,7.75,7.75,0,0,1-.52,1.45c-1.07,2-3.1,3.8-6.09,5.51a28.93,28.93,0,0,1-9.66,3.41q-6.27.93-7.2,5.35a7.9,7.9,0,0,0-.12,1.36,7.44,7.44,0,0,0,1,3.53,7,7,0,0,0,3.35,3,11.22,11.22,0,0,0,4,.68q5.42,0,13.47-3.88,13-6.7,15.81-16.8a11.77,11.77,0,0,0,.31-2.21c0-.53.06-1.13.06-1.79V106a18.15,18.15,0,0,0-.74-5A19.26,19.26,0,0,0,434.48,96.43Zm55.62,12a5,5,0,0,0-1.6-.68,3.73,3.73,0,0,0-1-.12,7.59,7.59,0,0,0-.92.06,6.6,6.6,0,0,0-2.28.4,18.76,18.76,0,0,0-2.89,1.45c-1.19.69-2.83,1.74-4.92,3.13q-2.16,1.42-4,2.56a18.71,18.71,0,0,1-2.68,1.44,6.55,6.55,0,0,1-2.46.56,4.28,4.28,0,0,1-2.92-1.36q-1.44-1.35-2.43-6.4a13,13,0,0,1-.31-1.6v-.55a4.81,4.81,0,0,1,0-.52,2.41,2.41,0,0,1,.22-.71,3.59,3.59,0,0,1,.52-.86,4.29,4.29,0,0,1,.65-.68,11.61,11.61,0,0,1,1.72-.52c.9-.23,1.91-.46,3-.71,4.23-.74,7.25-1.31,9.08-1.72a20.77,20.77,0,0,0,3.78-1.11q4.92-2.4,4.92-6.58a7.83,7.83,0,0,0-.24-1.85A6.72,6.72,0,0,0,481.85,88a5.63,5.63,0,0,0-3-.67c-.25,0-.86,0-1.85.15a64.36,64.36,0,0,0-6.7,1.45q-3.51.85-5.36,1.16a13.34,13.34,0,0,1-2.27.25c-.17,0-.43,0-.8-.06a1.47,1.47,0,0,1-1-.62,2.36,2.36,0,0,1-.52-.73,4,4,0,0,1-.21-1.11c-.05-.49-.09-1.23-.13-2.22V84.06c0-1.23,0-3.09.06-5.59s.12-5.46.22-8.86.2-6.39.31-9a32.09,32.09,0,0,1,.34-4.53,3.65,3.65,0,0,1,2.83-2.52,26,26,0,0,1,2.61-.31q2.12-.18,4.83-.3c3.61-.17,6.39-.31,8.34-.44a38.62,38.62,0,0,0,4.27-.43,10,10,0,0,0,2.09-.55A6.91,6.91,0,0,0,490,46.72a5.71,5.71,0,0,0,.13-1.23,6.8,6.8,0,0,0-2-4.74,6.22,6.22,0,0,0-3-1.78,20.51,20.51,0,0,0-4.61-.37h-.92a71,71,0,0,0-7.39.43q-4.11.44-10.52,1.41c-2.58.42-4.57.77-6,1.08a12.49,12.49,0,0,0-3.17,1,7.74,7.74,0,0,0-2,1.57,6.21,6.21,0,0,0-1.54,2.33,21.37,21.37,0,0,0-1,4.56q-.43,3.13-1,9.1-1.29,14.1-1.29,25.78a149.38,149.38,0,0,0,1.54,22.7q3.32,19.81,14.58,22.77a17.93,17.93,0,0,0,3.87.43,26.18,26.18,0,0,0,10.83-2.65c1.11-.57,2.7-1.52,4.77-2.83s4.07-2.63,6-4a45.81,45.81,0,0,0,4-3,6.56,6.56,0,0,0,2.27-5,4.52,4.52,0,0,0-.06-.74A5.77,5.77,0,0,0,490.1,108.43Zm75-26.9a5.29,5.29,0,0,0-1.58-.39c-.7-.09-1.8-.16-3.29-.22s-3.64-.09-6.42-.09H542.67q-13.89,0-21.18.26A54.3,54.3,0,0,0,511,82.19a9.86,9.86,0,0,0-4.74,2.51,8.3,8.3,0,0,0-2.73,6.15c0,.06,0,.7,0,1.93s1,2.67,2.95,4.31a7.15,7.15,0,0,0,2.55,1.54,20,20,0,0,0,4.3.75c1.94.17,4.81.32,8.62.43l10.15.4q5.4.23,9.1.4,7.38.35,12.39.35c1.29,0,3.1,0,5.45-.09a20,20,0,0,0,6.11-1,9.68,9.68,0,0,0,4.26-3,9.45,9.45,0,0,0,2.37-6.06,17.68,17.68,0,0,0-.83-4.13Q570.18,83.83,565.08,81.53Zm102.66-55a34.19,34.19,0,0,1,.62,7.12,43,43,0,0,1-.53,7.3,49.74,49.74,0,0,1-1.54,5.45,58.76,58.76,0,0,1-2.5,5.8q-3.43,7.11-11.61,16.26-1.75,2-3,3.69a14.33,14.33,0,0,0-1.45,2.11,2.5,2.5,0,0,0-.17,1,3.3,3.3,0,0,0,.52,1.67,20.69,20.69,0,0,0,3.52,3.6c1,1,1.95,2,2.85,2.94a23.72,23.72,0,0,1,2,2.33,20.44,20.44,0,0,1,2.81,10.64,29.65,29.65,0,0,1-.26,4,35.84,35.84,0,0,1-7.12,16.17q-10.2,12.93-31.46,16.18a43.09,43.09,0,0,1-5.1.44H612.9q-2.64,0-6-.27a21.05,21.05,0,0,1-5.1-.88,8.78,8.78,0,0,1-3.16-1.93,10,10,0,0,1-2.42-2.9,17.13,17.13,0,0,1-1.49-5.27c-.38-2.41-.75-6-1.1-10.77s-.76-11.24-1.23-19.38q-1.06-19.33-1.58-30.28t-.71-17.75Q590,36.89,590,28.89t.13-12.13a48.16,48.16,0,0,1,.48-6.11,12.45,12.45,0,0,1,1.06-3.38,7.81,7.81,0,0,1,4.26-4.13q3-1.32,10.33-2.29A132.71,132.71,0,0,1,624.15-.56a61.58,61.58,0,0,1,8.43.53,63.47,63.47,0,0,1,12.79,3.78,49.37,49.37,0,0,1,10.94,6A30.45,30.45,0,0,1,667.74,26.51ZM638,98.76c0-1.82-1.06-3.1-3.17-3.87a18.07,18.07,0,0,0-5.27-.52,58.28,58.28,0,0,0-7.43.48,22.34,22.34,0,0,0-5.4,1.19,4.59,4.59,0,0,0-2.55,2.41,15.2,15.2,0,0,0-.62,5.14,21.09,21.09,0,0,0,.53,5.59,3.77,3.77,0,0,0,1.93,2.41,4.21,4.21,0,0,0,2.46.79,19.17,19.17,0,0,0,4.31-.79,27.62,27.62,0,0,0,10.9-5.4Q637.94,102.55,638,98.76Zm10-65.57a9.45,9.45,0,0,0-.08-1.31,6.2,6.2,0,0,0-.79-2.2,8.38,8.38,0,0,0-1.1-1.85,8.93,8.93,0,0,0-1.54-1.58A26.64,26.64,0,0,0,639,23a46.47,46.47,0,0,0-7.25-2.68,24.78,24.78,0,0,0-3.16-.75c-.94-.14-2-.24-3.34-.3s-3.08-.09-5.36-.09-4.19,0-5.36,0a13.51,13.51,0,0,0-2.46.22,2.51,2.51,0,0,0-1.15.62,3.87,3.87,0,0,0-1.49,1.76,9.43,9.43,0,0,0-.44,3.42c0,1.53.12,3.78.35,6.77q.27,3.53.57,9.36t.66,11.38c.18,3.58.35,6.74.53,9.5s.29,4.45.35,5.09c.29,3,1.38,4.49,3.25,4.49a3.29,3.29,0,0,0,.88-.22c.41-.15.88-.34,1.41-.58q5.88-2.8,13.71-9.93A79.21,79.21,0,0,0,643,47.43a37.4,37.4,0,0,0,3.74-6.59,16.53,16.53,0,0,0,1.1-5.62C647.93,34.45,648,33.78,648,33.19Zm80.84,87a7.11,7.11,0,0,1,.18,1.41,2.4,2.4,0,0,1-.06.56q-1,5.66-6.46,5.9a7.18,7.18,0,0,1-5.11-2,9.92,9.92,0,0,1-1.9-2.3,18.69,18.69,0,0,1-1.6-3.66,10.46,10.46,0,0,0-1.63-3.17,3.09,3.09,0,0,0-2.13-1.08,6.13,6.13,0,0,0-1-.06c-.78,0-1.87,0-3.26.12q-3.45.19-7.35.46c-2.61.19-4.57.36-5.88.53a5.92,5.92,0,0,0-3.78,1.41c-.68.74-1.1,2.14-1.26,4.19a10.93,10.93,0,0,1-.8,3.59,6.3,6.3,0,0,1-1.85,2.31,3.76,3.76,0,0,1-1.29.74,8.19,8.19,0,0,1-1.79.25h-.67a6.81,6.81,0,0,1-1.11-.07,3.82,3.82,0,0,1-1.23-.43,8.8,8.8,0,0,1-3.38-3.75,12.89,12.89,0,0,1-.62-4.86,108.8,108.8,0,0,1,1.11-13.17q1.11-7.8,3.6-18.18t5.63-20.08q7.5-23.07,15.75-26.89a6.24,6.24,0,0,1,1.81-.68,17.43,17.43,0,0,1,2.43-.12,10.82,10.82,0,0,1,3.63.52,9.28,9.28,0,0,1,3,1.94,13.54,13.54,0,0,1,3.3,4.49,35.52,35.52,0,0,1,2.24,8.06q1,5.35,2.15,15,4.13,33.66,8.5,46.15A27.55,27.55,0,0,1,728.8,120.18Zm-20-21.72a4.37,4.37,0,0,0-.06-.68c0-.53-.13-1.28-.28-2.24s-.33-2.29-.58-4q-.5-3-1.11-7.6t-1.1-8.52a94.21,94.21,0,0,0-1.6-10,1.28,1.28,0,0,0-1.11-.8h-.13a2,2,0,0,0-1.41,1q-1.11,1.85-3.54,9.75t-4.77,17.14a39.81,39.81,0,0,0-1.47,8.12,2.85,2.85,0,0,0,.18,1.17,2.5,2.5,0,0,0,.49.46,5.88,5.88,0,0,0,.87.52,3.36,3.36,0,0,0,.8.31l1.78-.25c1.19-.12,2.62-.29,4.31-.49s3.24-.47,4.55-.68a17,17,0,0,0,2.46-.49,2.64,2.64,0,0,0,1.42-1.54,2.73,2.73,0,0,0,.24-.67A3,3,0,0,0,708.8,98.46ZM784.17,109a8.08,8.08,0,0,1,.25,1.91,6.43,6.43,0,0,1-4,6,5.69,5.69,0,0,1-2.34.43,21.24,21.24,0,0,1-5.91-1.11c-1.84-.57-4-1.15-6.34-1.72s-4.57-1.08-6.58-1.51a25.46,25.46,0,0,0-3.87-.65q-2,0-2.22.93a6.83,6.83,0,0,0-.24,1.72,29.68,29.68,0,0,0,.55,4.8c.41,2.42.63,4,.68,4.74s.06,1.25.06,1.53a6.63,6.63,0,0,1-.31,2.16,6,6,0,0,1-1.35,2.27,7.73,7.73,0,0,1-2.28,1.79,7.35,7.35,0,0,1-2.77.49,7.69,7.69,0,0,1-2.77-.49,8,8,0,0,1-3.63-3.88q-1.59-4.13-3.41-18.82t-2.92-32.18q-.32-4.92-.31-7.26V66.72c0-2.18,0-4.76.12-7.76.08-3.77.19-6.53.31-8.27a9.71,9.71,0,0,1,.74-3.63,7.19,7.19,0,0,1,1.72-2q3.45-3.2,12.37-3.51c.61,0,1.21-.06,1.78-.06q12.56,0,21.59,6.58a23.11,23.11,0,0,1,8.74,14.28,26.4,26.4,0,0,1,.37,4.43q0,12.24-10.64,25l-2,2.37c-.68.8-1.2,1.4-1.57,1.81a3.83,3.83,0,0,0-1.23,2.4,1.63,1.63,0,0,0,.67,1.29q.75.68,5.05,1.85a30.64,30.64,0,0,1,8.37,3.26A7.36,7.36,0,0,1,784.17,109ZM767.5,70.78a16.35,16.35,0,0,0,.43-3.76,10.8,10.8,0,0,0-.5-3.44,10.44,10.44,0,0,0-4.86-5.39,24.71,24.71,0,0,0-9.22-3.1,11.87,11.87,0,0,0-1.54-.19h-.56a3.48,3.48,0,0,0-.67.06,4.77,4.77,0,0,0-.93.31.7.7,0,0,1-.18.12,2.35,2.35,0,0,0-1.05.74,2.64,2.64,0,0,0-.4,1.48c0,.66,0,1.21,0,1.66q0,1.35.06,3.51c.13,2.17.31,5.17.56,9,0,.57,0,1.17.06,1.78q.38,5.61.58,8.89c.15,2.2.3,3.84.47,4.93a9.36,9.36,0,0,0,.52,2.24,1.43,1.43,0,0,0,.71.8.86.86,0,0,0,.49.25h.61l.93-.37a11.11,11.11,0,0,0,2.49-2q1.75-1.66,3.69-3.75a46.5,46.5,0,0,0,3.17-3.76,38.54,38.54,0,0,0,3.14-5.16A28.23,28.23,0,0,0,767.5,70.78Zm46.7,45.47q-3.08-5.53-7.82-6.24a13.37,13.37,0,0,0-1.5-.09,6.93,6.93,0,0,0-5.88,3,6.25,6.25,0,0,0-1.15,3.78,17.37,17.37,0,0,0,1.94,7.12,14.77,14.77,0,0,1,1.84,6.68,9.62,9.62,0,0,1-.17,1.76,16.6,16.6,0,0,1-1.15,3.91,17.73,17.73,0,0,1-2.37,3.82,8.65,8.65,0,0,0-1.84,4.83,7,7,0,0,0,1.31,3.48q1.32,2.06,5.54,2.24h.35q4.05,0,7.91-4.13A26,26,0,0,0,817.28,133a22.1,22.1,0,0,0,.26-3.34A30.73,30.73,0,0,0,814.2,116.25Z" transform="translate(0 0.56)"/><path class="cls-2" d="M61.74,337.88a66.23,66.23,0,0,1-10.94,6.06,34.64,34.64,0,0,1-12.74,2.64,31,31,0,0,1-3.34-.18Q23.64,345.08,15.21,336,4.48,324.6,4.48,307.2v-.53a70.45,70.45,0,0,1,1.23-13.22A103.64,103.64,0,0,1,10,278.37q10.2-29.17,27.07-46.75Q50.36,218,60.82,218a15.77,15.77,0,0,1,4.66.71q4.74,1.67,5.93,4.48a12.35,12.35,0,0,1,1.19,4.39A8.55,8.55,0,0,1,71,232.32c-1.23,1.93-3.61,3.22-7.12,3.87a17.62,17.62,0,0,0-4.84,1.67,19.15,19.15,0,0,0-4.22,3.34Q44.57,251.65,35.6,269.5q-11,22.59-11,36.82,0,9.93,5.36,15.74A10.58,10.58,0,0,0,38.06,326a6.2,6.2,0,0,0,1-.09,14.32,14.32,0,0,0,5.27-1.32,50.34,50.34,0,0,0,7.21-4.13,45.16,45.16,0,0,1,6.11-3.56,11,11,0,0,1,4.26-.83,9,9,0,0,1,7.39,3.25,9.36,9.36,0,0,1,2.28,6,11.29,11.29,0,0,1-2,6.06Q67.5,334,61.74,337.88ZM88.68,259.3a7.71,7.71,0,0,0,2.81.44q.27,0,1.41-.09a7.79,7.79,0,0,0,2.55-.7,46.49,46.49,0,0,0,4.61-3.3q3.73-2.85,8.57-6.68t8.92-7.16q4.1-3.34,5.58-4.75,4.23-4.22,4.22-8.52a8.9,8.9,0,0,0-2.55-6.64,9.42,9.42,0,0,0-6.68-2.59q-4.83,0-9.31,4-2.37,1.85-7.52,6.55T91.49,239c-3.1,3-5,4.79-5.62,5.5a20.94,20.94,0,0,0-1.89,3.6,9.28,9.28,0,0,0-.84,3.43,7.77,7.77,0,0,0,1.63,4.48A9.16,9.16,0,0,0,88.68,259.3Zm69.61,88.08a18,18,0,0,0,3.88.43A26.25,26.25,0,0,0,173,345.16c1.1-.57,2.69-1.52,4.76-2.83s4.07-2.63,6-4a45.81,45.81,0,0,0,4-3,6.54,6.54,0,0,0,2.28-5,4.52,4.52,0,0,0-.06-.74,5.8,5.8,0,0,0-3.51-5.23,5,5,0,0,0-1.6-.68,3.73,3.73,0,0,0-1-.12,7.72,7.72,0,0,0-.92.06,6.5,6.5,0,0,0-2.27.4,18.79,18.79,0,0,0-2.9,1.45c-1.19.69-2.83,1.74-4.92,3.13-1.43.95-2.78,1.8-4,2.56a19.33,19.33,0,0,1-2.67,1.44,6.64,6.64,0,0,1-2.46.56,4.3,4.3,0,0,1-2.93-1.36q-1.44-1.35-2.43-6.4c-.16-.69-.26-1.23-.31-1.6v-.55a3.2,3.2,0,0,1,0-.52,2.68,2.68,0,0,1,.21-.71,3.94,3.94,0,0,1,.52-.86,4.29,4.29,0,0,1,.65-.68,12,12,0,0,1,1.72-.52c.9-.23,1.91-.46,3-.71,4.22-.74,7.25-1.31,9.07-1.72a20.68,20.68,0,0,0,3.79-1.11q4.92-2.4,4.92-6.58a7.38,7.38,0,0,0-.25-1.85,6.68,6.68,0,0,0-3.51-4.06,5.6,5.6,0,0,0-2.95-.67c-.24,0-.86.05-1.84.15a64.33,64.33,0,0,0-6.71,1.45q-3.51.85-5.35,1.16a13.54,13.54,0,0,1-2.28.25c-.16,0-.43,0-.8-.06a1.43,1.43,0,0,1-1-.62,2.4,2.4,0,0,1-.53-.73,4,4,0,0,1-.21-1.11q-.06-.74-.12-2.22v-1.54c0-1.23,0-3.09.06-5.59s.11-5.46.21-8.86.21-6.39.31-8.95a33.87,33.87,0,0,1,.34-4.53,3.66,3.66,0,0,1,2.83-2.52c.33-.08,1.2-.18,2.61-.31s3-.22,4.83-.3c3.61-.17,6.39-.31,8.34-.44a38.34,38.34,0,0,0,4.27-.43,10.17,10.17,0,0,0,2.1-.55,6.94,6.94,0,0,0,4.06-4.86,6.41,6.41,0,0,0,.12-1.23,6.8,6.8,0,0,0-2-4.74,6.24,6.24,0,0,0-2.95-1.78,20.67,20.67,0,0,0-4.62-.37H176a70.86,70.86,0,0,0-7.38.43q-4.12.43-10.52,1.41c-2.59.42-4.58.77-6,1.08a12.64,12.64,0,0,0-3.17,1.05,7.91,7.91,0,0,0-2,1.57,6.21,6.21,0,0,0-1.54,2.33,21.37,21.37,0,0,0-1,4.56q-.44,3.14-1,9.1-1.29,14.1-1.29,25.78a149.38,149.38,0,0,0,1.54,22.7Q147,344.42,158.29,347.38Zm24.06-60.17q0,6.82,6.21,12.49a34,34,0,0,0,2.92,2.24q1.58,1.08,4.83,2.86T206,310a57.72,57.72,0,0,1,10.25,6.58q3.22,2.83,3.59,5.48a4.24,4.24,0,0,1,.07.68,3.45,3.45,0,0,1-.1.76,7.75,7.75,0,0,1-.52,1.45c-1.07,2-3.1,3.8-6.09,5.51a28.93,28.93,0,0,1-9.66,3.41q-6.27.93-7.2,5.35a7.9,7.9,0,0,0-.12,1.36,7.53,7.53,0,0,0,1,3.53,7.09,7.09,0,0,0,3.36,3,11.22,11.22,0,0,0,4,.68q5.41,0,13.47-3.88,13-6.71,15.81-16.8a11.77,11.77,0,0,0,.31-2.21c0-.53.06-1.13.06-1.79V322a18.15,18.15,0,0,0-.74-5,19.26,19.26,0,0,0-2.21-4.58,27.85,27.85,0,0,0-7.32-7.87,109,109,0,0,0-14.46-8.68q-4.62-2.46-7-3.81a25.63,25.63,0,0,1-3.44-2.19,4.78,4.78,0,0,1-1.39-1.63,3.3,3.3,0,0,1-.49-1.72q0-3.25,6.09-8.18,7.58-6.23,13.23-7.08l1.66-.27c.58-.11,1-.2,1.29-.28a5.9,5.9,0,0,0,4-4,5.24,5.24,0,0,0,.25-1.6,6.35,6.35,0,0,0-1.48-3.94,8.52,8.52,0,0,0-6.7-2.77,20.37,20.37,0,0,0-6.16,1.11,56.73,56.73,0,0,0-6.33,2.77c-2.46,1.23-4.58,2.4-6.34,3.51a42.44,42.44,0,0,0-7.47,6.49,29.21,29.21,0,0,0-5.08,7.29A19.23,19.23,0,0,0,182.35,287.21Zm100.06-17.08a7.14,7.14,0,0,0,1.76-.46q4.49-2.09,4.67-6.09v-.24q0-3.88-4.18-6.16a7.68,7.68,0,0,0-1.29-.37,16.07,16.07,0,0,0-2.22-.15c-1,0-2.58,0-4.67,0a262.72,262.72,0,0,0-35.32,3,24.18,24.18,0,0,0-6.24,1.57,6.21,6.21,0,0,0-3,2.68,6.28,6.28,0,0,0-.8,3,9.18,9.18,0,0,0,.56,2.62,5.06,5.06,0,0,0,3.07,2.8,7.43,7.43,0,0,0,3,.43h.61c1.36,0,3.2-.1,5.54-.31,1.27-.08,2.34-.12,3.2-.12a14.28,14.28,0,0,1,2,.15,2.11,2.11,0,0,1,1.6,1.14,1.9,1.9,0,0,1,.28.71,10.54,10.54,0,0,1,.12,1.54c0,.71,0,1.76,0,3.13v8.89a360.39,360.39,0,0,0,2.83,44.3,69.38,69.38,0,0,0,2.31,12.27q1.2,3.48,3.6,4.46a6.86,6.86,0,0,0,2.95.68,11.14,11.14,0,0,0,2.31-.37,6.72,6.72,0,0,0,4.4-5.54,5.8,5.8,0,0,0,.06-.92,33.8,33.8,0,0,0-.56-5.17q-3.19-19.56-4-51.12-.12-4.31-.18-6.89c0-1.73-.06-3-.06-3.88a13.68,13.68,0,0,1,.09-1.87,2.45,2.45,0,0,1,.28-.9,2.41,2.41,0,0,1,1-1.23,6.36,6.36,0,0,1,2.43-.61c1.15-.13,2.83-.25,5-.37,2.42-.08,4.31-.18,5.69-.28S281.74,270.24,282.41,270.13Zm119.76,16q.12-7.69.12-14.46t-.18-8.43a8,8,0,0,0-3.2-5.66,3.73,3.73,0,0,0-1.42-.74,12.39,12.39,0,0,0-2.09-.12,10.92,10.92,0,0,0-2.18.15,5.26,5.26,0,0,0-1.51.71c-1.89,1.15-3,3.16-3.38,6-.09.66-.15,2.33-.19,5s-.06,5.62-.06,8.82q-.12,57.34-12.18,57.34-2.52,0-5-2.89a19,19,0,0,1-3.81-7.38q-3.57-11.82-4.06-42.14c-.08-4.06-.18-7.59-.28-10.59s-.17-4.75-.21-5.29q-.44-4.43-3.76-5.9a5.82,5.82,0,0,0-2.4-.56,6.88,6.88,0,0,0-2.86.83,6.47,6.47,0,0,0-2.8,3.54,9.68,9.68,0,0,0-.43,1.72q-.18,1.11-.33,3.42t-.4,6.43q-.43,7.14-.43,13.66,0,7.68.61,14.52,1.35,16.23,4,24.91t7.81,13.6A23.71,23.71,0,0,0,373,349.22a17.14,17.14,0,0,0,3.2.31q7,0,13.29-6.09,5.6-5.29,8.61-17.23,2.58-9.78,3.69-28Q402,293.79,402.17,286.1Zm13.29,17.29c.12,1.72.29,4.25.49,7.6s.41,6.69.62,10.05q.48,8.49.86,13.14c.24,3.1.47,5.35.67,6.77a11.27,11.27,0,0,0,.8,3.1,7.28,7.28,0,0,0,4.19,4.06,6.38,6.38,0,0,0,2,.31,8.48,8.48,0,0,0,2.55-.52,6.69,6.69,0,0,0,3-2.25,6,6,0,0,0,1.36-3.26c0-.45.06-1,.06-1.6,0-1.27-.08-2.91-.25-4.92q-.42-4.61-.8-10.52c-.24-3.94-.45-7.44-.61-10.52-.08-2.3-.13-3.88-.13-4.74v-.55c.25-1,.62-1.54,1.11-1.54a.57.57,0,0,1,.25.06,2.19,2.19,0,0,1,.86.89,25,25,0,0,1,1.35,2.62q.87,1.85,2.28,5.23,4.92,11.56,8.24,17.75t6.06,8.4a9.62,9.62,0,0,0,6.19,2.21h.24q5.06,0,8.12-4.92,2.1-3,3-9.6t1.29-21.72q.43-15.14,1.78-34,.44-6.64.56-10.27v-.86a20.68,20.68,0,0,0-.4-4.62,6.36,6.36,0,0,0-1.39-2.71A6.77,6.77,0,0,0,465,254h-.31a6.73,6.73,0,0,0-4.74,2,6.36,6.36,0,0,0-1.69,2.8,22.33,22.33,0,0,0-.71,5.08q-.3,4.37-.77,11.23t-.83,12.82c-.12,1.93-.26,4.52-.4,7.76s-.26,6.39-.34,9.47q-.12,4.13-.24,6.61c-.09,1.66-.18,2.95-.28,3.85a7.33,7.33,0,0,1-.4,1.91,1.85,1.85,0,0,1-.61.8.7.7,0,0,1-.37.12.73.73,0,0,1-.34-.12,4.53,4.53,0,0,1-.77-.74,12.51,12.51,0,0,1-.86-1.33,15.12,15.12,0,0,1-.86-1.63q-.32-.85-1.11-2.73c-.54-1.25-1.09-2.56-1.66-3.91q-3.13-7.44-10.46-27.5a152.26,152.26,0,0,0-6.37-15.66c-1.5-2.89-3-4.54-4.4-4.95a7.06,7.06,0,0,0-2.27-.37,10.41,10.41,0,0,0-4.13,1.08,7.7,7.7,0,0,0-3.75,3.78,9.39,9.39,0,0,0-.49,1.63,18,18,0,0,0-.37,2.18c-.12,1.52-.21,4.62-.25,9.29q-.06,4.74-.06,9.6,0,2.46.06,7.51C415.25,297.89,415.34,300.84,415.46,303.39ZM562.25,345.9a20.64,20.64,0,0,0,2.22.12,30.52,30.52,0,0,0,10-2.06c1.47-.59,3.67-1.59,6.58-3,1.39-.66,2.82-1.32,4.28-2l3.47-1.63a22.09,22.09,0,0,0,3.75-2,6,6,0,0,0,1.79-2,7.64,7.64,0,0,0,1-3.57,6.79,6.79,0,0,0-1.72-4.37,6,6,0,0,0-4.92-2.21,5.81,5.81,0,0,0-.8.06,13.45,13.45,0,0,0-4.06,1q-2.52,1-8.37,3.76c-1.43.69-2.82,1.33-4.15,1.9s-2.29,1-2.86,1.17a9.09,9.09,0,0,1-2.89.49c-.09,0-.41,0-1,0a3.22,3.22,0,0,1-1.78-.7c-1.32-1-2.36-3.18-3.14-6.46-.16-.78-.3-1.62-.4-2.53s-.16-2.29-.18-4.18,0-4.82,0-8.8q0-13,.56-19.25.61-8.62,1.17-16.06c.37-5,.59-8.25.67-9.85,0-.77.07-1.39.07-1.84a5,5,0,0,0-.13-1.17,4.09,4.09,0,0,0-.43-1.05,5.64,5.64,0,0,0-2.83-2.7,5.55,5.55,0,0,0-2.4-.56,5.48,5.48,0,0,0-1.41.19q-4.19,1.23-5.42,6.33c-.16.74-.45,2.49-.86,5.23s-.82,5.64-1.23,8.68-.7,5.35-.86,6.95c-.29,2.5-.54,5.87-.77,10.09s-.38,8.31-.46,12.24c0,1.73-.06,3.39-.06,5q0,14,2.46,20.85Q551.37,344.37,562.25,345.9Zm39.19-31.62q.38,5.89.93,13c.37,4.76.65,8.06.86,9.9q.74,5.79,4.55,7.51a7.56,7.56,0,0,0,2.59.49h.36a5.9,5.9,0,0,0,2.22-.37,7.18,7.18,0,0,0,3.44-3.2,7.39,7.39,0,0,0,.74-3.5V337q0-2.22-.3-5.91c-.46-5.17-.8-10.11-1.05-14.82s-.43-10-.55-15.82q-.13-5.78-.37-13.65c-.09-4.27-.17-8.08-.25-11.45-.12-3.73-.24-6.93-.34-9.6s-.19-4.18-.27-4.55a6.22,6.22,0,0,0-2.65-3.14,5.63,5.63,0,0,0-3-.86,4.43,4.43,0,0,0-1,.13q-4.12,1-5.41,5.66a79.32,79.32,0,0,0-.8,11.5q-.2,7.26-.19,15.81,0,2.16,0,8.8T601.44,314.28Zm44.61,33.1a17.93,17.93,0,0,0,3.87.43,26.18,26.18,0,0,0,10.83-2.65c1.11-.57,2.7-1.52,4.77-2.83s4.07-2.63,6-4a45.81,45.81,0,0,0,4-3,6.53,6.53,0,0,0,2.27-5,4.52,4.52,0,0,0-.06-.74,5.77,5.77,0,0,0-3.5-5.23,5,5,0,0,0-1.6-.68,3.73,3.73,0,0,0-1-.12,7.59,7.59,0,0,0-.92.06,6.6,6.6,0,0,0-2.28.4,19.22,19.22,0,0,0-2.89,1.45c-1.19.69-2.83,1.74-4.92,3.13q-2.16,1.43-4,2.56a18.71,18.71,0,0,1-2.68,1.44,6.55,6.55,0,0,1-2.46.56,4.28,4.28,0,0,1-2.92-1.36q-1.44-1.35-2.43-6.4a15.19,15.19,0,0,1-.31-1.6v-.55a4.81,4.81,0,0,1,0-.52,2.76,2.76,0,0,1,.22-.71,3.94,3.94,0,0,1,.52-.86,4.29,4.29,0,0,1,.65-.68,11.61,11.61,0,0,1,1.72-.52c.9-.23,1.91-.46,3-.71q6.33-1.11,9.07-1.72a20.51,20.51,0,0,0,3.78-1.11c3.28-1.6,4.93-3.79,4.93-6.58a7.87,7.87,0,0,0-.25-1.85A6.68,6.68,0,0,0,666,304a5.63,5.63,0,0,0-3-.67c-.25,0-.86.05-1.85.15a64.36,64.36,0,0,0-6.7,1.45c-2.34.57-4.12,1-5.36,1.16a13.34,13.34,0,0,1-2.27.25c-.17,0-.43,0-.8-.06a1.47,1.47,0,0,1-1-.62,2.36,2.36,0,0,1-.52-.73,4,4,0,0,1-.21-1.11c-.05-.49-.09-1.23-.13-2.22v-1.54c0-1.23,0-3.09.06-5.59s.12-5.46.22-8.86.2-6.39.31-8.95a32.09,32.09,0,0,1,.34-4.53,3.65,3.65,0,0,1,2.83-2.52c.32-.08,1.2-.18,2.61-.31s3-.22,4.83-.3c3.61-.17,6.39-.31,8.34-.44a38.62,38.62,0,0,0,4.27-.43,10,10,0,0,0,2.09-.55,7,7,0,0,0,4.07-4.86,6.41,6.41,0,0,0,.12-1.23,6.8,6.8,0,0,0-2-4.74,6.22,6.22,0,0,0-3-1.78,20.51,20.51,0,0,0-4.61-.37h-.92a71,71,0,0,0-7.39.43q-4.11.43-10.52,1.41c-2.58.42-4.57.77-6,1.08a12.64,12.64,0,0,0-3.17,1.05,7.74,7.74,0,0,0-2,1.57,6.21,6.21,0,0,0-1.54,2.33,21.37,21.37,0,0,0-1,4.56q-.44,3.14-1,9.1-1.29,14.1-1.29,25.78a149.38,149.38,0,0,0,1.54,22.7Q634.78,344.42,646.05,347.38ZM686.41,329q2.64,8.68,7.81,13.6a23.71,23.71,0,0,0,11.51,6.58,17.06,17.06,0,0,0,3.2.31q7,0,13.28-6.09,5.61-5.29,8.62-17.23,2.58-9.78,3.69-28,.24-4.43.37-12.12t.12-14.46q0-6.76-.18-8.43a8,8,0,0,0-3.2-5.66,3.81,3.81,0,0,0-1.42-.74,12.39,12.39,0,0,0-2.09-.12,10.92,10.92,0,0,0-2.18.15,5.26,5.26,0,0,0-1.51.71c-1.89,1.15-3,3.16-3.38,6-.09.66-.15,2.33-.19,5s-.06,5.62-.06,8.82q-.12,57.34-12.18,57.34c-1.68,0-3.37-1-5-2.89a19,19,0,0,1-3.81-7.38q-3.57-11.82-4.06-42.14c-.08-4.06-.18-7.59-.28-10.59s-.17-4.75-.21-5.29q-.44-4.43-3.76-5.9a5.82,5.82,0,0,0-2.4-.56,6.84,6.84,0,0,0-2.86.83,6.43,6.43,0,0,0-2.8,3.54,9.68,9.68,0,0,0-.43,1.72c-.12.74-.23,1.88-.34,3.42s-.23,3.68-.4,6.43q-.42,7.14-.43,13.66,0,7.68.62,14.52Q683.76,320.36,686.41,329Zm176.88-49.77A42.3,42.3,0,0,1,865,311.82a50.66,50.66,0,0,1-10,16.45A49.88,49.88,0,0,1,839.79,340a33.33,33.33,0,0,1-4.65,1.94,32.49,32.49,0,0,1-5.07,1.14c-1,.16-2,.36-3,.58s-1.74.43-2.27.59a12.66,12.66,0,0,1-3.51.55,7.24,7.24,0,0,1-3-.61,8,8,0,0,1-3.63-4.68q-.3-1.17-1.16-6.64t-1.76-12.15q-.88-6.68-1.44-11.48-1.11-9.66-1.45-15.78t-.34-16.09v-6.52c0-1.68,0-3,0-4a21.24,21.24,0,0,1,.13-2.24,7,7,0,0,1,.21-1.17,7.71,7.71,0,0,1,.31-.83,6.87,6.87,0,0,1,3-3.45,15.54,15.54,0,0,1,6-1.35c1.31-.12,2.65-.19,4-.19a60.79,60.79,0,0,1,16.55,2.53q9.6,2.7,15.41,7.23A30.71,30.71,0,0,1,863.29,279.27Zm-10.06,18.4a25.42,25.42,0,0,0-.71-6.65q-2.76-10.89-10.21-14.52a45.37,45.37,0,0,0-9.38-3.32,35.77,35.77,0,0,0-7.29-1.17,6.66,6.66,0,0,0-1.67.18c-1.39.33-2.09,1.52-2.09,3.57q0,.56.06,1.17c0,.74.14,2.17.28,4.28s.3,4.44.46,7q.5,7.69,1.17,14.31t1.66,14.3q.5,3.69.8,5.87c.21,1.46.38,2.57.53,3.33a6,6,0,0,0,.49,1.66,3.76,3.76,0,0,0,.64.89,2.37,2.37,0,0,0,1.79.8h.12a7.67,7.67,0,0,0,3-1.05q4.24-2.15,9.91-7.81,7.56-7.32,9.72-15.93A30.21,30.21,0,0,0,853.23,297.67Zm71.52,32a5.77,5.77,0,0,0-3.51-5.23,4.91,4.91,0,0,0-1.6-.68,3.6,3.6,0,0,0-1-.12,7.47,7.47,0,0,0-.92.06,6.6,6.6,0,0,0-2.28.4,18.76,18.76,0,0,0-2.89,1.45c-1.19.69-2.83,1.74-4.92,3.13q-2.16,1.43-4,2.56a19.27,19.27,0,0,1-2.68,1.44,6.55,6.55,0,0,1-2.46.56,4.28,4.28,0,0,1-2.92-1.36q-1.45-1.35-2.43-6.4a13,13,0,0,1-.31-1.6v-.55a4.81,4.81,0,0,1,0-.52,2.41,2.41,0,0,1,.22-.71,3.59,3.59,0,0,1,.52-.86,4.28,4.28,0,0,1,.64-.68A11.89,11.89,0,0,1,896,320c.9-.23,1.9-.46,3-.71,4.23-.74,7.25-1.31,9.08-1.72a20.77,20.77,0,0,0,3.78-1.11q4.92-2.4,4.92-6.58a7.83,7.83,0,0,0-.24-1.85A6.75,6.75,0,0,0,913,304a5.63,5.63,0,0,0-3-.67c-.25,0-.87.05-1.85.15a64.89,64.89,0,0,0-6.71,1.45c-2.33.57-4.12,1-5.35,1.16a13.34,13.34,0,0,1-2.27.25c-.17,0-.44,0-.8-.06a1.47,1.47,0,0,1-1-.62,2.2,2.2,0,0,1-.52-.73,4,4,0,0,1-.22-1.11q-.06-.74-.12-2.22v-1.54c0-1.23,0-3.09.06-5.59s.11-5.46.22-8.86.2-6.39.3-8.95a35.86,35.86,0,0,1,.34-4.53,3.66,3.66,0,0,1,2.83-2.52c.33-.08,1.2-.18,2.62-.31s3-.22,4.83-.3c3.61-.17,6.38-.31,8.33-.44a38.59,38.59,0,0,0,4.28-.43,10,10,0,0,0,2.09-.55,6.91,6.91,0,0,0,4.06-4.86,6.41,6.41,0,0,0,.12-1.23,6.76,6.76,0,0,0-2-4.74,6.19,6.19,0,0,0-2.95-1.78,20.51,20.51,0,0,0-4.61-.37h-.93a71,71,0,0,0-7.38.43c-2.75.29-6.25.76-10.52,1.41-2.58.42-4.57.77-6,1.08a12.78,12.78,0,0,0-3.17,1.05,7.86,7.86,0,0,0-2,1.57,6.21,6.21,0,0,0-1.54,2.33,21.88,21.88,0,0,0-1,4.56q-.42,3.14-1,9.1Q877,290.23,877,301.91a150.77,150.77,0,0,0,1.53,22.7q3.33,19.81,14.59,22.77a17.93,17.93,0,0,0,3.87.43,26.25,26.25,0,0,0,10.83-2.65c1.11-.57,2.7-1.52,4.77-2.83s4.07-2.63,6-4a47.47,47.47,0,0,0,4-3,6.56,6.56,0,0,0,2.27-5A4.52,4.52,0,0,0,924.75,329.66ZM39.5,528a3.83,3.83,0,0,0-1.23,2.4,1.63,1.63,0,0,0,.67,1.29q.75.67,5.05,1.85a30.64,30.64,0,0,1,8.37,3.26A7.36,7.36,0,0,1,55.68,541a8.06,8.06,0,0,1,.24,1.91,6.4,6.4,0,0,1-4,6,5.69,5.69,0,0,1-2.34.43,21.24,21.24,0,0,1-5.91-1.11c-1.84-.57-4-1.15-6.34-1.72s-4.57-1.08-6.58-1.51a25.46,25.46,0,0,0-3.87-.65q-2,0-2.22.93a6.87,6.87,0,0,0-.25,1.72,29.94,29.94,0,0,0,.56,4.8c.41,2.42.63,4,.68,4.74s.06,1.25.06,1.53a6.63,6.63,0,0,1-.31,2.16,6,6,0,0,1-1.35,2.27,7.73,7.73,0,0,1-2.28,1.79,7.35,7.35,0,0,1-2.77.49,7.69,7.69,0,0,1-2.77-.49,8,8,0,0,1-3.63-3.88Q11,556.24,9.2,541.54T6.28,509.36Q6,504.44,6,502.1v-3.38c0-2.18,0-4.76.12-7.76.08-3.77.19-6.53.31-8.27a9.71,9.71,0,0,1,.74-3.63,7.19,7.19,0,0,1,1.72-2q3.45-3.19,12.37-3.51c.61,0,1.21-.06,1.78-.06q12.55,0,21.59,6.58a23.11,23.11,0,0,1,8.74,14.28,26.4,26.4,0,0,1,.37,4.43q0,12.24-10.64,25l-2,2.37C40.39,527,39.87,527.59,39.5,528Zm-.06-29a10.8,10.8,0,0,0-.5-3.44,10.44,10.44,0,0,0-4.86-5.39,24.71,24.71,0,0,0-9.22-3.1,11.87,11.87,0,0,0-1.54-.19h-.56a3.48,3.48,0,0,0-.67.06,4.77,4.77,0,0,0-.93.31.7.7,0,0,1-.18.12,2.35,2.35,0,0,0-1.05.74,2.64,2.64,0,0,0-.4,1.48c0,.66,0,1.21,0,1.66q0,1.35.06,3.51c.13,2.17.31,5.17.56,9,0,.57,0,1.17.06,1.78q.38,5.61.58,8.89c.15,2.2.3,3.84.47,4.93a9.36,9.36,0,0,0,.52,2.24,1.43,1.43,0,0,0,.71.8.86.86,0,0,0,.49.25h.61l.93-.37a11.11,11.11,0,0,0,2.49-2q1.75-1.66,3.69-3.75a46.5,46.5,0,0,0,3.17-3.76A38.54,38.54,0,0,0,37,507.64a28.23,28.23,0,0,0,2-4.86A16.35,16.35,0,0,0,39.44,499ZM81,563.38a18.09,18.09,0,0,0,3.88.43,26.25,26.25,0,0,0,10.83-2.65c1.11-.57,2.7-1.52,4.77-2.83s4.07-2.63,6-4a45.24,45.24,0,0,0,4-3,6.54,6.54,0,0,0,2.28-5,4.52,4.52,0,0,0-.06-.74,5.77,5.77,0,0,0-3.51-5.23,4.91,4.91,0,0,0-1.6-.68,3.6,3.6,0,0,0-1-.12,7.47,7.47,0,0,0-.92.06,6.6,6.6,0,0,0-2.28.4,18.76,18.76,0,0,0-2.89,1.45c-1.19.69-2.83,1.74-4.92,3.13q-2.16,1.43-4,2.56a19.86,19.86,0,0,1-2.68,1.44,6.55,6.55,0,0,1-2.46.56,4.26,4.26,0,0,1-2.92-1.36Q82,546.52,81,541.47a13,13,0,0,1-.31-1.6v-.55a4.81,4.81,0,0,1,0-.52,2.68,2.68,0,0,1,.21-.71,4,4,0,0,1,.53-.86,4.28,4.28,0,0,1,.64-.68,11.89,11.89,0,0,1,1.73-.52c.9-.23,1.9-.46,3-.71,4.23-.74,7.25-1.31,9.08-1.72a20.77,20.77,0,0,0,3.78-1.11q4.92-2.4,4.92-6.58a7.83,7.83,0,0,0-.24-1.85A6.75,6.75,0,0,0,100.9,520a5.63,5.63,0,0,0-3-.67c-.25,0-.87,0-1.85.15a64.89,64.89,0,0,0-6.71,1.45c-2.33.57-4.12,1-5.35,1.16a13.34,13.34,0,0,1-2.28.25c-.16,0-.43,0-.8-.06a1.47,1.47,0,0,1-1-.62,2.2,2.2,0,0,1-.52-.73,3.64,3.64,0,0,1-.22-1.11q-.06-.74-.12-2.22v-1.54c0-1.23,0-3.09.06-5.59s.11-5.46.22-8.86.2-6.39.3-8.95a35.86,35.86,0,0,1,.34-4.53,3.66,3.66,0,0,1,2.83-2.52c.33-.08,1.2-.18,2.62-.31s3-.22,4.83-.3c3.61-.17,6.38-.31,8.33-.44a38.59,38.59,0,0,0,4.28-.43,10,10,0,0,0,2.09-.55,6.91,6.91,0,0,0,4.06-4.86,6.41,6.41,0,0,0,.12-1.23,6.76,6.76,0,0,0-2-4.74,6.19,6.19,0,0,0-3-1.78,20.51,20.51,0,0,0-4.61-.37h-.93a71,71,0,0,0-7.38.43c-2.75.29-6.25.76-10.52,1.41-2.58.42-4.57.77-6,1.08a12.78,12.78,0,0,0-3.17,1.05,8.09,8.09,0,0,0-2,1.57,6.31,6.31,0,0,0-1.53,2.33,21.88,21.88,0,0,0-1,4.56c-.29,2.09-.61,5.12-1,9.1q-1.29,14.1-1.29,25.78a150.77,150.77,0,0,0,1.53,22.7Q69.71,560.43,81,563.38Zm39.69-84.6a5.83,5.83,0,0,0-5.36,3.39,8.53,8.53,0,0,0-.73,4.06,36.27,36.27,0,0,0,.49,5.41.24.24,0,0,1,.06.18c.16,1.24.36,2.68.58,4.34s.42,3.17.59,4.52a163.64,163.64,0,0,0,5.11,24.8q4.55,16.11,10.39,26t12,12.22a8.29,8.29,0,0,0,1.78.43c.41,0,.91.06,1.48.06h.86a11.2,11.2,0,0,0,2.56-.22,9.5,9.5,0,0,0,2-.77q9.47-4.8,12.55-22.08c.16-1.11.4-3,.7-5.54s.61-5.29.9-8.12q1.41-13.9,2.15-21.47l1.11-11.42c.24-2.56.43-4.74.55-6.55.2-2.54.31-4.55.31-6,0-.45,0-1.14-.13-2.06a6.2,6.2,0,0,0-1.1-2.86,6.75,6.75,0,0,0-3.08-2.65,6.89,6.89,0,0,0-2.52-.49,8,8,0,0,0-1.42.13,7.13,7.13,0,0,0-5.35,5.41c-.08.37-.2,1.37-.37,3s-.35,3.51-.55,5.6-.37,4.62-.62,7.32-.47,5.09-.67,7.14a2.62,2.62,0,0,1-.07.62q-.3,3.26-.83,8.33c-.35,3.39-.68,6.68-1,9.88q-1,10.33-1.66,15.19A43.23,43.23,0,0,1,150,543.5a12.57,12.57,0,0,1-1,2.5,2.81,2.81,0,0,1-1.17,1.07,1.58,1.58,0,0,1-.8.25,1.8,1.8,0,0,1-.37-.06,4,4,0,0,1-1-.8q-2-1.85-4.8-8.22a121.72,121.72,0,0,1-5.17-14q-1.29-4.44-2.55-9.91t-3.42-16.18c-.74-3.73-1.4-7-2-9.75s-1-4.4-1.14-4.89Q124.7,478.78,120.65,478.78Zm74.75,31.69q.06-3.77.21-8.86t.31-8.95a33.87,33.87,0,0,1,.34-4.53,3.66,3.66,0,0,1,2.83-2.52c.33-.08,1.2-.18,2.61-.31s3-.22,4.83-.3c3.61-.17,6.39-.31,8.34-.44a38.86,38.86,0,0,0,4.28-.43,10,10,0,0,0,2.09-.55,6.94,6.94,0,0,0,4.06-4.86,6.41,6.41,0,0,0,.12-1.23,6.76,6.76,0,0,0-2-4.74,6.19,6.19,0,0,0-2.95-1.78,20.61,20.61,0,0,0-4.62-.37h-.92a71,71,0,0,0-7.38.43q-4.12.44-10.52,1.41c-2.59.42-4.58.77-6,1.08a12.78,12.78,0,0,0-3.17,1.05,7.91,7.91,0,0,0-2,1.57,6.33,6.33,0,0,0-1.54,2.33,22.7,22.7,0,0,0-1,4.56q-.43,3.14-1,9.1-1.31,14.1-1.3,25.78a150.68,150.68,0,0,0,1.54,22.7q3.33,19.82,14.58,22.77a18,18,0,0,0,3.88.43,26.25,26.25,0,0,0,10.83-2.65c1.1-.57,2.69-1.52,4.76-2.83s4.08-2.63,6-4a45.81,45.81,0,0,0,4-3,6.54,6.54,0,0,0,2.28-5,4.52,4.52,0,0,0-.06-.74,5.78,5.78,0,0,0-3.51-5.23,4.91,4.91,0,0,0-1.6-.68,3.65,3.65,0,0,0-1-.12,7.75,7.75,0,0,0-.93.06,6.54,6.54,0,0,0-2.27.4,18.33,18.33,0,0,0-2.89,1.45c-1.19.69-2.83,1.74-4.93,3.13-1.43,1-2.78,1.8-4,2.56a19.33,19.33,0,0,1-2.67,1.44,6.64,6.64,0,0,1-2.46.56,4.3,4.3,0,0,1-2.93-1.36q-1.44-1.35-2.43-6.4a14.63,14.63,0,0,1-.3-1.6v-.55a4.81,4.81,0,0,1,0-.52,2.68,2.68,0,0,1,.21-.71,4,4,0,0,1,.53-.86,4.28,4.28,0,0,1,.64-.68,12,12,0,0,1,1.72-.52c.91-.23,1.91-.46,3-.71,4.22-.74,7.25-1.31,9.07-1.72a20.68,20.68,0,0,0,3.79-1.11q4.92-2.4,4.92-6.58a7.38,7.38,0,0,0-.25-1.85,6.7,6.7,0,0,0-3.5-4.06,5.67,5.67,0,0,0-3-.67c-.24,0-.86,0-1.84.15a64.33,64.33,0,0,0-6.71,1.45q-3.51.86-5.35,1.16a13.44,13.44,0,0,1-2.28.25c-.16,0-.43,0-.8-.06a1.43,1.43,0,0,1-1-.62,2.2,2.2,0,0,1-.52-.73,3.64,3.64,0,0,1-.22-1.11q-.06-.74-.12-2.22v-1.54C195.34,514.83,195.36,513,195.4,510.47Zm112.33,41.91a12.22,12.22,0,0,0,3.52.53,12.05,12.05,0,0,0,6.11-2,13,13,0,0,0,5.14-6.28,14.67,14.67,0,0,0,1-5,11.9,11.9,0,0,0-2.41-6.68,11.52,11.52,0,0,0-7.61-4.57,8.42,8.42,0,0,0-2.11-.27,10.43,10.43,0,0,0-7.29,3.17,14.36,14.36,0,0,0-3.69,9.58,46.75,46.75,0,0,0,.57,5Q301.49,549.84,307.73,552.38Zm0-35.42a12.22,12.22,0,0,0,3.52.53,12.05,12.05,0,0,0,6.11-2,13,13,0,0,0,5.14-6.28,14.46,14.46,0,0,0,1-4.92,11.9,11.9,0,0,0-2.41-6.68,11.52,11.52,0,0,0-7.61-4.57,9.5,9.5,0,0,0-2.19-.27A10.13,10.13,0,0,0,304,496a14,14,0,0,0-3.69,9.49,46.75,46.75,0,0,0,.57,5.05Q301.49,514.42,307.73,517ZM405,559.53a33.4,33.4,0,0,1-1.91-8.27q-1.35-9.48-2.22-21.11t-.86-21.78q0-2.88.25-8.46c.16-3.71.36-7.22.58-10.55s.44-5.57.65-6.76q1-5.85,5.66-7.57a16.32,16.32,0,0,1,3.72-.46c1.62-.06,2.92-.1,3.91-.1,1.47,0,3,0,4.67.13,2.71.12,5.05.33,7,.61q15.19,2.1,22,9.42A25.59,25.59,0,0,1,451,487.3a12.71,12.71,0,0,1,1.51,2.56,18.12,18.12,0,0,1,1.66,4.43,19.4,19.4,0,0,1,.37,3.87v1.17a20.77,20.77,0,0,1-.68,4.58,25.4,25.4,0,0,1-2,4.77,48,48,0,0,1-8.56,11.51q-7.68,8.17-20.73,15.62c-1.23.74-2.31,1.4-3.23,2s-1.47.93-1.63,1.05a3.05,3.05,0,0,0-1.11,1.57,7.93,7.93,0,0,0-.24,2.06c0,.45,0,1,.06,1.54.12,1.51.39,3.69.8,6.52.28,1.8.48,3.19.58,4.15s.16,1.71.16,2.25a4.45,4.45,0,0,1-.19,1.35,6.93,6.93,0,0,1-2.4,3.91,6.36,6.36,0,0,1-4.12,1.5,6.64,6.64,0,0,1-3-.73A6.26,6.26,0,0,1,405,559.53Zm9-63.34q0,3.21.12,8.68c0,3.89.1,7.25.19,10.06s.16,4.44.24,4.89c.21,1.6.88,2.4,2,2.4a7.13,7.13,0,0,0,3.45-1.36,68.57,68.57,0,0,0,9.26-6.89,55.76,55.76,0,0,0,7.41-7.63q3.45-4.43,3.45-7.69a5.45,5.45,0,0,0-1.85-4.12q-2.76-3.43-15-5.84a36.66,36.66,0,0,0-4.71-.83l-1.07,0a3.24,3.24,0,0,0-2.16.55,2.33,2.33,0,0,0-.83,1,7.35,7.35,0,0,0-.4,2.16C414.12,492.54,414.08,494.1,414.08,496.19Zm56-23.62q-4.19,1.23-5.42,6.33c-.16.74-.45,2.49-.86,5.23s-.82,5.64-1.23,8.68-.7,5.35-.86,6.95c-.29,2.5-.55,5.87-.77,10.09s-.38,8.31-.46,12.24c0,1.73-.06,3.39-.06,5q0,14,2.46,20.85,4.25,12.44,15.13,14a20.64,20.64,0,0,0,2.22.12,30.52,30.52,0,0,0,10-2.06c1.47-.59,3.67-1.59,6.58-3l4.27-2,3.48-1.63a22.5,22.5,0,0,0,3.75-2,6,6,0,0,0,1.79-2,7.64,7.64,0,0,0,1-3.57,6.79,6.79,0,0,0-1.72-4.37,6,6,0,0,0-4.92-2.21,5.7,5.7,0,0,0-.8.06,13.45,13.45,0,0,0-4.06,1c-1.69.66-4.47,1.91-8.37,3.76-1.44.69-2.82,1.33-4.15,1.9s-2.29,1-2.86,1.17a9.1,9.1,0,0,1-2.9.49c-.08,0-.41,0-1,0a3.22,3.22,0,0,1-1.78-.7c-1.32-1-2.36-3.18-3.14-6.46a24.44,24.44,0,0,1-.4-2.53c-.1-.9-.17-2.29-.19-4.18s0-4.82,0-8.8q0-13,.56-19.25.61-8.62,1.17-16.06c.36-5,.59-8.25.67-9.85,0-.77.06-1.39.06-1.84a5,5,0,0,0-.12-1.17,4.48,4.48,0,0,0-.43-1.05,5.68,5.68,0,0,0-2.83-2.7,5.55,5.55,0,0,0-2.4-.56A5.48,5.48,0,0,0,470.07,472.57ZM518.24,545q2.64,8.69,7.81,13.6a23.71,23.71,0,0,0,11.51,6.58,17.06,17.06,0,0,0,3.2.31q7,0,13.28-6.09,5.61-5.3,8.62-17.23,2.58-9.78,3.69-28,.24-4.43.37-12.12t.12-14.46q0-6.76-.18-8.43a8,8,0,0,0-3.2-5.66,3.81,3.81,0,0,0-1.42-.74,12.39,12.39,0,0,0-2.09-.12,10.92,10.92,0,0,0-2.18.15,5.26,5.26,0,0,0-1.51.71c-1.89,1.15-3,3.16-3.38,6-.09.66-.15,2.33-.19,5s-.06,5.62-.06,8.82q-.12,57.34-12.18,57.34c-1.68,0-3.37-1-5.05-2.89a19,19,0,0,1-3.81-7.38q-3.57-11.82-4.06-42.14c-.08-4.06-.18-7.59-.28-10.59s-.17-4.75-.21-5.29q-.43-4.43-3.76-5.9a5.82,5.82,0,0,0-2.4-.56,6.84,6.84,0,0,0-2.86.83,6.43,6.43,0,0,0-2.8,3.54,9.68,9.68,0,0,0-.43,1.72c-.12.74-.23,1.88-.34,3.42s-.23,3.68-.4,6.43q-.42,7.14-.43,13.66,0,7.68.62,14.52Q515.59,536.36,518.24,545Zm83.49-33.16q-4.62-2.46-7.05-3.81a25,25,0,0,1-3.44-2.19,4.78,4.78,0,0,1-1.39-1.63,3.21,3.21,0,0,1-.49-1.72q0-3.25,6.09-8.18,7.57-6.23,13.23-7.08l1.66-.27c.57-.11,1-.2,1.29-.28a5.92,5.92,0,0,0,4-4,5.56,5.56,0,0,0,.25-1.6,6.41,6.41,0,0,0-1.48-3.94,8.54,8.54,0,0,0-6.71-2.77,20.37,20.37,0,0,0-6.15,1.11,57.59,57.59,0,0,0-6.34,2.77q-3.69,1.84-6.33,3.51a42.86,42.86,0,0,0-7.48,6.49,29.15,29.15,0,0,0-5.07,7.29,19.26,19.26,0,0,0-1.73,7.63q0,6.82,6.22,12.49a32.52,32.52,0,0,0,2.92,2.24q1.57,1.08,4.83,2.86t9.66,5.17a57.56,57.56,0,0,1,10.24,6.58q3.24,2.84,3.6,5.48a4.18,4.18,0,0,1,.06.68,4,4,0,0,1-.09.76,8.57,8.57,0,0,1-.52,1.45c-1.07,2-3.1,3.8-6.09,5.51a29.09,29.09,0,0,1-9.66,3.41q-6.28.93-7.2,5.35a7.9,7.9,0,0,0-.12,1.36,7.42,7.42,0,0,0,1,3.53,7.11,7.11,0,0,0,3.35,3,11.26,11.26,0,0,0,4,.68q5.41,0,13.48-3.88,13-6.71,15.81-16.8a13.68,13.68,0,0,0,.31-2.21c0-.53.06-1.13.06-1.79V538a18.15,18.15,0,0,0-.74-5,18.94,18.94,0,0,0-2.22-4.58,27.85,27.85,0,0,0-7.32-7.87A109.4,109.4,0,0,0,601.73,511.88Zm149.19-16.61a42.3,42.3,0,0,1,1.72,32.55,50.63,50.63,0,0,1-10,16.45A50,50,0,0,1,727.42,556a33.33,33.33,0,0,1-4.65,1.94,32.23,32.23,0,0,1-5.07,1.14c-1,.16-2,.36-3,.58s-1.74.43-2.27.59a12.6,12.6,0,0,1-3.51.55,7.17,7.17,0,0,1-3-.61,8,8,0,0,1-3.63-4.68q-.32-1.17-1.17-6.64t-1.76-12.15Q698.5,530,698,525.23q-1.11-9.66-1.45-15.78t-.34-16.09v-6.52c0-1.68,0-3,0-4s.07-1.73.13-2.24a7,7,0,0,1,.21-1.17,7.71,7.71,0,0,1,.31-.83,6.87,6.87,0,0,1,3-3.45,15.64,15.64,0,0,1,6-1.35c1.32-.12,2.65-.19,4-.19a60.79,60.79,0,0,1,16.55,2.53q9.6,2.7,15.41,7.23A30.61,30.61,0,0,1,750.92,495.27Zm-10.06,18.4a25,25,0,0,0-.71-6.65q-2.76-10.89-10.21-14.52a45.37,45.37,0,0,0-9.38-3.32,35.57,35.57,0,0,0-7.29-1.17,6.52,6.52,0,0,0-1.66.18q-2.1.49-2.1,3.57a9.64,9.64,0,0,0,.07,1.17c0,.74.13,2.17.27,4.28s.3,4.44.46,7q.5,7.69,1.17,14.31t1.66,14.3q.5,3.69.8,5.87c.21,1.46.38,2.57.53,3.33a6,6,0,0,0,.49,1.66,3.52,3.52,0,0,0,.65.89,2.34,2.34,0,0,0,1.78.8h.12a7.7,7.7,0,0,0,3-1.05q4.24-2.14,9.9-7.81,7.57-7.32,9.72-15.93A30.21,30.21,0,0,0,740.86,513.67Zm68,26.76a5,5,0,0,0-1.6-.68,3.73,3.73,0,0,0-1-.12,7.59,7.59,0,0,0-.92.06,6.6,6.6,0,0,0-2.28.4,18.76,18.76,0,0,0-2.89,1.45c-1.19.69-2.83,1.74-4.92,3.13q-2.16,1.43-4,2.56a19.27,19.27,0,0,1-2.68,1.44,6.55,6.55,0,0,1-2.46.56,4.28,4.28,0,0,1-2.92-1.36q-1.46-1.35-2.43-6.4a13,13,0,0,1-.31-1.6v-.55a4.81,4.81,0,0,1,0-.52,2.41,2.41,0,0,1,.22-.71,3.59,3.59,0,0,1,.52-.86,4.29,4.29,0,0,1,.65-.68,11.61,11.61,0,0,1,1.72-.52c.9-.23,1.91-.46,3-.71,4.23-.74,7.25-1.31,9.08-1.72a20.77,20.77,0,0,0,3.78-1.11q4.92-2.4,4.92-6.58a7.83,7.83,0,0,0-.24-1.85,6.72,6.72,0,0,0-3.51-4.06,5.63,5.63,0,0,0-3-.67c-.25,0-.86,0-1.85.15a64.36,64.36,0,0,0-6.7,1.45q-3.51.86-5.36,1.16a13.34,13.34,0,0,1-2.27.25c-.17,0-.43,0-.8-.06a1.47,1.47,0,0,1-1-.62,2.36,2.36,0,0,1-.52-.73,4.38,4.38,0,0,1-.22-1.11q-.06-.74-.12-2.22v-1.54c0-1.23,0-3.09.06-5.59s.12-5.46.22-8.86.2-6.39.31-8.95a34.76,34.76,0,0,1,.33-4.53,3.68,3.68,0,0,1,2.83-2.52c.33-.08,1.2-.18,2.62-.31s3-.22,4.83-.3c3.61-.17,6.39-.31,8.34-.44a38.62,38.62,0,0,0,4.27-.43,10,10,0,0,0,2.09-.55,6.91,6.91,0,0,0,4.06-4.86,5.71,5.71,0,0,0,.13-1.23,6.8,6.8,0,0,0-2-4.74,6.27,6.27,0,0,0-3-1.78,20.51,20.51,0,0,0-4.61-.37h-.92A71,71,0,0,0,791,471c-2.75.29-6.25.76-10.52,1.41-2.58.42-4.57.77-6,1.08a12.54,12.54,0,0,0-3.16,1.05,7.74,7.74,0,0,0-2,1.57,6.21,6.21,0,0,0-1.54,2.33,21.88,21.88,0,0,0-1,4.56q-.42,3.14-1,9.1-1.29,14.1-1.29,25.78a149.38,149.38,0,0,0,1.54,22.7q3.32,19.82,14.58,22.77a17.93,17.93,0,0,0,3.87.43,26.18,26.18,0,0,0,10.83-2.65c1.11-.57,2.7-1.52,4.77-2.83s4.07-2.63,6-4a45.81,45.81,0,0,0,4-3,6.56,6.56,0,0,0,2.27-5,4.52,4.52,0,0,0-.06-.74A5.77,5.77,0,0,0,808.88,540.43ZM13.14,699.61a46.13,46.13,0,0,0,6.55-5.76c1.93-1.87,3.44-3.27,4.52-4.17a5.48,5.48,0,0,1,2.51-1.45h.35a1.76,1.76,0,0,1,1.23.61c1.06.82,1.58,3.9,1.58,9.23S30.31,711.59,31,723s1.42,22.29,2.24,32.69,1.44,16.66,1.85,18.77q1.32,5.17,5.27,7.2a10.55,10.55,0,0,0,4.48,1.06,12.73,12.73,0,0,0,4.62-1.14c1.84-.77,3.32-2.61,4.44-5.54a15,15,0,0,0,.61-5,68.47,68.47,0,0,0-.44-7.12q-1-12-2.33-33.62t-1.89-37q-.34-13.63-1.14-19.87a31.12,31.12,0,0,0-2.55-9.75Q42,655.08,34.1,655h-.35a11.46,11.46,0,0,0-6.64,2.11q-3,2.11-8,8.44Q10.64,676.1,5.54,681.81,0,687.62,0,692.27a7.6,7.6,0,0,0,.44,2.55Q2.56,701,8.61,701A8.32,8.32,0,0,0,13.14,699.61ZM114.7,784.82a32.25,32.25,0,0,1-6.16-.62A37.77,37.77,0,0,1,88.42,773q-15.3-15.74-16.26-49.66-.09-1.93-.09-3.78,0-31.73,15.47-55.54a46.53,46.53,0,0,1,4.92-6.42,15.81,15.81,0,0,1,4.48-3.34,12.83,12.83,0,0,1,2.2-1,10.48,10.48,0,0,1,2.15-.35c.85-.06,2.21-.09,4.09-.09a50.76,50.76,0,0,1,5.63.27c1.58.17,3.45.5,5.62,1q20.22,4,29.8,14.51,13.71,14.76,16.08,41.66c.12,1.87.18,3.78.18,5.71A85.65,85.65,0,0,1,158,743.68a76.09,76.09,0,0,1-16.44,28Q129.11,784.82,114.7,784.82Zm20.48-38.76a66.47,66.47,0,0,0,7.2-29.89A70,70,0,0,0,140.45,700q-4.3-18.54-17.67-23.29a59.58,59.58,0,0,0-7.6-2.24,38.69,38.69,0,0,0-6.9-1.1,12.8,12.8,0,0,0-2.55.18,4.31,4.31,0,0,0-1.67.88q-4.12,3.69-8.7,21.09A76.71,76.71,0,0,0,93,707.34q-.48,4.88-.48,10.86v4.13A130.73,130.73,0,0,0,93.43,736a52,52,0,0,0,2.37,10.19q5.1,14.6,14.94,17.67a13.55,13.55,0,0,0,3.43.44,14.67,14.67,0,0,0,6.33-1.5Q128.59,758.72,135.18,746.06ZM270.7,710.29c.12,1.87.18,3.78.18,5.71a85.38,85.38,0,0,1-4.66,27.68,76.21,76.21,0,0,1-16.43,28q-12.49,13.1-26.9,13.1a32.23,32.23,0,0,1-6.15-.62A37.77,37.77,0,0,1,196.61,773q-15.29-15.74-16.26-49.66-.09-1.93-.09-3.78,0-31.73,15.47-55.54a48.16,48.16,0,0,1,4.92-6.42,15.71,15.71,0,0,1,4.49-3.34,13.14,13.14,0,0,1,2.19-1,10.59,10.59,0,0,1,2.16-.35q1.27-.09,4.08-.09a50.64,50.64,0,0,1,5.63.27c1.58.17,3.46.5,5.62,1q20.22,4,29.8,14.51Q268.33,683.39,270.7,710.29Zm-20.12,5.88A70,70,0,0,0,248.64,700q-4.3-18.54-17.66-23.29a59.76,59.76,0,0,0-7.61-2.24,38.69,38.69,0,0,0-6.9-1.1,12.62,12.62,0,0,0-2.54.18,4.17,4.17,0,0,0-1.67.88q-4.14,3.69-8.71,21.09a76.54,76.54,0,0,0-2.32,11.82,108.31,108.31,0,0,0-.49,10.86v4.13a130.73,130.73,0,0,0,.88,13.71A52,52,0,0,0,204,746.23q5.1,14.6,14.95,17.67a13.48,13.48,0,0,0,3.42.44,14.67,14.67,0,0,0,6.33-1.5q8.09-4.12,14.68-16.78A66.48,66.48,0,0,0,250.58,716.17Zm71.19-63.28a50.57,50.57,0,0,1,5.62.27c1.58.17,3.46.5,5.63,1q20.21,4,29.79,14.51,13.71,14.76,16.09,41.66c.11,1.87.17,3.78.17,5.71a85.38,85.38,0,0,1-4.66,27.68,76.07,76.07,0,0,1-16.43,28q-12.48,13.1-26.9,13.1a32.23,32.23,0,0,1-6.15-.62A37.8,37.8,0,0,1,304.8,773q-15.29-15.74-16.26-49.66c-.05-1.29-.08-2.55-.08-3.78q0-31.73,15.47-55.54a46.53,46.53,0,0,1,4.92-6.42,15.67,15.67,0,0,1,4.48-3.34,12.83,12.83,0,0,1,2.2-1,10.36,10.36,0,0,1,2.15-.35C318.53,652.92,319.89,652.89,321.77,652.89Zm.35,20.66a4.17,4.17,0,0,0-1.67.88q-4.14,3.69-8.7,21.09a76.71,76.71,0,0,0-2.33,11.82q-.48,4.88-.48,10.86v4.13a128.41,128.41,0,0,0,.87,13.71,51.35,51.35,0,0,0,2.38,10.19q5.08,14.6,14.94,17.67a13.5,13.5,0,0,0,3.43.44,14.59,14.59,0,0,0,6.32-1.5q8.08-4.12,14.68-16.78a66.35,66.35,0,0,0,7.21-29.89A70.56,70.56,0,0,0,356.84,700q-4.32-18.54-17.67-23.29a59.58,59.58,0,0,0-7.6-2.24,38.69,38.69,0,0,0-6.9-1.1A12.8,12.8,0,0,0,322.12,673.55ZM472.27,779.07a24,24,0,0,0,3.91-.4,18.13,18.13,0,0,0,4.89-1.63,27.78,27.78,0,0,0,7.44-5.91q10.59-11.31,13.29-30.33a84.17,84.17,0,0,0,.56-10.89q0-6.82-.5-11.87-1.78-15.31-7-25.84a8.49,8.49,0,0,0-3.51-4.06,9.43,9.43,0,0,0-4.24-.8c-.54,0-1.09,0-1.66.06q-4.06.24-10.46,1.29T462.8,691a52.71,52.71,0,0,0-8,2.15,8.32,8.32,0,0,0-4.62,4.43,7.08,7.08,0,0,0-.49,2.46,7.74,7.74,0,0,0,1,3.45q1,2,4.7,2.83a9.7,9.7,0,0,0,1.54.12h.31a11.55,11.55,0,0,0,2.06-.25c.88-.16,2.23-.45,4-.86s4.18-1,7.14-1.72c3.89-.94,6.83-1.58,8.8-1.91a17,17,0,0,1,2.83-.3,5.59,5.59,0,0,1,1.56.24,2.45,2.45,0,0,1,1.39,1.54q1.35,3.08,2.27,11.69a141.44,141.44,0,0,1,.8,15.07v2a69,69,0,0,1-.89,10.52A41.34,41.34,0,0,1,484.7,751a34.19,34.19,0,0,1-5.11,9c-2,2.4-3.89,3.88-5.78,4.46a3.46,3.46,0,0,1-.92.12c-1.28,0-2.71-.74-4.31-2.22-1.93-1.76-3.79-2.64-5.6-2.64h-.12q-6.21.38-6.58,6.71,0,3.87,4.06,7.56a17.3,17.3,0,0,0,9.9,5A16.78,16.78,0,0,0,472.27,779.07Zm83.06-8.71a45.81,45.81,0,0,0,4-3,6.56,6.56,0,0,0,2.27-5,4.52,4.52,0,0,0-.06-.74,5.77,5.77,0,0,0-3.5-5.23,5,5,0,0,0-1.6-.68,3.73,3.73,0,0,0-1-.12,7.59,7.59,0,0,0-.92.06,6.6,6.6,0,0,0-2.28.4,18.76,18.76,0,0,0-2.89,1.45c-1.19.69-2.83,1.74-4.92,3.13q-2.16,1.43-4,2.56a18.71,18.71,0,0,1-2.68,1.44,6.55,6.55,0,0,1-2.46.56,4.28,4.28,0,0,1-2.92-1.36q-1.46-1.35-2.43-6.4a13,13,0,0,1-.31-1.6v-.55a4.81,4.81,0,0,1,0-.52,2.41,2.41,0,0,1,.22-.71,3.59,3.59,0,0,1,.52-.86,4.29,4.29,0,0,1,.65-.68,11.61,11.61,0,0,1,1.72-.52c.9-.23,1.91-.46,3-.71,4.23-.74,7.25-1.31,9.08-1.72a20.77,20.77,0,0,0,3.78-1.11q4.92-2.4,4.92-6.58a7.83,7.83,0,0,0-.24-1.85,6.72,6.72,0,0,0-3.51-4.06,5.63,5.63,0,0,0-2.95-.67c-.25,0-.86,0-1.85.15a64.36,64.36,0,0,0-6.7,1.45q-3.51.86-5.36,1.16a13.34,13.34,0,0,1-2.27.25c-.17,0-.43,0-.8-.06a1.47,1.47,0,0,1-1-.62,2.36,2.36,0,0,1-.52-.73,4.38,4.38,0,0,1-.22-1.11q-.06-.74-.12-2.22v-1.53c0-1.24,0-3.1.06-5.6s.12-5.46.22-8.86.2-6.39.31-9a34.76,34.76,0,0,1,.33-4.53,3.68,3.68,0,0,1,2.83-2.52c.33-.08,1.2-.18,2.62-.31s3-.22,4.83-.3q5.41-.25,8.34-.43a40.63,40.63,0,0,0,4.27-.44,10,10,0,0,0,2.09-.55,6.91,6.91,0,0,0,4.06-4.86,5.71,5.71,0,0,0,.13-1.23,6.8,6.8,0,0,0-2-4.74,6.22,6.22,0,0,0-3-1.78,20.51,20.51,0,0,0-4.61-.37h-.92a71,71,0,0,0-7.39.43c-2.75.29-6.25.76-10.52,1.42-2.58.41-4.57.76-6,1.07a12.49,12.49,0,0,0-3.17,1.05,7.74,7.74,0,0,0-2,1.57,6.21,6.21,0,0,0-1.54,2.33,22,22,0,0,0-1,4.56q-.42,3.13-1,9.1-1.29,14.1-1.29,25.78a149.38,149.38,0,0,0,1.54,22.7q3.32,19.82,14.58,22.77a17.93,17.93,0,0,0,3.87.43,26.18,26.18,0,0,0,10.83-2.65c1.11-.57,2.7-1.52,4.77-2.83S553.4,771.7,555.33,770.36Zm34.21,10.86a17,17,0,0,0,3.19.31q7,0,13.29-6.09,5.61-5.3,8.62-17.23,2.58-9.78,3.69-28,.24-4.43.37-12.12t.12-14.46q0-6.76-.18-8.43a8,8,0,0,0-3.2-5.66,3.81,3.81,0,0,0-1.42-.74,12.47,12.47,0,0,0-2.09-.12,10.86,10.86,0,0,0-2.18.15,5.14,5.14,0,0,0-1.51.71q-2.84,1.73-3.39,6c-.08.66-.14,2.33-.18,5s-.06,5.63-.06,8.82q-.12,57.35-12.18,57.34-2.53,0-5-2.89a19,19,0,0,1-3.81-7.38q-3.57-11.81-4.06-42.14-.13-6.09-.28-10.59c-.1-3-.17-4.75-.22-5.29q-.42-4.43-3.75-5.9a5.82,5.82,0,0,0-2.4-.56,6.84,6.84,0,0,0-2.86.83,6.43,6.43,0,0,0-2.8,3.54,8.88,8.88,0,0,0-.43,1.72c-.12.74-.23,1.88-.34,3.42s-.23,3.68-.4,6.43q-.42,7.14-.43,13.66,0,7.68.62,14.52,1.35,16.23,4,24.91t7.81,13.6A23.71,23.71,0,0,0,589.54,781.22ZM653,755.87c1.23-1.88,2-3,2.27-3.32a2.65,2.65,0,0,1,2-.92,2.88,2.88,0,0,1,1,.18,2.37,2.37,0,0,1,.64.59c.31.35.78,1,1.42,1.84s1.51,2.15,2.64,3.79,2.58,3.75,4.34,6.34c1.64,2.37,3.13,4.52,4.46,6.42s2.21,3.13,2.62,3.66a9.35,9.35,0,0,0,4.86,3.45,5.93,5.93,0,0,0,1.41.18,8,8,0,0,0,2.46-.46,5.75,5.75,0,0,0,2.59-1.81,6.33,6.33,0,0,0,1.6-4.55,7.31,7.31,0,0,0-.5-2.56,22.33,22.33,0,0,0-2.12-3.87q-1.63-2.57-4.83-7.23-7.2-10.4-10.3-15.11c-2.08-3.13-3.11-4.93-3.11-5.38a6.12,6.12,0,0,1-.12-1.17,6.33,6.33,0,0,1,.27-1.69,12.63,12.63,0,0,1,1.33-2.68q3.38-5.36,13.47-20.42,2.4-3.51,4.09-6.25a35.89,35.89,0,0,0,1.94-3.35,8.58,8.58,0,0,0,.43-2.65,8.94,8.94,0,0,0-.65-3,5.82,5.82,0,0,0-2.92-3,6.92,6.92,0,0,0-3.07-.74,7.58,7.58,0,0,0-4.31,1.47,12,12,0,0,0-1.6,1.7c-.66.8-1.66,2.18-3,4.15s-3.3,4.84-5.84,8.61q-3,4.44-5.2,7.63t-2.74,3.69a2.6,2.6,0,0,1-1.78.93,1.92,1.92,0,0,1-1.29-.56,10.56,10.56,0,0,1-1.36-1.75c-.65-1-1.39-2.1-2.21-3.42q-9.48-15.14-14.34-19.87a11.14,11.14,0,0,0-2.73-1.94,8.41,8.41,0,0,0-2.93-.7h-.74a7.18,7.18,0,0,0-1.16.09,3.94,3.94,0,0,0-1.3.52,5.67,5.67,0,0,0-3,5,6.15,6.15,0,0,0,.58,2.73,20.7,20.7,0,0,0,2.37,3.42c.62.78,1.41,1.9,2.37,3.38s1.9,3,2.8,4.49l4.18,7,4.06,6.89,5.17,8.55v1.91a8,8,0,0,1-.12,1.56,7.32,7.32,0,0,1-.68,1.67c-.37.71-1,1.79-1.84,3.23q-2.6,4.42-6.34,11.25t-5.41,10.22a12.36,12.36,0,0,0-1.48,5.35,5.79,5.79,0,0,0,1.48,4,6.14,6.14,0,0,0,4.55,2.15c.16,0,.74,0,1.72-.12s2.11-1,3.39-2.77c.24-.37,1-1.51,2.15-3.41s2.58-4.14,4.18-6.68S651.8,757.76,653,755.87ZM57.28,984.18a7.11,7.11,0,0,1,.18,1.41,2.4,2.4,0,0,1-.06.56q-1,5.65-6.46,5.9a7.18,7.18,0,0,1-5.11-2,9.92,9.92,0,0,1-1.9-2.3,19,19,0,0,1-1.6-3.66,10.46,10.46,0,0,0-1.63-3.17,3.09,3.09,0,0,0-2.12-1.08,6.35,6.35,0,0,0-1-.06c-.78,0-1.87,0-3.26.12q-3.45.2-7.35.46c-2.61.19-4.57.36-5.88.53a5.94,5.94,0,0,0-3.78,1.41c-.68.74-1.1,2.13-1.26,4.18a10.93,10.93,0,0,1-.8,3.6,6.3,6.3,0,0,1-1.85,2.31,3.76,3.76,0,0,1-1.29.74,8.19,8.19,0,0,1-1.79.25H9.6a6.81,6.81,0,0,1-1.11-.07,3.82,3.82,0,0,1-1.23-.43,7.91,7.91,0,0,1-1.94-1.6,7.86,7.86,0,0,1-1.44-2.15,13.1,13.1,0,0,1-.62-4.86,108.8,108.8,0,0,1,1.11-13.17q1.11-7.8,3.6-18.18t5.63-20.08q7.5-23.07,15.75-26.89a6.24,6.24,0,0,1,1.81-.68,17.43,17.43,0,0,1,2.43-.12,10.82,10.82,0,0,1,3.63.52,9.28,9.28,0,0,1,3,1.94,13.54,13.54,0,0,1,3.3,4.49,35,35,0,0,1,2.24,8.06q1,5.36,2.16,15Q52,968.8,56.36,981.29A24.66,24.66,0,0,1,57.28,984.18Zm-20-21.72a4.37,4.37,0,0,0-.06-.68c0-.53-.13-1.28-.28-2.24s-.33-2.29-.58-4q-.49-3-1.11-7.6t-1.1-8.52a93.68,93.68,0,0,0-1.6-10,1.28,1.28,0,0,0-1.11-.8h-.12a2,2,0,0,0-1.42,1q-1.11,1.85-3.54,9.75t-4.77,17.13a40,40,0,0,0-1.47,8.13,2.77,2.77,0,0,0,.18,1.16,2.22,2.22,0,0,0,.49.47,5.88,5.88,0,0,0,.87.52,3.36,3.36,0,0,0,.8.31l1.78-.25c1.19-.12,2.62-.29,4.31-.49s3.24-.47,4.55-.68a17,17,0,0,0,2.46-.49A3.51,3.51,0,0,0,37.22,963,2.88,2.88,0,0,0,37.28,962.46Zm144.21-35.19a42.25,42.25,0,0,1,1.73,32.55,50.83,50.83,0,0,1-10,16.45A49.92,49.92,0,0,1,158,988a33.75,33.75,0,0,1-4.64,1.94,32.37,32.37,0,0,1-5.08,1.14c-1,.16-2,.36-3,.58s-1.75.43-2.28.59a12.59,12.59,0,0,1-3.5.55,7.21,7.21,0,0,1-3-.61,8,8,0,0,1-3.63-4.68q-.3-1.17-1.17-6.64T130,968.7q-.9-6.66-1.45-11.47-1.11-9.66-1.44-15.78t-.34-16.09v-6.52c0-1.68,0-3,0-4s.06-1.73.12-2.24a6,6,0,0,1,.22-1.17,6,6,0,0,1,.31-.83,6.83,6.83,0,0,1,3-3.45,15.54,15.54,0,0,1,6-1.35c1.31-.13,2.64-.19,4-.19A60.84,60.84,0,0,1,157,908.14q9.59,2.7,15.41,7.23A30.69,30.69,0,0,1,181.49,927.27Zm-10.05,18.39a25.39,25.39,0,0,0-.71-6.64Q168,928.13,160.51,924.5a45.37,45.37,0,0,0-9.38-3.32,35.57,35.57,0,0,0-7.29-1.17,6.58,6.58,0,0,0-1.66.18c-1.39.33-2.09,1.52-2.09,3.57q0,.56.06,1.17c0,.74.13,2.17.28,4.28s.29,4.44.46,7q.5,7.69,1.17,14.3t1.66,14.31c.33,2.46.59,4.42.8,5.87s.38,2.57.52,3.33a6.32,6.32,0,0,0,.49,1.66,3.79,3.79,0,0,0,.65.89,2.35,2.35,0,0,0,1.78.8h.13A7.67,7.67,0,0,0,151,976.3q4.25-2.14,9.91-7.81,7.56-7.32,9.72-15.93A30.81,30.81,0,0,0,171.44,945.66Zm39.4,18.59q-.37-7.08-.55-15.82-.14-5.77-.37-13.65c-.08-4.27-.17-8.08-.25-11.45q-.18-5.6-.34-9.6c-.1-2.66-.19-4.18-.27-4.55a6.22,6.22,0,0,0-2.65-3.14,5.63,5.63,0,0,0-2.95-.86,4.43,4.43,0,0,0-1.05.13q-4.12,1-5.41,5.66a79.32,79.32,0,0,0-.8,11.5q-.18,7.26-.19,15.81,0,2.16,0,8.8t.47,15.2q.36,5.9.92,13c.37,4.76.65,8.06.86,9.9q.74,5.79,4.55,7.51a7.56,7.56,0,0,0,2.59.49h.37a5.84,5.84,0,0,0,2.21-.37,7.21,7.21,0,0,0,3.45-3.2,7.52,7.52,0,0,0,.73-3.5V985q0-2.22-.3-5.91Q211.22,971.32,210.84,964.25Zm56.48-3.82a27.85,27.85,0,0,0-7.32-7.87,107.9,107.9,0,0,0-14.46-8.68c-3.08-1.64-5.42-2.91-7-3.81a25.9,25.9,0,0,1-3.45-2.19,4.63,4.63,0,0,1-1.38-1.63,3.22,3.22,0,0,1-.5-1.72q0-3.25,6.09-8.18,7.58-6.23,13.23-7.08c.53-.08,1.09-.17,1.66-.28s1-.19,1.3-.27a5.91,5.91,0,0,0,4-4,5.24,5.24,0,0,0,.25-1.6,6.35,6.35,0,0,0-1.48-3.94,8.52,8.52,0,0,0-6.7-2.77,20.26,20.26,0,0,0-6.15,1.11,56,56,0,0,0-6.34,2.77c-2.46,1.23-4.58,2.4-6.34,3.51a42.44,42.44,0,0,0-7.47,6.49,29.21,29.21,0,0,0-5.08,7.29,19.23,19.23,0,0,0-1.72,7.63q0,6.82,6.21,12.49a36.16,36.16,0,0,0,2.92,2.24q1.58,1.08,4.83,2.86T242,958a57.72,57.72,0,0,1,10.25,6.58q3.22,2.84,3.6,5.48a4.16,4.16,0,0,1,.06.67,4.05,4.05,0,0,1-.09.77,8.85,8.85,0,0,1-.53,1.45c-1.06,2-3.09,3.8-6.09,5.51a28.93,28.93,0,0,1-9.66,3.41q-6.27.93-7.2,5.35a7.9,7.9,0,0,0-.12,1.36,7.44,7.44,0,0,0,1,3.53,7,7,0,0,0,3.35,3,11.22,11.22,0,0,0,4,.68q5.41,0,13.47-3.88,13-6.71,15.81-16.8a11.77,11.77,0,0,0,.31-2.21c0-.53.06-1.13.06-1.79V970a18.15,18.15,0,0,0-.74-5A19.26,19.26,0,0,0,267.32,960.43ZM333,926.29a20.17,20.17,0,0,1,.37,3.87v1.17a21.38,21.38,0,0,1-.68,4.58,26.23,26.23,0,0,1-2,4.77,47.67,47.67,0,0,1-8.55,11.51q-7.69,8.17-20.74,15.62c-1.23.74-2.3,1.4-3.23,2s-1.46.92-1.63,1.05a3,3,0,0,0-1.1,1.57,7.5,7.5,0,0,0-.25,2.06c0,.45,0,1,.06,1.54.13,1.51.39,3.69.8,6.52.29,1.8.48,3.19.59,4.15s.15,1.71.15,2.25a4.79,4.79,0,0,1-.18,1.35,6.93,6.93,0,0,1-2.4,3.91,6.39,6.39,0,0,1-4.13,1.5,6.67,6.67,0,0,1-3-.73,6.3,6.3,0,0,1-3.26-3.42,33.4,33.4,0,0,1-1.91-8.27q-1.35-9.48-2.21-21.11t-.86-21.78q0-2.88.24-8.46c.17-3.71.36-7.22.59-10.55s.44-5.57.64-6.76q1-5.85,5.66-7.57a16.32,16.32,0,0,1,3.72-.46c1.62-.06,2.93-.1,3.91-.1,1.48,0,3,0,4.68.13,2.7.12,5,.33,7,.61q15.2,2.1,22,9.42a26.85,26.85,0,0,1,2.49,2.67,13.73,13.73,0,0,1,1.51,2.56A18.39,18.39,0,0,1,333,926.29Zm-14,4.36a5.41,5.41,0,0,0-1.85-4.12q-2.76-3.45-15-5.84a36.93,36.93,0,0,0-4.7-.83l-1.08,0a3.21,3.21,0,0,0-2.15.55,2.2,2.2,0,0,0-.83,1,7,7,0,0,0-.4,2.16c-.09,1-.13,2.58-.13,4.67s0,5,.13,8.68c0,3.89.1,7.25.18,10.06s.16,4.44.25,4.89c.2,1.6.88,2.4,2,2.4a7.07,7.07,0,0,0,3.44-1.36A68,68,0,0,0,308.2,946a55.89,55.89,0,0,0,7.42-7.63Q319.06,933.92,319.06,930.65Zm78.5,13.91c.09,1.39.13,2.79.13,4.18A70.82,70.82,0,0,1,395,968.06a54.54,54.54,0,0,1-9.53,19.44,25.45,25.45,0,0,1-11.08,8.37,14.53,14.53,0,0,1-2.58.74,25.67,25.67,0,0,1-3.14.24h-1.42a16.15,16.15,0,0,1-3.62-.31q-7.57-2-13.39-9.22a46.83,46.83,0,0,1-8.58-18,85.3,85.3,0,0,1-2-18.58A96.15,96.15,0,0,1,343,926.1,63.92,63.92,0,0,1,347.73,914a20.91,20.91,0,0,1,4-5.84,10.13,10.13,0,0,1,4.83-2.46,28.68,28.68,0,0,1,5.41-.43q1.11,0,2.28.06a52.41,52.41,0,0,1,8.8,1Q395.16,911.59,397.56,944.56Zm-14,4.12a52.91,52.91,0,0,0-2.83-17.35q-2.16-6.27-6-9t-10.34-2.71h-.3a9.88,9.88,0,0,0-3.6.46,3.37,3.37,0,0,0-1.7,1.76,43.69,43.69,0,0,0-2.55,8.64,117.65,117.65,0,0,0-2,12.21q-.44,4.5-.43,8.55,0,14.1,5.11,23.63,4.43,7.62,9,7.63a6.41,6.41,0,0,0,3.14-.86q3.69-2.16,7.26-9.23,4.42-9.16,4.83-15.6C383.46,952.55,383.6,949.83,383.6,948.68Zm69.46,11.75a27.85,27.85,0,0,0-7.32-7.87,107.9,107.9,0,0,0-14.46-8.68q-4.62-2.46-7-3.81a25.63,25.63,0,0,1-3.44-2.19,4.63,4.63,0,0,1-1.38-1.63,3.22,3.22,0,0,1-.5-1.72q0-3.25,6.09-8.18,7.58-6.23,13.23-7.08c.53-.08,1.09-.17,1.66-.28s1-.19,1.29-.27a5.9,5.9,0,0,0,4-4,5.24,5.24,0,0,0,.25-1.6,6.35,6.35,0,0,0-1.48-3.94,8.52,8.52,0,0,0-6.7-2.77,20.37,20.37,0,0,0-6.16,1.11,56.73,56.73,0,0,0-6.33,2.77c-2.46,1.23-4.58,2.4-6.34,3.51a42.44,42.44,0,0,0-7.47,6.49,29.21,29.21,0,0,0-5.08,7.29,19.23,19.23,0,0,0-1.72,7.63q0,6.82,6.21,12.49a36.16,36.16,0,0,0,2.92,2.24q1.58,1.08,4.83,2.86t9.66,5.17A57.72,57.72,0,0,1,438,964.55q3.23,2.84,3.6,5.48a4.16,4.16,0,0,1,.06.67,3.46,3.46,0,0,1-.1.77,7.75,7.75,0,0,1-.52,1.45c-1.07,2-3.1,3.8-6.09,5.51a28.93,28.93,0,0,1-9.66,3.41q-6.27.93-7.2,5.35a7.9,7.9,0,0,0-.12,1.36,7.44,7.44,0,0,0,1,3.53,7,7,0,0,0,3.35,3,11.22,11.22,0,0,0,4,.68q5.42,0,13.47-3.88,13-6.71,15.81-16.8a11.77,11.77,0,0,0,.31-2.21c0-.53.06-1.13.06-1.79V970a18.15,18.15,0,0,0-.74-5A19.26,19.26,0,0,0,453.06,960.43Zm27,3.82q-.37-7.08-.56-15.82-.12-5.77-.37-13.65c-.08-4.27-.16-8.08-.24-11.45-.12-3.73-.24-6.93-.34-9.6s-.2-4.18-.28-4.55a6.15,6.15,0,0,0-2.64-3.14,5.66,5.66,0,0,0-3-.86,4.41,4.41,0,0,0-1,.13c-2.75.65-4.55,2.54-5.42,5.66a82.51,82.51,0,0,0-.8,11.5q-.18,7.26-.18,15.81,0,2.16,0,8.8t.46,15.2q.38,5.9.93,13t.86,9.9q.74,5.79,4.55,7.51a7.54,7.54,0,0,0,2.58.49H475a5.93,5.93,0,0,0,2.22-.37,7.23,7.23,0,0,0,3.44-3.2,7.51,7.51,0,0,0,.74-3.5V985q0-2.22-.31-5.91Q480.44,971.32,480.07,964.25Zm58.75-59.07a7.68,7.68,0,0,0-1.29-.37,16,16,0,0,0-2.21-.15q-1.55,0-4.68,0a262.45,262.45,0,0,0-35.31,3,24.27,24.27,0,0,0-6.25,1.57,6.25,6.25,0,0,0-3.78,5.69,9.09,9.09,0,0,0,.55,2.62,5.06,5.06,0,0,0,3.08,2.8,7.56,7.56,0,0,0,2.95.43h.62c1.35,0,3.19-.1,5.53-.31,1.27-.08,2.34-.12,3.2-.12a14.28,14.28,0,0,1,2,.15,2.11,2.11,0,0,1,1.6,1.14,1.75,1.75,0,0,1,.28.71,10.54,10.54,0,0,1,.12,1.54c0,.71,0,1.76,0,3.13v8.89a360.39,360.39,0,0,0,2.83,44.3,69.38,69.38,0,0,0,2.31,12.27q1.2,3.48,3.6,4.46a6.9,6.9,0,0,0,3,.68,11.14,11.14,0,0,0,2.31-.37,6.72,6.72,0,0,0,4.4-5.54,5.8,5.8,0,0,0,.06-.92,34.85,34.85,0,0,0-.55-5.17q-3.21-19.56-4-51.12-.13-4.31-.19-6.89c0-1.73-.06-3-.06-3.88a13.85,13.85,0,0,1,.09-1.88,2.67,2.67,0,0,1,.28-.89,2.41,2.41,0,0,1,1-1.23,6.47,6.47,0,0,1,2.43-.61c1.15-.13,2.83-.25,5-.37,2.42-.08,4.32-.18,5.69-.28s2.4-.2,3.08-.31a7.18,7.18,0,0,0,1.75-.46q4.49-2.08,4.68-6.09v-.25Q543,907.46,538.82,905.18Zm24.8,59.07q-.37-7.08-.56-15.82-.12-5.77-.37-13.65c-.08-4.27-.16-8.08-.24-11.45q-.19-5.6-.34-9.6c-.1-2.66-.2-4.18-.28-4.55a6.15,6.15,0,0,0-2.64-3.14,5.66,5.66,0,0,0-3-.86,4.35,4.35,0,0,0-1,.13q-4.12,1-5.42,5.66a80.88,80.88,0,0,0-.8,11.5q-.18,7.26-.18,15.81,0,2.16,0,8.8t.46,15.2q.38,5.9.92,13t.87,9.9q.73,5.79,4.55,7.51a7.49,7.49,0,0,0,2.58.49h.37a5.93,5.93,0,0,0,2.22-.37,7.23,7.23,0,0,0,3.44-3.2,7.51,7.51,0,0,0,.74-3.5V985q0-2.22-.31-5.91Q564,971.32,563.62,964.25Zm70.44-19.69c.08,1.39.12,2.79.12,4.18a71.2,71.2,0,0,1-2.64,19.32A54.55,54.55,0,0,1,622,987.5a25.43,25.43,0,0,1-11.07,8.37,14.84,14.84,0,0,1-2.59.74,25.3,25.3,0,0,1-3.13.24h-1.42a16.19,16.19,0,0,1-3.63-.31q-7.56-2-13.38-9.22a46.55,46.55,0,0,1-8.58-18,84.69,84.69,0,0,1-2-18.58,95.72,95.72,0,0,1,3.32-24.61A63.92,63.92,0,0,1,584.23,914a20.7,20.7,0,0,1,4-5.84,10.13,10.13,0,0,1,4.83-2.46,28.6,28.6,0,0,1,5.41-.43q1.11,0,2.28.06a52.29,52.29,0,0,1,8.79,1Q631.67,911.59,634.06,944.56Zm-14,4.12a52.65,52.65,0,0,0-2.83-17.35q-2.14-6.27-6-9t-10.34-2.71h-.31a10,10,0,0,0-3.6.46,3.35,3.35,0,0,0-1.69,1.76,43.69,43.69,0,0,0-2.55,8.64,117.65,117.65,0,0,0-2,12.21q-.43,4.5-.43,8.55,0,14.1,5.1,23.63,4.44,7.62,9.05,7.63a6.44,6.44,0,0,0,3.14-.86q3.69-2.16,7.26-9.23,4.43-9.16,4.82-15.6T620.09,948.68Zm80.35-44.24a6.77,6.77,0,0,0-4.79-2.46h-.31a6.73,6.73,0,0,0-4.74,2,6.36,6.36,0,0,0-1.69,2.8,22.33,22.33,0,0,0-.71,5.08q-.3,4.36-.77,11.22t-.83,12.83c-.12,1.93-.26,4.52-.4,7.75s-.26,6.4-.34,9.48q-.12,4.13-.24,6.61c-.09,1.66-.18,2.95-.28,3.85a7.33,7.33,0,0,1-.4,1.91,1.91,1.91,0,0,1-.61.8.7.7,0,0,1-.37.12.73.73,0,0,1-.34-.12,4.53,4.53,0,0,1-.77-.74,12.51,12.51,0,0,1-.86-1.33,15.12,15.12,0,0,1-.86-1.63q-.32-.86-1.11-2.73c-.54-1.25-1.09-2.56-1.66-3.91q-3.14-7.44-10.46-27.5a152.26,152.26,0,0,0-6.37-15.66c-1.5-2.89-3-4.54-4.4-4.95a7.06,7.06,0,0,0-2.27-.37,10.41,10.41,0,0,0-4.13,1.08,7.66,7.66,0,0,0-3.75,3.78,9.39,9.39,0,0,0-.49,1.63,18,18,0,0,0-.37,2.18c-.12,1.52-.21,4.62-.25,9.29q-.06,4.74-.06,9.6,0,2.46.06,7.51c0,3.36.13,6.31.25,8.86.12,1.72.29,4.25.49,7.59s.41,6.7.62,10.06q.48,8.49.86,13.14c.24,3.1.47,5.35.67,6.77a11.27,11.27,0,0,0,.8,3.1,7.28,7.28,0,0,0,4.19,4.06,6.38,6.38,0,0,0,2,.31,8.48,8.48,0,0,0,2.55-.52,6.69,6.69,0,0,0,3-2.25,6,6,0,0,0,1.36-3.26c0-.45.06-1,.06-1.6,0-1.27-.08-2.91-.25-4.92-.28-3.08-.55-6.58-.8-10.52s-.45-7.44-.61-10.52c-.08-2.3-.13-3.88-.13-4.74v-.55c.25-1,.62-1.54,1.11-1.54a.57.57,0,0,1,.25.06,2.19,2.19,0,0,1,.86.89,25,25,0,0,1,1.35,2.62q.87,1.84,2.28,5.23,4.92,11.57,8.24,17.75T681,991a9.62,9.62,0,0,0,6.19,2.21h.24q5.06,0,8.12-4.92,2.1-3,3-9.6t1.29-21.72q.43-15.13,1.78-34,.44-6.64.56-10.27v-.86a20.68,20.68,0,0,0-.4-4.62A6.3,6.3,0,0,0,700.44,904.44Zm29.48,69.66a8.42,8.42,0,0,0-2.11-.27,10.74,10.74,0,0,0-7.38,3.17,14.36,14.36,0,0,0-3.69,9.58,42.77,42.77,0,0,0,.61,5q.61,3.92,6.77,6.46a12.22,12.22,0,0,0,3.52.53,12.05,12.05,0,0,0,6.11-2,13,13,0,0,0,5.14-6.28,14.67,14.67,0,0,0,1-5,12.05,12.05,0,0,0-2.37-6.68Q735.11,975.16,729.92,974.1ZM49.18,886.81a7.77,7.77,0,0,0,1.63-4.48A9.28,9.28,0,0,0,50,878.9a20.94,20.94,0,0,0-1.89-3.6c-.64-.71-2.52-2.54-5.62-5.5s-6.38-6-9.8-9.14-5.94-5.31-7.52-6.54q-4.49-4.05-9.32-4a9.42,9.42,0,0,0-6.67,2.6A8.86,8.86,0,0,0,6.6,859.3q0,4.31,4.21,8.53c1,.93,2.86,2.52,5.59,4.74s5.7,4.62,8.92,7.17,6.08,4.77,8.57,6.68a47.47,47.47,0,0,0,4.61,3.29,7.79,7.79,0,0,0,2.55.7q1.14.09,1.41.09a7.71,7.71,0,0,0,2.81-.44A9.16,9.16,0,0,0,49.18,886.81ZM66.85,461a5.8,5.8,0,0,0,2.09.33c.13,0,.48,0,1-.07a5.62,5.62,0,0,0,1.89-.52,31.32,31.32,0,0,0,3.42-2.43c1.85-1.4,4-3.05,6.36-4.93s4.59-3.64,6.61-5.29,3.4-2.81,4.14-3.5q3.13-3.11,3.13-6.29a6.55,6.55,0,0,0-1.89-4.9,7,7,0,0,0-5-1.91,10.26,10.26,0,0,0-6.91,3q-1.75,1.36-5.57,4.83t-7.27,6.75c-2.3,2.18-3.69,3.54-4.17,4.05a15.45,15.45,0,0,0-1.4,2.66,6.74,6.74,0,0,0-.62,2.53,5.69,5.69,0,0,0,1.2,3.31A6.76,6.76,0,0,0,66.85,461Zm46.75-2.4a5.64,5.64,0,0,0,1.21-3.31,6.94,6.94,0,0,0-.62-2.53,15.45,15.45,0,0,0-1.4-2.66c-.48-.51-1.87-1.87-4.17-4.05s-4.73-4.43-7.27-6.75-4.4-3.92-5.57-4.83a10.28,10.28,0,0,0-6.91-3,7,7,0,0,0-5,1.91,6.55,6.55,0,0,0-1.89,4.9q0,3.18,3.13,6.29,1.09,1,4.13,3.5t6.62,5.29c2.39,1.88,4.51,3.53,6.35,4.93a33.58,33.58,0,0,0,3.42,2.43,5.75,5.75,0,0,0,1.89.52c.57.05.92.07,1.05.07a5.74,5.74,0,0,0,2.08-.33A6.7,6.7,0,0,0,113.6,458.61Z" transform="translate(0 0.56)"/></g></svg>