<svg id="Layer_1" data-name="Layer 1" xmlns="http://www.w3.org/2000/svg" viewBox="0 0 581.82 477.8"><defs><style>.cls-1{fill:#326145;}.cls-2{fill:#3e4640;}</style></defs><path class="cls-1" d="M209.44,328.77q-9.06-1.27-12.6-11.63-2.06-5.75-2.05-17.37c0-1.33,0-2.72.05-4.15q.1-4.92.38-10.2t.64-8.4q.21-2,.72-5.79t1-7.23c.34-2.28.58-3.74.71-4.35q1-4.26,4.51-5.28a5,5,0,0,1,1.18-.15,4.6,4.6,0,0,1,2,.46,4.79,4.79,0,0,1,2.36,2.25,3.37,3.37,0,0,1,.35.87,4,4,0,0,1,.11,1c0,.37,0,.89-.05,1.53q-.1,2-.57,8.2c-.3,4.14-.63,8.59-1,13.38q-.47,5.17-.46,16,0,5,0,7.32c0,1.57.07,2.74.16,3.49a20.13,20.13,0,0,0,.33,2.1q1,4.1,2.61,5.38a2.8,2.8,0,0,0,1.49.59l.82,0a7.4,7.4,0,0,0,2.41-.41c.48-.17,1.27-.49,2.38-1s2.26-1,3.46-1.59c3.24-1.54,5.57-2.58,7-3.12a11.29,11.29,0,0,1,3.38-.88,5.43,5.43,0,0,1,.67-.05,5,5,0,0,1,4.1,1.85A5.68,5.68,0,0,1,237,315.3a6.3,6.3,0,0,1-.82,3A5,5,0,0,1,234.7,320a18.45,18.45,0,0,1-3.12,1.69l-2.9,1.36-3.56,1.66q-3.63,1.74-5.48,2.49a21.53,21.53,0,0,1-3.59,1.1,20.44,20.44,0,0,1-4.76.61A16.38,16.38,0,0,1,209.44,328.77Z" transform="translate(-191.75 -253.58)"/><path class="cls-1" d="M245.52,278.15a5.36,5.36,0,0,1-2.28-1.9,4.47,4.47,0,0,1-1-2.61,5.51,5.51,0,0,1,.48-2,12.16,12.16,0,0,1,1.11-2.1q.56-.62,3.28-3.2c1.8-1.73,3.71-3.51,5.71-5.33s3.46-3.1,4.38-3.82a8.06,8.06,0,0,1,5.43-2.36,5.56,5.56,0,0,1,3.9,1.51,5.2,5.2,0,0,1,1.48,3.87,7.11,7.11,0,0,1-2.46,5q-.87.82-3.25,2.77t-5.2,4.18q-2.82,2.22-5,3.89a27,27,0,0,1-2.69,1.92,4.53,4.53,0,0,1-1.49.41c-.44,0-.71,0-.81,0A4.6,4.6,0,0,1,245.52,278.15Z" transform="translate(-191.75 -253.58)"/><path class="cls-1" d="M267.39,319.28a6.72,6.72,0,0,1-1.13-1.83,7,7,0,0,1-.57-2.15,11.31,11.31,0,0,1,.86-4.1,94.11,94.11,0,0,1,4.56-10.34q3.08-6,8-13.71t10.15-14.68q12.5-16.58,20.22-17.36a5.29,5.29,0,0,1,1.66-.05,15.08,15.08,0,0,1,2,.58,9.27,9.27,0,0,1,2.79,1.43,8.05,8.05,0,0,1,1.85,2.39,11.62,11.62,0,0,1,1.41,4.55,30.06,30.06,0,0,1-.42,7.15q-.71,4.6-2.44,12.74-6,28.38-6,39.69a22.28,22.28,0,0,1-.06,2.6,6,6,0,0,1-.24,1.19,3,3,0,0,1-.2.44q-2.38,4.31-6.88,3a6.08,6.08,0,0,1-3.56-3.06,8.33,8.33,0,0,1-.9-2.4,16.36,16.36,0,0,1-.28-3.4,8.88,8.88,0,0,0-.43-3,2.64,2.64,0,0,0-1.42-1.46,4.78,4.78,0,0,0-.83-.34q-.94-.33-2.67-.81-2.84-.81-6.08-1.67c-2.16-.58-3.79-1-4.9-1.22a5.14,5.14,0,0,0-3.45.1,6.15,6.15,0,0,0-2.19,3,9.4,9.4,0,0,1-1.64,2.69,5.44,5.44,0,0,1-2.14,1.35,3.47,3.47,0,0,1-1.25.24,7.44,7.44,0,0,1-1.51-.3l-.55-.19a5.25,5.25,0,0,1-.88-.36A3.31,3.31,0,0,1,267.39,319.28ZM292,303.81l3.87.72a13.9,13.9,0,0,0,2.13.28,2.24,2.24,0,0,0,1.57-.85,2.06,2.06,0,0,0,.39-.48,1.83,1.83,0,0,0,.2-.43,2.69,2.69,0,0,0,.14-.56c.12-.44.25-1.07.4-1.89s.37-2,.64-3.38c.29-1.71.7-3.87,1.21-6.45s1-5,1.48-7.2a81.6,81.6,0,0,0,1.5-8.56,1.11,1.11,0,0,0-.67-1l-.1,0a1.79,1.79,0,0,0-1.44.45,51.24,51.24,0,0,0-5.58,6.9q-4.15,5.73-8.62,12.54a34,34,0,0,0-3.46,6.16,2.16,2.16,0,0,0-.17,1,1.59,1.59,0,0,0,.27.51,4.51,4.51,0,0,0,.55.67,2.88,2.88,0,0,0,.56.47l1.51.3Z" transform="translate(-191.75 -253.58)"/><path class="cls-1" d="M366,328.92a3.59,3.59,0,0,1-.68-.43,3.77,3.77,0,0,1-.57-.54,5.52,5.52,0,0,1-1.15-2.72,53.65,53.65,0,0,1-.58-6.5q-.06-1.68-.09-3.12c0-.95,0-1.77,0-2.44,0-1.29,0-2.92,0-4.91q.07-4.49.22-13.09c0-1.82,0-3.19,0-4.13s0-1.62-.05-2a3.25,3.25,0,0,0-.16-.82,1.19,1.19,0,0,0-.31-.52.71.71,0,0,0-.45-.13,1,1,0,0,0-.71.29,4.94,4.94,0,0,0-.83,1.17c-.33.58-.79,1.44-1.36,2.56q-3.92,7.86-7,21.56c-.14.62-.3,1.22-.48,1.81a10.9,10.9,0,0,1-.45,1.27,4.7,4.7,0,0,1-4.27,2.94,4.77,4.77,0,0,1-1-.1,3.36,3.36,0,0,1-.89-.34,5.08,5.08,0,0,1-.9-.74,6.1,6.1,0,0,1-.82-1.09,5.29,5.29,0,0,1-.54-1.6c-.14-.69-.3-1.7-.47-3q-1-7.32-1.65-11.82c-.43-3-.77-5.3-1-6.91s-.48-2.72-.64-3.37a3.8,3.8,0,0,0-.47-1.22,1.05,1.05,0,0,0-.75-.5c-.46,0-.91.55-1.37,1.65a38.52,38.52,0,0,0-1.83,8.54c-.09.76-.19,1.59-.28,2.49s-.17,1.66-.22,2.28c-.09,1-.15,2.3-.16,3.89s0,2.92,0,4v3.19q0,3.22.18,4.74c.08,1,.16,1.76.25,2.35s.27,1.41.51,2.49a6,6,0,0,1,.14,1.22,3.21,3.21,0,0,1-.82,2.26,3.5,3.5,0,0,1-2.55,1.18,4.44,4.44,0,0,1-2.08-.57,4.28,4.28,0,0,1-1.72-1.94,16.37,16.37,0,0,1-1.15-4,54.87,54.87,0,0,1-.81-5.74q-.19-2.47-.2-6.71a87.42,87.42,0,0,1,1.51-17A33.24,33.24,0,0,1,331,282.44c1.62-2.71,3.46-4.39,5.54-5.06a4.62,4.62,0,0,1,1.35-.32h.48a6.65,6.65,0,0,1,1.55.21,5.42,5.42,0,0,1,1.54.63,8.89,8.89,0,0,1,1.47,1.16,10.66,10.66,0,0,1,2.6,3.73,32.73,32.73,0,0,1,1.85,6.5c.16.81.31,1.45.43,1.92s.22.81.3,1.05a2,2,0,0,0,.25.51.58.58,0,0,0,.34.17.34.34,0,0,0,.18,0q.33,0,.72-.54a19,19,0,0,0,1.33-2.62q4.3-9.26,8.25-12.44a7.32,7.32,0,0,1,4.23-1.51,6.14,6.14,0,0,1,2.3.47c2.12.86,3.68,2.75,4.66,5.66a19.66,19.66,0,0,1,.91,5.55c.09,2.16.13,4,.13,5.47,0,3-.09,6.74-.25,11.33q-.1,3.91-.11,7.35,0,6.57.43,11.41c.07.69.11,1.29.11,1.79a5.91,5.91,0,0,1,0,.79,4.73,4.73,0,0,1-.64,1.76,3.37,3.37,0,0,1-1.8,1.56,5.85,5.85,0,0,1-1.54.3A3.83,3.83,0,0,1,366,328.92Z" transform="translate(-191.75 -253.58)"/><path class="cls-1" d="M393.11,330.57a13.78,13.78,0,0,1-6.7-3.84,17.87,17.87,0,0,1-4.56-7.92,73.27,73.27,0,0,1-2.33-14.53q-.36-4-.36-8.47,0-3.8.25-8c.1-1.6.17-2.85.23-3.75s.13-1.56.2-2a5.33,5.33,0,0,1,.25-1,3.74,3.74,0,0,1,1.63-2.06,3.91,3.91,0,0,1,1.67-.49,3.47,3.47,0,0,1,1.4.32,3.85,3.85,0,0,1,2.19,3.45c0,.31.06,1.34.12,3.08s.12,3.8.17,6.17q.28,17.69,2.36,24.57a11.14,11.14,0,0,0,2.23,4.31,4.06,4.06,0,0,0,2.94,1.68q7,0,7.1-33.43c0-1.86,0-3.58,0-5.15s.06-2.54.1-2.92a4.51,4.51,0,0,1,2-3.51,2.83,2.83,0,0,1,.87-.42,6.32,6.32,0,0,1,1.28-.09,6.71,6.71,0,0,1,1.22.08,2,2,0,0,1,.82.43,4.65,4.65,0,0,1,1.87,3.3c.07.64.11,2.28.11,4.91s0,5.44-.08,8.43-.12,5.34-.21,7.07a89.46,89.46,0,0,1-2.15,16.32q-1.77,6.94-5,10a11,11,0,0,1-7.74,3.55A10.28,10.28,0,0,1,393.11,330.57Z" transform="translate(-191.75 -253.58)"/><path class="cls-1" d="M425.32,329.31a4.07,4.07,0,0,1-1.95-1.73,4.06,4.06,0,0,1-.52-2.86q.54-2.58,4.19-3.12a17,17,0,0,0,5.64-2,8.9,8.9,0,0,0,3.55-3.21,4.64,4.64,0,0,0,.3-.84,2,2,0,0,0,.05-.45,2.77,2.77,0,0,0,0-.39,5.52,5.52,0,0,0-2.1-3.2,33.11,33.11,0,0,0-6-3.83c-2.49-1.32-4.37-2.32-5.63-3s-2.21-1.25-2.82-1.66a19.52,19.52,0,0,1-1.7-1.31,9.72,9.72,0,0,1-3.62-7.28,11.19,11.19,0,0,1,1-4.45,16.92,16.92,0,0,1,3-4.25,25.18,25.18,0,0,1,4.36-3.79c1-.64,2.26-1.32,3.69-2a32.62,32.62,0,0,1,3.7-1.62,11.8,11.8,0,0,1,3.58-.64,5,5,0,0,1,3.91,1.61,3.68,3.68,0,0,1,.86,2.3,3.33,3.33,0,0,1-.14.93,3.45,3.45,0,0,1-2.33,2.33,7.76,7.76,0,0,1-.76.16l-1,.17q-3.3.5-7.71,4.12-3.56,2.87-3.56,4.77a1.88,1.88,0,0,0,.29,1,2.74,2.74,0,0,0,.81,1,15,15,0,0,0,2,1.27c.94.52,2.31,1.27,4.1,2.22a62.39,62.39,0,0,1,8.43,5.06,16.18,16.18,0,0,1,4.27,4.59,10.82,10.82,0,0,1,1.29,2.67,10.52,10.52,0,0,1,.43,2.89v.65c0,.38,0,.73,0,1a8.72,8.72,0,0,1-.18,1.29q-1.65,5.88-9.22,9.79a19,19,0,0,1-7.86,2.26A6.4,6.4,0,0,1,425.32,329.31Z" transform="translate(-191.75 -253.58)"/><path class="cls-1" d="M459.22,329.49q-6.57-1.71-8.5-13.27a87.06,87.06,0,0,1-.9-13.23c0-4.55.25-9.55.75-15,.22-2.32.41-4.09.58-5.31a12.53,12.53,0,0,1,.57-2.65,3.68,3.68,0,0,1,.9-1.37,4.7,4.7,0,0,1,1.16-.91,7.35,7.35,0,0,1,1.85-.61q1.22-.27,3.48-.63c2.49-.38,4.53-.66,6.13-.82a41.36,41.36,0,0,1,4.31-.26h.53a12.43,12.43,0,0,1,2.7.22,3.61,3.61,0,0,1,1.72,1,4,4,0,0,1,1.18,2.76,3.51,3.51,0,0,1-.07.72,4,4,0,0,1-2.37,2.83,6.19,6.19,0,0,1-1.22.33,24.66,24.66,0,0,1-2.49.25c-1.14.07-2.76.15-4.86.25q-1.57.07-2.82.18a13.05,13.05,0,0,0-1.52.18,2.12,2.12,0,0,0-1.65,1.47,19.76,19.76,0,0,0-.2,2.63q-.09,2.25-.18,5.22c-.06,2-.1,3.71-.12,5.17s0,2.54,0,3.26v.9c0,.57.05,1,.07,1.29a2.53,2.53,0,0,0,.13.65,1.53,1.53,0,0,0,.3.43.84.84,0,0,0,.58.35,3.51,3.51,0,0,0,.46,0,8.71,8.71,0,0,0,1.33-.14c.72-.12,1.76-.35,3.12-.68a37.86,37.86,0,0,1,3.91-.85q.85-.09,1.08-.09a3.22,3.22,0,0,1,1.72.4,3.9,3.9,0,0,1,2,2.36,4.37,4.37,0,0,1,.15,1.08q0,2.44-2.87,3.84a11.89,11.89,0,0,1-2.21.64c-1.06.24-2.83.58-5.29,1-.65.14-1.23.28-1.76.41a5.24,5.24,0,0,0-1,.31,2,2,0,0,0-.38.39,2.45,2.45,0,0,0-.3.5,1.61,1.61,0,0,0-.13.42c0,.1,0,.2,0,.3v.32c0,.22.09.53.18.94.39,2,.86,3.2,1.42,3.73a2.52,2.52,0,0,0,1.7.78,3.77,3.77,0,0,0,1.44-.32,12.06,12.06,0,0,0,1.56-.84c.73-.44,1.51-.94,2.35-1.49,1.22-.81,2.17-1.42,2.87-1.83a9.94,9.94,0,0,1,1.68-.84,3.8,3.8,0,0,1,1.33-.23,3.44,3.44,0,0,1,.54,0,2,2,0,0,1,.57.07,2.74,2.74,0,0,1,.93.4,3.34,3.34,0,0,1,2.05,3,3.28,3.28,0,0,1,0,.43,3.83,3.83,0,0,1-1.33,2.91c-.43.38-1.21,1-2.33,1.74s-2.29,1.55-3.5,2.31-2.13,1.32-2.78,1.65a15.23,15.23,0,0,1-6.31,1.55A10,10,0,0,1,459.22,329.49Z" transform="translate(-191.75 -253.58)"/><path class="cls-1" d="M505.48,311.56l-5.31-.24-5.91-.23c-2.23-.06-3.9-.15-5-.25a11.31,11.31,0,0,1-2.51-.44,4.19,4.19,0,0,1-1.48-.89c-1.13-1-1.7-1.8-1.72-2.52s0-1.09,0-1.12a4.84,4.84,0,0,1,1.58-3.59,5.82,5.82,0,0,1,2.77-1.46,31.29,31.29,0,0,1,6.1-.64q4.24-.15,12.35-.15h6.48c1.62,0,2.87,0,3.74.05s1.51.07,1.92.13a2.71,2.71,0,0,1,.92.23c2,.88,3.14,1.89,3.46,3a10,10,0,0,1,.49,2.41,5.5,5.5,0,0,1-1.38,3.53,5.57,5.57,0,0,1-2.49,1.72,11.32,11.32,0,0,1-3.56.59c-1.37,0-2.43.05-3.18.05C510.75,311.76,508.35,311.69,505.48,311.56Z" transform="translate(-191.75 -253.58)"/><path class="cls-1" d="M554.34,332.4a12.6,12.6,0,0,1-3,.28,5,5,0,0,1-2.07-.61,5.73,5.73,0,0,1-1.8-1.26,9.82,9.82,0,0,1-1.65-2.74q-.87-1.95-2.25-5.89t-3.65-10.72q-3.52-10.72-5.49-16.8t-3.1-9.89c-.76-2.53-1.54-5.3-2.36-8.3s-1.4-5.29-1.77-6.85a27.4,27.4,0,0,1-.66-3.51,7.28,7.28,0,0,1,.08-2.07,4.6,4.6,0,0,1,1.77-3,25.54,25.54,0,0,1,5.47-2.86,78.7,78.7,0,0,1,9.87-3.52,37.1,37.1,0,0,1,4.83-1,37.7,37.7,0,0,1,7.77.18,29.09,29.09,0,0,1,7.07,1.7,17.77,17.77,0,0,1,9,7.71,20.57,20.57,0,0,1,1.43,3.91,25.29,25.29,0,0,1,.81,4.19,29.59,29.59,0,0,1,0,3.3,34.82,34.82,0,0,1-.53,3.65A43.29,43.29,0,0,1,570,289.25c-.45.94-.83,1.79-1.14,2.54a8,8,0,0,0-.49,1.41,1.4,1.4,0,0,0,0,.57,2,2,0,0,0,.55.86,12.35,12.35,0,0,0,2.53,1.49c.71.41,1.4.82,2.06,1.22a16,16,0,0,1,1.46,1,12,12,0,0,1,3.21,5.56,19.82,19.82,0,0,1,.45,2.27,20.85,20.85,0,0,1-1.55,10.18q-3.76,8.82-15.24,13.89a24.16,24.16,0,0,1-2.8,1l-1.34.36C556.75,331.9,555.62,332.16,554.34,332.4Zm-3.72-36.31a35.34,35.34,0,0,0,6.21-7.68,46,46,0,0,0,4.83-9.59,21.84,21.84,0,0,0,1.1-4.28,9.57,9.57,0,0,0-.24-3.33c-.08-.44-.17-.82-.25-1.15a5.52,5.52,0,0,0-.25-.73,3.85,3.85,0,0,0-.78-1.11,5,5,0,0,0-.9-.88,5.41,5.41,0,0,0-1.11-.65,15.26,15.26,0,0,0-3.53-1,27.76,27.76,0,0,0-4.49-.4,14,14,0,0,0-1.89.06,16.52,16.52,0,0,0-1.93.34c-.73.16-1.74.42-3,.76l-3,.84a8.22,8.22,0,0,0-1.35.5,1.39,1.39,0,0,0-.55.52,2.27,2.27,0,0,0-.58,1.22,5.84,5.84,0,0,0,.28,2c.23.86.64,2.11,1.23,3.76q.68,1.93,1.74,5.18t2.11,6.31q1,3,1.74,5.26c.52,1.52.84,2.46,1,2.81.62,1.64,1.46,2.32,2.51,2a1.78,1.78,0,0,0,.47-.26C550.12,296.48,550.36,296.3,550.62,296.09ZM560,318a15.94,15.94,0,0,0,5.31-4.7q1.88-2.71,1.3-4.84a2.36,2.36,0,0,0-2.37-1.69,10.15,10.15,0,0,0-3,.51,33.19,33.19,0,0,0-4.11,1.4,13.5,13.5,0,0,0-2.86,1.49,2.67,2.67,0,0,0-1.06,1.75,8.78,8.78,0,0,0,.43,3,11.86,11.86,0,0,0,1.15,3.06,2.22,2.22,0,0,0,1.45,1.07,2.45,2.45,0,0,0,1.51.07A11.15,11.15,0,0,0,560,318Z" transform="translate(-191.75 -253.58)"/><path class="cls-1" d="M585.65,328a4.29,4.29,0,0,1-1.13-.93,5,5,0,0,1-.85-1.25,8,8,0,0,1-.35-2.84,63.46,63.46,0,0,1,.64-7.67q.64-4.56,2.1-10.6T589.34,293q4.38-13.45,9.18-15.68a3.77,3.77,0,0,1,1.06-.39,9.71,9.71,0,0,1,1.42-.07,6.35,6.35,0,0,1,2.12.3,5.34,5.34,0,0,1,1.72,1.13,7.81,7.81,0,0,1,1.92,2.62,20.89,20.89,0,0,1,1.31,4.7q.57,3.12,1.25,8.75,2.4,19.62,4.95,26.9a13.83,13.83,0,0,1,.54,1.69,4.22,4.22,0,0,1,.11.82,1.47,1.47,0,0,1,0,.32,3.7,3.7,0,0,1-3.77,3.45,4.18,4.18,0,0,1-3-1.19A5.55,5.55,0,0,1,607,325a10.86,10.86,0,0,1-.94-2.14,6,6,0,0,0-1-1.84,1.81,1.81,0,0,0-1.24-.63,3.84,3.84,0,0,0-.61,0c-.45,0-1.08,0-1.9.08-1.34.07-2.76.16-4.28.26s-2.66.21-3.43.31a3.49,3.49,0,0,0-2.2.82,4.22,4.22,0,0,0-.74,2.44,6.17,6.17,0,0,1-.47,2.1,3.63,3.63,0,0,1-1.07,1.35,2.45,2.45,0,0,1-.75.43,4.65,4.65,0,0,1-1,.14H587a3.75,3.75,0,0,1-.64,0A2,2,0,0,1,585.65,328Zm12.41-15.42,2.65-.39a10,10,0,0,0,1.44-.29,1.56,1.56,0,0,0,.82-.9,1.93,1.93,0,0,0,.15-.39,2,2,0,0,0,0-.33,2.88,2.88,0,0,0,0-.39c0-.31-.08-.75-.17-1.31s-.19-1.33-.34-2.31c-.19-1.17-.4-2.65-.64-4.43s-.46-3.44-.65-5a52.43,52.43,0,0,0-.93-5.85.73.73,0,0,0-.65-.46h-.07a1.14,1.14,0,0,0-.82.61,34.83,34.83,0,0,0-2.07,5.68q-1.41,4.61-2.78,10a23.39,23.39,0,0,0-.86,4.74,1.65,1.65,0,0,0,.11.68,1.31,1.31,0,0,0,.29.27,3.3,3.3,0,0,0,.5.3,1.68,1.68,0,0,0,.47.18l1-.14Z" transform="translate(-191.75 -253.58)"/><path class="cls-1" d="M624.1,330a4.72,4.72,0,0,1-2.12-2.26c-.62-1.61-1.28-5.26-2-11s-1.27-12-1.7-18.76q-.18-2.87-.18-4.23v-2c0-1.27,0-2.78.07-4.52q.08-3.3.18-4.83a5.53,5.53,0,0,1,.43-2.11,4.06,4.06,0,0,1,1-1.17c1.34-1.24,3.75-1.92,7.21-2,.36,0,.71,0,1,0a20.79,20.79,0,0,1,12.59,3.84,13.51,13.51,0,0,1,5.1,8.32,16,16,0,0,1,.21,2.58q0,7.14-6.2,14.6c-.39.46-.77.92-1.17,1.38s-.7.82-.91,1.06a2.24,2.24,0,0,0-.72,1.4.94.94,0,0,0,.39.75,9.89,9.89,0,0,0,2.94,1.08,17.91,17.91,0,0,1,4.88,1.9,4.27,4.27,0,0,1,1.94,2.44,4.82,4.82,0,0,1,.14,1.11A3.76,3.76,0,0,1,644.9,321a3.18,3.18,0,0,1-1.36.25,12.4,12.4,0,0,1-3.44-.65c-1.08-.33-2.31-.66-3.7-1s-2.67-.63-3.84-.88a14.32,14.32,0,0,0-2.26-.37c-.76,0-1.19.17-1.29.53a4.22,4.22,0,0,0-.14,1,18.1,18.1,0,0,0,.32,2.8c.24,1.41.37,2.33.4,2.76s0,.73,0,.89a3.78,3.78,0,0,1-.18,1.26,3.43,3.43,0,0,1-.79,1.33,4.55,4.55,0,0,1-1.32,1,4.37,4.37,0,0,1-1.62.28A4.51,4.51,0,0,1,624.1,330Zm4.8-24.47a6.05,6.05,0,0,0,1.46-1.14c.68-.65,1.4-1.38,2.15-2.19a26.46,26.46,0,0,0,1.85-2.19,23.51,23.51,0,0,0,1.83-3,16.85,16.85,0,0,0,1.18-2.84,9.1,9.1,0,0,0,.25-2.18,6.36,6.36,0,0,0-.29-2,6.08,6.08,0,0,0-2.83-3.14,14.29,14.29,0,0,0-5.38-1.81,7.76,7.76,0,0,0-.9-.11h-.32a1.56,1.56,0,0,0-.39,0,1.89,1.89,0,0,0-.54.18l-.11.07a1.26,1.26,0,0,0-.61.43,1.52,1.52,0,0,0-.23.86c0,.38,0,.7,0,1,0,.52,0,1.2,0,2,.07,1.27.17,3,.32,5.24,0,.33,0,.68,0,1,.15,2.17.26,3.9.34,5.18s.18,2.24.27,2.87a5.82,5.82,0,0,0,.31,1.31.88.88,0,0,0,.41.47.57.57,0,0,0,.29.14h.36Z" transform="translate(-191.75 -253.58)"/><path class="cls-1" d="M668.12,334.51a10.59,10.59,0,0,0,1.38-2.23,9.59,9.59,0,0,0,.67-2.28,5,5,0,0,0,.1-1,8.71,8.71,0,0,0-1.07-3.9,10,10,0,0,1-1.13-4.15,3.67,3.67,0,0,1,.66-2.2,4.06,4.06,0,0,1,3.44-1.74,6.72,6.72,0,0,1,.87.05q2.76.4,4.56,3.64a17.88,17.88,0,0,1,1.95,7.78,12.82,12.82,0,0,1-.16,2,15.11,15.11,0,0,1-3.53,7.84,6.42,6.42,0,0,1-4.61,2.41H671c-1.64-.07-2.72-.5-3.23-1.31a4,4,0,0,1-.77-2A5,5,0,0,1,668.12,334.51Z" transform="translate(-191.75 -253.58)"/><path class="cls-2" d="M204.09,408.74a12.8,12.8,0,0,1-8-4.23,16.55,16.55,0,0,1-4.37-11.77v-.21a29.24,29.24,0,0,1,.5-5.4A42.25,42.25,0,0,1,194,381q4.16-11.91,11.05-19.08,5.41-5.56,9.68-5.56a6.43,6.43,0,0,1,1.9.28,3.8,3.8,0,0,1,2.42,1.83,5,5,0,0,1,.49,1.8,3.46,3.46,0,0,1-.65,1.93,4.1,4.1,0,0,1-2.9,1.58,7.74,7.74,0,0,0-2,.68,7.88,7.88,0,0,0-1.72,1.37,45.35,45.35,0,0,0-7.85,11.55q-4.48,9.21-4.49,15a9.1,9.1,0,0,0,2.19,6.43,4.34,4.34,0,0,0,3.3,1.61,2.09,2.09,0,0,0,.43,0,5.88,5.88,0,0,0,2.15-.53,20.87,20.87,0,0,0,2.94-1.69,17.41,17.41,0,0,1,2.5-1.45,4.36,4.36,0,0,1,1.74-.34,3.67,3.67,0,0,1,3,1.32,3.83,3.83,0,0,1,.93,2.44,4.62,4.62,0,0,1-.82,2.48,15.55,15.55,0,0,1-3.21,2.65,27.56,27.56,0,0,1-4.47,2.48,14.31,14.31,0,0,1-5.2,1.07A12.39,12.39,0,0,1,204.09,408.74Z" transform="translate(-191.75 -253.58)"/><path class="cls-2" d="M228.62,358.15a5.36,5.36,0,0,1-2.28-1.9,4.47,4.47,0,0,1-1-2.61,5.3,5.3,0,0,1,.49-2,11.49,11.49,0,0,1,1.1-2.1c.37-.41,1.47-1.48,3.28-3.21S234,342.83,236,341s3.46-3.1,4.38-3.82a8.06,8.06,0,0,1,5.43-2.36,5.54,5.54,0,0,1,3.9,1.51,5.2,5.2,0,0,1,1.48,3.87,7.11,7.11,0,0,1-2.46,5q-.87.82-3.25,2.77t-5.2,4.17q-2.82,2.24-5,3.9a27,27,0,0,1-2.69,1.92,4.48,4.48,0,0,1-1.48.41c-.45,0-.72,0-.82,0A4.6,4.6,0,0,1,228.62,358.15Z" transform="translate(-191.75 -253.58)"/><path class="cls-2" d="M269.2,409.49q-6.57-1.71-8.5-13.27a87.06,87.06,0,0,1-.9-13.23q0-6.83.75-15c.22-2.32.41-4.09.58-5.31a12.53,12.53,0,0,1,.57-2.65,3.8,3.8,0,0,1,.9-1.37,4.89,4.89,0,0,1,1.16-.91,7.35,7.35,0,0,1,1.85-.61q1.22-.27,3.48-.63c2.49-.38,4.53-.66,6.13-.82a41.52,41.52,0,0,1,4.31-.26h.54a12.32,12.32,0,0,1,2.69.22,3.61,3.61,0,0,1,1.72,1,4,4,0,0,1,1.18,2.76,3.51,3.51,0,0,1-.07.72,4,4,0,0,1-2.37,2.83,6.19,6.19,0,0,1-1.22.33,24.66,24.66,0,0,1-2.49.25c-1.13.07-2.76.15-4.86.25q-1.57.07-2.82.18a13.05,13.05,0,0,0-1.52.18,2.12,2.12,0,0,0-1.65,1.47,19.76,19.76,0,0,0-.2,2.63q-.09,2.25-.18,5.22c-.06,2-.1,3.71-.12,5.17s0,2.54,0,3.26v.9c0,.57.05,1,.07,1.29a2.35,2.35,0,0,0,.13.64,1.44,1.44,0,0,0,.3.44.84.84,0,0,0,.58.35,3.5,3.5,0,0,0,.47,0,8.72,8.72,0,0,0,1.32-.14q1.08-.18,3.12-.69a39.68,39.68,0,0,1,3.91-.84q.87-.09,1.08-.09a3.2,3.2,0,0,1,1.72.4,3.9,3.9,0,0,1,2,2.36,4.37,4.37,0,0,1,.15,1.08q0,2.44-2.87,3.84a11.65,11.65,0,0,1-2.21.64c-1.06.24-2.83.58-5.29,1l-1.76.41a6.51,6.51,0,0,0-1,.3,2.47,2.47,0,0,0-.38.4,2.21,2.21,0,0,0-.3.5,1.68,1.68,0,0,0-.13.41c0,.11,0,.21,0,.31v.32a8.47,8.47,0,0,0,.17.94c.39,2,.86,3.2,1.42,3.72a2.49,2.49,0,0,0,1.71.79,3.73,3.73,0,0,0,1.43-.32,12.06,12.06,0,0,0,1.56-.84c.73-.44,1.51-.94,2.35-1.49,1.22-.81,2.18-1.42,2.87-1.83a9.94,9.94,0,0,1,1.68-.84,3.85,3.85,0,0,1,1.33-.24l.54,0a2,2,0,0,1,.57.07,3,3,0,0,1,.94.39,3.37,3.37,0,0,1,2,3.05,3.28,3.28,0,0,1,0,.43,3.83,3.83,0,0,1-1.33,2.91c-.43.38-1.21,1-2.33,1.74s-2.29,1.55-3.5,2.31-2.13,1.32-2.78,1.65a15.21,15.21,0,0,1-6.31,1.54A10,10,0,0,1,269.2,409.49Z" transform="translate(-191.75 -253.58)"/><path class="cls-2" d="M293.84,409.31a4.16,4.16,0,0,1-2-1.74,3.9,3.9,0,0,1-.51-2.85q.53-2.58,4.19-3.12a16.82,16.82,0,0,0,5.63-2,8.77,8.77,0,0,0,3.55-3.21,4.89,4.89,0,0,0,.31-.84,2.92,2.92,0,0,0,.05-.45,2.77,2.77,0,0,0,0-.39,5.62,5.62,0,0,0-2.1-3.2,33.86,33.86,0,0,0-6-3.83c-2.49-1.32-4.37-2.32-5.63-3s-2.21-1.25-2.82-1.67a17.67,17.67,0,0,1-1.7-1.3q-3.63-3.3-3.63-7.29a11.2,11.2,0,0,1,1-4.44,16.67,16.67,0,0,1,3-4.25,25.12,25.12,0,0,1,4.35-3.79c1-.64,2.26-1.32,3.7-2a32.57,32.57,0,0,1,3.69-1.62,11.91,11.91,0,0,1,3.59-.64,5,5,0,0,1,3.91,1.61,3.74,3.74,0,0,1,.86,2.3,3.33,3.33,0,0,1-.14.93,3.47,3.47,0,0,1-2.33,2.33,7.76,7.76,0,0,1-.76.16c-.33.06-.66.12-1,.16-2.2.34-4.77,1.71-7.71,4.13q-3.56,2.87-3.55,4.77a1.88,1.88,0,0,0,.29,1,2.74,2.74,0,0,0,.81,1,15.41,15.41,0,0,0,2,1.27c.95.52,2.32,1.27,4.11,2.22a63.71,63.71,0,0,1,8.43,5.06,16.33,16.33,0,0,1,4.27,4.59,10.82,10.82,0,0,1,1.29,2.67,10.52,10.52,0,0,1,.43,2.89v.65c0,.38,0,.73,0,1a7.57,7.57,0,0,1-.17,1.29q-1.67,5.88-9.22,9.79a19,19,0,0,1-7.86,2.26A6.36,6.36,0,0,1,293.84,409.31Z" transform="translate(-191.75 -253.58)"/><path class="cls-2" d="M328.42,410.39a4,4,0,0,1-2.1-2.6,40.12,40.12,0,0,1-1.35-7.16,210.35,210.35,0,0,1-1.65-25.82v-5.18c0-.8,0-1.41,0-1.83a6.36,6.36,0,0,0-.08-.9.92.92,0,0,0-.16-.41,1.23,1.23,0,0,0-.93-.67,8.12,8.12,0,0,0-1.18-.09c-.51,0-1.13,0-1.87.08-1.36.12-2.44.18-3.23.18h-.36a4.29,4.29,0,0,1-1.72-.26A3,3,0,0,1,312,364.1a5.07,5.07,0,0,1-.32-1.52,3.61,3.61,0,0,1,2.2-3.32,13.76,13.76,0,0,1,3.64-.91,152.67,152.67,0,0,1,20.59-1.76c1.22,0,2.13,0,2.73,0a8.56,8.56,0,0,1,1.29.09,3.79,3.79,0,0,1,.75.21,4,4,0,0,1,2.44,3.59v.14a4.06,4.06,0,0,1-2.73,3.55,4.18,4.18,0,0,1-1,.27c-.39.06-1,.12-1.79.18s-1.91.11-3.32.16-2.27.15-2.94.22a3.63,3.63,0,0,0-1.42.36,1.38,1.38,0,0,0-.59.71,1.69,1.69,0,0,0-.16.52,7.49,7.49,0,0,0,0,1.1c0,.5,0,1.25,0,2.26s.06,2.34.11,4a228,228,0,0,0,2.33,29.81,19,19,0,0,1,.32,3,4,4,0,0,1,0,.54,3.9,3.9,0,0,1-2.57,3.23,6.69,6.69,0,0,1-1.34.21A4.1,4.1,0,0,1,328.42,410.39Z" transform="translate(-191.75 -253.58)"/><path class="cls-2" d="M385.63,409.24a3.64,3.64,0,0,1-1.9-2,19.47,19.47,0,0,1-1.12-4.82q-.78-5.52-1.29-12.31c-.33-4.51-.5-8.75-.5-12.69,0-1.13.05-2.77.14-4.93s.21-4.22.34-6.16.26-3.25.38-3.94A5.17,5.17,0,0,1,385,358a9,9,0,0,1,2.17-.27q1.43-.06,2.28-.06c.86,0,1.77,0,2.73.08,1.57.07,2.94.19,4.08.35q8.86,1.23,12.84,5.49a15.45,15.45,0,0,1,1.46,1.56,8.37,8.37,0,0,1,.88,1.49,10.76,10.76,0,0,1,1,2.58,11,11,0,0,1,.22,2.26v.68a12.76,12.76,0,0,1-.39,2.68,16,16,0,0,1-1.15,2.78,27.85,27.85,0,0,1-5,6.7A51.5,51.5,0,0,1,394,393.42l-1.88,1.15-1,.61a1.85,1.85,0,0,0-.65.92,4.71,4.71,0,0,0-.14,1.2c0,.26,0,.56,0,.89.07.89.22,2.16.46,3.81.17,1.05.28,1.86.34,2.42s.09,1,.09,1.31a2.85,2.85,0,0,1-.1.79,4.06,4.06,0,0,1-1.4,2.27,3.7,3.7,0,0,1-2.41.88A3.83,3.83,0,0,1,385.63,409.24Zm6.88-24.53a39.27,39.27,0,0,0,5.4-4,32,32,0,0,0,4.32-4.45,7.78,7.78,0,0,0,2-4.48,3.19,3.19,0,0,0-1.07-2.4q-1.62-2-8.75-3.41a21.86,21.86,0,0,0-2.75-.48l-.63,0a1.92,1.92,0,0,0-1.25.32,1.35,1.35,0,0,0-.49.57,4.63,4.63,0,0,0-.23,1.26c-.05.6-.07,1.51-.07,2.73s0,2.92.07,5.05c0,2.28.06,4.23.11,5.87s.09,2.59.14,2.85c.12.93.51,1.4,1.18,1.4A4.19,4.19,0,0,0,392.51,384.71Z" transform="translate(-191.75 -253.58)"/><path class="cls-2" d="M426.27,408.63q-6.36-.88-8.83-8.14-1.43-4-1.43-12.16c0-.93,0-1.9,0-2.9q.07-3.45.27-7.14c.13-2.46.28-4.43.45-5.88.1-.94.26-2.29.5-4.06s.48-3.45.72-5.05.41-2.62.5-3.05a4.59,4.59,0,0,1,3.16-3.7,3.5,3.5,0,0,1,.82-.11,3.16,3.16,0,0,1,1.4.33,3.3,3.3,0,0,1,1.65,1.58,2.38,2.38,0,0,1,.25.61,2.68,2.68,0,0,1,.07.68c0,.26,0,.62,0,1.07q-.07,1.41-.4,5.74t-.68,9.36q-.32,3.63-.32,11.23c0,2.32,0,4,0,5.13s.05,1.91.11,2.44a12.25,12.25,0,0,0,.23,1.47c.45,1.91,1.06,3.17,1.83,3.77a1.88,1.88,0,0,0,1,.41l.57,0a5.41,5.41,0,0,0,1.69-.29c.33-.12.89-.35,1.67-.68s1.58-.71,2.42-1.12c2.27-1.07,3.89-1.8,4.88-2.18a7.64,7.64,0,0,1,2.36-.61,2.63,2.63,0,0,1,.47,0,3.49,3.49,0,0,1,2.87,1.29,4,4,0,0,1,1,2.55,4.44,4.44,0,0,1-.57,2.08,3.52,3.52,0,0,1-1,1.18,13.27,13.27,0,0,1-2.19,1.19l-2,1-2.49,1.16q-2.55,1.23-3.84,1.74a13.54,13.54,0,0,1-2.51.77,14.16,14.16,0,0,1-3.33.43A11.15,11.15,0,0,1,426.27,408.63Z" transform="translate(-191.75 -253.58)"/><path class="cls-2" d="M461,410.57a13.8,13.8,0,0,1-6.71-3.84,17.87,17.87,0,0,1-4.56-7.92,74.78,74.78,0,0,1-2.33-14.53q-.36-4-.36-8.47c0-2.53.09-5.19.25-8q.15-2.4.24-3.75c.06-.89.12-1.56.19-2a5.22,5.22,0,0,1,.26-1A3.76,3.76,0,0,1,449.6,359a4,4,0,0,1,1.67-.48,3.5,3.5,0,0,1,1.4.32,3.83,3.83,0,0,1,2.18,3.45c0,.31.07,1.34.13,3.08s.11,3.8.16,6.17q.28,17.69,2.37,24.57a11,11,0,0,0,2.22,4.3,4,4,0,0,0,2.94,1.69q7,0,7.1-33.43c0-1.86,0-3.58,0-5.15s.06-2.54.11-2.92a4.48,4.48,0,0,1,2-3.51,2.87,2.87,0,0,1,.88-.42,6.14,6.14,0,0,1,1.27-.09,6.63,6.63,0,0,1,1.22.08,2,2,0,0,1,.83.43,4.67,4.67,0,0,1,1.86,3.3c.07.64.11,2.28.11,4.91s0,5.44-.07,8.43-.12,5.34-.22,7.06a89.2,89.2,0,0,1-2.15,16.32q-1.75,7-5,10.05a11,11,0,0,1-7.75,3.55A10.09,10.09,0,0,1,461,410.57Z" transform="translate(-191.75 -253.58)"/><path class="cls-2" d="M493.2,409.31a4.16,4.16,0,0,1-2-1.74,4.35,4.35,0,0,1-.59-2.06,4.29,4.29,0,0,1,.07-.79q.54-2.58,4.2-3.12a16.9,16.9,0,0,0,5.63-2,8.83,8.83,0,0,0,3.55-3.21,4,4,0,0,0,.3-.84,2.15,2.15,0,0,0,.06-.45,1.84,1.84,0,0,0,0-.39,5.52,5.52,0,0,0-2.1-3.2,33.11,33.11,0,0,0-6-3.83c-2.49-1.32-4.36-2.32-5.63-3a31.48,31.48,0,0,1-2.81-1.67,17.83,17.83,0,0,1-1.71-1.3q-3.61-3.3-3.62-7.29a11.18,11.18,0,0,1,1-4.44,16.92,16.92,0,0,1,3-4.25,25.18,25.18,0,0,1,4.36-3.79q1.55-1,3.69-2a32.62,32.62,0,0,1,3.7-1.62,11.86,11.86,0,0,1,3.59-.64,5,5,0,0,1,3.91,1.61,3.74,3.74,0,0,1,.86,2.3,3,3,0,0,1-.15.93,3.45,3.45,0,0,1-2.33,2.33c-.17.05-.42.1-.75.16s-.66.12-1,.16c-2.2.34-4.77,1.71-7.71,4.13q-3.56,2.87-3.55,4.77a1.87,1.87,0,0,0,.28,1,3,3,0,0,0,.81,1,15.7,15.7,0,0,0,2,1.27c.94.52,2.31,1.27,4.11,2.22a63.71,63.71,0,0,1,8.43,5.06,16.28,16.28,0,0,1,4.26,4.59,10.82,10.82,0,0,1,1.29,2.67,10.5,10.5,0,0,1,.44,2.89v.65c0,.38,0,.73,0,1a6.69,6.69,0,0,1-.18,1.29q-1.65,5.88-9.22,9.79a19,19,0,0,1-7.85,2.26A6.36,6.36,0,0,1,493.2,409.31Z" transform="translate(-191.75 -253.58)"/><path class="cls-2" d="M584.48,412.15a35.28,35.28,0,0,1-6.28-3c-1.1-.6-1.92-1-2.47-1.25a3.7,3.7,0,0,0-1.44-.36h-.21a6,6,0,0,0-1.69.39,8.22,8.22,0,0,1-2.24.43c-.68,0-1.14,0-1.38,0a11.66,11.66,0,0,1-2.19-.18,15.25,15.25,0,0,1-8.75-6.42,30.86,30.86,0,0,1-4.91-12.88,49.81,49.81,0,0,1-.51-7.17,56.17,56.17,0,0,1,.54-7.68,45.5,45.5,0,0,1,4-13.59,10.79,10.79,0,0,1,3.25-4.36,9.63,9.63,0,0,1,5.18-1.09h.54q9.18,0,13.74,4.84,4.51,4.51,6,13.38a40.88,40.88,0,0,1,.61,7.06A42.43,42.43,0,0,1,585,390.66a38.27,38.27,0,0,1-2.83,7.61c-.29.64-.54,1.22-.75,1.72a3.91,3.91,0,0,0-.33.9,1.75,1.75,0,0,0,.94,1.39,17.57,17.57,0,0,0,3.33,1.58,19.91,19.91,0,0,1,2.42,1.11,5.27,5.27,0,0,1,1.31,1,3.62,3.62,0,0,1,1,2.55v.36q-.33,3.12-3.7,3.41c-.33,0-.68,0-1,0A3.49,3.49,0,0,1,584.48,412.15Zm-14.42-12.3a7.88,7.88,0,0,0,3.41-3.09,23.5,23.5,0,0,0,2.9-6A35.1,35.1,0,0,0,578,380.26a32,32,0,0,0-1.57-9.9,10.38,10.38,0,0,0-3.54-5.38,10.7,10.7,0,0,0-6.26-1.61,5,5,0,0,0-2.18.37,2.88,2.88,0,0,0-1.24,1.67,27.15,27.15,0,0,0-1,4,53.38,53.38,0,0,0-1.55,11.77v.43q0,8.15,2.55,13.2c1.39,2.75,3,4.45,4.74,5.09a3,3,0,0,0,1,.22A3.32,3.32,0,0,0,570.06,399.85Z" transform="translate(-191.75 -253.58)"/><path class="cls-2" d="M607.51,410.57a13.8,13.8,0,0,1-6.71-3.84,17.77,17.77,0,0,1-4.55-7.92,73.89,73.89,0,0,1-2.34-14.53q-.36-4-.36-8.47c0-2.53.09-5.19.26-8,.09-1.6.17-2.85.23-3.75s.13-1.56.2-2a4.65,4.65,0,0,1,.25-1,3.76,3.76,0,0,1,1.63-2.07,4,4,0,0,1,1.67-.48,3.5,3.5,0,0,1,1.4.32,3.83,3.83,0,0,1,2.18,3.45c0,.31.07,1.34.13,3.08s.11,3.8.16,6.17q.29,17.69,2.37,24.57a11,11,0,0,0,2.22,4.3,4,4,0,0,0,2.94,1.69q7,0,7.11-33.43c0-1.86,0-3.58,0-5.15s.06-2.54.11-2.92a4.48,4.48,0,0,1,2-3.51,3,3,0,0,1,.88-.42,6.21,6.21,0,0,1,1.27-.09,6.63,6.63,0,0,1,1.22.08,2,2,0,0,1,.83.43,4.67,4.67,0,0,1,1.86,3.3c.07.64.11,2.28.11,4.91s0,5.44-.07,8.43-.12,5.34-.22,7.06a88.32,88.32,0,0,1-2.15,16.32q-1.75,7-5,10.05a11,11,0,0,1-7.75,3.55A10.09,10.09,0,0,1,607.51,410.57Z" transform="translate(-191.75 -253.58)"/><path class="cls-2" d="M636.52,358.15a5.36,5.36,0,0,1-2.28-1.9,4.54,4.54,0,0,1-1-2.61,5.3,5.3,0,0,1,.49-2,11.49,11.49,0,0,1,1.1-2.1c.37-.41,1.47-1.48,3.28-3.21s3.71-3.5,5.71-5.32,3.46-3.1,4.38-3.82a8.1,8.1,0,0,1,5.43-2.36,5.54,5.54,0,0,1,3.9,1.51,5.2,5.2,0,0,1,1.48,3.87,7.1,7.1,0,0,1-2.45,5c-.59.55-1.67,1.47-3.26,2.77s-3.32,2.69-5.2,4.17-3.54,2.79-5,3.9a25.82,25.82,0,0,1-2.69,1.92,4.48,4.48,0,0,1-1.48.41c-.45,0-.72,0-.82,0A4.6,4.6,0,0,1,636.52,358.15Z" transform="translate(-191.75 -253.58)"/><path class="cls-2" d="M681.41,410.57a13.8,13.8,0,0,1-6.71-3.84,17.87,17.87,0,0,1-4.56-7.92,74,74,0,0,1-2.33-14.53q-.36-4-.36-8.47c0-2.53.09-5.19.25-8q.15-2.4.24-3.75c.06-.89.12-1.56.19-2a6.25,6.25,0,0,1,.25-1A3.82,3.82,0,0,1,670,359a3.94,3.94,0,0,1,1.66-.48,3.43,3.43,0,0,1,1.4.32,3.84,3.84,0,0,1,2.19,3.45c0,.31.07,1.34.13,3.08s.11,3.8.16,6.17q.29,17.69,2.37,24.57a11,11,0,0,0,2.22,4.3,4,4,0,0,0,2.94,1.69q7,0,7.1-33.43c0-1.86,0-3.58,0-5.15s.06-2.54.11-2.92a4.48,4.48,0,0,1,2-3.51,2.87,2.87,0,0,1,.88-.42,6.14,6.14,0,0,1,1.27-.09,6.63,6.63,0,0,1,1.22.08,2.06,2.06,0,0,1,.83.43,4.67,4.67,0,0,1,1.86,3.3c.07.64.11,2.28.11,4.91s0,5.44-.07,8.43-.12,5.34-.22,7.06A89.2,89.2,0,0,1,696,397.15q-1.75,7-5,10.05a11,11,0,0,1-7.75,3.55A10.09,10.09,0,0,1,681.41,410.57Z" transform="translate(-191.75 -253.58)"/><path class="cls-2" d="M710.6,409.92a4.23,4.23,0,0,1-2.44-2.36,6.55,6.55,0,0,1-.46-1.81c-.12-.83-.25-2.14-.4-3.95s-.31-4.36-.5-7.66l-.36-5.86c-.12-1.95-.21-3.43-.29-4.43-.07-1.48-.12-3.21-.14-5.17s0-3.42,0-4.37c0-1.89,0-3.76,0-5.6,0-2.72.07-4.53.14-5.41a11,11,0,0,1,.22-1.28,4.75,4.75,0,0,1,.29-.95,4.44,4.44,0,0,1,2.18-2.2,6.11,6.11,0,0,1,2.41-.63,4.35,4.35,0,0,1,1.33.21c.83.24,1.69,1.2,2.56,2.89a90,90,0,0,1,3.71,9.13q4.27,11.68,6.1,16c.33.79.66,1.55,1,2.28s.52,1.26.64,1.6.31.62.51.95a7.46,7.46,0,0,0,.5.77,2.22,2.22,0,0,0,.45.43.4.4,0,0,0,.19.07.36.36,0,0,0,.22-.07,1.13,1.13,0,0,0,.36-.47A4.37,4.37,0,0,0,729,391c.06-.53.11-1.27.16-2.24s.1-2.26.15-3.86c0-1.79.11-3.63.19-5.52s.16-3.4.24-4.52q.21-3.48.48-7.48t.45-6.55a13.16,13.16,0,0,1,.41-2.95,3.64,3.64,0,0,1,1-1.64,3.93,3.93,0,0,1,2.76-1.14H735a3.94,3.94,0,0,1,2.8,1.43,3.64,3.64,0,0,1,.8,1.58,11.46,11.46,0,0,1,.24,2.69v.5q-.07,2.12-.33,6-.78,11-1,19.84a125.1,125.1,0,0,1-.75,12.66,13.12,13.12,0,0,1-1.76,5.59,5.37,5.37,0,0,1-4.73,2.87h-.15a5.56,5.56,0,0,1-3.6-1.29A16.6,16.6,0,0,1,723,402q-1.93-3.61-4.81-10.35c-.55-1.32-1-2.33-1.33-3.05a12.37,12.37,0,0,0-.79-1.53c-.19-.29-.35-.47-.5-.52a.35.35,0,0,0-.14,0c-.29,0-.5.3-.65.89v.33c0,.5,0,1.42.07,2.76.1,1.79.22,3.84.36,6.13s.3,4.34.47,6.14c.09,1.17.14,2.12.14,2.87,0,.35,0,.67,0,.93a3.56,3.56,0,0,1-.79,1.9,3.9,3.9,0,0,1-1.74,1.31,5.05,5.05,0,0,1-1.49.3A3.83,3.83,0,0,1,710.6,409.92Z" transform="translate(-191.75 -253.58)"/><path class="cls-2" d="M200.64,489.74a9.2,9.2,0,0,1-2.08-.35,3.78,3.78,0,0,1-1.29-.79,4.16,4.16,0,0,1-1-1.19,6.78,6.78,0,0,1-.61-2.15c-.16-1-.31-2.44-.45-4.39s-.31-4.59-.5-7.91q-.43-7.89-.65-12.36t-.29-7.24c0-1.86-.07-3.87-.07-6.05s0-3.82.06-4.95a19.42,19.42,0,0,1,.19-2.49,5.22,5.22,0,0,1,.43-1.38,3.24,3.24,0,0,1,1.74-1.69,17.33,17.33,0,0,1,4.22-.93,54.62,54.62,0,0,1,7.31-.57,25.77,25.77,0,0,1,3.45.21,26.58,26.58,0,0,1,5.22,1.54,20.91,20.91,0,0,1,4.46,2.44,12.41,12.41,0,0,1,4.66,6.85,13.79,13.79,0,0,1,.26,2.91,17.9,17.9,0,0,1-.22,3,19.6,19.6,0,0,1-.63,2.22,21.86,21.86,0,0,1-1,2.37,30,30,0,0,1-4.73,6.63c-.48.55-.89,1.06-1.24,1.51a4.73,4.73,0,0,0-.59.86,1,1,0,0,0-.07.4,1.37,1.37,0,0,0,.21.68,8.72,8.72,0,0,0,1.44,1.47c.4.4.79.8,1.16,1.2a9.28,9.28,0,0,1,.81.95,8.4,8.4,0,0,1,1.15,4.34,12.69,12.69,0,0,1-.11,1.61,14.62,14.62,0,0,1-2.91,6.6q-4.16,5.28-12.84,6.6a17.19,17.19,0,0,1-2.08.18h-1C202.37,489.85,201.55,489.82,200.64,489.74Zm4.13-25.21a25.05,25.05,0,0,0,5.6-4,33,33,0,0,0,5-5.6,15.06,15.06,0,0,0,1.52-2.69,6.71,6.71,0,0,0,.45-2.29c0-.32,0-.59,0-.83a4.06,4.06,0,0,0,0-.54,2.64,2.64,0,0,0-.32-.89,3.67,3.67,0,0,0-.45-.76,3.48,3.48,0,0,0-.63-.64,10.62,10.62,0,0,0-2.21-1.31,18.36,18.36,0,0,0-3-1.1,9.76,9.76,0,0,0-1.29-.3c-.38-.06-.83-.1-1.36-.13s-1.25,0-2.19,0-1.71,0-2.19,0a5,5,0,0,0-1,.09.93.93,0,0,0-.47.25,1.65,1.65,0,0,0-.61.71,4,4,0,0,0-.18,1.4q0,.93.15,2.76c.07,1,.15,2.23.23,3.82s.17,3.14.27,4.65.14,2.75.22,3.87.12,1.82.14,2.08c.12,1.22.56,1.83,1.33,1.83a1.29,1.29,0,0,0,.36-.09C204.36,464.7,204.55,464.63,204.77,464.53Zm2.33,16.53a11.2,11.2,0,0,0,4.45-2.2,4.11,4.11,0,0,0,1.76-3,1.65,1.65,0,0,0-1.3-1.58,7.35,7.35,0,0,0-2.15-.22,24,24,0,0,0-3,.2,8.67,8.67,0,0,0-2.2.49,1.83,1.83,0,0,0-1,1,6.11,6.11,0,0,0-.26,2.1,8.7,8.7,0,0,0,.22,2.28,1.55,1.55,0,0,0,.79,1,1.69,1.69,0,0,0,1,.33A7.72,7.72,0,0,0,207.1,481.06Z" transform="translate(-191.75 -253.58)"/><path class="cls-2" d="M229.66,488a4.45,4.45,0,0,1-1.13-.93,4.73,4.73,0,0,1-.84-1.25,7.7,7.7,0,0,1-.36-2.84,63.89,63.89,0,0,1,.65-7.67q.65-4.56,2.09-10.6T233.36,453q4.37-13.45,9.18-15.68a3.48,3.48,0,0,1,1.06-.39,9.64,9.64,0,0,1,1.41-.07,6.27,6.27,0,0,1,2.12.3,5.34,5.34,0,0,1,1.72,1.13,7.81,7.81,0,0,1,1.92,2.62,20.37,20.37,0,0,1,1.31,4.7c.38,2.08.8,5,1.25,8.75q2.41,19.62,5,26.9a15.23,15.23,0,0,1,.53,1.69,4.22,4.22,0,0,1,.11.82,1,1,0,0,1,0,.32,3.69,3.69,0,0,1-3.76,3.45,4.2,4.2,0,0,1-3-1.19A5.79,5.79,0,0,1,251,485a11.55,11.55,0,0,1-.93-2.14,6,6,0,0,0-1-1.84,1.85,1.85,0,0,0-1.24-.63,3.84,3.84,0,0,0-.61,0c-.46,0-1.09,0-1.9.07l-4.29.27c-1.52.11-2.66.21-3.42.31a3.52,3.52,0,0,0-2.21.82,4.23,4.23,0,0,0-.73,2.44,6.41,6.41,0,0,1-.47,2.1,3.76,3.76,0,0,1-1.08,1.35,2.24,2.24,0,0,1-.75.43,4.65,4.65,0,0,1-1,.14H231a3.87,3.87,0,0,1-.65,0A2.2,2.2,0,0,1,229.66,488Zm12.41-15.42,2.66-.39a10.11,10.11,0,0,0,1.43-.29,1.57,1.57,0,0,0,.83-.9,1.42,1.42,0,0,0,.14-.39,2.11,2.11,0,0,0,0-.33,3,3,0,0,0,0-.39c0-.31-.08-.75-.16-1.31s-.2-1.33-.34-2.31c-.19-1.17-.41-2.65-.65-4.43s-.45-3.44-.64-5a53.83,53.83,0,0,0-.94-5.85.72.72,0,0,0-.64-.46h-.07a1.16,1.16,0,0,0-.83.61,34.19,34.19,0,0,0-2.06,5.68q-1.43,4.61-2.78,10a23.39,23.39,0,0,0-.86,4.74,1.5,1.5,0,0,0,.11.68,1.2,1.2,0,0,0,.28.27,3.43,3.43,0,0,0,.51.3,1.64,1.64,0,0,0,.46.18l1-.14Z" transform="translate(-191.75 -253.58)"/><path class="cls-2" d="M268.11,490a4.65,4.65,0,0,1-2.11-2.26c-.63-1.61-1.29-5.26-2-11s-1.28-12-1.71-18.76q-.18-2.87-.18-4.23v-2c0-1.27,0-2.78.07-4.52q.07-3.3.18-4.83a6,6,0,0,1,.43-2.11,4.11,4.11,0,0,1,1-1.17q2-1.86,7.21-2c.36,0,.7,0,1,0a20.81,20.81,0,0,1,12.59,3.84,13.45,13.45,0,0,1,5.09,8.32,16,16,0,0,1,.22,2.58q0,7.14-6.21,14.6l-1.16,1.38c-.4.47-.7.82-.92,1.06a2.24,2.24,0,0,0-.72,1.4.92.92,0,0,0,.4.75,10.07,10.07,0,0,0,2.94,1.08,18,18,0,0,1,4.88,1.9,4.25,4.25,0,0,1,1.93,2.44,4.35,4.35,0,0,1,.15,1.11,3.81,3.81,0,0,1-.36,1.61,3.87,3.87,0,0,1-2,1.87,3.23,3.23,0,0,1-1.37.25,12.46,12.46,0,0,1-3.44-.65c-1.08-.33-2.31-.66-3.69-1s-2.67-.63-3.84-.88a15,15,0,0,0-2.26-.38q-1.15,0-1.29.54a3.8,3.8,0,0,0-.15,1,17.08,17.08,0,0,0,.33,2.79c.23,1.42.37,2.34.39,2.77s0,.73,0,.89a3.78,3.78,0,0,1-.18,1.26,3.56,3.56,0,0,1-.79,1.33,4.59,4.59,0,0,1-1.33,1,4.35,4.35,0,0,1-1.61.28A4.56,4.56,0,0,1,268.11,490Zm4.81-24.47a6.36,6.36,0,0,0,1.45-1.14c.68-.65,1.4-1.38,2.15-2.19a24.63,24.63,0,0,0,1.85-2.19,21.44,21.44,0,0,0,1.83-3,16,16,0,0,0,1.18-2.84,9.1,9.1,0,0,0,.25-2.18,6.38,6.38,0,0,0-.28-2,6.11,6.11,0,0,0-2.84-3.14,14.23,14.23,0,0,0-5.38-1.81,7.94,7.94,0,0,0-.89-.11h-.32a1.64,1.64,0,0,0-.4,0,2.47,2.47,0,0,0-.54.17.44.44,0,0,1-.1.08,1.29,1.29,0,0,0-.62.43,1.52,1.52,0,0,0-.23.86c0,.38,0,.7,0,1,0,.52,0,1.2,0,2,.07,1.27.18,3,.32,5.24,0,.33,0,.68,0,1,.14,2.17.26,3.9.34,5.18s.17,2.24.27,2.87a6,6,0,0,0,.3,1.31.9.9,0,0,0,.42.47.52.52,0,0,0,.28.14h.36Z" transform="translate(-191.75 -253.58)"/><path class="cls-2" d="M299.13,494.51a10.67,10.67,0,0,0,1.39-2.23,9.58,9.58,0,0,0,.66-2.28,5.05,5.05,0,0,0,.11-1,8.6,8.6,0,0,0-1.08-3.9,10.14,10.14,0,0,1-1.13-4.15,3.61,3.61,0,0,1,.67-2.2,4,4,0,0,1,3.43-1.74,6.53,6.53,0,0,1,.87.05q2.77.4,4.56,3.64a17.88,17.88,0,0,1,1.95,7.78,12.81,12.81,0,0,1-.15,2,15.21,15.21,0,0,1-3.54,7.84,6.4,6.4,0,0,1-4.61,2.41h-.21c-1.63-.07-2.71-.51-3.22-1.31a4,4,0,0,1-.77-2A5.06,5.06,0,0,1,299.13,494.51Z" transform="translate(-191.75 -253.58)"/><path class="cls-2" d="M365.72,488.74a12.76,12.76,0,0,1-8-4.23,16.51,16.51,0,0,1-4.38-11.77v-.21a29.24,29.24,0,0,1,.5-5.4,42.25,42.25,0,0,1,1.76-6.15q4.16-11.91,11.05-19.08,5.42-5.56,9.68-5.56a6.43,6.43,0,0,1,1.9.28,3.8,3.8,0,0,1,2.42,1.83,5,5,0,0,1,.49,1.8,3.46,3.46,0,0,1-.65,1.93,4.1,4.1,0,0,1-2.9,1.58,7.53,7.53,0,0,0-2,.68,8,8,0,0,0-1.73,1.37,45.61,45.61,0,0,0-7.85,11.55q-4.49,9.21-4.49,15a9.1,9.1,0,0,0,2.19,6.43,4.34,4.34,0,0,0,3.3,1.61,2,2,0,0,0,.43,0,6,6,0,0,0,2.16-.53,22.07,22.07,0,0,0,2.94-1.69,16.91,16.91,0,0,1,2.49-1.45,4.39,4.39,0,0,1,1.74-.34,3.67,3.67,0,0,1,3,1.32,3.83,3.83,0,0,1,.93,2.44,4.62,4.62,0,0,1-.82,2.48,15,15,0,0,1-3.21,2.65,27.56,27.56,0,0,1-4.47,2.48,14.27,14.27,0,0,1-5.2,1.07A12.39,12.39,0,0,1,365.72,488.74Z" transform="translate(-191.75 -253.58)"/><path class="cls-2" d="M390.25,438.15a5.36,5.36,0,0,1-2.28-1.9,4.54,4.54,0,0,1-1-2.61,5.3,5.3,0,0,1,.49-2,11.49,11.49,0,0,1,1.1-2.1c.37-.41,1.47-1.48,3.28-3.2s3.71-3.51,5.71-5.33,3.46-3.1,4.38-3.82a8.08,8.08,0,0,1,5.43-2.36,5.54,5.54,0,0,1,3.9,1.51,5.2,5.2,0,0,1,1.48,3.87,7.11,7.11,0,0,1-2.46,5q-.87.82-3.25,2.77t-5.2,4.18c-1.88,1.48-3.54,2.78-5,3.89a25.82,25.82,0,0,1-2.69,1.92,4.48,4.48,0,0,1-1.48.41c-.45,0-.72,0-.82,0A4.6,4.6,0,0,1,390.25,438.15Z" transform="translate(-191.75 -253.58)"/><path class="cls-2" d="M430.83,489.49q-6.56-1.71-8.5-13.27a87.06,87.06,0,0,1-.9-13.23q0-6.83.76-15,.31-3.48.57-5.31a13.21,13.21,0,0,1,.57-2.65,3.8,3.8,0,0,1,.9-1.37,4.74,4.74,0,0,1,1.17-.91,7.21,7.21,0,0,1,1.85-.61c.81-.18,2-.39,3.47-.63,2.49-.38,4.53-.66,6.14-.82a41.19,41.19,0,0,1,4.3-.26h.54a12.26,12.26,0,0,1,2.69.22,3.56,3.56,0,0,1,1.72,1,4,4,0,0,1,1.18,2.76,3.51,3.51,0,0,1-.07.72,4,4,0,0,1-2.36,2.83,6.61,6.61,0,0,1-1.22.33c-.53.09-1.36.18-2.5.25s-2.75.15-4.86.25c-1,.05-2,.1-2.81.18a13,13,0,0,0-1.53.18,2.12,2.12,0,0,0-1.65,1.47,20.67,20.67,0,0,0-.19,2.63q-.09,2.25-.18,5.22c-.06,2-.11,3.71-.13,5.17s0,2.54,0,3.26v.9c0,.57,0,1,.07,1.29a2.07,2.07,0,0,0,.12.64,1.32,1.32,0,0,0,.31.44.83.83,0,0,0,.57.35,3.62,3.62,0,0,0,.47,0,8.72,8.72,0,0,0,1.32-.14c.72-.12,1.76-.35,3.13-.69a39.06,39.06,0,0,1,3.91-.84c.57-.06.93-.09,1.07-.09a3.2,3.2,0,0,1,1.72.4,3.92,3.92,0,0,1,2.05,2.36,4.78,4.78,0,0,1,.14,1.08q0,2.44-2.87,3.84a11.72,11.72,0,0,1-2.2.64c-1.07.24-2.83.58-5.3,1l-1.75.41a6.77,6.77,0,0,0-1,.3,2.45,2.45,0,0,0-.37.4,2,2,0,0,0-.31.5,1.58,1.58,0,0,0-.12.41,1.67,1.67,0,0,0,0,.31v.32a7,7,0,0,0,.18.94q.57,2.94,1.41,3.72a2.51,2.51,0,0,0,1.71.79,3.69,3.69,0,0,0,1.43-.32,12.06,12.06,0,0,0,1.56-.84c.73-.44,1.52-.94,2.35-1.49,1.22-.81,2.18-1.42,2.87-1.83a10,10,0,0,1,1.69-.84,3.76,3.76,0,0,1,1.32-.24l.54,0a2,2,0,0,1,.58.07,3.09,3.09,0,0,1,.93.39,3.37,3.37,0,0,1,2,3.05,2.15,2.15,0,0,1,0,.43A3.8,3.8,0,0,1,448,482.5c-.43.38-1.21,1-2.33,1.74s-2.29,1.55-3.5,2.31-2.13,1.32-2.78,1.65a15.18,15.18,0,0,1-6.31,1.54A10.1,10.1,0,0,1,430.83,489.49Z" transform="translate(-191.75 -253.58)"/><path class="cls-2" d="M455.47,489.31a4.09,4.09,0,0,1-2-1.74,4.24,4.24,0,0,1-.59-2.06,4.29,4.29,0,0,1,.07-.79q.54-2.58,4.19-3.12a17,17,0,0,0,5.64-2,8.9,8.9,0,0,0,3.55-3.21,4.64,4.64,0,0,0,.3-.84,2.15,2.15,0,0,0,.06-.45,2.87,2.87,0,0,0,0-.39,5.52,5.52,0,0,0-2.1-3.2,33.11,33.11,0,0,0-6-3.83c-2.49-1.32-4.37-2.32-5.63-3s-2.21-1.25-2.82-1.66a19.52,19.52,0,0,1-1.7-1.31,9.72,9.72,0,0,1-3.62-7.29,11.18,11.18,0,0,1,1-4.44,16.92,16.92,0,0,1,3-4.25,25.18,25.18,0,0,1,4.36-3.79c1-.64,2.26-1.33,3.69-2a32.62,32.62,0,0,1,3.7-1.62,11.85,11.85,0,0,1,3.58-.64,5,5,0,0,1,3.91,1.61,3.68,3.68,0,0,1,.86,2.3,3,3,0,0,1-.14.93,3.45,3.45,0,0,1-2.33,2.33c-.17.05-.42.1-.75.16s-.66.12-1,.16c-2.2.34-4.77,1.71-7.71,4.13q-3.56,2.87-3.56,4.77a1.88,1.88,0,0,0,.29,1,2.74,2.74,0,0,0,.81,1,15,15,0,0,0,2,1.27c.94.52,2.31,1.27,4.1,2.22a62.39,62.39,0,0,1,8.43,5.06,16.18,16.18,0,0,1,4.27,4.59,10.82,10.82,0,0,1,1.29,2.67,10.52,10.52,0,0,1,.43,2.89v.65c0,.38,0,.73,0,1a8.72,8.72,0,0,1-.18,1.29q-1.65,5.88-9.22,9.79a19,19,0,0,1-7.86,2.26A6.4,6.4,0,0,1,455.47,489.31Z" transform="translate(-191.75 -253.58)"/><path class="cls-2" d="M490.05,490.39a4,4,0,0,1-2.1-2.6,40.35,40.35,0,0,1-1.34-7.16A210.35,210.35,0,0,1,485,454.81v-5.18c0-.8,0-1.41,0-1.83a6.78,6.78,0,0,0-.07-.9,1.06,1.06,0,0,0-.16-.41,1.27,1.27,0,0,0-.94-.67,9.67,9.67,0,0,0-1.18-.09c-.5,0-1.13,0-1.87.08-1.36.12-2.44.18-3.22.18h-.36a4.23,4.23,0,0,1-1.72-.26,3,3,0,0,1-1.8-1.63,5.48,5.48,0,0,1-.32-1.52,3.61,3.61,0,0,1,2.2-3.32,14.26,14.26,0,0,1,3.65-.91,152.4,152.4,0,0,1,20.58-1.76c1.22,0,2.13,0,2.73,0a8.45,8.45,0,0,1,1.29.09,3.79,3.79,0,0,1,.75.21,4,4,0,0,1,2.44,3.59v.14a4.06,4.06,0,0,1-2.72,3.55,4.4,4.4,0,0,1-1,.27c-.39.06-1,.12-1.79.18s-1.91.11-3.32.16-2.27.15-2.94.22a3.52,3.52,0,0,0-1.41.36,1.36,1.36,0,0,0-.6.71,1.69,1.69,0,0,0-.16.52,9.26,9.26,0,0,0-.05,1.1c0,.5,0,1.25,0,2.26s.06,2.34.11,4a228,228,0,0,0,2.33,29.81,19.25,19.25,0,0,1,.33,3,3.74,3.74,0,0,1,0,.54,3.92,3.92,0,0,1-2.56,3.23,6.76,6.76,0,0,1-1.35.21A4.13,4.13,0,0,1,490.05,490.39Z" transform="translate(-191.75 -253.58)"/><path class="cls-2" d="M556,490.57a13.85,13.85,0,0,1-6.71-3.84,17.86,17.86,0,0,1-4.55-7.92,73.27,73.27,0,0,1-2.33-14.53q-.36-4-.36-8.47c0-2.53.08-5.19.25-8,.09-1.6.17-2.85.23-3.75s.13-1.56.2-2a4.65,4.65,0,0,1,.25-1,3.7,3.7,0,0,1,1.63-2.06,3.91,3.91,0,0,1,1.67-.49,3.5,3.5,0,0,1,1.4.32,3.84,3.84,0,0,1,2.19,3.45c0,.31.06,1.34.12,3.08s.12,3.8.16,6.17q.3,17.69,2.37,24.57a11,11,0,0,0,2.22,4.3,4.08,4.08,0,0,0,3,1.69q7,0,7.1-33.43c0-1.86,0-3.58,0-5.15s.06-2.54.11-2.92a4.49,4.49,0,0,1,2-3.51,2.83,2.83,0,0,1,.87-.42,6.26,6.26,0,0,1,1.28-.09,6.71,6.71,0,0,1,1.22.08,2,2,0,0,1,.82.43,4.65,4.65,0,0,1,1.87,3.3c.07.64.1,2.28.1,4.91s0,5.44-.07,8.43-.12,5.34-.21,7.07a88.17,88.17,0,0,1-2.16,16.31q-1.75,7-5,10.05a11,11,0,0,1-7.74,3.55A10.28,10.28,0,0,1,556,490.57Z" transform="translate(-191.75 -253.58)"/><path class="cls-2" d="M585.21,489.92a4.23,4.23,0,0,1-2.44-2.36,6.49,6.49,0,0,1-.47-1.81c-.12-.83-.25-2.14-.39-3.95s-.31-4.36-.5-7.66l-.36-5.86c-.12-1.95-.22-3.43-.29-4.43-.07-1.48-.12-3.21-.14-5.17s0-3.42,0-4.37c0-1.89,0-3.76,0-5.6,0-2.72.07-4.53.14-5.41,0-.44.12-.86.21-1.28a6.6,6.6,0,0,1,.29-.95,4.5,4.5,0,0,1,2.19-2.2,6,6,0,0,1,2.4-.63,4.25,4.25,0,0,1,1.33.21c.84.24,1.69,1.2,2.57,2.89a92.45,92.45,0,0,1,3.71,9.13q4.26,11.7,6.09,16l1,2.28c.31.73.53,1.26.65,1.6s.31.62.5.95.36.58.5.77a2.94,2.94,0,0,0,.45.43.43.43,0,0,0,.2.07.35.35,0,0,0,.21-.07,1,1,0,0,0,.36-.47,3.89,3.89,0,0,0,.24-1.11c.06-.53.11-1.27.16-2.24s.09-2.26.14-3.86c.05-1.79.11-3.63.2-5.52s.16-3.4.23-4.52c.14-2.32.31-4.81.49-7.48s.32-4.85.44-6.55a13.05,13.05,0,0,1,.42-2.95,3.72,3.72,0,0,1,1-1.64,3.94,3.94,0,0,1,2.76-1.14h.18a3.92,3.92,0,0,1,2.8,1.43,3.77,3.77,0,0,1,.81,1.58,12.14,12.14,0,0,1,.23,2.69v.5c-.05,1.41-.15,3.41-.32,6q-.79,11-1,19.84c-.15,5.86-.4,10.07-.75,12.66a13.12,13.12,0,0,1-1.76,5.59,5.4,5.4,0,0,1-4.74,2.87h-.14a5.56,5.56,0,0,1-3.6-1.29,16.41,16.41,0,0,1-3.54-4.89q-1.94-3.61-4.8-10.35c-.55-1.32-1-2.33-1.33-3.05a16,16,0,0,0-.79-1.53,1.3,1.3,0,0,0-.5-.52l-.15,0c-.28,0-.5.3-.64.9v.32c0,.5,0,1.42.07,2.76.1,1.79.22,3.84.36,6.13s.3,4.34.46,6.14c.1,1.17.15,2.12.15,2.87a8.5,8.5,0,0,1,0,.93,3.48,3.48,0,0,1-.79,1.9,3.9,3.9,0,0,1-1.74,1.31,5,5,0,0,1-1.48.3A3.78,3.78,0,0,1,585.21,489.92Z" transform="translate(-191.75 -253.58)"/><path class="cls-2" d="M666.34,488.63q-6.35-.88-8.82-8.14-1.44-4-1.44-12.16c0-.93,0-1.9,0-2.9q.07-3.45.27-7.14c.13-2.46.28-4.43.45-5.88.09-.94.26-2.29.5-4.06s.48-3.45.72-5.05.4-2.62.5-3.05a4.59,4.59,0,0,1,3.15-3.7,3.58,3.58,0,0,1,.83-.11,3.19,3.19,0,0,1,1.4.33,3.3,3.3,0,0,1,1.65,1.58,2.38,2.38,0,0,1,.25.61,2.68,2.68,0,0,1,.07.68c0,.26,0,.62,0,1.07q-.07,1.41-.4,5.74t-.68,9.36c-.22,2.42-.32,6.16-.32,11.23,0,2.32,0,4,0,5.13s0,1.91.11,2.44.14,1,.23,1.47c.46,1.91,1.07,3.17,1.83,3.77a1.91,1.91,0,0,0,1,.41l.58,0A5.3,5.3,0,0,0,670,480c.34-.12.89-.35,1.67-.68s1.59-.71,2.42-1.12q3.41-1.6,4.88-2.18a7.76,7.76,0,0,1,2.37-.61,2.6,2.6,0,0,1,.46,0,3.48,3.48,0,0,1,2.87,1.29,4,4,0,0,1,1,2.55,4.35,4.35,0,0,1-.58,2.08,3.32,3.32,0,0,1-1,1.18,12.68,12.68,0,0,1-2.18,1.19l-2,1-2.49,1.16q-2.55,1.23-3.84,1.74a13.78,13.78,0,0,1-2.51.77,14.24,14.24,0,0,1-3.34.43A11.15,11.15,0,0,1,666.34,488.63Z" transform="translate(-191.75 -253.58)"/><path class="cls-2" d="M692.88,488q-2.22-1-2.65-4.37-.18-1.62-.5-5.78c-.22-2.77-.4-5.31-.54-7.6q-.26-5-.27-8.86c0-2.59,0-4.29,0-5.13q0-5,.11-9.22a45.14,45.14,0,0,1,.47-6.71,4.23,4.23,0,0,1,3.15-3.3,3.46,3.46,0,0,1,.61-.07,3.29,3.29,0,0,1,1.72.5,3.62,3.62,0,0,1,1.55,1.83c0,.22.1,1.1.16,2.66s.12,3.42.19,5.59c0,2,.1,4.19.15,6.67.09,3.07.16,5.72.21,8,.07,3.39.18,6.47.33,9.21s.34,5.64.61,8.65c.12,1.43.17,2.58.17,3.44v.68a4.46,4.46,0,0,1-.42,2.05,4.22,4.22,0,0,1-2,1.86,3.35,3.35,0,0,1-1.29.22h-.22A4.55,4.55,0,0,1,692.88,488Z" transform="translate(-191.75 -253.58)"/><path class="cls-2" d="M715.19,489.49q-6.56-1.71-8.5-13.27A87.15,87.15,0,0,1,705.8,463q0-6.83.75-15c.21-2.32.41-4.09.57-5.31a12.4,12.4,0,0,1,.58-2.65,3.66,3.66,0,0,1,.89-1.37,4.74,4.74,0,0,1,1.17-.91,7.21,7.21,0,0,1,1.85-.61q1.21-.27,3.48-.63c2.48-.38,4.53-.66,6.13-.82a41.34,41.34,0,0,1,4.3-.26h.54a12.26,12.26,0,0,1,2.69.22,3.56,3.56,0,0,1,1.72,1,4,4,0,0,1,1.19,2.76,4.39,4.39,0,0,1-.07.72,4.06,4.06,0,0,1-2.37,2.83,6.61,6.61,0,0,1-1.22.33c-.53.09-1.36.18-2.49.25s-2.76.15-4.86.25c-1.06.05-2,.1-2.82.18a12.73,12.73,0,0,0-1.52.18,2.12,2.12,0,0,0-1.65,1.47,18,18,0,0,0-.2,2.63q-.09,2.25-.18,5.22c-.06,2-.1,3.71-.13,5.17s0,2.54,0,3.26v.9c0,.57,0,1,.07,1.29a1.77,1.77,0,0,0,.13.64,1.28,1.28,0,0,0,.3.44.85.85,0,0,0,.57.35,3.62,3.62,0,0,0,.47,0,8.71,8.71,0,0,0,1.33-.14c.71-.12,1.76-.35,3.12-.69a39.06,39.06,0,0,1,3.91-.84c.57-.06.93-.09,1.07-.09a3.26,3.26,0,0,1,1.73.4,3.9,3.9,0,0,1,2,2.36,4.27,4.27,0,0,1,.14,1.08c0,1.63-1,2.91-2.87,3.84a11.49,11.49,0,0,1-2.2.64q-1.6.36-5.29,1c-.65.14-1.23.28-1.76.41a6.14,6.14,0,0,0-1,.3,2.1,2.1,0,0,0-.38.4,2.72,2.72,0,0,0-.31.5,1.58,1.58,0,0,0-.12.41c0,.11,0,.21,0,.31v.32a7,7,0,0,0,.18.94c.38,2,.85,3.2,1.42,3.72a2.49,2.49,0,0,0,1.7.79,3.77,3.77,0,0,0,1.44-.32,11.49,11.49,0,0,0,1.55-.84c.73-.44,1.52-.94,2.35-1.49,1.22-.81,2.18-1.42,2.87-1.83a10.35,10.35,0,0,1,1.69-.84,3.77,3.77,0,0,1,1.33-.24l.54,0a2,2,0,0,1,.57.07,3.09,3.09,0,0,1,.93.39,3.4,3.4,0,0,1,2,3.05,3.22,3.22,0,0,1,0,.43,3.82,3.82,0,0,1-1.32,2.91c-.44.38-1.21,1-2.34,1.74s-2.29,1.55-3.49,2.31-2.14,1.32-2.78,1.65a15.25,15.25,0,0,1-6.32,1.54A10.1,10.1,0,0,1,715.19,489.49Z" transform="translate(-191.75 -253.58)"/><path class="cls-2" d="M750,490.57a13.8,13.8,0,0,1-6.71-3.84,17.87,17.87,0,0,1-4.56-7.92,74.78,74.78,0,0,1-2.33-14.53q-.36-4-.36-8.47c0-2.53.09-5.19.25-8q.15-2.4.24-3.75c.06-.89.12-1.56.19-2a5.22,5.22,0,0,1,.26-1,3.7,3.7,0,0,1,1.63-2.06,3.87,3.87,0,0,1,1.67-.49,3.5,3.5,0,0,1,1.4.32,3.82,3.82,0,0,1,2.18,3.45c0,.31.07,1.34.13,3.08s.11,3.8.16,6.17q.29,17.69,2.37,24.57a11,11,0,0,0,2.22,4.3,4,4,0,0,0,2.94,1.69q7,0,7.1-33.43c0-1.86,0-3.58,0-5.15s.06-2.54.11-2.92a4.48,4.48,0,0,1,2-3.51,2.87,2.87,0,0,1,.88-.42,6.14,6.14,0,0,1,1.27-.09,6.63,6.63,0,0,1,1.22.08,2,2,0,0,1,.83.43,4.67,4.67,0,0,1,1.86,3.3c.07.64.11,2.28.11,4.91s0,5.44-.07,8.43-.12,5.34-.22,7.07a89.2,89.2,0,0,1-2.15,16.31q-1.75,7-5,10.05a11,11,0,0,1-7.75,3.55A10.09,10.09,0,0,1,750,490.57Z" transform="translate(-191.75 -253.58)"/><path class="cls-2" d="M199,567.63a4.7,4.7,0,0,1-2.12-2.73c-.12-.45-.34-1.74-.68-3.87s-.67-4.49-1-7.09-.63-4.82-.84-6.69q-.65-5.62-.85-9.2t-.19-9.38v-3.8c0-1,0-1.75,0-2.33a12.64,12.64,0,0,1,.07-1.31,3.54,3.54,0,0,1,.12-.68c.05-.15.11-.32.18-.48a4,4,0,0,1,1.74-2,9.08,9.08,0,0,1,3.5-.79c.76-.07,1.54-.11,2.33-.11a35.68,35.68,0,0,1,9.65,1.47,26,26,0,0,1,9,4.22,17.85,17.85,0,0,1,5.33,6.94,24.59,24.59,0,0,1,1,19,29.55,29.55,0,0,1-5.82,9.6,29.21,29.21,0,0,1-8.88,6.83,20.18,20.18,0,0,1-2.71,1.13,18.42,18.42,0,0,1-3,.66c-.57.1-1.15.21-1.72.34s-1,.25-1.33.34a7.2,7.2,0,0,1-2,.33A4.2,4.2,0,0,1,199,567.63Zm8.47-9.26a24.21,24.21,0,0,0,5.77-4.55,19.58,19.58,0,0,0,5.67-9.29,18.41,18.41,0,0,0,.45-4,14.59,14.59,0,0,0-.42-3.87q-1.6-6.35-5.95-8.47a26.47,26.47,0,0,0-5.47-1.93,20.57,20.57,0,0,0-4.25-.69,3.81,3.81,0,0,0-1,.11c-.81.19-1.22.89-1.22,2.08a5.27,5.27,0,0,0,0,.68c0,.43.07,1.27.16,2.5s.17,2.59.27,4.07q.28,4.49.68,8.34t1,8.34c.19,1.43.34,2.57.46,3.42s.22,1.5.31,1.94a3.54,3.54,0,0,0,.29,1,2.22,2.22,0,0,0,.37.52,1.36,1.36,0,0,0,1,.46h.07A4.38,4.38,0,0,0,207.5,558.37Z" transform="translate(-191.75 -253.58)"/><path class="cls-2" d="M242.61,569.49q-6.57-1.71-8.5-13.27a87.06,87.06,0,0,1-.9-13.23q0-6.82.76-15,.32-3.48.57-5.31a13.21,13.21,0,0,1,.57-2.65,3.8,3.8,0,0,1,.9-1.37,4.74,4.74,0,0,1,1.17-.91,7.12,7.12,0,0,1,1.84-.61q1.23-.27,3.48-.63c2.49-.38,4.53-.66,6.14-.82a41.19,41.19,0,0,1,4.3-.26h.54a12.32,12.32,0,0,1,2.69.22,3.61,3.61,0,0,1,1.72,1,4,4,0,0,1,1.18,2.76,3.51,3.51,0,0,1-.07.72,4,4,0,0,1-2.37,2.83,5.69,5.69,0,0,1-1.21.32,24.56,24.56,0,0,1-2.5.26c-1.13.07-2.75.15-4.86.25-1.05.05-2,.1-2.81.18a13,13,0,0,0-1.53.18,2.12,2.12,0,0,0-1.65,1.47,19.76,19.76,0,0,0-.2,2.63c-.06,1.5-.12,3.24-.17,5.22s-.11,3.71-.13,5.17,0,2.54,0,3.26v.9c0,.57.05,1,.08,1.29a2.07,2.07,0,0,0,.12.64,1.2,1.2,0,0,0,.31.43.79.79,0,0,0,.57.36,3.62,3.62,0,0,0,.47,0,8.72,8.72,0,0,0,1.32-.14q1.08-.18,3.12-.69c2-.5,3.34-.78,3.91-.84s.94-.09,1.08-.09a3.2,3.2,0,0,1,1.72.4,4,4,0,0,1,2,2.36,4.78,4.78,0,0,1,.14,1.08c0,1.63-1,2.9-2.87,3.84a12.46,12.46,0,0,1-2.21.64q-1.59.36-5.29,1l-1.75.41a6.39,6.39,0,0,0-1,.3,2.45,2.45,0,0,0-.37.4,2,2,0,0,0-.31.5,2.28,2.28,0,0,0-.13.41c0,.11,0,.21,0,.31v.32a6.6,6.6,0,0,0,.18.93c.38,2,.85,3.21,1.41,3.73a2.49,2.49,0,0,0,1.71.79,3.73,3.73,0,0,0,1.43-.32,12.06,12.06,0,0,0,1.56-.84c.73-.44,1.51-.94,2.35-1.49,1.22-.81,2.18-1.42,2.87-1.83a10,10,0,0,1,1.69-.84,3.76,3.76,0,0,1,1.32-.24l.54,0a1.93,1.93,0,0,1,.57.07,3,3,0,0,1,.94.39,3.37,3.37,0,0,1,2,3,2.15,2.15,0,0,1,0,.43,3.83,3.83,0,0,1-1.33,2.91c-.43.38-1.21,1-2.33,1.74s-2.29,1.55-3.5,2.31-2.13,1.32-2.78,1.65a15.21,15.21,0,0,1-6.31,1.54A10,10,0,0,1,242.61,569.49Z" transform="translate(-191.75 -253.58)"/><path class="cls-2" d="M306.74,567.63a4.65,4.65,0,0,1-2.11-2.73q-.18-.67-.69-3.87t-1-7.09c-.34-2.59-.63-4.82-.84-6.69q-.65-5.62-.84-9.2c-.14-2.37-.2-5.5-.2-9.38v-3.8c0-1,0-1.75,0-2.33a12.64,12.64,0,0,1,.07-1.31,6.39,6.39,0,0,1,.12-.68c.05-.15.11-.32.18-.48a4,4,0,0,1,1.74-2,9.13,9.13,0,0,1,3.5-.79c.77-.07,1.54-.11,2.33-.11a35.63,35.63,0,0,1,9.65,1.47,26,26,0,0,1,9,4.22,17.82,17.82,0,0,1,5.32,6.94,24.66,24.66,0,0,1,1,19,29.58,29.58,0,0,1-5.83,9.6,29.21,29.21,0,0,1-8.88,6.83,20.18,20.18,0,0,1-2.71,1.13,18.18,18.18,0,0,1-3,.66c-.57.1-1.14.21-1.72.34s-1,.25-1.33.34a7.2,7.2,0,0,1-2,.33A4.2,4.2,0,0,1,306.74,567.63Zm8.47-9.26a24.21,24.21,0,0,0,5.77-4.55,19.58,19.58,0,0,0,5.67-9.29,17.82,17.82,0,0,0,.45-4,14.59,14.59,0,0,0-.42-3.87q-1.6-6.35-5.95-8.47a26.27,26.27,0,0,0-5.47-1.93,20.47,20.47,0,0,0-4.25-.69,3.81,3.81,0,0,0-1,.11c-.81.19-1.22.89-1.22,2.08a5.27,5.27,0,0,0,0,.68c0,.43.08,1.27.16,2.5s.17,2.59.27,4.07q.29,4.49.68,8.34c.26,2.57.59,5.35,1,8.34.19,1.43.35,2.57.47,3.42s.22,1.5.3,1.94a3.54,3.54,0,0,0,.29,1,2.22,2.22,0,0,0,.37.52,1.38,1.38,0,0,0,1,.46h.08A4.34,4.34,0,0,0,315.21,558.37Z" transform="translate(-191.75 -253.58)"/><path class="cls-2" d="M350.32,569.49q-6.56-1.71-8.5-13.27a87.06,87.06,0,0,1-.9-13.23q0-6.82.76-15,.31-3.48.57-5.31a12.4,12.4,0,0,1,.58-2.65,3.66,3.66,0,0,1,.89-1.37,4.74,4.74,0,0,1,1.17-.91,7.21,7.21,0,0,1,1.85-.61c.81-.18,2-.39,3.47-.63,2.49-.38,4.54-.66,6.14-.82a41.19,41.19,0,0,1,4.3-.26h.54a12.26,12.26,0,0,1,2.69.22,3.56,3.56,0,0,1,1.72,1,4,4,0,0,1,1.19,2.76,3.53,3.53,0,0,1-.08.72,4,4,0,0,1-2.36,2.83,6,6,0,0,1-1.22.32,24.56,24.56,0,0,1-2.5.26c-1.13.07-2.75.15-4.86.25-1,.05-2,.1-2.81.18a13.36,13.36,0,0,0-1.53.18,2.12,2.12,0,0,0-1.64,1.47,18,18,0,0,0-.2,2.63q-.09,2.25-.18,5.22c-.06,2-.1,3.71-.13,5.17s0,2.54,0,3.26v.9c0,.57,0,1,.07,1.29a2.07,2.07,0,0,0,.12.64,1.33,1.33,0,0,0,.31.43.83.83,0,0,0,.57.36,3.62,3.62,0,0,0,.47,0,8.83,8.83,0,0,0,1.33-.14q1.06-.18,3.12-.69a39.06,39.06,0,0,1,3.91-.84c.57-.06.93-.09,1.07-.09a3.2,3.2,0,0,1,1.72.4,3.89,3.89,0,0,1,2.05,2.36,4.78,4.78,0,0,1,.14,1.08c0,1.63-1,2.9-2.87,3.84a12.28,12.28,0,0,1-2.2.64q-1.6.36-5.29,1c-.65.14-1.24.28-1.76.41a6.77,6.77,0,0,0-1,.3,2.45,2.45,0,0,0-.37.4,2.27,2.27,0,0,0-.31.5,1.58,1.58,0,0,0-.12.41,1.67,1.67,0,0,0,0,.31v.32a6.6,6.6,0,0,0,.18.93c.38,2,.85,3.21,1.42,3.73a2.49,2.49,0,0,0,1.7.79,3.69,3.69,0,0,0,1.43-.32,12.06,12.06,0,0,0,1.56-.84c.73-.44,1.52-.94,2.35-1.49,1.22-.81,2.18-1.42,2.87-1.83a10.35,10.35,0,0,1,1.69-.84,3.77,3.77,0,0,1,1.33-.24l.53,0a2,2,0,0,1,.58.07,3.09,3.09,0,0,1,.93.39,3.37,3.37,0,0,1,2,3,2.15,2.15,0,0,1,0,.43,3.8,3.8,0,0,1-1.33,2.91,27.46,27.46,0,0,1-2.33,1.74c-1.12.78-2.29,1.55-3.5,2.31s-2.13,1.32-2.77,1.65a15.25,15.25,0,0,1-6.32,1.54A10.1,10.1,0,0,1,350.32,569.49Z" transform="translate(-191.75 -253.58)"/><path class="cls-2" d="M383.64,568.74a12.78,12.78,0,0,1-8-4.23,16.51,16.51,0,0,1-4.38-11.77v-.21a28.41,28.41,0,0,1,.51-5.4,42.08,42.08,0,0,1,1.75-6.15q4.17-11.91,11.05-19.08,5.42-5.56,9.69-5.56a6.48,6.48,0,0,1,1.9.28,3.8,3.8,0,0,1,2.42,1.83,5.12,5.12,0,0,1,.48,1.8,3.45,3.45,0,0,1-.64,1.93,4.11,4.11,0,0,1-2.91,1.58,7.53,7.53,0,0,0-2,.68,7.65,7.65,0,0,0-1.72,1.37A45.36,45.36,0,0,0,384,537.36q-4.49,9.21-4.48,15a9.06,9.06,0,0,0,2.19,6.42,4.29,4.29,0,0,0,3.3,1.62,2.15,2.15,0,0,0,.43,0,5.76,5.76,0,0,0,2.15-.54,20.76,20.76,0,0,0,2.94-1.68,17.45,17.45,0,0,1,2.49-1.45,4.39,4.39,0,0,1,1.74-.34,3.69,3.69,0,0,1,3,1.32,3.83,3.83,0,0,1,.93,2.44,4.64,4.64,0,0,1-.83,2.48,15,15,0,0,1-3.21,2.65,27.08,27.08,0,0,1-4.46,2.48,14.31,14.31,0,0,1-5.2,1.07A12.57,12.57,0,0,1,383.64,568.74Z" transform="translate(-191.75 -253.58)"/><path class="cls-2" d="M414.31,570.17a15,15,0,0,1-7.8-5.38,27.08,27.08,0,0,1-5-10.5,49.6,49.6,0,0,1-1.19-10.84,55.93,55.93,0,0,1,1.94-14.34,37,37,0,0,1,2.76-7,12.1,12.1,0,0,1,2.35-3.41,5.94,5.94,0,0,1,2.82-1.44,17.46,17.46,0,0,1,3.15-.25c.43,0,.88,0,1.33,0a29.8,29.8,0,0,1,5.13.61q12.87,3,14.27,22.24c.05.81.08,1.62.08,2.43a41.37,41.37,0,0,1-1.55,11.27A31.6,31.6,0,0,1,427,564.9a14.72,14.72,0,0,1-6.45,4.88,7.92,7.92,0,0,1-1.51.43,14.23,14.23,0,0,1-1.83.14h-.82A9.62,9.62,0,0,1,414.31,570.17Zm4.34-8.68c1.44-.83,2.85-2.63,4.23-5.38A25.35,25.35,0,0,0,425.7,547c.15-2.5.23-4.08.23-4.75a30.77,30.77,0,0,0-1.65-10.12,10.15,10.15,0,0,0-3.51-5.23,10.37,10.37,0,0,0-6-1.58h-.18a5.82,5.82,0,0,0-2.1.27,2,2,0,0,0-1,1,25.18,25.18,0,0,0-1.49,5,69,69,0,0,0-1.17,7.12c-.16,1.75-.25,3.41-.25,5q0,8.21,3,13.77c1.72,3,3.48,4.45,5.27,4.45A3.67,3.67,0,0,0,418.65,561.49Z" transform="translate(-191.75 -253.58)"/><path class="cls-2" d="M454.23,570.57a13.78,13.78,0,0,1-6.7-3.84A17.85,17.85,0,0,1,443,558.8a73,73,0,0,1-2.33-14.52q-.36-4-.36-8.47c0-2.53.08-5.19.25-8,.1-1.6.17-2.85.23-3.75s.13-1.56.2-2a5.33,5.33,0,0,1,.25-1,3.77,3.77,0,0,1,1.63-2.07,4,4,0,0,1,1.67-.48,3.47,3.47,0,0,1,1.4.32,3.84,3.84,0,0,1,2.19,3.45c0,.31.06,1.34.12,3.08s.12,3.8.17,6.17q.28,17.68,2.36,24.57a11,11,0,0,0,2.23,4.3,4,4,0,0,0,2.94,1.69q7,0,7.1-33.43c0-1.86,0-3.58,0-5.15s.06-2.54.1-2.92a4.51,4.51,0,0,1,2-3.51,2.83,2.83,0,0,1,.87-.42,6.32,6.32,0,0,1,1.28-.09,6.71,6.71,0,0,1,1.22.08,2,2,0,0,1,.82.43,4.65,4.65,0,0,1,1.87,3.3c.07.64.11,2.28.11,4.91s0,5.44-.08,8.43-.12,5.34-.21,7.06a89.2,89.2,0,0,1-2.15,16.32q-1.77,7-5,10.05a11,11,0,0,1-7.74,3.55A10.28,10.28,0,0,1,454.23,570.57Z" transform="translate(-191.75 -253.58)"/><path class="cls-2" d="M493.94,569.71q-3.58-1.34-7-7.12a65.54,65.54,0,0,1-6.06-15.19,95.74,95.74,0,0,1-3-14.46c-.1-.79-.21-1.66-.35-2.63s-.24-1.81-.34-2.53a.18.18,0,0,0,0-.11,21.45,21.45,0,0,1-.29-3.16,4.9,4.9,0,0,1,.43-2.36,3.39,3.39,0,0,1,3.12-2q2.37,0,3.45,2.73.14.44.66,2.85c.35,1.62.73,3.51,1.16,5.69.84,4.16,1.5,7.3,2,9.43s1,4,1.48,5.78a71.58,71.58,0,0,0,3,8.19,16.52,16.52,0,0,0,2.79,4.79,2.7,2.7,0,0,0,.61.47l.22,0a1,1,0,0,0,.47-.14,1.72,1.72,0,0,0,.68-.63,7.28,7.28,0,0,0,.57-1.45,25.39,25.39,0,0,0,.79-4c.26-1.89.59-4.84,1-8.86q.29-2.79.59-5.76c.2-2,.37-3.59.48-4.86a1.39,1.39,0,0,0,0-.35c.12-1.2.25-2.59.4-4.17s.26-3,.35-4.26.23-2.31.33-3.27.16-1.54.21-1.76a4.18,4.18,0,0,1,3.12-3.15,4.81,4.81,0,0,1,.83-.07,3.73,3.73,0,0,1,3.26,1.83,3.66,3.66,0,0,1,.65,1.66c0,.54.07.94.07,1.21q0,1.29-.18,3.51c-.07,1-.18,2.33-.32,3.82s-.36,3.71-.65,6.65-.7,7.12-1.25,12.52c-.17,1.65-.34,3.23-.52,4.74s-.32,2.58-.42,3.22q-1.79,10.08-7.31,12.88a5.13,5.13,0,0,1-1.17.45,6.92,6.92,0,0,1-1.49.13h-.5c-.34,0-.62,0-.86,0A4.53,4.53,0,0,1,493.94,569.71Z" transform="translate(-191.75 -253.58)"/><path class="cls-2" d="M525.07,569.49q-6.55-1.71-8.5-13.27a87.06,87.06,0,0,1-.9-13.23q0-6.82.76-15,.32-3.48.57-5.31a12.4,12.4,0,0,1,.58-2.65,3.66,3.66,0,0,1,.89-1.37,4.74,4.74,0,0,1,1.17-.91,7.21,7.21,0,0,1,1.85-.61c.81-.18,2-.39,3.47-.63,2.49-.38,4.54-.66,6.14-.82a41.19,41.19,0,0,1,4.3-.26h.54a12.26,12.26,0,0,1,2.69.22,3.56,3.56,0,0,1,1.72,1,4,4,0,0,1,1.19,2.76,3.53,3.53,0,0,1-.08.72A4,4,0,0,1,539.1,523a6,6,0,0,1-1.22.32,24.56,24.56,0,0,1-2.5.26c-1.13.07-2.75.15-4.86.25-1,.05-2,.1-2.81.18a13.36,13.36,0,0,0-1.53.18,2.12,2.12,0,0,0-1.65,1.47,20.67,20.67,0,0,0-.19,2.63q-.09,2.25-.18,5.22c-.06,2-.11,3.71-.13,5.17s0,2.54,0,3.26v.9c0,.57,0,1,.07,1.29a2.07,2.07,0,0,0,.12.64,1.2,1.2,0,0,0,.31.43.83.83,0,0,0,.57.36,3.62,3.62,0,0,0,.47,0,9,9,0,0,0,1.33-.14q1.07-.18,3.12-.69a39.06,39.06,0,0,1,3.91-.84c.57-.06.93-.09,1.07-.09a3.2,3.2,0,0,1,1.72.4,3.89,3.89,0,0,1,2,2.36,4.78,4.78,0,0,1,.14,1.08c0,1.63-1,2.9-2.87,3.84a12.56,12.56,0,0,1-2.2.64c-1.07.24-2.83.58-5.3,1l-1.75.41a6.77,6.77,0,0,0-1,.3,2.45,2.45,0,0,0-.37.4,2.27,2.27,0,0,0-.31.5,1.58,1.58,0,0,0-.12.41,1.67,1.67,0,0,0,0,.31v.32a6.6,6.6,0,0,0,.18.93c.38,2,.85,3.21,1.41,3.73a2.51,2.51,0,0,0,1.71.79,3.69,3.69,0,0,0,1.43-.32,12.06,12.06,0,0,0,1.56-.84c.73-.44,1.52-.94,2.35-1.49,1.22-.81,2.18-1.42,2.87-1.83a10,10,0,0,1,1.69-.84,3.77,3.77,0,0,1,1.33-.24l.53,0a2,2,0,0,1,.58.07,3.09,3.09,0,0,1,.93.39,3.37,3.37,0,0,1,2,3,2.15,2.15,0,0,1,0,.43,3.8,3.8,0,0,1-1.33,2.91c-.43.38-1.21,1-2.33,1.74s-2.29,1.55-3.5,2.31-2.13,1.32-2.78,1.65a15.18,15.18,0,0,1-6.31,1.54A10.1,10.1,0,0,1,525.07,569.49Z" transform="translate(-191.75 -253.58)"/><path class="cls-2" d="M552.47,570a4.7,4.7,0,0,1-2.11-2.26c-.62-1.61-1.29-5.26-2-11s-1.28-12-1.71-18.76c-.12-1.91-.17-3.32-.17-4.23v-2c0-1.27,0-2.78.07-4.52q.06-3.3.18-4.83a5.53,5.53,0,0,1,.43-2.11,4.06,4.06,0,0,1,1-1.17q2-1.86,7.21-2c.36,0,.7,0,1,0A20.79,20.79,0,0,1,569,520.93a13.45,13.45,0,0,1,5.09,8.32,15,15,0,0,1,.22,2.58q0,7.14-6.21,14.6L567,547.81c-.4.47-.7.82-.92,1.06a2.22,2.22,0,0,0-.71,1.4,1,1,0,0,0,.39.75,10.21,10.21,0,0,0,2.94,1.08,17.91,17.91,0,0,1,4.88,1.9,4.31,4.31,0,0,1,1.94,2.44,4.82,4.82,0,0,1,.14,1.11,3.81,3.81,0,0,1-.36,1.61,3.87,3.87,0,0,1-2,1.87,3.18,3.18,0,0,1-1.36.25,12.45,12.45,0,0,1-3.45-.65c-1.07-.33-2.31-.67-3.69-1s-2.67-.63-3.84-.88a15,15,0,0,0-2.26-.38c-.76,0-1.2.18-1.29.54a3.77,3.77,0,0,0-.14,1,16.83,16.83,0,0,0,.32,2.79c.24,1.41.37,2.34.39,2.77s0,.73,0,.89a3.78,3.78,0,0,1-.18,1.26A3.43,3.43,0,0,1,557,569a4.59,4.59,0,0,1-1.33,1,4.32,4.32,0,0,1-1.61.28A4.6,4.6,0,0,1,552.47,570Zm4.81-24.47a6.36,6.36,0,0,0,1.45-1.14c.69-.65,1.4-1.38,2.16-2.19a27.85,27.85,0,0,0,1.84-2.19,22,22,0,0,0,1.83-3,16.21,16.21,0,0,0,1.19-2.84A9.64,9.64,0,0,0,566,532a6.36,6.36,0,0,0-.29-2,6.09,6.09,0,0,0-2.83-3.14A14.35,14.35,0,0,0,557.5,525a8.29,8.29,0,0,0-.9-.11h-.32a1.64,1.64,0,0,0-.4,0,2.47,2.47,0,0,0-.54.17.44.44,0,0,1-.1.08,1.21,1.21,0,0,0-.61.43,1.52,1.52,0,0,0-.24.86c0,.38,0,.7,0,1q0,.78,0,2c.07,1.27.18,3,.32,5.24,0,.33,0,.68,0,1,.14,2.17.26,3.9.34,5.18s.17,2.24.27,2.87a5.82,5.82,0,0,0,.31,1.31.84.84,0,0,0,.41.47.55.55,0,0,0,.28.14h.36Z" transform="translate(-191.75 -253.58)"/><path class="cls-2" d="M592.54,570.39a4,4,0,0,1-2.1-2.6,41.31,41.31,0,0,1-1.34-7.16,210.35,210.35,0,0,1-1.65-25.82v-5.18c0-.8,0-1.42,0-1.83a6.78,6.78,0,0,0-.07-.9,1.06,1.06,0,0,0-.16-.41,1.27,1.27,0,0,0-.94-.67,8,8,0,0,0-1.18-.09c-.5,0-1.12,0-1.87.08-1.36.12-2.43.18-3.22.18h-.36a4.23,4.23,0,0,1-1.72-.26,3,3,0,0,1-1.8-1.63,5.48,5.48,0,0,1-.32-1.52,3.66,3.66,0,0,1,.47-1.76,3.52,3.52,0,0,1,1.74-1.56,13.65,13.65,0,0,1,3.64-.91,152.4,152.4,0,0,1,20.58-1.76c1.22,0,2.13,0,2.73,0a8.45,8.45,0,0,1,1.29.09,3.88,3.88,0,0,1,.76.21,4,4,0,0,1,2.43,3.59v.14a4.06,4.06,0,0,1-2.72,3.55,4.44,4.44,0,0,1-1,.27q-.6.09-1.8.18c-.8.06-1.9.11-3.32.16s-2.27.15-2.94.22a3.52,3.52,0,0,0-1.41.36,1.36,1.36,0,0,0-.6.71,1.69,1.69,0,0,0-.16.52,9.26,9.26,0,0,0-.05,1.1c0,.5,0,1.25,0,2.26s0,2.34.1,4a228,228,0,0,0,2.33,29.81,19.25,19.25,0,0,1,.33,3,2.7,2.7,0,0,1,0,.54,3.92,3.92,0,0,1-2.56,3.23,6.76,6.76,0,0,1-1.35.21A4.13,4.13,0,0,1,592.54,570.39Z" transform="translate(-191.75 -253.58)"/><path class="cls-2" d="M621.16,569.49q-6.55-1.71-8.5-13.27a87.06,87.06,0,0,1-.9-13.23q0-6.82.76-15,.32-3.48.57-5.31a12.4,12.4,0,0,1,.58-2.65,3.66,3.66,0,0,1,.89-1.37,4.74,4.74,0,0,1,1.17-.91,7.21,7.21,0,0,1,1.85-.61c.81-.18,2-.39,3.47-.63,2.49-.38,4.54-.66,6.14-.82a41.19,41.19,0,0,1,4.3-.26H632a12.26,12.26,0,0,1,2.69.22,3.56,3.56,0,0,1,1.72,1,4,4,0,0,1,1.19,2.76,3.53,3.53,0,0,1-.08.72,4,4,0,0,1-2.36,2.83,6,6,0,0,1-1.22.32,24.56,24.56,0,0,1-2.5.26c-1.13.07-2.75.15-4.86.25-1.05.05-2,.1-2.81.18a13.36,13.36,0,0,0-1.53.18,2.15,2.15,0,0,0-1.65,1.47,20.67,20.67,0,0,0-.19,2.63q-.09,2.25-.18,5.22c-.06,2-.1,3.71-.13,5.17s0,2.54,0,3.26v.9c0,.57,0,1,.07,1.29a2.07,2.07,0,0,0,.12.64,1.33,1.33,0,0,0,.31.43.83.83,0,0,0,.57.36,3.62,3.62,0,0,0,.47,0,8.83,8.83,0,0,0,1.33-.14q1.06-.18,3.12-.69a39.06,39.06,0,0,1,3.91-.84c.57-.06.93-.09,1.07-.09a3.2,3.2,0,0,1,1.72.4,3.89,3.89,0,0,1,2.05,2.36,4.78,4.78,0,0,1,.14,1.08c0,1.63-1,2.9-2.87,3.84a12.28,12.28,0,0,1-2.2.64q-1.6.36-5.29,1c-.65.14-1.24.28-1.76.41a6.77,6.77,0,0,0-1,.3,2.45,2.45,0,0,0-.37.4,2.27,2.27,0,0,0-.31.5,1.58,1.58,0,0,0-.12.41,1.67,1.67,0,0,0,0,.31v.32a6.6,6.6,0,0,0,.18.93c.38,2,.85,3.21,1.42,3.73a2.49,2.49,0,0,0,1.7.79,3.69,3.69,0,0,0,1.43-.32,12.06,12.06,0,0,0,1.56-.84c.73-.44,1.52-.94,2.35-1.49,1.22-.81,2.18-1.42,2.87-1.83a10.35,10.35,0,0,1,1.69-.84,3.77,3.77,0,0,1,1.33-.24l.53,0a2,2,0,0,1,.58.07,3.09,3.09,0,0,1,.93.39,3.37,3.37,0,0,1,2,3,2.15,2.15,0,0,1,0,.43,3.8,3.8,0,0,1-1.33,2.91,27.46,27.46,0,0,1-2.33,1.74c-1.12.78-2.29,1.55-3.5,2.31s-2.13,1.32-2.77,1.65a15.25,15.25,0,0,1-6.32,1.54A10.1,10.1,0,0,1,621.16,569.49Z" transform="translate(-191.75 -253.58)"/><path class="cls-2" d="M646.52,574.51a11,11,0,0,0,1.38-2.23,9.59,9.59,0,0,0,.67-2.28,5.87,5.87,0,0,0,.1-1,8.6,8.6,0,0,0-1.08-3.9,10.14,10.14,0,0,1-1.13-4.15,3.68,3.68,0,0,1,.67-2.2,4,4,0,0,1,3.43-1.74,6.78,6.78,0,0,1,.88,0q2.76.4,4.56,3.63a18.07,18.07,0,0,1,1.94,7.79,12.81,12.81,0,0,1-.15,1.95,15.13,15.13,0,0,1-3.54,7.84,6.4,6.4,0,0,1-4.61,2.41h-.2c-1.64-.07-2.72-.51-3.23-1.31a4,4,0,0,1-.77-2A5,5,0,0,1,646.52,574.51Z" transform="translate(-191.75 -253.58)"/><path class="cls-2" d="M708.05,567.63a4.66,4.66,0,0,1-2.12-2.73c-.12-.45-.35-1.74-.68-3.87s-.68-4.49-1-7.09-.63-4.82-.85-6.69q-.64-5.62-.84-9.2t-.2-9.38v-3.8c0-1,0-1.75,0-2.33s0-1,.07-1.31a4.34,4.34,0,0,1,.13-.68c.05-.15.11-.32.18-.48a3.87,3.87,0,0,1,1.74-2,9.07,9.07,0,0,1,3.49-.79c.77-.07,1.55-.11,2.34-.11a35.56,35.56,0,0,1,9.64,1.47,26,26,0,0,1,9,4.22,17.94,17.94,0,0,1,5.33,6.94,25.48,25.48,0,0,1,2.44,10.69,25.15,25.15,0,0,1-1.44,8.28,29.58,29.58,0,0,1-5.83,9.6,29.21,29.21,0,0,1-8.88,6.83,20.09,20.09,0,0,1-2.7,1.13,18.42,18.42,0,0,1-3,.66c-.58.1-1.15.21-1.73.34s-1,.25-1.32.34a7.27,7.27,0,0,1-2.05.33A4.15,4.15,0,0,1,708.05,567.63Zm8.46-9.26a24.42,24.42,0,0,0,5.78-4.55,19.48,19.48,0,0,0,5.66-9.29,17.26,17.26,0,0,0,.45-4,14.62,14.62,0,0,0-.41-3.87q-1.62-6.35-6-8.47a26.27,26.27,0,0,0-5.47-1.93,20.47,20.47,0,0,0-4.25-.69,3.73,3.73,0,0,0-1,.11c-.82.19-1.22.89-1.22,2.08,0,.22,0,.45,0,.68,0,.43.08,1.27.16,2.5s.18,2.59.27,4.07q.28,4.49.68,8.34t1,8.34c.19,1.43.35,2.57.47,3.42s.22,1.5.3,1.94a3.93,3.93,0,0,0,.29,1,2.25,2.25,0,0,0,.38.52,1.35,1.35,0,0,0,1,.46h.07A4.34,4.34,0,0,0,716.51,558.37Z" transform="translate(-191.75 -253.58)"/><path class="cls-2" d="M751.62,569.49q-6.55-1.71-8.5-13.27a88.46,88.46,0,0,1-.89-13.23q0-6.82.75-15,.33-3.48.57-5.31a12.4,12.4,0,0,1,.58-2.65,3.56,3.56,0,0,1,.9-1.37,4.52,4.52,0,0,1,1.16-.91,7.35,7.35,0,0,1,1.85-.61q1.22-.27,3.48-.63c2.48-.38,4.53-.66,6.13-.82a41.36,41.36,0,0,1,4.31-.26h.53a12.26,12.26,0,0,1,2.69.22,3.64,3.64,0,0,1,1.73,1,4,4,0,0,1,1.18,2.76,4.39,4.39,0,0,1-.07.72,4.06,4.06,0,0,1-2.37,2.83,5.81,5.81,0,0,1-1.22.32,24.63,24.63,0,0,1-2.49.26c-1.14.07-2.76.15-4.86.25-1.06.05-2,.1-2.82.18a13.05,13.05,0,0,0-1.52.18,2.12,2.12,0,0,0-1.65,1.47,19.76,19.76,0,0,0-.2,2.63q-.09,2.25-.18,5.22c-.06,2-.1,3.71-.13,5.17s0,2.54,0,3.26v.9c0,.57.05,1,.07,1.29a2,2,0,0,0,.13.64,1.29,1.29,0,0,0,.3.43.83.83,0,0,0,.57.36,3.76,3.76,0,0,0,.47,0,8.71,8.71,0,0,0,1.33-.14q1.08-.18,3.12-.69a39.68,39.68,0,0,1,3.91-.84q.85-.09,1.08-.09a3.22,3.22,0,0,1,1.72.4,3.9,3.9,0,0,1,2,2.36,4.27,4.27,0,0,1,.14,1.08c0,1.63-.95,2.9-2.86,3.84a12.74,12.74,0,0,1-2.21.64q-1.61.36-5.29,1c-.65.14-1.23.28-1.76.41a6.51,6.51,0,0,0-1,.3,2.47,2.47,0,0,0-.38.4,2.72,2.72,0,0,0-.31.5,1.58,1.58,0,0,0-.12.41c0,.11,0,.21,0,.31v.32q0,.33.18.93c.38,2,.86,3.21,1.42,3.73a2.49,2.49,0,0,0,1.7.79,3.77,3.77,0,0,0,1.44-.32,12.06,12.06,0,0,0,1.56-.84c.73-.44,1.51-.94,2.35-1.49,1.22-.81,2.17-1.42,2.87-1.83a9.94,9.94,0,0,1,1.68-.84,3.77,3.77,0,0,1,1.33-.24l.54,0a2,2,0,0,1,.57.07,3.09,3.09,0,0,1,.93.39,3.38,3.38,0,0,1,2.05,3,3.22,3.22,0,0,1,0,.43,3.82,3.82,0,0,1-1.32,2.91,28.09,28.09,0,0,1-2.34,1.74c-1.12.78-2.29,1.55-3.49,2.31s-2.14,1.32-2.78,1.65a15.22,15.22,0,0,1-6.32,1.54A10.17,10.17,0,0,1,751.62,569.49Z" transform="translate(-191.75 -253.58)"/><path class="cls-2" d="M199.39,650a4.72,4.72,0,0,1-2.12-2.26c-.62-1.61-1.28-5.26-2-11s-1.27-12-1.7-18.76q-.18-2.87-.18-4.23v-2c0-1.27,0-2.78.07-4.52q.08-3.3.18-4.83a5.73,5.73,0,0,1,.43-2.11,4.22,4.22,0,0,1,1-1.17c1.34-1.24,3.75-1.92,7.21-2,.36,0,.71,0,1,0a20.79,20.79,0,0,1,12.59,3.84,13.47,13.47,0,0,1,5.1,8.32,16,16,0,0,1,.21,2.58q0,7.14-6.2,14.6l-1.17,1.38c-.39.47-.7.82-.91,1.06a2.24,2.24,0,0,0-.72,1.4,1,1,0,0,0,.39.75,10.19,10.19,0,0,0,2.95,1.08,17.82,17.82,0,0,1,4.87,1.9,4.27,4.27,0,0,1,1.94,2.44,4.33,4.33,0,0,1,.14,1.11,4,4,0,0,1-.35,1.61,3.89,3.89,0,0,1-2,1.87,3.18,3.18,0,0,1-1.36.25,12.4,12.4,0,0,1-3.44-.65c-1.08-.33-2.31-.67-3.7-1s-2.66-.63-3.84-.88a14.82,14.82,0,0,0-2.26-.38q-1.14,0-1.29.54a4.22,4.22,0,0,0-.14,1,18,18,0,0,0,.32,2.79c.24,1.41.37,2.34.4,2.77s0,.73,0,.89a3.78,3.78,0,0,1-.18,1.26,3.43,3.43,0,0,1-.79,1.33,4.43,4.43,0,0,1-1.32,1,4.37,4.37,0,0,1-1.62.28A4.51,4.51,0,0,1,199.39,650Zm4.81-24.47a6.58,6.58,0,0,0,1.45-1.14c.68-.65,1.4-1.38,2.15-2.19a28.21,28.21,0,0,0,1.85-2.19,24.23,24.23,0,0,0,1.83-3,16,16,0,0,0,1.18-2.84,9.1,9.1,0,0,0,.25-2.18,5.41,5.41,0,0,0-3.12-5.15,14.29,14.29,0,0,0-5.38-1.81,7.76,7.76,0,0,0-.9-.11h-.32a1.61,1.61,0,0,0-.39,0,2.18,2.18,0,0,0-.54.17l-.11.08a1.26,1.26,0,0,0-.61.43,1.52,1.52,0,0,0-.23.86c0,.38,0,.7,0,1,0,.52,0,1.2,0,2,.07,1.27.17,3,.32,5.24,0,.33,0,.68,0,1,.15,2.17.26,3.9.35,5.18s.17,2.24.26,2.87a5.82,5.82,0,0,0,.31,1.31.88.88,0,0,0,.41.47.57.57,0,0,0,.29.14h.36Z" transform="translate(-191.75 -253.58)"/><path class="cls-2" d="M237.12,649.49q-6.56-1.71-8.5-13.27a87.06,87.06,0,0,1-.9-13.23q0-6.82.76-15,.32-3.48.57-5.31a12.4,12.4,0,0,1,.58-2.65,3.66,3.66,0,0,1,.89-1.37,4.74,4.74,0,0,1,1.17-.91,7.21,7.21,0,0,1,1.85-.61c.81-.18,2-.39,3.47-.63,2.49-.38,4.54-.66,6.14-.82a41.19,41.19,0,0,1,4.3-.26H248a12.26,12.26,0,0,1,2.69.22,3.56,3.56,0,0,1,1.72,1,4,4,0,0,1,1.19,2.76,3.53,3.53,0,0,1-.08.72,4,4,0,0,1-2.36,2.83,6,6,0,0,1-1.22.32,24.56,24.56,0,0,1-2.5.26c-1.13.07-2.75.15-4.86.25-1,.05-2,.1-2.81.18a13.36,13.36,0,0,0-1.53.18,2.15,2.15,0,0,0-1.65,1.47,20.67,20.67,0,0,0-.19,2.63q-.09,2.25-.18,5.22c-.06,2-.1,3.71-.13,5.17s0,2.54,0,3.26v.9c0,.57,0,1,.07,1.29a2.07,2.07,0,0,0,.12.64,1.33,1.33,0,0,0,.31.43.83.83,0,0,0,.57.36,3.62,3.62,0,0,0,.47,0,8.83,8.83,0,0,0,1.33-.14q1.07-.18,3.12-.69a39.06,39.06,0,0,1,3.91-.84c.57-.06.93-.09,1.07-.09a3.2,3.2,0,0,1,1.72.4,3.89,3.89,0,0,1,2,2.36,4.78,4.78,0,0,1,.14,1.08c0,1.63-1,2.9-2.87,3.84a12.28,12.28,0,0,1-2.2.64q-1.61.36-5.29,1c-.65.14-1.24.28-1.76.41a6.77,6.77,0,0,0-1,.3,2.45,2.45,0,0,0-.37.4,2.27,2.27,0,0,0-.31.5,1.58,1.58,0,0,0-.12.41,1.67,1.67,0,0,0,0,.31v.32a6.6,6.6,0,0,0,.18.93c.38,2,.85,3.21,1.42,3.73a2.49,2.49,0,0,0,1.7.79,3.69,3.69,0,0,0,1.43-.32,12.06,12.06,0,0,0,1.56-.84c.73-.44,1.52-.94,2.35-1.49,1.22-.81,2.18-1.42,2.87-1.83a10.35,10.35,0,0,1,1.69-.84,3.77,3.77,0,0,1,1.33-.24l.53,0a2,2,0,0,1,.58.07,3.09,3.09,0,0,1,.93.39,3.37,3.37,0,0,1,2,3,2.15,2.15,0,0,1,0,.43,3.8,3.8,0,0,1-1.33,2.91,27.46,27.46,0,0,1-2.33,1.74c-1.12.78-2.29,1.55-3.5,2.31s-2.13,1.32-2.77,1.65a15.25,15.25,0,0,1-6.32,1.54A10.1,10.1,0,0,1,237.12,649.49Z" transform="translate(-191.75 -253.58)"/><path class="cls-2" d="M263.81,649.92a4.23,4.23,0,0,1-2.44-2.36,6.49,6.49,0,0,1-.47-1.81c-.12-.83-.25-2.14-.39-4s-.31-4.36-.5-7.66l-.36-5.86c-.12-1.95-.22-3.43-.29-4.43-.07-1.48-.12-3.21-.14-5.17s0-3.42,0-4.37c0-1.89,0-3.76,0-5.6,0-2.72.07-4.53.14-5.42a10.87,10.87,0,0,1,.22-1.27,5.67,5.67,0,0,1,.28-.95,4.5,4.5,0,0,1,2.19-2.2,6,6,0,0,1,2.4-.63,4.25,4.25,0,0,1,1.33.21c.84.24,1.69,1.2,2.57,2.89a90,90,0,0,1,3.71,9.13q4.26,11.68,6.1,16l1,2.28c.31.73.53,1.26.65,1.6s.31.62.5,1,.36.58.5.77a2.94,2.94,0,0,0,.45.43.43.43,0,0,0,.2.07.35.35,0,0,0,.21-.07,1,1,0,0,0,.36-.47,3.89,3.89,0,0,0,.24-1.11c.06-.53.11-1.27.16-2.24s.09-2.26.14-3.86c.05-1.79.11-3.63.2-5.52s.16-3.4.23-4.52q.23-3.48.49-7.48t.44-6.55a13.05,13.05,0,0,1,.42-2.95,3.72,3.72,0,0,1,1-1.64,4,4,0,0,1,2.76-1.15h.18a4,4,0,0,1,2.8,1.44,3.77,3.77,0,0,1,.81,1.58,12.14,12.14,0,0,1,.23,2.69v.5c-.05,1.41-.15,3.41-.32,6q-.79,11-1,19.84c-.14,5.85-.4,10.07-.75,12.66a13.17,13.17,0,0,1-1.76,5.59,5.4,5.4,0,0,1-4.74,2.87h-.14a5.56,5.56,0,0,1-3.6-1.29,16.35,16.35,0,0,1-3.54-4.9q-1.94-3.6-4.8-10.34c-.55-1.32-1-2.34-1.33-3a16,16,0,0,0-.79-1.53,1.23,1.23,0,0,0-.5-.52.4.4,0,0,0-.15,0c-.28,0-.5.3-.64.89v.33c0,.5,0,1.42.07,2.76.1,1.79.22,3.84.36,6.13s.3,4.34.47,6.14c.09,1.17.14,2.12.14,2.87a8.5,8.5,0,0,1,0,.93,3.48,3.48,0,0,1-.79,1.9,4,4,0,0,1-1.74,1.31,5,5,0,0,1-1.48.3A3.78,3.78,0,0,1,263.81,649.92Z" transform="translate(-191.75 -253.58)"/><path class="cls-2" d="M308.79,648.74a12.78,12.78,0,0,1-8-4.23,16.55,16.55,0,0,1-4.37-11.77v-.21a29.24,29.24,0,0,1,.5-5.4,42.25,42.25,0,0,1,1.76-6.15q4.16-11.91,11.05-19.08,5.42-5.56,9.68-5.56a6.43,6.43,0,0,1,1.9.28,3.8,3.8,0,0,1,2.42,1.83,5.18,5.18,0,0,1,.49,1.8,3.46,3.46,0,0,1-.65,1.93,4.1,4.1,0,0,1-2.9,1.58,7.74,7.74,0,0,0-2,.68,7.88,7.88,0,0,0-1.72,1.37,45.09,45.09,0,0,0-7.85,11.55q-4.48,9.21-4.49,15a9.06,9.06,0,0,0,2.19,6.42,4.32,4.32,0,0,0,3.3,1.62,2.09,2.09,0,0,0,.43,0,5.72,5.72,0,0,0,2.15-.54,19.7,19.7,0,0,0,2.94-1.68,17.41,17.41,0,0,1,2.5-1.45,4.36,4.36,0,0,1,1.74-.34,3.67,3.67,0,0,1,3,1.32,3.83,3.83,0,0,1,.93,2.44,4.62,4.62,0,0,1-.82,2.48,15.55,15.55,0,0,1-3.21,2.65,27.56,27.56,0,0,1-4.47,2.48,14.31,14.31,0,0,1-5.2,1.07A12.39,12.39,0,0,1,308.79,648.74Z" transform="translate(-191.75 -253.58)"/><path class="cls-2" d="M339.45,650.17a15,15,0,0,1-7.8-5.38,27.08,27.08,0,0,1-5-10.5,49.6,49.6,0,0,1-1.19-10.84,55.93,55.93,0,0,1,1.94-14.34,37,37,0,0,1,2.76-7,12.31,12.31,0,0,1,2.35-3.41,5.94,5.94,0,0,1,2.82-1.44,17.5,17.5,0,0,1,3.16-.25c.43,0,.87,0,1.32,0a29.8,29.8,0,0,1,5.13.61q12.88,3,14.28,22.24c0,.81.07,1.62.07,2.43a41.76,41.76,0,0,1-1.54,11.27,31.93,31.93,0,0,1-5.56,11.33,14.74,14.74,0,0,1-6.46,4.88,7.53,7.53,0,0,1-1.51.43,14.21,14.21,0,0,1-1.82.14h-.83A9.68,9.68,0,0,1,339.45,650.17Zm4.34-8.68c1.44-.83,2.85-2.63,4.24-5.38a25.31,25.31,0,0,0,2.81-9.09c.16-2.5.24-4.08.24-4.75a30.77,30.77,0,0,0-1.66-10.12,10.09,10.09,0,0,0-3.51-5.23,10.35,10.35,0,0,0-6-1.58h-.17a5.74,5.74,0,0,0-2.1.27,2,2,0,0,0-1,1,25.88,25.88,0,0,0-1.49,5,69,69,0,0,0-1.16,7.12c-.17,1.75-.26,3.41-.26,5a29,29,0,0,0,3,13.77c1.72,3,3.48,4.45,5.27,4.45A3.62,3.62,0,0,0,343.79,641.49Z" transform="translate(-191.75 -253.58)"/><path class="cls-2" d="M370.7,649.92a4.2,4.2,0,0,1-2.44-2.36,6.49,6.49,0,0,1-.47-1.81c-.12-.83-.25-2.14-.39-4s-.32-4.36-.51-7.66q-.18-2.94-.35-5.86c-.12-1.95-.22-3.43-.29-4.43-.07-1.48-.12-3.21-.15-5.17s0-3.42,0-4.37c0-1.89,0-3.76,0-5.6,0-2.72.08-4.53.15-5.42.05-.43.12-.85.21-1.27a5.53,5.53,0,0,1,.29-.95,4.5,4.5,0,0,1,2.19-2.2,6,6,0,0,1,2.4-.63,4.3,4.3,0,0,1,1.33.21c.83.24,1.69,1.2,2.56,2.89a89.37,89.37,0,0,1,3.72,9.13q4.26,11.68,6.09,16l1,2.28c.31.73.53,1.26.65,1.6s.31.62.5,1,.36.58.5.77a2.94,2.94,0,0,0,.45.43.4.4,0,0,0,.2.07.35.35,0,0,0,.21-.07,1,1,0,0,0,.36-.47,4,4,0,0,0,.23-1.11c.06-.53.12-1.27.17-2.24s.09-2.26.14-3.86c.05-1.79.11-3.63.2-5.52s.16-3.4.23-4.52q.21-3.48.48-7.48t.45-6.55a13.16,13.16,0,0,1,.41-2.95,3.83,3.83,0,0,1,1-1.64,3.94,3.94,0,0,1,2.76-1.15h.18a4,4,0,0,1,2.8,1.44,3.77,3.77,0,0,1,.81,1.58,12.14,12.14,0,0,1,.23,2.69v.5q-.07,2.12-.32,6-.79,11-1,19.84t-.76,12.66a13,13,0,0,1-1.75,5.59,5.4,5.4,0,0,1-4.74,2.87h-.14a5.61,5.61,0,0,1-3.61-1.29,16.54,16.54,0,0,1-3.53-4.9q-1.94-3.6-4.81-10.34c-.55-1.32-1-2.34-1.32-3a16,16,0,0,0-.79-1.53,1.23,1.23,0,0,0-.5-.52.4.4,0,0,0-.15,0c-.29,0-.5.3-.64.89v.33c0,.5,0,1.42.07,2.76.09,1.79.21,3.84.36,6.13s.3,4.34.46,6.14c.1,1.17.15,2.12.15,2.87,0,.35,0,.67,0,.93a3.56,3.56,0,0,1-.79,1.9,4,4,0,0,1-1.74,1.31,5,5,0,0,1-1.49.3A3.77,3.77,0,0,1,370.7,649.92Z" transform="translate(-191.75 -253.58)"/><path class="cls-2" d="M418.69,650.39a3.94,3.94,0,0,1-2.1-2.6,40.12,40.12,0,0,1-1.35-7.16,210.35,210.35,0,0,1-1.65-25.82v-5.18c0-.8,0-1.42,0-1.83a6.36,6.36,0,0,0-.08-.9.92.92,0,0,0-.16-.41,1.23,1.23,0,0,0-.93-.67,8.12,8.12,0,0,0-1.18-.09c-.51,0-1.13,0-1.87.08-1.36.12-2.44.18-3.23.18h-.36a4.29,4.29,0,0,1-1.72-.26,2.92,2.92,0,0,1-1.79-1.63,5.13,5.13,0,0,1-.32-1.52,3.61,3.61,0,0,1,2.2-3.32,13.76,13.76,0,0,1,3.64-.91,152.67,152.67,0,0,1,20.59-1.76c1.22,0,2.13,0,2.73,0a8.68,8.68,0,0,1,1.29.09,3.79,3.79,0,0,1,.75.21,4,4,0,0,1,2.44,3.59v.14a4.06,4.06,0,0,1-2.73,3.55,4.18,4.18,0,0,1-1,.27c-.39.06-1,.12-1.79.18s-1.91.11-3.32.16-2.27.15-2.94.22a3.63,3.63,0,0,0-1.42.36,1.38,1.38,0,0,0-.59.71,1.69,1.69,0,0,0-.16.52,7.49,7.49,0,0,0-.05,1.1c0,.5,0,1.25,0,2.26s.06,2.34.11,4A228,228,0,0,0,424,643.79a19,19,0,0,1,.32,3,4,4,0,0,1,0,.54,3.9,3.9,0,0,1-2.57,3.23,6.69,6.69,0,0,1-1.34.21A4.1,4.1,0,0,1,418.69,650.39Z" transform="translate(-191.75 -253.58)"/><path class="cls-2" d="M445.05,650a4.72,4.72,0,0,1-2.12-2.26c-.62-1.61-1.28-5.26-2-11s-1.27-12-1.7-18.76q-.18-2.87-.18-4.23v-2c0-1.27,0-2.78.07-4.52q.08-3.3.18-4.83a5.73,5.73,0,0,1,.43-2.11,4.11,4.11,0,0,1,1-1.17c1.33-1.24,3.74-1.92,7.21-2,.35,0,.7,0,1,0a20.83,20.83,0,0,1,12.59,3.84,13.45,13.45,0,0,1,5.09,8.32,16,16,0,0,1,.21,2.58q0,7.14-6.2,14.6l-1.17,1.38c-.39.47-.7.82-.91,1.06a2.24,2.24,0,0,0-.72,1.4.94.94,0,0,0,.4.75,9.94,9.94,0,0,0,2.94,1.08,17.82,17.82,0,0,1,4.87,1.9,4.27,4.27,0,0,1,1.94,2.44,4.35,4.35,0,0,1,.15,1.11,3.81,3.81,0,0,1-.36,1.61,3.89,3.89,0,0,1-2,1.87,3.15,3.15,0,0,1-1.36.25,12.46,12.46,0,0,1-3.44-.65c-1.08-.33-2.31-.67-3.7-1s-2.66-.63-3.84-.88a15,15,0,0,0-2.25-.38c-.77,0-1.2.18-1.3.54a4.22,4.22,0,0,0-.14,1,18,18,0,0,0,.32,2.79c.24,1.41.37,2.34.4,2.77s0,.73,0,.89a3.78,3.78,0,0,1-.18,1.26,3.52,3.52,0,0,1-.78,1.33,4.59,4.59,0,0,1-1.33,1,4.37,4.37,0,0,1-1.62.28A4.51,4.51,0,0,1,445.05,650Zm4.81-24.47a6.58,6.58,0,0,0,1.45-1.14c.68-.65,1.4-1.38,2.15-2.19a28.21,28.21,0,0,0,1.85-2.19,24.23,24.23,0,0,0,1.83-3,16,16,0,0,0,1.18-2.84,9.1,9.1,0,0,0,.25-2.18,6.38,6.38,0,0,0-.28-2,6.11,6.11,0,0,0-2.84-3.14,14.23,14.23,0,0,0-5.38-1.81,7.76,7.76,0,0,0-.9-.11h-.32a1.61,1.61,0,0,0-.39,0,2.18,2.18,0,0,0-.54.17.35.35,0,0,1-.11.08,1.31,1.31,0,0,0-.61.43,1.52,1.52,0,0,0-.23.86c0,.38,0,.7,0,1,0,.52,0,1.2,0,2,.07,1.27.18,3,.32,5.24,0,.33,0,.68,0,1,.14,2.17.25,3.9.34,5.18s.17,2.24.27,2.87a5.42,5.42,0,0,0,.3,1.31.88.88,0,0,0,.41.47.57.57,0,0,0,.29.14h.36Z" transform="translate(-191.75 -253.58)"/><path class="cls-2" d="M482.78,649.49q-6.55-1.71-8.5-13.27a87.15,87.15,0,0,1-.89-13.23q0-6.82.75-15c.21-2.32.41-4.09.57-5.31a12.4,12.4,0,0,1,.58-2.65,3.66,3.66,0,0,1,.89-1.37,4.74,4.74,0,0,1,1.17-.91,7.21,7.21,0,0,1,1.85-.61q1.21-.27,3.48-.63c2.48-.38,4.53-.66,6.13-.82a41.34,41.34,0,0,1,4.3-.26h.54a12.26,12.26,0,0,1,2.69.22,3.56,3.56,0,0,1,1.72,1,4,4,0,0,1,1.19,2.76,4.39,4.39,0,0,1-.07.72,4.06,4.06,0,0,1-2.37,2.83,6,6,0,0,1-1.22.32,24.63,24.63,0,0,1-2.49.26c-1.14.07-2.76.15-4.86.25-1.06.05-2,.1-2.82.18a12.73,12.73,0,0,0-1.52.18,2.12,2.12,0,0,0-1.65,1.47,18,18,0,0,0-.2,2.63q-.09,2.25-.18,5.22c-.06,2-.1,3.71-.13,5.17s0,2.54,0,3.26v.9c0,.57,0,1,.07,1.29a1.77,1.77,0,0,0,.13.64,1.16,1.16,0,0,0,.3.43.83.83,0,0,0,.57.36,3.62,3.62,0,0,0,.47,0,8.83,8.83,0,0,0,1.33-.14q1.07-.18,3.12-.69a39.06,39.06,0,0,1,3.91-.84c.57-.06.93-.09,1.07-.09a3.26,3.26,0,0,1,1.73.4,3.9,3.9,0,0,1,2,2.36,4.78,4.78,0,0,1,.14,1.08c0,1.63-.95,2.9-2.87,3.84a12.28,12.28,0,0,1-2.2.64q-1.61.36-5.29,1c-.65.14-1.23.28-1.76.41a6.77,6.77,0,0,0-1,.3,2.45,2.45,0,0,0-.37.4,2.72,2.72,0,0,0-.31.5,1.58,1.58,0,0,0-.12.41c0,.11,0,.21,0,.31v.32a6.6,6.6,0,0,0,.18.93c.38,2,.85,3.21,1.42,3.73a2.49,2.49,0,0,0,1.7.79,3.77,3.77,0,0,0,1.44-.32,11.49,11.49,0,0,0,1.55-.84c.73-.44,1.52-.94,2.35-1.49,1.22-.81,2.18-1.42,2.87-1.83a10.35,10.35,0,0,1,1.69-.84,3.77,3.77,0,0,1,1.33-.24l.54,0a2,2,0,0,1,.57.07,3.09,3.09,0,0,1,.93.39,3.4,3.4,0,0,1,2.05,3,3.22,3.22,0,0,1,0,.43A3.8,3.8,0,0,1,500,642.5a27.46,27.46,0,0,1-2.33,1.74c-1.12.78-2.29,1.55-3.49,2.31s-2.14,1.32-2.78,1.65a15.25,15.25,0,0,1-6.32,1.54A10.1,10.1,0,0,1,482.78,649.49Z" transform="translate(-191.75 -253.58)"/><path class="cls-2" d="M551.47,648.63q-6.35-.89-8.82-8.14-1.44-4-1.44-12.16c0-.93,0-1.9,0-2.9q.07-3.45.27-7.14c.13-2.46.28-4.43.45-5.88.09-.94.26-2.29.5-4.06s.48-3.45.72-5.06.4-2.61.5-3a4.59,4.59,0,0,1,3.15-3.7,3.58,3.58,0,0,1,.83-.11,3.19,3.19,0,0,1,1.4.33,3.3,3.3,0,0,1,1.65,1.58,2.38,2.38,0,0,1,.25.61,2.68,2.68,0,0,1,.07.68c0,.26,0,.62,0,1.07q-.06,1.41-.39,5.74c-.21,2.89-.44,6-.68,9.36-.22,2.42-.32,6.16-.32,11.23,0,2.32,0,4,0,5.13s0,1.91.11,2.44.14,1,.23,1.47c.46,1.91,1.07,3.17,1.83,3.76a1.86,1.86,0,0,0,1,.42l.58,0a5.3,5.3,0,0,0,1.68-.29c.34-.12.89-.35,1.67-.68s1.59-.71,2.42-1.12q3.41-1.61,4.88-2.18a7.47,7.47,0,0,1,2.37-.61,2.6,2.6,0,0,1,.46,0,3.48,3.48,0,0,1,2.87,1.29,4,4,0,0,1,1,2.55,4.35,4.35,0,0,1-.58,2.08,3.32,3.32,0,0,1-1,1.18,12.68,12.68,0,0,1-2.18,1.19l-2,1-2.49,1.16q-2.55,1.23-3.84,1.74a13.78,13.78,0,0,1-2.51.77,14.24,14.24,0,0,1-3.34.43A11.15,11.15,0,0,1,551.47,648.63Z" transform="translate(-191.75 -253.58)"/><path class="cls-2" d="M586.19,650.57a13.85,13.85,0,0,1-6.71-3.84,17.94,17.94,0,0,1-4.55-7.93,73,73,0,0,1-2.33-14.52q-.36-4-.36-8.47c0-2.53.08-5.19.25-8,.09-1.6.17-2.85.23-3.75s.13-1.56.2-2a5.33,5.33,0,0,1,.25-1A3.77,3.77,0,0,1,574.8,599a4,4,0,0,1,1.67-.48,3.5,3.5,0,0,1,1.4.32,3.84,3.84,0,0,1,2.19,3.45c0,.31.06,1.34.12,3.08s.12,3.8.16,6.17q.3,17.68,2.37,24.57a11,11,0,0,0,2.23,4.3,4,4,0,0,0,2.94,1.69q7,0,7.1-33.43c0-1.86,0-3.58,0-5.15s.06-2.54.11-2.92a4.51,4.51,0,0,1,2-3.51,2.83,2.83,0,0,1,.87-.42,6.26,6.26,0,0,1,1.28-.09,6.71,6.71,0,0,1,1.22.08,2,2,0,0,1,.82.43,4.65,4.65,0,0,1,1.87,3.3c.07.64.1,2.28.1,4.91s0,5.44-.07,8.43-.12,5.34-.21,7.06a89.2,89.2,0,0,1-2.15,16.32q-1.77,7-5,10.05a11,11,0,0,1-7.74,3.55A10.28,10.28,0,0,1,586.19,650.57Z" transform="translate(-191.75 -253.58)"/><path class="cls-2" d="M616,647.63a4.65,4.65,0,0,1-2.11-2.73q-.18-.67-.69-3.87t-1-7.09q-.52-3.88-.84-6.69-.64-5.62-.84-9.2c-.14-2.37-.2-5.5-.2-9.38v-3.8c0-1,0-1.75,0-2.33a12.64,12.64,0,0,1,.07-1.31,4.56,4.56,0,0,1,.12-.68c0-.15.11-.32.18-.48a4,4,0,0,1,1.74-2,9.13,9.13,0,0,1,3.5-.79c.77-.07,1.54-.11,2.33-.11a35.63,35.63,0,0,1,9.65,1.47,26,26,0,0,1,9,4.22,17.82,17.82,0,0,1,5.32,6.94,24.66,24.66,0,0,1,1,19,29.58,29.58,0,0,1-5.83,9.6,29.21,29.21,0,0,1-8.88,6.83,20.18,20.18,0,0,1-2.71,1.13,18.18,18.18,0,0,1-3,.66c-.57.1-1.14.21-1.72.34s-1,.25-1.33.34a7.2,7.2,0,0,1-2,.33A4.2,4.2,0,0,1,616,647.63Zm8.47-9.26a24.21,24.21,0,0,0,5.77-4.55,19.58,19.58,0,0,0,5.67-9.29,17.82,17.82,0,0,0,.45-4,14.59,14.59,0,0,0-.42-3.87q-1.6-6.35-5.95-8.47a26.27,26.27,0,0,0-5.47-1.93,20.47,20.47,0,0,0-4.25-.69,3.81,3.81,0,0,0-1,.11c-.81.19-1.22.89-1.22,2.08a5.27,5.27,0,0,0,0,.68c0,.43.08,1.27.16,2.5s.17,2.59.27,4.07q.29,4.49.68,8.34c.26,2.57.59,5.35,1,8.34.19,1.43.34,2.57.46,3.42s.23,1.5.31,1.94a3.54,3.54,0,0,0,.29,1,2.22,2.22,0,0,0,.37.52,1.38,1.38,0,0,0,1,.46h.08A4.34,4.34,0,0,0,624.43,638.37Z" transform="translate(-191.75 -253.58)"/><path class="cls-2" d="M654.63,648c-1.49-.67-2.37-2.13-2.66-4.37-.12-1.08-.28-3-.5-5.78s-.39-5.31-.54-7.6q-.24-5-.27-8.86c0-2.59,0-4.3,0-5.13q0-5,.1-9.22a46.51,46.51,0,0,1,.47-6.71,4.22,4.22,0,0,1,3.16-3.3,2.6,2.6,0,0,1,.61-.07,3.32,3.32,0,0,1,1.72.5,3.65,3.65,0,0,1,1.54,1.83c0,.22.1,1.1.16,2.66s.13,3.42.2,5.59c0,2,.09,4.19.14,6.67q.15,4.59.22,8,.1,5.08.32,9.21c.14,2.75.35,5.64.61,8.65.12,1.43.18,2.58.18,3.44v.68a4.44,4.44,0,0,1-.43,2,4.22,4.22,0,0,1-2,1.86,3.35,3.35,0,0,1-1.29.22h-.22A4.49,4.49,0,0,1,654.63,648Z" transform="translate(-191.75 -253.58)"/><path class="cls-2" d="M698.46,652.15a35.28,35.28,0,0,1-6.28-3c-1.1-.6-1.92-1-2.47-1.25a3.7,3.7,0,0,0-1.44-.36h-.21a6,6,0,0,0-1.69.39,8.22,8.22,0,0,1-2.24.43c-.68,0-1.14,0-1.38,0a11.66,11.66,0,0,1-2.19-.18,15.22,15.22,0,0,1-8.75-6.42,30.86,30.86,0,0,1-4.92-12.88,51.28,51.28,0,0,1-.5-7.17,56.17,56.17,0,0,1,.54-7.68,45.5,45.5,0,0,1,4-13.59,10.7,10.7,0,0,1,3.25-4.36,9.62,9.62,0,0,1,5.18-1.1h.54q9.18,0,13.74,4.85,4.51,4.51,6,13.38a40.8,40.8,0,0,1,.61,7.06A42.43,42.43,0,0,1,699,630.66a38.27,38.27,0,0,1-2.83,7.61c-.29.64-.54,1.22-.76,1.72a4.41,4.41,0,0,0-.32.89,1.76,1.76,0,0,0,.93,1.4,18.06,18.06,0,0,0,3.34,1.58,19.91,19.91,0,0,1,2.42,1.11,5.46,5.46,0,0,1,1.31,1,3.61,3.61,0,0,1,1,2.55v.36c-.21,2.08-1.44,3.21-3.69,3.41-.34,0-.68,0-1,0A3.41,3.41,0,0,1,698.46,652.15ZM684,639.84a7.78,7.78,0,0,0,3.41-3.08,23.83,23.83,0,0,0,2.9-6A35.1,35.1,0,0,0,692,620.26a31.73,31.73,0,0,0-1.58-9.9,10.31,10.31,0,0,0-3.53-5.38,10.63,10.63,0,0,0-6.26-1.61,5.11,5.11,0,0,0-2.19.37,2.87,2.87,0,0,0-1.23,1.67,26.9,26.9,0,0,0-1,4,53.91,53.91,0,0,0-1.54,11.77v.43q0,8.14,2.55,13.2c1.39,2.75,3,4.45,4.73,5.09a3.08,3.08,0,0,0,1,.22A3.13,3.13,0,0,0,684,639.84Z" transform="translate(-191.75 -253.58)"/><path class="cls-2" d="M721.49,650.57a13.8,13.8,0,0,1-6.71-3.84,17.85,17.85,0,0,1-4.56-7.93,74.52,74.52,0,0,1-2.33-14.52q-.36-4-.36-8.47c0-2.53.09-5.19.25-8q.15-2.4.24-3.75c.06-.89.12-1.56.19-2a5.22,5.22,0,0,1,.26-1A3.73,3.73,0,0,1,710.1,599a4,4,0,0,1,1.67-.48,3.5,3.5,0,0,1,1.4.32,3.82,3.82,0,0,1,2.18,3.45c0,.31.07,1.34.13,3.08s.11,3.8.16,6.17q.29,17.68,2.37,24.57a11,11,0,0,0,2.22,4.3,4,4,0,0,0,2.94,1.69q7,0,7.1-33.43c0-1.86,0-3.58,0-5.15s.06-2.54.11-2.92a4.48,4.48,0,0,1,2-3.51,2.87,2.87,0,0,1,.88-.42,6.14,6.14,0,0,1,1.27-.09,6.63,6.63,0,0,1,1.22.08,2,2,0,0,1,.83.43,4.67,4.67,0,0,1,1.86,3.3c.07.64.11,2.28.11,4.91s0,5.44-.07,8.43-.12,5.34-.22,7.06a89.2,89.2,0,0,1-2.15,16.32q-1.75,7-5,10.05a11,11,0,0,1-7.75,3.55A10.09,10.09,0,0,1,721.49,650.57Z" transform="translate(-191.75 -253.58)"/><path class="cls-2" d="M755.06,649.49q-6.57-1.71-8.5-13.27a87.06,87.06,0,0,1-.9-13.23q0-6.82.76-15,.32-3.48.57-5.31a13.21,13.21,0,0,1,.57-2.65,3.8,3.8,0,0,1,.9-1.37,4.89,4.89,0,0,1,1.16-.91,7.35,7.35,0,0,1,1.85-.61q1.23-.27,3.48-.63c2.49-.38,4.53-.66,6.13-.82a41.52,41.52,0,0,1,4.31-.26h.54a12.32,12.32,0,0,1,2.69.22,3.61,3.61,0,0,1,1.72,1,4,4,0,0,1,1.18,2.76,3.51,3.51,0,0,1-.07.72,4,4,0,0,1-2.37,2.83,5.64,5.64,0,0,1-1.22.32,24,24,0,0,1-2.49.26c-1.13.07-2.75.15-4.86.25-1,.05-2,.1-2.81.18a13,13,0,0,0-1.53.18,2.12,2.12,0,0,0-1.65,1.47,19.76,19.76,0,0,0-.2,2.63q-.09,2.25-.18,5.22c-.06,2-.1,3.71-.12,5.17s0,2.54,0,3.26v.9c0,.57,0,1,.07,1.29a2.35,2.35,0,0,0,.13.64,1.2,1.2,0,0,0,.31.43.79.79,0,0,0,.57.36,3.5,3.5,0,0,0,.47,0,8.72,8.72,0,0,0,1.32-.14q1.08-.18,3.12-.69a39.68,39.68,0,0,1,3.91-.84q.87-.09,1.08-.09a3.2,3.2,0,0,1,1.72.4,3.9,3.9,0,0,1,2,2.36,4.31,4.31,0,0,1,.15,1.08c0,1.63-1,2.9-2.87,3.84a12.46,12.46,0,0,1-2.21.64c-1.06.24-2.83.58-5.29,1l-1.75.41a6.39,6.39,0,0,0-1,.3,3,3,0,0,0-.38.4,2.21,2.21,0,0,0-.3.5,2.28,2.28,0,0,0-.13.41c0,.11,0,.21,0,.31v.32a8,8,0,0,0,.17.93c.39,2,.86,3.21,1.42,3.73a2.49,2.49,0,0,0,1.71.79,3.73,3.73,0,0,0,1.43-.32,12.06,12.06,0,0,0,1.56-.84c.73-.44,1.51-.94,2.35-1.49,1.22-.81,2.18-1.42,2.87-1.83a9.61,9.61,0,0,1,1.69-.84,3.76,3.76,0,0,1,1.32-.24l.54,0a1.93,1.93,0,0,1,.57.07,3,3,0,0,1,.94.39,3.37,3.37,0,0,1,2,3,3.28,3.28,0,0,1,0,.43,3.83,3.83,0,0,1-1.33,2.91c-.43.38-1.21,1-2.33,1.74s-2.29,1.55-3.5,2.31-2.13,1.32-2.78,1.65a15.21,15.21,0,0,1-6.31,1.54A10,10,0,0,1,755.06,649.49Z" transform="translate(-191.75 -253.58)"/><path class="cls-2" d="M202.83,729.49q-6.56-1.71-8.5-13.27a87.06,87.06,0,0,1-.9-13.23q0-6.82.76-15,.31-3.48.57-5.31a12.4,12.4,0,0,1,.58-2.65,3.66,3.66,0,0,1,.89-1.37,4.74,4.74,0,0,1,1.17-.91,7.21,7.21,0,0,1,1.85-.61c.81-.18,2-.39,3.47-.63,2.49-.38,4.54-.66,6.14-.82a41.19,41.19,0,0,1,4.3-.26h.54a12.26,12.26,0,0,1,2.69.22,3.56,3.56,0,0,1,1.72,1,4,4,0,0,1,1.19,2.76,3.53,3.53,0,0,1-.08.72,4,4,0,0,1-2.36,2.83,6,6,0,0,1-1.22.32,24.56,24.56,0,0,1-2.5.26c-1.13.07-2.75.15-4.86.25-1.05.05-2,.1-2.81.18a13.36,13.36,0,0,0-1.53.18,2.15,2.15,0,0,0-1.65,1.47,20.67,20.67,0,0,0-.19,2.63q-.09,2.25-.18,5.22c-.06,2-.1,3.71-.13,5.17s0,2.54,0,3.26v.9c0,.57,0,1,.07,1.29a2.07,2.07,0,0,0,.12.64,1.33,1.33,0,0,0,.31.43.83.83,0,0,0,.57.36,3.62,3.62,0,0,0,.47,0,8.83,8.83,0,0,0,1.33-.14q1.06-.18,3.12-.69a39.06,39.06,0,0,1,3.91-.84c.57-.06.93-.09,1.07-.09a3.2,3.2,0,0,1,1.72.4,3.89,3.89,0,0,1,2.05,2.36,4.78,4.78,0,0,1,.14,1.08c0,1.63-1,2.9-2.87,3.84a12.28,12.28,0,0,1-2.2.64q-1.6.36-5.29,1c-.65.14-1.24.28-1.76.41a6.77,6.77,0,0,0-1,.3,2.45,2.45,0,0,0-.37.4,2.27,2.27,0,0,0-.31.5,1.58,1.58,0,0,0-.12.41,1.67,1.67,0,0,0,0,.31v.32a6.6,6.6,0,0,0,.18.93c.38,2,.85,3.21,1.42,3.73a2.49,2.49,0,0,0,1.7.79,3.69,3.69,0,0,0,1.43-.32,12.06,12.06,0,0,0,1.56-.84c.73-.44,1.52-.94,2.35-1.49,1.22-.81,2.18-1.42,2.87-1.83a10.35,10.35,0,0,1,1.69-.84,3.77,3.77,0,0,1,1.33-.24l.53,0a2,2,0,0,1,.58.07,3.09,3.09,0,0,1,.93.39,3.37,3.37,0,0,1,2,3,2.15,2.15,0,0,1,0,.43A3.8,3.8,0,0,1,220,722.5a27.46,27.46,0,0,1-2.33,1.74c-1.12.78-2.29,1.55-3.5,2.31s-2.13,1.32-2.77,1.65a15.25,15.25,0,0,1-6.32,1.54A10.1,10.1,0,0,1,202.83,729.49Z" transform="translate(-191.75 -253.58)"/><path class="cls-2" d="M238.38,730.39a4,4,0,0,1-2.1-2.6,41.06,41.06,0,0,1-1.35-7.16,210.29,210.29,0,0,1-1.64-25.82v-5.18c0-.8,0-1.42,0-1.83s0-.72-.07-.9a.92.92,0,0,0-.17-.41,1.23,1.23,0,0,0-.93-.67,8.12,8.12,0,0,0-1.18-.09c-.5,0-1.13,0-1.87.08-1.36.12-2.44.18-3.23.18h-.35a4.31,4.31,0,0,1-1.73-.26A3,3,0,0,1,222,684.1a5.48,5.48,0,0,1-.32-1.52,3.61,3.61,0,0,1,2.2-3.32,13.76,13.76,0,0,1,3.64-.91,152.67,152.67,0,0,1,20.59-1.76c1.22,0,2.13,0,2.73,0a8.45,8.45,0,0,1,1.29.09,3.79,3.79,0,0,1,.75.21,4,4,0,0,1,2.44,3.59v.14a4.06,4.06,0,0,1-2.72,3.55,4.4,4.4,0,0,1-1,.27c-.39.06-1,.12-1.79.18s-1.91.11-3.32.16-2.27.15-2.94.22a3.63,3.63,0,0,0-1.42.36,1.38,1.38,0,0,0-.59.71,1.69,1.69,0,0,0-.16.52,9.26,9.26,0,0,0-.05,1.1c0,.5,0,1.25,0,2.26s.06,2.34.11,4a228,228,0,0,0,2.33,29.81,19,19,0,0,1,.32,3,4,4,0,0,1,0,.54,3.9,3.9,0,0,1-2.57,3.23,6.69,6.69,0,0,1-1.34.21A4.13,4.13,0,0,1,238.38,730.39Z" transform="translate(-191.75 -253.58)"/><path class="cls-2" d="M296.23,727.63a4.65,4.65,0,0,1-2.11-2.73c-.12-.45-.35-1.74-.68-3.87s-.68-4.49-1-7.09-.62-4.82-.84-6.69q-.65-5.62-.84-9.2t-.2-9.38v-3.8c0-1,0-1.75,0-2.33a12.64,12.64,0,0,1,.07-1.31,4.34,4.34,0,0,1,.13-.68,3.47,3.47,0,0,1,.17-.48,3.93,3.93,0,0,1,1.75-2,9,9,0,0,1,3.49-.79c.77-.07,1.54-.11,2.33-.11a35.63,35.63,0,0,1,9.65,1.47,26,26,0,0,1,9,4.22,17.82,17.82,0,0,1,5.32,6.94,24.66,24.66,0,0,1,1,19,29.58,29.58,0,0,1-5.83,9.6,29.21,29.21,0,0,1-8.88,6.83,20.18,20.18,0,0,1-2.71,1.13,18.18,18.18,0,0,1-3,.66c-.57.1-1.14.21-1.72.34s-1,.25-1.32.34A7.32,7.32,0,0,1,298,728,4.23,4.23,0,0,1,296.23,727.63Zm8.47-9.26a24.21,24.21,0,0,0,5.77-4.55,19.58,19.58,0,0,0,5.67-9.29,17.26,17.26,0,0,0,.45-4,15.05,15.05,0,0,0-.41-3.87q-1.62-6.35-6-8.47a26.27,26.27,0,0,0-5.47-1.93,20.47,20.47,0,0,0-4.25-.69,3.87,3.87,0,0,0-1,.11c-.81.19-1.22.89-1.22,2.08,0,.22,0,.45,0,.68,0,.43.08,1.27.16,2.5s.17,2.59.27,4.07q.29,4.49.68,8.34c.26,2.57.59,5.35,1,8.34.19,1.43.35,2.57.47,3.42s.22,1.5.3,1.94a3.93,3.93,0,0,0,.29,1,2.25,2.25,0,0,0,.38.52,1.35,1.35,0,0,0,1,.46H303A4.34,4.34,0,0,0,304.7,718.37Z" transform="translate(-191.75 -253.58)"/><path class="cls-2" d="M335.25,678.15a5.36,5.36,0,0,1-2.28-1.9,4.54,4.54,0,0,1-1-2.61,5.5,5.5,0,0,1,.49-2,12.14,12.14,0,0,1,1.1-2.1q.57-.62,3.28-3.21c1.81-1.72,3.72-3.5,5.72-5.32s3.45-3.1,4.38-3.82a8.06,8.06,0,0,1,5.43-2.36,5.53,5.53,0,0,1,3.89,1.51,5.21,5.21,0,0,1,1.49,3.87,7.11,7.11,0,0,1-2.46,5q-.87.83-3.26,2.77c-1.58,1.3-3.32,2.69-5.2,4.17s-3.54,2.79-5,3.9a27,27,0,0,1-2.69,1.92,4.53,4.53,0,0,1-1.49.41l-.82,0A4.64,4.64,0,0,1,335.25,678.15Z" transform="translate(-191.75 -253.58)"/><path class="cls-2" d="M375.83,729.49q-6.56-1.71-8.5-13.27a88.46,88.46,0,0,1-.89-13.23q0-6.82.75-15,.33-3.48.57-5.31a12.4,12.4,0,0,1,.58-2.65,3.66,3.66,0,0,1,.89-1.37,4.74,4.74,0,0,1,1.17-.91,7.21,7.21,0,0,1,1.85-.61q1.22-.27,3.48-.63c2.48-.38,4.53-.66,6.13-.82a41.34,41.34,0,0,1,4.3-.26h.54a12.26,12.26,0,0,1,2.69.22,3.56,3.56,0,0,1,1.72,1,4,4,0,0,1,1.19,2.76,4.39,4.39,0,0,1-.07.72,4.06,4.06,0,0,1-2.37,2.83,5.81,5.81,0,0,1-1.22.32,24.63,24.63,0,0,1-2.49.26c-1.14.07-2.76.15-4.86.25-1.06.05-2,.1-2.82.18a13.05,13.05,0,0,0-1.52.18,2.12,2.12,0,0,0-1.65,1.47,18,18,0,0,0-.2,2.63q-.09,2.25-.18,5.22c-.06,2-.1,3.71-.13,5.17s0,2.54,0,3.26v.9c0,.57.05,1,.07,1.29a2,2,0,0,0,.13.64,1.16,1.16,0,0,0,.3.43.83.83,0,0,0,.57.36,3.76,3.76,0,0,0,.47,0,8.71,8.71,0,0,0,1.33-.14c.71-.12,1.76-.35,3.12-.69a39.06,39.06,0,0,1,3.91-.84c.57-.06.93-.09,1.07-.09a3.23,3.23,0,0,1,1.73.4,3.9,3.9,0,0,1,2,2.36,4.27,4.27,0,0,1,.14,1.08c0,1.63-.95,2.9-2.87,3.84a12.28,12.28,0,0,1-2.2.64q-1.6.36-5.29,1c-.65.14-1.23.28-1.76.41a6.14,6.14,0,0,0-1,.3,2.47,2.47,0,0,0-.38.4,2.72,2.72,0,0,0-.31.5,1.58,1.58,0,0,0-.12.41c0,.11,0,.21,0,.31v.32a6.6,6.6,0,0,0,.18.93c.38,2,.85,3.21,1.42,3.73a2.49,2.49,0,0,0,1.7.79,3.77,3.77,0,0,0,1.44-.32,12.06,12.06,0,0,0,1.56-.84c.72-.44,1.51-.94,2.34-1.49q1.83-1.22,2.88-1.83a9.94,9.94,0,0,1,1.68-.84,3.77,3.77,0,0,1,1.33-.24l.54,0a2,2,0,0,1,.57.07,3.09,3.09,0,0,1,.93.39,3.4,3.4,0,0,1,2.05,3,3.22,3.22,0,0,1,0,.43A3.82,3.82,0,0,1,393,722.5c-.44.38-1.21,1-2.34,1.74s-2.29,1.55-3.49,2.31-2.14,1.32-2.78,1.65a15.25,15.25,0,0,1-6.32,1.54A10.17,10.17,0,0,1,375.83,729.49Z" transform="translate(-191.75 -253.58)"/><path class="cls-2" d="M412.46,729.71q-3.6-1.34-7-7.12a65.54,65.54,0,0,1-6.06-15.19,95.78,95.78,0,0,1-3-14.46c-.09-.79-.21-1.66-.34-2.63s-.24-1.81-.34-2.53a.18.18,0,0,0,0-.11,20.16,20.16,0,0,1-.29-3.16,4.9,4.9,0,0,1,.43-2.36,3.39,3.39,0,0,1,3.12-2q2.37,0,3.44,2.73c.1.29.32,1.24.67,2.85s.73,3.51,1.16,5.69q1.26,6.24,2,9.43c.49,2.13,1,4,1.49,5.78a71.61,71.61,0,0,0,3,8.19,16.48,16.48,0,0,0,2.8,4.79,2.48,2.48,0,0,0,.61.47l.22,0a1,1,0,0,0,.46-.14,1.59,1.59,0,0,0,.68-.63,7.16,7.16,0,0,0,.58-1.45,26.61,26.61,0,0,0,.79-4q.39-2.83,1-8.86c.19-1.86.38-3.78.59-5.76s.36-3.59.48-4.86a1.39,1.39,0,0,0,0-.35q.18-1.8.39-4.17c.15-1.57.27-3,.36-4.26s.23-2.31.32-3.27.17-1.54.22-1.76a4.18,4.18,0,0,1,3.12-3.15,4.78,4.78,0,0,1,.82-.07,4,4,0,0,1,1.48.28,3.92,3.92,0,0,1,1.79,1.55,3.53,3.53,0,0,1,.64,1.66c.05.54.08.94.08,1.21q0,1.29-.18,3.51c-.07,1-.18,2.33-.33,3.82s-.35,3.71-.64,6.65-.71,7.12-1.26,12.52c-.16,1.65-.34,3.23-.52,4.74s-.31,2.58-.41,3.22q-1.8,10.08-7.32,12.88a5.25,5.25,0,0,1-1.16.45,7,7,0,0,1-1.49.13h-.5c-.34,0-.62,0-.86,0A4.4,4.4,0,0,1,412.46,729.71Z" transform="translate(-191.75 -253.58)"/><path class="cls-2" d="M433.4,728a4.45,4.45,0,0,1-1.13-.93,4.77,4.77,0,0,1-.84-1.26,7.6,7.6,0,0,1-.36-2.83,63.57,63.57,0,0,1,.65-7.67q.64-4.56,2.09-10.6T437.1,693q4.36-13.46,9.18-15.68a3.48,3.48,0,0,1,1.06-.39,9.64,9.64,0,0,1,1.41-.07,6.27,6.27,0,0,1,2.12.3,5.34,5.34,0,0,1,1.72,1.13,7.81,7.81,0,0,1,1.92,2.62,20.37,20.37,0,0,1,1.31,4.7c.38,2.08.8,5,1.26,8.75q2.4,19.62,4.95,26.9a16,16,0,0,1,.53,1.68,4.41,4.41,0,0,1,.11.83,1,1,0,0,1,0,.32,3.69,3.69,0,0,1-3.76,3.45,4.2,4.2,0,0,1-3-1.19,5.79,5.79,0,0,1-1.11-1.34,11.55,11.55,0,0,1-.93-2.14,6,6,0,0,0-1-1.84,1.85,1.85,0,0,0-1.24-.63,3.84,3.84,0,0,0-.61,0c-.46,0-1.09,0-1.9.07l-4.29.27c-1.52.11-2.66.21-3.42.31a3.52,3.52,0,0,0-2.21.82,4.23,4.23,0,0,0-.73,2.44,6.41,6.41,0,0,1-.47,2.1,3.76,3.76,0,0,1-1.08,1.35,2.43,2.43,0,0,1-.75.43,4.65,4.65,0,0,1-1,.14h-.39a3.87,3.87,0,0,1-.65,0A2.2,2.2,0,0,1,433.4,728Zm12.41-15.42,2.66-.39a11.92,11.92,0,0,0,1.43-.29,1.57,1.57,0,0,0,.83-.9,1.42,1.42,0,0,0,.14-.39,2.11,2.11,0,0,0,0-.33,2.87,2.87,0,0,0,0-.39c0-.31-.08-.75-.16-1.31s-.2-1.33-.34-2.31c-.19-1.17-.41-2.65-.65-4.43s-.45-3.44-.64-5a53.83,53.83,0,0,0-.94-5.85.72.72,0,0,0-.64-.46h-.07a1.16,1.16,0,0,0-.83.61,34.19,34.19,0,0,0-2.06,5.68q-1.43,4.61-2.78,10a23.45,23.45,0,0,0-.86,4.73,1.52,1.52,0,0,0,.11.69,1.2,1.2,0,0,0,.28.27,4.59,4.59,0,0,0,.51.3,1.64,1.64,0,0,0,.46.18l1-.14Z" transform="translate(-191.75 -253.58)"/><path class="cls-2" d="M472.79,729.31a4.16,4.16,0,0,1-2-1.74,4.39,4.39,0,0,1-.59-2.06,4.29,4.29,0,0,1,.07-.79q.54-2.58,4.2-3.12a16.9,16.9,0,0,0,5.63-2,8.83,8.83,0,0,0,3.55-3.21,4.89,4.89,0,0,0,.31-.84,2.92,2.92,0,0,0,.05-.45,1.84,1.84,0,0,0,0-.39,5.54,5.54,0,0,0-2.09-3.2,33.08,33.08,0,0,0-6-3.83c-2.48-1.32-4.36-2.32-5.63-3s-2.2-1.25-2.81-1.67a19.17,19.17,0,0,1-1.71-1.3q-3.62-3.3-3.62-7.29a11.18,11.18,0,0,1,1-4.44,17.19,17.19,0,0,1,3-4.25,25.18,25.18,0,0,1,4.36-3.79c1-.64,2.26-1.33,3.7-2a31.81,31.81,0,0,1,3.69-1.62,11.86,11.86,0,0,1,3.59-.64,5,5,0,0,1,3.91,1.61,3.74,3.74,0,0,1,.86,2.3,3,3,0,0,1-.15.93,3.45,3.45,0,0,1-2.33,2.33c-.17.05-.42.1-.75.16s-.66.12-1,.16c-2.2.34-4.77,1.71-7.71,4.13q-3.56,2.87-3.55,4.77a1.87,1.87,0,0,0,.28,1,3,3,0,0,0,.81,1,15.13,15.13,0,0,0,2,1.28c.94.52,2.31,1.27,4.11,2.22a63.71,63.71,0,0,1,8.43,5.06,16.28,16.28,0,0,1,4.26,4.59,11.25,11.25,0,0,1,1.3,2.67,10.91,10.91,0,0,1,.43,2.89v.65c0,.38,0,.72,0,1a6.69,6.69,0,0,1-.18,1.29q-1.65,5.88-9.22,9.79a19,19,0,0,1-7.85,2.26A6.36,6.36,0,0,1,472.79,729.31Z" transform="translate(-191.75 -253.58)"/><path class="cls-2" d="M501.77,728c-1.49-.67-2.37-2.13-2.66-4.37-.12-1.08-.28-3-.5-5.78s-.39-5.31-.54-7.6q-.24-5-.27-8.86c0-2.59,0-4.3,0-5.13q0-5,.1-9.22a46.51,46.51,0,0,1,.47-6.71,4.22,4.22,0,0,1,3.16-3.3,2.6,2.6,0,0,1,.61-.07,3.32,3.32,0,0,1,1.72.5,3.65,3.65,0,0,1,1.54,1.83c.05.22.1,1.1.16,2.66s.13,3.42.2,5.59c.05,2,.09,4.19.14,6.67q.15,4.59.22,8,.11,5.08.32,9.21c.14,2.75.35,5.64.61,8.65.12,1.43.18,2.58.18,3.44v.68a4.44,4.44,0,0,1-.43,2,4.22,4.22,0,0,1-2,1.86,3.35,3.35,0,0,1-1.29.22h-.22A4.49,4.49,0,0,1,501.77,728Z" transform="translate(-191.75 -253.58)"/><path class="cls-2" d="M527.74,730.17a15,15,0,0,1-7.81-5.38,27.22,27.22,0,0,1-5-10.5,49.59,49.59,0,0,1-1.18-10.84,55.91,55.91,0,0,1,1.93-14.34,37.72,37.72,0,0,1,2.77-7,12.1,12.1,0,0,1,2.35-3.41,5.86,5.86,0,0,1,2.81-1.44,17.5,17.5,0,0,1,3.16-.25c.43,0,.87,0,1.32,0a29.56,29.56,0,0,1,5.13.61q12.88,3,14.28,22.24c0,.81.07,1.62.07,2.43A41.36,41.36,0,0,1,546,713.57a31.77,31.77,0,0,1-5.56,11.33,14.74,14.74,0,0,1-6.46,4.88,7.65,7.65,0,0,1-1.5.43,14.23,14.23,0,0,1-1.83.14h-.83A9.52,9.52,0,0,1,527.74,730.17Zm4.34-8.68c1.43-.83,2.84-2.63,4.23-5.38a25.31,25.31,0,0,0,2.81-9.09c.16-2.5.24-4.08.24-4.75a30.77,30.77,0,0,0-1.65-10.12,10.16,10.16,0,0,0-3.52-5.23,10.32,10.32,0,0,0-6-1.58H528a5.82,5.82,0,0,0-2.1.27,2,2,0,0,0-1,1,25.88,25.88,0,0,0-1.49,5,69,69,0,0,0-1.16,7.12c-.17,1.75-.25,3.41-.25,5a29,29,0,0,0,3,13.77c1.73,3,3.48,4.45,5.28,4.45A3.67,3.67,0,0,0,532.08,721.49Z" transform="translate(-191.75 -253.58)"/><path class="cls-2" d="M559,729.92a4.23,4.23,0,0,1-2.44-2.36,6.49,6.49,0,0,1-.47-1.81c-.12-.83-.25-2.14-.39-4s-.31-4.36-.51-7.66c-.12-2-.23-3.91-.35-5.86s-.22-3.43-.29-4.43c-.07-1.48-.12-3.21-.14-5.17s0-3.42,0-4.37c0-1.89,0-3.76,0-5.6,0-2.72.07-4.53.14-5.42.05-.43.12-.85.21-1.27a6.6,6.6,0,0,1,.29-.95,4.5,4.5,0,0,1,2.19-2.2,6,6,0,0,1,2.4-.63,4.25,4.25,0,0,1,1.33.21c.84.24,1.69,1.2,2.56,2.89a89.37,89.37,0,0,1,3.72,9.13q4.26,11.68,6.09,16l1,2.28c.31.73.53,1.26.65,1.6s.31.62.5,1,.36.58.5.77a2.94,2.94,0,0,0,.45.43.4.4,0,0,0,.2.07.35.35,0,0,0,.21-.07,1,1,0,0,0,.36-.47,4.27,4.27,0,0,0,.24-1.11c.06-.53.11-1.27.16-2.24s.09-2.26.14-3.86c0-1.79.11-3.63.2-5.52s.16-3.4.23-4.52c.14-2.32.31-4.81.49-7.48s.32-4.85.44-6.55a12.5,12.5,0,0,1,.42-2.95,3.72,3.72,0,0,1,1-1.64,4,4,0,0,1,2.76-1.15h.18a4,4,0,0,1,2.8,1.44,3.77,3.77,0,0,1,.81,1.58,12.14,12.14,0,0,1,.23,2.69v.5q-.07,2.12-.32,6-.79,11-1,19.84t-.76,12.66a13,13,0,0,1-1.75,5.59,5.4,5.4,0,0,1-4.74,2.87h-.14a5.61,5.61,0,0,1-3.61-1.29,16.54,16.54,0,0,1-3.53-4.9q-1.94-3.6-4.81-10.34c-.54-1.32-1-2.34-1.32-3a16,16,0,0,0-.79-1.53,1.23,1.23,0,0,0-.5-.52.4.4,0,0,0-.15,0c-.28,0-.5.3-.64.89v.33c0,.5,0,1.42.07,2.76.09,1.79.21,3.84.36,6.13s.3,4.34.46,6.14c.1,1.17.15,2.12.15,2.87a8.5,8.5,0,0,1,0,.93,3.48,3.48,0,0,1-.79,1.9,4,4,0,0,1-1.74,1.31,5,5,0,0,1-1.49.3A3.77,3.77,0,0,1,559,729.92Z" transform="translate(-191.75 -253.58)"/><path class="cls-2" d="M600,731.08c-2.39-1-3.7-2.25-3.94-3.77a25.07,25.07,0,0,1-.36-2.95,8.38,8.38,0,0,1,2.15-5.58,6.28,6.28,0,0,1,4.31-1.85,5.19,5.19,0,0,1,1.23.16,6.63,6.63,0,0,1,4.4,2.66,7,7,0,0,1,1.39,3.9,8.43,8.43,0,0,1-.57,2.92,7.54,7.54,0,0,1-3,3.66,7,7,0,0,1-3.57,1.15A7.32,7.32,0,0,1,600,731.08Z" transform="translate(-191.75 -253.58)"/><path class="cls-2" d="M352,512.61a2.56,2.56,0,0,1-1.14-.94,2.21,2.21,0,0,1-.47-1.3,2.75,2.75,0,0,1,.24-1,5.36,5.36,0,0,1,.55-1c.19-.21.73-.74,1.63-1.6s1.85-1.74,2.85-2.65,1.72-1.55,2.18-1.91A4,4,0,0,1,360.5,501a2.78,2.78,0,0,1,1.94.75,2.61,2.61,0,0,1,.74,1.93,3.57,3.57,0,0,1-1.23,2.48c-.29.27-.83.73-1.62,1.37s-1.65,1.34-2.59,2.08-1.77,1.39-2.49,1.94a11.56,11.56,0,0,1-1.34,1,2.39,2.39,0,0,1-.74.21l-.41,0A2.15,2.15,0,0,1,352,512.61Z" transform="translate(-191.75 -253.58)"/><path class="cls-2" d="M375.54,672.39a2.68,2.68,0,0,1-1.14-.94,2.28,2.28,0,0,1-.47-1.3,2.71,2.71,0,0,1,.24-1,6.46,6.46,0,0,1,.55-1c.19-.2.73-.73,1.64-1.59s1.85-1.75,2.84-2.66,1.72-1.54,2.18-1.9a4,4,0,0,1,2.71-1.17,2.76,2.76,0,0,1,1.94.75,2.61,2.61,0,0,1,.74,1.93,3.53,3.53,0,0,1-1.23,2.47q-.44.42-1.62,1.38c-.79.65-1.65,1.34-2.59,2.08s-1.76,1.39-2.49,1.94a11.56,11.56,0,0,1-1.34,1,2.11,2.11,0,0,1-.74.2l-.4,0A2.17,2.17,0,0,1,375.54,672.39Z" transform="translate(-191.75 -253.58)"/></svg>