<svg id="Layer_1" data-name="Layer 1" xmlns="http://www.w3.org/2000/svg" viewBox="0 0 976.7 998.15"><defs><style>.cls-1{fill:#0903f9;}.cls-2{fill:#41553d;}</style></defs><path class="cls-1" d="M72.47,105.17a9.7,9.7,0,0,1,2.46,6.24,10.81,10.81,0,0,1-1.41,5.1,8.65,8.65,0,0,1-2.55,2.9,31.19,31.19,0,0,1-5.36,2.9c-1.23.59-2.89,1.36-5,2.33l-6.1,2.86q-6.24,3-9.41,4.26A35.85,35.85,0,0,1,39,133.65a35.34,35.34,0,0,1-8.17,1,30.6,30.6,0,0,1-3.17-.17q-15.56-2.21-21.62-20-3.51-9.85-3.52-29.8c0-2.28,0-4.66.09-7.12q.18-8.43.66-17.49t1.1-14.41q.35-3.43,1.23-9.93t1.76-12.4Q8.21,17.55,8.57,16q1.75-7.29,7.73-9a8.19,8.19,0,0,1,2-.26,7.85,7.85,0,0,1,3.42.79A8.14,8.14,0,0,1,25.8,11.3a6.49,6.49,0,0,1,.61,1.5,6.77,6.77,0,0,1,.18,1.67c0,.64,0,1.52-.09,2.63q-.18,3.43-1,14.07T23.86,54.11q-.8,8.88-.79,27.51,0,8.52.05,12.56t.26,6c.14,1.29.34,2.49.57,3.6q1.66,7,4.48,9.23A4.6,4.6,0,0,0,31,114l1.41,0a13,13,0,0,0,4.13-.71c.82-.29,2.18-.84,4.09-1.67S44.49,110,46.54,109q8.34-4,12-5.36a19.13,19.13,0,0,1,5.8-1.5,9.52,9.52,0,0,1,1.14-.08A8.54,8.54,0,0,1,72.47,105.17ZM119,7.7q-4.83,0-9.32,4-2.37,1.85-7.51,6.55t-9.8,9.14c-3.11,3-5,4.79-5.63,5.49a21.43,21.43,0,0,0-1.89,3.61A9.44,9.44,0,0,0,84,40a7.7,7.7,0,0,0,1.63,4.48,9.11,9.11,0,0,0,3.91,3.25,7.93,7.93,0,0,0,2.81.44q.26,0,1.41-.09a7.93,7.93,0,0,0,2.54-.7A44.86,44.86,0,0,0,100.9,44q3.73-2.85,8.57-6.68t8.92-7.16q4.08-3.35,5.58-4.75,4.22-4.21,4.22-8.52a8.9,8.9,0,0,0-2.55-6.64A9.44,9.44,0,0,0,119,7.7ZM218.8,120.64a9.79,9.79,0,0,1,.27,2,3.18,3.18,0,0,1-.09.79q-1.41,8.08-9.23,8.44a10.28,10.28,0,0,1-7.29-2.9,14.13,14.13,0,0,1-2.73-3.3,27.68,27.68,0,0,1-2.28-5.23,14.93,14.93,0,0,0-2.33-4.52,4.43,4.43,0,0,0-3-1.54,8.43,8.43,0,0,0-1.49-.09c-1.11,0-2.67.06-4.66.18q-4.92.26-10.5.66t-8.39.74q-4,.45-5.41,2t-1.8,6a15.63,15.63,0,0,1-1.14,5.14,9.24,9.24,0,0,1-2.64,3.3,5.34,5.34,0,0,1-1.85,1,11.14,11.14,0,0,1-2.54.36h-1a11.22,11.22,0,0,1-1.58-.09,5.57,5.57,0,0,1-1.76-.62,12.61,12.61,0,0,1-4.84-5.36q-.87-1.94-.87-6.94a154.57,154.57,0,0,1,1.58-18.81q1.58-11.16,5.14-26t8-28.7q10.72-33,22.5-38.41a8.71,8.71,0,0,1,2.59-1A23.94,23.94,0,0,1,185,7.7a15.1,15.1,0,0,1,5.18.75,13.2,13.2,0,0,1,4.22,2.77,19.18,19.18,0,0,1,4.7,6.41,50.49,50.49,0,0,1,3.21,11.52q1.41,7.64,3.08,21.44,5.88,48.07,12.13,65.92A35.29,35.29,0,0,1,218.8,120.64Zm-28.56-31a5.72,5.72,0,0,0-.09-1q-.09-1.14-.39-3.21t-.84-5.67q-.71-4.3-1.58-10.85t-1.58-12.18q-1.68-12.65-2.29-14.32a1.82,1.82,0,0,0-1.58-1.15h-.18a3,3,0,0,0-2,1.5q-1.58,2.64-5.05,13.93t-6.81,24.48q-2.12,8.34-2.11,11.6a4.05,4.05,0,0,0,.26,1.67,3.52,3.52,0,0,0,.7.66,8.46,8.46,0,0,0,1.24.74,4.11,4.11,0,0,0,1.14.44l2.55-.35c1.7-.17,3.75-.41,6.15-.7s4.63-.67,6.5-1a23.51,23.51,0,0,0,3.52-.7,5.16,5.16,0,0,0,2.37-3.16A4.08,4.08,0,0,0,190.24,89.61Zm114.67,15.64q0-5.91.18-12.61.44-11.82.44-19.44c0-2.55-.08-5.67-.22-9.39a33.31,33.31,0,0,0-1.57-9.5c-1.68-5-4.35-8.25-8-9.72a10.42,10.42,0,0,0-3.93-.8,12.67,12.67,0,0,0-7.26,2.58q-6.78,5.48-14.15,21.35a33.28,33.28,0,0,1-2.28,4.49c-.45.62-.86.92-1.23.92a.71.71,0,0,1-.31-.06.93.93,0,0,1-.58-.3,2.67,2.67,0,0,1-.43-.87c-.15-.41-.32-1-.53-1.81s-.45-1.9-.74-3.29a55.71,55.71,0,0,0-3.16-11.14,18.23,18.23,0,0,0-4.46-6.4,15.88,15.88,0,0,0-2.53-2,9.43,9.43,0,0,0-2.64-1.07,10.91,10.91,0,0,0-2.65-.37H248a8.17,8.17,0,0,0-2.31.55q-5.34,1.73-9.5,8.68t-6.37,17.78A149.58,149.58,0,0,0,227.27,102q0,7.26.34,11.5a93.66,93.66,0,0,0,1.38,9.85,28.43,28.43,0,0,0,2,6.83,7.42,7.42,0,0,0,2.95,3.32,7.64,7.64,0,0,0,3.57,1,6,6,0,0,0,4.37-2,5.49,5.49,0,0,0,1.41-3.87,9.79,9.79,0,0,0-.24-2.09c-.41-1.85-.7-3.28-.86-4.28s-.31-2.35-.43-4-.27-4.43-.31-8.12v-5.48q0-2.76,0-6.86c0-2.72.11-4.95.28-6.67.08-1.07.2-2.37.36-3.91s.33-3,.5-4.27q1.35-10.27,3.13-14.65c.78-1.88,1.56-2.83,2.34-2.83a1.81,1.81,0,0,1,1.29.86,6,6,0,0,1,.8,2.1q.43,1.65,1.11,5.78T253.05,86q1.09,7.73,2.83,20.27c.28,2.26.55,4,.8,5.17a9.25,9.25,0,0,0,.92,2.74A10.72,10.72,0,0,0,259,116a8.73,8.73,0,0,0,1.54,1.26,5.24,5.24,0,0,0,1.54.58,7.49,7.49,0,0,0,1.66.19,8.1,8.1,0,0,0,7.32-5,19.42,19.42,0,0,0,.77-2.18c.31-1,.59-2,.83-3.11q5.29-23.5,12-37,1.47-2.89,2.34-4.4a8.42,8.42,0,0,1,1.41-2,1.81,1.81,0,0,1,1.23-.5,1.24,1.24,0,0,1,.77.22,1.91,1.91,0,0,1,.52.89,4.84,4.84,0,0,1,.28,1.42c.06.65.09,1.8.09,3.44s0,4-.06,7.08q-.24,14.76-.37,22.45-.06,5.11-.06,8.43c0,1.15,0,2.55,0,4.19s.07,3.42.16,5.35a89.16,89.16,0,0,0,1,11.13,9.55,9.55,0,0,0,2,4.68,6.85,6.85,0,0,0,1,.92,5.22,5.22,0,0,0,1.17.74,6.56,6.56,0,0,0,2.83.68,10,10,0,0,0,2.65-.53,5.73,5.73,0,0,0,3.07-2.67,7.94,7.94,0,0,0,1.11-3,12.84,12.84,0,0,0,.06-1.35c0-.86-.06-1.89-.18-3.08Q304.92,116.52,304.91,105.25Zm63.68-59.31a3.81,3.81,0,0,0-1.42-.74,12.47,12.47,0,0,0-2.09-.12,10.86,10.86,0,0,0-2.18.15,5.26,5.26,0,0,0-1.51.71q-2.83,1.73-3.39,6-.12,1-.18,5t-.06,8.83q-.12,57.35-12.18,57.34c-1.68,0-3.37-1-5.05-2.89a19.11,19.11,0,0,1-3.81-7.38q-3.57-11.82-4.06-42.14c-.09-4.07-.18-7.59-.28-10.59s-.17-4.75-.21-5.29q-.44-4.43-3.76-5.9a5.82,5.82,0,0,0-2.4-.56,6.84,6.84,0,0,0-2.86.83,6.43,6.43,0,0,0-2.8,3.54,8.69,8.69,0,0,0-.43,1.72c-.12.74-.23,1.88-.34,3.42s-.23,3.68-.4,6.43q-.42,7.14-.43,13.66,0,7.68.62,14.51,1.35,16.24,4,24.92t7.81,13.6a23.71,23.71,0,0,0,11.51,6.58,17,17,0,0,0,3.19.31q7,0,13.29-6.09,5.61-5.3,8.62-17.23,2.58-9.78,3.69-28,.24-4.42.37-12.12T372,60q0-6.76-.18-8.43A8,8,0,0,0,368.59,45.94Zm60,54.88A27.85,27.85,0,0,0,421.31,93a107.9,107.9,0,0,0-14.46-8.68q-4.61-2.46-7-3.81a25.9,25.9,0,0,1-3.45-2.19A4.85,4.85,0,0,1,395,76.64a3.21,3.21,0,0,1-.49-1.72q0-3.26,6.09-8.18,7.56-6.22,13.23-7.08c.53-.08,1.08-.17,1.66-.28s1-.19,1.29-.27a5.94,5.94,0,0,0,4-4,5.54,5.54,0,0,0,.24-1.6,6.39,6.39,0,0,0-1.47-3.94,8.54,8.54,0,0,0-6.71-2.77,20.37,20.37,0,0,0-6.15,1.11,56.77,56.77,0,0,0-6.34,2.77q-3.69,1.84-6.33,3.51a42.86,42.86,0,0,0-7.48,6.49A28.88,28.88,0,0,0,381.45,68a19.26,19.26,0,0,0-1.73,7.63q0,6.83,6.22,12.48a32.59,32.59,0,0,0,2.92,2.25q1.56,1.08,4.83,2.86t9.66,5.17a57.56,57.56,0,0,1,10.24,6.58c2.15,1.89,3.35,3.71,3.6,5.48a4.16,4.16,0,0,1,.06.67,4.05,4.05,0,0,1-.09.77,8.57,8.57,0,0,1-.52,1.45c-1.07,2-3.1,3.8-6.09,5.51a29.09,29.09,0,0,1-9.66,3.41q-6.28.93-7.2,5.35a7.81,7.81,0,0,0-.12,1.36,7.42,7.42,0,0,0,1,3.53,7.07,7.07,0,0,0,3.35,3,11.26,11.26,0,0,0,4,.67q5.42,0,13.48-3.87,13-6.7,15.81-16.8a13.68,13.68,0,0,0,.31-2.21c0-.53.06-1.13.06-1.79v-1.1a18.15,18.15,0,0,0-.74-5A18.94,18.94,0,0,0,428.63,100.82Zm55.62,12a4.91,4.91,0,0,0-1.6-.68,3.65,3.65,0,0,0-1-.12,7.75,7.75,0,0,0-.93.06,6.54,6.54,0,0,0-2.27.4,19.49,19.49,0,0,0-2.89,1.44q-1.79,1-4.93,3.14-2.14,1.43-4,2.56a20.53,20.53,0,0,1-2.67,1.44,6.55,6.55,0,0,1-2.46.56,4.34,4.34,0,0,1-2.93-1.36q-1.44-1.35-2.43-6.4a14.63,14.63,0,0,1-.3-1.6v-.55a4.81,4.81,0,0,1,0-.52,2.68,2.68,0,0,1,.21-.71,4,4,0,0,1,.53-.86,4.28,4.28,0,0,1,.64-.68,10.81,10.81,0,0,1,1.72-.52c.91-.23,1.91-.46,3-.71,4.22-.74,7.25-1.31,9.07-1.72a20.68,20.68,0,0,0,3.79-1.11q4.92-2.4,4.92-6.58a7.38,7.38,0,0,0-.25-1.85,6.7,6.7,0,0,0-3.5-4.06,5.66,5.66,0,0,0-3-.68c-.24,0-.86.06-1.84.16a66.08,66.08,0,0,0-6.71,1.44q-3.51.87-5.35,1.17a13.34,13.34,0,0,1-2.28.25c-.16,0-.43,0-.8-.06a1.45,1.45,0,0,1-1-.62,2.14,2.14,0,0,1-.52-.74,3.5,3.5,0,0,1-.22-1.1c0-.5-.08-1.23-.12-2.22V88.45c0-1.23,0-3.09.06-5.59s.11-5.46.21-8.86.21-6.39.31-9a33.82,33.82,0,0,1,.34-4.52A3.66,3.66,0,0,1,458,58c.33-.08,1.2-.18,2.62-.31s3-.22,4.82-.31q5.41-.24,8.34-.43a38.86,38.86,0,0,0,4.28-.43,10,10,0,0,0,2.09-.55,6.94,6.94,0,0,0,4.06-4.86,6.41,6.41,0,0,0,.12-1.23,6.76,6.76,0,0,0-2-4.74,6.12,6.12,0,0,0-2.95-1.78,20.61,20.61,0,0,0-4.62-.37h-.92a71,71,0,0,0-7.38.43q-4.12.44-10.52,1.41-3.88.62-6,1.08A12.78,12.78,0,0,0,446.75,47a7.91,7.91,0,0,0-2,1.57,6.33,6.33,0,0,0-1.54,2.33,22.7,22.7,0,0,0-1,4.56c-.29,2.09-.61,5.12-1,9.1Q439.95,78.6,440,90.3a150.68,150.68,0,0,0,1.54,22.7q3.33,19.81,14.58,22.77a18,18,0,0,0,3.88.43,26.25,26.25,0,0,0,10.83-2.65c1.1-.57,2.69-1.52,4.77-2.83s4.07-2.63,6-4a45.81,45.81,0,0,0,4-3,6.55,6.55,0,0,0,2.28-5,4.52,4.52,0,0,0-.06-.74A5.77,5.77,0,0,0,484.25,112.82Zm75-26.9a5.38,5.38,0,0,0-1.58-.39c-.71-.09-1.8-.16-3.3-.22s-3.63-.09-6.41-.09H536.83q-13.89,0-21.18.26a54.2,54.2,0,0,0-10.46,1.1,9.86,9.86,0,0,0-4.75,2.51,8.27,8.27,0,0,0-2.72,6.15c0,.06,0,.7,0,1.93s1,2.67,2.94,4.31a7.15,7.15,0,0,0,2.55,1.54,19.74,19.74,0,0,0,4.31.74q2.9.27,8.61.44l10.15.4q5.41.23,9.1.4,7.38.34,12.39.35c1.29,0,3.11,0,5.45-.09a19.9,19.9,0,0,0,6.11-1,9.57,9.57,0,0,0,4.26-3A9.41,9.41,0,0,0,566,95.24a17.32,17.32,0,0,0-.84-4.13C564.61,89.17,562.64,87.45,559.24,85.92Zm102.66-55a35,35,0,0,1,.61,7.12,43,43,0,0,1-.53,7.3,52.92,52.92,0,0,1-1.53,5.45,59.17,59.17,0,0,1-2.51,5.8q-3.42,7.11-11.6,16.26-1.76,2-3,3.69a13.51,13.51,0,0,0-1.45,2.11,2.49,2.49,0,0,0-.18,1,3.26,3.26,0,0,0,.53,1.67,20.51,20.51,0,0,0,3.51,3.61c1,1,1.95,2,2.86,2.94a23.72,23.72,0,0,1,2,2.33,20.53,20.53,0,0,1,2.81,10.64,31.55,31.55,0,0,1-.26,4A36,36,0,0,1,646,120.9q-10.2,12.93-31.47,16.18a42.46,42.46,0,0,1-5.1.43h-2.37c-1.76,0-3.75-.08-6-.26a21.05,21.05,0,0,1-5.1-.88,8.82,8.82,0,0,1-3.17-1.93,10,10,0,0,1-2.41-2.9,16.8,16.8,0,0,1-1.5-5.28c-.38-2.4-.74-6-1.1-10.76s-.76-11.24-1.23-19.38Q585.52,76.79,585,65.84t-.7-17.75q-.18-6.81-.18-14.81t.13-12.13a45.94,45.94,0,0,1,.49-6.11,12.12,12.12,0,0,1,1-3.38A7.86,7.86,0,0,1,590,7.52a43.21,43.21,0,0,1,10.33-2.28A133,133,0,0,1,618.3,3.83a61.63,61.63,0,0,1,8.44.53,63.66,63.66,0,0,1,12.79,3.78,49.83,49.83,0,0,1,10.94,6A30.45,30.45,0,0,1,661.9,30.9Zm-29.8,72.25q0-2.73-3.16-3.87a18.05,18.05,0,0,0-5.28-.53,58.14,58.14,0,0,0-7.42.49,23,23,0,0,0-5.41,1.18,4.64,4.64,0,0,0-2.55,2.42,15.25,15.25,0,0,0-.61,5.14,21,21,0,0,0,.52,5.58,3.81,3.81,0,0,0,1.94,2.42,4.21,4.21,0,0,0,2.46.79,19.26,19.26,0,0,0,4.31-.79,27.57,27.57,0,0,0,10.89-5.4Q632.1,106.94,632.1,103.15Zm10-65.57a8.2,8.2,0,0,0-.09-1.32,6.22,6.22,0,0,0-.79-2.19,7.67,7.67,0,0,0-1.1-1.85,8.93,8.93,0,0,0-1.54-1.58,26.35,26.35,0,0,0-5.4-3.21A46.85,46.85,0,0,0,626,24.75a24.9,24.9,0,0,0-3.17-.75,33.32,33.32,0,0,0-3.34-.3c-1.29-.06-3.07-.09-5.36-.09s-4.19,0-5.36,0a13.72,13.72,0,0,0-2.46.22,2.34,2.34,0,0,0-1.14.62,4,4,0,0,0-1.5,1.76,9.66,9.66,0,0,0-.44,3.42c0,1.53.12,3.78.36,6.77q.26,3.51.57,9.36t.66,11.38c.17,3.58.35,6.74.52,9.49s.3,4.46.36,5.1q.44,4.49,3.25,4.48a3.24,3.24,0,0,0,.88-.21c.41-.15.88-.34,1.4-.58q5.9-2.8,13.71-9.93A78.89,78.89,0,0,0,637.2,51.82a37.24,37.24,0,0,0,3.73-6.59A16.3,16.3,0,0,0,642,39.6C642.09,38.84,642.12,38.17,642.12,37.58Zm80.83,87a6.54,6.54,0,0,1,.19,1.41,2.4,2.4,0,0,1-.06.56q-1,5.65-6.46,5.9a7.16,7.16,0,0,1-5.11-2,10,10,0,0,1-1.91-2.3,20.62,20.62,0,0,1-1.6-3.66,10,10,0,0,0-1.63-3.17,3.07,3.07,0,0,0-2.12-1.08,6.27,6.27,0,0,0-1-.06c-.78,0-1.86,0-3.26.12-2.29.12-4.74.28-7.35.46s-4.56.36-5.87.53a6,6,0,0,0-3.79,1.41c-.67.74-1.1,2.13-1.26,4.18a10.69,10.69,0,0,1-.8,3.6,6.27,6.27,0,0,1-1.84,2.31,3.88,3.88,0,0,1-1.3.74,8.74,8.74,0,0,1-1.78.25h-.68a6.6,6.6,0,0,1-1.1-.07,3.8,3.8,0,0,1-1.24-.43,9,9,0,0,1-3.38-3.75,13.16,13.16,0,0,1-.61-4.86,108.39,108.39,0,0,1,1.1-13.17q1.11-7.8,3.6-18.18t5.63-20.08q7.5-23.07,15.75-26.89a6.28,6.28,0,0,1,1.82-.68,17.43,17.43,0,0,1,2.43-.12,10.9,10.9,0,0,1,3.63.52,9.39,9.39,0,0,1,3,1.94,13.52,13.52,0,0,1,3.29,4.49,35.44,35.44,0,0,1,2.25,8.06q1,5.35,2.15,15,4.13,33.66,8.49,46.15A24.66,24.66,0,0,1,723,124.57Zm-20-21.72a4.37,4.37,0,0,0-.06-.68c0-.53-.14-1.28-.28-2.24s-.34-2.29-.58-4q-.49-3-1.11-7.6t-1.11-8.52a90.84,90.84,0,0,0-1.6-10,1.28,1.28,0,0,0-1.11-.8H697a2,2,0,0,0-1.41,1q-1.11,1.84-3.54,9.75t-4.77,17.13a40.22,40.22,0,0,0-1.48,8.13,2.59,2.59,0,0,0,.19,1.16,2,2,0,0,0,.49.47,5.75,5.75,0,0,0,.86.52,3.71,3.71,0,0,0,.8.31l1.79-.25c1.18-.12,2.62-.29,4.3-.49s3.24-.47,4.55-.68a16.94,16.94,0,0,0,2.47-.49,2.66,2.66,0,0,0,1.41-1.54,3.37,3.37,0,0,0,.25-.68A2.8,2.8,0,0,0,703,102.85Zm75.36,10.52a7.6,7.6,0,0,1,.25,1.91,6.83,6.83,0,0,1-.61,2.77,6.67,6.67,0,0,1-3.39,3.2,5.62,5.62,0,0,1-2.34.43,21.24,21.24,0,0,1-5.9-1.11c-1.85-.57-4-1.15-6.34-1.72s-4.57-1.08-6.58-1.51a25.51,25.51,0,0,0-3.88-.65c-1.31,0-2,.31-2.21.93a6.44,6.44,0,0,0-.25,1.72,29.68,29.68,0,0,0,.55,4.8c.41,2.42.64,4,.68,4.73s.06,1.26.06,1.54a6.41,6.41,0,0,1-.31,2.16,5.79,5.79,0,0,1-1.35,2.27,7.73,7.73,0,0,1-2.28,1.79,7.54,7.54,0,0,1-2.76.49,7.87,7.87,0,0,1-2.77-.49,8,8,0,0,1-3.63-3.88q-1.6-4.12-3.42-18.83t-2.92-32.17c-.2-3.28-.31-5.7-.31-7.26V71.1q0-3.25.13-7.75.12-5.66.3-8.27a9.81,9.81,0,0,1,.74-3.63,7.21,7.21,0,0,1,1.72-2q3.45-3.2,12.37-3.51c.62,0,1.21-.06,1.79-.06q12.54,0,21.59,6.58A23.15,23.15,0,0,1,776,66.74a27.49,27.49,0,0,1,.37,4.43q0,12.24-10.65,25c-.65.78-1.32,1.56-2,2.36s-1.2,1.41-1.57,1.82a3.83,3.83,0,0,0-1.23,2.4,1.64,1.64,0,0,0,.68,1.29q.74.67,5,1.85a30.37,30.37,0,0,1,8.37,3.26A7.32,7.32,0,0,1,778.32,113.37ZM761.65,75.16a15.73,15.73,0,0,0,.43-3.75,10.81,10.81,0,0,0-.49-3.44,10.52,10.52,0,0,0-4.86-5.39,24.7,24.7,0,0,0-9.23-3.1,11.67,11.67,0,0,0-1.54-.19h-.55a3.58,3.58,0,0,0-.68.06,4.3,4.3,0,0,0-.92.31.62.62,0,0,1-.19.12,2.25,2.25,0,0,0-1,.74,2.56,2.56,0,0,0-.4,1.48c0,.66,0,1.21,0,1.66q0,1.35.06,3.51c.12,2.17.31,5.16.55,9,0,.57,0,1.17.07,1.78.24,3.74.44,6.7.58,8.89s.3,3.84.46,4.93a9.88,9.88,0,0,0,.52,2.24,1.46,1.46,0,0,0,.71.8.89.89,0,0,0,.49.25h.62l.92-.37a11.11,11.11,0,0,0,2.49-2Q751.38,91,753.31,89a44.52,44.52,0,0,0,3.17-3.76A37.53,37.53,0,0,0,759.62,80,27.2,27.2,0,0,0,761.65,75.16Zm46.71,45.48c-2.06-3.69-4.66-5.77-7.83-6.24a13.06,13.06,0,0,0-1.49-.09,7,7,0,0,0-5.89,3,6.29,6.29,0,0,0-1.14,3.78,17.37,17.37,0,0,0,1.93,7.12,14.8,14.8,0,0,1,1.85,6.68,8.84,8.84,0,0,1-.18,1.76,16.13,16.13,0,0,1-1.14,3.91,18.55,18.55,0,0,1-2.37,3.82,8.67,8.67,0,0,0-1.85,4.83,6.91,6.91,0,0,0,1.32,3.48c.88,1.37,2.72,2.12,5.54,2.24h.35q4,0,7.91-4.13a26,26,0,0,0,6.06-13.45,21,21,0,0,0,.27-3.34A30.88,30.88,0,0,0,808.36,120.64Z" transform="translate(0 -3.83)"/><path class="cls-2" d="M6,330.58q-3.51-9.85-3.52-29.8c0-2.28,0-4.66.09-7.12q.18-8.43.66-17.49t1.1-14.41q.35-3.43,1.23-9.93t1.76-12.4q.87-5.88,1.23-7.47,1.75-7.29,7.73-9.05a8.19,8.19,0,0,1,2-.26,7.85,7.85,0,0,1,3.42.79,8.14,8.14,0,0,1,4.05,3.86,6.49,6.49,0,0,1,.61,1.5,6.77,6.77,0,0,1,.18,1.67c0,.64,0,1.52-.09,2.63q-.18,3.43-1,14.07t-1.67,22.94q-.8,8.88-.79,27.51,0,8.52.05,12.56t.26,6c.14,1.29.34,2.49.57,3.6q1.66,7,4.48,9.23A4.6,4.6,0,0,0,31,330l1.41.05a13,13,0,0,0,4.13-.71c.82-.29,2.18-.84,4.09-1.67S44.49,326,46.54,325q8.34-4,12-5.36a19.13,19.13,0,0,1,5.8-1.5,9.52,9.52,0,0,1,1.14-.08,8.54,8.54,0,0,1,7,3.16,9.7,9.7,0,0,1,2.46,6.24,10.81,10.81,0,0,1-1.41,5.1,8.65,8.65,0,0,1-2.55,2.9,31.19,31.19,0,0,1-5.36,2.9c-1.23.59-2.89,1.36-5,2.33l-6.1,2.86q-6.24,3-9.41,4.26A35.85,35.85,0,0,1,39,349.65a35.34,35.34,0,0,1-8.17,1.05,30.6,30.6,0,0,1-3.17-.17Q12.09,348.33,6,330.58Zm91.32,21.19a17.93,17.93,0,0,0,3.87.43A26.18,26.18,0,0,0,112,349.55c1.11-.57,2.7-1.52,4.77-2.83s4.07-2.63,6-4a45.81,45.81,0,0,0,4-3,6.54,6.54,0,0,0,2.27-5,4.52,4.52,0,0,0-.06-.74,5.76,5.76,0,0,0-3.5-5.23,5,5,0,0,0-1.6-.68,3.73,3.73,0,0,0-1-.12,7.72,7.72,0,0,0-.92.06,6.6,6.6,0,0,0-2.28.4,20,20,0,0,0-2.89,1.44q-1.78,1.05-4.92,3.14-2.16,1.43-4,2.56a19.83,19.83,0,0,1-2.68,1.44,6.55,6.55,0,0,1-2.46.56,4.32,4.32,0,0,1-2.92-1.36q-1.44-1.35-2.43-6.4a15.19,15.19,0,0,1-.31-1.6v-.55a4.81,4.81,0,0,1,0-.52,2.76,2.76,0,0,1,.22-.71,3.94,3.94,0,0,1,.52-.86,4.29,4.29,0,0,1,.65-.68,10.46,10.46,0,0,1,1.72-.52c.9-.23,1.91-.46,3-.71q6.33-1.11,9.07-1.72a20.51,20.51,0,0,0,3.78-1.11c3.28-1.6,4.93-3.79,4.93-6.58a7.87,7.87,0,0,0-.25-1.85,6.68,6.68,0,0,0-3.51-4.06,5.63,5.63,0,0,0-3-.68c-.25,0-.86.06-1.85.16a66.11,66.11,0,0,0-6.7,1.44q-3.51.87-5.35,1.17a13.54,13.54,0,0,1-2.28.25c-.17,0-.43,0-.8-.06a1.47,1.47,0,0,1-1-.62,2.28,2.28,0,0,1-.52-.74,3.87,3.87,0,0,1-.21-1.1c-.05-.5-.09-1.23-.13-2.22v-1.54c0-1.23,0-3.09.06-5.59s.12-5.46.22-8.86.2-6.39.31-9a32,32,0,0,1,.34-4.52A3.65,3.65,0,0,1,99.25,274c.32-.08,1.2-.18,2.61-.31s3-.22,4.83-.31q5.41-.24,8.34-.43a38.62,38.62,0,0,0,4.27-.43,10,10,0,0,0,2.09-.55,7,7,0,0,0,4.07-4.86,6.41,6.41,0,0,0,.12-1.23,6.8,6.8,0,0,0-2-4.74,6.14,6.14,0,0,0-3-1.78A20.51,20.51,0,0,0,116,259h-.92a71,71,0,0,0-7.39.43q-4.11.43-10.52,1.41-3.87.62-6,1.08A12.64,12.64,0,0,0,88,263a7.74,7.74,0,0,0-2,1.57,6.21,6.21,0,0,0-1.54,2.33,21.37,21.37,0,0,0-1,4.56q-.44,3.13-1,9.1-1.29,14.09-1.29,25.78A149.38,149.38,0,0,0,82.76,329Q86.07,348.81,97.34,351.77Zm101.57-12.43a28.9,28.9,0,0,0,2,6.83,7.44,7.44,0,0,0,3,3.32,7.63,7.63,0,0,0,3.56,1,6,6,0,0,0,4.37-2,5.45,5.45,0,0,0,1.42-3.87,9.83,9.83,0,0,0-.25-2.09c-.41-1.85-.7-3.28-.86-4.28s-.31-2.35-.43-4-.27-4.43-.31-8.12v-5.48q0-2.76,0-6.86c0-2.72.11-4.95.28-6.67.08-1.07.2-2.37.37-3.91s.33-3,.49-4.27q1.35-10.28,3.14-14.65c.78-1.88,1.56-2.83,2.34-2.83a1.81,1.81,0,0,1,1.29.86,6.45,6.45,0,0,1,.8,2.1q.42,1.65,1.11,5.78T223,302q1.11,7.73,2.83,20.27c.29,2.26.55,4,.8,5.17a9.55,9.55,0,0,0,.92,2.74,10.32,10.32,0,0,0,1.42,1.88,8.06,8.06,0,0,0,1.54,1.26,5.17,5.17,0,0,0,1.53.58,7.55,7.55,0,0,0,1.66.19,8.24,8.24,0,0,0,3.91-1.11A8.34,8.34,0,0,0,241,329a21.71,21.71,0,0,0,.77-2.18c.3-1,.58-2,.83-3.11q5.28-23.5,12-37,1.49-2.89,2.34-4.4a8.38,8.38,0,0,1,1.42-2,1.78,1.78,0,0,1,1.23-.5,1.28,1.28,0,0,1,.77.22,2.1,2.1,0,0,1,.52.89,5.62,5.62,0,0,1,.28,1.42c.06.65.09,1.8.09,3.44s0,4-.06,7.08q-.26,14.76-.37,22.45-.06,5.12-.06,8.43c0,1.15,0,2.55,0,4.19s.07,3.42.15,5.35a91.19,91.19,0,0,0,1,11.13,9.55,9.55,0,0,0,2,4.68,7,7,0,0,0,1,.92,5.22,5.22,0,0,0,1.17.74,6.5,6.5,0,0,0,2.83.68,10,10,0,0,0,2.64-.53,5.75,5.75,0,0,0,3.08-2.67,8.29,8.29,0,0,0,1.11-3,12.84,12.84,0,0,0,.06-1.35,28.83,28.83,0,0,0-.19-3.08q-.74-8.3-.74-19.56,0-5.91.19-12.61.44-11.82.43-19.44c0-2.55-.07-5.67-.22-9.39a33.33,33.33,0,0,0-1.56-9.5c-1.69-5-4.35-8.25-8-9.72a10.51,10.51,0,0,0-3.94-.8,12.67,12.67,0,0,0-7.26,2.58q-6.76,5.47-14.15,21.35a32.11,32.11,0,0,1-2.28,4.49c-.45.62-.86.92-1.23.92a.75.75,0,0,1-.31-.06,1,1,0,0,1-.58-.3,2.89,2.89,0,0,1-.43-.87c-.14-.41-.32-1-.52-1.81s-.45-1.9-.74-3.29a56.31,56.31,0,0,0-3.17-11.14,18.23,18.23,0,0,0-4.46-6.4,15.42,15.42,0,0,0-2.52-2,9.37,9.37,0,0,0-2.65-1.07,10.84,10.84,0,0,0-2.64-.37H218a8,8,0,0,0-2.31.55q-5.35,1.72-9.51,8.68t-6.36,17.78A148.76,148.76,0,0,0,197.19,318q0,7.26.34,11.5A96.38,96.38,0,0,0,198.91,339.34Zm86.63,6.15a13.1,13.1,0,0,1-.62-4.86A108.8,108.8,0,0,1,286,327.46q1.11-7.8,3.6-18.18t5.63-20.08q7.5-23.07,15.75-26.89a6.35,6.35,0,0,1,1.81-.68,17.63,17.63,0,0,1,2.43-.12,10.82,10.82,0,0,1,3.63.52,9.31,9.31,0,0,1,3,1.94,13.52,13.52,0,0,1,3.29,4.49,35.44,35.44,0,0,1,2.25,8.06q1,5.36,2.15,15,4.13,33.66,8.49,46.15a24.66,24.66,0,0,1,.92,2.89,7.24,7.24,0,0,1,.19,1.41,2.38,2.38,0,0,1-.07.56q-1,5.65-6.46,5.9a7.15,7.15,0,0,1-5.1-2,9.71,9.71,0,0,1-1.91-2.3,19.91,19.91,0,0,1-1.6-3.66,10.24,10.24,0,0,0-1.63-3.17,3.07,3.07,0,0,0-2.12-1.08,6.35,6.35,0,0,0-1.05-.06c-.78,0-1.86,0-3.26.12-2.3.12-4.75.28-7.35.46s-4.56.36-5.88.53a6,6,0,0,0-3.78,1.41c-.68.74-1.1,2.13-1.26,4.18a10.69,10.69,0,0,1-.8,3.6,6.3,6.3,0,0,1-1.85,2.31,3.76,3.76,0,0,1-1.29.74,8.74,8.74,0,0,1-1.78.25h-.68a6.81,6.81,0,0,1-1.11-.07,3.82,3.82,0,0,1-1.23-.43,8.8,8.8,0,0,1-3.38-3.75Zm16.24-24.42a2.59,2.59,0,0,0,.19,1.16,2,2,0,0,0,.49.47,5.29,5.29,0,0,0,.86.52,3.53,3.53,0,0,0,.8.31l1.78-.25c1.19-.12,2.63-.29,4.31-.49s3.24-.47,4.55-.68a16.68,16.68,0,0,0,2.46-.49,2.64,2.64,0,0,0,1.42-1.54,2.79,2.79,0,0,0,.24-.68,2.24,2.24,0,0,0,.07-.55,3.49,3.49,0,0,0-.07-.68c0-.53-.13-1.28-.27-2.24s-.34-2.29-.59-4c-.33-2-.69-4.54-1.1-7.6s-.78-5.89-1.11-8.52a90.84,90.84,0,0,0-1.6-10,1.28,1.28,0,0,0-1.11-.8H313a2.05,2.05,0,0,0-1.42,1.05q-1.1,1.85-3.53,9.75t-4.77,17.13A39.5,39.5,0,0,0,301.78,321.07Zm54.42,25.31A20.12,20.12,0,0,0,366.63,352a16.56,16.56,0,0,0,11.87-2.77q7-4.24,10.21-18,1-3.95,2-9.48t1.76-10.58a57.71,57.71,0,0,0,.74-7.08q0-6-4.74-8.36a11.23,11.23,0,0,0-1.29-.56,5.33,5.33,0,0,0-1.42-.21q-.86,0-2.46,0a60.86,60.86,0,0,0-6.95.52,29,29,0,0,0-5.29,1.08,6.76,6.76,0,0,0-4.31,4.67,7.08,7.08,0,0,0-.18,1.54,6.24,6.24,0,0,0,1.84,4.37,5.11,5.11,0,0,0,2,1.38,12.9,12.9,0,0,0,3.14.59c2.09.08,3.38.53,3.88,1.35a3.55,3.55,0,0,1,.36,1.85,17.7,17.7,0,0,1-.36,3.14q-2.47,14.7-5,19.56c-1.07,1.6-2.23,2.4-3.51,2.4s-2.46-.72-3.81-2.15q-2.58-3.15-4.28-9.66A54.07,54.07,0,0,1,359.18,312a60.52,60.52,0,0,1,6.65-27.62A34.92,34.92,0,0,1,377,270.74q3.45-2.52,3.51-5.48a3.48,3.48,0,0,0,.06-.67,5.27,5.27,0,0,0-2-4.13,5.58,5.58,0,0,0-3.81-1.41,11.51,11.51,0,0,0-4.93,1.35,31.86,31.86,0,0,0-6.73,4.93,48.41,48.41,0,0,0-6.25,6.95,59.33,59.33,0,0,0-3.93,6.83,67.85,67.85,0,0,0-7.76,32.23v.37A69.31,69.31,0,0,0,349,335.09,29.75,29.75,0,0,0,356.2,346.38Zm44.45-.89a13.1,13.1,0,0,1-.62-4.86,108.8,108.8,0,0,1,1.11-13.17q1.11-7.8,3.6-18.18t5.63-20.08q7.5-23.07,15.75-26.89a6.28,6.28,0,0,1,1.82-.68,17.43,17.43,0,0,1,2.43-.12A10.9,10.9,0,0,1,434,262,9.39,9.39,0,0,1,437,264a13.52,13.52,0,0,1,3.29,4.49,35.44,35.44,0,0,1,2.25,8.06q1,5.36,2.15,15,4.13,33.66,8.49,46.15a24.66,24.66,0,0,1,.92,2.89,7.24,7.24,0,0,1,.19,1.41,2,2,0,0,1-.07.56q-1,5.65-6.46,5.9a7.15,7.15,0,0,1-5.1-2,9.71,9.71,0,0,1-1.91-2.3,19.91,19.91,0,0,1-1.6-3.66,10.24,10.24,0,0,0-1.63-3.17,3.07,3.07,0,0,0-2.12-1.08,6.35,6.35,0,0,0-1.05-.06c-.78,0-1.86,0-3.26.12-2.3.12-4.75.28-7.35.46s-4.56.36-5.88.53a6,6,0,0,0-3.78,1.41c-.68.74-1.1,2.13-1.26,4.18a10.69,10.69,0,0,1-.8,3.6,6.3,6.3,0,0,1-1.85,2.31,3.76,3.76,0,0,1-1.29.74,8.74,8.74,0,0,1-1.78.25h-.68a6.81,6.81,0,0,1-1.11-.07,3.82,3.82,0,0,1-1.23-.43,9,9,0,0,1-3.38-3.75Zm16.24-24.42a2.59,2.59,0,0,0,.19,1.16,2,2,0,0,0,.49.47,5.29,5.29,0,0,0,.86.52,3.53,3.53,0,0,0,.8.31l1.78-.25c1.19-.12,2.63-.29,4.31-.49s3.24-.47,4.55-.68a16.38,16.38,0,0,0,2.46-.49,2.64,2.64,0,0,0,1.42-1.54,3.37,3.37,0,0,0,.25-.68,2.8,2.8,0,0,0,.06-.55,4.37,4.37,0,0,0-.06-.68c-.05-.53-.14-1.28-.28-2.24s-.34-2.29-.59-4q-.48-3-1.1-7.6t-1.11-8.52a90.84,90.84,0,0,0-1.6-10,1.28,1.28,0,0,0-1.11-.8h-.12a2.05,2.05,0,0,0-1.42,1.05q-1.1,1.85-3.53,9.75t-4.77,17.13A39.5,39.5,0,0,0,416.89,321.07Zm42.7-17a34.08,34.08,0,0,0,2.92,2.25q1.58,1.08,4.83,2.86t9.66,5.17a57.19,57.19,0,0,1,10.24,6.58c2.16,1.89,3.36,3.71,3.6,5.48a4.16,4.16,0,0,1,.06.67,4.05,4.05,0,0,1-.09.77,7.75,7.75,0,0,1-.52,1.45c-1.07,2-3.1,3.8-6.09,5.51a29.09,29.09,0,0,1-9.66,3.41q-6.27.93-7.2,5.35a7.81,7.81,0,0,0-.12,1.36,7.53,7.53,0,0,0,1,3.53,7.09,7.09,0,0,0,3.36,3,11.17,11.17,0,0,0,4,.67q5.42,0,13.48-3.87,13-6.7,15.81-16.8a12.66,12.66,0,0,0,.31-2.21c0-.53.06-1.13.06-1.79v-1.1a18.15,18.15,0,0,0-.74-5,19.26,19.26,0,0,0-2.21-4.58A28,28,0,0,0,495,309a107,107,0,0,0-14.45-8.68q-4.62-2.46-7.05-3.81a25,25,0,0,1-3.44-2.19,4.78,4.78,0,0,1-1.39-1.63,3.21,3.21,0,0,1-.49-1.72q0-3.26,6.09-8.18,7.57-6.23,13.23-7.08c.53-.08,1.09-.17,1.66-.28s1-.19,1.29-.27a5.92,5.92,0,0,0,4-4,5.56,5.56,0,0,0,.25-1.6,6.35,6.35,0,0,0-1.48-3.94,8.54,8.54,0,0,0-6.71-2.77,20.37,20.37,0,0,0-6.15,1.11,56.73,56.73,0,0,0-6.33,2.77q-3.71,1.85-6.34,3.51a42.86,42.86,0,0,0-7.48,6.49A29.41,29.41,0,0,0,455.1,284a19.23,19.23,0,0,0-1.72,7.63Q453.38,298.42,459.59,304.08ZM515,318.67q.38,5.9.92,13t.86,9.9c.5,3.86,2,6.36,4.56,7.51a7.45,7.45,0,0,0,2.58.49h.37a5.84,5.84,0,0,0,2.21-.37,7.21,7.21,0,0,0,3.45-3.2,7.51,7.51,0,0,0,.74-3.5v-1.17q0-2.22-.31-5.91-.68-7.75-1.05-14.83t-.55-15.81q-.12-5.77-.37-13.66-.12-6.39-.24-11.44-.2-5.6-.34-9.6c-.11-2.66-.2-4.18-.28-4.55a6.15,6.15,0,0,0-2.64-3.14,5.66,5.66,0,0,0-3-.86,4.35,4.35,0,0,0-1,.13q-4.12,1-5.42,5.66a80.88,80.88,0,0,0-.8,11.5q-.18,7.26-.18,15.81,0,2.16,0,8.8T515,318.67Zm30.88-10.89c.13,1.72.29,4.25.5,7.59s.41,6.7.61,10.06q.49,8.49.86,13.14c.25,3.1.47,5.35.68,6.77a10.59,10.59,0,0,0,.8,3.1,7.27,7.27,0,0,0,4.18,4.06,6.48,6.48,0,0,0,2,.31,8.48,8.48,0,0,0,2.56-.52,6.74,6.74,0,0,0,3-2.25,6,6,0,0,0,1.35-3.26c0-.45.06-1,.06-1.6q0-1.9-.24-4.92c-.29-3.08-.56-6.58-.8-10.52s-.45-7.44-.62-10.52q-.12-3.45-.12-4.74v-.55c.25-1,.62-1.54,1.11-1.54a.53.53,0,0,1,.24.06,2.07,2.07,0,0,1,.87.89c.32.52.77,1.39,1.35,2.62s1.33,3,2.28,5.23q4.92,11.56,8.24,17.75t6.06,8.4a9.6,9.6,0,0,0,6.18,2.21h.25q5,0,8.12-4.92,2.09-3,3-9.6a215.66,215.66,0,0,0,1.3-21.72q.42-15.13,1.78-34,.44-6.65.55-10.27v-.86a20.1,20.1,0,0,0-.4-4.62,6.18,6.18,0,0,0-1.38-2.71,6.78,6.78,0,0,0-4.8-2.46h-.31a6.72,6.72,0,0,0-4.73,2,6.38,6.38,0,0,0-1.7,2.8,23,23,0,0,0-.7,5.08q-.31,4.36-.77,11.22t-.83,12.83q-.2,2.89-.4,7.75c-.15,3.25-.26,6.4-.34,9.48-.08,2.75-.17,4.95-.25,6.61s-.17,2.95-.27,3.85a7.78,7.78,0,0,1-.4,1.91,1.83,1.83,0,0,1-.62.79.62.62,0,0,1-.37.13.73.73,0,0,1-.34-.13,4.28,4.28,0,0,1-.77-.73c-.24-.33-.53-.77-.86-1.33a17.14,17.14,0,0,1-.86-1.63q-.3-.86-1.11-2.73c-.53-1.25-1.08-2.56-1.66-3.91q-3.14-7.44-10.46-27.5a152.86,152.86,0,0,0-6.36-15.66q-2.25-4.34-4.4-4.95a7.07,7.07,0,0,0-2.28-.37,10.37,10.37,0,0,0-4.12,1.08,7.66,7.66,0,0,0-3.75,3.78,9.26,9.26,0,0,0-.5,1.63c-.16.72-.28,1.45-.37,2.18q-.18,2.28-.24,9.29-.06,4.74-.06,9.6,0,2.46.06,7.51T545.84,307.78Zm129.82,17.9a85.3,85.3,0,0,1-2-18.58A96.15,96.15,0,0,1,677,282.49a63.92,63.92,0,0,1,4.74-12.06,20.7,20.7,0,0,1,4-5.84,10.13,10.13,0,0,1,4.83-2.46,28.6,28.6,0,0,1,5.41-.43q1.11,0,2.28.06a52.41,52.41,0,0,1,8.8,1Q729.12,268,731.52,301c.08,1.39.13,2.79.13,4.18A71.26,71.26,0,0,1,729,324.45a54.39,54.39,0,0,1-9.54,19.44,25.43,25.43,0,0,1-11.07,8.37,14.77,14.77,0,0,1-2.58.74,25.67,25.67,0,0,1-3.14.24h-1.42a16.19,16.19,0,0,1-3.63-.31q-7.56-2-13.38-9.22A46.69,46.69,0,0,1,675.66,325.68Zm12.12-18q0,14.1,5.11,23.63,4.43,7.62,9,7.63a6.41,6.41,0,0,0,3.14-.86q3.69-2.16,7.26-9.23,4.42-9.17,4.83-15.6c.26-4.28.4-7,.4-8.15a52.91,52.91,0,0,0-2.83-17.35q-2.16-6.27-6-9T698.36,276h-.31a10,10,0,0,0-3.6.46,3.39,3.39,0,0,0-1.69,1.76,43.69,43.69,0,0,0-2.55,8.64,117.65,117.65,0,0,0-2,12.21Q687.77,303.6,687.78,307.65Zm59,25.78q2.64,8.67,7.81,13.6a23.76,23.76,0,0,0,11.51,6.58,17.14,17.14,0,0,0,3.2.31q7,0,13.29-6.09,5.6-5.29,8.61-17.23,2.58-9.78,3.69-28,.25-4.42.37-12.12t.12-14.46q0-6.76-.18-8.43a8,8,0,0,0-3.2-5.66,3.73,3.73,0,0,0-1.42-.74,12.39,12.39,0,0,0-2.09-.12,10.92,10.92,0,0,0-2.18.15,5.38,5.38,0,0,0-1.51.71c-1.89,1.15-3,3.16-3.38,6-.08.66-.15,2.33-.19,5s-.06,5.63-.06,8.83q-.12,57.35-12.18,57.34-2.52,0-5-2.89a19,19,0,0,1-3.82-7.38q-3.57-11.82-4.06-42.14c-.08-4.07-.17-7.59-.28-10.59s-.17-4.75-.21-5.29q-.44-4.42-3.75-5.9a5.89,5.89,0,0,0-2.4-.56,6.88,6.88,0,0,0-2.87.83,6.42,6.42,0,0,0-2.79,3.54,8.59,8.59,0,0,0-.44,1.72q-.18,1.11-.33,3.42t-.4,6.43q-.44,7.14-.43,13.66,0,7.68.61,14.51Q744.13,324.76,746.78,333.43ZM17.6,566.29a20.32,20.32,0,0,0,2.21.12,24.21,24.21,0,0,0,5.72-.74,24,24,0,0,0,4.31-1.32c1.48-.59,3.67-1.59,6.58-3,1.4-.66,2.82-1.33,4.28-2l3.47-1.63a22.27,22.27,0,0,0,3.76-2,6,6,0,0,0,1.78-2,7.54,7.54,0,0,0,1-3.57A6.81,6.81,0,0,0,49,545.74a6,6,0,0,0-4.92-2.21,5.81,5.81,0,0,0-.8.06,13.52,13.52,0,0,0-4.06,1q-2.52,1-8.37,3.76c-1.43.69-2.82,1.33-4.15,1.9s-2.29,1-2.86,1.17a9,9,0,0,1-2.89.49l-1,0a3.22,3.22,0,0,1-1.78-.7q-2-1.54-3.14-6.46c-.16-.78-.3-1.62-.4-2.53s-.16-2.29-.18-4.18,0-4.82,0-8.8q0-13,.55-19.25.62-8.62,1.17-16.06c.37-5,.59-8.25.68-9.85,0-.78.06-1.39.06-1.84a4.5,4.5,0,0,0-.13-1.17A4.09,4.09,0,0,0,16.3,480a5.64,5.64,0,0,0-2.83-2.7,5.55,5.55,0,0,0-2.4-.56,5.48,5.48,0,0,0-1.41.19c-2.79.82-4.6,2.93-5.41,6.33-.17.74-.46,2.49-.87,5.23s-.82,5.64-1.23,8.68-.69,5.35-.86,6.95C1,506.65.75,510,.52,514.24s-.38,8.31-.46,12.24c0,1.73-.06,3.39-.06,5q0,14,2.46,20.85Q6.71,564.76,17.6,566.29ZM62.39,464.92a21.43,21.43,0,0,0-1.89,3.61,9.44,9.44,0,0,0-.83,3.43,7.76,7.76,0,0,0,1.62,4.48,9.19,9.19,0,0,0,3.92,3.25,7.89,7.89,0,0,0,2.81.44c.17,0,.64,0,1.4-.09a7.91,7.91,0,0,0,2.55-.7,44.86,44.86,0,0,0,4.62-3.3q3.73-2.85,8.57-6.68t8.92-7.16q4.08-3.34,5.58-4.75,4.22-4.21,4.22-8.52a8.9,8.9,0,0,0-2.55-6.64,9.44,9.44,0,0,0-6.68-2.59q-4.83,0-9.32,4-2.37,1.85-7.51,6.55T68,459.43C64.91,462.39,63,464.22,62.39,464.92ZM175,517c.08,1.39.12,2.79.12,4.18a71.26,71.26,0,0,1-2.64,19.32,54.55,54.55,0,0,1-9.54,19.44,25.43,25.43,0,0,1-11.07,8.37,14.84,14.84,0,0,1-2.59.74,25.3,25.3,0,0,1-3.13.24h-1.42a16.19,16.19,0,0,1-3.63-.31q-7.56-2-13.38-9.22a46.55,46.55,0,0,1-8.58-18,84.69,84.69,0,0,1-2-18.58,95.72,95.72,0,0,1,3.32-24.61,63.92,63.92,0,0,1,4.74-12.06,20.7,20.7,0,0,1,4-5.84,10.13,10.13,0,0,1,4.83-2.46,28.6,28.6,0,0,1,5.41-.43q1.11,0,2.28.06a52.29,52.29,0,0,1,8.79,1Q172.59,484,175,517Zm-14,4.12a52.65,52.65,0,0,0-2.83-17.35q-2.15-6.27-6-9T141.83,492h-.31a10,10,0,0,0-3.6.46,3.35,3.35,0,0,0-1.69,1.76,43.69,43.69,0,0,0-2.55,8.64,115,115,0,0,0-2,12.21q-.44,4.5-.43,8.55,0,14.1,5.1,23.63,4.44,7.62,9.05,7.63a6.44,6.44,0,0,0,3.14-.86q3.69-2.16,7.25-9.23,4.44-9.17,4.83-15.6T161,521.07Zm26,2.71c.12,1.72.29,4.25.49,7.59s.41,6.7.62,10.06q.48,8.49.86,13.14c.24,3.1.47,5.35.67,6.77a11.27,11.27,0,0,0,.8,3.1,7.28,7.28,0,0,0,4.19,4.06,6.38,6.38,0,0,0,2,.31,8.48,8.48,0,0,0,2.55-.52,6.69,6.69,0,0,0,3-2.25,6,6,0,0,0,1.36-3.26c0-.45.06-1,.06-1.6,0-1.27-.08-2.91-.25-4.92-.29-3.08-.55-6.58-.8-10.52s-.45-7.44-.61-10.52c-.09-2.3-.13-3.88-.13-4.74v-.55c.25-1,.62-1.54,1.11-1.54a.57.57,0,0,1,.25.06,2.12,2.12,0,0,1,.86.89,25,25,0,0,1,1.35,2.62q.87,1.85,2.28,5.23,4.92,11.56,8.24,17.75t6.06,8.4a9.62,9.62,0,0,0,6.19,2.21h.24q5.06,0,8.12-4.92,2.1-3,3-9.6t1.29-21.72q.44-15.13,1.78-34,.43-6.65.56-10.27v-.86a20.68,20.68,0,0,0-.4-4.62,6.3,6.3,0,0,0-1.39-2.71,6.77,6.77,0,0,0-4.79-2.46h-.31a6.73,6.73,0,0,0-4.74,2,6.36,6.36,0,0,0-1.69,2.8,22.33,22.33,0,0,0-.71,5.08q-.3,4.36-.77,11.22t-.83,12.83c-.12,1.93-.26,4.51-.4,7.75s-.26,6.4-.34,9.48q-.12,4.13-.24,6.61c-.09,1.66-.18,2.95-.28,3.85a7.33,7.33,0,0,1-.4,1.91,1.76,1.76,0,0,1-.62.79.59.59,0,0,1-.36.13.66.66,0,0,1-.34-.13,4,4,0,0,1-.77-.73,12.51,12.51,0,0,1-.86-1.33,15.12,15.12,0,0,1-.86-1.63q-.31-.86-1.11-2.73c-.54-1.25-1.09-2.56-1.66-3.91q-3.14-7.44-10.46-27.5a152.26,152.26,0,0,0-6.37-15.66c-1.5-2.89-3-4.54-4.4-4.95a7.06,7.06,0,0,0-2.27-.37,10.41,10.41,0,0,0-4.13,1.08,7.66,7.66,0,0,0-3.75,3.78,9.39,9.39,0,0,0-.49,1.63,18,18,0,0,0-.37,2.18c-.12,1.52-.21,4.62-.25,9.29q-.06,4.74-.06,9.6,0,2.46.06,7.51C186.84,518.28,186.93,521.23,187.05,523.78ZM336.12,479c2.71.12,5.05.33,7,.61q15.19,2.1,22,9.42a24.62,24.62,0,0,1,2.49,2.67,13.2,13.2,0,0,1,1.51,2.56,18.5,18.5,0,0,1,1.66,4.42,19.57,19.57,0,0,1,.37,3.88v1.17a20.77,20.77,0,0,1-.68,4.58,25.53,25.53,0,0,1-2,4.77A47.87,47.87,0,0,1,360,524.58q-7.69,8.17-20.73,15.62c-1.23.74-2.31,1.4-3.23,2s-1.47.92-1.63,1.05a2.94,2.94,0,0,0-1.11,1.57,7.9,7.9,0,0,0-.25,2.06c0,.45,0,1,.07,1.54.12,1.51.38,3.69.8,6.52.28,1.8.48,3.19.58,4.15s.15,1.71.15,2.25a4.79,4.79,0,0,1-.18,1.35,6.93,6.93,0,0,1-2.4,3.91,6.38,6.38,0,0,1-4.12,1.5,6.6,6.6,0,0,1-3-.74,6.28,6.28,0,0,1-3.26-3.41,33.87,33.87,0,0,1-1.91-8.27q-1.35-9.48-2.21-21.11t-.86-21.78q0-2.88.24-8.46c.17-3.71.36-7.22.59-10.55s.44-5.57.65-6.76q1-5.85,5.66-7.57a16.32,16.32,0,0,1,3.72-.46c1.62-.07,2.92-.1,3.9-.1C332.92,478.86,334.48,478.91,336.12,479ZM340,493.08a37.26,37.26,0,0,0-4.71-.83l-1.08,0a3.23,3.23,0,0,0-2.15.56,2.2,2.2,0,0,0-.83,1,7,7,0,0,0-.4,2.16c-.08,1-.12,2.58-.12,4.67s0,5,.12,8.68c0,3.89.1,7.25.18,10.06s.17,4.44.25,4.89c.2,1.6.88,2.4,2,2.4a7.13,7.13,0,0,0,3.45-1.36,67.89,67.89,0,0,0,9.25-6.89,55.89,55.89,0,0,0,7.42-7.63q3.43-4.43,3.44-7.69a5.44,5.44,0,0,0-1.84-4.12Q352.24,495.47,340,493.08ZM385.92,479a8.09,8.09,0,0,0-2,1.57,6.19,6.19,0,0,0-1.53,2.33,21.88,21.88,0,0,0-1,4.56c-.29,2.09-.61,5.12-1,9.1q-1.29,14.09-1.3,25.78a150.68,150.68,0,0,0,1.54,22.7q3.33,19.82,14.58,22.77a18.09,18.09,0,0,0,3.88.43A26.25,26.25,0,0,0,410,565.55c1.11-.57,2.69-1.52,4.77-2.83s4.07-2.63,6-4a44.27,44.27,0,0,0,4-3,6.55,6.55,0,0,0,2.28-5,4.52,4.52,0,0,0-.06-.74,5.76,5.76,0,0,0-3.51-5.23,4.91,4.91,0,0,0-1.6-.68,3.65,3.65,0,0,0-1-.12,7.47,7.47,0,0,0-.92.06,6.6,6.6,0,0,0-2.28.4,19.49,19.49,0,0,0-2.89,1.44q-1.78,1.05-4.92,3.14-2.16,1.43-4,2.56a21.13,21.13,0,0,1-2.68,1.44,6.55,6.55,0,0,1-2.46.56,4.3,4.3,0,0,1-2.92-1.36q-1.46-1.35-2.43-6.4a13,13,0,0,1-.31-1.6v-.55a4.81,4.81,0,0,1,0-.52,2.68,2.68,0,0,1,.21-.71,4,4,0,0,1,.53-.86,4.28,4.28,0,0,1,.64-.68,10.7,10.7,0,0,1,1.73-.52c.9-.23,1.9-.46,3-.71q6.33-1.11,9.08-1.72a20.77,20.77,0,0,0,3.78-1.11q4.92-2.4,4.92-6.58a7.38,7.38,0,0,0-.25-1.85,6.7,6.7,0,0,0-3.5-4.06,5.64,5.64,0,0,0-3-.68c-.24,0-.86.06-1.84.16a66.08,66.08,0,0,0-6.71,1.44q-3.51.87-5.35,1.17a13.34,13.34,0,0,1-2.28.25c-.16,0-.43,0-.8-.06a1.47,1.47,0,0,1-1-.62,2.14,2.14,0,0,1-.52-.74,3.5,3.5,0,0,1-.22-1.1c0-.5-.08-1.23-.12-2.22v-1.54c0-1.23,0-3.09.06-5.59s.11-5.46.22-8.86.2-6.39.3-9a33.82,33.82,0,0,1,.34-4.52,3.66,3.66,0,0,1,2.83-2.52c.33-.08,1.2-.18,2.62-.31s3-.22,4.83-.31q5.4-.24,8.33-.43a38.59,38.59,0,0,0,4.28-.43,10,10,0,0,0,2.09-.55,6.91,6.91,0,0,0,4.06-4.86,6.41,6.41,0,0,0,.12-1.23,6.76,6.76,0,0,0-2-4.74,6.12,6.12,0,0,0-2.95-1.78,20.51,20.51,0,0,0-4.61-.37H413a71,71,0,0,0-7.38.43q-4.12.43-10.52,1.41-3.87.62-6,1.08A12.78,12.78,0,0,0,385.92,479ZM480,546.6q2.6-9.78,3.69-28,.26-4.43.37-12.12t.13-14.46q0-6.76-.19-8.43a8,8,0,0,0-3.2-5.66,3.7,3.7,0,0,0-1.41-.74,12.47,12.47,0,0,0-2.09-.12,11,11,0,0,0-2.19.15,5.38,5.38,0,0,0-1.51.71q-2.82,1.72-3.38,6-.12,1-.18,5t-.06,8.83q-.13,57.34-12.19,57.34-2.52,0-5-2.89a19.25,19.25,0,0,1-3.82-7.38q-3.57-11.82-4.06-42.14c-.08-4.07-.17-7.59-.27-10.59s-.18-4.75-.22-5.29q-.43-4.42-3.75-5.9a5.82,5.82,0,0,0-2.4-.56,6.84,6.84,0,0,0-2.86.83,6.43,6.43,0,0,0-2.8,3.54,8,8,0,0,0-.43,1.72c-.12.74-.24,1.88-.34,3.42s-.24,3.68-.4,6.43Q431,503.48,431,510q0,7.68.61,14.51,1.36,16.25,4,24.92t7.82,13.6a23.69,23.69,0,0,0,11.5,6.58,17.22,17.22,0,0,0,3.2.31q7,0,13.29-6.09Q477,558.53,480,546.6Zm29.72-38.33a360.39,360.39,0,0,0,2.83,44.3,69.58,69.58,0,0,0,2.31,12.27q1.2,3.48,3.6,4.46a7,7,0,0,0,2.95.68,11.14,11.14,0,0,0,2.31-.37,6.69,6.69,0,0,0,4.39-5.54,4.71,4.71,0,0,0,.07-.92,33.8,33.8,0,0,0-.56-5.17q-3.2-19.56-4-51.12-.12-4.31-.18-6.89c0-1.73-.06-3-.06-3.88a13.85,13.85,0,0,1,.09-1.88,2.45,2.45,0,0,1,.28-.89,2.41,2.41,0,0,1,1-1.23,6.36,6.36,0,0,1,2.43-.61c1.15-.13,2.83-.25,5-.37,2.42-.08,4.31-.18,5.69-.28s2.4-.2,3.07-.31a7.14,7.14,0,0,0,1.76-.46q4.49-2.08,4.67-6.09v-.25q0-3.87-4.18-6.15a7.68,7.68,0,0,0-1.29-.37,16.07,16.07,0,0,0-2.22-.15c-1,0-2.58,0-4.67,0a262.72,262.72,0,0,0-35.32,3,24.18,24.18,0,0,0-6.24,1.57,6.21,6.21,0,0,0-3,2.68,6.28,6.28,0,0,0-.8,3,9.18,9.18,0,0,0,.56,2.62,5.06,5.06,0,0,0,3.07,2.8,7.62,7.62,0,0,0,3,.43h.61c1.36,0,3.2-.1,5.54-.31,1.27-.08,2.34-.12,3.2-.12a14.39,14.39,0,0,1,2,.15,2.11,2.11,0,0,1,1.6,1.14,1.9,1.9,0,0,1,.28.71,10.5,10.5,0,0,1,.12,1.53c0,.72,0,1.77,0,3.14v8.89Zm114.49,59.5a18.09,18.09,0,0,0,3.88.43,26.25,26.25,0,0,0,10.83-2.65c1.11-.57,2.69-1.52,4.77-2.83s4.07-2.63,6-4a45.24,45.24,0,0,0,4-3,6.55,6.55,0,0,0,2.28-5,4.52,4.52,0,0,0-.06-.74,5.76,5.76,0,0,0-3.51-5.23,4.91,4.91,0,0,0-1.6-.68,3.65,3.65,0,0,0-1-.12,7.47,7.47,0,0,0-.92.06,6.6,6.6,0,0,0-2.28.4,19.49,19.49,0,0,0-2.89,1.44q-1.79,1.05-4.92,3.14-2.16,1.43-4,2.56a21.13,21.13,0,0,1-2.68,1.44,6.55,6.55,0,0,1-2.46.56,4.3,4.3,0,0,1-2.92-1.36q-1.46-1.35-2.43-6.4a13,13,0,0,1-.31-1.6v-.55a4.81,4.81,0,0,1,0-.52,2.68,2.68,0,0,1,.21-.71,4,4,0,0,1,.53-.86,4.28,4.28,0,0,1,.64-.68,10.7,10.7,0,0,1,1.73-.52c.9-.23,1.9-.46,3-.71q6.33-1.11,9.08-1.72a20.77,20.77,0,0,0,3.78-1.11q4.92-2.4,4.92-6.58a7.38,7.38,0,0,0-.25-1.85,6.7,6.7,0,0,0-3.5-4.06,5.64,5.64,0,0,0-3-.68c-.24,0-.86.06-1.84.16a66.08,66.08,0,0,0-6.71,1.44c-2.33.58-4.12,1-5.35,1.17a13.34,13.34,0,0,1-2.28.25c-.16,0-.43,0-.8-.06a1.47,1.47,0,0,1-1-.62,2.14,2.14,0,0,1-.52-.74,3.5,3.5,0,0,1-.22-1.1c0-.5-.08-1.23-.12-2.22v-1.54c0-1.23,0-3.09.06-5.59s.11-5.46.22-8.86.2-6.39.3-9a35.82,35.82,0,0,1,.34-4.52,3.66,3.66,0,0,1,2.83-2.52c.33-.08,1.2-.18,2.62-.31s3-.22,4.83-.31q5.4-.24,8.33-.43a38.59,38.59,0,0,0,4.28-.43,10,10,0,0,0,2.09-.55,6.91,6.91,0,0,0,4.06-4.86,6.41,6.41,0,0,0,.12-1.23,6.76,6.76,0,0,0-2-4.74,6.12,6.12,0,0,0-3-1.78,20.51,20.51,0,0,0-4.61-.37H642a71,71,0,0,0-7.38.43q-4.12.43-10.52,1.41-3.87.62-6,1.08a12.78,12.78,0,0,0-3.17,1,8.09,8.09,0,0,0-2,1.57,6.31,6.31,0,0,0-1.53,2.33,21.88,21.88,0,0,0-1,4.56c-.29,2.09-.61,5.12-1,9.1q-1.29,14.09-1.29,25.78a150.77,150.77,0,0,0,1.53,22.7Q613,564.82,624.23,567.77Zm24.06-60.17q0,6.82,6.21,12.48a34.26,34.26,0,0,0,2.93,2.25q1.56,1.08,4.83,2.86t9.66,5.17a57.56,57.56,0,0,1,10.24,6.58c2.15,1.89,3.35,3.71,3.6,5.48a4.16,4.16,0,0,1,.06.67,4.05,4.05,0,0,1-.09.77,8,8,0,0,1-.53,1.45c-1.06,2-3.09,3.8-6.09,5.51a28.93,28.93,0,0,1-9.66,3.41q-6.27.93-7.19,5.35a7,7,0,0,0-.13,1.36,7.44,7.44,0,0,0,1,3.53,7,7,0,0,0,3.35,3,11.23,11.23,0,0,0,4,.67q5.41,0,13.47-3.87,13-6.71,15.82-16.8a12.67,12.67,0,0,0,.3-2.21c0-.53.06-1.13.06-1.79v-1.1a18.16,18.16,0,0,0-.73-5,19.32,19.32,0,0,0-2.22-4.58,27.85,27.85,0,0,0-7.32-7.87,107.9,107.9,0,0,0-14.46-8.68q-4.6-2.46-7-3.81a25.9,25.9,0,0,1-3.45-2.19,4.74,4.74,0,0,1-1.38-1.63,3.21,3.21,0,0,1-.49-1.72q0-3.26,6.09-8.18,7.56-6.23,13.22-7.08c.54-.08,1.09-.17,1.67-.28s1-.19,1.29-.27a5.94,5.94,0,0,0,4-4,5.54,5.54,0,0,0,.24-1.6,6.39,6.39,0,0,0-1.47-3.94,8.56,8.56,0,0,0-6.71-2.77,20.26,20.26,0,0,0-6.15,1.11,56,56,0,0,0-6.34,2.77q-3.69,1.85-6.34,3.51a42.8,42.8,0,0,0-7.47,6.49A29.21,29.21,0,0,0,650,500,19.23,19.23,0,0,0,648.29,507.6Zm77.09-28.8a20.26,20.26,0,0,0-6.15,1.11,56,56,0,0,0-6.34,2.77q-3.69,1.85-6.34,3.51a42.8,42.8,0,0,0-7.47,6.49A29.21,29.21,0,0,0,694,500a19.23,19.23,0,0,0-1.72,7.63q0,6.82,6.21,12.48a34.26,34.26,0,0,0,2.93,2.25q1.56,1.08,4.83,2.86t9.65,5.17a57.72,57.72,0,0,1,10.25,6.58c2.15,1.89,3.35,3.71,3.6,5.48a4.16,4.16,0,0,1,.06.67,4.05,4.05,0,0,1-.09.77,8.85,8.85,0,0,1-.53,1.45c-1.06,2-3.09,3.8-6.09,5.51a28.93,28.93,0,0,1-9.66,3.41q-6.27.93-7.19,5.35a7,7,0,0,0-.13,1.36,7.44,7.44,0,0,0,1,3.53,7,7,0,0,0,3.35,3,11.23,11.23,0,0,0,4,.67q5.41,0,13.47-3.87,13-6.71,15.81-16.8a11.77,11.77,0,0,0,.31-2.21c0-.53.06-1.13.06-1.79v-1.1a18.16,18.16,0,0,0-.73-5,19.32,19.32,0,0,0-2.22-4.58,27.85,27.85,0,0,0-7.32-7.87,107.9,107.9,0,0,0-14.46-8.68c-3.08-1.64-5.42-2.91-7-3.81a25.9,25.9,0,0,1-3.45-2.19,4.63,4.63,0,0,1-1.38-1.63,3.22,3.22,0,0,1-.5-1.72q0-3.26,6.1-8.18,7.56-6.23,13.22-7.08c.54-.08,1.09-.17,1.66-.28s1-.19,1.3-.27a5.94,5.94,0,0,0,4-4,5.54,5.54,0,0,0,.24-1.6,6.35,6.35,0,0,0-1.48-3.94A8.52,8.52,0,0,0,725.38,478.8Zm68.35,13.72q1,5.36,2.15,15,4.13,33.66,8.5,46.15a26.82,26.82,0,0,1,.92,2.89,7.11,7.11,0,0,1,.18,1.41,2.4,2.4,0,0,1-.06.56q-1,5.65-6.46,5.9a7.18,7.18,0,0,1-5.11-2,9.92,9.92,0,0,1-1.9-2.3,19.25,19.25,0,0,1-1.6-3.66,10.46,10.46,0,0,0-1.63-3.17,3.09,3.09,0,0,0-2.13-1.08,6.13,6.13,0,0,0-1-.06c-.78,0-1.87,0-3.26.12-2.3.12-4.75.28-7.35.46s-4.57.36-5.88.53a5.92,5.92,0,0,0-3.78,1.41c-.68.74-1.1,2.13-1.26,4.18a10.93,10.93,0,0,1-.8,3.6,6.3,6.3,0,0,1-1.85,2.31,3.76,3.76,0,0,1-1.29.74,8.86,8.86,0,0,1-1.79.25h-.67a6.81,6.81,0,0,1-1.11-.07,3.82,3.82,0,0,1-1.23-.43,8.8,8.8,0,0,1-3.38-3.75,12.89,12.89,0,0,1-.62-4.86,108.8,108.8,0,0,1,1.11-13.17q1.11-7.8,3.6-18.18t5.63-20.08q7.5-23.07,15.75-26.89a6.24,6.24,0,0,1,1.81-.68,17.43,17.43,0,0,1,2.43-.12,10.82,10.82,0,0,1,3.63.52,9.28,9.28,0,0,1,3,1.94,13.54,13.54,0,0,1,3.3,4.49A35.52,35.52,0,0,1,793.73,492.52Zm-8.43,42.33a4.37,4.37,0,0,0-.06-.68c0-.53-.13-1.28-.28-2.24s-.33-2.29-.58-4q-.5-3-1.11-7.6t-1.1-8.52a93.68,93.68,0,0,0-1.6-10,1.28,1.28,0,0,0-1.11-.8h-.13a2,2,0,0,0-1.41,1.05q-1.11,1.85-3.54,9.75t-4.77,17.13a40,40,0,0,0-1.47,8.13,2.77,2.77,0,0,0,.18,1.16,2.22,2.22,0,0,0,.49.47,5.88,5.88,0,0,0,.87.52,3.36,3.36,0,0,0,.8.31l1.78-.25c1.19-.12,2.62-.29,4.31-.49s3.24-.47,4.55-.68a17,17,0,0,0,2.46-.49,2.64,2.64,0,0,0,1.42-1.54,2.77,2.77,0,0,0,.3-1.23Zm79.8-56.23a6.63,6.63,0,0,0-4.37-1.79h-.18a7.51,7.51,0,0,0-4.5,1.54,6.26,6.26,0,0,0-1.26,1.26,14,14,0,0,0-1.41,2.74c-.56,1.31-1.32,3.31-2.31,6s-2.32,6.37-4,11a95.26,95.26,0,0,1-5.84,13.78,18,18,0,0,1-3.05,3.76,10.92,10.92,0,0,1-3.17,2.27,6.85,6.85,0,0,1-2.27.43,6.18,6.18,0,0,1-2-.4,8.48,8.48,0,0,1-3-2.43,23,23,0,0,1-4-6.64q-2-4.56-5.26-14.4c-1.06-3.28-2-6.09-2.86-8.43s-1.34-3.69-1.5-4.06a7.49,7.49,0,0,0-4.93-3.38,10.14,10.14,0,0,0-1.1-.06,6.4,6.4,0,0,0-4.31,1.72,5.31,5.31,0,0,0-1.85,3.57v.37A17.85,17.85,0,0,0,803,490.8c.29.86.69,2.24,1.2,4.12s1,3.88,1.57,6,1.08,4.09,1.63,6,1,3.31,1.26,4.21q1.17,3,2.77,6.28a51.56,51.56,0,0,0,3,5.41,30.4,30.4,0,0,0,4.19,5,25.71,25.71,0,0,0,4.55,3.69,18.09,18.09,0,0,0,4.34,1.9,24.5,24.5,0,0,0,5.14.62c1.27,0,2.21.08,2.83.12a5,5,0,0,1,1.32.22,2,2,0,0,1,.71.46,1.89,1.89,0,0,1,.49.8,4.27,4.27,0,0,1,.12,1.11c0,.45-.37,1.84-1,4.18s-1.36,5.11-2.22,8.31-1.58,5.73-2,7.47-.75,3.05-.89,3.91a14.78,14.78,0,0,0-.22,2.34v.92a9.72,9.72,0,0,0,.1,1.41,3.87,3.87,0,0,0,.52,1.36,7.78,7.78,0,0,0,3.38,3.2,6.43,6.43,0,0,0,2.1.3h1a5.73,5.73,0,0,0,1.91-.37,6.45,6.45,0,0,0,3.14-2.67,22.71,22.71,0,0,0,2.33-5.94q.61-2.34,3.73-13.63l7-25.34q3.87-14.07,6.77-24.74t3.2-11.72a8,8,0,0,0,.18-1.66,10.52,10.52,0,0,0-.4-2.64A5.84,5.84,0,0,0,865.1,478.62Zm53.09,66.2a4.91,4.91,0,0,0-1.6-.68,3.6,3.6,0,0,0-1-.12,7.47,7.47,0,0,0-.92.06,6.6,6.6,0,0,0-2.28.4,19.49,19.49,0,0,0-2.89,1.44q-1.78,1.05-4.92,3.14-2.16,1.43-4,2.56a20.46,20.46,0,0,1-2.68,1.44,6.55,6.55,0,0,1-2.46.56,4.32,4.32,0,0,1-2.92-1.36q-1.46-1.35-2.43-6.4a13,13,0,0,1-.31-1.6v-.55a4.81,4.81,0,0,1,0-.52,2.41,2.41,0,0,1,.22-.71,3.59,3.59,0,0,1,.52-.86,4.28,4.28,0,0,1,.64-.68,10.7,10.7,0,0,1,1.73-.52c.9-.23,1.9-.46,3-.71,4.23-.74,7.25-1.31,9.08-1.72a20.77,20.77,0,0,0,3.78-1.11q4.92-2.4,4.92-6.58a7.83,7.83,0,0,0-.24-1.85,6.75,6.75,0,0,0-3.51-4.06,5.63,5.63,0,0,0-3-.68c-.25,0-.87.06-1.85.16a66.67,66.67,0,0,0-6.71,1.44c-2.33.58-4.12,1-5.35,1.17a13.34,13.34,0,0,1-2.27.25c-.17,0-.44,0-.8-.06a1.47,1.47,0,0,1-1-.62,2.28,2.28,0,0,1-.52-.74,3.82,3.82,0,0,1-.22-1.1c0-.5-.08-1.23-.12-2.22v-1.54c0-1.23,0-3.09.06-5.59s.11-5.46.22-8.86.2-6.39.3-9a35.82,35.82,0,0,1,.34-4.52,3.66,3.66,0,0,1,2.83-2.52c.33-.08,1.2-.18,2.62-.31s3-.22,4.83-.31c3.61-.16,6.38-.3,8.33-.43a38.59,38.59,0,0,0,4.28-.43,10,10,0,0,0,2.09-.55,6.91,6.91,0,0,0,4.06-4.86,6.41,6.41,0,0,0,.12-1.23,6.76,6.76,0,0,0-2-4.74,6.12,6.12,0,0,0-3-1.78,20.51,20.51,0,0,0-4.61-.37h-.93a71,71,0,0,0-7.38.43c-2.75.29-6.25.76-10.52,1.41q-3.87.62-6,1.08a12.78,12.78,0,0,0-3.17,1,7.86,7.86,0,0,0-2,1.57,6.21,6.21,0,0,0-1.54,2.33,21.88,21.88,0,0,0-1,4.56q-.42,3.13-1,9.1-1.29,14.09-1.29,25.78a150.77,150.77,0,0,0,1.53,22.7q3.33,19.82,14.59,22.77a17.93,17.93,0,0,0,3.87.43,26.25,26.25,0,0,0,10.83-2.65c1.11-.57,2.7-1.52,4.77-2.83s4.07-2.63,6-4a47.47,47.47,0,0,0,4-3,6.58,6.58,0,0,0,2.27-5,4.52,4.52,0,0,0-.06-.74A5.76,5.76,0,0,0,918.19,544.82Zm58.51,2.46a6.39,6.39,0,0,1-4,6,5.6,5.6,0,0,1-2.33.43,21.24,21.24,0,0,1-5.91-1.11c-1.85-.57-4-1.15-6.34-1.72s-4.57-1.08-6.58-1.51a25.32,25.32,0,0,0-3.88-.65c-1.31,0-2,.31-2.21.93a6.44,6.44,0,0,0-.25,1.72,29.94,29.94,0,0,0,.56,4.8c.41,2.42.63,4,.67,4.73s.06,1.26.06,1.54a6.69,6.69,0,0,1-.3,2.16,6,6,0,0,1-1.36,2.27,5.85,5.85,0,0,1-5,2.28,7.87,7.87,0,0,1-2.77-.49,8,8,0,0,1-3.63-3.88q-1.6-4.12-3.41-18.83t-2.93-32.17q-.3-4.92-.3-7.26V503.1q0-3.25.12-7.75.12-5.66.31-8.27a9.65,9.65,0,0,1,.73-3.63,7.1,7.1,0,0,1,1.73-2c2.29-2.13,6.42-3.3,12.36-3.51.62,0,1.21-.06,1.79-.06q12.54,0,21.59,6.58a23.11,23.11,0,0,1,8.74,14.28,27.49,27.49,0,0,1,.37,4.43q0,12.24-10.65,25c-.65.78-1.32,1.56-2,2.36s-1.2,1.41-1.56,1.82a3.8,3.8,0,0,0-1.24,2.4,1.64,1.64,0,0,0,.68,1.29c.49.45,2.18,1.07,5,1.85a30.41,30.41,0,0,1,8.36,3.26,7.38,7.38,0,0,1,3.33,4.18A8.06,8.06,0,0,1,976.7,547.28Zm-16.92-40.12a15.73,15.73,0,0,0,.43-3.75,10.81,10.81,0,0,0-.49-3.44,10.52,10.52,0,0,0-4.86-5.39,24.7,24.7,0,0,0-9.23-3.1,11.67,11.67,0,0,0-1.54-.19h-.55a3.58,3.58,0,0,0-.68.06,4.3,4.3,0,0,0-.92.31.7.7,0,0,1-.18.12,2.28,2.28,0,0,0-1,.74,2.56,2.56,0,0,0-.4,1.48c0,.66,0,1.21,0,1.66q0,1.35.06,3.51.18,3.25.56,9c0,.57,0,1.17.06,1.78.24,3.74.44,6.7.58,8.89s.3,3.84.46,4.93a9.75,9.75,0,0,0,.53,2.24,1.45,1.45,0,0,0,.7.8.88.88,0,0,0,.5.25h.61l.92-.37a10.67,10.67,0,0,0,2.49-2c1.17-1.11,2.41-2.36,3.7-3.75a48.66,48.66,0,0,0,3.17-3.76,38.52,38.52,0,0,0,3.13-5.16A27.2,27.2,0,0,0,959.78,507.16ZM17.6,782.29a20.32,20.32,0,0,0,2.21.12,24.21,24.21,0,0,0,5.72-.74,24,24,0,0,0,4.31-1.32c1.48-.59,3.67-1.59,6.58-3,1.4-.66,2.82-1.33,4.28-2l3.47-1.63a22.27,22.27,0,0,0,3.76-2,6,6,0,0,0,1.78-2,7.54,7.54,0,0,0,1-3.57A6.79,6.79,0,0,0,49,761.74a6,6,0,0,0-4.92-2.21,5.81,5.81,0,0,0-.8.06,13.52,13.52,0,0,0-4.06,1q-2.52,1-8.37,3.76c-1.43.69-2.82,1.33-4.15,1.9s-2.29,1-2.86,1.17a9,9,0,0,1-2.89.49l-1,0a3.22,3.22,0,0,1-1.78-.7q-2-1.54-3.14-6.46c-.16-.78-.3-1.62-.4-2.53s-.16-2.29-.18-4.18,0-4.82,0-8.8q0-13,.55-19.25.62-8.62,1.17-16.06c.37-5,.59-8.25.68-9.85,0-.78.06-1.39.06-1.84a4.5,4.5,0,0,0-.13-1.17A4.09,4.09,0,0,0,16.3,696a5.64,5.64,0,0,0-2.83-2.7,5.55,5.55,0,0,0-2.4-.56,5.48,5.48,0,0,0-1.41.19c-2.79.82-4.6,2.93-5.41,6.33-.17.74-.46,2.49-.87,5.23s-.82,5.64-1.23,8.68-.69,5.35-.86,6.95C1,722.65.75,726,.52,730.24s-.38,8.31-.46,12.24c0,1.73-.06,3.39-.06,5q0,14,2.46,20.85Q6.71,780.76,17.6,782.29Zm57.89,1.91a26.25,26.25,0,0,0,10.83-2.65c1.1-.57,2.69-1.52,4.77-2.83s4.07-2.63,6-4a45.81,45.81,0,0,0,4-3,6.55,6.55,0,0,0,2.28-5,4.52,4.52,0,0,0-.06-.74,5.77,5.77,0,0,0-3.51-5.23,4.91,4.91,0,0,0-1.6-.68,3.65,3.65,0,0,0-1-.12,7.75,7.75,0,0,0-.93.06,6.54,6.54,0,0,0-2.27.4,19.49,19.49,0,0,0-2.89,1.44q-1.78,1.05-4.93,3.14-2.14,1.43-4,2.56a20.53,20.53,0,0,1-2.67,1.44,6.55,6.55,0,0,1-2.46.56,4.34,4.34,0,0,1-2.93-1.36q-1.44-1.35-2.43-6.4a14.63,14.63,0,0,1-.3-1.6v-.55a4.81,4.81,0,0,1,0-.52,2.68,2.68,0,0,1,.21-.71,4,4,0,0,1,.53-.86,4.28,4.28,0,0,1,.64-.68,10.81,10.81,0,0,1,1.72-.52c.91-.23,1.91-.46,3-.71,4.22-.74,7.25-1.31,9.07-1.72a20.68,20.68,0,0,0,3.79-1.11q4.92-2.4,4.92-6.58a7.38,7.38,0,0,0-.25-1.85,6.7,6.7,0,0,0-3.5-4.06,5.66,5.66,0,0,0-3-.68c-.24,0-.86.06-1.84.16A66.08,66.08,0,0,0,80,741.31q-3.51.87-5.35,1.17a13.34,13.34,0,0,1-2.28.25c-.16,0-.43,0-.8-.06a1.45,1.45,0,0,1-1-.62,2.14,2.14,0,0,1-.52-.74,3.5,3.5,0,0,1-.22-1.1c0-.5-.08-1.23-.12-2.22v-1.54c0-1.23,0-3.09.06-5.59s.11-5.46.21-8.86.21-6.39.31-9a33.82,33.82,0,0,1,.34-4.52A3.66,3.66,0,0,1,73.52,706c.33-.08,1.2-.18,2.62-.31s3-.22,4.82-.31q5.42-.24,8.34-.43a38.86,38.86,0,0,0,4.28-.43,10,10,0,0,0,2.09-.55,6.94,6.94,0,0,0,4.06-4.86,6.41,6.41,0,0,0,.12-1.23,6.76,6.76,0,0,0-2-4.74,6.12,6.12,0,0,0-2.95-1.78,20.61,20.61,0,0,0-4.62-.37h-.92a71,71,0,0,0-7.38.43q-4.12.44-10.52,1.41-3.89.61-6,1.08A12.78,12.78,0,0,0,62.29,695a7.91,7.91,0,0,0-2,1.57,6.33,6.33,0,0,0-1.54,2.33,22.7,22.7,0,0,0-1,4.56c-.29,2.09-.61,5.12-1,9.1q-1.3,14.09-1.3,25.78A150.68,150.68,0,0,0,57,761q3.33,19.82,14.58,22.77A18,18,0,0,0,75.49,784.2Zm69.09-35.38a27.85,27.85,0,0,0-7.32-7.87,107.9,107.9,0,0,0-14.46-8.68c-3.08-1.64-5.42-2.91-7-3.81a25.9,25.9,0,0,1-3.45-2.19,4.63,4.63,0,0,1-1.38-1.63,3.22,3.22,0,0,1-.5-1.72q0-3.25,6.1-8.18,7.56-6.22,13.22-7.08c.54-.08,1.09-.17,1.66-.28s1-.19,1.3-.27a5.94,5.94,0,0,0,4-4,5.54,5.54,0,0,0,.24-1.6,6.35,6.35,0,0,0-1.48-3.94,8.52,8.52,0,0,0-6.7-2.77,20.26,20.26,0,0,0-6.15,1.11,56,56,0,0,0-6.34,2.77q-3.69,1.85-6.34,3.51a42.8,42.8,0,0,0-7.47,6.49A29.21,29.21,0,0,0,97.39,716a19.23,19.23,0,0,0-1.72,7.63q0,6.82,6.21,12.48a31,31,0,0,0,2.93,2.25q1.56,1.08,4.82,2.86t9.66,5.17a57.72,57.72,0,0,1,10.25,6.58c2.15,1.89,3.35,3.71,3.6,5.48a4.16,4.16,0,0,1,.06.67,4.05,4.05,0,0,1-.09.77,8.85,8.85,0,0,1-.53,1.45c-1.06,2-3.09,3.8-6.09,5.51a28.93,28.93,0,0,1-9.66,3.41q-6.27.93-7.2,5.35a7.9,7.9,0,0,0-.12,1.36,7.44,7.44,0,0,0,1,3.53,7,7,0,0,0,3.35,3,11.23,11.23,0,0,0,4,.67q5.41,0,13.47-3.87,13-6.71,15.81-16.8a11.77,11.77,0,0,0,.31-2.21c0-.54.06-1.13.06-1.79v-1.1a17.77,17.77,0,0,0-.74-5A19.26,19.26,0,0,0,144.58,748.82Zm105.94,26.7q10.59-11.32,13.29-30.33a84.17,84.17,0,0,0,.56-10.89q0-6.82-.5-11.87-1.78-15.33-7-25.84a8.44,8.44,0,0,0-3.51-4.06,9.43,9.43,0,0,0-4.24-.8c-.54,0-1.09,0-1.66.06q-4.06.24-10.46,1.29t-12.18,2.28a51.52,51.52,0,0,0-8,2.15,8.32,8.32,0,0,0-4.62,4.43,7.08,7.08,0,0,0-.49,2.46,7.78,7.78,0,0,0,1,3.45q1,2,4.7,2.83a9.7,9.7,0,0,0,1.54.12h.31a11.55,11.55,0,0,0,2.06-.25c.88-.16,2.23-.45,4-.86s4.18-1,7.14-1.72c3.89-.94,6.83-1.58,8.79-1.91a17.44,17.44,0,0,1,2.83-.31,5.63,5.63,0,0,1,1.57.25,2.42,2.42,0,0,1,1.39,1.54q1.35,3.08,2.27,11.69a141.44,141.44,0,0,1,.8,15.07v2a69,69,0,0,1-.89,10.52,41.34,41.34,0,0,1-2.55,8.61,34.36,34.36,0,0,1-5.11,9c-2,2.39-3.89,3.88-5.78,4.46a3.46,3.46,0,0,1-.92.12c-1.28,0-2.71-.74-4.31-2.22-1.93-1.76-3.79-2.64-5.6-2.64h-.12q-6.21.36-6.58,6.7,0,3.88,4.06,7.57a17.22,17.22,0,0,0,9.9,5,15,15,0,0,0,2,.13,25.14,25.14,0,0,0,3.91-.4,18.13,18.13,0,0,0,4.89-1.63A27.78,27.78,0,0,0,250.52,775.52ZM277.29,761q3.31,19.82,14.58,22.77a17.93,17.93,0,0,0,3.87.43,26.18,26.18,0,0,0,10.83-2.65c1.11-.57,2.7-1.52,4.77-2.83s4.07-2.63,6-4a45.81,45.81,0,0,0,4-3,6.58,6.58,0,0,0,2.27-5,4.52,4.52,0,0,0-.06-.74,5.76,5.76,0,0,0-3.51-5.23,4.87,4.87,0,0,0-1.59-.68,3.73,3.73,0,0,0-1-.12,7.59,7.59,0,0,0-.92.06,6.6,6.6,0,0,0-2.28.4,19.49,19.49,0,0,0-2.89,1.44q-1.78,1.05-4.92,3.14-2.16,1.43-4,2.56a20.46,20.46,0,0,1-2.68,1.44,6.55,6.55,0,0,1-2.46.56,4.32,4.32,0,0,1-2.92-1.36q-1.46-1.35-2.43-6.4a13,13,0,0,1-.31-1.6v-.55a4.81,4.81,0,0,1,0-.52,2.41,2.41,0,0,1,.22-.71,3.59,3.59,0,0,1,.52-.86,4.29,4.29,0,0,1,.65-.68,10.46,10.46,0,0,1,1.72-.52c.9-.23,1.91-.46,3-.71C302,755,305,754.4,306.85,754a20.77,20.77,0,0,0,3.78-1.11q4.92-2.4,4.92-6.58a7.83,7.83,0,0,0-.24-1.85,6.75,6.75,0,0,0-3.51-4.06,5.63,5.63,0,0,0-2.95-.68c-.25,0-.86.06-1.85.16a66.11,66.11,0,0,0-6.7,1.44q-3.51.87-5.36,1.17a13.34,13.34,0,0,1-2.27.25c-.17,0-.43,0-.8-.06a1.47,1.47,0,0,1-1-.62,2.28,2.28,0,0,1-.52-.74,4.19,4.19,0,0,1-.22-1.1c0-.5-.08-1.23-.12-2.22v-1.54c0-1.23,0-3.09.06-5.59s.12-5.46.22-8.86.2-6.39.31-9a34.71,34.71,0,0,1,.33-4.52,3.68,3.68,0,0,1,2.83-2.52c.33-.08,1.2-.18,2.62-.31s3-.22,4.83-.31q5.41-.24,8.34-.43a38.62,38.62,0,0,0,4.27-.43,10,10,0,0,0,2.09-.55,6.91,6.91,0,0,0,4.06-4.86,6.42,6.42,0,0,0,.13-1.23,6.8,6.8,0,0,0-2-4.74,6.19,6.19,0,0,0-3-1.78,20.51,20.51,0,0,0-4.61-.37h-.92a71,71,0,0,0-7.39.43c-2.75.29-6.25.76-10.52,1.41q-3.87.61-6,1.08a12.54,12.54,0,0,0-3.16,1.05,7.74,7.74,0,0,0-2,1.57,6.21,6.21,0,0,0-1.54,2.33,21.88,21.88,0,0,0-1,4.56q-.42,3.14-1,9.1-1.29,14.09-1.29,25.78A149.38,149.38,0,0,0,277.29,761Zm100.16-67.06a3.81,3.81,0,0,0-1.42-.74,12.47,12.47,0,0,0-2.09-.12,10.86,10.86,0,0,0-2.18.15,5.14,5.14,0,0,0-1.51.71q-2.83,1.72-3.39,6-.12,1-.18,5t-.06,8.83q-.12,57.35-12.18,57.34-2.54,0-5.05-2.89a19.11,19.11,0,0,1-3.81-7.38q-3.57-11.82-4.06-42.14c-.09-4.07-.18-7.59-.28-10.59s-.18-4.75-.22-5.29q-.42-4.43-3.75-5.9a5.82,5.82,0,0,0-2.4-.56,6.84,6.84,0,0,0-2.86.83,6.43,6.43,0,0,0-2.8,3.54,8.69,8.69,0,0,0-.43,1.72c-.12.74-.24,1.88-.34,3.42s-.23,3.68-.4,6.43q-.42,7.14-.43,13.66,0,7.68.62,14.51,1.35,16.25,4,24.92T340,779a23.73,23.73,0,0,0,11.5,6.58,17.22,17.22,0,0,0,3.2.31q7,0,13.29-6.09,5.61-5.3,8.62-17.23,2.58-9.78,3.69-28,.24-4.43.37-12.12t.12-14.46q0-6.76-.18-8.43A8.07,8.07,0,0,0,377.45,693.94Zm27,83.12c.24-.37,1-1.51,2.15-3.42s2.58-4.13,4.18-6.67,3-4.82,4.25-6.71,2-3,2.27-3.32a2.65,2.65,0,0,1,2-.92,2.88,2.88,0,0,1,1,.18,2.34,2.34,0,0,1,.64.59c.31.35.78,1,1.42,1.84s1.51,2.15,2.64,3.79,2.58,3.75,4.34,6.33c1.64,2.38,3.13,4.53,4.46,6.43s2.21,3.13,2.62,3.66a9.35,9.35,0,0,0,4.86,3.45,5.93,5.93,0,0,0,1.41.18,8,8,0,0,0,2.46-.46,5.88,5.88,0,0,0,2.59-1.81,6.34,6.34,0,0,0,1.6-4.56,7.26,7.26,0,0,0-.5-2.55,23.45,23.45,0,0,0-2.12-3.88q-1.63-2.55-4.83-7.22-7.2-10.41-10.3-15.11c-2.08-3.14-3.11-4.93-3.11-5.38a6.12,6.12,0,0,1-.12-1.17,6.27,6.27,0,0,1,.27-1.69,12.63,12.63,0,0,1,1.33-2.68q3.38-5.36,13.47-20.42,2.4-3.51,4.09-6.25a35.89,35.89,0,0,0,1.94-3.35,8.63,8.63,0,0,0,.43-2.65,8.94,8.94,0,0,0-.65-3,5.82,5.82,0,0,0-2.92-3,6.93,6.93,0,0,0-3.08-.74,7.58,7.58,0,0,0-4.3,1.47,11.49,11.49,0,0,0-1.6,1.7c-.66.79-1.66,2.18-3,4.15s-3.3,4.84-5.84,8.61q-3,4.43-5.2,7.63t-2.74,3.69a2.58,2.58,0,0,1-1.78.92,1.9,1.9,0,0,1-1.29-.55,10.56,10.56,0,0,1-1.36-1.75c-.65-1-1.39-2.1-2.21-3.42q-9.48-15.13-14.34-19.87a11.14,11.14,0,0,0-2.73-1.94,8.41,8.41,0,0,0-2.93-.7h-.74a7.09,7.09,0,0,0-1.16.09,3.94,3.94,0,0,0-1.3.52,5.67,5.67,0,0,0-3,5,6.16,6.16,0,0,0,.58,2.74,20.7,20.7,0,0,0,2.37,3.42c.62.78,1.41,1.9,2.37,3.38s1.9,3,2.8,4.49l4.18,7,4.06,6.9,5.17,8.55v1.9a8.13,8.13,0,0,1-.12,1.57,7.11,7.11,0,0,1-.68,1.66c-.37.72-1,1.8-1.84,3.23q-2.6,4.44-6.34,11.26t-5.41,10.22a12.36,12.36,0,0,0-1.48,5.35,5.79,5.79,0,0,0,1.48,4,6.14,6.14,0,0,0,4.55,2.15c.16,0,.74,0,1.72-.12S403.18,778.82,404.46,777.06Zm165.43-4.49a7.24,7.24,0,0,1,.19,1.41,2,2,0,0,1-.07.56q-1,5.65-6.46,5.9a7.15,7.15,0,0,1-5.1-2,9.71,9.71,0,0,1-1.91-2.3,19.91,19.91,0,0,1-1.6-3.66,10.24,10.24,0,0,0-1.63-3.17,3.07,3.07,0,0,0-2.12-1.08,6.35,6.35,0,0,0-1.05-.06c-.78,0-1.86,0-3.26.12-2.3.12-4.75.28-7.35.46s-4.56.36-5.88.53a6,6,0,0,0-3.78,1.41c-.68.74-1.1,2.13-1.26,4.18a10.69,10.69,0,0,1-.8,3.6,6.3,6.3,0,0,1-1.85,2.31,3.76,3.76,0,0,1-1.29.74,8.09,8.09,0,0,1-1.78.25h-.68a8.17,8.17,0,0,1-1.11-.07,3.82,3.82,0,0,1-1.23-.43,9,9,0,0,1-3.38-3.75,13.1,13.1,0,0,1-.62-4.86A108.8,108.8,0,0,1,517,759.46q1.11-7.8,3.6-18.18t5.63-20.08q7.5-23.07,15.75-26.89a6.35,6.35,0,0,1,1.81-.68,17.7,17.7,0,0,1,2.44-.12,10.8,10.8,0,0,1,3.62.52,9.31,9.31,0,0,1,3,1.94,13.52,13.52,0,0,1,3.29,4.49,35.44,35.44,0,0,1,2.25,8.06q1,5.36,2.15,15,4.13,33.66,8.49,46.15A24.66,24.66,0,0,1,569.89,772.57Zm-20-21.72a3.49,3.49,0,0,0-.07-.68c0-.53-.13-1.28-.27-2.24s-.34-2.29-.59-4q-.48-3-1.1-7.6t-1.11-8.52a90.84,90.84,0,0,0-1.6-10,1.28,1.28,0,0,0-1.11-.8h-.12a2.05,2.05,0,0,0-1.42,1q-1.1,1.85-3.53,9.75t-4.77,17.13a39.5,39.5,0,0,0-1.48,8.13,2.59,2.59,0,0,0,.19,1.16,2,2,0,0,0,.49.47,6.1,6.1,0,0,0,.86.52,3.53,3.53,0,0,0,.8.31l1.78-.25c1.19-.12,2.63-.29,4.31-.49s3.24-.47,4.55-.68a16.68,16.68,0,0,0,2.46-.49,2.64,2.64,0,0,0,1.42-1.54,2.79,2.79,0,0,0,.24-.68A2.24,2.24,0,0,0,549.9,750.85ZM573,712.21c.16,1.23.36,2.68.58,4.34s.42,3.17.59,4.52a164.83,164.83,0,0,0,5.1,24.8q4.56,16.11,10.4,26t12,12.21a7.73,7.73,0,0,0,1.78.44c.41,0,.91.06,1.48.06h.86a11.63,11.63,0,0,0,2.55-.22,9.1,9.1,0,0,0,2-.77q9.48-4.8,12.55-22.08c.17-1.11.4-3,.71-5.54s.61-5.29.89-8.12q1.43-13.9,2.16-21.47L627.79,715c.24-2.56.43-4.74.55-6.55.2-2.54.31-4.55.31-6,0-.45,0-1.14-.13-2.06a6.2,6.2,0,0,0-1.1-2.86,6.75,6.75,0,0,0-3.08-2.65,6.89,6.89,0,0,0-2.52-.49,7.89,7.89,0,0,0-1.42.13,7.13,7.13,0,0,0-5.35,5.41c-.08.37-.21,1.37-.37,3s-.35,3.51-.55,5.6-.37,4.62-.62,7.32-.47,5.09-.68,7.14a3.26,3.26,0,0,1-.06.62q-.3,3.25-.83,8.33c-.35,3.39-.68,6.68-1,9.88q-1,10.34-1.66,15.19a44.42,44.42,0,0,1-1.36,6.89,12.17,12.17,0,0,1-1,2.49,2.77,2.77,0,0,1-1.17,1.08,1.58,1.58,0,0,1-.8.25,1.71,1.71,0,0,1-.37-.06,4.09,4.09,0,0,1-1.05-.8q-2-1.85-4.79-8.22a121.72,121.72,0,0,1-5.17-14q-1.29-4.44-2.56-9.91t-3.41-16.18c-.74-3.73-1.4-7-2-9.75s-1-4.4-1.14-4.89q-1.85-4.68-5.9-4.68a5.83,5.83,0,0,0-5.36,3.38,8.61,8.61,0,0,0-.73,4.07A36.27,36.27,0,0,0,573,712,.24.24,0,0,1,573,712.21Zm108.28,68.23a7.18,7.18,0,0,1-5.11-2,9.92,9.92,0,0,1-1.9-2.3,19.25,19.25,0,0,1-1.6-3.66,10.46,10.46,0,0,0-1.63-3.17,3.09,3.09,0,0,0-2.13-1.08,6.13,6.13,0,0,0-1-.06c-.78,0-1.87,0-3.26.12-2.3.12-4.75.28-7.35.46s-4.57.36-5.88.53a5.92,5.92,0,0,0-3.78,1.41c-.68.74-1.1,2.13-1.26,4.18a10.93,10.93,0,0,1-.8,3.6,6.4,6.4,0,0,1-1.85,2.31,3.76,3.76,0,0,1-1.29.74,8.19,8.19,0,0,1-1.79.25H640a8.17,8.17,0,0,1-1.11-.07,3.82,3.82,0,0,1-1.23-.43,7.91,7.91,0,0,1-1.94-1.6,7.64,7.64,0,0,1-1.44-2.15,12.89,12.89,0,0,1-.62-4.86,108.8,108.8,0,0,1,1.11-13.17q1.11-7.8,3.6-18.18T644,721.2q7.5-23.07,15.75-26.89a6.24,6.24,0,0,1,1.81-.68,17.43,17.43,0,0,1,2.43-.12,10.82,10.82,0,0,1,3.63.52,9.28,9.28,0,0,1,2.95,1.94,13.54,13.54,0,0,1,3.3,4.49,35.52,35.52,0,0,1,2.24,8.06q1,5.36,2.15,15,4.13,33.66,8.49,46.15a25.28,25.28,0,0,1,.93,2.89,7.11,7.11,0,0,1,.18,1.41,2.4,2.4,0,0,1-.06.56Q686.78,780.2,681.31,780.44Zm-13.66-29.59a4.37,4.37,0,0,0-.06-.68c0-.53-.13-1.28-.28-2.24s-.33-2.29-.58-4q-.5-3-1.11-7.6t-1.11-8.52a95.15,95.15,0,0,0-1.59-10,1.28,1.28,0,0,0-1.11-.8h-.13a2,2,0,0,0-1.41,1q-1.11,1.85-3.54,9.75T652,744.94a40,40,0,0,0-1.47,8.13,2.77,2.77,0,0,0,.18,1.16,2.22,2.22,0,0,0,.49.47,6.89,6.89,0,0,0,.87.52,3.36,3.36,0,0,0,.8.31l1.78-.25c1.19-.12,2.62-.29,4.31-.49s3.24-.47,4.55-.68a17,17,0,0,0,2.46-.49,2.6,2.6,0,0,0,1.41-1.54,2.48,2.48,0,0,0,.25-.68A2.8,2.8,0,0,0,667.65,750.85Zm70.45,30.7q5,0,8.12-4.92,2.09-3,3-9.6a213.4,213.4,0,0,0,1.29-21.72q.43-15.13,1.79-34,.44-6.64.55-10.27v-.86a20.1,20.1,0,0,0-.4-4.62,6.29,6.29,0,0,0-1.38-2.71,6.78,6.78,0,0,0-4.8-2.46H746a6.77,6.77,0,0,0-4.74,2,6.36,6.36,0,0,0-1.69,2.8,22.91,22.91,0,0,0-.71,5.08c-.2,2.91-.46,6.65-.76,11.23s-.59,8.84-.83,12.82c-.13,1.93-.26,4.52-.4,7.75s-.26,6.4-.34,9.48q-.13,4.13-.25,6.61c-.08,1.66-.17,2.95-.28,3.85a6.93,6.93,0,0,1-.4,1.91,1.74,1.74,0,0,1-.61.79.62.62,0,0,1-.37.13.69.69,0,0,1-.34-.13,4.28,4.28,0,0,1-.77-.73c-.24-.33-.53-.77-.86-1.33a17.14,17.14,0,0,1-.86-1.63c-.21-.57-.57-1.48-1.11-2.73L729,744.33q-3.13-7.44-10.46-27.5a152.26,152.26,0,0,0-6.37-15.66c-1.49-2.89-3-4.54-4.39-4.95a7.07,7.07,0,0,0-2.28-.37,10.37,10.37,0,0,0-4.12,1.08,7.72,7.72,0,0,0-3.76,3.78,10.37,10.37,0,0,0-.49,1.63,20.25,20.25,0,0,0-.37,2.18q-.18,2.28-.24,9.29-.06,4.74-.06,9.6,0,2.46.06,7.51t.24,8.86c.13,1.72.29,4.25.5,7.59s.4,6.7.61,10.06q.5,8.49.86,13.14c.25,3.1.47,5.35.68,6.77a10.59,10.59,0,0,0,.8,3.1,7.27,7.27,0,0,0,4.18,4.06,6.43,6.43,0,0,0,2,.31,8.37,8.37,0,0,0,2.55-.52,6.76,6.76,0,0,0,3-2.25,6,6,0,0,0,1.35-3.26c0-.45.06-1,.06-1.6q0-1.9-.24-4.92c-.29-3.08-.56-6.58-.8-10.52s-.45-7.44-.62-10.52q-.12-3.45-.12-4.74v-.55c.24-1,.61-1.54,1.11-1.54a.53.53,0,0,1,.24.06,2.12,2.12,0,0,1,.86.89,26.64,26.64,0,0,1,1.36,2.62q.85,1.85,2.27,5.23,4.92,11.56,8.25,17.75t6.06,8.4a9.58,9.58,0,0,0,6.18,2.21Zm73.39-88a7.68,7.68,0,0,0-1.29-.37,16,16,0,0,0-2.21-.15q-1.54,0-4.68,0A262.45,262.45,0,0,0,768,696a24.38,24.38,0,0,0-6.25,1.57,6.19,6.19,0,0,0-3,2.68,6.28,6.28,0,0,0-.8,3,9.09,9.09,0,0,0,.55,2.62,5.08,5.08,0,0,0,3.08,2.8,7.56,7.56,0,0,0,2.95.43h.62c1.35,0,3.2-.1,5.53-.31,1.28-.08,2.34-.12,3.2-.12a14.18,14.18,0,0,1,2,.15,2.11,2.11,0,0,1,1.6,1.14,1.62,1.62,0,0,1,.28.71,10.5,10.5,0,0,1,.12,1.53c0,.72,0,1.77,0,3.14v8.89a362.37,362.37,0,0,0,2.83,44.3,69.38,69.38,0,0,0,2.31,12.27q1.2,3.48,3.6,4.46a7,7,0,0,0,2.95.68,11,11,0,0,0,2.31-.37,6.89,6.89,0,0,0,4.46-6.46,33.54,33.54,0,0,0-.55-5.17q-3.21-19.56-4-51.12c-.08-2.87-.15-5.17-.19-6.89s-.06-3-.06-3.88a13.85,13.85,0,0,1,.09-1.88,2.92,2.92,0,0,1,.28-.89,2.43,2.43,0,0,1,1-1.23,6.18,6.18,0,0,1,2.43-.61c1.14-.13,2.83-.25,5-.37,2.42-.08,4.32-.18,5.69-.28s2.4-.2,3.08-.31a7.06,7.06,0,0,0,1.75-.46c3-1.39,4.55-3.42,4.68-6.09v-.25Q815.68,695.85,811.49,693.57ZM54.76,931.66A43.68,43.68,0,0,1,58.94,950a43.33,43.33,0,0,1-2.46,14.21,50.77,50.77,0,0,1-10,16.46,49.92,49.92,0,0,1-15.23,11.72,33.75,33.75,0,0,1-4.64,1.94,32.37,32.37,0,0,1-5.08,1.14c-1,.16-2,.36-3,.58s-1.74.42-2.28.59a12.59,12.59,0,0,1-3.5.55,7.21,7.21,0,0,1-3-.61,8,8,0,0,1-3.63-4.68q-.3-1.17-1.17-6.64T3.23,973.1q-.9-6.68-1.45-11.48c-.73-6.44-1.22-11.7-1.44-15.78S0,936.4,0,929.75v-6.52c0-1.68,0-3,0-4S.09,917.5.15,917a8,8,0,0,1,.22-1.17A6,6,0,0,1,.68,915a6.83,6.83,0,0,1,3-3.45,15.54,15.54,0,0,1,6-1.35c1.31-.13,2.64-.19,4-.19a60.84,60.84,0,0,1,16.55,2.53q9.6,2.7,15.41,7.22A30.82,30.82,0,0,1,54.76,931.66ZM44.7,950.05a25.39,25.39,0,0,0-.71-6.64q-2.77-10.89-10.21-14.52a44.88,44.88,0,0,0-9.39-3.32,35.57,35.57,0,0,0-7.29-1.17,6.58,6.58,0,0,0-1.66.18c-1.39.33-2.09,1.52-2.09,3.57q0,.55.06,1.17c0,.74.13,2.17.28,4.28s.3,4.44.46,7q.49,7.7,1.17,14.3T17,969.19c.33,2.46.59,4.42.8,5.87s.38,2.57.52,3.33a6.26,6.26,0,0,0,.5,1.66,3.76,3.76,0,0,0,.64.89,2.36,2.36,0,0,0,1.79.8h.12a7.67,7.67,0,0,0,2.95-1q4.24-2.15,9.91-7.81,7.56-7.32,9.72-15.93A30.24,30.24,0,0,0,44.7,950.05Zm68,26.77a4.91,4.91,0,0,0-1.6-.68,3.65,3.65,0,0,0-1-.12,7.75,7.75,0,0,0-.93.06,6.54,6.54,0,0,0-2.27.4,19.49,19.49,0,0,0-2.89,1.44q-1.79,1.05-4.93,3.14c-1.43,1-2.78,1.8-4,2.56a20.53,20.53,0,0,1-2.67,1.44,6.55,6.55,0,0,1-2.46.56A4.34,4.34,0,0,1,87,984.26q-1.44-1.35-2.43-6.4a14.63,14.63,0,0,1-.3-1.6v-.55a4.81,4.81,0,0,1,0-.52,2.68,2.68,0,0,1,.21-.71,4,4,0,0,1,.53-.86,4.28,4.28,0,0,1,.64-.68,10.81,10.81,0,0,1,1.72-.52c.91-.23,1.91-.46,3-.71,4.22-.74,7.25-1.31,9.07-1.72a20.68,20.68,0,0,0,3.79-1.11q4.92-2.4,4.92-6.58a7.38,7.38,0,0,0-.25-1.85,6.7,6.7,0,0,0-3.5-4.06,5.66,5.66,0,0,0-3-.68c-.24,0-.86.06-1.84.16A66.08,66.08,0,0,0,93,957.31q-3.51.87-5.35,1.17a13.34,13.34,0,0,1-2.28.25c-.16,0-.43,0-.8-.06a1.45,1.45,0,0,1-1-.62,2.14,2.14,0,0,1-.52-.74,3.5,3.5,0,0,1-.22-1.1c0-.5-.08-1.23-.12-2.22v-1.54c0-1.23,0-3.09.06-5.59s.11-5.46.21-8.86.21-6.39.31-9a33.82,33.82,0,0,1,.34-4.52A3.66,3.66,0,0,1,86.44,922c.33-.08,1.2-.18,2.62-.31s3-.22,4.82-.31q5.41-.24,8.34-.43a38.86,38.86,0,0,0,4.28-.43,10,10,0,0,0,2.09-.55,6.94,6.94,0,0,0,4.06-4.86,6.41,6.41,0,0,0,.12-1.23,6.76,6.76,0,0,0-2-4.74,6.12,6.12,0,0,0-2.95-1.78,20.61,20.61,0,0,0-4.62-.37h-.92a71,71,0,0,0-7.38.43q-4.12.44-10.52,1.41-3.88.61-6,1.08A12.78,12.78,0,0,0,75.21,911a7.91,7.91,0,0,0-2,1.57,6.33,6.33,0,0,0-1.54,2.33,22.7,22.7,0,0,0-1,4.56c-.29,2.09-.61,5.12-1,9.1q-1.3,14.09-1.3,25.78A150.68,150.68,0,0,0,70,977q3.33,19.82,14.58,22.77a18,18,0,0,0,3.88.43,26.25,26.25,0,0,0,10.83-2.65c1.1-.57,2.69-1.52,4.77-2.83s4.07-2.63,6-4a45.81,45.81,0,0,0,4-3,6.55,6.55,0,0,0,2.28-5,4.52,4.52,0,0,0-.06-.74A5.77,5.77,0,0,0,112.71,976.82Zm116.1-1.29a5.7,5.7,0,0,0-.8.06,13.45,13.45,0,0,0-4.06,1q-2.53,1-8.37,3.76c-1.44.69-2.82,1.33-4.15,1.9s-2.29,1-2.87,1.17a9,9,0,0,1-2.89.49l-1,0a3.25,3.25,0,0,1-1.79-.7q-2-1.54-3.13-6.46a24.44,24.44,0,0,1-.4-2.53c-.11-.9-.17-2.29-.19-4.18s0-4.82,0-8.8q0-13,.56-19.25.6-8.62,1.16-16.06t.68-9.85c0-.78.06-1.39.06-1.84a5,5,0,0,0-.12-1.17,4.48,4.48,0,0,0-.43-1.05,5.68,5.68,0,0,0-2.83-2.7,5.55,5.55,0,0,0-2.4-.56,5.61,5.61,0,0,0-1.42.19q-4.18,1.23-5.41,6.33c-.16.74-.45,2.49-.86,5.23s-.82,5.64-1.23,8.68-.7,5.35-.86,6.95c-.29,2.5-.55,5.87-.77,10.09s-.38,8.31-.46,12.24c0,1.73-.07,3.39-.07,5q0,14,2.47,20.85,4.25,12.43,15.13,14a20.64,20.64,0,0,0,2.22.12,24.21,24.21,0,0,0,5.72-.74,23.91,23.91,0,0,0,4.3-1.32c1.48-.59,3.67-1.59,6.59-3l4.27-2,3.48-1.63a22.5,22.5,0,0,0,3.75-2,6,6,0,0,0,1.79-2,7.64,7.64,0,0,0,1-3.57,6.77,6.77,0,0,0-1.72-4.37A6,6,0,0,0,228.81,975.53Zm55.74,1.29a5,5,0,0,0-1.6-.68,3.73,3.73,0,0,0-1-.12,7.59,7.59,0,0,0-.92.06,6.6,6.6,0,0,0-2.28.4,19.49,19.49,0,0,0-2.89,1.44q-1.78,1.05-4.92,3.14-2.16,1.43-4,2.56a19.83,19.83,0,0,1-2.68,1.44,6.55,6.55,0,0,1-2.46.56,4.32,4.32,0,0,1-2.92-1.36q-1.44-1.35-2.43-6.4a15.19,15.19,0,0,1-.31-1.6v-.55a4.81,4.81,0,0,1,0-.52,2.76,2.76,0,0,1,.22-.71,3.94,3.94,0,0,1,.52-.86,4.29,4.29,0,0,1,.65-.68,10.46,10.46,0,0,1,1.72-.52c.9-.23,1.91-.46,3-.71,4.23-.74,7.25-1.31,9.08-1.72a20.51,20.51,0,0,0,3.78-1.11q4.92-2.4,4.92-6.58a7.83,7.83,0,0,0-.24-1.85,6.72,6.72,0,0,0-3.51-4.06,5.63,5.63,0,0,0-2.95-.68c-.25,0-.86.06-1.85.16a66.11,66.11,0,0,0-6.7,1.44q-3.51.87-5.36,1.17a13.34,13.34,0,0,1-2.27.25c-.17,0-.43,0-.8-.06a1.47,1.47,0,0,1-1-.62,2.28,2.28,0,0,1-.52-.74,3.87,3.87,0,0,1-.21-1.1c-.05-.5-.09-1.23-.13-2.22v-1.54c0-1.23,0-3.09.06-5.59s.12-5.46.22-8.86.2-6.39.31-9a32,32,0,0,1,.34-4.52,3.65,3.65,0,0,1,2.83-2.52c.32-.08,1.2-.18,2.61-.31s3-.22,4.83-.31q5.41-.24,8.34-.43a38.62,38.62,0,0,0,4.27-.43,10,10,0,0,0,2.09-.55,6.91,6.91,0,0,0,4.06-4.86,5.71,5.71,0,0,0,.13-1.23,6.8,6.8,0,0,0-2-4.74,6.14,6.14,0,0,0-3-1.78A20.51,20.51,0,0,0,275,907h-.92a71,71,0,0,0-7.39.43q-4.11.44-10.52,1.41-3.87.61-6,1.08a12.49,12.49,0,0,0-3.17,1.05,7.74,7.74,0,0,0-2,1.57,6.21,6.21,0,0,0-1.54,2.33,21.37,21.37,0,0,0-1,4.56q-.43,3.14-1,9.1-1.29,14.09-1.29,25.78a149.38,149.38,0,0,0,1.54,22.7q3.32,19.82,14.58,22.77a17.93,17.93,0,0,0,3.87.43,26.18,26.18,0,0,0,10.83-2.65c1.11-.57,2.7-1.52,4.77-2.83s4.07-2.63,6-4a45.81,45.81,0,0,0,4-3,6.58,6.58,0,0,0,2.27-5,4.52,4.52,0,0,0-.06-.74A5.76,5.76,0,0,0,284.55,976.82Zm44.78-12A27.85,27.85,0,0,0,322,957a108.32,108.32,0,0,0-14.45-8.68q-4.62-2.46-7.05-3.81a25,25,0,0,1-3.44-2.19,4.78,4.78,0,0,1-1.39-1.63,3.21,3.21,0,0,1-.49-1.72q0-3.25,6.09-8.18,7.58-6.22,13.23-7.08c.53-.08,1.08-.17,1.66-.28s1-.19,1.29-.27a5.92,5.92,0,0,0,4-4,5.56,5.56,0,0,0,.25-1.6,6.41,6.41,0,0,0-1.48-3.94,8.54,8.54,0,0,0-6.71-2.77,20.37,20.37,0,0,0-6.15,1.11,57.59,57.59,0,0,0-6.34,2.77q-3.69,1.85-6.33,3.51a42.86,42.86,0,0,0-7.48,6.49,29.15,29.15,0,0,0-5.07,7.29,19.26,19.26,0,0,0-1.73,7.63q0,6.82,6.22,12.48a30.83,30.83,0,0,0,2.92,2.25q1.57,1.08,4.83,2.86t9.66,5.17a57.56,57.56,0,0,1,10.24,6.58c2.16,1.89,3.36,3.71,3.6,5.48a4.16,4.16,0,0,1,.06.67,4.05,4.05,0,0,1-.09.77,8.57,8.57,0,0,1-.52,1.45c-1.07,2-3.1,3.8-6.09,5.51a29.09,29.09,0,0,1-9.66,3.41q-6.29.93-7.2,5.35a7.9,7.9,0,0,0-.12,1.36,7.42,7.42,0,0,0,1,3.53,7.11,7.11,0,0,0,3.35,3,11.26,11.26,0,0,0,4,.67q5.42,0,13.48-3.87,13-6.71,15.81-16.8a12.66,12.66,0,0,0,.31-2.21c0-.54.06-1.13.06-1.79v-1.1a18.15,18.15,0,0,0-.74-5A18.94,18.94,0,0,0,329.33,964.82Zm124.1,23.75a7.11,7.11,0,0,1,.18,1.41,2.4,2.4,0,0,1-.06.56q-1,5.65-6.46,5.9a7.18,7.18,0,0,1-5.11-2,9.92,9.92,0,0,1-1.9-2.3,19.25,19.25,0,0,1-1.6-3.66,10.46,10.46,0,0,0-1.63-3.17,3.09,3.09,0,0,0-2.13-1.08,6.13,6.13,0,0,0-1-.06c-.78,0-1.87,0-3.26.12-2.3.12-4.75.28-7.35.46s-4.57.36-5.88.53a5.92,5.92,0,0,0-3.78,1.41c-.68.74-1.1,2.13-1.26,4.18a10.93,10.93,0,0,1-.8,3.6,6.3,6.3,0,0,1-1.85,2.31,3.76,3.76,0,0,1-1.29.74,8.19,8.19,0,0,1-1.79.25h-.67a8.17,8.17,0,0,1-1.11-.07,3.82,3.82,0,0,1-1.23-.43,7.91,7.91,0,0,1-1.94-1.6,7.64,7.64,0,0,1-1.44-2.15,12.89,12.89,0,0,1-.62-4.86,108.8,108.8,0,0,1,1.11-13.17q1.11-7.8,3.6-18.18t5.63-20.08q7.5-23.07,15.75-26.89a6.24,6.24,0,0,1,1.81-.68,17.43,17.43,0,0,1,2.43-.12,10.82,10.82,0,0,1,3.63.52,9.28,9.28,0,0,1,2.95,1.94,13.54,13.54,0,0,1,3.3,4.49,35.52,35.52,0,0,1,2.24,8.06q1,5.36,2.15,15,4.13,33.66,8.49,46.15A25.28,25.28,0,0,1,453.43,988.57Zm-20-21.72a4.37,4.37,0,0,0-.06-.68c0-.53-.13-1.28-.28-2.24s-.33-2.29-.58-4q-.5-3-1.11-7.6t-1.11-8.52a92.22,92.22,0,0,0-1.59-10,1.28,1.28,0,0,0-1.11-.8h-.13a2,2,0,0,0-1.41,1q-1.11,1.85-3.54,9.75t-4.77,17.13a40,40,0,0,0-1.47,8.13,2.77,2.77,0,0,0,.18,1.16,2.22,2.22,0,0,0,.49.47,6.89,6.89,0,0,0,.87.52,3.36,3.36,0,0,0,.8.31l1.78-.25c1.19-.12,2.62-.29,4.31-.49s3.24-.47,4.55-.68a17,17,0,0,0,2.46-.49,2.6,2.6,0,0,0,1.41-1.54,2.48,2.48,0,0,0,.25-.68A2.8,2.8,0,0,0,433.43,966.85Zm60.48-42a13.49,13.49,0,0,1,2.95-2.34,12.76,12.76,0,0,1,3.39-1.17q3.69-.68,5-2.7a6,6,0,0,0,1.11-3.33,8.71,8.71,0,0,0-.83-3.07c-.56-1.31-1.94-2.36-4.16-3.14a10.92,10.92,0,0,0-3.26-.49q-7.32,0-16.61,9.53-11.81,12.32-19,32.73a72.31,72.31,0,0,0-3,10.56,48.83,48.83,0,0,0-.86,9.25V971q0,12.19,7.5,20.18a21.83,21.83,0,0,0,13.66,7.26,22.94,22.94,0,0,0,2.34.13,24.32,24.32,0,0,0,8.92-1.85,46.29,46.29,0,0,0,7.66-4.24,26.06,26.06,0,0,0,5.51-4.56,7.92,7.92,0,0,0,1.41-4.24,6.53,6.53,0,0,0-1.6-4.19,6.29,6.29,0,0,0-5.17-2.27,7.58,7.58,0,0,0-3,.58,31.1,31.1,0,0,0-4.28,2.49,36.12,36.12,0,0,1-5,2.9,10.2,10.2,0,0,1-3.69.92,4.62,4.62,0,0,1-.74.06,7.39,7.39,0,0,1-5.66-2.77q-3.75-4.06-3.75-11,0-10,7.69-25.78Q486.71,932.15,493.91,924.83Zm64.35,43.5q-.42-9.36-.61-29.6-.12-9.72-.28-16.73c-.1-4.68-.17-7.36-.21-8.06q-.43-4.92-3.76-6.52a6,6,0,0,0-2.33-.49,10.92,10.92,0,0,0-2.13.3,4.54,4.54,0,0,0-2.55,1.85,7,7,0,0,0-1.35,3,48.7,48.7,0,0,0-.74,6.62q-.62,9.78-.8,16.18-.06,3.2-.06,6.71t.06,7.44c.08,3.28.13,5.89.15,7.81s0,3.39,0,4.37a19.12,19.12,0,0,1-.12,2.09,2.5,2.5,0,0,1-.34,1,3,3,0,0,1-.61.77,4.83,4.83,0,0,1-.87.64,20.49,20.49,0,0,1-3,.8c-1.48.33-3,.64-4.49.93a21,21,0,0,1-3.2.43,3.65,3.65,0,0,1-1.72-.43,2.74,2.74,0,0,1-1.17-1.11q-.49-.74-.92-8.43t-1-27.26c-.12-3.85-.24-7.19-.34-10s-.17-4.47-.21-4.93a6.11,6.11,0,0,0-3.33-4.92,5.67,5.67,0,0,0-2.46-.55,6.94,6.94,0,0,0-3.5,1,4.22,4.22,0,0,0-1.23,1.05,10.52,10.52,0,0,0-1,1.66,11.82,11.82,0,0,0-.65,1.54,8.77,8.77,0,0,0-.3,1.85c-.07.78-.14,2-.22,3.56q-.49,9.12-.49,17.6,0,3.81.24,11.66t1.91,28.95c.29,3.56.53,6.34.74,8.33A35.11,35.11,0,0,0,516,992a9.69,9.69,0,0,0,.92,2.53,6.7,6.7,0,0,0,5.91,3.63h1.93c1.25,0,2.6-1.23,4-3.7l.87-1.6-.19-4.36c0-1.07-.06-2-.06-2.65q0-.55,0-1.35a2.7,2.7,0,0,1,.4-1.39,3.51,3.51,0,0,1,1.17-1.07,3.05,3.05,0,0,1,1.17-.53c.53-.14,1.34-.29,2.43-.46s2.63-.35,4.64-.55a12.89,12.89,0,0,1,2-.19,4,4,0,0,1,2.8.93q1,.91,1.45,4.86c.37,2.95.66,5,.89,6.3a15.25,15.25,0,0,0,.77,2.93,7.2,7.2,0,0,0,4.86,4.73,5.05,5.05,0,0,0,1.41.19,8.92,8.92,0,0,0,2.37-.43,6.46,6.46,0,0,0,2.74-1.73,6.32,6.32,0,0,0,1.79-3.75,12.84,12.84,0,0,0,.06-1.35,54.39,54.39,0,0,0-.56-6.52Q558.69,977.68,558.26,968.33Zm58.88,8.49a4.91,4.91,0,0,0-1.6-.68,3.65,3.65,0,0,0-1-.12,7.75,7.75,0,0,0-.93.06,6.54,6.54,0,0,0-2.27.4,19.49,19.49,0,0,0-2.89,1.44q-1.79,1.05-4.93,3.14-2.14,1.43-4,2.56a21.13,21.13,0,0,1-2.68,1.44,6.55,6.55,0,0,1-2.46.56,4.3,4.3,0,0,1-2.92-1.36q-1.46-1.35-2.43-6.4a13,13,0,0,1-.31-1.6v-.55a4.81,4.81,0,0,1,0-.52,2.68,2.68,0,0,1,.21-.71,4,4,0,0,1,.53-.86,4.28,4.28,0,0,1,.64-.68,10.7,10.7,0,0,1,1.73-.52c.9-.23,1.9-.46,3-.71,4.22-.74,7.25-1.31,9.07-1.72a20.68,20.68,0,0,0,3.79-1.11q4.92-2.4,4.92-6.58a7.38,7.38,0,0,0-.25-1.85,6.7,6.7,0,0,0-3.5-4.06,5.66,5.66,0,0,0-3-.68c-.24,0-.86.06-1.84.16a66.08,66.08,0,0,0-6.71,1.44q-3.51.87-5.35,1.17a13.34,13.34,0,0,1-2.28.25c-.16,0-.43,0-.8-.06a1.45,1.45,0,0,1-1-.62,2.14,2.14,0,0,1-.52-.74,3.5,3.5,0,0,1-.22-1.1c0-.5-.08-1.23-.12-2.22v-1.54c0-1.23,0-3.09.06-5.59s.11-5.46.22-8.86.2-6.39.3-9a33.82,33.82,0,0,1,.34-4.52,3.66,3.66,0,0,1,2.83-2.52c.33-.08,1.2-.18,2.62-.31s3-.22,4.83-.31q5.4-.24,8.33-.43a38.86,38.86,0,0,0,4.28-.43A10,10,0,0,0,613,920a6.94,6.94,0,0,0,4.06-4.86,6.41,6.41,0,0,0,.12-1.23,6.76,6.76,0,0,0-2-4.74,6.12,6.12,0,0,0-2.95-1.78,20.51,20.51,0,0,0-4.61-.37h-.93a71,71,0,0,0-7.38.43q-4.12.44-10.52,1.41-3.87.61-6,1.08a12.78,12.78,0,0,0-3.17,1.05,7.91,7.91,0,0,0-2,1.57,6.19,6.19,0,0,0-1.53,2.33,21.88,21.88,0,0,0-1,4.56c-.29,2.09-.61,5.12-1,9.1q-1.29,14.09-1.3,25.78a150.68,150.68,0,0,0,1.54,22.7q3.33,19.82,14.58,22.77a18,18,0,0,0,3.88.43,26.25,26.25,0,0,0,10.83-2.65c1.11-.57,2.69-1.52,4.77-2.83s4.07-2.63,6-4a44.27,44.27,0,0,0,4-3,6.55,6.55,0,0,0,2.28-5,4.52,4.52,0,0,0-.06-.74A5.76,5.76,0,0,0,617.14,976.82Zm57.59-67.25a7.68,7.68,0,0,0-1.29-.37,16.2,16.2,0,0,0-2.22-.15c-1,0-2.58,0-4.68,0a262.58,262.58,0,0,0-35.31,3A24.18,24.18,0,0,0,625,913.6a6.21,6.21,0,0,0-3,2.68,6.28,6.28,0,0,0-.8,3,9.18,9.18,0,0,0,.56,2.62,5,5,0,0,0,3.07,2.8,7.62,7.62,0,0,0,3,.43h.61c1.35,0,3.2-.1,5.54-.31,1.27-.08,2.34-.12,3.2-.12a14.39,14.39,0,0,1,2,.15,2.12,2.12,0,0,1,1.6,1.14,1.75,1.75,0,0,1,.27.71,10.14,10.14,0,0,1,.13,1.53c0,.72,0,1.77,0,3.14v8.89a360.39,360.39,0,0,0,2.83,44.3,69.62,69.62,0,0,0,2.3,12.27q1.2,3.48,3.6,4.46a7.09,7.09,0,0,0,3,.68,11,11,0,0,0,2.3-.37,6.89,6.89,0,0,0,4.46-6.46,33.54,33.54,0,0,0-.55-5.17q-3.2-19.56-4-51.12-.12-4.3-.18-6.89c0-1.73-.06-3-.06-3.88a13.85,13.85,0,0,1,.09-1.88,2.68,2.68,0,0,1,.27-.89,2.47,2.47,0,0,1,1-1.23,6.18,6.18,0,0,1,2.43-.61c1.15-.13,2.83-.25,5-.37,2.42-.08,4.32-.18,5.7-.28s2.4-.2,3.07-.31a7.26,7.26,0,0,0,1.76-.46q4.49-2.09,4.67-6.09v-.25Q678.91,911.85,674.73,909.57Zm52.48,67.25a5,5,0,0,0-1.6-.68,3.73,3.73,0,0,0-1-.12,7.72,7.72,0,0,0-.92.06,6.6,6.6,0,0,0-2.28.4,20,20,0,0,0-2.89,1.44q-1.78,1.05-4.92,3.14-2.16,1.43-4,2.56a19.83,19.83,0,0,1-2.68,1.44,6.55,6.55,0,0,1-2.46.56,4.32,4.32,0,0,1-2.92-1.36q-1.44-1.35-2.43-6.4a15.19,15.19,0,0,1-.31-1.6v-.55a4.81,4.81,0,0,1,0-.52,2.76,2.76,0,0,1,.22-.71,3.94,3.94,0,0,1,.52-.86,4.29,4.29,0,0,1,.65-.68,10.46,10.46,0,0,1,1.72-.52c.9-.23,1.91-.46,3-.71q6.33-1.11,9.07-1.72a20.51,20.51,0,0,0,3.78-1.11c3.28-1.6,4.93-3.79,4.93-6.58a7.87,7.87,0,0,0-.25-1.85,6.68,6.68,0,0,0-3.51-4.06,5.63,5.63,0,0,0-3-.68c-.25,0-.86.06-1.85.16a66.11,66.11,0,0,0-6.7,1.44q-3.51.87-5.35,1.17a13.54,13.54,0,0,1-2.28.25c-.17,0-.43,0-.8-.06a1.47,1.47,0,0,1-1-.62,2.28,2.28,0,0,1-.52-.74,3.87,3.87,0,0,1-.21-1.1c0-.5-.09-1.23-.13-2.22v-1.54c0-1.23,0-3.09.07-5.59s.11-5.46.21-8.86.21-6.39.31-9a32,32,0,0,1,.34-4.52,3.65,3.65,0,0,1,2.83-2.52c.32-.08,1.2-.18,2.61-.31s3-.22,4.83-.31q5.42-.24,8.34-.43a38.34,38.34,0,0,0,4.27-.43,9.87,9.87,0,0,0,2.09-.55,7,7,0,0,0,4.07-4.86,6.41,6.41,0,0,0,.12-1.23,6.8,6.8,0,0,0-2-4.74,6.16,6.16,0,0,0-3-1.78,20.67,20.67,0,0,0-4.62-.37h-.92a70.71,70.71,0,0,0-7.38.43q-4.12.44-10.53,1.41-3.87.61-6,1.08a12.64,12.64,0,0,0-3.17,1.05,7.74,7.74,0,0,0-2,1.57,6.21,6.21,0,0,0-1.54,2.33,21.37,21.37,0,0,0-1,4.56q-.44,3.14-1,9.1-1.29,14.09-1.29,25.78a149.38,149.38,0,0,0,1.54,22.7q3.31,19.82,14.58,22.77a18,18,0,0,0,3.88.43,26.17,26.17,0,0,0,10.82-2.65c1.11-.57,2.7-1.52,4.77-2.83s4.07-2.63,6-4a45.81,45.81,0,0,0,4-3,6.55,6.55,0,0,0,2.28-5,4.53,4.53,0,0,0-.07-.74A5.76,5.76,0,0,0,727.21,976.82Zm58.26.55a8.08,8.08,0,0,1,.25,1.91,6.43,6.43,0,0,1-4,6,5.69,5.69,0,0,1-2.34.43,21.24,21.24,0,0,1-5.91-1.11c-1.84-.57-4-1.15-6.33-1.72s-4.58-1.08-6.59-1.51a25.46,25.46,0,0,0-3.87-.65c-1.32,0-2,.31-2.22.93a6.83,6.83,0,0,0-.24,1.72,29.68,29.68,0,0,0,.55,4.8c.41,2.42.63,4,.68,4.73s.06,1.26.06,1.54a6.67,6.67,0,0,1-.31,2.16,6,6,0,0,1-1.35,2.27,7.73,7.73,0,0,1-2.28,1.79,7.55,7.55,0,0,1-2.77.49,6.46,6.46,0,0,1-6.4-4.37q-1.59-4.12-3.41-18.83t-2.92-32.17q-.32-4.92-.31-7.26V935.1q0-3.26.12-7.75c.08-3.77.19-6.53.31-8.27a9.61,9.61,0,0,1,.74-3.63,7.19,7.19,0,0,1,1.72-2q3.45-3.19,12.37-3.51c.61,0,1.21-.06,1.78-.06q12.56,0,21.6,6.58a23.14,23.14,0,0,1,8.73,14.28,26.4,26.4,0,0,1,.37,4.43q0,12.24-10.64,25l-2,2.36c-.68.8-1.2,1.41-1.57,1.82a3.83,3.83,0,0,0-1.23,2.4,1.61,1.61,0,0,0,.68,1.29q.74.67,5,1.85a30.64,30.64,0,0,1,8.37,3.26A7.36,7.36,0,0,1,785.47,977.37ZM768.8,939.16a16.26,16.26,0,0,0,.43-3.75,11.1,11.1,0,0,0-.49-3.44,10.52,10.52,0,0,0-4.86-5.39,24.58,24.58,0,0,0-9.23-3.1,11.87,11.87,0,0,0-1.54-.19h-.56a3.48,3.48,0,0,0-.67.06,4,4,0,0,0-.92.31,1,1,0,0,1-.19.12,2.35,2.35,0,0,0-1,.74,2.64,2.64,0,0,0-.4,1.48c0,.66,0,1.21,0,1.66,0,.9,0,2.07.07,3.51q.18,3.26.55,9c0,.57,0,1.17.06,1.78.25,3.74.44,6.7.59,8.89s.29,3.84.46,4.93a9.36,9.36,0,0,0,.52,2.24,1.43,1.43,0,0,0,.71.8.93.93,0,0,0,.49.25h.61l.93-.37a11.11,11.11,0,0,0,2.49-2q1.76-1.66,3.69-3.75a46.5,46.5,0,0,0,3.17-3.76,38.54,38.54,0,0,0,3.14-5.16A28,28,0,0,0,768.8,939.16Z" transform="translate(0 -3.83)"/></svg>