<svg id="Layer_1" data-name="Layer 1" xmlns="http://www.w3.org/2000/svg" viewBox="0 0 897.2 998.15"><defs><style>.cls-1{fill:#0903f9;}.cls-2{fill:#41553d;}</style></defs><g id="coin_gourmand" data-name="coin gourmand"><path class="cls-1" d="M78.31,101.51a9.74,9.74,0,0,1,2.46,6.24,10.91,10.91,0,0,1-1.4,5.1,8.55,8.55,0,0,1-2.55,2.9,31.58,31.58,0,0,1-5.36,2.9l-5,2.33-6.11,2.86q-6.24,3-9.4,4.26A35.68,35.68,0,0,1,44.82,130a35.28,35.28,0,0,1-8.17,1,27.88,27.88,0,0,1-3.16-.17q-15.55-2.19-21.62-20-3.53-9.84-3.52-29.8c0-2.28,0-4.66.09-7.12q.17-8.43.66-17.49T10.2,42.1q.35-3.43,1.23-9.93t1.75-12.39q.88-5.9,1.23-7.48c1.18-4.86,3.75-7.88,7.74-9a8.55,8.55,0,0,1,2-.26,7.92,7.92,0,0,1,3.43.79,8.14,8.14,0,0,1,4,3.87,6.31,6.31,0,0,1,.62,1.49,7.4,7.4,0,0,1,.17,1.67c0,.65,0,1.52-.09,2.64-.11,2.28-.44,7-1,14.06s-1.09,14.74-1.67,22.94q-.8,8.88-.79,27.51,0,8.52,0,12.57c0,2.69.12,4.69.26,6s.34,2.5.57,3.61q1.68,7,4.49,9.23a4.65,4.65,0,0,0,2.55,1l1.4,0a12.93,12.93,0,0,0,4.13-.7c.82-.3,2.19-.85,4.09-1.67s3.88-1.73,5.93-2.73q8.35-3.95,12-5.36a19.29,19.29,0,0,1,5.8-1.49,7.91,7.91,0,0,1,1.14-.09A8.52,8.52,0,0,1,78.31,101.51ZM124.8,4Q120,4,115.49,8.09q-2.37,1.85-7.52,6.54t-9.8,9.14c-3.1,3-5,4.79-5.62,5.5a20.94,20.94,0,0,0-1.89,3.6,9.28,9.28,0,0,0-.84,3.43,7.77,7.77,0,0,0,1.63,4.48A9.09,9.09,0,0,0,95.36,44a7.71,7.71,0,0,0,2.81.44q.27,0,1.41-.09a7.79,7.79,0,0,0,2.55-.7,47.47,47.47,0,0,0,4.61-3.29q3.74-2.87,8.57-6.68t8.92-7.17c2.73-2.22,4.59-3.81,5.58-4.74Q134,17.57,134,13.27a8.88,8.88,0,0,0-2.55-6.63A9.43,9.43,0,0,0,124.8,4ZM224.65,117a10.49,10.49,0,0,1,.26,2,3.12,3.12,0,0,1-.09.79q-1.4,8.1-9.22,8.44a10.24,10.24,0,0,1-7.3-2.9,14.08,14.08,0,0,1-2.72-3.29,27.27,27.27,0,0,1-2.29-5.23,14.78,14.78,0,0,0-2.33-4.53,4.43,4.43,0,0,0-3-1.54,8.43,8.43,0,0,0-1.49-.09c-1.12,0-2.67.06-4.66.18-3.28.18-6.79.4-10.51.66s-6.51.51-8.39.75q-4,.44-5.4,2c-1,1-1.57,3-1.81,6a15.2,15.2,0,0,1-1.14,5.15,9,9,0,0,1-2.64,3.29,5.52,5.52,0,0,1-1.84,1.06,12.06,12.06,0,0,1-2.55.35h-1A11.32,11.32,0,0,1,155,130a5.66,5.66,0,0,1-1.76-.62,11.22,11.22,0,0,1-2.77-2.28,11.77,11.77,0,0,1-2.06-3.08c-.59-1.28-.88-3.6-.88-6.94a156.8,156.8,0,0,1,1.58-18.81q1.59-11.16,5.14-26t8.05-28.7q10.71-33,22.5-38.4a8.67,8.67,0,0,1,2.59-1A23.78,23.78,0,0,1,190.81,4a15.16,15.16,0,0,1,5.19.75,13.17,13.17,0,0,1,4.21,2.77A19.17,19.17,0,0,1,204.92,14a50.05,50.05,0,0,1,3.2,11.52q1.41,7.65,3.08,21.44,5.9,48.08,12.13,65.92A38.81,38.81,0,0,1,224.65,117ZM196.08,86a6.9,6.9,0,0,0-.08-1c-.06-.76-.19-1.83-.4-3.21s-.48-3.26-.83-5.67q-.71-4.31-1.59-10.85T191.6,53.09q-1.66-12.66-2.28-14.33a1.81,1.81,0,0,0-1.59-1.14h-.17a2.91,2.91,0,0,0-2,1.49Q184,41.75,180.48,53t-6.81,24.48q-2.1,8.36-2.11,11.6a3.86,3.86,0,0,0,.27,1.67,2.83,2.83,0,0,0,.7.66,8.69,8.69,0,0,0,1.23.75,5.22,5.22,0,0,0,1.14.44l2.55-.35c1.7-.18,3.75-.41,6.15-.71s4.63-.67,6.51-1a24.48,24.48,0,0,0,3.51-.71,3.74,3.74,0,0,0,2-2.2,3.84,3.84,0,0,0,.36-1A4.8,4.8,0,0,0,196.08,86Zm114.67,15.63q0-5.9.19-12.61.44-11.81.43-19.44,0-3.81-.22-9.38a33.47,33.47,0,0,0-1.56-9.51q-2.54-7.5-8-9.72a10.51,10.51,0,0,0-3.94-.8,12.67,12.67,0,0,0-7.26,2.58q-6.76,5.49-14.15,21.35A30.47,30.47,0,0,1,274,68.55q-.68.93-1.23.93a.67.67,0,0,1-.3-.06,1,1,0,0,1-.59-.31,2.81,2.81,0,0,1-.43-.86c-.14-.41-.32-1-.52-1.82s-.45-1.89-.74-3.29A55.63,55.63,0,0,0,267,52a18.19,18.19,0,0,0-4.46-6.39,14.9,14.9,0,0,0-2.52-2,9.69,9.69,0,0,0-2.65-1.08,10.77,10.77,0,0,0-2.64-.37h-.83a8.47,8.47,0,0,0-2.31.55q-5.35,1.73-9.51,8.68a57,57,0,0,0-6.36,17.78,148.76,148.76,0,0,0-2.59,29.16q0,7.26.34,11.51a99.11,99.11,0,0,0,1.38,9.84,29.23,29.23,0,0,0,2,6.83,7.34,7.34,0,0,0,3,3.32,7.54,7.54,0,0,0,3.57,1,6,6,0,0,0,4.36-2,5.49,5.49,0,0,0,1.42-3.88,9.29,9.29,0,0,0-.25-2.09c-.41-1.85-.7-3.27-.86-4.28s-.31-2.35-.43-4-.27-4.43-.31-8.12v-5.47q0-2.78,0-6.86c0-2.73.12-5,.28-6.68.08-1.07.2-2.37.37-3.91s.33-3,.49-4.27q1.35-10.28,3.14-14.64c.78-1.89,1.56-2.83,2.34-2.83a1.78,1.78,0,0,1,1.29.86,6,6,0,0,1,.8,2.09c.29,1.11.65,3,1.11,5.78s1,6.7,1.78,11.85,1.68,11.9,2.83,20.27c.29,2.25.55,4,.8,5.17a9.47,9.47,0,0,0,.92,2.73,10.32,10.32,0,0,0,1.42,1.88,8.06,8.06,0,0,0,1.54,1.26,4.91,4.91,0,0,0,1.53.58,7.57,7.57,0,0,0,1.67.19,8.23,8.23,0,0,0,3.9-1.11,8.34,8.34,0,0,0,3.42-3.94,20.82,20.82,0,0,0,.77-2.18c.3-1,.58-2,.83-3.11q5.28-23.49,12-37,1.49-2.89,2.34-4.4a8.68,8.68,0,0,1,1.42-2,1.8,1.8,0,0,1,1.23-.49,1.28,1.28,0,0,1,.77.21,2.17,2.17,0,0,1,.52.89,5.62,5.62,0,0,1,.28,1.42q.09,1,.09,3.45t-.06,7.07q-.25,14.76-.37,22.46-.06,5.1-.06,8.43c0,1.14,0,2.54,0,4.18s.07,3.42.15,5.35a91.62,91.62,0,0,0,1,11.14,9.55,9.55,0,0,0,2,4.67,7.62,7.62,0,0,0,1,.93,5.53,5.53,0,0,0,1.17.73,6.5,6.5,0,0,0,2.83.68,9.86,9.86,0,0,0,2.64-.52,5.77,5.77,0,0,0,3.08-2.68,8.31,8.31,0,0,0,1.11-3,12.91,12.91,0,0,0,.06-1.36,28.66,28.66,0,0,0-.19-3.07Q310.76,112.85,310.75,101.59Zm63.68-59.31a3.53,3.53,0,0,0-1.41-.73,11.28,11.28,0,0,0-2.1-.13,10,10,0,0,0-2.18.16,5,5,0,0,0-1.51.7q-2.82,1.72-3.38,6c-.08.66-.14,2.33-.18,5s-.07,5.63-.07,8.83q-.12,57.33-12.18,57.34-2.52,0-5-2.9a18.84,18.84,0,0,1-3.82-7.38Q339,97.42,338.5,67.08q-.12-6.09-.27-10.58c-.11-3-.18-4.76-.22-5.3q-.43-4.43-3.75-5.9a5.8,5.8,0,0,0-2.4-.55,6.66,6.66,0,0,0-2.86.83,6.37,6.37,0,0,0-2.8,3.53,8.15,8.15,0,0,0-.43,1.73c-.13.73-.24,1.87-.34,3.41s-.24,3.68-.4,6.43q-.43,7.14-.43,13.66c0,5.13.2,10,.61,14.52q1.35,16.24,4,24.91t7.82,13.6a23.61,23.61,0,0,0,11.5,6.58,17.14,17.14,0,0,0,3.2.31q7,0,13.29-6.09,5.6-5.29,8.61-17.23,2.58-9.78,3.69-28,.26-4.42.37-12.12c.08-5.13.13-9.94.13-14.46s-.07-7.32-.19-8.43A8,8,0,0,0,374.43,42.28Zm60.05,54.88a27.85,27.85,0,0,0-7.32-7.87,109,109,0,0,0-14.46-8.68q-4.62-2.46-7.05-3.81a24.65,24.65,0,0,1-3.44-2.19A4.63,4.63,0,0,1,400.83,73a3.19,3.19,0,0,1-.5-1.72q0-3.26,6.09-8.18Q414,56.87,419.65,56l1.66-.27c.58-.11,1-.2,1.29-.28a5.9,5.9,0,0,0,4-4,5.19,5.19,0,0,0,.25-1.6,6.37,6.37,0,0,0-1.48-3.94,8.51,8.51,0,0,0-6.7-2.76,20.33,20.33,0,0,0-6.16,1.1A56.73,56.73,0,0,0,406.18,47c-2.46,1.23-4.58,2.4-6.34,3.51A42.44,42.44,0,0,0,392.37,57a29.21,29.21,0,0,0-5.08,7.29,19.27,19.27,0,0,0-1.72,7.63q0,6.82,6.21,12.49a32.1,32.1,0,0,0,2.92,2.24c1.05.72,2.66,1.68,4.83,2.86s5.4,2.92,9.66,5.17a57.09,57.09,0,0,1,10.25,6.59c2.15,1.88,3.35,3.71,3.6,5.47a4.27,4.27,0,0,1,.06.68,3.6,3.6,0,0,1-.1.77,7.72,7.72,0,0,1-.52,1.44q-1.61,3-6.09,5.51a28.93,28.93,0,0,1-9.66,3.41q-6.27.93-7.2,5.36a7.7,7.7,0,0,0-.12,1.35,7.44,7.44,0,0,0,1,3.54,7.05,7.05,0,0,0,3.35,3,11.22,11.22,0,0,0,4,.68q5.42,0,13.47-3.88,13-6.7,15.81-16.79a12,12,0,0,0,.31-2.22c0-.53.06-1.13.06-1.78V106.7a18,18,0,0,0-.74-5A19.13,19.13,0,0,0,434.48,97.16Zm55.62,12a5.24,5.24,0,0,0-1.6-.68,3.73,3.73,0,0,0-1-.12,7.59,7.59,0,0,0-.92.06,6.84,6.84,0,0,0-2.28.4,18.76,18.76,0,0,0-2.89,1.45c-1.19.7-2.83,1.74-4.92,3.14q-2.16,1.41-4,2.55a18.71,18.71,0,0,1-2.68,1.44,6.55,6.55,0,0,1-2.46.56,4.28,4.28,0,0,1-2.92-1.36q-1.44-1.35-2.43-6.39a13.31,13.31,0,0,1-.31-1.6v-.56a4.81,4.81,0,0,1,0-.52,2.5,2.5,0,0,1,.22-.71,3.79,3.79,0,0,1,.52-.86,4.29,4.29,0,0,1,.65-.68,11.61,11.61,0,0,1,1.72-.52l3-.71c4.23-.73,7.25-1.31,9.08-1.72a20.77,20.77,0,0,0,3.78-1.11q4.92-2.4,4.92-6.58a7.9,7.9,0,0,0-.24-1.85,6.72,6.72,0,0,0-3.51-4.06,5.63,5.63,0,0,0-3-.67c-.25,0-.86,0-1.85.15a67.3,67.3,0,0,0-6.7,1.45q-3.51.86-5.36,1.17a14.24,14.24,0,0,1-2.27.24c-.17,0-.43,0-.8-.06a1.49,1.49,0,0,1-1-.61,2.51,2.51,0,0,1-.52-.74,4,4,0,0,1-.21-1.11c-.05-.49-.09-1.23-.13-2.22V84.8c0-1.23,0-3.1.06-5.6s.12-5.46.22-8.86.2-6.39.31-9a31.87,31.87,0,0,1,.34-4.52,3.64,3.64,0,0,1,2.83-2.53,24.18,24.18,0,0,1,2.61-.3c1.41-.13,3-.23,4.83-.31q5.42-.25,8.34-.43c1.94-.13,3.37-.27,4.27-.43a10.62,10.62,0,0,0,2.09-.56A6.9,6.9,0,0,0,490,47.45a5.71,5.71,0,0,0,.13-1.23,6.8,6.8,0,0,0-2-4.74,6.22,6.22,0,0,0-3-1.78,20.51,20.51,0,0,0-4.61-.37h-.92a71,71,0,0,0-7.39.43q-4.11.43-10.52,1.42-3.87.62-6,1.07a12.49,12.49,0,0,0-3.17,1,7.74,7.74,0,0,0-2,1.57,6.17,6.17,0,0,0-1.54,2.34,21.25,21.25,0,0,0-1,4.55c-.29,2.09-.62,5.13-1,9.1Q445.8,75,445.8,86.64a149.38,149.38,0,0,0,1.54,22.7q3.32,19.81,14.58,22.77a17.93,17.93,0,0,0,3.87.43,26,26,0,0,0,10.83-2.65q1.67-.85,4.77-2.83t6-4a47.5,47.5,0,0,0,4-3,6.55,6.55,0,0,0,2.27-5,4.62,4.62,0,0,0-.06-.74A5.77,5.77,0,0,0,490.1,109.16Zm75-26.89a5,5,0,0,0-1.58-.4c-.7-.09-1.8-.16-3.29-.22s-3.64-.09-6.42-.09H542.67q-13.89,0-21.18.27A53.69,53.69,0,0,0,511,82.92a9.86,9.86,0,0,0-4.74,2.51,8.3,8.3,0,0,0-2.73,6.15c0,.06,0,.71,0,1.94s1,2.66,2.95,4.3a7,7,0,0,0,2.55,1.54,20,20,0,0,0,4.3.75q2.91.26,8.62.44c3.16.11,6.55.25,10.15.39s6.63.28,9.1.4q7.38.34,12.39.35c1.29,0,3.1,0,5.45-.09a19.66,19.66,0,0,0,6.11-1,10,10,0,0,0,6.63-9,17.68,17.68,0,0,0-.83-4.13Q570.18,84.56,565.08,82.27Zm102.66-55a34.13,34.13,0,0,1,.62,7.12,42.88,42.88,0,0,1-.53,7.29,49.74,49.74,0,0,1-1.54,5.45,58.76,58.76,0,0,1-2.5,5.8Q660.36,60,652.18,69.17q-1.75,2-3,3.69A14.33,14.33,0,0,0,647.7,75a2.54,2.54,0,0,0-.17,1,3.3,3.3,0,0,0,.52,1.67,20.69,20.69,0,0,0,3.52,3.6c1,1,1.95,2,2.85,3a22.7,22.7,0,0,1,2,2.32,20.44,20.44,0,0,1,2.81,10.64,29.65,29.65,0,0,1-.26,3.95,35.92,35.92,0,0,1-7.12,16.18q-10.2,12.91-31.46,16.17a43.09,43.09,0,0,1-5.1.44H612.9q-2.64,0-6-.27a21.05,21.05,0,0,1-5.1-.88,8.78,8.78,0,0,1-3.16-1.93,10,10,0,0,1-2.42-2.9,17.13,17.13,0,0,1-1.49-5.27q-.57-3.6-1.1-10.77t-1.23-19.38q-1.06-19.33-1.58-30.28t-.71-17.75Q590,37.62,590,29.62t.13-12.13a48.33,48.33,0,0,1,.48-6.11A12.57,12.57,0,0,1,591.63,8a7.84,7.84,0,0,1,4.26-4.13q3-1.32,10.33-2.29A134.2,134.2,0,0,1,624.15.18a61.68,61.68,0,0,1,8.43.52,64.13,64.13,0,0,1,12.79,3.78,49.37,49.37,0,0,1,10.94,6A30.48,30.48,0,0,1,667.74,27.25ZM638,99.49q0-2.71-3.17-3.87a18.07,18.07,0,0,0-5.27-.52,58.28,58.28,0,0,0-7.43.48,22.34,22.34,0,0,0-5.4,1.19,4.59,4.59,0,0,0-2.55,2.41,15.22,15.22,0,0,0-.62,5.15,21,21,0,0,0,.53,5.58,3.75,3.75,0,0,0,1.93,2.41,4.22,4.22,0,0,0,2.46.8,19.34,19.34,0,0,0,4.31-.8,27.62,27.62,0,0,0,10.9-5.4Q637.94,103.28,638,99.49Zm10-65.56a9.5,9.5,0,0,0-.08-1.32,6.27,6.27,0,0,0-.79-2.2,8.62,8.62,0,0,0-1.1-1.85A8.93,8.93,0,0,0,644.45,27,26.64,26.64,0,0,0,639,23.77a47.51,47.51,0,0,0-7.25-2.68,23,23,0,0,0-3.16-.74,30.6,30.6,0,0,0-3.34-.31C624,20,622.21,20,619.93,20s-4.19,0-5.36.05a13.77,13.77,0,0,0-2.46.21,2.51,2.51,0,0,0-1.15.62,3.87,3.87,0,0,0-1.49,1.76A9.46,9.46,0,0,0,609,26q0,2.28.35,6.76.27,3.53.57,9.36t.66,11.39c.18,3.57.35,6.73.53,9.49s.29,4.45.35,5.1c.29,3,1.38,4.48,3.25,4.48a3.29,3.29,0,0,0,.88-.22q.61-.22,1.41-.57,5.88-2.82,13.71-9.94A79.21,79.21,0,0,0,643,48.16a37.4,37.4,0,0,0,3.74-6.59,16.53,16.53,0,0,0,1.1-5.62C647.93,35.19,648,34.51,648,33.93Zm80.84,87a7.29,7.29,0,0,1,.18,1.42,2.32,2.32,0,0,1-.06.55q-1,5.66-6.46,5.91a7.22,7.22,0,0,1-5.11-2,10.19,10.19,0,0,1-1.9-2.31,18.69,18.69,0,0,1-1.6-3.66,10.59,10.59,0,0,0-1.63-3.17,3.13,3.13,0,0,0-2.13-1.08,6.13,6.13,0,0,0-1-.06c-.78,0-1.87,0-3.26.12-2.3.13-4.75.28-7.35.47s-4.57.36-5.88.52a6,6,0,0,0-3.78,1.41c-.68.74-1.1,2.14-1.26,4.19a10.93,10.93,0,0,1-.8,3.6,6.35,6.35,0,0,1-1.85,2.3,3.76,3.76,0,0,1-1.29.74,8.19,8.19,0,0,1-1.79.25h-.67A8.39,8.39,0,0,1,680,130a4.37,4.37,0,0,1-1.23-.43,8.14,8.14,0,0,1-1.94-1.6,8.06,8.06,0,0,1-1.44-2.16,12.89,12.89,0,0,1-.62-4.86,108.83,108.83,0,0,1,1.11-13.16q1.11-7.82,3.6-18.18t5.63-20.09q7.5-23.07,15.75-26.89a5.9,5.9,0,0,1,1.81-.67,15.67,15.67,0,0,1,2.43-.13,10.55,10.55,0,0,1,3.63.53,9.23,9.23,0,0,1,3,1.93,13.48,13.48,0,0,1,3.3,4.5,35.36,35.36,0,0,1,2.24,8.06q1,5.34,2.15,15,4.13,33.65,8.5,46.14A27.55,27.55,0,0,1,728.8,120.91Zm-20-21.72a4.16,4.16,0,0,0-.06-.67c0-.54-.13-1.28-.28-2.25s-.33-2.29-.58-4q-.5-3-1.11-7.6t-1.1-8.52a93.23,93.23,0,0,0-1.6-10,1.26,1.26,0,0,0-1.11-.8h-.13a2,2,0,0,0-1.41,1q-1.11,1.84-3.54,9.75t-4.77,17.14a39.81,39.81,0,0,0-1.47,8.12,2.85,2.85,0,0,0,.18,1.17,2.5,2.5,0,0,0,.49.46,5.88,5.88,0,0,0,.87.52,3,3,0,0,0,.8.31l1.78-.25c1.19-.12,2.62-.28,4.31-.49s3.24-.47,4.55-.68a17,17,0,0,0,2.46-.49,2.61,2.61,0,0,0,1.42-1.54,2.73,2.73,0,0,0,.24-.67A3,3,0,0,0,708.8,99.19Zm75.37,10.52a8.15,8.15,0,0,1,.25,1.91,6.43,6.43,0,0,1-4,6,5.53,5.53,0,0,1-2.34.43,21.24,21.24,0,0,1-5.91-1.11c-1.84-.57-4-1.15-6.34-1.72s-4.57-1.08-6.58-1.51a24.94,24.94,0,0,0-3.87-.64c-1.32,0-2.06.3-2.22.92a6.83,6.83,0,0,0-.24,1.72,29.68,29.68,0,0,0,.55,4.8c.41,2.42.63,4,.68,4.74s.06,1.25.06,1.54a6.56,6.56,0,0,1-.31,2.15,6,6,0,0,1-1.35,2.28,7.86,7.86,0,0,1-2.28,1.78,7.35,7.35,0,0,1-2.77.49,7.69,7.69,0,0,1-2.77-.49,8,8,0,0,1-3.63-3.88q-1.59-4.11-3.41-18.82t-2.92-32.18q-.32-4.92-.31-7.26V67.45q0-3.27.12-7.75c.08-3.78.19-6.54.31-8.28a9.71,9.71,0,0,1,.74-3.63,7.19,7.19,0,0,1,1.72-2q3.45-3.19,12.37-3.51c.61,0,1.21-.06,1.78-.06q12.56,0,21.59,6.59a23.06,23.06,0,0,1,8.74,14.27,26.49,26.49,0,0,1,.37,4.43q0,12.24-10.64,25l-2,2.37c-.68.8-1.2,1.4-1.57,1.81a3.86,3.86,0,0,0-1.23,2.4,1.63,1.63,0,0,0,.67,1.29c.5.46,2.18,1.07,5.05,1.85a31,31,0,0,1,8.37,3.26A7.36,7.36,0,0,1,784.17,109.71ZM767.5,71.51a16.35,16.35,0,0,0,.43-3.76,10.8,10.8,0,0,0-.5-3.44,10.38,10.38,0,0,0-4.86-5.38,24.53,24.53,0,0,0-9.22-3.11,14.09,14.09,0,0,0-1.54-.19h-.56a3.45,3.45,0,0,0-.67.07,4.07,4.07,0,0,0-.93.3.52.52,0,0,1-.18.13,2.21,2.21,0,0,0-1.05.74,2.6,2.6,0,0,0-.4,1.47c0,.66,0,1.21,0,1.66,0,.91,0,2.07.06,3.51.13,2.17.31,5.17.56,9,0,.58,0,1.17.06,1.79q.38,5.59.58,8.89c.15,2.19.3,3.83.47,4.92a9.23,9.23,0,0,0,.52,2.24,1.43,1.43,0,0,0,.71.8.86.86,0,0,0,.49.25h.61L753,91a10.81,10.81,0,0,0,2.49-2q1.75-1.67,3.69-3.75a48.34,48.34,0,0,0,3.17-3.75,38.68,38.68,0,0,0,3.14-5.17A28.23,28.23,0,0,0,767.5,71.51ZM814.2,117q-3.08-5.53-7.82-6.24a13.37,13.37,0,0,0-1.5-.09,6.93,6.93,0,0,0-5.88,3,6.25,6.25,0,0,0-1.15,3.78,17.37,17.37,0,0,0,1.94,7.12,14.77,14.77,0,0,1,1.84,6.68,9.54,9.54,0,0,1-.17,1.76,16.6,16.6,0,0,1-1.15,3.91,17.73,17.73,0,0,1-2.37,3.82,8.65,8.65,0,0,0-1.84,4.84,7,7,0,0,0,1.31,3.47q1.32,2.05,5.54,2.24h.35q4.05,0,7.91-4.13a26,26,0,0,0,6.07-13.45,22.1,22.1,0,0,0,.26-3.34A30.77,30.77,0,0,0,814.2,117Z" transform="translate(-3.45 -0.18)"/><path class="cls-2" d="M8.31,332.67q-2.48-6.9-2.47-20.86c0-1.6,0-3.26.07-5q.12-5.91.46-12.25t.77-10.09c.16-1.6.45-3.91.86-6.95s.82-5.93,1.23-8.67.7-4.5.86-5.23q1.23-5.11,5.41-6.34a6.07,6.07,0,0,1,1.42-.18,5.54,5.54,0,0,1,2.4.55,5.7,5.7,0,0,1,2.83,2.71,4.42,4.42,0,0,1,.43,1,5,5,0,0,1,.12,1.17c0,.45,0,1.07-.06,1.85q-.12,2.4-.68,9.84t-1.17,16.06q-.54,6.21-.55,19.25c0,4,0,6.92,0,8.8s.08,3.28.19,4.19a24.67,24.67,0,0,0,.4,2.52Q22,330,24,331.56a3.27,3.27,0,0,0,1.79.71l1,0a9,9,0,0,0,2.89-.5c.58-.2,1.53-.59,2.87-1.16s2.71-1.21,4.15-1.91Q42.51,326,45,325a13.22,13.22,0,0,1,4.06-1.05,5.7,5.7,0,0,1,.8-.06,6,6,0,0,1,4.92,2.21,6.79,6.79,0,0,1,1.72,4.37,7.64,7.64,0,0,1-1,3.57,5.94,5.94,0,0,1-1.79,2,22.5,22.5,0,0,1-3.75,2l-3.48,1.63-4.27,2c-2.92,1.39-5.11,2.39-6.59,3a24.81,24.81,0,0,1-4.3,1.33,24.7,24.7,0,0,1-5.72.73,20.64,20.64,0,0,1-2.22-.12Q12.55,345.1,8.31,332.67Zm69.15,15.44a17.93,17.93,0,0,0,3.87.43,26,26,0,0,0,10.83-2.65q1.66-.86,4.77-2.83t6-4a47.5,47.5,0,0,0,4-3,6.55,6.55,0,0,0,2.27-5,4.62,4.62,0,0,0-.06-.74,5.77,5.77,0,0,0-3.5-5.23,5.24,5.24,0,0,0-1.6-.68,3.73,3.73,0,0,0-1-.12,7.59,7.59,0,0,0-.92.06,6.84,6.84,0,0,0-2.28.4A18.76,18.76,0,0,0,97,326.27c-1.19.7-2.83,1.74-4.92,3.14q-2.16,1.41-4,2.55a18.71,18.71,0,0,1-2.68,1.44,6.55,6.55,0,0,1-2.46.56A4.28,4.28,0,0,1,80,332.6q-1.44-1.35-2.43-6.39a13.31,13.31,0,0,1-.31-1.6v-.56a4.81,4.81,0,0,1,0-.52,2.5,2.5,0,0,1,.22-.71A3.79,3.79,0,0,1,78,322a4.29,4.29,0,0,1,.65-.68,11.61,11.61,0,0,1,1.72-.52l3-.71c4.23-.73,7.25-1.31,9.08-1.72a20.77,20.77,0,0,0,3.78-1.11q4.92-2.4,4.92-6.58a7.9,7.9,0,0,0-.24-1.85,6.72,6.72,0,0,0-3.51-4.06,5.63,5.63,0,0,0-3-.67c-.25,0-.86.05-1.85.15a67.3,67.3,0,0,0-6.7,1.45q-3.51.85-5.36,1.17a14.24,14.24,0,0,1-2.27.24c-.17,0-.43,0-.8-.06a1.49,1.49,0,0,1-1-.61,2.51,2.51,0,0,1-.52-.74,4,4,0,0,1-.21-1.11c0-.49-.09-1.23-.13-2.22V300.8c0-1.23,0-3.1.06-5.6s.12-5.46.22-8.86.2-6.39.31-8.95a31.87,31.87,0,0,1,.34-4.52,3.64,3.64,0,0,1,2.83-2.53A24.18,24.18,0,0,1,82,270c1.42-.13,3-.23,4.83-.31q5.41-.25,8.34-.43c1.94-.13,3.37-.27,4.27-.43a10.62,10.62,0,0,0,2.09-.56,6.9,6.9,0,0,0,4.06-4.86,5.71,5.71,0,0,0,.13-1.23,6.8,6.8,0,0,0-2-4.74,6.22,6.22,0,0,0-3-1.78,20.51,20.51,0,0,0-4.61-.37h-.92a71,71,0,0,0-7.39.43q-4.11.44-10.52,1.42-3.87.61-6,1.07a12.49,12.49,0,0,0-3.17,1.05,7.74,7.74,0,0,0-2,1.57,6.17,6.17,0,0,0-1.54,2.34,21.25,21.25,0,0,0-1,4.55c-.29,2.09-.62,5.13-1,9.1q-1.29,14.1-1.29,25.78a149.38,149.38,0,0,0,1.54,22.7Q66.2,345.16,77.46,348.11Zm101-62c-.08-3.17-.12-6.63-.12-10.36s0-6.57.09-8.49a31.46,31.46,0,0,1,.34-4.28,8.58,8.58,0,0,1,.74-2.37,5.49,5.49,0,0,1,3-2.89,30,30,0,0,1,7.23-1.6,92.55,92.55,0,0,1,12.55-1,42.53,42.53,0,0,1,5.91.37,44.65,44.65,0,0,1,9,2.64,35.44,35.44,0,0,1,7.66,4.18,21.33,21.33,0,0,1,8,11.76,23.6,23.6,0,0,1,.44,5,30.69,30.69,0,0,1-.37,5.11,36,36,0,0,1-1.08,3.81,41.63,41.63,0,0,1-1.75,4.06,51.6,51.6,0,0,1-8.12,11.38c-.83.95-1.53,1.81-2.13,2.59a10.36,10.36,0,0,0-1,1.47,1.68,1.68,0,0,0-.13.68,2.35,2.35,0,0,0,.37,1.17,14.83,14.83,0,0,0,2.46,2.52c.7.7,1.37,1.39,2,2.06a16.42,16.42,0,0,1,1.39,1.63,14.38,14.38,0,0,1,2,7.45,20.37,20.37,0,0,1-.19,2.77,25.14,25.14,0,0,1-5,11.32q-7.14,9-22,11.32a30.27,30.27,0,0,1-3.56.3h-1.67c-1.23,0-2.62-.06-4.18-.18a14.63,14.63,0,0,1-3.57-.62,6,6,0,0,1-2.21-1.35,6.87,6.87,0,0,1-1.69-2,11.75,11.75,0,0,1-1-3.69c-.27-1.68-.52-4.19-.77-7.54s-.53-7.86-.86-13.56q-.74-13.54-1.11-21.2T178.48,286.12ZM212,324.67a2.83,2.83,0,0,0-2.22-2.71,12.35,12.35,0,0,0-3.69-.37,39.82,39.82,0,0,0-5.2.34,16,16,0,0,0-3.78.83,3.22,3.22,0,0,0-1.78,1.69,10.53,10.53,0,0,0-.44,3.6,14.92,14.92,0,0,0,.37,3.91,2.67,2.67,0,0,0,1.36,1.69,2.93,2.93,0,0,0,1.72.55,13.32,13.32,0,0,0,3-.55,19.32,19.32,0,0,0,7.63-3.78Q211.95,327.31,212,324.67Zm-20.24-51.44q0,1.61.24,4.74c.13,1.64.26,3.83.4,6.55s.3,5.39.46,8,.25,4.72.37,6.65.21,3.11.25,3.56c.2,2.1,1,3.14,2.28,3.14a2.22,2.22,0,0,0,.61-.15c.29-.1.62-.24,1-.4a42.34,42.34,0,0,0,9.59-7,56.54,56.54,0,0,0,8.62-9.6,26.18,26.18,0,0,0,2.61-4.62,11.5,11.5,0,0,0,.77-3.93c0-.54.06-1,.06-1.42a5.8,5.8,0,0,0-.06-.92,4.45,4.45,0,0,0-.55-1.54,5.61,5.61,0,0,0-.77-1.29,6.36,6.36,0,0,0-1.08-1.11,17.82,17.82,0,0,0-3.78-2.24,32.46,32.46,0,0,0-5.08-1.88,16,16,0,0,0-2.21-.52,19.89,19.89,0,0,0-2.34-.22q-1.35-.06-3.75-.06c-1.69,0-2.94,0-3.76,0a9.3,9.3,0,0,0-1.72.15,1.81,1.81,0,0,0-.8.43,2.81,2.81,0,0,0-1.05,1.23A7,7,0,0,0,191.71,273.23Zm44.91,68.6A13.1,13.1,0,0,1,236,337a108.83,108.83,0,0,1,1.11-13.16q1.11-7.81,3.6-18.18t5.63-20.09q7.5-23.07,15.75-26.89a6,6,0,0,1,1.81-.67,15.85,15.85,0,0,1,2.43-.13,10.55,10.55,0,0,1,3.63.53,9.26,9.26,0,0,1,3,1.93,13.46,13.46,0,0,1,3.29,4.5,35.29,35.29,0,0,1,2.25,8.06q1,5.34,2.15,15,4.13,33.64,8.49,46.14a25.28,25.28,0,0,1,.92,2.89,7.43,7.43,0,0,1,.19,1.42,1.88,1.88,0,0,1-.07.55q-1,5.65-6.46,5.91a7.2,7.2,0,0,1-5.1-2,10,10,0,0,1-1.91-2.31,19.31,19.31,0,0,1-1.6-3.66,10.36,10.36,0,0,0-1.63-3.17,3.11,3.11,0,0,0-2.12-1.08,6.35,6.35,0,0,0-1.05-.06c-.78,0-1.86,0-3.26.12-2.3.13-4.75.28-7.35.47s-4.56.36-5.88.52A6,6,0,0,0,250,335c-.68.74-1.1,2.14-1.26,4.19a10.69,10.69,0,0,1-.8,3.6,6.35,6.35,0,0,1-1.85,2.3,3.76,3.76,0,0,1-1.29.74,8.09,8.09,0,0,1-1.78.25h-.68a8.39,8.39,0,0,1-1.11-.06,4.37,4.37,0,0,1-1.23-.43,8.75,8.75,0,0,1-3.38-3.76Zm16.24-24.42a2.67,2.67,0,0,0,.19,1.17,2.23,2.23,0,0,0,.49.46,5.29,5.29,0,0,0,.86.52,3.11,3.11,0,0,0,.8.31l1.78-.25c1.19-.12,2.63-.28,4.31-.49s3.24-.47,4.55-.68a16.68,16.68,0,0,0,2.46-.49,2.61,2.61,0,0,0,1.42-1.54,2.73,2.73,0,0,0,.24-.67,2.38,2.38,0,0,0,.07-.56,3.32,3.32,0,0,0-.07-.67c0-.54-.13-1.28-.27-2.25s-.34-2.29-.59-4c-.33-2-.69-4.54-1.1-7.6s-.78-5.89-1.11-8.52a90.41,90.41,0,0,0-1.6-10,1.26,1.26,0,0,0-1.11-.8h-.12a2.06,2.06,0,0,0-1.42,1q-1.09,1.85-3.53,9.75t-4.77,17.14A39.33,39.33,0,0,0,252.86,317.41ZM296,294.09q-.32-4.92-.31-7.26v-3.38q0-3.27.12-7.75.13-5.67.31-8.28a9.92,9.92,0,0,1,.74-3.63,7.19,7.19,0,0,1,1.72-2q3.45-3.19,12.37-3.51c.61,0,1.21-.06,1.78-.06q12.55,0,21.6,6.59a23.09,23.09,0,0,1,8.73,14.27,26.49,26.49,0,0,1,.37,4.43q0,12.24-10.64,25l-2,2.37c-.68.8-1.2,1.4-1.57,1.81a3.86,3.86,0,0,0-1.23,2.4,1.64,1.64,0,0,0,.68,1.29c.49.46,2.17,1.07,5,1.85a30.69,30.69,0,0,1,8.37,3.26,7.36,7.36,0,0,1,3.32,4.18,7.66,7.66,0,0,1,.25,1.91,6.64,6.64,0,0,1-.62,2.77,6.57,6.57,0,0,1-3.38,3.2,5.53,5.53,0,0,1-2.34.43,21.12,21.12,0,0,1-5.9-1.11c-1.85-.57-4-1.15-6.34-1.72s-4.58-1.08-6.58-1.51a25,25,0,0,0-3.88-.64c-1.31,0-2.05.3-2.22.92a6.83,6.83,0,0,0-.24,1.72,29.68,29.68,0,0,0,.55,4.8c.41,2.42.64,4,.68,4.74s.06,1.25.06,1.54a6.31,6.31,0,0,1-.31,2.15,5.75,5.75,0,0,1-1.35,2.28,7.86,7.86,0,0,1-2.28,1.78,7.35,7.35,0,0,1-2.77.49A7.64,7.64,0,0,1,306,349a8,8,0,0,1-3.63-3.88q-1.6-4.11-3.42-18.82T296,294.09ZM309.22,276c0,.91,0,2.07.06,3.51.12,2.17.31,5.17.55,9,0,.58,0,1.17.06,1.79.25,3.73.44,6.69.59,8.89s.29,3.83.46,4.92a9.74,9.74,0,0,0,.52,2.24,1.46,1.46,0,0,0,.71.8.86.86,0,0,0,.49.25h.62l.92-.37a10.81,10.81,0,0,0,2.49-2q1.76-1.67,3.69-3.75a46.2,46.2,0,0,0,3.17-3.75,37.66,37.66,0,0,0,3.14-5.17,28.23,28.23,0,0,0,2-4.86,15.81,15.81,0,0,0,.43-3.76,10.81,10.81,0,0,0-.49-3.44,10.47,10.47,0,0,0-4.86-5.38,24.58,24.58,0,0,0-9.23-3.11,13.81,13.81,0,0,0-1.54-.19h-.55a3.55,3.55,0,0,0-.68.07,4,4,0,0,0-.92.3.57.57,0,0,1-.19.13,2.13,2.13,0,0,0-1,.74,2.53,2.53,0,0,0-.4,1.47C309.23,275,309.22,275.55,309.22,276ZM415,312.86a86.17,86.17,0,0,1-.87-12.31,95.91,95.91,0,0,1,.93-13.17,77.33,77.33,0,0,1,6.83-23.31q2.7-5.6,5.56-7.48t8.89-1.87h.93q15.75,0,23.56,8.3,7.76,7.75,10.34,23a71.52,71.52,0,0,1,1,12.12A73.14,73.14,0,0,1,470,315.81a66.49,66.49,0,0,1-4.86,13c-.5,1.11-.93,2.09-1.29,2.95a7.42,7.42,0,0,0-.56,1.54,3,3,0,0,0,1.6,2.4,30.57,30.57,0,0,0,5.72,2.71,33.81,33.81,0,0,1,4.16,1.91,8.58,8.58,0,0,1,2.24,1.78,6.18,6.18,0,0,1,1.72,4.37v.61q-.56,5.36-6.33,5.85c-.58,0-1.17,0-1.79-.06a6.17,6.17,0,0,1-1.47-.25c-2.1-.57-5.68-2.28-10.77-5.11-1.89-1-3.3-1.74-4.25-2.15a6.3,6.3,0,0,0-2.46-.61h-.37a10.52,10.52,0,0,0-2.89.67,14.15,14.15,0,0,1-3.84.74q-1.76.06-2.37.06a19.56,19.56,0,0,1-3.75-.31q-8.81-2.2-15-11T415,312.86Zm13.28-12.62q0,14,4.37,22.64,3.57,7.08,8.12,8.74a5,5,0,0,0,1.73.37,5.29,5.29,0,0,0,1.9-.43q2.89-1.05,5.85-5.29a40.28,40.28,0,0,0,5-10.34A60.19,60.19,0,0,0,458,298a54.62,54.62,0,0,0-2.71-17q-2.15-6.47-6.06-9.23T438.54,269a8.47,8.47,0,0,0-3.75.65,4.92,4.92,0,0,0-2.13,2.86,48.6,48.6,0,0,0-1.75,6.83,91.77,91.77,0,0,0-2.65,20.17Zm61,29.53q2.64,8.69,7.81,13.6a23.65,23.65,0,0,0,11.5,6.58,17.22,17.22,0,0,0,3.2.31q7,0,13.29-6.09,5.6-5.3,8.62-17.23,2.58-9.78,3.69-28,.24-4.43.37-12.12c.08-5.13.12-9.94.12-14.46s-.06-7.32-.19-8.43a8,8,0,0,0-3.19-5.66,3.62,3.62,0,0,0-1.42-.73,11.22,11.22,0,0,0-2.09-.13,10.14,10.14,0,0,0-2.19.16,4.9,4.9,0,0,0-1.5.7q-2.84,1.73-3.39,6c-.08.66-.14,2.33-.18,5s-.06,5.63-.06,8.83q-.13,57.33-12.18,57.34-2.53,0-5.05-2.9a19,19,0,0,1-3.81-7.38q-3.57-11.81-4.06-42.14-.13-6.09-.28-10.58c-.1-3-.18-4.76-.22-5.3q-.42-4.43-3.75-5.9a5.8,5.8,0,0,0-2.4-.55,6.7,6.7,0,0,0-2.86.83,6.37,6.37,0,0,0-2.8,3.53,8.82,8.82,0,0,0-.43,1.73c-.12.73-.24,1.87-.34,3.41s-.23,3.68-.4,6.43q-.44,7.14-.43,13.66c0,5.13.21,10,.62,14.52Q486.65,321.11,489.3,329.77ZM551.43,315q.38,5.91.93,13c.37,4.76.65,8.06.86,9.91q.74,5.78,4.55,7.5a7.56,7.56,0,0,0,2.59.49h.36a6.11,6.11,0,0,0,2.22-.36,7.28,7.28,0,0,0,3.44-3.2,7.46,7.46,0,0,0,.74-3.51v-1.17c0-1.48-.1-3.44-.3-5.91-.46-5.16-.8-10.11-1.05-14.82s-.43-10-.55-15.81q-.13-5.79-.37-13.66c-.09-4.27-.17-8.08-.25-11.45-.12-3.73-.24-6.93-.34-9.59s-.19-4.19-.27-4.56a6.2,6.2,0,0,0-2.65-3.13,5.55,5.55,0,0,0-3-.87,5,5,0,0,0-1,.13q-4.12,1-5.41,5.66a79.32,79.32,0,0,0-.8,11.5q-.2,7.26-.19,15.81,0,2.16,0,8.8T551.43,315Zm139.66,10.7a7.66,7.66,0,0,1,.25,1.91,6.64,6.64,0,0,1-.62,2.77,6.57,6.57,0,0,1-3.38,3.2A5.53,5.53,0,0,1,685,334a21.18,21.18,0,0,1-5.9-1.11c-1.85-.57-4-1.15-6.34-1.72s-4.57-1.08-6.58-1.51a25,25,0,0,0-3.88-.64c-1.31,0-2,.3-2.22.92a6.83,6.83,0,0,0-.24,1.72,29.68,29.68,0,0,0,.55,4.8c.41,2.42.64,4,.68,4.74s.06,1.25.06,1.54a6.31,6.31,0,0,1-.31,2.15,5.75,5.75,0,0,1-1.35,2.28,7.86,7.86,0,0,1-2.28,1.78,7.35,7.35,0,0,1-2.77.49,7.64,7.64,0,0,1-2.76-.49,8,8,0,0,1-3.63-3.88q-1.6-4.11-3.42-18.82t-2.92-32.18q-.32-4.92-.31-7.26v-3.38q0-3.27.12-7.75.13-5.67.31-8.28a9.92,9.92,0,0,1,.74-3.63,7.19,7.19,0,0,1,1.72-2q3.45-3.19,12.37-3.51c.61,0,1.21-.06,1.78-.06q12.55,0,21.6,6.59a23.09,23.09,0,0,1,8.73,14.27,26.49,26.49,0,0,1,.37,4.43q0,12.24-10.64,25l-2,2.37c-.68.8-1.2,1.4-1.57,1.81a3.86,3.86,0,0,0-1.23,2.4,1.64,1.64,0,0,0,.68,1.29c.49.46,2.17,1.07,5,1.85a30.69,30.69,0,0,1,8.37,3.26A7.36,7.36,0,0,1,691.09,325.71Zm-16.67-38.2a15.81,15.81,0,0,0,.43-3.76,10.81,10.81,0,0,0-.49-3.44,10.47,10.47,0,0,0-4.86-5.38,24.58,24.58,0,0,0-9.23-3.11,13.81,13.81,0,0,0-1.54-.19h-.55a3.55,3.55,0,0,0-.68.07,4,4,0,0,0-.92.3.48.48,0,0,1-.19.13,2.13,2.13,0,0,0-1,.74,2.53,2.53,0,0,0-.4,1.47c0,.66,0,1.21,0,1.66,0,.91,0,2.07.06,3.51.12,2.17.31,5.17.55,9,0,.58,0,1.17.06,1.79.25,3.73.44,6.69.59,8.89s.3,3.83.46,4.92a9.74,9.74,0,0,0,.52,2.24,1.46,1.46,0,0,0,.71.8.86.86,0,0,0,.49.25H659l.92-.37a10.81,10.81,0,0,0,2.49-2q1.75-1.67,3.69-3.75a46.2,46.2,0,0,0,3.17-3.75,37.66,37.66,0,0,0,3.14-5.17A28.23,28.23,0,0,0,674.42,287.51Zm78.5,49.4a6.7,6.7,0,0,1,.19,1.42,2.32,2.32,0,0,1-.06.55q-1,5.65-6.46,5.91a7.22,7.22,0,0,1-5.11-2,10.23,10.23,0,0,1-1.91-2.31,20,20,0,0,1-1.6-3.66,10.15,10.15,0,0,0-1.63-3.17,3.11,3.11,0,0,0-2.12-1.08,6.18,6.18,0,0,0-1.05-.06c-.77,0-1.86,0-3.26.12-2.29.13-4.74.28-7.35.47s-4.56.36-5.87.52A6,6,0,0,0,712.9,335c-.67.74-1.09,2.14-1.26,4.19a10.69,10.69,0,0,1-.8,3.6,6.32,6.32,0,0,1-1.84,2.3,3.88,3.88,0,0,1-1.3.74,8.09,8.09,0,0,1-1.78.25h-.68a8.12,8.12,0,0,1-1.1-.06,4.16,4.16,0,0,1-1.23-.43A8,8,0,0,1,701,344a8.11,8.11,0,0,1-1.45-2.16,13.16,13.16,0,0,1-.61-4.86,110.5,110.5,0,0,1,1.1-13.16q1.11-7.81,3.6-18.18t5.63-20.09q7.51-23.07,15.75-26.89a6,6,0,0,1,1.82-.67,15.67,15.67,0,0,1,2.43-.13,10.63,10.63,0,0,1,3.63.53,9.34,9.34,0,0,1,3,1.93,13.46,13.46,0,0,1,3.29,4.5,35.29,35.29,0,0,1,2.25,8.06q1,5.34,2.15,15Q747.64,321.52,752,334A25.28,25.28,0,0,1,752.92,336.91Zm-20-21.72a4.16,4.16,0,0,0-.06-.67c0-.54-.14-1.28-.28-2.25s-.34-2.29-.58-4q-.5-3-1.11-7.6t-1.11-8.52a90.41,90.41,0,0,0-1.6-10,1.26,1.26,0,0,0-1.11-.8H727a2,2,0,0,0-1.41,1q-1.11,1.85-3.54,9.75t-4.77,17.14a40,40,0,0,0-1.48,8.12,2.82,2.82,0,0,0,.19,1.17,2.23,2.23,0,0,0,.49.46,5.75,5.75,0,0,0,.86.52,3.25,3.25,0,0,0,.8.31l1.79-.25c1.18-.12,2.62-.28,4.3-.49s3.24-.47,4.56-.68a17,17,0,0,0,2.46-.49,2.63,2.63,0,0,0,1.41-1.54,2.79,2.79,0,0,0,.25-.67A3,3,0,0,0,732.93,315.19Zm77.52-53.34a6.54,6.54,0,0,0-5.6-3.14,9,9,0,0,0-1.42.13,7.16,7.16,0,0,0-5.35,5.41c-.08.37-.2,1.38-.37,3s-.35,3.5-.55,5.6-.37,4.61-.62,7.32-.47,5.08-.67,7.13a3.26,3.26,0,0,1-.06.62q-.31,3.26-.83,8.33l-1,9.88q-1,10.34-1.66,15.2a43.76,43.76,0,0,1-1.35,6.89,12,12,0,0,1-1,2.49,2.81,2.81,0,0,1-1.17,1.07,1.58,1.58,0,0,1-.8.25,1.8,1.8,0,0,1-.37-.06,4,4,0,0,1-1-.8q-2-1.85-4.8-8.21a121.9,121.9,0,0,1-5.17-14.06q-1.29-4.44-2.55-9.91t-3.42-16.18c-.74-3.73-1.4-7-2-9.75s-1-4.4-1.14-4.89c-1.23-3.12-3.19-4.68-5.9-4.68a5.81,5.81,0,0,0-5.35,3.39,8.39,8.39,0,0,0-.74,4.06,36.27,36.27,0,0,0,.49,5.41.25.25,0,0,1,.06.19c.17,1.23.36,2.67.59,4.33s.42,3.17.58,4.53a165,165,0,0,0,5.11,24.79q4.54,16.13,10.39,26.06t12,12.21a7.7,7.7,0,0,0,1.79.43q.62.06,1.47.06h.86a11.2,11.2,0,0,0,2.56-.22,10,10,0,0,0,2-.76q9.47-4.8,12.55-22.09c.16-1.11.4-2.95.7-5.54s.61-5.29.9-8.12q1.41-13.9,2.15-21.47t1.11-11.41c.24-2.57.43-4.75.55-6.56q.32-3.81.31-6c0-.45,0-1.13-.12-2.06A6.38,6.38,0,0,0,810.45,261.85ZM837.7,317q-.36-7.08-.55-15.81-.12-5.79-.37-13.66c-.08-4.27-.16-8.08-.25-11.45q-.18-5.6-.33-9.59c-.11-2.67-.2-4.19-.28-4.56a6.15,6.15,0,0,0-2.65-3.13,5.53,5.53,0,0,0-2.95-.87,5,5,0,0,0-1.05.13c-2.74.65-4.55,2.54-5.41,5.66a79.32,79.32,0,0,0-.8,11.5q-.18,7.26-.18,15.81,0,2.16,0,8.8t.46,15.2q.36,5.91.92,13t.86,9.91q.74,5.78,4.56,7.5a7.45,7.45,0,0,0,2.58.49h.37a6.05,6.05,0,0,0,2.21-.36,7.3,7.3,0,0,0,3.45-3.2,7.59,7.59,0,0,0,.74-3.51v-1.17c0-1.48-.11-3.44-.31-5.91C838.3,326.64,838,321.69,837.7,317Zm58.76-59.07a6.83,6.83,0,0,0-1.29-.36,14.39,14.39,0,0,0-2.22-.16c-1,0-2.58,0-4.67,0a261.2,261.2,0,0,0-35.32,3,24.24,24.24,0,0,0-6.24,1.56,6.21,6.21,0,0,0-3,2.68,6.32,6.32,0,0,0-.8,3,9.2,9.2,0,0,0,.56,2.61,5.06,5.06,0,0,0,3.07,2.8,7.43,7.43,0,0,0,3,.43h.61c1.35,0,3.2-.1,5.54-.31,1.27-.08,2.34-.12,3.2-.12a14.39,14.39,0,0,1,2,.15,2.17,2.17,0,0,1,1.6,1.14,1.82,1.82,0,0,1,.27.71,9.1,9.1,0,0,1,.13,1.54c0,.72,0,1.76,0,3.13v8.9a360.35,360.35,0,0,0,2.83,44.29,71,71,0,0,0,2.3,12.28q1.2,3.46,3.6,4.46a7.07,7.07,0,0,0,3,.67,11,11,0,0,0,2.3-.37,6.68,6.68,0,0,0,4.4-5.53,6,6,0,0,0,.06-.93,33.32,33.32,0,0,0-.55-5.16q-3.2-19.57-4-51.13-.12-4.31-.18-6.89c0-1.72-.06-3-.06-3.88a13.68,13.68,0,0,1,.09-1.87,2.45,2.45,0,0,1,.28-.9,2.41,2.41,0,0,1,1-1.23,6.36,6.36,0,0,1,2.43-.61c1.15-.12,2.83-.25,5.05-.37,2.42-.08,4.31-.17,5.69-.28s2.4-.2,3.07-.3a7.73,7.73,0,0,0,1.76-.47q4.49-2.08,4.67-6.09v-.24Q900.64,260.19,896.46,257.91ZM4,492.56c.16,1.23.36,2.67.58,4.33s.42,3.17.59,4.53a165,165,0,0,0,5.1,24.79q4.56,16.13,10.4,26.06t12,12.21a7.74,7.74,0,0,0,1.78.43c.41,0,.9.06,1.48.06h.86a11,11,0,0,0,2.55-.22,9.55,9.55,0,0,0,2-.76q9.48-4.8,12.55-22.09c.17-1.11.4-2.95.71-5.54s.61-5.29.89-8.12q1.42-13.9,2.16-21.47t1.1-11.41c.25-2.57.44-4.75.56-6.56.2-2.54.31-4.55.31-6,0-.45,0-1.13-.13-2.06a6.24,6.24,0,0,0-1.1-2.86,6.54,6.54,0,0,0-5.6-3.14,8.92,8.92,0,0,0-1.42.13A7.14,7.14,0,0,0,46,480.25c-.08.37-.21,1.38-.37,3s-.35,3.5-.55,5.6-.37,4.61-.62,7.32-.47,5.08-.68,7.13a3.26,3.26,0,0,1-.06.62q-.3,3.26-.83,8.33c-.35,3.39-.68,6.68-1,9.88q-1,10.33-1.66,15.2a44.68,44.68,0,0,1-1.36,6.89,12.17,12.17,0,0,1-1,2.49,2.81,2.81,0,0,1-1.17,1.07,1.58,1.58,0,0,1-.8.25,1.71,1.71,0,0,1-.37-.06,4.09,4.09,0,0,1-1.05-.8q-2-1.85-4.79-8.21a121.9,121.9,0,0,1-5.17-14.06Q23.26,520.48,22,515t-3.41-16.18q-1.11-5.59-2-9.75t-1.14-4.89q-1.84-4.68-5.9-4.68a5.82,5.82,0,0,0-5.36,3.39A8.53,8.53,0,0,0,3.45,487a36.27,36.27,0,0,0,.49,5.41A.25.25,0,0,1,4,492.56Zm97.76-17.41q22.08,5.16,24.49,38.14c.08,1.39.12,2.79.12,4.18a70.77,70.77,0,0,1-2.65,19.32,54.54,54.54,0,0,1-9.53,19.44,25.4,25.4,0,0,1-11.08,8.37,13.73,13.73,0,0,1-2.58.74,25.5,25.5,0,0,1-3.14.24H96a16.92,16.92,0,0,1-3.63-.3q-7.57-2-13.38-9.23a46.7,46.7,0,0,1-8.59-18,85.3,85.3,0,0,1-2-18.58,96.15,96.15,0,0,1,3.32-24.61,64.61,64.61,0,0,1,4.74-12.06,21.12,21.12,0,0,1,4-5.84,10.13,10.13,0,0,1,4.83-2.46,28.72,28.72,0,0,1,5.42-.43c.73,0,1.49,0,2.27.06A51.37,51.37,0,0,1,101.76,475.15Zm1.66,15.93q-3.87-2.7-10.34-2.71h-.3a10.18,10.18,0,0,0-3.6.46,3.39,3.39,0,0,0-1.69,1.76,43.55,43.55,0,0,0-2.56,8.64,117.65,117.65,0,0,0-2,12.21c-.28,3-.43,5.85-.43,8.56q0,14.09,5.11,23.62,4.42,7.64,9,7.63a6.38,6.38,0,0,0,3.14-.86q3.69-2.16,7.26-9.23,4.42-9.17,4.83-15.6t.4-8.15a52.65,52.65,0,0,0-2.83-17.35Q107.29,493.79,103.42,491.08ZM139,516.43a30.93,30.93,0,0,0,2.93,2.24c1,.72,2.65,1.68,4.82,2.86s5.4,2.92,9.66,5.17a57.09,57.09,0,0,1,10.25,6.59c2.15,1.88,3.35,3.71,3.6,5.47a3.57,3.57,0,0,1,0,1.45,8.83,8.83,0,0,1-.53,1.44q-1.59,3-6.09,5.51a28.93,28.93,0,0,1-9.66,3.41q-6.27.93-7.2,5.36a7.7,7.7,0,0,0-.12,1.35,7.44,7.44,0,0,0,1,3.54,7.05,7.05,0,0,0,3.35,3,11.22,11.22,0,0,0,4,.68q5.42,0,13.47-3.88,13-6.71,15.81-16.79a12,12,0,0,0,.31-2.22c0-.53.06-1.13.06-1.78V538.7a18,18,0,0,0-.73-5,19.19,19.19,0,0,0-2.22-4.59,27.85,27.85,0,0,0-7.32-7.87A109,109,0,0,0,160,512.61c-3.08-1.64-5.42-2.91-7-3.81a24.9,24.9,0,0,1-3.45-2.19,4.63,4.63,0,0,1-1.38-1.63,3.19,3.19,0,0,1-.5-1.72q0-3.25,6.1-8.18,7.56-6.21,13.22-7.08l1.66-.27c.58-.11,1-.2,1.3-.28a5.94,5.94,0,0,0,4-4,5.49,5.49,0,0,0,.24-1.6,6.37,6.37,0,0,0-1.48-3.94,8.51,8.51,0,0,0-6.7-2.76,20.22,20.22,0,0,0-6.15,1.1,56,56,0,0,0-6.34,2.77q-3.69,1.85-6.34,3.51a42.8,42.8,0,0,0-7.47,6.49,29.21,29.21,0,0,0-5.08,7.29,19.27,19.27,0,0,0-1.72,7.63Q132.83,510.77,139,516.43Zm132.4,24.7a7.93,7.93,0,0,0-.24,2.06c0,.45,0,1,.06,1.54q.18,2.28.8,6.52c.28,1.81.48,3.19.58,4.15s.15,1.72.15,2.25a4.79,4.79,0,0,1-.18,1.35,6.93,6.93,0,0,1-2.4,3.91,6.37,6.37,0,0,1-4.12,1.51,6.73,6.73,0,0,1-3-.74,6.33,6.33,0,0,1-3.26-3.42,34,34,0,0,1-1.9-8.27q-1.37-9.48-2.22-21.1t-.86-21.78q0-2.89.25-8.46t.58-10.55c.23-3.33.44-5.58.65-6.77q1-5.85,5.66-7.57a16.32,16.32,0,0,1,3.72-.46c1.62-.06,2.92-.09,3.91-.09,1.47,0,3,0,4.67.12a70.24,70.24,0,0,1,7,.62q15.19,2.08,22,9.41A26.64,26.64,0,0,1,305.8,488a12.71,12.71,0,0,1,1.51,2.56A18.55,18.55,0,0,1,309,495a19.4,19.4,0,0,1,.37,3.87v1.17a20.86,20.86,0,0,1-.68,4.59,25.75,25.75,0,0,1-2,4.76,47.67,47.67,0,0,1-8.55,11.51q-7.68,8.18-20.73,15.63c-1.23.73-2.31,1.39-3.23,2s-1.47.93-1.63,1A3,3,0,0,0,271.44,541.13Zm0-18.18a7.2,7.2,0,0,0,3.45-1.35,69.54,69.54,0,0,0,9.26-6.9,56.34,56.34,0,0,0,7.41-7.62c2.3-3,3.44-5.52,3.44-7.69a5.46,5.46,0,0,0-1.84-4.13q-2.78-3.43-15-5.84a38.67,38.67,0,0,0-4.71-.83l-1.08,0a3.23,3.23,0,0,0-2.15.55,2.29,2.29,0,0,0-.83,1,7.26,7.26,0,0,0-.4,2.15c-.08,1-.12,2.58-.12,4.67s0,5,.12,8.68q.06,5.85.19,10.06t.24,4.89C269.62,522.15,270.29,523,271.44,523Zm73.92,26.67a3.11,3.11,0,0,0-2.12-1.08,6.27,6.27,0,0,0-1.05-.06c-.78,0-1.86,0-3.26.12-2.29.13-4.75.28-7.35.47s-4.56.36-5.87.52a6,6,0,0,0-3.79,1.41c-.68.74-1.1,2.14-1.26,4.19a10.69,10.69,0,0,1-.8,3.6,6.35,6.35,0,0,1-1.85,2.3,3.76,3.76,0,0,1-1.29.74,8.09,8.09,0,0,1-1.78.25h-.68a8.39,8.39,0,0,1-1.11-.06,4.37,4.37,0,0,1-1.23-.43,8.92,8.92,0,0,1-3.38-3.76,13.1,13.1,0,0,1-.62-4.86A108.83,108.83,0,0,1,309,539.81q1.11-7.81,3.6-18.18t5.63-20.09q7.5-23.07,15.75-26.89a6,6,0,0,1,1.82-.67,15.67,15.67,0,0,1,2.43-.13,10.63,10.63,0,0,1,3.63.53,9.34,9.34,0,0,1,2.95,1.93,13.46,13.46,0,0,1,3.29,4.5,35.29,35.29,0,0,1,2.25,8.06q1,5.34,2.15,15Q356.66,537.52,361,550a25.28,25.28,0,0,1,.92,2.89,6.7,6.7,0,0,1,.19,1.42,2.32,2.32,0,0,1-.06.55q-1,5.65-6.46,5.91a7.2,7.2,0,0,1-5.11-2,10,10,0,0,1-1.91-2.31,19.31,19.31,0,0,1-1.6-3.66A10.15,10.15,0,0,0,345.36,549.62ZM342,531.19a4.16,4.16,0,0,0-.06-.67c-.05-.54-.14-1.28-.28-2.25s-.34-2.29-.59-4q-.48-3-1.1-7.6t-1.11-8.52a90.41,90.41,0,0,0-1.6-10,1.26,1.26,0,0,0-1.11-.8H336a2.08,2.08,0,0,0-1.42,1q-1.1,1.85-3.53,9.75t-4.77,17.14a39.33,39.33,0,0,0-1.48,8.12,2.67,2.67,0,0,0,.19,1.17,2.23,2.23,0,0,0,.49.46,5.75,5.75,0,0,0,.86.52,3.11,3.11,0,0,0,.8.31l1.78-.25c1.19-.12,2.63-.28,4.31-.49s3.24-.47,4.55-.68a16.38,16.38,0,0,0,2.46-.49,2.61,2.61,0,0,0,1.42-1.54,3.3,3.3,0,0,0,.25-.67A3,3,0,0,0,342,531.19Zm29.22-.3q-.85-11.64-.86-21.78,0-2.89.25-8.46t.58-10.55c.23-3.33.44-5.58.65-6.77q1-5.85,5.66-7.57a16.32,16.32,0,0,1,3.72-.46c1.62-.06,2.92-.09,3.91-.09,1.47,0,3,0,4.67.12a69.74,69.74,0,0,1,7,.62q15.21,2.08,22,9.41a26.64,26.64,0,0,1,2.49,2.67,12.71,12.71,0,0,1,1.51,2.56,18.55,18.55,0,0,1,1.66,4.43,19.4,19.4,0,0,1,.37,3.87v1.17a20.86,20.86,0,0,1-.68,4.59,25.75,25.75,0,0,1-2,4.76,47.67,47.67,0,0,1-8.55,11.51q-7.69,8.18-20.73,15.63c-1.23.73-2.31,1.39-3.23,2s-1.47.93-1.63,1a3,3,0,0,0-1.11,1.57,7.9,7.9,0,0,0-.25,2.06c0,.45,0,1,.07,1.54q.18,2.28.8,6.52c.28,1.81.48,3.19.58,4.15s.15,1.72.15,2.25a4.79,4.79,0,0,1-.18,1.35,6.93,6.93,0,0,1-2.4,3.91,6.37,6.37,0,0,1-4.12,1.51,6.73,6.73,0,0,1-3-.74,6.33,6.33,0,0,1-3.26-3.42,33.5,33.5,0,0,1-1.9-8.27Q372,542.51,371.17,530.89Zm13.17-34q0,3.21.12,8.68.06,5.85.18,10.06c.09,2.81.17,4.44.25,4.89.21,1.6.88,2.4,2,2.4a7.2,7.2,0,0,0,3.45-1.35,69.54,69.54,0,0,0,9.26-6.9,56.34,56.34,0,0,0,7.41-7.62c2.3-3,3.44-5.52,3.44-7.69a5.46,5.46,0,0,0-1.84-4.13q-2.77-3.43-15-5.84a39,39,0,0,0-4.71-.83l-1.08,0a3.23,3.23,0,0,0-2.15.55,2.29,2.29,0,0,0-.83,1,7.26,7.26,0,0,0-.4,2.15C384.38,493.27,384.34,494.83,384.34,496.92Zm50.26,47.13q.56,7.14.86,9.91c.5,3.85,2,6.35,4.56,7.5a7.45,7.45,0,0,0,2.58.49H443a6.05,6.05,0,0,0,2.21-.36,7.3,7.3,0,0,0,3.45-3.2,7.59,7.59,0,0,0,.74-3.51v-1.17c0-1.48-.11-3.44-.31-5.91-.45-5.16-.8-10.11-1.05-14.82s-.43-10-.55-15.81q-.12-5.79-.37-13.66c-.08-4.27-.16-8.08-.25-11.45q-.18-5.6-.33-9.59c-.11-2.67-.2-4.19-.28-4.56a6.15,6.15,0,0,0-2.65-3.13,5.53,5.53,0,0,0-2.95-.87,5,5,0,0,0-1.05.13c-2.74.65-4.55,2.54-5.41,5.66a79.32,79.32,0,0,0-.8,11.5q-.18,7.26-.18,15.81,0,2.16,0,8.8t.46,15.2Q434,536.92,434.6,544.05Zm43.5-53.77c.37-5,.59-8.24.68-9.84,0-.78.06-1.4.06-1.85a4.5,4.5,0,0,0-.13-1.17,4,4,0,0,0-.43-1,5.66,5.66,0,0,0-2.83-2.71,5.54,5.54,0,0,0-2.4-.55,5.93,5.93,0,0,0-1.41.18q-4.18,1.23-5.42,6.34c-.16.73-.45,2.48-.86,5.23s-.82,5.64-1.23,8.67-.69,5.35-.86,6.95c-.29,2.51-.54,5.87-.77,10.09s-.38,8.31-.46,12.25q-.06,2.58-.06,5,0,14,2.46,20.86,4.24,12.42,15.14,14a20.32,20.32,0,0,0,2.21.12,29.85,29.85,0,0,0,10-2.06c1.47-.59,3.67-1.59,6.58-3l4.28-2,3.47-1.63a22.27,22.27,0,0,0,3.76-2,5.91,5.91,0,0,0,1.78-2,7.52,7.52,0,0,0,1-3.57,6.79,6.79,0,0,0-1.72-4.37,6,6,0,0,0-4.92-2.21,5.81,5.81,0,0,0-.8.06,13.22,13.22,0,0,0-4.06,1.05q-2.52,1-8.37,3.75c-1.43.7-2.82,1.33-4.15,1.91s-2.29,1-2.86,1.16a9.11,9.11,0,0,1-2.89.5l-1,0a3.24,3.24,0,0,1-1.78-.71q-2-1.54-3.14-6.46c-.16-.78-.3-1.62-.4-2.52s-.16-2.3-.18-4.19,0-4.82,0-8.8q0-13,.55-19.25Q477.54,497.73,478.1,490.28Zm55.62,50.82a24.67,24.67,0,0,1-.4-2.52c-.11-.91-.17-2.3-.19-4.19s0-4.82,0-8.8q0-13,.55-19.25.61-8.61,1.17-16.06t.68-9.84c0-.78.06-1.4.06-1.85a5,5,0,0,0-.12-1.17,4.42,4.42,0,0,0-.43-1,5.7,5.7,0,0,0-2.83-2.71,5.54,5.54,0,0,0-2.4-.55,6.07,6.07,0,0,0-1.42.18q-4.18,1.23-5.41,6.34c-.17.73-.45,2.48-.86,5.23s-.82,5.64-1.23,8.67-.7,5.35-.86,6.95q-.43,3.76-.77,10.09t-.46,12.25c0,1.72-.07,3.38-.07,5q0,14,2.47,20.86,4.25,12.42,15.13,14a20.59,20.59,0,0,0,2.21.12,29.7,29.7,0,0,0,10-2.06c1.48-.59,3.67-1.59,6.59-3l4.27-2,3.48-1.63a22.5,22.5,0,0,0,3.75-2,6,6,0,0,0,1.79-2,7.64,7.64,0,0,0,1-3.57,6.85,6.85,0,0,0-1.72-4.37,6,6,0,0,0-4.93-2.21,5.67,5.67,0,0,0-.79.06,13.34,13.34,0,0,0-4.07,1.05q-2.52,1-8.36,3.75c-1.44.7-2.82,1.33-4.16,1.91s-2.28,1-2.86,1.16a9.06,9.06,0,0,1-2.89.5l-1,0a3.27,3.27,0,0,1-1.79-.71C535.54,546.53,534.49,544.38,533.72,541.1Zm56.6,23a17.93,17.93,0,0,0,3.87.43A26,26,0,0,0,605,561.89q1.66-.85,4.77-2.83t6-4a47.5,47.5,0,0,0,4-3,6.55,6.55,0,0,0,2.27-5,4.62,4.62,0,0,0-.06-.74,5.77,5.77,0,0,0-3.5-5.23,5.24,5.24,0,0,0-1.6-.68,3.73,3.73,0,0,0-1-.12,7.59,7.59,0,0,0-.92.06,6.84,6.84,0,0,0-2.28.4,18.76,18.76,0,0,0-2.89,1.45c-1.19.7-2.83,1.74-4.92,3.14q-2.16,1.41-4,2.55a18.71,18.71,0,0,1-2.68,1.44,6.55,6.55,0,0,1-2.46.56,4.28,4.28,0,0,1-2.92-1.36q-1.45-1.35-2.43-6.39a13.31,13.31,0,0,1-.31-1.6v-.56a4.81,4.81,0,0,1,0-.52,2.5,2.5,0,0,1,.22-.71,3.79,3.79,0,0,1,.52-.86,4.29,4.29,0,0,1,.65-.68,11.61,11.61,0,0,1,1.72-.52l3-.71c4.23-.73,7.25-1.31,9.08-1.72a20.77,20.77,0,0,0,3.78-1.11q4.92-2.4,4.92-6.58a7.9,7.9,0,0,0-.24-1.85,6.72,6.72,0,0,0-3.51-4.06,5.63,5.63,0,0,0-3-.67c-.25,0-.86.05-1.85.15a67.3,67.3,0,0,0-6.7,1.45q-3.51.86-5.36,1.17a14.24,14.24,0,0,1-2.27.24c-.17,0-.43,0-.8-.06a1.49,1.49,0,0,1-1-.61,2.51,2.51,0,0,1-.52-.74,4.38,4.38,0,0,1-.22-1.11q-.06-.74-.12-2.22V516.8c0-1.23,0-3.1.06-5.6s.12-5.46.22-8.86.2-6.39.31-8.95a34.52,34.52,0,0,1,.33-4.52,3.67,3.67,0,0,1,2.83-2.53,24.9,24.9,0,0,1,2.62-.3c1.41-.13,3-.23,4.83-.31q5.42-.25,8.34-.43c1.94-.13,3.37-.27,4.27-.43a10.62,10.62,0,0,0,2.09-.56,6.9,6.9,0,0,0,4.06-4.86,5.71,5.71,0,0,0,.13-1.23,6.8,6.8,0,0,0-2-4.74,6.22,6.22,0,0,0-3-1.78,20.51,20.51,0,0,0-4.61-.37H608a71,71,0,0,0-7.39.43c-2.75.29-6.25.76-10.52,1.42q-3.87.61-6,1.07A12.49,12.49,0,0,0,581,475.3a7.74,7.74,0,0,0-2,1.57,6.17,6.17,0,0,0-1.54,2.34,21.75,21.75,0,0,0-1,4.55c-.28,2.09-.61,5.13-1,9.1q-1.29,14.1-1.29,25.78a149.38,149.38,0,0,0,1.54,22.7Q579.06,561.16,590.32,564.11Zm24-60.17q0,6.82,6.22,12.49a30.77,30.77,0,0,0,2.92,2.24c1,.72,2.65,1.68,4.83,2.86s5.39,2.92,9.66,5.17a56.94,56.94,0,0,1,10.24,6.59c2.16,1.88,3.35,3.71,3.6,5.47a3.57,3.57,0,0,1,0,1.45,8.54,8.54,0,0,1-.52,1.44q-1.6,3-6.09,5.51a29.09,29.09,0,0,1-9.66,3.41q-6.28.93-7.2,5.36a7.7,7.7,0,0,0-.12,1.35,7.42,7.42,0,0,0,1,3.54,7.1,7.1,0,0,0,3.35,3,11.26,11.26,0,0,0,4,.68q5.42,0,13.48-3.88,13-6.71,15.81-16.79a14,14,0,0,0,.31-2.22c0-.53.06-1.13.06-1.78V538.7a18,18,0,0,0-.74-5,18.82,18.82,0,0,0-2.22-4.59,27.85,27.85,0,0,0-7.32-7.87,109,109,0,0,0-14.46-8.68q-4.61-2.46-7-3.81a24,24,0,0,1-3.44-2.19,4.78,4.78,0,0,1-1.39-1.63,3.18,3.18,0,0,1-.49-1.72q0-3.25,6.09-8.18,7.56-6.21,13.23-7.08l1.66-.27c.57-.11,1-.2,1.29-.28a5.94,5.94,0,0,0,4-4,5.51,5.51,0,0,0,.25-1.6,6.43,6.43,0,0,0-1.48-3.94,8.54,8.54,0,0,0-6.71-2.76,20.32,20.32,0,0,0-6.15,1.1A56.77,56.77,0,0,0,635,479q-3.69,1.85-6.33,3.51a42.86,42.86,0,0,0-7.48,6.49,29.15,29.15,0,0,0-5.07,7.29A19.29,19.29,0,0,0,614.37,503.94ZM20.36,727.2c0-2.5.12-5.46.22-8.86s.2-6.39.31-9a31.87,31.87,0,0,1,.34-4.52,3.64,3.64,0,0,1,2.83-2.53,24.56,24.56,0,0,1,2.61-.3c1.42-.13,3-.23,4.83-.31q5.41-.26,8.34-.43c1.94-.13,3.37-.27,4.27-.43a10.62,10.62,0,0,0,2.09-.56,6.91,6.91,0,0,0,4.06-4.86,5.71,5.71,0,0,0,.13-1.23,6.8,6.8,0,0,0-2-4.74,6.22,6.22,0,0,0-3-1.78,20.51,20.51,0,0,0-4.61-.37h-.92a73.91,73.91,0,0,0-7.39.43q-4.11.43-10.52,1.42-3.87.62-6,1.07a12.49,12.49,0,0,0-3.17,1,7.74,7.74,0,0,0-2,1.57,6.17,6.17,0,0,0-1.54,2.34,21.25,21.25,0,0,0-1,4.55c-.29,2.09-.62,5.13-1,9.1Q6,723,6,734.64a149.38,149.38,0,0,0,1.54,22.7q3.31,19.81,14.58,22.77a17.93,17.93,0,0,0,3.87.43,26,26,0,0,0,10.83-2.65q1.66-.85,4.77-2.83t6-4a47.5,47.5,0,0,0,4-3,6.51,6.51,0,0,0,2.27-5,4.62,4.62,0,0,0-.06-.74,5.77,5.77,0,0,0-3.5-5.23,5.24,5.24,0,0,0-1.6-.68,3.73,3.73,0,0,0-1-.12,7.59,7.59,0,0,0-.92.06,6.84,6.84,0,0,0-2.28.4,18.76,18.76,0,0,0-2.89,1.45c-1.19.7-2.83,1.74-4.92,3.14q-2.16,1.41-4,2.55A18.71,18.71,0,0,1,30,765.4a6.55,6.55,0,0,1-2.46.56,4.28,4.28,0,0,1-2.92-1.36q-1.44-1.35-2.43-6.39a15.69,15.69,0,0,1-.31-1.6v-.56a4.81,4.81,0,0,1,0-.52,2.88,2.88,0,0,1,.22-.71,4.19,4.19,0,0,1,.52-.86,4.29,4.29,0,0,1,.65-.68,11.61,11.61,0,0,1,1.72-.52l3-.71c4.23-.73,7.25-1.31,9.08-1.72a20.51,20.51,0,0,0,3.78-1.11q4.92-2.4,4.92-6.58a7.9,7.9,0,0,0-.24-1.85,6.68,6.68,0,0,0-3.51-4.06,5.63,5.63,0,0,0-2.95-.67c-.25,0-.86.05-1.85.15a67.3,67.3,0,0,0-6.7,1.45c-2.34.57-4.12,1-5.36,1.17a14.24,14.24,0,0,1-2.27.24c-.17,0-.43,0-.8-.06a1.49,1.49,0,0,1-1-.61,2.51,2.51,0,0,1-.52-.74,4,4,0,0,1-.21-1.11c-.05-.49-.09-1.23-.13-2.22V732.8C20.3,731.57,20.32,729.7,20.36,727.2Zm52-22a2.16,2.16,0,0,1,1.6,1.14,1.81,1.81,0,0,1,.28.71,10.67,10.67,0,0,1,.12,1.54c0,.72,0,1.76,0,3.13v8.9a360.35,360.35,0,0,0,2.83,44.29,69.74,69.74,0,0,0,2.31,12.28q1.2,3.46,3.6,4.46a7,7,0,0,0,2.95.67,11.14,11.14,0,0,0,2.31-.37,6.72,6.72,0,0,0,4.4-5.53,6,6,0,0,0,.06-.93,34.62,34.62,0,0,0-.55-5.16q-3.21-19.58-4-51.13-.14-4.31-.19-6.89c0-1.72-.06-3-.06-3.88a13.68,13.68,0,0,1,.09-1.87,2.65,2.65,0,0,1,.28-.9,2.41,2.41,0,0,1,1-1.23,6.47,6.47,0,0,1,2.43-.61c1.15-.12,2.83-.25,5.05-.37,2.42-.08,4.32-.17,5.69-.28s2.4-.2,3.08-.3a7.64,7.64,0,0,0,1.75-.47q4.48-2.08,4.68-6.09v-.24q0-3.89-4.19-6.16a6.83,6.83,0,0,0-1.29-.36,14.23,14.23,0,0,0-2.21-.16q-1.55,0-4.68,0a260.92,260.92,0,0,0-35.31,3A23.86,23.86,0,0,0,58.17,694a6.12,6.12,0,0,0-3,2.67,6.21,6.21,0,0,0-.8,3,9.11,9.11,0,0,0,.55,2.61,5.06,5.06,0,0,0,3.08,2.8,7.38,7.38,0,0,0,2.95.43h.61c1.36,0,3.2-.1,5.54-.31,1.27-.08,2.34-.12,3.2-.12A14.28,14.28,0,0,1,72.35,705.2Zm120.4,75.34a26,26,0,0,0,10.83-2.65q1.66-.85,4.77-2.83t6-4a49.28,49.28,0,0,0,4-3,6.55,6.55,0,0,0,2.27-5,4.62,4.62,0,0,0-.06-.74,5.77,5.77,0,0,0-3.51-5.23,5.1,5.1,0,0,0-1.59-.68,3.73,3.73,0,0,0-1-.12,7.59,7.59,0,0,0-.92.06,6.84,6.84,0,0,0-2.28.4,18.76,18.76,0,0,0-2.89,1.45c-1.19.7-2.83,1.74-4.92,3.14q-2.16,1.41-4,2.55a19.27,19.27,0,0,1-2.68,1.44,6.55,6.55,0,0,1-2.46.56,4.28,4.28,0,0,1-2.92-1.36q-1.45-1.35-2.43-6.39a13.31,13.31,0,0,1-.31-1.6v-.56a4.81,4.81,0,0,1,0-.52,2.5,2.5,0,0,1,.22-.71,3.79,3.79,0,0,1,.52-.86,3.89,3.89,0,0,1,.65-.68,11.61,11.61,0,0,1,1.72-.52l3-.71c4.23-.73,7.25-1.31,9.08-1.72a20.77,20.77,0,0,0,3.78-1.11q4.92-2.4,4.92-6.58a7.9,7.9,0,0,0-.24-1.85,6.75,6.75,0,0,0-3.51-4.06,5.63,5.63,0,0,0-2.95-.67c-.25,0-.86.05-1.85.15a67.3,67.3,0,0,0-6.7,1.45q-3.51.86-5.36,1.17a14.24,14.24,0,0,1-2.27.24c-.17,0-.43,0-.8-.06a1.49,1.49,0,0,1-1-.61,2.51,2.51,0,0,1-.52-.74,4,4,0,0,1-.22-1.11q-.06-.74-.12-2.22V732.8c0-1.23,0-3.1.06-5.6s.12-5.46.22-8.86.2-6.39.31-9a34.52,34.52,0,0,1,.33-4.52,3.67,3.67,0,0,1,2.83-2.53,24.9,24.9,0,0,1,2.62-.3c1.41-.13,3-.23,4.83-.31q5.42-.26,8.33-.43c1.95-.13,3.38-.27,4.28-.43a10.62,10.62,0,0,0,2.09-.56,6.91,6.91,0,0,0,4.06-4.86,6.42,6.42,0,0,0,.13-1.23,6.8,6.8,0,0,0-2-4.74,6.27,6.27,0,0,0-3-1.78,20.51,20.51,0,0,0-4.61-.37h-.92a73.91,73.91,0,0,0-7.39.43c-2.75.29-6.25.76-10.52,1.42q-3.87.62-6,1.07a12.54,12.54,0,0,0-3.16,1,7.74,7.74,0,0,0-2,1.57,6.17,6.17,0,0,0-1.54,2.34,21.75,21.75,0,0,0-1,4.55c-.28,2.09-.61,5.13-1,9.1q-1.29,14.1-1.29,25.78a149.38,149.38,0,0,0,1.54,22.7q3.31,19.81,14.58,22.77A17.93,17.93,0,0,0,192.75,780.54Zm63.13-13.26q3.31,6.18,6.06,8.4a9.52,9.52,0,0,0,6.18,2.21h.25q5,0,8.12-4.92,2.08-3,3-9.6a213.15,213.15,0,0,0,1.29-21.71q.43-15.13,1.79-34c.28-4.43.47-7.85.55-10.27v-.86a20.1,20.1,0,0,0-.4-4.62,6.36,6.36,0,0,0-1.38-2.7,6.74,6.74,0,0,0-4.8-2.46h-.31a6.75,6.75,0,0,0-4.74,2,6.42,6.42,0,0,0-1.69,2.8,22.91,22.91,0,0,0-.71,5.08q-.3,4.37-.77,11.23t-.83,12.83c-.12,1.92-.25,4.51-.4,7.75s-.25,6.4-.33,9.47q-.13,4.13-.25,6.61c-.08,1.67-.18,2.95-.28,3.85a6.93,6.93,0,0,1-.4,1.91,1.85,1.85,0,0,1-.61.8.7.7,0,0,1-.37.12.77.77,0,0,1-.34-.12,4.48,4.48,0,0,1-.77-.74,15.42,15.42,0,0,1-.86-1.32,17.26,17.26,0,0,1-.86-1.63c-.21-.58-.58-1.49-1.11-2.74s-1.09-2.55-1.66-3.91q-3.13-7.44-10.46-27.5a152.26,152.26,0,0,0-6.37-15.66q-2.24-4.34-4.4-5a7,7,0,0,0-2.27-.37,10.37,10.37,0,0,0-4.12,1.08,7.76,7.76,0,0,0-3.76,3.78,9.39,9.39,0,0,0-.49,1.63,20,20,0,0,0-.37,2.19q-.18,2.26-.24,9.29c-.05,3.16-.07,6.35-.07,9.59,0,1.64,0,4.15.07,7.51s.12,6.32.24,8.86c.12,1.72.29,4.25.49,7.6s.41,6.69.62,10.06q.5,8.49.86,13.13c.25,3.1.47,5.35.68,6.77a10.76,10.76,0,0,0,.8,3.11,7.29,7.29,0,0,0,4.18,4.06,6.73,6.73,0,0,0,2,.3,8.43,8.43,0,0,0,2.55-.52,6.81,6.81,0,0,0,3-2.24,6.09,6.09,0,0,0,1.35-3.27q.06-.68.06-1.59c0-1.28-.08-2.92-.24-4.93q-.44-4.61-.8-10.52t-.62-10.52c-.08-2.29-.12-3.87-.12-4.73v-.56c.24-1,.61-1.54,1.1-1.54a.54.54,0,0,1,.25.06,2.1,2.1,0,0,1,.86.9,25.07,25.07,0,0,1,1.36,2.61c.57,1.23,1.33,3,2.27,5.23Q252.55,761.1,255.88,767.28Zm70-62.11a14.12,14.12,0,0,1,2.95-2.34,12.3,12.3,0,0,1,3.39-1.16q3.69-.69,5-2.71a6,6,0,0,0,1.11-3.32,8.7,8.7,0,0,0-.83-3.08c-.56-1.31-1.94-2.36-4.16-3.14a10.92,10.92,0,0,0-3.26-.49q-7.32,0-16.61,9.54-11.81,12.3-18.95,32.73a72.22,72.22,0,0,0-3,10.55,48.86,48.86,0,0,0-.86,9.26v.37q0,12.18,7.5,20.18a21.92,21.92,0,0,0,13.66,7.26,22.92,22.92,0,0,0,2.34.12,24.32,24.32,0,0,0,8.92-1.85,46.29,46.29,0,0,0,7.66-4.24,26.09,26.09,0,0,0,5.51-4.55,8,8,0,0,0,1.41-4.25,6.49,6.49,0,0,0-1.6-4.18,6.27,6.27,0,0,0-5.17-2.28,7.58,7.58,0,0,0-3,.59,31.1,31.1,0,0,0-4.28,2.49,36.92,36.92,0,0,1-5,2.89,10.24,10.24,0,0,1-3.69.92,4.71,4.71,0,0,1-.74.06,7.39,7.39,0,0,1-5.66-2.77q-3.75-4-3.75-11,0-10,7.69-25.78Q318.69,712.5,325.89,705.17Zm40.7,56.24c1.08-.17,2.63-.35,4.64-.56a12.8,12.8,0,0,1,2-.18,4,4,0,0,1,2.8.92c.68.61,1.16,2.24,1.45,4.86.37,2.95.66,5.06.89,6.31a14.42,14.42,0,0,0,.77,2.92,7.21,7.21,0,0,0,4.86,4.74,5.45,5.45,0,0,0,1.41.18,8.53,8.53,0,0,0,2.37-.43,6.53,6.53,0,0,0,2.74-1.72,6.3,6.3,0,0,0,1.78-3.76,10.29,10.29,0,0,0,.07-1.35,54.39,54.39,0,0,0-.56-6.52q-1.17-8.8-1.6-18.15t-.61-29.59q-.12-9.72-.28-16.74t-.21-8.06q-.43-4.92-3.76-6.52a6,6,0,0,0-2.34-.49,10.36,10.36,0,0,0-2.12.31,4.52,4.52,0,0,0-2.55,1.84,7,7,0,0,0-1.35,3.05,48.5,48.5,0,0,0-.74,6.61q-.61,9.78-.8,16.18c0,2.14-.06,4.37-.06,6.71s0,4.86.06,7.44c.08,3.29.13,5.89.15,7.82s0,3.38,0,4.36a19.36,19.36,0,0,1-.12,2.1,2.45,2.45,0,0,1-.34,1,2.72,2.72,0,0,1-.62.77,4.52,4.52,0,0,1-.86.65,22,22,0,0,1-2.95.8c-1.48.32-3,.63-4.49.92a19.8,19.8,0,0,1-3.2.43,3.51,3.51,0,0,1-1.72-.43,2.74,2.74,0,0,1-1.17-1.11q-.5-.74-.92-8.43T358.19,711c-.12-3.86-.24-7.2-.34-10s-.17-4.47-.21-4.92a6.1,6.1,0,0,0-3.33-4.92,5.68,5.68,0,0,0-2.46-.56,6.83,6.83,0,0,0-3.5,1,4.05,4.05,0,0,0-1.23,1,11,11,0,0,0-1.05,1.66,11.82,11.82,0,0,0-.65,1.54,8.77,8.77,0,0,0-.3,1.85c-.07.78-.14,2-.22,3.57q-.5,9.11-.49,17.59c0,2.55.08,6.43.24,11.66s.8,14.88,1.91,29c.29,3.57.53,6.35.74,8.33a35.61,35.61,0,0,0,.68,4.53,9.75,9.75,0,0,0,.92,2.52,6.69,6.69,0,0,0,5.91,3.63h1.93c1.25,0,2.6-1.23,4-3.69l.86-1.6-.18-4.37c0-1.07-.06-2-.06-2.65q0-.56,0-1.35a2.69,2.69,0,0,1,.4-1.38,3.53,3.53,0,0,1,1.17-1.08,2.92,2.92,0,0,1,1.17-.52A21,21,0,0,1,366.59,761.41Zm65.8-71.56a10.63,10.63,0,0,1,3.63.53,9.34,9.34,0,0,1,3,1.93,13.46,13.46,0,0,1,3.29,4.5,35.29,35.29,0,0,1,2.25,8.06q1,5.34,2.15,15,4.13,33.64,8.49,46.14a25.28,25.28,0,0,1,.92,2.89,6.7,6.7,0,0,1,.19,1.42,2.32,2.32,0,0,1-.06.55q-1,5.65-6.46,5.91a7.2,7.2,0,0,1-5.11-2,10.23,10.23,0,0,1-1.91-2.31,20,20,0,0,1-1.6-3.66,10.15,10.15,0,0,0-1.63-3.17,3.11,3.11,0,0,0-2.12-1.08,6.27,6.27,0,0,0-1.05-.06c-.78,0-1.86,0-3.26.12-2.29.13-4.74.28-7.35.47s-4.56.36-5.87.52a6,6,0,0,0-3.79,1.41c-.67.74-1.1,2.14-1.26,4.19a10.74,10.74,0,0,1-.8,3.6,6.32,6.32,0,0,1-1.84,2.3,3.88,3.88,0,0,1-1.3.74,8.09,8.09,0,0,1-1.78.25h-.68a8.12,8.12,0,0,1-1.1-.06,4.33,4.33,0,0,1-1.24-.43,8.92,8.92,0,0,1-3.38-3.76,13.16,13.16,0,0,1-.61-4.86,108.41,108.41,0,0,1,1.1-13.16q1.11-7.81,3.6-18.18t5.63-20.09q7.51-23.07,15.75-26.89A6,6,0,0,1,430,690,15.67,15.67,0,0,1,432.39,689.85Zm.55,34.33a90.41,90.41,0,0,0-1.6-10,1.26,1.26,0,0,0-1.11-.8h-.12a2,2,0,0,0-1.41,1q-1.11,1.85-3.54,9.75t-4.77,17.14a40,40,0,0,0-1.48,8.12,2.67,2.67,0,0,0,.19,1.17,2.23,2.23,0,0,0,.49.46,5.75,5.75,0,0,0,.86.52,3.25,3.25,0,0,0,.8.31l1.79-.25c1.18-.12,2.62-.28,4.3-.49s3.24-.47,4.55-.68a16.94,16.94,0,0,0,2.47-.49,2.63,2.63,0,0,0,1.41-1.54,2.79,2.79,0,0,0,.25-.67,3,3,0,0,0,.06-.56,4.16,4.16,0,0,0-.06-.67c0-.54-.14-1.28-.28-2.25s-.34-2.28-.58-4q-.5-3-1.11-7.6T432.94,724.18Zm47.37,54.21a6.1,6.1,0,0,0,1.36-3.27q.06-.68.06-1.59c0-1.28-.08-2.92-.25-4.93-.29-3.07-.55-6.58-.8-10.52s-.45-7.44-.61-10.52c-.09-2.29-.13-3.87-.13-4.73v-.56c.25-1,.62-1.54,1.11-1.54a.57.57,0,0,1,.25.06,2.16,2.16,0,0,1,.86.9,23.6,23.6,0,0,1,1.35,2.61c.58,1.23,1.34,3,2.28,5.23q4.92,11.57,8.24,17.75t6.06,8.4a9.57,9.57,0,0,0,6.19,2.21h.24q5.06,0,8.12-4.92,2.1-3,3-9.6T519,741.66q.43-15.13,1.78-34,.43-6.64.56-10.27v-.86a20.68,20.68,0,0,0-.4-4.62,6.26,6.26,0,0,0-1.39-2.7,6.7,6.7,0,0,0-4.79-2.46h-.31a6.72,6.72,0,0,0-4.74,2,6.42,6.42,0,0,0-1.69,2.8,22.33,22.33,0,0,0-.71,5.08q-.3,4.37-.77,11.23t-.83,12.83c-.12,1.92-.26,4.51-.4,7.75s-.26,6.4-.34,9.47q-.12,4.13-.24,6.61c-.09,1.67-.18,2.95-.28,3.85a7.33,7.33,0,0,1-.4,1.91,1.79,1.79,0,0,1-.62.8.65.65,0,0,1-.36.12.73.73,0,0,1-.34-.12,4.14,4.14,0,0,1-.77-.74,13.33,13.33,0,0,1-.86-1.32,17.26,17.26,0,0,1-.86-1.63c-.21-.58-.58-1.49-1.11-2.74s-1.09-2.55-1.66-3.91q-3.14-7.44-10.46-27.5a152.26,152.26,0,0,0-6.37-15.66c-1.5-2.89-3-4.54-4.4-5a7.06,7.06,0,0,0-2.27-.37,10.41,10.41,0,0,0-4.13,1.08,7.74,7.74,0,0,0-3.75,3.78,9.39,9.39,0,0,0-.49,1.63,17.88,17.88,0,0,0-.37,2.19c-.12,1.51-.21,4.61-.25,9.29,0,3.16-.06,6.35-.06,9.59,0,1.64,0,4.15.06,7.51s.13,6.32.25,8.86c.12,1.72.29,4.25.49,7.6s.41,6.69.62,10.06q.48,8.49.86,13.13c.24,3.1.47,5.35.67,6.77a11.46,11.46,0,0,0,.8,3.11,7.31,7.31,0,0,0,4.19,4.06,6.68,6.68,0,0,0,2,.3,8.48,8.48,0,0,0,2.55-.52A6.73,6.73,0,0,0,480.31,778.39Zm62-73.34a14.39,14.39,0,0,1,2,.15,2.16,2.16,0,0,1,1.6,1.14,2,2,0,0,1,.28.71,10.67,10.67,0,0,1,.12,1.54c0,.72,0,1.76,0,3.13v8.9a360.35,360.35,0,0,0,2.83,44.29,69.74,69.74,0,0,0,2.31,12.28q1.2,3.46,3.6,4.46a7,7,0,0,0,3,.67,11.14,11.14,0,0,0,2.31-.37,6.72,6.72,0,0,0,4.4-5.53,6,6,0,0,0,.06-.93,33.58,33.58,0,0,0-.56-5.16q-3.19-19.58-4-51.13-.12-4.31-.18-6.89c0-1.72-.06-3-.06-3.88a13.68,13.68,0,0,1,.09-1.87,2.45,2.45,0,0,1,.28-.9,2.41,2.41,0,0,1,1-1.23,6.36,6.36,0,0,1,2.43-.61c1.15-.12,2.83-.25,5-.37,2.42-.08,4.31-.17,5.69-.28s2.4-.2,3.07-.3a7.59,7.59,0,0,0,1.76-.47q4.49-2.08,4.67-6.09v-.24q0-3.89-4.18-6.16a6.83,6.83,0,0,0-1.29-.36,14.28,14.28,0,0,0-2.22-.16c-1,0-2.58,0-4.67,0a261.2,261.2,0,0,0-35.32,3,23.77,23.77,0,0,0-6.24,1.57,6.15,6.15,0,0,0-3,2.67,6.32,6.32,0,0,0-.8,3,9.2,9.2,0,0,0,.56,2.61,5.06,5.06,0,0,0,3.07,2.8,7.43,7.43,0,0,0,3,.43h.61c1.36,0,3.2-.1,5.54-.31C540.4,705.09,541.47,705.05,542.33,705.05Zm87.36,66.05a47.5,47.5,0,0,0,4-3,6.52,6.52,0,0,0,2.28-5,4.62,4.62,0,0,0-.06-.74,5.8,5.8,0,0,0-3.51-5.23,5.24,5.24,0,0,0-1.6-.68,3.7,3.7,0,0,0-1-.12,7.75,7.75,0,0,0-.93.06,6.74,6.74,0,0,0-2.27.4,18.79,18.79,0,0,0-2.9,1.45c-1.19.7-2.83,1.74-4.92,3.14-1.43.94-2.78,1.79-4,2.55a19.33,19.33,0,0,1-2.67,1.44,6.64,6.64,0,0,1-2.46.56,4.3,4.3,0,0,1-2.93-1.36q-1.44-1.35-2.43-6.39a15.08,15.08,0,0,1-.3-1.6v-.56a4.81,4.81,0,0,1,0-.52,2.79,2.79,0,0,1,.21-.71,4.19,4.19,0,0,1,.52-.86,4.79,4.79,0,0,1,.65-.68,12,12,0,0,1,1.72-.52c.91-.22,1.91-.46,3-.71,4.22-.73,7.25-1.31,9.07-1.72a20.68,20.68,0,0,0,3.79-1.11q4.92-2.4,4.92-6.58a7.44,7.44,0,0,0-.25-1.85,6.7,6.7,0,0,0-3.5-4.06,5.67,5.67,0,0,0-3-.67c-.24,0-.86.05-1.84.15a67.26,67.26,0,0,0-6.71,1.45q-3.51.86-5.35,1.17a14.35,14.35,0,0,1-2.28.24c-.16,0-.43,0-.8-.06a1.45,1.45,0,0,1-1-.61,2.56,2.56,0,0,1-.53-.74,4,4,0,0,1-.21-1.11q-.06-.74-.12-2.22V732.8c0-1.23,0-3.1.06-5.6s.11-5.46.21-8.86.21-6.39.31-9a33.64,33.64,0,0,1,.34-4.52,3.66,3.66,0,0,1,2.83-2.53,24.94,24.94,0,0,1,2.61-.3c1.42-.13,3-.23,4.83-.31q5.41-.26,8.34-.43c2-.13,3.37-.27,4.28-.43a10.62,10.62,0,0,0,2.09-.56,6.94,6.94,0,0,0,4.06-4.86,6.41,6.41,0,0,0,.12-1.23,6.8,6.8,0,0,0-2-4.74,6.24,6.24,0,0,0-2.95-1.78,20.61,20.61,0,0,0-4.62-.37h-.92a73.89,73.89,0,0,0-7.38.43q-4.12.43-10.52,1.42-3.88.62-6,1.07a12.64,12.64,0,0,0-3.17,1,7.91,7.91,0,0,0-2,1.57,6.17,6.17,0,0,0-1.54,2.34,21.89,21.89,0,0,0-1,4.55c-.29,2.09-.62,5.13-1,9.1q-1.29,14.1-1.29,25.78a149.38,149.38,0,0,0,1.54,22.7q3.33,19.81,14.58,22.77a18,18,0,0,0,3.88.43,26.1,26.1,0,0,0,10.83-2.65q1.65-.85,4.76-2.83T629.69,771.1ZM58.39,909.85a6.54,6.54,0,0,0-5.6-3.14,8.92,8.92,0,0,0-1.42.13A7.14,7.14,0,0,0,46,912.25c-.08.37-.21,1.38-.37,3s-.35,3.5-.55,5.6-.37,4.61-.62,7.32-.47,5.08-.68,7.13a3.26,3.26,0,0,1-.06.62q-.3,3.25-.83,8.34c-.35,3.38-.68,6.67-1,9.87q-1,10.33-1.66,15.2a44.68,44.68,0,0,1-1.36,6.89,12.17,12.17,0,0,1-1,2.49,2.81,2.81,0,0,1-1.17,1.07,1.58,1.58,0,0,1-.8.25,1.71,1.71,0,0,1-.37-.06,4.09,4.09,0,0,1-1.05-.8q-2-1.85-4.79-8.21a121.9,121.9,0,0,1-5.17-14.06Q23.26,952.48,22,947t-3.41-16.18q-1.11-5.6-2-9.75t-1.14-4.89q-1.84-4.68-5.9-4.68a5.82,5.82,0,0,0-5.36,3.39A8.53,8.53,0,0,0,3.45,919a36.27,36.27,0,0,0,.49,5.41.25.25,0,0,1,.06.19c.16,1.23.36,2.67.58,4.33s.42,3.17.59,4.53a165,165,0,0,0,5.1,24.79q4.56,16.13,10.4,26.06t12,12.21a7.74,7.74,0,0,0,1.78.43c.41,0,.9.06,1.48.06h.86a11,11,0,0,0,2.55-.22,9.55,9.55,0,0,0,2-.76q9.48-4.8,12.55-22.09c.17-1.11.4-2.95.71-5.54s.61-5.29.89-8.12q1.42-13.9,2.16-21.47t1.1-11.41c.25-2.57.44-4.75.56-6.56.2-2.54.31-4.55.31-6,0-.45,0-1.13-.13-2.06A6.24,6.24,0,0,0,58.39,909.85Zm67.86,35.44c.08,1.39.12,2.79.12,4.18a70.77,70.77,0,0,1-2.65,19.32,54.54,54.54,0,0,1-9.53,19.44,25.4,25.4,0,0,1-11.08,8.37,13.73,13.73,0,0,1-2.58.74,25.5,25.5,0,0,1-3.14.24H96a16.92,16.92,0,0,1-3.63-.3q-7.57-2-13.38-9.23a46.7,46.7,0,0,1-8.59-18,85.3,85.3,0,0,1-2-18.58,96.15,96.15,0,0,1,3.32-24.61,64.61,64.61,0,0,1,4.74-12.06,21.12,21.12,0,0,1,4-5.84,10.13,10.13,0,0,1,4.83-2.46,28.72,28.72,0,0,1,5.42-.43c.73,0,1.49,0,2.27.06a51.37,51.37,0,0,1,8.8,1Q123.84,912.31,126.25,945.29Zm-14,4.12a52.65,52.65,0,0,0-2.83-17.35q-2.16-6.27-6-9t-10.34-2.71h-.3a10.18,10.18,0,0,0-3.6.46,3.39,3.39,0,0,0-1.69,1.76,43.55,43.55,0,0,0-2.56,8.64,117.65,117.65,0,0,0-2,12.21c-.28,3-.43,5.85-.43,8.56q0,14.09,5.11,23.62,4.42,7.64,9,7.63a6.38,6.38,0,0,0,3.14-.86q3.69-2.16,7.26-9.23,4.42-9.17,4.83-15.6T112.28,949.41ZM178,905.91a6.83,6.83,0,0,0-1.29-.36,14.39,14.39,0,0,0-2.22-.16c-1,0-2.58,0-4.68,0a261.06,261.06,0,0,0-35.31,3,23.77,23.77,0,0,0-6.24,1.57,6.15,6.15,0,0,0-3,2.67,6.32,6.32,0,0,0-.8,3,9.2,9.2,0,0,0,.56,2.61,5,5,0,0,0,3.07,2.8,7.41,7.41,0,0,0,2.95.43h.62c1.35,0,3.2-.1,5.54-.31,1.27-.08,2.34-.12,3.2-.12a14.39,14.39,0,0,1,2,.15,2.17,2.17,0,0,1,1.6,1.14,1.82,1.82,0,0,1,.27.71,10.31,10.31,0,0,1,.13,1.54c0,.72,0,1.76,0,3.13v8.9a360.35,360.35,0,0,0,2.83,44.29,70,70,0,0,0,2.3,12.28q1.2,3.46,3.6,4.46a7.07,7.07,0,0,0,3,.67,11,11,0,0,0,2.3-.37,5.75,5.75,0,0,0,3.05-2.21,5.66,5.66,0,0,0,1.35-3.32,6,6,0,0,0,.06-.93,33.32,33.32,0,0,0-.55-5.16q-3.2-19.58-4-51.13-.12-4.31-.18-6.89c0-1.72-.06-3-.06-3.88a13.68,13.68,0,0,1,.09-1.87,2.68,2.68,0,0,1,.27-.9,2.47,2.47,0,0,1,1-1.23,6.36,6.36,0,0,1,2.43-.61c1.15-.12,2.83-.25,5-.37,2.42-.08,4.32-.17,5.7-.28s2.39-.2,3.07-.3a7.73,7.73,0,0,0,1.76-.47q4.49-2.08,4.67-6.09v-.24Q182.17,908.19,178,905.91Zm59.86,67.8a8.15,8.15,0,0,1,.25,1.91,6.43,6.43,0,0,1-4,6,5.53,5.53,0,0,1-2.34.43,21.24,21.24,0,0,1-5.91-1.11c-1.84-.57-4-1.15-6.33-1.72s-4.58-1.08-6.59-1.51a24.94,24.94,0,0,0-3.87-.64c-1.32,0-2.05.3-2.22.92a6.83,6.83,0,0,0-.24,1.72,29.68,29.68,0,0,0,.55,4.8c.41,2.42.63,4,.68,4.74s.06,1.25.06,1.54a6.61,6.61,0,0,1-.31,2.15,6,6,0,0,1-1.35,2.28A7.86,7.86,0,0,1,204,997a7.35,7.35,0,0,1-2.77.49,7.69,7.69,0,0,1-2.77-.49,8,8,0,0,1-3.63-3.88q-1.59-4.11-3.41-18.82t-2.92-32.18q-.31-4.92-.31-7.26v-3.38q0-3.27.12-7.75c.08-3.78.19-6.54.31-8.28a9.71,9.71,0,0,1,.74-3.63,7.19,7.19,0,0,1,1.72-2q3.45-3.19,12.37-3.51c.61,0,1.21-.06,1.78-.06q12.56,0,21.6,6.59a23.09,23.09,0,0,1,8.73,14.27,26.49,26.49,0,0,1,.37,4.43q0,12.24-10.64,25l-2,2.37c-.68.8-1.2,1.4-1.57,1.81a3.83,3.83,0,0,0-1.23,2.4,1.61,1.61,0,0,0,.68,1.29c.49.46,2.17,1.07,5,1.85a30.64,30.64,0,0,1,8.37,3.26A7.36,7.36,0,0,1,237.85,973.71Zm-16.67-38.2a16.35,16.35,0,0,0,.43-3.76,11.1,11.1,0,0,0-.49-3.44,10.45,10.45,0,0,0-4.87-5.38,24.47,24.47,0,0,0-9.22-3.11,14.09,14.09,0,0,0-1.54-.19h-.56a3.45,3.45,0,0,0-.67.07,4.07,4.07,0,0,0-.93.3.7.7,0,0,1-.18.13,2.21,2.21,0,0,0-1.05.74,2.6,2.6,0,0,0-.4,1.47c0,.66,0,1.21,0,1.66,0,.91,0,2.07.07,3.51.12,2.17.3,5.17.55,9,0,.58,0,1.17.06,1.79.25,3.73.44,6.69.59,8.89s.29,3.83.46,4.92a9.23,9.23,0,0,0,.52,2.24,1.43,1.43,0,0,0,.71.8.86.86,0,0,0,.49.25h.61l.93-.37a10.81,10.81,0,0,0,2.49-2q1.75-1.66,3.69-3.75a46.54,46.54,0,0,0,3.17-3.75,38.68,38.68,0,0,0,3.14-5.17A28.23,28.23,0,0,0,221.18,935.51Zm70.13,37.65a5.14,5.14,0,0,0-1.6-.68,3.6,3.6,0,0,0-1-.12,7.47,7.47,0,0,0-.92.06,6.84,6.84,0,0,0-2.28.4,18.76,18.76,0,0,0-2.89,1.45c-1.19.7-2.83,1.74-4.92,3.14q-2.16,1.41-4,2.55A19.27,19.27,0,0,1,271,981.4a6.55,6.55,0,0,1-2.46.56,4.28,4.28,0,0,1-2.92-1.36q-1.45-1.35-2.43-6.39a13.31,13.31,0,0,1-.31-1.6v-.56a4.81,4.81,0,0,1,0-.52,2.5,2.5,0,0,1,.22-.71,3.79,3.79,0,0,1,.52-.86,4.28,4.28,0,0,1,.64-.68,11.89,11.89,0,0,1,1.73-.52c.9-.22,1.9-.46,3-.71,4.23-.73,7.25-1.31,9.08-1.72a20.77,20.77,0,0,0,3.78-1.11q4.92-2.4,4.92-6.58a7.9,7.9,0,0,0-.24-1.85,6.75,6.75,0,0,0-3.51-4.06,5.63,5.63,0,0,0-2.95-.67c-.25,0-.87.05-1.85.15a67.88,67.88,0,0,0-6.71,1.45c-2.33.57-4.12,1-5.35,1.17a14.24,14.24,0,0,1-2.27.24c-.17,0-.44,0-.8-.06a1.49,1.49,0,0,1-1-.61,2.51,2.51,0,0,1-.52-.74,4,4,0,0,1-.22-1.11q-.06-.74-.12-2.22V948.8c0-1.23,0-3.1.06-5.6s.11-5.46.22-8.86.2-6.39.3-9a35.61,35.61,0,0,1,.34-4.52,3.66,3.66,0,0,1,2.83-2.53,24.9,24.9,0,0,1,2.62-.3c1.41-.13,3-.23,4.83-.31q5.42-.26,8.33-.43c1.95-.13,3.38-.27,4.28-.43a10.62,10.62,0,0,0,2.09-.56,6.91,6.91,0,0,0,4.06-4.86,6.42,6.42,0,0,0,.13-1.23,6.77,6.77,0,0,0-2-4.74,6.19,6.19,0,0,0-2.95-1.78,20.51,20.51,0,0,0-4.61-.37h-.93a73.89,73.89,0,0,0-7.38.43c-2.75.29-6.25.76-10.52,1.42q-3.87.62-6,1.07a12.78,12.78,0,0,0-3.17,1,7.86,7.86,0,0,0-2,1.57,6.17,6.17,0,0,0-1.54,2.34,21.75,21.75,0,0,0-1,4.55c-.28,2.09-.61,5.13-1,9.1Q247,939,247,950.64a150.77,150.77,0,0,0,1.53,22.7q3.33,19.81,14.59,22.77a17.93,17.93,0,0,0,3.87.43,26.1,26.1,0,0,0,10.83-2.65q1.67-.85,4.77-2.83t6-4a49.28,49.28,0,0,0,4-3,6.55,6.55,0,0,0,2.27-5,4.62,4.62,0,0,0-.06-.74A5.77,5.77,0,0,0,291.31,973.16Zm126.31-36.51a25.75,25.75,0,0,1-2,4.76,47.67,47.67,0,0,1-8.55,11.51q-7.69,8.18-20.73,15.63c-1.23.73-2.31,1.39-3.23,2s-1.47.93-1.63,1a3,3,0,0,0-1.11,1.57,7.5,7.5,0,0,0-.25,2.06c0,.45,0,1,.06,1.54.13,1.52.39,3.69.8,6.52.29,1.81.49,3.19.59,4.15s.15,1.72.15,2.25a4.79,4.79,0,0,1-.18,1.35,6.93,6.93,0,0,1-2.4,3.91,6.39,6.39,0,0,1-4.12,1.51,6.73,6.73,0,0,1-3-.74,6.33,6.33,0,0,1-3.26-3.42,33.87,33.87,0,0,1-1.91-8.27q-1.35-9.48-2.21-21.1t-.86-21.78q0-2.9.24-8.46c.17-3.71.36-7.23.59-10.55s.44-5.58.64-6.77q1-5.85,5.66-7.57a16.5,16.5,0,0,1,3.73-.46q2.43-.09,3.9-.09,2.22,0,4.68.12a70,70,0,0,1,7,.62q15.19,2.09,22,9.41a25.52,25.52,0,0,1,2.49,2.68,12.81,12.81,0,0,1,1.51,2.55,18.55,18.55,0,0,1,1.66,4.43,20.17,20.17,0,0,1,.37,3.87v1.17A20.86,20.86,0,0,1,417.62,936.65ZM404,931.39a5.46,5.46,0,0,0-1.84-4.13q-2.78-3.43-15-5.84a39.35,39.35,0,0,0-4.71-.83l-1.08,0a3.23,3.23,0,0,0-2.15.55,2.29,2.29,0,0,0-.83,1,7,7,0,0,0-.4,2.15c-.08,1-.12,2.58-.12,4.67s0,5,.12,8.68q.06,5.85.18,10.06c.08,2.81.17,4.44.25,4.89.2,1.6.88,2.4,2,2.4a7.14,7.14,0,0,0,3.44-1.35,68.28,68.28,0,0,0,9.26-6.9,56.45,56.45,0,0,0,7.42-7.62Q404,934.64,404,931.39Zm66.94,53.52a7.29,7.29,0,0,1,.18,1.42,2.32,2.32,0,0,1-.06.55q-1,5.65-6.46,5.91a7.18,7.18,0,0,1-5.1-2,10,10,0,0,1-1.91-2.31,19.31,19.31,0,0,1-1.6-3.66,10.36,10.36,0,0,0-1.63-3.17,3.11,3.11,0,0,0-2.12-1.08,6.35,6.35,0,0,0-1.05-.06c-.78,0-1.87,0-3.26.12-2.3.13-4.75.28-7.35.47s-4.56.36-5.88.52a6,6,0,0,0-3.78,1.41c-.68.74-1.1,2.14-1.26,4.19a10.74,10.74,0,0,1-.8,3.6,6.35,6.35,0,0,1-1.85,2.3,3.76,3.76,0,0,1-1.29.74,8.09,8.09,0,0,1-1.78.25h-.68a8.39,8.39,0,0,1-1.11-.06,4.37,4.37,0,0,1-1.23-.43,8.75,8.75,0,0,1-3.38-3.76,13.1,13.1,0,0,1-.62-4.86A108.83,108.83,0,0,1,418,971.81q1.11-7.81,3.6-18.18t5.63-20.09q7.5-23.07,15.75-26.89a6,6,0,0,1,1.81-.67,15.85,15.85,0,0,1,2.43-.13,10.55,10.55,0,0,1,3.63.53,9.26,9.26,0,0,1,3,1.93,13.46,13.46,0,0,1,3.29,4.5,34.85,34.85,0,0,1,2.24,8.06q1,5.34,2.16,15Q465.6,969.52,470,982A25.28,25.28,0,0,1,470.9,984.91Zm-20-21.72a4.24,4.24,0,0,0-.07-.67c0-.54-.13-1.28-.27-2.25s-.34-2.28-.59-4q-.5-3-1.1-7.6c-.42-3.05-.78-5.89-1.11-8.52a93.23,93.23,0,0,0-1.6-10,1.26,1.26,0,0,0-1.11-.8h-.12a2.06,2.06,0,0,0-1.42,1q-1.11,1.85-3.54,9.75t-4.76,17.14a39.33,39.33,0,0,0-1.48,8.12,2.85,2.85,0,0,0,.18,1.17,2.63,2.63,0,0,0,.5.46,5.29,5.29,0,0,0,.86.52,3.11,3.11,0,0,0,.8.31l1.78-.25c1.19-.12,2.63-.28,4.31-.49s3.24-.47,4.55-.68a17,17,0,0,0,2.46-.49,2.61,2.61,0,0,0,1.42-1.54,2.73,2.73,0,0,0,.24-.67A3.05,3.05,0,0,0,450.91,963.19Zm72,8.68a5.7,5.7,0,0,0-.8.06A13.22,13.22,0,0,0,518,973q-2.52,1-8.37,3.75c-1.44.7-2.82,1.33-4.15,1.91s-2.29,1-2.86,1.16a9.12,9.12,0,0,1-2.9.5l-1,0a3.24,3.24,0,0,1-1.78-.71c-1.32-1-2.36-3.18-3.14-6.46a24.67,24.67,0,0,1-.4-2.52c-.1-.91-.17-2.3-.19-4.19s0-4.82,0-8.8q0-13,.56-19.25.61-8.61,1.17-16.06t.67-9.84c0-.78.06-1.4.06-1.85a5,5,0,0,0-.12-1.17,4,4,0,0,0-.43-1,5.66,5.66,0,0,0-2.83-2.71,5.54,5.54,0,0,0-2.4-.55,5.93,5.93,0,0,0-1.41.18q-4.19,1.23-5.42,6.34c-.16.73-.45,2.48-.86,5.23s-.82,5.64-1.23,8.67-.7,5.35-.86,7q-.44,3.76-.77,10.09t-.46,12.25q-.06,2.58-.06,5,0,14,2.46,20.86,4.24,12.42,15.13,14a20.64,20.64,0,0,0,2.22.12,24.7,24.7,0,0,0,5.72-.73,25.18,25.18,0,0,0,4.31-1.33c1.47-.59,3.67-1.59,6.58-3l4.27-2,3.48-1.63a22.5,22.5,0,0,0,3.75-2,5.94,5.94,0,0,0,1.79-2,7.64,7.64,0,0,0,1-3.57,6.79,6.79,0,0,0-1.72-4.37A6,6,0,0,0,522.89,971.87Zm67.18,13a7.43,7.43,0,0,1,.19,1.42,2.29,2.29,0,0,1-.07.55q-1,5.65-6.46,5.91a7.2,7.2,0,0,1-5.1-2,10,10,0,0,1-1.91-2.31,19.31,19.31,0,0,1-1.6-3.66,10.36,10.36,0,0,0-1.63-3.17,3.11,3.11,0,0,0-2.12-1.08,6.35,6.35,0,0,0-1-.06c-.78,0-1.86,0-3.26.12-2.3.13-4.75.28-7.35.47s-4.56.36-5.88.52a6,6,0,0,0-3.78,1.41c-.68.74-1.1,2.14-1.26,4.19a10.74,10.74,0,0,1-.8,3.6,6.35,6.35,0,0,1-1.85,2.3,3.76,3.76,0,0,1-1.29.74,8.09,8.09,0,0,1-1.78.25h-.68a8.39,8.39,0,0,1-1.11-.06,4.37,4.37,0,0,1-1.23-.43,8.75,8.75,0,0,1-3.38-3.76,13.1,13.1,0,0,1-.62-4.86,108.83,108.83,0,0,1,1.11-13.16q1.11-7.81,3.6-18.18t5.63-20.09q7.5-23.07,15.75-26.89A6,6,0,0,1,564,906a15.85,15.85,0,0,1,2.43-.13,10.55,10.55,0,0,1,3.63.53,9.26,9.26,0,0,1,3,1.93,13.46,13.46,0,0,1,3.29,4.5,34.85,34.85,0,0,1,2.24,8.06q1,5.34,2.16,15,4.13,33.64,8.49,46.14A25.28,25.28,0,0,1,590.07,984.91Zm-20-21.72a3.32,3.32,0,0,0-.07-.67c0-.54-.13-1.28-.27-2.25s-.34-2.28-.59-4c-.33-2-.69-4.54-1.1-7.6s-.78-5.89-1.11-8.52a90.41,90.41,0,0,0-1.6-10,1.26,1.26,0,0,0-1.11-.8h-.12a2.06,2.06,0,0,0-1.42,1q-1.1,1.85-3.53,9.75t-4.77,17.14a39.33,39.33,0,0,0-1.48,8.12,2.67,2.67,0,0,0,.19,1.17,2.23,2.23,0,0,0,.49.46,5.29,5.29,0,0,0,.86.52,3.11,3.11,0,0,0,.8.31l1.78-.25c1.19-.12,2.63-.28,4.31-.49s3.24-.47,4.55-.68a17,17,0,0,0,2.46-.49,2.61,2.61,0,0,0,1.42-1.54,2.73,2.73,0,0,0,.24-.67A2.38,2.38,0,0,0,570.08,963.19Zm43.8,1.79q-.37-7.08-.55-15.81-.14-5.79-.37-13.66c-.08-4.27-.17-8.08-.25-11.45q-.18-5.59-.34-9.59t-.27-4.56a6.2,6.2,0,0,0-2.65-3.13,5.55,5.55,0,0,0-3-.87,5,5,0,0,0-1,.13q-4.12,1-5.41,5.66a79.32,79.32,0,0,0-.8,11.5q-.18,7.26-.19,15.81,0,2.16,0,8.8t.47,15.2q.36,5.91.92,13c.37,4.76.65,8.06.86,9.91.49,3.85,2,6.36,4.55,7.5a7.56,7.56,0,0,0,2.59.49h.37a6.05,6.05,0,0,0,2.21-.36,7.3,7.3,0,0,0,3.45-3.2,7.6,7.6,0,0,0,.73-3.51v-1.17c0-1.48-.1-3.44-.3-5.91C614.48,974.64,614.13,969.69,613.88,965Zm56.48-3.82a27.85,27.85,0,0,0-7.32-7.87,109,109,0,0,0-14.46-8.68c-3.08-1.64-5.42-2.91-7-3.81a26.08,26.08,0,0,1-3.45-2.18,4.74,4.74,0,0,1-1.38-1.64,3.19,3.19,0,0,1-.5-1.72q0-3.25,6.09-8.18,7.58-6.21,13.23-7.08l1.66-.27c.58-.11,1-.2,1.3-.28a5.91,5.91,0,0,0,4-4,5.24,5.24,0,0,0,.25-1.6,6.37,6.37,0,0,0-1.48-3.94,8.51,8.51,0,0,0-6.7-2.76,20.22,20.22,0,0,0-6.15,1.1,56,56,0,0,0-6.34,2.77c-2.46,1.23-4.58,2.4-6.34,3.51a42.44,42.44,0,0,0-7.47,6.49,29.21,29.21,0,0,0-5.08,7.29,19.27,19.27,0,0,0-1.72,7.63q0,6.82,6.21,12.49a32.1,32.1,0,0,0,2.92,2.24q1.57,1.08,4.83,2.86t9.66,5.17a57.09,57.09,0,0,1,10.25,6.59c2.15,1.88,3.35,3.71,3.6,5.47a3.57,3.57,0,0,1,0,1.45,8.83,8.83,0,0,1-.53,1.44q-1.59,3-6.09,5.51a28.93,28.93,0,0,1-9.66,3.41q-6.27.93-7.2,5.36a7.7,7.7,0,0,0-.12,1.35,7.44,7.44,0,0,0,1,3.54,7.05,7.05,0,0,0,3.35,3,11.22,11.22,0,0,0,4,.68q5.42,0,13.47-3.88,13-6.71,15.81-16.79a12,12,0,0,0,.31-2.22c0-.53.06-1.13.06-1.78V970.7a18,18,0,0,0-.74-5A19.13,19.13,0,0,0,670.36,961.16Z" transform="translate(-3.45 -0.18)"/></g></svg>