<?xml version="1.0" encoding="utf-8"?>
<!-- Generator: Adobe Illustrator 26.0.1, SVG Export Plug-In . SVG Version: 6.00 Build 0)  -->
<svg version="1.1" xmlns="http://www.w3.org/2000/svg" xmlns:xlink="http://www.w3.org/1999/xlink" x="0px" y="0px"
	 viewBox="0 0 1000 1000" style="enable-background:new 0 0 1000 1000;" xml:space="preserve">
<style type="text/css">
	.st0{display:none;}
	.st1{display:inline;fill:#326145;}
	.st2{font-family:'BubbleRainbow';}
	.st3{font-size:180px;}
	.st4{display:inline;fill:#3E4640;}
	.st5{fill:#A94740;}
	.st6{fill:#3E4640;}
</style>
<g id="Layer_1" class="st0">
	<text transform="matrix(0.583 0 0 0.583 189.9198 328.3105)" class="st1 st2 st3">L’A</text>
	<text transform="matrix(0.4081 0 0 0.4081 322.6317 328.3105)" class="st1 st2 st3">muse</text>
	<text transform="matrix(0.583 0 0 0.583 477.1161 328.3105)" class="st1 st2 st3">-B</text>
	<text transform="matrix(0.4081 0 0 0.4081 580.16 328.3105)" class="st1 st2 st3">ar</text>
	<text transform="matrix(0.583 0 0 0.583 649.0634 328.3105)" class="st1 st2 st3">,</text>
	<text transform="matrix(0.583 0 0 0.583 671.8134 328.3105)" class="st4 st2 st3"> </text>
	<text transform="matrix(0.4081 0 0 0.4081 189.9198 408.31)" class="st4 st2 st3">c</text>
	<text transform="matrix(0.583 0 0 0.583 220.2645 408.31)" class="st4 st2 st3">’</text>
	<text transform="matrix(0.4081 0 0 0.4081 256.286 408.31)" class="st4 st2 st3">est</text>
	<text transform="matrix(0.583 0 0 0.583 348.8973 408.31)" class="st4 st2 st3"> </text>
	<text transform="matrix(0.4081 0 0 0.4081 384.7655 408.31)" class="st4 st2 st3">plus</text>
	<text transform="matrix(0.583 0 0 0.583 522.4276 408.31)" class="st4 st2 st3"> </text>
	<text transform="matrix(0.4081 0 0 0.4081 558.2958 408.31)" class="st4 st2 st3">qu</text>
	<text transform="matrix(0.583 0 0 0.583 636.4169 408.31)" class="st4 st2 st3">’</text>
	<text transform="matrix(0.4081 0 0 0.4081 672.4384 408.31)" class="st4 st2 st3">un</text>
	<text transform="matrix(0.583 0 0 0.583 750.452 408.31)" class="st4 st2 st3"> </text>
	<text transform="matrix(0.4081 0 0 0.4081 189.9198 488.31)" class="st4 st2 st3">bar</text>
	<text transform="matrix(0.583 0 0 0.583 295.91 488.31)" class="st4 st2 st3">, </text>
	<text transform="matrix(0.4081 0 0 0.4081 354.5292 488.31)" class="st4 st2 st3">c</text>
	<text transform="matrix(0.583 0 0 0.583 384.8739 488.31)" class="st4 st2 st3">’</text>
	<text transform="matrix(0.4081 0 0 0.4081 420.8954 488.31)" class="st4 st2 st3">est</text>
	<text transform="matrix(0.583 0 0 0.583 513.5067 488.31)" class="st4 st2 st3"> </text>
	<text transform="matrix(0.4081 0 0 0.4081 549.3749 488.31)" class="st4 st2 st3">un</text>
	<text transform="matrix(0.583 0 0 0.583 627.3876 488.31)" class="st4 st2 st3"> </text>
	<text transform="matrix(0.4081 0 0 0.4081 663.2557 488.31)" class="st4 st2 st3">lieu</text>
	<text transform="matrix(0.583 0 0 0.583 783.6649 488.31)" class="st4 st2 st3"> </text>
	<text transform="matrix(0.4081 0 0 0.4081 189.9198 568.31)" class="st4 st2 st3">de</text>
	<text transform="matrix(0.583 0 0 0.583 261.7635 568.31)" class="st4 st2 st3"> </text>
	<text transform="matrix(0.4081 0 0 0.4081 297.6317 568.31)" class="st4 st2 st3">decouverte</text>
	<text transform="matrix(0.583 0 0 0.583 641.9305 568.31)" class="st4 st2 st3">, </text>
	<text transform="matrix(0.4081 0 0 0.4081 700.5497 568.31)" class="st4 st2 st3">de</text>
	<text transform="matrix(0.583 0 0 0.583 772.3934 568.31)" class="st4 st2 st3"> </text>
	<text transform="matrix(0.4081 0 0 0.4081 189.9198 648.31)" class="st4 st2 st3">rencontre</text>
	<text transform="matrix(0.583 0 0 0.583 501.7938 648.31)" class="st4 st2 st3"> </text>
	<text transform="matrix(0.4081 0 0 0.4081 537.662 648.31)" class="st4 st2 st3">ludique</text>
	<text transform="matrix(0.583 0 0 0.583 775.9696 648.31)" class="st4 st2 st3"> </text>
	<text transform="matrix(0.4081 0 0 0.4081 189.9198 728.31)" class="st4 st2 st3">et</text>
	<text transform="matrix(0.583 0 0 0.583 251.2548 728.31)" class="st4 st2 st3"> </text>
	<text transform="matrix(0.4081 0 0 0.4081 287.1229 728.31)" class="st4 st2 st3">d</text>
	<text transform="matrix(0.583 0 0 0.583 326.9003 728.31)" class="st4 st2 st3">’</text>
	<text transform="matrix(0.4081 0 0 0.4081 362.9218 728.31)" class="st4 st2 st3">evasion</text>
	<text transform="matrix(0.583 0 0 0.583 594.953 728.31)" class="st4 st2 st3">.</text>
</g>
<g id="Magasin">
	<g>
		<path class="st5" d="M237.17,357.14c-1.37-3.83-2.05-9.62-2.05-17.37c0-1.33,0.02-2.72,0.05-4.15c0.07-3.28,0.2-6.68,0.38-10.2
			c0.19-3.52,0.4-6.32,0.64-8.4c0.14-1.33,0.38-3.26,0.72-5.79c0.34-2.53,0.68-4.94,1.02-7.23c0.34-2.29,0.58-3.74,0.72-4.36
			c0.68-2.83,2.19-4.59,4.51-5.28c0.41-0.1,0.8-0.15,1.18-0.15c0.68,0,1.35,0.15,2,0.46c1.06,0.48,1.84,1.23,2.36,2.25
			c0.17,0.31,0.29,0.6,0.36,0.87s0.1,0.6,0.1,0.97c0,0.38-0.02,0.89-0.05,1.54c-0.07,1.33-0.26,4.07-0.56,8.2
			c-0.31,4.13-0.63,8.59-0.97,13.37c-0.31,3.45-0.46,8.8-0.46,16.04c0,3.31,0.01,5.76,0.03,7.33c0.02,1.57,0.07,2.73,0.15,3.48
			c0.08,0.75,0.2,1.45,0.33,2.1c0.65,2.73,1.52,4.53,2.61,5.38c0.51,0.38,1.01,0.57,1.49,0.59c0.48,0.02,0.75,0.03,0.82,0.03
			c0.79,0,1.59-0.14,2.41-0.41c0.48-0.17,1.27-0.49,2.38-0.97c1.11-0.48,2.26-1.01,3.46-1.59c3.25-1.54,5.57-2.58,6.97-3.13
			c1.4-0.55,2.53-0.84,3.38-0.87c0.24-0.03,0.46-0.05,0.67-0.05c1.74,0,3.11,0.61,4.1,1.84c0.96,1.16,1.43,2.38,1.43,3.64
			c0,0.96-0.27,1.95-0.82,2.97c-0.34,0.65-0.84,1.21-1.49,1.69c-0.65,0.48-1.69,1.04-3.13,1.69c-0.72,0.34-1.68,0.79-2.89,1.36
			c-1.21,0.56-2.4,1.12-3.56,1.67c-2.43,1.16-4.25,1.99-5.48,2.49c-1.23,0.5-2.43,0.86-3.59,1.1c-1.71,0.41-3.3,0.61-4.77,0.61
			c-0.62,0-1.23-0.03-1.84-0.1C243.73,367.92,239.52,364.04,237.17,357.14z M285.84,318.15c0.44,0.17,0.99,0.26,1.64,0.26
			c0.1,0,0.38-0.02,0.82-0.05c0.44-0.03,0.94-0.17,1.49-0.41c0.34-0.17,1.24-0.81,2.69-1.92c1.45-1.11,3.12-2.41,5-3.89
			c1.88-1.49,3.61-2.88,5.2-4.18c1.59-1.3,2.67-2.22,3.25-2.77c1.64-1.64,2.46-3.3,2.46-4.97c0-1.61-0.5-2.9-1.49-3.87
			c-0.99-0.97-2.29-1.48-3.89-1.51c-1.88,0-3.69,0.79-5.43,2.36c-0.92,0.72-2.38,1.99-4.38,3.82c-2,1.83-3.9,3.6-5.71,5.33
			c-1.81,1.73-2.9,2.79-3.28,3.2c-0.41,0.61-0.78,1.32-1.1,2.1c-0.32,0.79-0.49,1.45-0.49,2c0,0.85,0.32,1.73,0.95,2.61
			C284.2,317.14,284.96,317.77,285.84,318.15z M342.06,357.09c-1.91,0.1-3.95,0.23-6.12,0.38c-2.17,0.15-3.8,0.3-4.89,0.44
			c-1.54,0.17-2.59,0.56-3.15,1.18s-0.91,1.78-1.05,3.48c-0.1,1.26-0.33,2.26-0.67,3c-0.34,0.73-0.85,1.38-1.54,1.92
			c-0.38,0.31-0.74,0.51-1.08,0.61c-0.34,0.1-0.84,0.17-1.49,0.21h-0.56c-0.38,0-0.68-0.02-0.92-0.05
			c-0.38-0.07-0.72-0.19-1.03-0.36c-0.55-0.31-1.08-0.75-1.61-1.33c-0.53-0.58-0.93-1.18-1.2-1.79c-0.34-0.75-0.51-2.1-0.51-4.05
			c0-2.6,0.31-6.25,0.92-10.97c0.62-4.34,1.61-9.39,3-15.14c1.38-5.76,2.95-11.33,4.69-16.73c4.17-12.81,8.54-20.27,13.12-22.39
			c0.58-0.31,1.08-0.49,1.51-0.56c0.43-0.07,1.1-0.1,2.02-0.1c1.23,0,2.24,0.15,3.02,0.44c0.79,0.29,1.61,0.83,2.46,1.61
			c1.13,0.99,2.04,2.24,2.74,3.74c0.7,1.5,1.32,3.74,1.87,6.71c0.55,2.97,1.14,7.14,1.79,12.5c2.29,18.69,4.64,31.5,7.07,38.43
			c0.41,1.13,0.67,1.93,0.77,2.41c0.1,0.48,0.15,0.87,0.15,1.18c0,0.17-0.02,0.32-0.05,0.46c-0.55,3.14-2.34,4.78-5.38,4.92
			c-1.64,0-3.06-0.56-4.25-1.69c-0.61-0.55-1.14-1.19-1.59-1.92c-0.44-0.73-0.89-1.75-1.33-3.05c-0.44-1.23-0.9-2.11-1.36-2.64
			c-0.46-0.53-1.05-0.83-1.77-0.9c-0.17-0.03-0.46-0.05-0.87-0.05C344.12,356.99,343.22,357.02,342.06,357.09z M341.08,345.3
			c1.09-0.17,1.78-0.31,2.05-0.41c0.55-0.24,0.94-0.67,1.18-1.28c0.1-0.21,0.17-0.39,0.21-0.56s0.05-0.32,0.05-0.46
			c0-0.17-0.02-0.36-0.05-0.56c-0.03-0.44-0.11-1.07-0.23-1.87c-0.12-0.8-0.28-1.9-0.49-3.3c-0.27-1.67-0.58-3.78-0.92-6.33
			c-0.34-2.54-0.65-4.91-0.92-7.1c-0.65-4.92-1.09-7.7-1.33-8.35c-0.24-0.44-0.55-0.67-0.92-0.67h-0.1
			c-0.41,0.03-0.8,0.33-1.18,0.87c-0.61,1.02-1.6,3.73-2.95,8.12c-1.35,4.39-2.67,9.15-3.97,14.27c-0.82,3.25-1.23,5.5-1.23,6.76
			c0,0.44,0.05,0.77,0.15,0.97c0.07,0.1,0.21,0.23,0.41,0.38s0.44,0.3,0.72,0.44c0.27,0.14,0.5,0.22,0.67,0.26l1.49-0.21
			c0.99-0.1,2.19-0.24,3.59-0.41C338.72,345.66,339.99,345.48,341.08,345.3z M367.16,362.25c0.33,1.77,0.72,3.1,1.15,3.98
			c0.43,0.89,1,1.53,1.72,1.94c0.72,0.38,1.41,0.57,2.08,0.57c0.93,0,1.78-0.39,2.55-1.18c0.55-0.6,0.82-1.35,0.82-2.26
			c0-0.38-0.05-0.79-0.14-1.22c-0.24-1.08-0.41-1.91-0.5-2.49s-0.18-1.37-0.25-2.35c-0.1-1-0.16-2.58-0.18-4.73v-3.19
			c0-1.08,0-2.41,0.02-4c0.01-1.59,0.07-2.89,0.16-3.89c0.05-0.62,0.12-1.38,0.22-2.28c0.09-0.9,0.19-1.73,0.29-2.49
			c0.53-3.99,1.14-6.84,1.83-8.54c0.45-1.1,0.91-1.65,1.36-1.65c0.24,0,0.49,0.17,0.75,0.5c0.14,0.17,0.3,0.57,0.47,1.22
			c0.17,0.65,0.38,1.77,0.65,3.37c0.26,1.6,0.61,3.9,1.04,6.9c0.43,3,0.98,6.94,1.65,11.82c0.17,1.32,0.32,2.32,0.47,3.01
			c0.14,0.69,0.32,1.23,0.54,1.6c0.22,0.37,0.49,0.74,0.83,1.09c0.33,0.33,0.63,0.58,0.9,0.74c0.26,0.16,0.56,0.27,0.9,0.34
			s0.66,0.11,0.97,0.11c0.72,0,1.48-0.22,2.28-0.65c0.8-0.43,1.46-1.2,1.99-2.3c0.12-0.26,0.27-0.69,0.45-1.27s0.34-1.19,0.48-1.81
			c2.06-9.13,4.39-16.32,6.99-21.56c0.57-1.12,1.03-1.98,1.36-2.56c0.33-0.59,0.61-0.97,0.83-1.17c0.21-0.19,0.45-0.29,0.72-0.29
			c0.19,0,0.34,0.04,0.45,0.13c0.11,0.08,0.21,0.26,0.3,0.52c0.07,0.17,0.13,0.44,0.16,0.82c0.04,0.38,0.05,1.05,0.05,2.01
			c0,0.93-0.01,2.31-0.04,4.12c-0.1,5.74-0.17,10.1-0.21,13.09c-0.02,1.98-0.04,3.62-0.04,4.91c0,0.67,0.01,1.48,0.02,2.44
			c0.01,0.96,0.04,2,0.09,3.12c0.14,3.08,0.33,5.25,0.57,6.49c0.24,1.24,0.62,2.15,1.15,2.73c0.14,0.17,0.33,0.35,0.57,0.54
			c0.24,0.19,0.47,0.33,0.68,0.43c0.55,0.26,1.1,0.39,1.65,0.39c0.36,0,0.87-0.1,1.54-0.31c0.67-0.2,1.27-0.72,1.79-1.56
			c0.33-0.55,0.55-1.14,0.65-1.76c0.02-0.22,0.04-0.48,0.04-0.79c0-0.5-0.04-1.1-0.11-1.79c-0.29-3.23-0.43-7.03-0.43-11.41
			c0-2.3,0.04-4.75,0.11-7.35c0.17-4.59,0.25-8.37,0.25-11.33c0-1.48-0.04-3.31-0.12-5.47c-0.08-2.16-0.39-4.01-0.92-5.54
			c-0.98-2.92-2.54-4.81-4.66-5.67c-0.77-0.31-1.53-0.47-2.29-0.47c-1.39,0-2.8,0.5-4.23,1.51c-2.63,2.13-5.38,6.28-8.25,12.45
			c-0.57,1.29-1.02,2.16-1.33,2.62c-0.26,0.36-0.5,0.54-0.72,0.54c-0.07,0-0.13-0.01-0.18-0.04c-0.14-0.02-0.26-0.08-0.34-0.18
			c-0.08-0.1-0.17-0.26-0.25-0.5c-0.08-0.24-0.19-0.59-0.31-1.06c-0.12-0.47-0.26-1.11-0.43-1.92c-0.55-2.77-1.17-4.94-1.85-6.49
			c-0.68-1.55-1.55-2.8-2.6-3.73c-0.53-0.5-1.02-0.89-1.47-1.17s-0.97-0.48-1.54-0.63s-1.09-0.21-1.54-0.21c-0.05,0-0.21,0-0.48,0
			c-0.28,0-0.72,0.11-1.34,0.32c-2.08,0.67-3.93,2.36-5.54,5.06c-1.61,2.7-2.85,6.16-3.71,10.37c-1,5.02-1.51,10.69-1.51,17
			c0,2.82,0.07,5.06,0.2,6.71C366.48,358.16,366.75,360.07,367.16,362.25z M422.18,358.81c1.03,3.37,2.55,6.01,4.56,7.93
			c2.03,2.01,4.27,3.29,6.71,3.84c0.65,0.12,1.27,0.18,1.87,0.18c2.73,0,5.31-1.18,7.75-3.55c2.18-2.06,3.85-5.4,5.02-10.04
			c1-3.8,1.72-9.24,2.15-16.32c0.1-1.72,0.17-4.08,0.21-7.07c0.05-2.99,0.07-5.8,0.07-8.43c0-2.63-0.04-4.27-0.11-4.91
			c-0.24-1.51-0.86-2.61-1.87-3.3c-0.31-0.24-0.59-0.38-0.83-0.43c-0.24-0.05-0.65-0.07-1.22-0.07c-0.6,0-1.02,0.03-1.27,0.09
			s-0.54,0.2-0.88,0.41c-1.1,0.67-1.76,1.84-1.97,3.52c-0.05,0.38-0.08,1.36-0.11,2.92c-0.02,1.57-0.04,3.28-0.04,5.15
			c-0.05,22.29-2.42,33.43-7.1,33.43c-0.98,0-1.96-0.56-2.94-1.69s-1.72-2.56-2.22-4.3c-1.39-4.59-2.18-12.78-2.37-24.57
			c-0.05-2.37-0.1-4.42-0.16-6.17c-0.06-1.75-0.1-2.77-0.13-3.08c-0.17-1.72-0.9-2.87-2.19-3.44c-0.48-0.22-0.95-0.32-1.4-0.32
			s-1.01,0.16-1.67,0.48c-0.66,0.32-1.2,1.01-1.63,2.06c-0.1,0.24-0.18,0.57-0.25,1c-0.07,0.43-0.14,1.09-0.2,1.99
			s-0.14,2.15-0.23,3.75c-0.17,2.77-0.25,5.43-0.25,7.96c0,2.99,0.12,5.81,0.36,8.46C420.37,350.59,421.15,355.43,422.18,358.81z
			 M458.66,341.7c0.53,0.45,1.09,0.89,1.7,1.31c0.61,0.42,1.55,0.97,2.82,1.67c1.27,0.69,3.14,1.7,5.63,3.01
			c2.73,1.46,4.72,2.74,5.97,3.84c1.25,1.1,1.95,2.16,2.1,3.19c0.02,0.14,0.04,0.28,0.04,0.39c0,0.12-0.02,0.27-0.05,0.45
			c-0.04,0.18-0.14,0.46-0.3,0.84c-0.62,1.15-1.81,2.22-3.55,3.21c-1.75,0.99-3.62,1.66-5.63,1.99c-2.44,0.36-3.84,1.4-4.2,3.12
			c-0.05,0.26-0.07,0.53-0.07,0.79c0,0.65,0.2,1.33,0.59,2.06c0.4,0.73,1.05,1.31,1.96,1.74c0.69,0.26,1.47,0.39,2.33,0.39
			c2.1,0,4.72-0.75,7.85-2.26c5.04-2.61,8.12-5.87,9.22-9.79c0.09-0.41,0.16-0.84,0.18-1.29c0.02-0.31,0.04-0.66,0.04-1.04v-0.65
			c-0.02-1.08-0.17-2.04-0.43-2.89s-0.69-1.74-1.29-2.67c-0.98-1.65-2.4-3.18-4.27-4.59c-1.87-1.41-4.67-3.1-8.43-5.06
			c-1.79-0.96-3.16-1.7-4.11-2.22c-0.94-0.53-1.61-0.95-2.01-1.27c-0.39-0.32-0.66-0.64-0.81-0.95c-0.19-0.31-0.29-0.65-0.29-1
			c0-1.27,1.18-2.86,3.55-4.77c2.94-2.42,5.51-3.79,7.71-4.12c0.31-0.05,0.63-0.1,0.97-0.16c0.33-0.06,0.59-0.11,0.75-0.16
			c1.22-0.43,2-1.21,2.33-2.33c0.09-0.31,0.14-0.62,0.14-0.93c0-0.79-0.29-1.55-0.86-2.3c-0.96-1.08-2.26-1.61-3.91-1.61
			c-1.05,0-2.25,0.22-3.59,0.65c-1.03,0.36-2.26,0.9-3.69,1.61c-1.44,0.72-2.67,1.4-3.69,2.04c-1.58,1.08-3.03,2.34-4.36,3.78
			s-2.31,2.86-2.96,4.25c-0.67,1.55-1,3.04-1,4.45C455.03,337.07,456.24,339.5,458.66,341.7z M499.55,369.49
			c0.74,0.17,1.49,0.25,2.26,0.25c1.96,0,4.07-0.51,6.31-1.54c0.65-0.33,1.57-0.88,2.78-1.65c1.21-0.77,2.37-1.54,3.5-2.31
			s1.9-1.36,2.33-1.74c0.88-0.81,1.33-1.78,1.33-2.91c0-0.14-0.01-0.29-0.04-0.43c-0.07-1.41-0.75-2.43-2.04-3.05
			c-0.36-0.21-0.67-0.35-0.93-0.39c-0.17-0.05-0.36-0.07-0.57-0.07c-0.17,0-0.35,0.01-0.54,0.04c-0.46,0-0.9,0.08-1.33,0.23
			c-0.43,0.16-0.99,0.44-1.69,0.84c-0.69,0.41-1.65,1.02-2.87,1.83c-0.84,0.55-1.62,1.05-2.35,1.49c-0.73,0.44-1.25,0.72-1.56,0.84
			c-0.53,0.21-1,0.32-1.43,0.32c-0.57,0-1.14-0.26-1.7-0.79c-0.56-0.53-1.03-1.77-1.42-3.73c-0.1-0.41-0.16-0.72-0.18-0.93v-0.32
			c0-0.1,0-0.2,0.02-0.3c0.01-0.11,0.05-0.25,0.12-0.41c0.07-0.17,0.17-0.33,0.31-0.5c0.13-0.17,0.26-0.3,0.38-0.39
			c0.14-0.07,0.48-0.17,1-0.3c0.53-0.13,1.11-0.27,1.76-0.41c2.46-0.43,4.23-0.76,5.29-1c1.06-0.24,1.8-0.45,2.21-0.65
			c1.91-0.93,2.87-2.21,2.87-3.84c0-0.33-0.05-0.69-0.14-1.08c-0.31-1.03-0.99-1.82-2.04-2.37c-0.43-0.26-1-0.39-1.72-0.39
			c-0.14,0-0.5,0.03-1.08,0.09c-0.57,0.06-1.88,0.34-3.91,0.84c-1.36,0.33-2.4,0.56-3.12,0.68c-0.55,0.1-0.99,0.14-1.33,0.14
			c-0.1,0-0.25-0.01-0.47-0.04c-0.21-0.02-0.41-0.14-0.57-0.36c-0.14-0.14-0.25-0.29-0.3-0.43c-0.06-0.14-0.1-0.36-0.13-0.65
			c-0.02-0.29-0.05-0.72-0.07-1.29v-0.9c0-0.72,0.01-1.81,0.04-3.26c0.02-1.46,0.07-3.18,0.13-5.17c0.06-1.98,0.12-3.72,0.18-5.22
			c0.06-1.49,0.13-2.37,0.2-2.64c0.19-0.72,0.74-1.21,1.65-1.47c0.19-0.05,0.7-0.11,1.52-0.18s1.76-0.13,2.82-0.18
			c2.1-0.1,3.72-0.18,4.86-0.25c1.14-0.07,1.97-0.16,2.49-0.25c0.53-0.1,0.93-0.2,1.22-0.32c1.32-0.65,2.1-1.59,2.37-2.83
			c0.05-0.24,0.07-0.48,0.07-0.72c0-1-0.39-1.92-1.18-2.76c-0.5-0.53-1.08-0.87-1.72-1.04c-0.57-0.14-1.47-0.22-2.69-0.22h-0.54
			c-1.27,0-2.7,0.08-4.3,0.25c-1.6,0.17-3.65,0.44-6.13,0.82c-1.51,0.24-2.67,0.45-3.48,0.63c-0.81,0.18-1.43,0.38-1.85,0.61
			c-0.42,0.23-0.81,0.53-1.17,0.92c-0.38,0.36-0.68,0.81-0.9,1.36c-0.21,0.55-0.41,1.43-0.57,2.65s-0.36,2.99-0.57,5.31
			c-0.5,5.48-0.75,10.49-0.75,15.03c0,4.95,0.3,9.36,0.9,13.24C492.34,363.92,495.17,368.35,499.55,369.49z M525.57,349.51
			c0.44,0.41,0.94,0.71,1.49,0.9c0.55,0.19,1.38,0.33,2.51,0.44c1.13,0.1,2.8,0.19,5.02,0.26c1.84,0.07,3.82,0.15,5.92,0.23
			c2.1,0.09,3.87,0.16,5.3,0.23c2.87,0.14,5.28,0.2,7.22,0.2c0.75,0,1.81-0.02,3.18-0.05c1.37-0.03,2.55-0.23,3.56-0.59
			c1.01-0.36,1.84-0.93,2.49-1.72c0.92-1.13,1.38-2.31,1.38-3.54c0-0.48-0.16-1.28-0.49-2.41c-0.33-1.13-1.48-2.13-3.46-3.02
			c-0.21-0.1-0.51-0.18-0.92-0.23c-0.41-0.05-1.05-0.09-1.92-0.13c-0.87-0.03-2.12-0.05-3.74-0.05c-1.62,0-3.78,0-6.48,0
			c-5.4,0-9.51,0.05-12.35,0.15c-2.84,0.1-4.87,0.32-6.1,0.64c-1.23,0.32-2.15,0.81-2.77,1.46c-1.06,1.02-1.59,2.22-1.59,3.59
			c0,0.03,0.01,0.41,0.03,1.13C523.87,347.71,524.44,348.55,525.57,349.51z M574.29,318.38c-0.07-2.65-0.1-5.53-0.1-8.63
			s0.03-5.47,0.08-7.07c0.05-1.61,0.14-2.79,0.28-3.56c0.14-0.77,0.34-1.43,0.62-1.97c0.48-1.09,1.31-1.9,2.49-2.41
			c1.18-0.51,3.18-0.96,6.02-1.33c3.96-0.55,7.45-0.82,10.45-0.82c1.81,0,3.45,0.1,4.92,0.31c2.46,0.44,4.94,1.18,7.46,2.2
			s4.64,2.19,6.38,3.48c3.45,2.66,5.67,5.93,6.66,9.79c0.24,1.09,0.36,2.48,0.36,4.15c0,1.67-0.1,3.09-0.31,4.25
			c-0.27,1.2-0.57,2.25-0.9,3.18c-0.33,0.92-0.81,2.05-1.46,3.38c-1.33,2.77-3.59,5.93-6.76,9.48c-0.68,0.79-1.27,1.5-1.77,2.15
			c-0.5,0.65-0.78,1.06-0.84,1.23c-0.07,0.17-0.1,0.36-0.1,0.56c0,0.31,0.1,0.63,0.31,0.97c0.31,0.48,0.99,1.18,2.05,2.1
			c0.58,0.58,1.14,1.15,1.67,1.72c0.53,0.56,0.91,1.02,1.15,1.36c1.09,1.84,1.64,3.91,1.64,6.2c0,0.75-0.05,1.52-0.15,2.31
			c-0.48,3.21-1.86,6.35-4.15,9.43c-3.96,5.02-10.08,8.16-18.34,9.43c-1.3,0.17-2.29,0.26-2.97,0.26s-1.14,0-1.38,0
			c-1.02,0-2.19-0.05-3.48-0.15c-1.3-0.1-2.29-0.27-2.97-0.51c-0.68-0.24-1.3-0.61-1.84-1.13c-0.58-0.48-1.05-1.04-1.41-1.69
			c-0.36-0.65-0.65-1.67-0.87-3.07c-0.22-1.4-0.44-3.49-0.64-6.28c-0.21-2.78-0.44-6.55-0.72-11.3c-0.41-7.51-0.72-13.4-0.92-17.65
			C574.5,324.47,574.36,321.02,574.29,318.38z M602.17,350.48c0-1.06-0.61-1.81-1.84-2.25c-0.58-0.21-1.61-0.31-3.08-0.31
			c-1.43,0-2.88,0.09-4.33,0.28c-1.45,0.19-2.5,0.42-3.15,0.69c-0.75,0.34-1.25,0.81-1.49,1.41c-0.24,0.6-0.36,1.6-0.36,3
			c0,1.5,0.1,2.59,0.31,3.25c0.2,0.67,0.58,1.14,1.13,1.41c0.44,0.31,0.92,0.46,1.43,0.46s1.35-0.15,2.51-0.46
			c2.56-0.68,4.68-1.73,6.35-3.15C601.33,353.39,602.17,351.95,602.17,350.48z M585.31,307.64c0,0.89,0.07,2.2,0.21,3.95
			c0.1,1.37,0.21,3.19,0.33,5.46c0.12,2.27,0.25,4.48,0.38,6.64c0.1,2.08,0.21,3.93,0.31,5.53c0.1,1.61,0.17,2.6,0.21,2.97
			c0.17,1.74,0.8,2.61,1.9,2.61c0.1,0,0.27-0.04,0.51-0.13c0.24-0.08,0.51-0.2,0.82-0.33c2.29-1.09,4.95-3.02,7.99-5.79
			c3.04-2.77,5.43-5.43,7.17-7.99c1.06-1.57,1.78-2.85,2.18-3.84c0.39-0.99,0.61-2.08,0.64-3.28c0.03-0.44,0.05-0.84,0.05-1.18
			c0-0.31-0.02-0.56-0.05-0.77c-0.07-0.44-0.22-0.87-0.46-1.28c-0.14-0.34-0.35-0.7-0.64-1.08c-0.29-0.38-0.59-0.68-0.9-0.92
			c-0.75-0.61-1.8-1.24-3.15-1.87c-1.35-0.63-2.76-1.15-4.23-1.56c-0.68-0.2-1.3-0.35-1.84-0.44c-0.55-0.08-1.2-0.14-1.95-0.18
			c-0.75-0.03-1.79-0.05-3.13-0.05c-1.4,0-2.44,0.01-3.13,0.03c-0.68,0.02-1.16,0.06-1.43,0.13c-0.27,0.07-0.5,0.19-0.67,0.36
			c-0.41,0.27-0.7,0.61-0.87,1.02C585.4,306.05,585.31,306.72,585.31,307.64z M624,365.84c-0.24-0.53-0.36-1.47-0.36-2.83
			c0-1.82,0.21-4.38,0.65-7.68c0.43-3.04,1.13-6.57,2.1-10.6c0.97-4.03,2.06-7.93,3.28-11.71c2.92-8.97,5.98-14.19,9.18-15.67
			c0.41-0.22,0.76-0.35,1.06-0.39c0.3-0.05,0.77-0.07,1.42-0.07c0.86,0,1.57,0.1,2.12,0.31c0.55,0.2,1.12,0.58,1.72,1.13
			c0.79,0.69,1.43,1.57,1.92,2.62c0.49,1.05,0.93,2.62,1.31,4.7c0.38,2.08,0.8,5,1.25,8.75c1.6,13.08,3.25,22.05,4.95,26.9
			c0.29,0.79,0.47,1.35,0.54,1.69c0.07,0.33,0.11,0.61,0.11,0.82c0,0.12-0.01,0.23-0.04,0.32c-0.38,2.2-1.64,3.35-3.77,3.44
			c-1.15,0-2.14-0.39-2.98-1.18c-0.43-0.38-0.8-0.83-1.11-1.34c-0.31-0.51-0.62-1.23-0.93-2.13c-0.31-0.86-0.63-1.48-0.95-1.85
			c-0.32-0.37-0.74-0.58-1.24-0.63c-0.12-0.02-0.32-0.04-0.61-0.04c-0.46,0-1.09,0.02-1.9,0.07c-1.34,0.07-2.77,0.16-4.29,0.27
			c-1.52,0.11-2.66,0.21-3.43,0.3c-1.08,0.12-1.81,0.39-2.21,0.83c-0.39,0.43-0.64,1.24-0.73,2.44c-0.07,0.88-0.23,1.58-0.47,2.1
			c-0.24,0.51-0.6,0.96-1.08,1.35c-0.26,0.21-0.51,0.36-0.75,0.43c-0.24,0.07-0.59,0.12-1.04,0.14h-0.39
			c-0.26,0-0.48-0.01-0.65-0.04c-0.26-0.05-0.5-0.13-0.72-0.25c-0.38-0.21-0.76-0.53-1.13-0.93
			C624.47,366.68,624.19,366.27,624,365.84z M633.47,351.6c0,0.31,0.04,0.54,0.11,0.68c0.05,0.07,0.14,0.16,0.29,0.27
			c0.14,0.11,0.31,0.21,0.5,0.31c0.19,0.1,0.35,0.16,0.47,0.18l1.04-0.14c0.69-0.07,1.53-0.17,2.51-0.29c1-0.14,1.89-0.27,2.65-0.39
			c0.77-0.12,1.24-0.21,1.43-0.29c0.38-0.17,0.66-0.47,0.83-0.9c0.07-0.14,0.12-0.27,0.14-0.39c0.02-0.12,0.04-0.23,0.04-0.32
			c0-0.12-0.01-0.25-0.04-0.39c-0.02-0.31-0.08-0.75-0.16-1.31c-0.08-0.56-0.2-1.33-0.34-2.31c-0.19-1.17-0.41-2.65-0.65-4.43
			c-0.24-1.78-0.46-3.44-0.65-4.97c-0.46-3.44-0.77-5.39-0.93-5.85c-0.17-0.31-0.38-0.47-0.65-0.47H640
			c-0.29,0.02-0.56,0.23-0.83,0.61c-0.43,0.72-1.12,2.61-2.06,5.69c-0.94,3.07-1.87,6.4-2.78,9.99
			C633.76,349.13,633.47,350.71,633.47,351.6z M658.62,338c-0.12-1.91-0.18-3.32-0.18-4.23c0-0.91,0-1.57,0-1.97
			c0-1.27,0.02-2.77,0.07-4.52c0.05-2.2,0.11-3.81,0.18-4.82c0.07-1.02,0.21-1.72,0.43-2.12c0.21-0.39,0.55-0.78,1-1.17
			c1.34-1.24,3.74-1.92,7.21-2.04c0.36-0.02,0.7-0.04,1.04-0.04c4.88,0,9.07,1.28,12.59,3.84c2.7,2.08,4.4,4.85,5.09,8.32
			c0.14,0.86,0.21,1.72,0.21,2.58c0,4.76-2.07,9.62-6.21,14.6c-0.38,0.45-0.77,0.91-1.17,1.38s-0.7,0.82-0.92,1.06
			c-0.48,0.53-0.72,0.99-0.72,1.4c0,0.29,0.13,0.54,0.39,0.75c0.29,0.26,1.27,0.62,2.94,1.08c2.22,0.6,3.85,1.23,4.88,1.9
			c1.03,0.67,1.67,1.48,1.94,2.44c0.09,0.38,0.14,0.75,0.14,1.11c0,0.55-0.12,1.09-0.36,1.61c-0.41,0.84-1.06,1.46-1.97,1.87
			c-0.36,0.17-0.81,0.25-1.36,0.25c-0.89,0-2.03-0.22-3.44-0.65c-1.08-0.33-2.31-0.67-3.69-1c-1.39-0.33-2.67-0.63-3.84-0.88
			c-1.17-0.25-1.92-0.38-2.26-0.38c-0.77,0-1.2,0.18-1.29,0.54s-0.14,0.69-0.14,1c0,0.65,0.11,1.58,0.32,2.8
			c0.24,1.41,0.37,2.33,0.39,2.76c0.02,0.43,0.04,0.73,0.04,0.9c0,0.5-0.06,0.92-0.18,1.26c-0.12,0.43-0.38,0.87-0.79,1.33
			c-0.41,0.45-0.85,0.8-1.33,1.04c-0.48,0.19-1.02,0.29-1.61,0.29c-0.57,0-1.11-0.1-1.61-0.29c-0.93-0.48-1.64-1.23-2.12-2.26
			c-0.62-1.6-1.29-5.26-1.99-10.98C659.61,351.05,659.05,344.79,658.62,338z M666.33,327.46c0,0.53,0.01,1.21,0.04,2.04
			c0.07,1.27,0.18,3.01,0.32,5.24c0,0.34,0.01,0.68,0.04,1.04c0.14,2.18,0.26,3.9,0.34,5.18c0.08,1.28,0.17,2.24,0.27,2.87
			c0.09,0.63,0.2,1.07,0.3,1.31c0.11,0.24,0.24,0.39,0.41,0.47c0.12,0.1,0.21,0.14,0.29,0.14c0.07,0,0.13,0,0.18,0h0.18l0.54-0.22
			c0.29-0.12,0.77-0.5,1.45-1.15c0.68-0.65,1.4-1.38,2.15-2.19c0.75-0.81,1.37-1.54,1.85-2.19c0.65-0.88,1.25-1.89,1.83-3.01
			c0.57-1.12,0.97-2.07,1.18-2.83c0.17-0.69,0.25-1.42,0.25-2.19c0-0.77-0.1-1.43-0.29-2.01c-0.41-1.2-1.35-2.24-2.83-3.14
			c-1.48-0.9-3.28-1.5-5.38-1.81c-0.46-0.07-0.75-0.11-0.9-0.11s-0.25,0-0.32,0c-0.14,0-0.28,0.01-0.39,0.04
			c-0.14,0.02-0.32,0.08-0.54,0.18c-0.02,0.02-0.06,0.05-0.11,0.07c-0.26,0.1-0.47,0.24-0.61,0.43c-0.14,0.19-0.22,0.48-0.23,0.86
			C666.33,326.87,666.33,327.19,666.33,327.46z M696.83,372.28c-0.31,0.7-0.77,1.44-1.38,2.23c-0.72,1.02-1.08,1.96-1.08,2.82
			c0,0.55,0.26,1.22,0.77,2.02c0.51,0.8,1.59,1.24,3.23,1.31h0.21c1.57,0,3.11-0.8,4.61-2.41c1.91-2.22,3.09-4.83,3.54-7.84
			c0.1-0.65,0.15-1.3,0.15-1.95c0-2.49-0.65-5.09-1.95-7.79c-1.2-2.15-2.72-3.36-4.56-3.64c-0.31-0.03-0.6-0.05-0.87-0.05
			c-1.43,0-2.58,0.58-3.43,1.74c-0.45,0.62-0.67,1.35-0.67,2.2c0,1.16,0.38,2.54,1.13,4.15c0.72,1.4,1.08,2.7,1.08,3.89
			c0,0.34-0.04,0.68-0.1,1.02C697.36,370.82,697.14,371.58,696.83,372.28z"/>
		<path class="st6" d="M237.17,437.14c-1.37-3.83-2.05-9.62-2.05-17.37c0-1.33,0.02-2.72,0.05-4.15c0.07-3.28,0.2-6.68,0.38-10.2
			c0.19-3.52,0.4-6.32,0.64-8.4c0.14-1.33,0.38-3.26,0.72-5.79c0.34-2.53,0.68-4.94,1.02-7.23c0.34-2.29,0.58-3.74,0.72-4.36
			c0.68-2.83,2.19-4.59,4.51-5.28c0.41-0.1,0.8-0.15,1.18-0.15c0.68,0,1.35,0.15,2,0.46c1.06,0.48,1.84,1.23,2.36,2.25
			c0.17,0.31,0.29,0.6,0.36,0.87s0.1,0.6,0.1,0.97c0,0.38-0.02,0.89-0.05,1.54c-0.07,1.33-0.26,4.07-0.56,8.2
			c-0.31,4.13-0.63,8.59-0.97,13.37c-0.31,3.45-0.46,8.8-0.46,16.04c0,3.31,0.01,5.76,0.03,7.33c0.02,1.57,0.07,2.73,0.15,3.48
			c0.08,0.75,0.2,1.45,0.33,2.1c0.65,2.73,1.52,4.53,2.61,5.38c0.51,0.38,1.01,0.57,1.49,0.59c0.48,0.02,0.75,0.03,0.82,0.03
			c0.79,0,1.59-0.14,2.41-0.41c0.48-0.17,1.27-0.5,2.38-0.97c1.11-0.48,2.26-1.01,3.46-1.59c3.25-1.54,5.57-2.58,6.97-3.12
			c1.4-0.55,2.53-0.84,3.38-0.87c0.24-0.03,0.46-0.05,0.67-0.05c1.74,0,3.11,0.62,4.1,1.84c0.96,1.16,1.43,2.38,1.43,3.64
			c0,0.96-0.27,1.95-0.82,2.97c-0.34,0.65-0.84,1.21-1.49,1.69c-0.65,0.48-1.69,1.04-3.13,1.69c-0.72,0.34-1.68,0.79-2.89,1.36
			c-1.21,0.56-2.4,1.12-3.56,1.67c-2.43,1.16-4.25,1.99-5.48,2.48c-1.23,0.5-2.43,0.86-3.59,1.1c-1.71,0.41-3.3,0.61-4.77,0.61
			c-0.62,0-1.23-0.03-1.84-0.1C243.73,447.92,239.52,444.04,237.17,437.14z M290.4,449.49c0.74,0.17,1.49,0.25,2.26,0.25
			c1.96,0,4.07-0.51,6.31-1.54c0.65-0.33,1.57-0.88,2.78-1.65c1.21-0.76,2.37-1.54,3.5-2.31c1.12-0.78,1.9-1.36,2.33-1.74
			c0.88-0.81,1.33-1.78,1.33-2.91c0-0.14-0.01-0.29-0.04-0.43c-0.07-1.41-0.75-2.43-2.04-3.05c-0.36-0.21-0.67-0.35-0.93-0.39
			c-0.17-0.05-0.36-0.07-0.57-0.07c-0.17,0-0.35,0.01-0.54,0.04c-0.46,0-0.9,0.08-1.33,0.23c-0.43,0.16-0.99,0.44-1.69,0.84
			c-0.69,0.41-1.65,1.02-2.87,1.83c-0.84,0.55-1.62,1.05-2.35,1.49s-1.25,0.72-1.56,0.84c-0.53,0.21-1,0.32-1.43,0.32
			c-0.57,0-1.14-0.26-1.7-0.79c-0.56-0.53-1.03-1.77-1.42-3.73c-0.1-0.41-0.16-0.72-0.18-0.93v-0.32c0-0.1,0-0.2,0.02-0.3
			c0.01-0.11,0.05-0.25,0.12-0.41c0.07-0.17,0.17-0.33,0.31-0.5c0.13-0.17,0.26-0.3,0.38-0.39c0.14-0.07,0.48-0.17,1-0.3
			c0.53-0.13,1.11-0.27,1.76-0.41c2.46-0.43,4.23-0.77,5.29-1c1.06-0.24,1.8-0.45,2.21-0.65c1.91-0.93,2.87-2.21,2.87-3.84
			c0-0.33-0.05-0.69-0.14-1.08c-0.31-1.03-0.99-1.82-2.04-2.37c-0.43-0.26-1-0.39-1.72-0.39c-0.14,0-0.5,0.03-1.08,0.09
			c-0.57,0.06-1.88,0.34-3.91,0.84c-1.36,0.33-2.4,0.56-3.12,0.68c-0.55,0.1-0.99,0.14-1.33,0.14c-0.1,0-0.25-0.01-0.47-0.04
			c-0.21-0.02-0.41-0.14-0.57-0.36c-0.14-0.14-0.25-0.29-0.3-0.43c-0.06-0.14-0.1-0.36-0.13-0.65c-0.02-0.29-0.05-0.72-0.07-1.29
			v-0.9c0-0.72,0.01-1.81,0.04-3.26c0.02-1.46,0.07-3.18,0.13-5.17c0.06-1.98,0.12-3.72,0.18-5.22c0.06-1.49,0.13-2.37,0.2-2.64
			c0.19-0.72,0.74-1.21,1.65-1.47c0.19-0.05,0.7-0.11,1.52-0.18s1.76-0.13,2.82-0.18c2.1-0.1,3.72-0.18,4.86-0.25
			c1.14-0.07,1.97-0.16,2.49-0.25c0.53-0.1,0.93-0.2,1.22-0.32c1.32-0.65,2.1-1.59,2.37-2.83c0.05-0.24,0.07-0.48,0.07-0.72
			c0-1-0.39-1.92-1.18-2.76c-0.5-0.53-1.08-0.87-1.72-1.04c-0.57-0.14-1.47-0.22-2.69-0.22h-0.54c-1.27,0-2.7,0.08-4.3,0.25
			c-1.6,0.17-3.65,0.44-6.13,0.82c-1.51,0.24-2.67,0.45-3.48,0.63c-0.81,0.18-1.43,0.38-1.85,0.61c-0.42,0.23-0.81,0.53-1.17,0.92
			c-0.38,0.36-0.68,0.81-0.9,1.36c-0.21,0.55-0.41,1.43-0.57,2.65s-0.36,2.99-0.57,5.31c-0.5,5.48-0.75,10.49-0.75,15.03
			c0,4.95,0.3,9.36,0.9,13.23C283.19,443.92,286.03,448.35,290.4,449.49z M360.72,397.05c-0.28,0-0.72,0.11-1.34,0.32
			c-2.08,0.67-3.93,2.36-5.54,5.06c-1.61,2.7-2.85,6.16-3.71,10.37c-1,5.02-1.51,10.69-1.51,17c0,2.82,0.07,5.06,0.2,6.71
			c0.13,1.65,0.4,3.56,0.81,5.74c0.33,1.77,0.72,3.1,1.15,3.98c0.43,0.88,1,1.53,1.72,1.94c0.72,0.38,1.41,0.57,2.08,0.57
			c0.93,0,1.78-0.39,2.55-1.18c0.55-0.6,0.82-1.35,0.82-2.26c0-0.38-0.05-0.79-0.14-1.22c-0.24-1.08-0.41-1.91-0.5-2.49
			c-0.1-0.58-0.18-1.37-0.25-2.35c-0.1-1-0.16-2.58-0.18-4.74v-3.19c0-1.08,0-2.41,0.02-4c0.01-1.59,0.07-2.89,0.16-3.89
			c0.05-0.62,0.12-1.38,0.22-2.28c0.09-0.9,0.19-1.73,0.29-2.49c0.53-3.99,1.14-6.84,1.83-8.54c0.45-1.1,0.91-1.65,1.36-1.65
			c0.24,0,0.49,0.17,0.75,0.5c0.14,0.17,0.3,0.57,0.47,1.22c0.17,0.65,0.38,1.77,0.65,3.37c0.26,1.6,0.61,3.9,1.04,6.9
			c0.43,3,0.98,6.94,1.65,11.82c0.17,1.32,0.32,2.32,0.47,3.01c0.14,0.69,0.32,1.23,0.54,1.6c0.22,0.37,0.49,0.74,0.83,1.09
			c0.33,0.33,0.63,0.58,0.9,0.74c0.26,0.16,0.56,0.27,0.9,0.34c0.33,0.07,0.66,0.11,0.97,0.11c0.72,0,1.48-0.21,2.28-0.65
			c0.8-0.43,1.46-1.2,1.99-2.3c0.12-0.26,0.27-0.69,0.45-1.27c0.18-0.58,0.34-1.19,0.48-1.81c2.06-9.13,4.39-16.32,6.99-21.56
			c0.57-1.12,1.03-1.98,1.36-2.56c0.33-0.59,0.61-0.97,0.83-1.17c0.21-0.19,0.45-0.29,0.72-0.29c0.19,0,0.34,0.04,0.45,0.13
			c0.11,0.08,0.21,0.26,0.3,0.52c0.07,0.17,0.13,0.44,0.16,0.82c0.04,0.38,0.05,1.05,0.05,2.01c0,0.93-0.01,2.31-0.04,4.12
			c-0.1,5.74-0.17,10.1-0.21,13.09c-0.02,1.98-0.04,3.62-0.04,4.91c0,0.67,0.01,1.48,0.02,2.44c0.01,0.96,0.04,2,0.09,3.12
			c0.14,3.08,0.33,5.25,0.57,6.49c0.24,1.24,0.62,2.15,1.15,2.73c0.14,0.17,0.33,0.35,0.57,0.54c0.24,0.19,0.47,0.33,0.68,0.43
			c0.55,0.26,1.1,0.39,1.65,0.39c0.36,0,0.87-0.1,1.54-0.3c0.67-0.2,1.27-0.72,1.79-1.56c0.33-0.55,0.55-1.14,0.65-1.76
			c0.02-0.22,0.04-0.48,0.04-0.79c0-0.5-0.04-1.1-0.11-1.79c-0.29-3.23-0.43-7.03-0.43-11.41c0-2.29,0.04-4.75,0.11-7.35
			c0.17-4.59,0.25-8.37,0.25-11.33c0-1.48-0.04-3.31-0.12-5.47c-0.08-2.16-0.39-4.01-0.92-5.54c-0.98-2.92-2.54-4.81-4.66-5.67
			c-0.77-0.31-1.53-0.47-2.29-0.47c-1.39,0-2.8,0.5-4.23,1.51c-2.63,2.13-5.38,6.28-8.25,12.45c-0.57,1.29-1.02,2.16-1.33,2.62
			c-0.26,0.36-0.5,0.54-0.72,0.54c-0.07,0-0.13-0.01-0.18-0.04c-0.14-0.02-0.26-0.08-0.34-0.18c-0.08-0.1-0.17-0.26-0.25-0.5
			c-0.08-0.24-0.19-0.59-0.31-1.06c-0.12-0.47-0.26-1.11-0.43-1.92c-0.55-2.77-1.17-4.94-1.85-6.49c-0.68-1.55-1.55-2.8-2.6-3.73
			c-0.53-0.5-1.02-0.89-1.47-1.17s-0.97-0.48-1.54-0.63s-1.09-0.21-1.54-0.21C361.16,397.05,361,397.05,360.72,397.05z
			 M405.79,413.02c2.92-8.97,5.98-14.19,9.18-15.67c0.41-0.22,0.76-0.35,1.06-0.39c0.3-0.05,0.77-0.07,1.42-0.07
			c0.86,0,1.57,0.1,2.12,0.31c0.55,0.2,1.12,0.58,1.72,1.13c0.79,0.69,1.43,1.57,1.92,2.62c0.49,1.05,0.93,2.62,1.31,4.7
			c0.38,2.08,0.8,5,1.25,8.75c1.6,13.08,3.25,22.05,4.95,26.9c0.29,0.79,0.47,1.35,0.54,1.69c0.07,0.34,0.11,0.61,0.11,0.83
			c0,0.12-0.01,0.23-0.04,0.32c-0.38,2.2-1.64,3.35-3.77,3.44c-1.15,0-2.14-0.39-2.98-1.18c-0.43-0.38-0.8-0.83-1.11-1.35
			c-0.31-0.51-0.62-1.22-0.93-2.13c-0.31-0.86-0.63-1.48-0.95-1.85c-0.32-0.37-0.74-0.58-1.24-0.63c-0.12-0.02-0.32-0.04-0.61-0.04
			c-0.46,0-1.09,0.02-1.9,0.07c-1.34,0.07-2.77,0.16-4.29,0.27s-2.66,0.21-3.43,0.3c-1.08,0.12-1.81,0.39-2.21,0.83
			c-0.39,0.43-0.64,1.24-0.73,2.44c-0.07,0.89-0.23,1.58-0.47,2.1c-0.24,0.51-0.6,0.96-1.08,1.34c-0.26,0.22-0.51,0.36-0.75,0.43
			c-0.24,0.07-0.59,0.12-1.04,0.14h-0.39c-0.26,0-0.48-0.01-0.65-0.04c-0.26-0.05-0.5-0.13-0.72-0.25
			c-0.38-0.21-0.76-0.53-1.13-0.93c-0.37-0.41-0.65-0.83-0.84-1.25c-0.24-0.53-0.36-1.47-0.36-2.83c0-1.82,0.21-4.38,0.65-7.68
			c0.43-3.04,1.13-6.57,2.1-10.6C403.48,420.7,404.57,416.79,405.79,413.02z M409.59,431.6c0,0.31,0.04,0.54,0.11,0.68
			c0.05,0.07,0.14,0.16,0.29,0.27c0.14,0.11,0.31,0.21,0.5,0.3c0.19,0.1,0.35,0.16,0.47,0.18l1.04-0.14
			c0.69-0.07,1.53-0.17,2.51-0.29c1-0.14,1.89-0.28,2.65-0.39c0.77-0.12,1.24-0.22,1.43-0.29c0.38-0.17,0.66-0.47,0.83-0.9
			c0.07-0.14,0.12-0.28,0.14-0.39c0.02-0.12,0.04-0.23,0.04-0.32c0-0.12-0.01-0.25-0.04-0.39c-0.02-0.31-0.08-0.75-0.16-1.31
			c-0.08-0.56-0.2-1.33-0.34-2.31c-0.19-1.17-0.41-2.65-0.65-4.43c-0.24-1.78-0.46-3.44-0.65-4.97c-0.46-3.44-0.77-5.39-0.93-5.85
			c-0.17-0.31-0.38-0.47-0.65-0.47h-0.07c-0.29,0.02-0.56,0.23-0.83,0.61c-0.43,0.72-1.12,2.61-2.06,5.69
			c-0.94,3.07-1.87,6.4-2.78,9.99C409.88,429.13,409.59,430.71,409.59,431.6z M445.3,399.1c-1.38,1.27-2.59,2.62-3.64,4.05
			c-0.69,1-1.46,2.33-2.3,3.98s-1.52,3.18-2.04,4.59c-1.6,4.54-2.43,9.28-2.47,14.2v0.22c0,4.85,0.75,9.4,2.26,13.63
			c0.98,2.63,2.39,4.83,4.21,6.58c1.83,1.76,3.86,2.84,6.08,3.25c0.48,0.07,0.96,0.11,1.43,0.11c1.89,0,3.72-0.57,5.49-1.72
			c2.7-1.65,4.69-5.14,5.95-10.47c0.38-1.53,0.77-3.37,1.17-5.52c0.39-2.15,0.74-4.21,1.02-6.17c0.29-1.96,0.43-3.34,0.43-4.12
			c0-2.34-0.92-3.97-2.76-4.88c-0.29-0.14-0.54-0.25-0.75-0.32c-0.22-0.07-0.49-0.11-0.83-0.13c-0.33-0.01-0.81-0.02-1.43-0.02
			c-1.34,0.02-2.69,0.13-4.05,0.3c-1.36,0.18-2.39,0.39-3.08,0.63c-1.36,0.57-2.2,1.48-2.51,2.73c-0.07,0.31-0.11,0.61-0.11,0.9
			c0,0.93,0.36,1.78,1.08,2.55c0.36,0.38,0.75,0.65,1.18,0.81c0.43,0.16,1.04,0.27,1.83,0.34c1.22,0.05,1.97,0.31,2.26,0.79
			c0.14,0.22,0.21,0.57,0.21,1.08c0,0.48-0.07,1.09-0.21,1.83c-0.96,5.72-1.93,9.52-2.91,11.41c-0.62,0.93-1.3,1.4-2.04,1.4
			c-0.69,0-1.43-0.42-2.22-1.25c-1-1.22-1.84-3.1-2.49-5.63c-0.66-2.54-0.99-5.17-0.99-7.89c0-5.62,1.29-10.99,3.87-16.1
			c1.58-3.32,3.74-5.98,6.49-7.96c1.34-0.98,2.02-2.04,2.04-3.19c0.02-0.12,0.04-0.25,0.04-0.39c0-0.93-0.39-1.73-1.18-2.4
			c-0.62-0.55-1.36-0.82-2.22-0.82c-0.84,0-1.79,0.26-2.87,0.79C447.98,396.88,446.68,397.83,445.3,399.1z M484.56,396.88
			c0.86,0,1.57,0.1,2.12,0.31c0.55,0.2,1.12,0.58,1.72,1.13c0.79,0.69,1.43,1.57,1.92,2.62c0.49,1.05,0.93,2.62,1.31,4.7
			c0.38,2.08,0.8,5,1.25,8.75c1.6,13.08,3.25,22.05,4.95,26.9c0.29,0.79,0.47,1.35,0.54,1.69c0.07,0.34,0.11,0.61,0.11,0.83
			c0,0.12-0.01,0.23-0.04,0.32c-0.38,2.2-1.64,3.35-3.77,3.44c-1.15,0-2.14-0.39-2.98-1.18c-0.43-0.38-0.8-0.83-1.11-1.35
			c-0.31-0.51-0.62-1.22-0.93-2.13c-0.31-0.86-0.63-1.48-0.95-1.85c-0.32-0.37-0.74-0.58-1.24-0.63c-0.12-0.02-0.32-0.04-0.61-0.04
			c-0.46,0-1.09,0.02-1.9,0.07c-1.34,0.07-2.77,0.16-4.29,0.27s-2.66,0.21-3.43,0.3c-1.08,0.12-1.81,0.39-2.21,0.83
			c-0.39,0.43-0.64,1.24-0.73,2.44c-0.07,0.89-0.23,1.58-0.47,2.1c-0.24,0.51-0.6,0.96-1.08,1.34c-0.26,0.22-0.51,0.36-0.75,0.43
			c-0.24,0.07-0.59,0.12-1.04,0.14h-0.39c-0.26,0-0.48-0.01-0.65-0.04c-0.26-0.05-0.5-0.13-0.72-0.25
			c-0.38-0.21-0.76-0.53-1.13-0.93c-0.37-0.41-0.65-0.83-0.84-1.25c-0.24-0.53-0.36-1.47-0.36-2.83c0-1.82,0.21-4.38,0.65-7.68
			c0.43-3.04,1.13-6.57,2.1-10.6c0.97-4.03,2.06-7.93,3.28-11.71c2.92-8.97,5.98-14.19,9.18-15.67c0.41-0.22,0.76-0.35,1.06-0.39
			C483.44,396.9,483.91,396.88,484.56,396.88z M484.88,416.89c-0.46-3.44-0.77-5.39-0.93-5.85c-0.17-0.31-0.38-0.47-0.65-0.47h-0.07
			c-0.29,0.02-0.56,0.23-0.83,0.61c-0.43,0.72-1.12,2.61-2.06,5.69c-0.94,3.07-1.87,6.4-2.78,9.99c-0.57,2.27-0.86,3.85-0.86,4.73
			c0,0.31,0.04,0.54,0.11,0.68c0.05,0.07,0.14,0.16,0.29,0.27c0.14,0.11,0.31,0.21,0.5,0.3c0.19,0.1,0.35,0.16,0.47,0.18l1.04-0.14
			c0.69-0.07,1.53-0.17,2.51-0.29c1-0.14,1.89-0.28,2.65-0.39c0.77-0.12,1.24-0.22,1.43-0.29c0.38-0.17,0.66-0.47,0.83-0.9
			c0.07-0.14,0.12-0.28,0.14-0.39c0.02-0.12,0.04-0.23,0.04-0.32c0-0.12-0.01-0.25-0.04-0.39c-0.02-0.31-0.08-0.75-0.16-1.31
			c-0.08-0.56-0.2-1.33-0.34-2.31c-0.19-1.17-0.41-2.65-0.65-4.43C485.29,420.08,485.07,418.42,484.88,416.89z M513.68,398.27
			c-1.03,0.36-2.26,0.9-3.69,1.61c-1.44,0.72-2.67,1.4-3.69,2.04c-1.58,1.08-3.03,2.34-4.36,3.78c-1.33,1.45-2.31,2.86-2.96,4.25
			c-0.67,1.55-1,3.04-1,4.45c0,2.65,1.21,5.08,3.62,7.28c0.53,0.45,1.09,0.89,1.7,1.31c0.61,0.42,1.55,0.97,2.82,1.67
			c1.27,0.69,3.14,1.7,5.63,3.01c2.73,1.46,4.72,2.74,5.97,3.84c1.25,1.1,1.95,2.16,2.1,3.19c0.02,0.14,0.04,0.27,0.04,0.39
			s-0.02,0.27-0.05,0.45c-0.04,0.18-0.14,0.46-0.3,0.84c-0.62,1.15-1.81,2.22-3.55,3.21c-1.75,0.99-3.62,1.66-5.63,1.99
			c-2.44,0.36-3.84,1.4-4.2,3.12c-0.05,0.26-0.07,0.53-0.07,0.79c0,0.65,0.2,1.33,0.59,2.06c0.4,0.73,1.05,1.31,1.96,1.74
			c0.69,0.26,1.47,0.39,2.33,0.39c2.1,0,4.72-0.75,7.85-2.26c5.04-2.61,8.12-5.87,9.22-9.79c0.09-0.41,0.16-0.84,0.18-1.29
			c0.02-0.31,0.04-0.66,0.04-1.04v-0.65c-0.02-1.08-0.17-2.04-0.43-2.89c-0.26-0.85-0.69-1.74-1.29-2.67
			c-0.98-1.65-2.4-3.18-4.27-4.59c-1.87-1.41-4.67-3.1-8.43-5.06c-1.79-0.96-3.16-1.7-4.11-2.22c-0.94-0.53-1.61-0.95-2.01-1.27
			c-0.39-0.32-0.66-0.64-0.81-0.95c-0.19-0.31-0.29-0.65-0.29-1c0-1.27,1.18-2.86,3.55-4.77c2.94-2.42,5.51-3.79,7.71-4.12
			c0.31-0.05,0.63-0.1,0.97-0.16c0.33-0.06,0.59-0.11,0.75-0.16c1.22-0.43,2-1.21,2.33-2.33c0.09-0.31,0.14-0.62,0.14-0.93
			c0-0.79-0.29-1.55-0.86-2.3c-0.96-1.08-2.26-1.61-3.91-1.61C516.22,397.63,515.02,397.84,513.68,398.27z M541.91,422.13
			c-0.05-2.25-0.12-4.9-0.22-7.96c-0.05-2.49-0.1-4.71-0.14-6.67c-0.07-2.18-0.14-4.04-0.2-5.6c-0.06-1.55-0.11-2.44-0.16-2.65
			c-0.29-0.76-0.8-1.37-1.54-1.83c-0.55-0.33-1.12-0.5-1.72-0.5c-0.19,0-0.39,0.02-0.61,0.07c-1.6,0.38-2.65,1.48-3.16,3.3
			c-0.21,0.96-0.37,3.19-0.47,6.71c-0.07,2.82-0.11,5.9-0.11,9.22c0,0.84,0,2.55,0.02,5.13c0.01,2.58,0.1,5.54,0.27,8.86
			c0.14,2.3,0.32,4.83,0.54,7.6c0.22,2.77,0.38,4.7,0.5,5.78c0.29,2.25,1.17,3.71,2.65,4.38c0.41,0.17,0.91,0.26,1.51,0.29h0.22
			c0.5,0,0.93-0.07,1.29-0.22c0.88-0.41,1.55-1.03,2.01-1.87c0.26-0.45,0.41-1.13,0.43-2.04v-0.68c0-0.86-0.06-2.01-0.18-3.44
			c-0.26-3.01-0.47-5.89-0.61-8.64C542.09,428.6,541.98,425.52,541.91,422.13z M558.3,398.45c-0.43-0.14-0.87-0.21-1.33-0.21
			c-0.67,0-1.47,0.21-2.4,0.63c-0.93,0.42-1.66,1.15-2.19,2.21c-0.1,0.22-0.19,0.53-0.29,0.95c-0.1,0.42-0.17,0.84-0.21,1.27
			c-0.07,0.89-0.12,2.69-0.14,5.42c-0.02,1.84-0.04,3.71-0.04,5.6c0,0.96,0.01,2.42,0.04,4.38c0.02,1.96,0.07,3.68,0.14,5.17
			c0.07,1,0.17,2.48,0.29,4.43c0.12,1.95,0.24,3.9,0.36,5.86c0.19,3.3,0.36,5.85,0.5,7.66c0.14,1.81,0.28,3.12,0.39,3.95
			c0.12,0.83,0.28,1.43,0.47,1.81c0.48,1.12,1.29,1.91,2.44,2.37c0.38,0.12,0.76,0.18,1.15,0.18c0.38,0,0.88-0.1,1.49-0.3
			s1.19-0.64,1.74-1.31c0.43-0.5,0.69-1.14,0.79-1.9c0.02-0.26,0.04-0.57,0.04-0.93c0-0.74-0.05-1.7-0.14-2.87
			c-0.17-1.79-0.32-3.84-0.47-6.13s-0.26-4.34-0.36-6.13c-0.05-1.34-0.07-2.26-0.07-2.76v-0.32c0.14-0.6,0.36-0.9,0.65-0.9
			c0.05,0,0.1,0.01,0.14,0.04c0.14,0.05,0.31,0.22,0.5,0.52c0.19,0.3,0.45,0.81,0.79,1.52c0.33,0.72,0.78,1.73,1.33,3.05
			c1.91,4.5,3.52,7.94,4.81,10.35s2.47,4.04,3.53,4.9c1.06,0.86,2.26,1.29,3.6,1.29h0.14c1.96,0,3.54-0.96,4.73-2.87
			c0.81-1.15,1.4-3.01,1.76-5.59c0.36-2.58,0.61-6.8,0.75-12.66c0.17-5.88,0.51-12.49,1.04-19.83c0.17-2.58,0.28-4.58,0.32-5.99
			v-0.5c0-1.17-0.08-2.07-0.23-2.69c-0.16-0.62-0.42-1.15-0.81-1.58c-0.77-0.88-1.7-1.36-2.8-1.43h-0.18
			c-1.03,0-1.95,0.38-2.76,1.15c-0.45,0.43-0.78,0.97-0.99,1.63c-0.2,0.66-0.34,1.64-0.41,2.96c-0.12,1.7-0.27,3.88-0.45,6.55
			c-0.18,2.67-0.34,5.16-0.48,7.48c-0.07,1.12-0.15,2.63-0.23,4.52c-0.08,1.89-0.15,3.73-0.2,5.52c-0.05,1.6-0.1,2.89-0.14,3.86
			c-0.05,0.97-0.1,1.72-0.16,2.24c-0.06,0.53-0.14,0.9-0.23,1.11c-0.1,0.21-0.21,0.37-0.36,0.47c-0.07,0.05-0.14,0.07-0.22,0.07
			c-0.05,0-0.11-0.02-0.2-0.07c-0.08-0.05-0.23-0.19-0.45-0.43c-0.14-0.19-0.31-0.45-0.5-0.77c-0.19-0.32-0.36-0.64-0.5-0.95
			c-0.12-0.33-0.33-0.87-0.65-1.6c-0.31-0.73-0.63-1.49-0.97-2.28c-1.22-2.89-3.25-8.24-6.1-16.03c-1.6-4.4-2.84-7.44-3.71-9.13
			C560,399.65,559.14,398.69,558.3,398.45z M646.65,449.78c-0.57,0.21-1.08,0.36-1.51,0.43c-0.43,0.07-1.04,0.12-1.83,0.14h-0.83
			c-0.91,0-1.61-0.06-2.12-0.18c-2.94-0.79-5.54-2.58-7.8-5.38c-2.26-2.8-3.93-6.3-5-10.51c-0.79-3.54-1.18-7.15-1.18-10.83
			c0-4.69,0.65-9.47,1.94-14.35c0.74-2.58,1.66-4.93,2.76-7.03c0.79-1.55,1.57-2.69,2.35-3.41c0.78-0.72,1.71-1.2,2.82-1.43
			c0.86-0.17,1.91-0.25,3.16-0.25c0.43,0,0.87,0.01,1.33,0.04c1.84,0.07,3.55,0.28,5.13,0.61c8.58,2.01,13.34,9.42,14.28,22.24
			c0.05,0.81,0.07,1.63,0.07,2.44c0,3.85-0.51,7.6-1.54,11.26c-1.24,4.45-3.1,8.23-5.56,11.33
			C651.21,447.27,649.06,448.9,646.65,449.78z M648.94,436.11c1.72-3.56,2.66-6.59,2.82-9.09s0.23-4.08,0.23-4.75
			c0-3.56-0.55-6.93-1.65-10.11c-0.84-2.44-2.01-4.18-3.51-5.24c-1.51-1.05-3.51-1.58-6.03-1.58h-0.18c-0.98,0-1.68,0.09-2.1,0.27
			c-0.42,0.18-0.75,0.52-0.99,1.02c-0.48,1-0.97,2.68-1.49,5.04c-0.51,2.36-0.9,4.73-1.17,7.12c-0.17,1.75-0.25,3.41-0.25,4.99
			c0,5.48,0.99,10.07,2.98,13.77c1.72,2.97,3.48,4.45,5.27,4.45c0.62,0,1.23-0.17,1.83-0.5
			C646.14,440.66,647.56,438.86,648.94,436.11z M681.98,442.14c-0.98,0-1.96-0.56-2.94-1.69c-0.98-1.12-1.72-2.56-2.22-4.3
			c-1.39-4.59-2.18-12.78-2.37-24.57c-0.05-2.37-0.1-4.42-0.16-6.17c-0.06-1.75-0.1-2.77-0.13-3.08c-0.17-1.72-0.9-2.87-2.19-3.44
			c-0.48-0.22-0.95-0.32-1.4-0.32s-1.01,0.16-1.67,0.48c-0.66,0.32-1.2,1.01-1.63,2.06c-0.1,0.24-0.18,0.57-0.25,1
			c-0.07,0.43-0.14,1.09-0.2,1.99s-0.14,2.15-0.23,3.75c-0.17,2.77-0.25,5.43-0.25,7.96c0,2.99,0.12,5.81,0.36,8.46
			c0.53,6.31,1.3,11.15,2.33,14.53c1.03,3.37,2.55,6.01,4.56,7.93c2.03,2.01,4.27,3.29,6.71,3.84c0.65,0.12,1.27,0.18,1.87,0.18
			c2.73,0,5.31-1.18,7.75-3.55c2.18-2.06,3.85-5.4,5.02-10.04c1-3.8,1.72-9.24,2.15-16.32c0.1-1.72,0.17-4.08,0.21-7.07
			c0.05-2.99,0.07-5.8,0.07-8.43c0-2.63-0.04-4.27-0.11-4.91c-0.24-1.51-0.86-2.61-1.87-3.3c-0.31-0.24-0.59-0.38-0.83-0.43
			c-0.24-0.05-0.65-0.07-1.22-0.07c-0.6,0-1.02,0.03-1.27,0.09s-0.54,0.2-0.88,0.41c-1.1,0.67-1.76,1.84-1.97,3.52
			c-0.05,0.38-0.08,1.36-0.11,2.92c-0.02,1.57-0.04,3.28-0.04,5.15C689.03,431,686.66,442.14,681.98,442.14z M243.91,528.63
			c0.43,0.05,0.86,0.07,1.29,0.07c1.03,0,2.14-0.14,3.34-0.43c0.81-0.17,1.65-0.42,2.51-0.77c0.86-0.35,2.14-0.93,3.84-1.74
			c0.81-0.38,1.64-0.77,2.49-1.17s1.52-0.71,2.03-0.95c1-0.45,1.73-0.85,2.19-1.18c0.45-0.33,0.8-0.73,1.04-1.18
			c0.38-0.72,0.57-1.41,0.57-2.08c0-0.88-0.33-1.73-1-2.55c-0.69-0.86-1.65-1.29-2.87-1.29c-0.14,0-0.3,0.01-0.47,0.04
			c-0.6,0.02-1.39,0.23-2.37,0.61c-0.98,0.38-2.61,1.11-4.88,2.19c-0.84,0.41-1.64,0.78-2.42,1.11s-1.33,0.56-1.67,0.68
			c-0.57,0.19-1.14,0.29-1.69,0.29c-0.05,0-0.24-0.01-0.57-0.02c-0.33-0.01-0.68-0.15-1.04-0.41c-0.77-0.6-1.38-1.85-1.83-3.77
			c-0.1-0.45-0.17-0.94-0.23-1.47c-0.06-0.53-0.1-1.34-0.11-2.44s-0.02-2.81-0.02-5.13c0-5.07,0.11-8.81,0.32-11.23
			c0.24-3.35,0.47-6.47,0.68-9.36c0.22-2.89,0.35-4.81,0.39-5.74c0.02-0.45,0.04-0.81,0.04-1.08s-0.02-0.49-0.07-0.68
			c-0.05-0.19-0.13-0.39-0.25-0.61c-0.36-0.72-0.91-1.24-1.65-1.58c-0.46-0.21-0.92-0.32-1.4-0.32c-0.26,0-0.54,0.04-0.82,0.11
			c-1.63,0.48-2.68,1.71-3.16,3.69c-0.1,0.43-0.26,1.45-0.5,3.05c-0.24,1.6-0.48,3.29-0.72,5.06c-0.24,1.77-0.41,3.12-0.5,4.05
			c-0.17,1.46-0.32,3.42-0.45,5.88c-0.13,2.46-0.22,4.84-0.27,7.14c-0.02,1-0.04,1.97-0.04,2.91c0,5.43,0.48,9.48,1.43,12.16
			C236.74,525.32,239.68,528.04,243.91,528.63z M270.03,469.54c-0.41,0.62-0.78,1.32-1.1,2.1c-0.32,0.79-0.49,1.45-0.49,2
			c0,0.85,0.32,1.72,0.95,2.61c0.63,0.89,1.39,1.52,2.28,1.9c0.44,0.17,0.99,0.26,1.64,0.26c0.1,0,0.38-0.02,0.82-0.05
			c0.44-0.03,0.94-0.17,1.49-0.41c0.34-0.17,1.24-0.81,2.69-1.92c1.45-1.11,3.12-2.41,5-3.89c1.88-1.49,3.61-2.88,5.2-4.18
			c1.59-1.3,2.67-2.22,3.25-2.77c1.64-1.64,2.46-3.3,2.46-4.97c0-1.6-0.5-2.89-1.49-3.87c-0.99-0.97-2.29-1.48-3.89-1.51
			c-1.88,0-3.69,0.79-5.43,2.36c-0.92,0.72-2.38,1.99-4.38,3.82s-3.9,3.6-5.71,5.33C271.5,468.06,270.41,469.13,270.03,469.54z
			 M335.68,499.87c0.05,0.81,0.07,1.63,0.07,2.44c0,3.85-0.51,7.6-1.54,11.26c-1.24,4.45-3.1,8.23-5.56,11.33
			c-1.89,2.37-4.04,3.99-6.46,4.88c-0.57,0.21-1.08,0.36-1.51,0.43c-0.43,0.07-1.04,0.12-1.83,0.14h-0.83
			c-0.91,0-1.61-0.06-2.12-0.18c-2.94-0.79-5.54-2.58-7.8-5.38c-2.26-2.8-3.93-6.3-5-10.51c-0.79-3.54-1.18-7.15-1.18-10.83
			c0-4.69,0.65-9.47,1.94-14.35c0.74-2.58,1.66-4.93,2.76-7.03c0.79-1.55,1.57-2.69,2.35-3.41c0.78-0.72,1.71-1.2,2.82-1.43
			c0.86-0.17,1.91-0.25,3.16-0.25c0.43,0,0.87,0.01,1.33,0.04c1.84,0.07,3.55,0.27,5.13,0.61
			C329.98,479.64,334.74,487.05,335.68,499.87z M327.53,502.27c0-3.56-0.55-6.94-1.65-10.12c-0.84-2.44-2.01-4.18-3.51-5.24
			s-3.51-1.58-6.03-1.58h-0.18c-0.98,0-1.68,0.09-2.1,0.27s-0.75,0.52-0.99,1.02c-0.48,1-0.97,2.68-1.49,5.04
			c-0.51,2.36-0.9,4.73-1.17,7.12c-0.17,1.75-0.25,3.41-0.25,4.99c0,5.48,0.99,10.07,2.98,13.77c1.72,2.97,3.48,4.45,5.27,4.45
			c0.62,0,1.23-0.17,1.83-0.5c1.43-0.84,2.85-2.63,4.23-5.38c1.72-3.56,2.66-6.59,2.82-9.09
			C327.46,504.52,327.53,502.94,327.53,502.27z M351.96,506.54c0.05,0,0.1,0.01,0.14,0.04c0.14,0.05,0.31,0.22,0.5,0.52
			s0.45,0.81,0.79,1.52c0.33,0.72,0.78,1.73,1.33,3.05c1.91,4.5,3.52,7.94,4.81,10.35s2.47,4.04,3.53,4.9
			c1.06,0.86,2.26,1.29,3.6,1.29h0.14c1.96,0,3.54-0.96,4.73-2.87c0.81-1.15,1.4-3.01,1.76-5.59c0.36-2.58,0.61-6.8,0.75-12.66
			c0.17-5.88,0.51-12.49,1.04-19.84c0.17-2.58,0.28-4.58,0.32-5.99v-0.5c0-1.17-0.08-2.07-0.23-2.69s-0.42-1.15-0.81-1.58
			c-0.77-0.88-1.7-1.36-2.8-1.44h-0.18c-1.03,0-1.95,0.38-2.76,1.15c-0.45,0.43-0.78,0.97-0.99,1.63c-0.2,0.66-0.34,1.64-0.41,2.96
			c-0.12,1.7-0.27,3.88-0.45,6.55c-0.18,2.67-0.34,5.16-0.48,7.48c-0.07,1.12-0.15,2.63-0.23,4.52c-0.08,1.89-0.15,3.73-0.2,5.52
			c-0.05,1.6-0.1,2.89-0.14,3.86c-0.05,0.97-0.1,1.72-0.16,2.24c-0.06,0.53-0.14,0.9-0.23,1.11c-0.1,0.21-0.21,0.37-0.36,0.47
			c-0.07,0.05-0.14,0.07-0.22,0.07c-0.05,0-0.11-0.02-0.2-0.07c-0.08-0.05-0.23-0.19-0.45-0.43c-0.14-0.19-0.31-0.45-0.5-0.77
			c-0.19-0.32-0.36-0.64-0.5-0.95c-0.12-0.33-0.33-0.87-0.65-1.6c-0.31-0.73-0.63-1.49-0.97-2.28c-1.22-2.89-3.25-8.24-6.1-16.03
			c-1.6-4.4-2.84-7.44-3.71-9.13c-0.87-1.69-1.73-2.65-2.56-2.89c-0.43-0.14-0.87-0.22-1.33-0.22c-0.67,0-1.47,0.21-2.4,0.63
			c-0.93,0.42-1.66,1.15-2.19,2.21c-0.1,0.21-0.19,0.53-0.29,0.95c-0.1,0.42-0.17,0.84-0.21,1.27c-0.07,0.88-0.12,2.69-0.14,5.42
			c-0.02,1.84-0.04,3.71-0.04,5.6c0,0.96,0.01,2.42,0.04,4.38s0.07,3.68,0.14,5.17c0.07,1,0.17,2.48,0.29,4.43
			c0.12,1.95,0.24,3.9,0.36,5.86c0.19,3.3,0.36,5.85,0.5,7.66c0.14,1.81,0.28,3.12,0.39,3.95c0.12,0.83,0.28,1.43,0.47,1.81
			c0.48,1.12,1.29,1.91,2.44,2.37c0.38,0.12,0.76,0.18,1.15,0.18c0.38,0,0.88-0.1,1.49-0.3s1.19-0.64,1.74-1.31
			c0.43-0.5,0.69-1.14,0.79-1.9c0.02-0.26,0.04-0.57,0.04-0.93c0-0.74-0.05-1.7-0.14-2.87c-0.17-1.79-0.32-3.84-0.47-6.13
			s-0.26-4.34-0.36-6.13c-0.05-1.34-0.07-2.26-0.07-2.76v-0.32C351.46,506.84,351.67,506.54,351.96,506.54z M427.96,516.1
			c-0.1,0.35-0.14,0.75-0.14,1.2c0,0.26,0.01,0.56,0.04,0.9c0.07,0.89,0.23,2.15,0.47,3.8c0.17,1.05,0.28,1.86,0.34,2.42
			c0.06,0.56,0.09,1,0.09,1.31c0,0.29-0.04,0.55-0.11,0.79c-0.21,0.93-0.68,1.69-1.4,2.28c-0.72,0.59-1.52,0.88-2.4,0.88
			c-0.6,0-1.18-0.14-1.76-0.43c-0.84-0.36-1.47-1.02-1.9-1.99c-0.43-0.97-0.8-2.58-1.11-4.82c-0.53-3.68-0.96-7.78-1.29-12.3
			c-0.34-4.52-0.5-8.75-0.5-12.7c0-1.12,0.05-2.77,0.14-4.93s0.21-4.21,0.34-6.15c0.13-1.94,0.26-3.25,0.38-3.95
			c0.38-2.27,1.48-3.74,3.3-4.41c0.5-0.14,1.22-0.23,2.17-0.27c0.94-0.04,1.7-0.05,2.28-0.05c0.86,0,1.77,0.02,2.73,0.07
			c1.58,0.07,2.94,0.19,4.09,0.36c5.91,0.81,10.19,2.64,12.84,5.49c0.65,0.62,1.13,1.14,1.45,1.56c0.32,0.42,0.62,0.91,0.88,1.49
			c0.5,1,0.83,1.87,0.97,2.58c0.14,0.72,0.21,1.47,0.21,2.26v0.68c-0.05,1-0.18,1.9-0.39,2.67c-0.21,0.78-0.6,1.7-1.15,2.78
			c-1.03,2.08-2.69,4.32-4.99,6.71c-2.99,3.18-7.02,6.22-12.09,9.11c-0.72,0.43-1.34,0.81-1.88,1.15s-0.86,0.54-0.95,0.61
			C428.27,515.45,428.06,515.75,427.96,516.1z M427.96,505.5c0.5,0,1.17-0.26,2.01-0.79c1.79-1.1,3.59-2.44,5.4-4.02
			c1.8-1.58,3.25-3.06,4.32-4.45c1.34-1.72,2.01-3.22,2.01-4.48c0-0.93-0.36-1.73-1.08-2.4c-1.08-1.34-3.99-2.47-8.75-3.41
			c-1.46-0.31-2.37-0.47-2.74-0.48c-0.37-0.01-0.58-0.02-0.63-0.02c-0.6,0-1.02,0.11-1.25,0.32c-0.22,0.14-0.38,0.34-0.48,0.57
			c-0.11,0.24-0.19,0.66-0.23,1.26s-0.07,1.51-0.07,2.73c0,1.24,0.02,2.93,0.07,5.06c0.02,2.27,0.06,4.23,0.11,5.86
			c0.05,1.64,0.1,2.59,0.14,2.85C426.9,505.03,427.29,505.5,427.96,505.5z M463.04,498.65c0.02-1.46,0.07-3.18,0.13-5.17
			c0.06-1.98,0.12-3.72,0.18-5.22c0.06-1.49,0.13-2.37,0.2-2.64c0.19-0.72,0.74-1.21,1.65-1.47c0.19-0.05,0.7-0.11,1.52-0.18
			c0.83-0.07,1.76-0.13,2.82-0.18c2.1-0.09,3.72-0.18,4.86-0.25c1.14-0.07,1.97-0.16,2.49-0.25c0.53-0.09,0.93-0.2,1.22-0.32
			c1.32-0.65,2.1-1.59,2.37-2.83c0.05-0.24,0.07-0.48,0.07-0.72c0-1-0.39-1.92-1.18-2.76c-0.5-0.53-1.08-0.87-1.72-1.04
			c-0.57-0.14-1.47-0.21-2.69-0.21h-0.54c-1.27,0-2.7,0.08-4.3,0.25c-1.6,0.17-3.65,0.44-6.13,0.83c-1.51,0.24-2.67,0.45-3.48,0.63
			c-0.81,0.18-1.43,0.38-1.85,0.61c-0.42,0.23-0.81,0.53-1.17,0.91c-0.38,0.36-0.68,0.81-0.9,1.36c-0.21,0.55-0.41,1.43-0.57,2.65
			s-0.36,2.99-0.57,5.31c-0.5,5.48-0.75,10.49-0.75,15.03c0,4.95,0.3,9.36,0.9,13.24c1.29,7.7,4.12,12.12,8.5,13.27
			c0.74,0.17,1.49,0.25,2.26,0.25c1.96,0,4.07-0.51,6.31-1.54c0.65-0.33,1.57-0.88,2.78-1.65c1.21-0.76,2.37-1.54,3.5-2.31
			c1.12-0.78,1.9-1.36,2.33-1.74c0.88-0.81,1.33-1.78,1.33-2.91c0-0.14-0.01-0.29-0.04-0.43c-0.07-1.41-0.75-2.43-2.04-3.05
			c-0.36-0.21-0.67-0.35-0.93-0.39c-0.17-0.05-0.36-0.07-0.57-0.07c-0.17,0-0.35,0.01-0.54,0.04c-0.46,0-0.9,0.08-1.33,0.23
			c-0.43,0.16-0.99,0.44-1.69,0.84c-0.69,0.41-1.65,1.02-2.87,1.83c-0.84,0.55-1.62,1.05-2.35,1.49s-1.25,0.72-1.56,0.84
			c-0.53,0.21-1,0.32-1.43,0.32c-0.57,0-1.14-0.26-1.7-0.79c-0.56-0.53-1.03-1.77-1.42-3.73c-0.1-0.41-0.16-0.72-0.18-0.93v-0.32
			c0-0.1,0-0.2,0.02-0.3c0.01-0.11,0.05-0.25,0.12-0.41c0.07-0.17,0.17-0.33,0.31-0.5c0.13-0.17,0.26-0.3,0.38-0.39
			c0.14-0.07,0.48-0.17,1-0.3c0.53-0.13,1.11-0.27,1.76-0.41c2.46-0.43,4.23-0.77,5.29-1c1.06-0.24,1.8-0.45,2.21-0.65
			c1.91-0.93,2.87-2.21,2.87-3.84c0-0.33-0.05-0.69-0.14-1.08c-0.31-1.03-0.99-1.82-2.04-2.37c-0.43-0.26-1-0.39-1.72-0.39
			c-0.14,0-0.5,0.03-1.08,0.09c-0.57,0.06-1.88,0.34-3.91,0.84c-1.36,0.33-2.4,0.56-3.12,0.68c-0.55,0.1-0.99,0.14-1.33,0.14
			c-0.1,0-0.25-0.01-0.47-0.04c-0.21-0.02-0.41-0.14-0.57-0.36c-0.14-0.14-0.25-0.29-0.3-0.43c-0.06-0.14-0.1-0.36-0.13-0.65
			c-0.02-0.29-0.05-0.72-0.07-1.29v-0.9C463.01,501.19,463.02,500.11,463.04,498.65z M513.51,517.16c1-3.8,1.72-9.24,2.15-16.32
			c0.1-1.72,0.17-4.08,0.21-7.07s0.07-5.8,0.07-8.43c0-2.63-0.04-4.27-0.11-4.91c-0.24-1.51-0.86-2.61-1.87-3.3
			c-0.31-0.24-0.59-0.38-0.83-0.43s-0.65-0.07-1.22-0.07c-0.6,0-1.02,0.03-1.27,0.09c-0.25,0.06-0.54,0.2-0.88,0.41
			c-1.1,0.67-1.76,1.84-1.97,3.51c-0.05,0.38-0.08,1.36-0.11,2.92s-0.04,3.28-0.04,5.15c-0.05,22.29-2.42,33.43-7.1,33.43
			c-0.98,0-1.96-0.56-2.94-1.69c-0.98-1.12-1.72-2.56-2.22-4.3c-1.39-4.59-2.18-12.78-2.37-24.57c-0.05-2.37-0.1-4.42-0.16-6.17
			c-0.06-1.75-0.1-2.77-0.13-3.08c-0.17-1.72-0.9-2.87-2.19-3.44c-0.48-0.21-0.95-0.32-1.4-0.32s-1.01,0.16-1.67,0.48
			c-0.66,0.32-1.2,1.01-1.63,2.06c-0.1,0.24-0.18,0.57-0.25,1c-0.07,0.43-0.14,1.09-0.2,1.99c-0.06,0.9-0.14,2.15-0.23,3.75
			c-0.17,2.77-0.25,5.43-0.25,7.96c0,2.99,0.12,5.81,0.36,8.47c0.53,6.31,1.3,11.15,2.33,14.53c1.03,3.37,2.55,6.01,4.56,7.93
			c2.03,2.01,4.27,3.29,6.71,3.84c0.65,0.12,1.27,0.18,1.87,0.18c2.73,0,5.31-1.18,7.75-3.55
			C510.66,525.14,512.34,521.79,513.51,517.16z M530.83,494.81c0,8.32,0.55,16.93,1.65,25.83c0.43,3.42,0.88,5.8,1.35,7.16
			c0.47,1.35,1.17,2.22,2.1,2.6c0.57,0.26,1.15,0.39,1.72,0.39c0.29,0,0.74-0.07,1.34-0.21c0.61-0.14,1.2-0.57,1.78-1.29
			c0.48-0.57,0.74-1.22,0.79-1.94c0.02-0.14,0.04-0.32,0.04-0.54c0-0.72-0.11-1.72-0.32-3.01c-1.24-7.6-2.02-17.54-2.33-29.81
			c-0.05-1.67-0.08-3.01-0.11-4.02c-0.02-1-0.04-1.76-0.04-2.26s0.02-0.87,0.05-1.09c0.04-0.23,0.09-0.4,0.16-0.52
			c0.12-0.31,0.32-0.55,0.59-0.72c0.27-0.17,0.75-0.29,1.42-0.36c0.67-0.07,1.65-0.14,2.94-0.21c1.41-0.05,2.52-0.1,3.32-0.16
			c0.8-0.06,1.4-0.12,1.79-0.18s0.74-0.15,1.02-0.27c1.75-0.81,2.65-2,2.73-3.55v-0.14c0-1.51-0.81-2.7-2.44-3.59
			c-0.24-0.09-0.49-0.17-0.75-0.21c-0.26-0.05-0.69-0.08-1.29-0.09c-0.6-0.01-1.51-0.02-2.73-0.02c-6.31,0.07-13.18,0.66-20.59,1.76
			c-1.63,0.24-2.84,0.54-3.64,0.91c-0.8,0.37-1.38,0.89-1.74,1.56c-0.31,0.57-0.47,1.16-0.47,1.76c0,0.36,0.11,0.87,0.32,1.52
			c0.22,0.66,0.81,1.2,1.79,1.63c0.36,0.17,0.93,0.25,1.72,0.25h0.36c0.79,0,1.87-0.06,3.23-0.18c0.74-0.05,1.36-0.07,1.87-0.07
			c0.38,0,0.78,0.03,1.18,0.09c0.41,0.06,0.72,0.28,0.93,0.66c0.07,0.1,0.12,0.23,0.16,0.41c0.04,0.18,0.06,0.48,0.07,0.9
			c0.01,0.42,0.02,1.03,0.02,1.83s0,1.86,0,3.17V494.81z M604.15,486.09c0.12-0.31,0.32-0.55,0.59-0.72
			c0.27-0.17,0.75-0.29,1.42-0.36c0.67-0.07,1.65-0.14,2.94-0.21c1.41-0.05,2.52-0.1,3.32-0.16c0.8-0.06,1.4-0.12,1.79-0.18
			s0.74-0.15,1.02-0.27c1.75-0.81,2.65-2,2.73-3.55v-0.14c0-1.51-0.81-2.7-2.44-3.59c-0.24-0.09-0.49-0.17-0.75-0.21
			c-0.26-0.05-0.69-0.08-1.29-0.09c-0.6-0.01-1.51-0.02-2.73-0.02c-6.31,0.07-13.18,0.66-20.59,1.76c-1.63,0.24-2.84,0.54-3.64,0.91
			c-0.8,0.37-1.38,0.89-1.74,1.56c-0.31,0.57-0.47,1.16-0.47,1.76c0,0.36,0.11,0.87,0.32,1.52c0.22,0.66,0.81,1.2,1.79,1.63
			c0.36,0.17,0.93,0.25,1.72,0.25h0.36c0.79,0,1.87-0.06,3.23-0.18c0.74-0.05,1.36-0.07,1.87-0.07c0.38,0,0.78,0.03,1.18,0.09
			c0.41,0.06,0.72,0.28,0.93,0.66c0.07,0.1,0.12,0.23,0.16,0.41c0.04,0.18,0.06,0.48,0.07,0.9c0.01,0.42,0.02,1.03,0.02,1.83
			s0,1.86,0,3.17v2.01c0,8.32,0.55,16.93,1.65,25.83c0.43,3.42,0.88,5.8,1.35,7.16c0.47,1.35,1.17,2.22,2.1,2.6
			c0.57,0.26,1.15,0.39,1.72,0.39c0.29,0,0.74-0.07,1.34-0.21c0.61-0.14,1.2-0.57,1.78-1.29c0.48-0.57,0.74-1.22,0.79-1.94
			c0.02-0.14,0.04-0.32,0.04-0.54c0-0.72-0.11-1.72-0.32-3.01c-1.24-7.6-2.02-17.54-2.33-29.81c-0.05-1.67-0.08-3.01-0.11-4.02
			c-0.02-1-0.04-1.76-0.04-2.26s0.02-0.87,0.05-1.09C604.02,486.39,604.08,486.21,604.15,486.09z M629.69,529.49
			c0.74,0.17,1.49,0.25,2.26,0.25c1.96,0,4.07-0.51,6.31-1.54c0.65-0.33,1.57-0.88,2.78-1.65c1.21-0.76,2.37-1.54,3.5-2.31
			c1.12-0.78,1.9-1.36,2.33-1.74c0.88-0.81,1.33-1.78,1.33-2.91c0-0.14-0.01-0.29-0.04-0.43c-0.07-1.41-0.75-2.43-2.04-3.05
			c-0.36-0.21-0.67-0.35-0.93-0.39c-0.17-0.05-0.36-0.07-0.57-0.07c-0.17,0-0.35,0.01-0.54,0.04c-0.46,0-0.9,0.08-1.33,0.23
			c-0.43,0.16-0.99,0.44-1.69,0.84c-0.69,0.41-1.65,1.02-2.87,1.83c-0.84,0.55-1.62,1.05-2.35,1.49s-1.25,0.72-1.56,0.84
			c-0.53,0.21-1,0.32-1.43,0.32c-0.57,0-1.14-0.26-1.7-0.79c-0.56-0.53-1.03-1.77-1.42-3.73c-0.1-0.41-0.16-0.72-0.18-0.93v-0.32
			c0-0.1,0-0.2,0.02-0.3c0.01-0.11,0.05-0.25,0.12-0.41c0.07-0.17,0.17-0.33,0.31-0.5c0.13-0.17,0.26-0.3,0.38-0.39
			c0.14-0.07,0.48-0.17,1-0.3c0.53-0.13,1.11-0.27,1.76-0.41c2.46-0.43,4.23-0.77,5.29-1c1.06-0.24,1.8-0.45,2.21-0.65
			c1.91-0.93,2.87-2.21,2.87-3.84c0-0.33-0.05-0.69-0.14-1.08c-0.31-1.03-0.99-1.82-2.04-2.37c-0.43-0.26-1-0.39-1.72-0.39
			c-0.14,0-0.5,0.03-1.08,0.09c-0.57,0.06-1.88,0.34-3.91,0.84c-1.36,0.33-2.4,0.56-3.12,0.68c-0.55,0.1-0.99,0.14-1.33,0.14
			c-0.1,0-0.25-0.01-0.47-0.04c-0.21-0.02-0.41-0.14-0.57-0.36c-0.14-0.14-0.25-0.29-0.3-0.43c-0.06-0.14-0.1-0.36-0.13-0.65
			c-0.02-0.29-0.05-0.72-0.07-1.29v-0.9c0-0.72,0.01-1.81,0.04-3.26c0.02-1.46,0.07-3.18,0.13-5.17c0.06-1.98,0.12-3.72,0.18-5.22
			c0.06-1.49,0.13-2.37,0.2-2.64c0.19-0.72,0.74-1.21,1.65-1.47c0.19-0.05,0.7-0.11,1.52-0.18c0.83-0.07,1.76-0.13,2.82-0.18
			c2.1-0.09,3.72-0.18,4.86-0.25c1.14-0.07,1.97-0.16,2.49-0.25c0.53-0.09,0.93-0.2,1.22-0.32c1.32-0.65,2.1-1.59,2.37-2.83
			c0.05-0.24,0.07-0.48,0.07-0.72c0-1-0.39-1.92-1.18-2.76c-0.5-0.53-1.08-0.87-1.72-1.04c-0.57-0.14-1.47-0.21-2.69-0.21h-0.54
			c-1.27,0-2.7,0.08-4.3,0.25c-1.6,0.17-3.65,0.44-6.13,0.83c-1.51,0.24-2.67,0.45-3.48,0.63c-0.81,0.18-1.43,0.38-1.85,0.61
			c-0.42,0.23-0.81,0.53-1.17,0.91c-0.38,0.36-0.68,0.81-0.9,1.36c-0.21,0.55-0.41,1.43-0.57,2.65s-0.36,2.99-0.57,5.31
			c-0.5,5.48-0.75,10.49-0.75,15.03c0,4.95,0.3,9.36,0.9,13.24C622.48,523.92,625.31,528.35,629.69,529.49z M665.23,516.4
			c-0.62,1.15-1.81,2.22-3.55,3.21c-1.75,0.99-3.62,1.66-5.63,1.99c-2.44,0.36-3.84,1.4-4.2,3.12c-0.05,0.26-0.07,0.53-0.07,0.79
			c0,0.65,0.2,1.33,0.59,2.06c0.4,0.73,1.05,1.31,1.96,1.74c0.69,0.26,1.47,0.39,2.33,0.39c2.1,0,4.72-0.75,7.85-2.26
			c5.04-2.61,8.12-5.87,9.22-9.79c0.09-0.41,0.16-0.84,0.18-1.29c0.02-0.31,0.04-0.66,0.04-1.04v-0.65
			c-0.02-1.08-0.17-2.04-0.43-2.89c-0.26-0.85-0.69-1.74-1.29-2.67c-0.98-1.65-2.4-3.18-4.27-4.59s-4.67-3.1-8.43-5.06
			c-1.79-0.96-3.16-1.7-4.11-2.22s-1.61-0.95-2.01-1.27c-0.39-0.32-0.66-0.64-0.81-0.95c-0.19-0.31-0.29-0.65-0.29-1
			c0-1.27,1.18-2.86,3.55-4.77c2.94-2.42,5.51-3.79,7.71-4.12c0.31-0.05,0.63-0.1,0.97-0.16s0.59-0.11,0.75-0.16
			c1.22-0.43,2-1.21,2.33-2.33c0.09-0.31,0.14-0.62,0.14-0.93c0-0.79-0.29-1.55-0.86-2.29c-0.96-1.08-2.26-1.61-3.91-1.61
			c-1.05,0-2.25,0.21-3.59,0.65c-1.03,0.36-2.26,0.9-3.69,1.61c-1.44,0.72-2.67,1.4-3.69,2.04c-1.58,1.08-3.03,2.34-4.36,3.78
			c-1.33,1.45-2.31,2.86-2.96,4.25c-0.67,1.55-1,3.04-1,4.45c0,2.65,1.21,5.08,3.62,7.28c0.53,0.46,1.09,0.89,1.7,1.31
			c0.61,0.42,1.55,0.97,2.82,1.67c1.27,0.69,3.14,1.7,5.63,3.01c2.73,1.46,4.72,2.74,5.97,3.84c1.25,1.1,1.95,2.16,2.1,3.19
			c0.02,0.14,0.04,0.27,0.04,0.39s-0.02,0.27-0.05,0.45C665.5,515.74,665.4,516.02,665.23,516.4z M691.99,486.09
			c0.12-0.31,0.32-0.55,0.59-0.72c0.27-0.17,0.75-0.29,1.42-0.36c0.67-0.07,1.65-0.14,2.94-0.21c1.41-0.05,2.52-0.1,3.32-0.16
			c0.8-0.06,1.4-0.12,1.79-0.18s0.74-0.15,1.02-0.27c1.75-0.81,2.65-2,2.73-3.55v-0.14c0-1.51-0.81-2.7-2.44-3.59
			c-0.24-0.09-0.49-0.17-0.75-0.21c-0.26-0.05-0.69-0.08-1.29-0.09c-0.6-0.01-1.51-0.02-2.73-0.02c-6.31,0.07-13.18,0.66-20.59,1.76
			c-1.63,0.24-2.84,0.54-3.64,0.91c-0.8,0.37-1.38,0.89-1.74,1.56c-0.31,0.57-0.47,1.16-0.47,1.76c0,0.36,0.11,0.87,0.32,1.52
			c0.22,0.66,0.81,1.2,1.79,1.63c0.36,0.17,0.93,0.25,1.72,0.25h0.36c0.79,0,1.87-0.06,3.23-0.18c0.74-0.05,1.36-0.07,1.87-0.07
			c0.38,0,0.78,0.03,1.18,0.09c0.41,0.06,0.72,0.28,0.93,0.66c0.07,0.1,0.12,0.23,0.16,0.41c0.04,0.18,0.06,0.48,0.07,0.9
			c0.01,0.42,0.02,1.03,0.02,1.83s0,1.86,0,3.17v2.01c0,8.32,0.55,16.93,1.65,25.83c0.43,3.42,0.88,5.8,1.35,7.16
			c0.47,1.35,1.17,2.22,2.1,2.6c0.57,0.26,1.15,0.39,1.72,0.39c0.29,0,0.74-0.07,1.34-0.21c0.61-0.14,1.2-0.57,1.78-1.29
			c0.48-0.57,0.74-1.22,0.79-1.94c0.02-0.14,0.04-0.32,0.04-0.54c0-0.72-0.11-1.72-0.32-3.01c-1.24-7.6-2.02-17.54-2.33-29.81
			c-0.05-1.67-0.08-3.01-0.11-4.02c-0.02-1-0.04-1.76-0.04-2.26s0.02-0.87,0.05-1.09C691.86,486.39,691.92,486.21,691.99,486.09z
			 M733.96,516.12c-0.36-0.21-0.67-0.35-0.93-0.39c-0.17-0.05-0.36-0.07-0.57-0.07c-0.17,0-0.35,0.01-0.54,0.04
			c-0.46,0-0.9,0.08-1.33,0.23c-0.43,0.16-0.99,0.44-1.69,0.84c-0.69,0.41-1.65,1.02-2.87,1.83c-0.84,0.55-1.62,1.05-2.35,1.49
			s-1.25,0.72-1.56,0.84c-0.53,0.21-1,0.32-1.43,0.32c-0.57,0-1.14-0.26-1.7-0.79c-0.56-0.53-1.03-1.77-1.42-3.73
			c-0.1-0.41-0.16-0.72-0.18-0.93v-0.32c0-0.1,0-0.2,0.02-0.3c0.01-0.11,0.05-0.25,0.12-0.41c0.07-0.17,0.17-0.33,0.31-0.5
			c0.13-0.17,0.26-0.3,0.38-0.39c0.14-0.07,0.48-0.17,1-0.3c0.53-0.13,1.11-0.27,1.76-0.41c2.46-0.43,4.23-0.77,5.29-1
			c1.06-0.24,1.8-0.45,2.21-0.65c1.91-0.93,2.87-2.21,2.87-3.84c0-0.33-0.05-0.69-0.14-1.08c-0.31-1.03-0.99-1.82-2.04-2.37
			c-0.43-0.26-1-0.39-1.72-0.39c-0.14,0-0.5,0.03-1.08,0.09c-0.57,0.06-1.88,0.34-3.91,0.84c-1.36,0.33-2.4,0.56-3.12,0.68
			c-0.55,0.1-0.99,0.14-1.33,0.14c-0.1,0-0.25-0.01-0.47-0.04c-0.21-0.02-0.41-0.14-0.57-0.36c-0.14-0.14-0.25-0.29-0.3-0.43
			c-0.06-0.14-0.1-0.36-0.13-0.65c-0.02-0.29-0.05-0.72-0.07-1.29v-0.9c0-0.72,0.01-1.81,0.04-3.26c0.02-1.46,0.07-3.18,0.13-5.17
			c0.06-1.98,0.12-3.72,0.18-5.22c0.06-1.49,0.13-2.37,0.2-2.64c0.19-0.72,0.74-1.21,1.65-1.47c0.19-0.05,0.7-0.11,1.52-0.18
			c0.83-0.07,1.76-0.13,2.82-0.18c2.1-0.09,3.72-0.18,4.86-0.25c1.14-0.07,1.97-0.16,2.49-0.25c0.53-0.09,0.93-0.2,1.22-0.32
			c1.32-0.65,2.1-1.59,2.37-2.83c0.05-0.24,0.07-0.48,0.07-0.72c0-1-0.39-1.92-1.18-2.76c-0.5-0.53-1.08-0.87-1.72-1.04
			c-0.57-0.14-1.47-0.21-2.69-0.21h-0.54c-1.27,0-2.7,0.08-4.3,0.25c-1.6,0.17-3.65,0.44-6.13,0.83c-1.51,0.24-2.67,0.45-3.48,0.63
			c-0.81,0.18-1.43,0.38-1.85,0.61c-0.42,0.23-0.81,0.53-1.17,0.91c-0.38,0.36-0.68,0.81-0.9,1.36c-0.21,0.55-0.41,1.43-0.57,2.65
			s-0.36,2.99-0.57,5.31c-0.5,5.48-0.75,10.49-0.75,15.03c0,4.95,0.3,9.36,0.9,13.24c1.29,7.7,4.12,12.12,8.5,13.27
			c0.74,0.17,1.49,0.25,2.26,0.25c1.96,0,4.07-0.51,6.31-1.54c0.65-0.33,1.57-0.88,2.78-1.65c1.21-0.76,2.37-1.54,3.5-2.31
			c1.12-0.78,1.9-1.36,2.33-1.74c0.88-0.81,1.33-1.78,1.33-2.91c0-0.14-0.01-0.29-0.04-0.43
			C735.93,517.75,735.25,516.74,733.96,516.12z M768.07,517.55c0,0.55-0.12,1.09-0.36,1.61c-0.41,0.84-1.06,1.46-1.97,1.87
			c-0.36,0.17-0.81,0.25-1.36,0.25c-0.89,0-2.03-0.21-3.44-0.65c-1.08-0.33-2.31-0.67-3.69-1c-1.39-0.33-2.67-0.63-3.84-0.88
			s-1.92-0.38-2.26-0.38c-0.77,0-1.2,0.18-1.29,0.54s-0.14,0.69-0.14,1c0,0.65,0.11,1.58,0.32,2.8c0.24,1.41,0.37,2.33,0.39,2.76
			c0.02,0.43,0.04,0.73,0.04,0.9c0,0.5-0.06,0.92-0.18,1.25c-0.12,0.43-0.38,0.87-0.79,1.33c-0.41,0.45-0.85,0.8-1.33,1.04
			c-0.48,0.19-1.02,0.29-1.61,0.29c-0.57,0-1.11-0.1-1.61-0.29c-0.93-0.48-1.64-1.23-2.12-2.26c-0.62-1.6-1.29-5.26-1.99-10.98
			c-0.71-5.71-1.27-11.97-1.7-18.76c-0.12-1.91-0.18-3.32-0.18-4.23c0-0.91,0-1.57,0-1.97c0-1.27,0.02-2.77,0.07-4.52
			c0.05-2.2,0.11-3.81,0.18-4.82c0.07-1.02,0.21-1.72,0.43-2.12c0.21-0.39,0.55-0.78,1-1.17c1.34-1.24,3.74-1.92,7.21-2.04
			c0.36-0.02,0.7-0.04,1.04-0.04c4.88,0,9.07,1.28,12.59,3.84c2.7,2.08,4.4,4.85,5.09,8.32c0.14,0.86,0.21,1.72,0.21,2.58
			c0,4.76-2.07,9.63-6.21,14.6c-0.38,0.46-0.77,0.92-1.17,1.38c-0.39,0.47-0.7,0.82-0.92,1.06c-0.48,0.53-0.72,0.99-0.72,1.4
			c0,0.29,0.13,0.54,0.39,0.75c0.29,0.26,1.27,0.62,2.94,1.08c2.22,0.6,3.85,1.23,4.88,1.9c1.03,0.67,1.67,1.48,1.94,2.44
			C768.02,516.82,768.07,517.19,768.07,517.55z M758.2,494.16c0.17-0.69,0.25-1.42,0.25-2.19c0-0.77-0.1-1.44-0.29-2.01
			c-0.41-1.2-1.35-2.24-2.83-3.14c-1.48-0.9-3.28-1.5-5.38-1.81c-0.46-0.07-0.75-0.11-0.9-0.11s-0.25,0-0.32,0
			c-0.14,0-0.28,0.01-0.39,0.04c-0.14,0.02-0.32,0.08-0.54,0.18c-0.02,0.02-0.06,0.05-0.11,0.07c-0.26,0.1-0.47,0.24-0.61,0.43
			c-0.14,0.19-0.22,0.48-0.23,0.86c-0.01,0.38-0.02,0.71-0.02,0.97c0,0.53,0.01,1.21,0.04,2.04c0.07,1.27,0.18,3.01,0.32,5.24
			c0,0.33,0.01,0.68,0.04,1.04c0.14,2.18,0.26,3.9,0.34,5.18c0.08,1.28,0.17,2.24,0.27,2.87c0.09,0.63,0.2,1.07,0.3,1.31
			c0.11,0.24,0.24,0.39,0.41,0.47c0.12,0.1,0.21,0.14,0.29,0.14c0.07,0,0.13,0,0.18,0h0.18l0.54-0.21c0.29-0.12,0.77-0.5,1.45-1.15
			s1.4-1.38,2.15-2.19c0.75-0.81,1.37-1.54,1.85-2.19c0.65-0.88,1.25-1.89,1.83-3.01S757.99,494.93,758.2,494.16z M243.91,608.63
			c0.43,0.05,0.86,0.07,1.29,0.07c1.03,0,2.14-0.14,3.34-0.43c0.81-0.17,1.65-0.42,2.51-0.77c0.86-0.35,2.14-0.93,3.84-1.74
			c0.81-0.38,1.64-0.77,2.49-1.17s1.52-0.71,2.03-0.95c1-0.45,1.73-0.85,2.19-1.18c0.45-0.33,0.8-0.73,1.04-1.18
			c0.38-0.72,0.57-1.41,0.57-2.08c0-0.88-0.33-1.73-1-2.55c-0.69-0.86-1.65-1.29-2.87-1.29c-0.14,0-0.3,0.01-0.47,0.04
			c-0.6,0.02-1.39,0.23-2.37,0.61c-0.98,0.38-2.61,1.11-4.88,2.19c-0.84,0.41-1.64,0.78-2.42,1.11s-1.33,0.56-1.67,0.68
			c-0.57,0.19-1.14,0.29-1.69,0.29c-0.05,0-0.24-0.01-0.57-0.02c-0.33-0.01-0.68-0.15-1.04-0.41c-0.77-0.6-1.38-1.85-1.83-3.77
			c-0.1-0.45-0.17-0.94-0.23-1.47c-0.06-0.53-0.1-1.34-0.11-2.44s-0.02-2.81-0.02-5.13c0-5.07,0.11-8.81,0.32-11.23
			c0.24-3.35,0.47-6.47,0.68-9.36c0.22-2.89,0.35-4.81,0.39-5.74c0.02-0.45,0.04-0.81,0.04-1.08s-0.02-0.49-0.07-0.68
			c-0.05-0.19-0.13-0.39-0.25-0.61c-0.36-0.72-0.91-1.24-1.65-1.58c-0.46-0.21-0.92-0.32-1.4-0.32c-0.26,0-0.54,0.04-0.82,0.11
			c-1.63,0.48-2.68,1.71-3.16,3.69c-0.1,0.43-0.26,1.45-0.5,3.05c-0.24,1.6-0.48,3.29-0.72,5.06c-0.24,1.77-0.41,3.12-0.5,4.05
			c-0.17,1.46-0.32,3.42-0.45,5.88c-0.13,2.46-0.22,4.84-0.27,7.14c-0.02,1-0.04,1.97-0.04,2.91c0,5.43,0.48,9.48,1.43,12.16
			C236.74,605.32,239.68,608.04,243.91,608.63z M277.67,609.75c1.96,0,4.07-0.51,6.31-1.54c0.65-0.33,1.57-0.88,2.78-1.65
			c1.21-0.76,2.37-1.54,3.5-2.31c1.12-0.78,1.9-1.36,2.33-1.74c0.88-0.81,1.33-1.78,1.33-2.91c0-0.14-0.01-0.29-0.04-0.43
			c-0.07-1.41-0.75-2.43-2.04-3.05c-0.36-0.21-0.67-0.35-0.93-0.39c-0.17-0.05-0.36-0.07-0.57-0.07c-0.17,0-0.35,0.01-0.54,0.04
			c-0.46,0-0.9,0.08-1.33,0.23c-0.43,0.16-0.99,0.44-1.69,0.84c-0.69,0.41-1.65,1.02-2.87,1.83c-0.84,0.55-1.62,1.05-2.35,1.49
			s-1.25,0.72-1.56,0.84c-0.53,0.21-1,0.32-1.43,0.32c-0.57,0-1.14-0.26-1.7-0.79c-0.56-0.53-1.03-1.77-1.42-3.73
			c-0.1-0.41-0.16-0.72-0.18-0.93v-0.32c0-0.1,0-0.2,0.02-0.3c0.01-0.11,0.05-0.25,0.12-0.41c0.07-0.17,0.17-0.33,0.31-0.5
			c0.13-0.17,0.26-0.3,0.38-0.39c0.14-0.07,0.48-0.17,1-0.3c0.53-0.13,1.11-0.27,1.76-0.41c2.46-0.43,4.23-0.77,5.29-1
			c1.06-0.24,1.8-0.45,2.21-0.65c1.91-0.93,2.87-2.21,2.87-3.84c0-0.33-0.05-0.69-0.14-1.08c-0.31-1.03-0.99-1.82-2.04-2.37
			c-0.43-0.26-1-0.39-1.72-0.39c-0.14,0-0.5,0.03-1.08,0.09c-0.57,0.06-1.88,0.34-3.91,0.84c-1.36,0.33-2.4,0.56-3.12,0.68
			c-0.55,0.1-0.99,0.14-1.33,0.14c-0.1,0-0.25-0.01-0.47-0.04c-0.21-0.02-0.41-0.14-0.57-0.36c-0.14-0.14-0.25-0.29-0.3-0.43
			c-0.06-0.14-0.1-0.36-0.13-0.65c-0.02-0.29-0.05-0.72-0.07-1.29v-0.9c0-0.72,0.01-1.8,0.04-3.26c0.02-1.46,0.07-3.18,0.13-5.17
			c0.06-1.98,0.12-3.72,0.18-5.22c0.06-1.49,0.13-2.37,0.2-2.64c0.19-0.72,0.74-1.21,1.65-1.47c0.19-0.05,0.7-0.11,1.52-0.18
			c0.83-0.07,1.76-0.13,2.82-0.18c2.1-0.09,3.72-0.18,4.86-0.25c1.14-0.07,1.97-0.16,2.49-0.25c0.53-0.09,0.93-0.2,1.22-0.32
			c1.32-0.65,2.1-1.59,2.37-2.83c0.05-0.24,0.07-0.48,0.07-0.72c0-1-0.39-1.92-1.18-2.76c-0.5-0.53-1.08-0.87-1.72-1.04
			c-0.57-0.14-1.47-0.21-2.69-0.21h-0.54c-1.27,0-2.7,0.08-4.3,0.25c-1.6,0.17-3.65,0.44-6.13,0.83c-1.51,0.24-2.67,0.45-3.48,0.63
			c-0.81,0.18-1.43,0.38-1.85,0.61c-0.42,0.23-0.81,0.53-1.17,0.91c-0.38,0.36-0.68,0.81-0.9,1.36c-0.21,0.55-0.41,1.43-0.57,2.65
			s-0.36,2.99-0.57,5.31c-0.5,5.48-0.75,10.49-0.75,15.03c0,4.95,0.3,9.36,0.9,13.24c1.29,7.7,4.12,12.12,8.5,13.27
			C276.15,609.66,276.9,609.75,277.67,609.75z M317.95,589.12c-0.98-1.65-2.4-3.18-4.27-4.59s-4.67-3.1-8.43-5.06
			c-1.79-0.96-3.16-1.7-4.11-2.22s-1.61-0.95-2.01-1.27c-0.39-0.32-0.66-0.64-0.81-0.95c-0.19-0.31-0.29-0.65-0.29-1
			c0-1.27,1.18-2.86,3.55-4.77c2.94-2.42,5.51-3.79,7.71-4.12c0.31-0.05,0.63-0.1,0.97-0.16s0.59-0.11,0.75-0.16
			c1.22-0.43,2-1.21,2.33-2.33c0.09-0.31,0.14-0.62,0.14-0.93c0-0.79-0.29-1.55-0.86-2.29c-0.96-1.08-2.26-1.61-3.91-1.61
			c-1.05,0-2.25,0.21-3.59,0.65c-1.03,0.36-2.26,0.9-3.69,1.61c-1.44,0.72-2.67,1.4-3.69,2.04c-1.58,1.08-3.03,2.34-4.36,3.78
			c-1.33,1.45-2.31,2.86-2.96,4.25c-0.67,1.55-1,3.04-1,4.45c0,2.65,1.21,5.08,3.62,7.28c0.53,0.46,1.09,0.89,1.7,1.31
			c0.61,0.42,1.55,0.97,2.82,1.67c1.27,0.69,3.14,1.7,5.63,3.01c2.73,1.46,4.72,2.74,5.97,3.84c1.25,1.1,1.95,2.16,2.1,3.19
			c0.02,0.14,0.04,0.27,0.04,0.39s-0.02,0.27-0.05,0.45c-0.04,0.18-0.14,0.46-0.3,0.84c-0.62,1.15-1.81,2.22-3.55,3.21
			c-1.75,0.99-3.62,1.66-5.63,1.99c-2.44,0.36-3.84,1.4-4.2,3.12c-0.05,0.26-0.07,0.53-0.07,0.79c0,0.65,0.2,1.33,0.59,2.06
			c0.4,0.73,1.05,1.31,1.96,1.74c0.69,0.26,1.47,0.39,2.33,0.39c2.1,0,4.72-0.75,7.85-2.26c5.04-2.61,8.12-5.87,9.22-9.79
			c0.09-0.41,0.16-0.84,0.18-1.29c0.02-0.31,0.04-0.66,0.04-1.04v-0.65c-0.02-1.08-0.17-2.04-0.43-2.89
			C318.97,590.94,318.54,590.05,317.95,589.12z M379.71,604.69c4.11-4.4,6.69-10.29,7.75-17.68c0.21-1.58,0.32-3.69,0.32-6.35
			s-0.1-4.96-0.29-6.92c-0.69-5.95-2.06-10.98-4.09-15.06c-0.55-1.15-1.23-1.94-2.04-2.37c-0.62-0.31-1.45-0.47-2.47-0.47
			c-0.31,0-0.63,0.01-0.97,0.04c-1.58,0.1-3.61,0.35-6.1,0.75c-2.49,0.41-4.85,0.85-7.1,1.33c-2.25,0.48-3.8,0.9-4.66,1.26
			c-1.39,0.65-2.28,1.51-2.69,2.58c-0.19,0.5-0.29,0.98-0.29,1.44c0,0.57,0.2,1.24,0.59,2.01c0.39,0.77,1.31,1.32,2.74,1.65
			c0.29,0.05,0.59,0.07,0.9,0.07h0.18c0.29,0,0.69-0.05,1.2-0.14c0.51-0.1,1.3-0.26,2.35-0.5c1.05-0.24,2.44-0.57,4.16-1
			c2.27-0.55,3.98-0.92,5.13-1.11c0.67-0.12,1.22-0.18,1.65-0.18c0.29,0,0.59,0.05,0.91,0.14c0.32,0.1,0.59,0.39,0.81,0.9
			c0.53,1.2,0.97,3.47,1.33,6.81c0.31,2.94,0.47,5.87,0.47,8.79v1.15c-0.05,2.42-0.22,4.46-0.52,6.13c-0.3,1.67-0.8,3.35-1.49,5.02
			c-0.84,2.08-1.83,3.82-2.98,5.22s-2.27,2.27-3.37,2.6c-0.17,0.05-0.35,0.07-0.54,0.07c-0.74,0-1.58-0.43-2.51-1.29
			c-1.12-1.03-2.21-1.54-3.26-1.54h-0.07c-2.42,0.14-3.69,1.45-3.84,3.91c0,1.51,0.79,2.98,2.37,4.41c1.7,1.65,3.62,2.62,5.77,2.91
			c0.38,0.05,0.78,0.07,1.18,0.07c0.6,0,1.36-0.08,2.28-0.23c0.92-0.16,1.87-0.47,2.85-0.95
			C376.78,607.41,378.23,606.27,379.71,604.69z M402.77,578.65c0.02-1.46,0.07-3.18,0.13-5.17c0.06-1.98,0.12-3.72,0.18-5.22
			c0.06-1.49,0.13-2.37,0.2-2.64c0.19-0.72,0.74-1.21,1.65-1.47c0.19-0.05,0.7-0.11,1.52-0.18c0.83-0.07,1.76-0.13,2.82-0.18
			c2.1-0.09,3.72-0.18,4.86-0.25c1.14-0.07,1.97-0.16,2.49-0.25c0.53-0.09,0.93-0.2,1.22-0.32c1.32-0.65,2.1-1.59,2.37-2.83
			c0.05-0.24,0.07-0.48,0.07-0.72c0-1-0.39-1.92-1.18-2.76c-0.5-0.53-1.08-0.87-1.72-1.04c-0.57-0.14-1.47-0.21-2.69-0.21h-0.54
			c-1.27,0-2.7,0.08-4.3,0.25c-1.6,0.17-3.65,0.44-6.13,0.83c-1.51,0.24-2.67,0.45-3.48,0.63c-0.81,0.18-1.43,0.38-1.85,0.61
			c-0.42,0.23-0.81,0.53-1.17,0.91c-0.38,0.36-0.68,0.81-0.9,1.36c-0.21,0.55-0.41,1.43-0.57,2.65s-0.36,2.99-0.57,5.31
			c-0.5,5.48-0.75,10.49-0.75,15.03c0,4.95,0.3,9.36,0.9,13.24c1.29,7.7,4.12,12.12,8.5,13.27c0.74,0.17,1.49,0.25,2.26,0.25
			c1.96,0,4.07-0.51,6.31-1.54c0.65-0.33,1.57-0.88,2.78-1.65c1.21-0.76,2.37-1.54,3.5-2.31c1.12-0.78,1.9-1.36,2.33-1.74
			c0.88-0.81,1.33-1.78,1.33-2.91c0-0.14-0.01-0.29-0.04-0.43c-0.07-1.41-0.75-2.43-2.04-3.05c-0.36-0.21-0.67-0.35-0.93-0.39
			c-0.17-0.05-0.36-0.07-0.57-0.07c-0.17,0-0.35,0.01-0.54,0.04c-0.46,0-0.9,0.08-1.33,0.23c-0.43,0.16-0.99,0.44-1.69,0.84
			c-0.69,0.41-1.65,1.02-2.87,1.83c-0.84,0.55-1.62,1.05-2.35,1.49s-1.25,0.72-1.56,0.84c-0.53,0.21-1,0.32-1.43,0.32
			c-0.57,0-1.14-0.26-1.7-0.79c-0.56-0.53-1.03-1.77-1.42-3.73c-0.1-0.41-0.16-0.72-0.18-0.93v-0.32c0-0.1,0-0.2,0.02-0.3
			c0.01-0.11,0.05-0.25,0.12-0.41c0.07-0.17,0.17-0.33,0.31-0.5c0.13-0.17,0.26-0.3,0.38-0.39c0.14-0.07,0.48-0.17,1-0.3
			c0.53-0.13,1.11-0.27,1.76-0.41c2.46-0.43,4.23-0.77,5.29-1c1.06-0.24,1.8-0.45,2.21-0.65c1.91-0.93,2.87-2.21,2.87-3.84
			c0-0.33-0.05-0.69-0.14-1.08c-0.31-1.03-0.99-1.82-2.04-2.37c-0.43-0.26-1-0.39-1.72-0.39c-0.14,0-0.5,0.03-1.08,0.09
			c-0.57,0.06-1.88,0.34-3.91,0.84c-1.36,0.33-2.4,0.56-3.12,0.68c-0.55,0.1-0.99,0.14-1.33,0.14c-0.1,0-0.25-0.01-0.47-0.04
			c-0.21-0.02-0.41-0.14-0.57-0.36c-0.14-0.14-0.25-0.29-0.3-0.43c-0.06-0.14-0.1-0.36-0.13-0.65c-0.02-0.29-0.05-0.72-0.07-1.29
			v-0.9C402.74,581.19,402.75,580.11,402.77,578.65z M453.71,557.13c-0.31-0.24-0.59-0.38-0.83-0.43s-0.65-0.07-1.22-0.07
			c-0.6,0-1.02,0.03-1.27,0.09c-0.25,0.06-0.54,0.2-0.88,0.41c-1.1,0.67-1.76,1.84-1.97,3.51c-0.05,0.38-0.08,1.36-0.11,2.92
			s-0.04,3.28-0.04,5.15c-0.05,22.29-2.42,33.43-7.1,33.43c-0.98,0-1.96-0.56-2.94-1.69c-0.98-1.12-1.72-2.56-2.22-4.3
			c-1.39-4.59-2.18-12.78-2.37-24.57c-0.05-2.37-0.1-4.42-0.16-6.17c-0.06-1.75-0.1-2.77-0.13-3.08c-0.17-1.72-0.9-2.87-2.19-3.44
			c-0.48-0.21-0.95-0.32-1.4-0.32s-1.01,0.16-1.67,0.48c-0.66,0.32-1.2,1.01-1.63,2.06c-0.1,0.24-0.18,0.57-0.25,1
			c-0.07,0.43-0.14,1.09-0.2,1.99c-0.06,0.9-0.14,2.15-0.23,3.75c-0.17,2.77-0.25,5.43-0.25,7.96c0,2.99,0.12,5.81,0.36,8.46
			c0.53,6.31,1.3,11.15,2.33,14.53c1.03,3.37,2.55,6.01,4.56,7.93c2.03,2.01,4.27,3.29,6.71,3.84c0.65,0.12,1.27,0.18,1.87,0.18
			c2.73,0,5.31-1.18,7.75-3.55c2.18-2.06,3.85-5.4,5.02-10.04c1-3.8,1.72-9.24,2.15-16.32c0.1-1.72,0.17-4.08,0.21-7.07
			s0.07-5.8,0.07-8.43c0-2.63-0.04-4.27-0.11-4.91C455.33,558.92,454.71,557.82,453.71,557.13z M469.45,605.58
			c0.14-0.22,0.56-0.88,1.26-1.99c0.69-1.11,1.51-2.41,2.44-3.89c0.93-1.51,1.76-2.81,2.47-3.91c0.72-1.1,1.16-1.75,1.33-1.94
			c0.33-0.36,0.72-0.54,1.15-0.54c0.19,0,0.38,0.04,0.57,0.11c0.07,0.02,0.2,0.14,0.38,0.34c0.18,0.2,0.45,0.56,0.83,1.08
			c0.37,0.51,0.88,1.25,1.54,2.21c0.66,0.96,1.5,2.19,2.53,3.69c0.96,1.39,1.82,2.64,2.6,3.75c0.78,1.11,1.29,1.82,1.52,2.13
			c0.84,1.05,1.78,1.72,2.83,2.01c0.29,0.07,0.56,0.11,0.83,0.11c0.41,0,0.88-0.09,1.43-0.27c0.55-0.18,1.05-0.53,1.51-1.06
			c0.62-0.65,0.93-1.53,0.93-2.65c0-0.48-0.1-0.97-0.29-1.49c-0.19-0.51-0.6-1.27-1.24-2.26s-1.57-2.4-2.82-4.21
			c-2.8-4.04-4.8-6.98-6.01-8.81c-1.21-1.83-1.81-2.88-1.81-3.14c-0.05-0.24-0.07-0.47-0.07-0.68c0-0.29,0.05-0.62,0.16-0.99
			c0.11-0.37,0.36-0.89,0.77-1.56c1.31-2.08,3.93-6.05,7.85-11.91c0.93-1.36,1.73-2.58,2.39-3.64c0.66-1.06,1.03-1.72,1.13-1.96
			c0.17-0.53,0.25-1.04,0.25-1.54c0-0.48-0.13-1.06-0.38-1.74s-0.82-1.26-1.7-1.74c-0.6-0.29-1.2-0.43-1.79-0.43
			c-0.84,0-1.67,0.29-2.51,0.86c-0.24,0.19-0.55,0.52-0.93,0.99c-0.38,0.47-0.97,1.27-1.76,2.42c-0.79,1.15-1.93,2.82-3.41,5.02
			c-1.15,1.72-2.16,3.2-3.03,4.45c-0.87,1.24-1.41,1.96-1.6,2.15c-0.36,0.36-0.71,0.54-1.04,0.54c-0.26,0-0.51-0.11-0.75-0.32
			c-0.14-0.12-0.41-0.46-0.79-1.02c-0.38-0.56-0.81-1.23-1.29-1.99c-3.68-5.88-6.47-9.74-8.36-11.58c-0.57-0.53-1.11-0.9-1.6-1.13
			s-1.06-0.36-1.7-0.41h-0.43c-0.24,0-0.47,0.02-0.68,0.05c-0.21,0.04-0.47,0.14-0.75,0.31c-1.12,0.65-1.71,1.61-1.76,2.91
			c0,0.6,0.11,1.13,0.34,1.6c0.23,0.47,0.69,1.13,1.38,1.99c0.36,0.45,0.82,1.11,1.38,1.97c0.56,0.86,1.11,1.73,1.63,2.62
			c0.6,1,1.41,2.37,2.44,4.09c0.81,1.39,1.6,2.73,2.37,4.02l3.01,4.99v1.11c0,0.38-0.02,0.69-0.07,0.91
			c-0.05,0.23-0.18,0.55-0.39,0.97c-0.22,0.42-0.57,1.05-1.08,1.88c-1,1.72-2.24,3.91-3.69,6.56c-1.46,2.65-2.51,4.64-3.16,5.95
			c-0.57,1.17-0.86,2.21-0.86,3.12c0,0.91,0.29,1.69,0.86,2.33c0.79,0.84,1.67,1.26,2.65,1.26c0.09,0,0.43-0.02,1-0.07
			C468.06,607.15,468.71,606.61,469.45,605.58z M565.9,602.97c0.07,0.34,0.11,0.61,0.11,0.83c0,0.12-0.01,0.23-0.04,0.32
			c-0.38,2.2-1.64,3.35-3.77,3.44c-1.15,0-2.14-0.39-2.98-1.18c-0.43-0.38-0.8-0.83-1.11-1.35c-0.31-0.51-0.62-1.22-0.93-2.13
			c-0.31-0.86-0.63-1.48-0.95-1.85c-0.32-0.37-0.74-0.58-1.24-0.63c-0.12-0.02-0.32-0.04-0.61-0.04c-0.46,0-1.09,0.02-1.9,0.07
			c-1.34,0.07-2.77,0.16-4.29,0.27s-2.66,0.21-3.43,0.3c-1.08,0.12-1.81,0.39-2.21,0.83c-0.39,0.43-0.64,1.24-0.73,2.44
			c-0.07,0.89-0.23,1.58-0.47,2.1c-0.24,0.51-0.6,0.96-1.08,1.34c-0.26,0.22-0.51,0.36-0.75,0.43c-0.24,0.07-0.59,0.12-1.04,0.14
			h-0.39c-0.26,0-0.48-0.01-0.65-0.04c-0.26-0.05-0.5-0.13-0.72-0.25c-0.38-0.21-0.76-0.53-1.13-0.93
			c-0.37-0.41-0.65-0.83-0.84-1.25c-0.24-0.53-0.36-1.47-0.36-2.83c0-1.82,0.21-4.38,0.65-7.68c0.43-3.04,1.13-6.57,2.1-10.6
			c0.97-4.03,2.06-7.93,3.28-11.71c2.92-8.97,5.98-14.19,9.18-15.67c0.41-0.21,0.76-0.35,1.06-0.39s0.77-0.07,1.42-0.07
			c0.86,0,1.57,0.1,2.12,0.3c0.55,0.2,1.12,0.58,1.72,1.13c0.79,0.69,1.43,1.57,1.92,2.62c0.49,1.05,0.93,2.62,1.31,4.7
			c0.38,2.08,0.8,5,1.25,8.75c1.6,13.08,3.25,22.05,4.95,26.9C565.65,602.07,565.83,602.63,565.9,602.97z M554.25,590.3
			c0-0.12-0.01-0.25-0.04-0.39c-0.02-0.31-0.08-0.75-0.16-1.31c-0.08-0.56-0.2-1.33-0.34-2.31c-0.19-1.17-0.41-2.65-0.65-4.43
			c-0.24-1.78-0.46-3.44-0.65-4.97c-0.46-3.44-0.77-5.39-0.93-5.85c-0.17-0.31-0.38-0.47-0.65-0.47h-0.07
			c-0.29,0.02-0.56,0.23-0.83,0.61c-0.43,0.72-1.12,2.61-2.06,5.69c-0.94,3.07-1.87,6.4-2.78,9.99c-0.57,2.27-0.86,3.85-0.86,4.73
			c0,0.31,0.04,0.54,0.11,0.68c0.05,0.07,0.14,0.16,0.29,0.27c0.14,0.11,0.31,0.21,0.5,0.3c0.19,0.1,0.35,0.16,0.47,0.18l1.04-0.14
			c0.69-0.07,1.53-0.17,2.51-0.29c1-0.14,1.89-0.28,2.65-0.39c0.77-0.12,1.24-0.22,1.43-0.29c0.38-0.17,0.66-0.47,0.83-0.9
			c0.07-0.14,0.12-0.28,0.14-0.39C554.23,590.51,554.25,590.4,554.25,590.3z M567.73,567.78c0.1,0.72,0.21,1.56,0.34,2.53
			c0.13,0.97,0.25,1.85,0.34,2.64c0.6,4.78,1.59,9.6,2.98,14.46c1.77,6.27,3.79,11.33,6.06,15.19c2.27,3.86,4.6,6.23,6.99,7.12
			c0.31,0.12,0.66,0.2,1.04,0.25c0.24,0.02,0.53,0.04,0.86,0.04h0.5c0.65,0,1.14-0.04,1.49-0.12c0.35-0.08,0.74-0.23,1.17-0.45
			c3.68-1.87,6.12-6.16,7.32-12.88c0.09-0.65,0.23-1.72,0.41-3.23c0.18-1.51,0.35-3.08,0.52-4.73c0.55-5.4,0.97-9.58,1.25-12.52
			c0.29-2.94,0.5-5.16,0.65-6.65c0.14-1.49,0.25-2.77,0.32-3.82c0.12-1.48,0.18-2.65,0.18-3.52c0-0.26-0.02-0.66-0.07-1.2
			s-0.26-1.09-0.65-1.67c-0.43-0.69-1.03-1.21-1.79-1.54c-0.48-0.19-0.97-0.29-1.47-0.29c-0.26,0-0.54,0.02-0.82,0.07
			c-1.6,0.41-2.64,1.46-3.12,3.16c-0.05,0.22-0.12,0.8-0.21,1.76c-0.1,0.96-0.2,2.04-0.32,3.26c-0.1,1.27-0.21,2.69-0.36,4.27
			s-0.28,2.97-0.39,4.16c0,0.12-0.01,0.24-0.04,0.36c-0.12,1.27-0.28,2.89-0.48,4.86s-0.4,3.89-0.59,5.76
			c-0.38,4.02-0.71,6.97-0.97,8.86c-0.26,1.89-0.53,3.23-0.79,4.02c-0.22,0.69-0.41,1.18-0.57,1.45c-0.17,0.28-0.39,0.48-0.68,0.63
			c-0.17,0.1-0.32,0.14-0.47,0.14c-0.05,0-0.12-0.01-0.22-0.04c-0.1-0.02-0.3-0.18-0.61-0.47c-0.77-0.72-1.7-2.31-2.8-4.79
			c-1.1-2.47-2.1-5.21-3.01-8.2c-0.5-1.72-1-3.65-1.49-5.78c-0.49-2.13-1.15-5.27-1.99-9.43c-0.43-2.18-0.82-4.07-1.17-5.69
			s-0.57-2.56-0.66-2.85c-0.72-1.82-1.87-2.73-3.44-2.73c-1.36,0-2.4,0.66-3.12,1.97c-0.29,0.5-0.43,1.29-0.43,2.37
			c0,0.86,0.09,1.91,0.29,3.16C567.72,567.7,567.73,567.73,567.73,567.78z M630.86,607.56c-1.15,0-2.14-0.39-2.98-1.18
			c-0.43-0.38-0.8-0.83-1.11-1.35c-0.31-0.51-0.62-1.22-0.93-2.13c-0.31-0.86-0.63-1.48-0.95-1.85c-0.32-0.37-0.74-0.58-1.24-0.63
			c-0.12-0.02-0.32-0.04-0.61-0.04c-0.46,0-1.09,0.02-1.9,0.07c-1.34,0.07-2.77,0.16-4.29,0.27s-2.66,0.21-3.43,0.3
			c-1.08,0.12-1.81,0.39-2.21,0.83c-0.39,0.43-0.64,1.24-0.73,2.44c-0.07,0.89-0.23,1.58-0.47,2.1c-0.24,0.51-0.6,0.96-1.08,1.34
			c-0.26,0.22-0.51,0.36-0.75,0.43c-0.24,0.07-0.59,0.12-1.04,0.14h-0.39c-0.26,0-0.48-0.01-0.65-0.04
			c-0.26-0.05-0.5-0.13-0.72-0.25c-0.38-0.21-0.76-0.53-1.13-0.93c-0.37-0.41-0.65-0.83-0.84-1.25c-0.24-0.53-0.36-1.47-0.36-2.83
			c0-1.82,0.21-4.38,0.65-7.68c0.43-3.04,1.13-6.57,2.1-10.6c0.97-4.03,2.06-7.93,3.28-11.71c2.92-8.97,5.98-14.19,9.18-15.67
			c0.41-0.21,0.76-0.35,1.06-0.39s0.77-0.07,1.42-0.07c0.86,0,1.57,0.1,2.12,0.3c0.55,0.2,1.12,0.58,1.72,1.13
			c0.79,0.69,1.43,1.57,1.92,2.62c0.49,1.05,0.93,2.62,1.31,4.7c0.38,2.08,0.8,5,1.25,8.75c1.6,13.08,3.25,22.05,4.95,26.9
			c0.29,0.79,0.47,1.35,0.54,1.69c0.07,0.34,0.11,0.61,0.11,0.83c0,0.12-0.01,0.23-0.04,0.32
			C634.24,606.31,632.99,607.46,630.86,607.56z M622.9,590.3c0-0.12-0.01-0.25-0.04-0.39c-0.02-0.31-0.08-0.75-0.16-1.31
			c-0.08-0.56-0.2-1.33-0.34-2.31c-0.19-1.17-0.41-2.65-0.65-4.43c-0.24-1.78-0.46-3.44-0.65-4.97c-0.46-3.44-0.77-5.39-0.93-5.85
			c-0.17-0.31-0.38-0.47-0.65-0.47h-0.07c-0.29,0.02-0.56,0.23-0.83,0.61c-0.43,0.72-1.12,2.61-2.06,5.69
			c-0.94,3.07-1.87,6.4-2.78,9.99c-0.57,2.27-0.86,3.85-0.86,4.73c0,0.31,0.04,0.54,0.11,0.68c0.05,0.07,0.14,0.16,0.29,0.27
			c0.14,0.11,0.31,0.21,0.5,0.3c0.19,0.1,0.35,0.16,0.47,0.18l1.04-0.14c0.69-0.07,1.53-0.17,2.51-0.29c1-0.14,1.89-0.28,2.65-0.39
			c0.77-0.12,1.24-0.22,1.43-0.29c0.38-0.17,0.66-0.47,0.83-0.9c0.07-0.14,0.12-0.28,0.14-0.39
			C622.88,590.51,622.9,590.4,622.9,590.3z M663.97,608.2c1.96,0,3.54-0.96,4.73-2.87c0.81-1.15,1.4-3.01,1.76-5.59
			c0.36-2.58,0.61-6.8,0.75-12.66c0.17-5.88,0.51-12.49,1.04-19.83c0.17-2.58,0.28-4.58,0.32-5.99v-0.5c0-1.17-0.08-2.07-0.23-2.69
			s-0.42-1.15-0.81-1.58c-0.77-0.88-1.7-1.36-2.8-1.44h-0.18c-1.03,0-1.95,0.38-2.76,1.15c-0.45,0.43-0.78,0.97-0.99,1.63
			c-0.2,0.66-0.34,1.64-0.41,2.96c-0.12,1.7-0.27,3.88-0.45,6.55c-0.18,2.67-0.34,5.16-0.48,7.48c-0.07,1.12-0.15,2.63-0.23,4.52
			c-0.08,1.89-0.15,3.73-0.2,5.52c-0.05,1.6-0.1,2.89-0.14,3.86c-0.05,0.97-0.1,1.72-0.16,2.24c-0.06,0.53-0.14,0.9-0.23,1.11
			c-0.1,0.21-0.21,0.37-0.36,0.47c-0.07,0.05-0.14,0.07-0.22,0.07c-0.05,0-0.11-0.02-0.2-0.07c-0.08-0.05-0.23-0.19-0.45-0.43
			c-0.14-0.19-0.31-0.45-0.5-0.77c-0.19-0.32-0.36-0.64-0.5-0.95c-0.12-0.33-0.33-0.87-0.65-1.6c-0.31-0.73-0.63-1.49-0.97-2.28
			c-1.22-2.89-3.25-8.24-6.1-16.03c-1.6-4.4-2.84-7.44-3.71-9.13c-0.87-1.69-1.73-2.65-2.56-2.89c-0.43-0.14-0.87-0.22-1.33-0.22
			c-0.67,0-1.47,0.21-2.4,0.63c-0.93,0.42-1.66,1.15-2.19,2.21c-0.1,0.21-0.19,0.53-0.29,0.95c-0.1,0.42-0.17,0.84-0.21,1.27
			c-0.07,0.88-0.12,2.69-0.14,5.42c-0.02,1.84-0.04,3.71-0.04,5.6c0,0.96,0.01,2.42,0.04,4.38s0.07,3.68,0.14,5.17
			c0.07,1,0.17,2.48,0.29,4.43c0.12,1.95,0.24,3.9,0.36,5.86c0.19,3.3,0.36,5.85,0.5,7.66c0.14,1.81,0.28,3.12,0.39,3.95
			c0.12,0.83,0.28,1.43,0.47,1.81c0.48,1.12,1.29,1.91,2.44,2.37c0.38,0.12,0.76,0.18,1.15,0.18c0.38,0,0.88-0.1,1.49-0.3
			s1.19-0.64,1.74-1.31c0.43-0.5,0.69-1.14,0.79-1.9c0.02-0.26,0.04-0.57,0.04-0.93c0-0.74-0.05-1.7-0.14-2.87
			c-0.17-1.79-0.32-3.84-0.47-6.13s-0.26-4.34-0.36-6.13c-0.05-1.34-0.07-2.26-0.07-2.76v-0.32c0.14-0.6,0.36-0.9,0.65-0.9
			c0.05,0,0.1,0.01,0.14,0.04c0.14,0.05,0.31,0.22,0.5,0.52s0.45,0.81,0.79,1.52c0.33,0.72,0.78,1.73,1.33,3.05
			c1.91,4.5,3.52,7.94,4.81,10.35s2.47,4.04,3.53,4.9c1.06,0.86,2.26,1.29,3.6,1.29H663.97z M695.31,573.98
			c-0.05-1.67-0.08-3.01-0.11-4.02c-0.02-1-0.04-1.76-0.04-2.26s0.02-0.87,0.05-1.09c0.04-0.23,0.09-0.4,0.16-0.52
			c0.12-0.31,0.32-0.55,0.59-0.72c0.27-0.17,0.75-0.29,1.42-0.36c0.67-0.07,1.65-0.14,2.94-0.21c1.41-0.05,2.52-0.1,3.32-0.16
			c0.8-0.06,1.4-0.12,1.79-0.18s0.74-0.15,1.02-0.27c1.75-0.81,2.65-2,2.73-3.55v-0.14c0-1.51-0.81-2.7-2.44-3.59
			c-0.24-0.09-0.49-0.17-0.75-0.21c-0.26-0.05-0.69-0.08-1.29-0.09c-0.6-0.01-1.51-0.02-2.73-0.02c-6.31,0.07-13.18,0.66-20.59,1.76
			c-1.63,0.24-2.84,0.54-3.64,0.91c-0.8,0.37-1.38,0.89-1.74,1.56c-0.31,0.57-0.47,1.16-0.47,1.76c0,0.36,0.11,0.87,0.32,1.52
			c0.22,0.66,0.81,1.2,1.79,1.63c0.36,0.17,0.93,0.25,1.72,0.25h0.36c0.79,0,1.87-0.06,3.23-0.18c0.74-0.05,1.36-0.07,1.87-0.07
			c0.38,0,0.78,0.03,1.18,0.09c0.41,0.06,0.72,0.28,0.93,0.66c0.07,0.1,0.12,0.23,0.16,0.41c0.04,0.18,0.06,0.48,0.07,0.9
			c0.01,0.42,0.02,1.03,0.02,1.83s0,1.86,0,3.17v2.01c0,8.32,0.55,16.93,1.65,25.83c0.43,3.42,0.88,5.8,1.35,7.16
			c0.47,1.35,1.17,2.22,2.1,2.6c0.57,0.26,1.15,0.39,1.72,0.39c0.29,0,0.74-0.07,1.34-0.21c0.61-0.14,1.2-0.57,1.78-1.29
			c0.48-0.57,0.74-1.22,0.79-1.94c0.02-0.14,0.04-0.32,0.04-0.54c0-0.72-0.11-1.72-0.32-3.01
			C696.4,596.19,695.62,586.25,695.31,573.98z M265.58,649.79c1.63,3.54,2.44,7.1,2.44,10.69c0,2.75-0.48,5.51-1.44,8.29
			c-1.27,3.47-3.21,6.67-5.83,9.59s-5.58,5.21-8.88,6.83c-0.96,0.48-1.86,0.85-2.71,1.13c-0.85,0.27-1.84,0.5-2.96,0.66
			c-0.57,0.1-1.15,0.21-1.72,0.34c-0.57,0.13-1.02,0.25-1.33,0.34c-0.74,0.21-1.42,0.32-2.04,0.32c-0.65,0-1.23-0.12-1.76-0.36
			c-1-0.57-1.71-1.48-2.12-2.73c-0.12-0.45-0.35-1.75-0.68-3.87c-0.33-2.13-0.68-4.49-1.02-7.08c-0.35-2.59-0.63-4.82-0.84-6.69
			c-0.43-3.75-0.71-6.82-0.84-9.2c-0.13-2.38-0.2-5.51-0.2-9.38c0-1.55,0-2.82,0-3.8s0.01-1.76,0.02-2.33
			c0.01-0.57,0.04-1.01,0.07-1.31c0.04-0.3,0.08-0.53,0.13-0.68c0.05-0.16,0.11-0.32,0.18-0.48c0.41-0.93,0.99-1.6,1.74-2.01
			c0.75-0.41,1.92-0.67,3.5-0.79c0.76-0.07,1.54-0.11,2.33-0.11c2.96,0,6.18,0.49,9.65,1.47c3.73,1.05,6.73,2.46,8.99,4.21
			S264.29,646.92,265.58,649.79z M259.71,660.51c0.01-1.51-0.13-2.8-0.41-3.87c-1.08-4.23-3.06-7.05-5.95-8.46
			c-1.72-0.84-3.54-1.48-5.47-1.94s-3.34-0.68-4.25-0.68c-0.38,0-0.71,0.04-0.97,0.11c-0.81,0.19-1.22,0.88-1.22,2.08
			c0,0.21,0.01,0.44,0.04,0.68c0.02,0.43,0.08,1.26,0.16,2.49s0.17,2.59,0.27,4.07c0.19,2.99,0.42,5.77,0.68,8.34
			c0.26,2.57,0.58,5.35,0.97,8.34c0.19,1.43,0.35,2.58,0.47,3.42c0.12,0.85,0.22,1.5,0.3,1.94s0.18,0.77,0.29,0.97
			c0.11,0.2,0.23,0.38,0.38,0.52c0.29,0.31,0.63,0.47,1.04,0.47h0.07c0.43-0.02,1-0.23,1.72-0.61c1.65-0.84,3.57-2.35,5.78-4.56
			c2.94-2.84,4.83-5.94,5.67-9.29C259.55,663.36,259.7,662.02,259.71,660.51z M299.37,676.12c-0.36-0.21-0.67-0.35-0.93-0.39
			c-0.17-0.05-0.36-0.07-0.57-0.07c-0.17,0-0.35,0.01-0.54,0.04c-0.46,0-0.9,0.08-1.33,0.23c-0.43,0.16-0.99,0.44-1.69,0.84
			c-0.69,0.41-1.65,1.02-2.87,1.83c-0.84,0.55-1.62,1.05-2.35,1.49s-1.25,0.72-1.56,0.84c-0.53,0.21-1,0.32-1.43,0.32
			c-0.57,0-1.14-0.26-1.7-0.79c-0.56-0.53-1.03-1.77-1.42-3.73c-0.1-0.41-0.16-0.72-0.18-0.93v-0.32c0-0.1,0-0.2,0.02-0.3
			c0.01-0.11,0.05-0.25,0.12-0.41c0.07-0.17,0.17-0.33,0.31-0.5c0.13-0.17,0.26-0.3,0.38-0.39c0.14-0.07,0.48-0.17,1-0.3
			c0.53-0.13,1.11-0.27,1.76-0.41c2.46-0.43,4.23-0.77,5.29-1c1.06-0.24,1.8-0.45,2.21-0.65c1.91-0.93,2.87-2.21,2.87-3.84
			c0-0.33-0.05-0.69-0.14-1.08c-0.31-1.03-0.99-1.82-2.04-2.37c-0.43-0.26-1-0.39-1.72-0.39c-0.14,0-0.5,0.03-1.08,0.09
			c-0.57,0.06-1.88,0.34-3.91,0.84c-1.36,0.33-2.4,0.56-3.12,0.68c-0.55,0.1-0.99,0.14-1.33,0.14c-0.1,0-0.25-0.01-0.47-0.04
			c-0.21-0.02-0.41-0.14-0.57-0.36c-0.14-0.14-0.25-0.29-0.3-0.43c-0.06-0.14-0.1-0.36-0.13-0.65c-0.02-0.29-0.05-0.72-0.07-1.29
			v-0.9c0-0.72,0.01-1.8,0.04-3.26c0.02-1.46,0.07-3.18,0.13-5.17c0.06-1.98,0.12-3.72,0.18-5.22c0.06-1.49,0.13-2.37,0.2-2.64
			c0.19-0.72,0.74-1.21,1.65-1.47c0.19-0.05,0.7-0.11,1.52-0.18c0.83-0.07,1.76-0.13,2.82-0.18c2.1-0.09,3.72-0.18,4.86-0.25
			c1.14-0.07,1.97-0.16,2.49-0.25c0.53-0.09,0.93-0.2,1.22-0.32c1.32-0.65,2.1-1.59,2.37-2.83c0.05-0.24,0.07-0.48,0.07-0.72
			c0-1-0.39-1.92-1.18-2.76c-0.5-0.53-1.08-0.87-1.72-1.04c-0.57-0.14-1.47-0.21-2.69-0.21h-0.54c-1.27,0-2.7,0.08-4.3,0.25
			c-1.6,0.17-3.65,0.44-6.13,0.83c-1.51,0.24-2.67,0.45-3.48,0.63c-0.81,0.18-1.43,0.38-1.85,0.61c-0.42,0.23-0.81,0.53-1.17,0.91
			c-0.38,0.36-0.68,0.81-0.9,1.36c-0.21,0.55-0.41,1.43-0.57,2.65s-0.36,2.99-0.57,5.31c-0.5,5.48-0.75,10.49-0.75,15.03
			c0,4.95,0.3,9.36,0.9,13.24c1.29,7.7,4.12,12.12,8.5,13.27c0.74,0.17,1.49,0.25,2.26,0.25c1.96,0,4.07-0.51,6.31-1.54
			c0.65-0.33,1.57-0.88,2.78-1.65c1.21-0.76,2.37-1.54,3.5-2.31c1.12-0.78,1.9-1.36,2.33-1.74c0.88-0.81,1.33-1.78,1.33-2.91
			c0-0.14-0.01-0.29-0.04-0.43C301.34,677.75,300.66,676.74,299.37,676.12z M367.05,675.36c-0.14,0-0.3,0.01-0.47,0.04
			c-0.6,0.02-1.39,0.23-2.37,0.61c-0.98,0.38-2.61,1.11-4.88,2.19c-0.84,0.41-1.64,0.78-2.42,1.11s-1.33,0.56-1.67,0.68
			c-0.57,0.19-1.14,0.29-1.69,0.29c-0.05,0-0.24-0.01-0.57-0.02c-0.33-0.01-0.68-0.15-1.04-0.41c-0.77-0.6-1.38-1.85-1.83-3.77
			c-0.1-0.45-0.17-0.94-0.23-1.47c-0.06-0.53-0.1-1.34-0.11-2.44s-0.02-2.81-0.02-5.13c0-5.07,0.11-8.81,0.32-11.23
			c0.24-3.35,0.47-6.47,0.68-9.36c0.22-2.89,0.35-4.81,0.39-5.74c0.02-0.45,0.04-0.81,0.04-1.08s-0.02-0.49-0.07-0.68
			c-0.05-0.19-0.13-0.39-0.25-0.61c-0.36-0.72-0.91-1.24-1.65-1.58c-0.46-0.21-0.92-0.32-1.4-0.32c-0.26,0-0.54,0.04-0.82,0.11
			c-1.63,0.48-2.68,1.71-3.16,3.69c-0.1,0.43-0.26,1.45-0.5,3.05c-0.24,1.6-0.48,3.29-0.72,5.06c-0.24,1.77-0.41,3.12-0.5,4.05
			c-0.17,1.46-0.32,3.42-0.45,5.88c-0.13,2.46-0.22,4.84-0.27,7.14c-0.02,1-0.04,1.97-0.04,2.91c0,5.43,0.48,9.48,1.43,12.16
			c1.65,4.83,4.59,7.54,8.82,8.14c0.43,0.05,0.86,0.07,1.29,0.07c1.03,0,2.14-0.14,3.34-0.43c0.81-0.17,1.65-0.42,2.51-0.77
			c0.86-0.35,2.14-0.93,3.84-1.74c0.81-0.38,1.64-0.77,2.49-1.17s1.52-0.71,2.03-0.95c1-0.45,1.73-0.85,2.19-1.18
			c0.45-0.33,0.8-0.73,1.04-1.18c0.38-0.72,0.57-1.41,0.57-2.08c0-0.88-0.33-1.73-1-2.55C369.23,675.79,368.27,675.36,367.05,675.36
			z M399.55,676.12c-0.36-0.21-0.67-0.35-0.93-0.39c-0.17-0.05-0.36-0.07-0.57-0.07c-0.17,0-0.35,0.01-0.54,0.04
			c-0.46,0-0.9,0.08-1.33,0.23c-0.43,0.16-0.99,0.44-1.69,0.84c-0.69,0.41-1.65,1.02-2.87,1.83c-0.84,0.55-1.62,1.05-2.35,1.49
			s-1.25,0.72-1.56,0.84c-0.53,0.21-1,0.32-1.43,0.32c-0.57,0-1.14-0.26-1.7-0.79c-0.56-0.53-1.03-1.77-1.42-3.73
			c-0.1-0.41-0.16-0.72-0.18-0.93v-0.32c0-0.1,0-0.2,0.02-0.3c0.01-0.11,0.05-0.25,0.12-0.41c0.07-0.17,0.17-0.33,0.31-0.5
			c0.13-0.17,0.26-0.3,0.38-0.39c0.14-0.07,0.48-0.17,1-0.3c0.53-0.13,1.11-0.27,1.76-0.41c2.46-0.43,4.23-0.77,5.29-1
			c1.06-0.24,1.8-0.45,2.21-0.65c1.91-0.93,2.87-2.21,2.87-3.84c0-0.33-0.05-0.69-0.14-1.08c-0.31-1.03-0.99-1.82-2.04-2.37
			c-0.43-0.26-1-0.39-1.72-0.39c-0.14,0-0.5,0.03-1.08,0.09c-0.57,0.06-1.88,0.34-3.91,0.84c-1.36,0.33-2.4,0.56-3.12,0.68
			c-0.55,0.1-0.99,0.14-1.33,0.14c-0.1,0-0.25-0.01-0.47-0.04c-0.21-0.02-0.41-0.14-0.57-0.36c-0.14-0.14-0.25-0.29-0.3-0.43
			c-0.06-0.14-0.1-0.36-0.13-0.65c-0.02-0.29-0.05-0.72-0.07-1.29v-0.9c0-0.72,0.01-1.8,0.04-3.26c0.02-1.46,0.07-3.18,0.13-5.17
			c0.06-1.98,0.12-3.72,0.18-5.22c0.06-1.49,0.13-2.37,0.2-2.64c0.19-0.72,0.74-1.21,1.65-1.47c0.19-0.05,0.7-0.11,1.52-0.18
			c0.83-0.07,1.76-0.13,2.82-0.18c2.1-0.09,3.72-0.18,4.86-0.25c1.14-0.07,1.97-0.16,2.49-0.25c0.53-0.09,0.93-0.2,1.22-0.32
			c1.32-0.65,2.1-1.59,2.37-2.83c0.05-0.24,0.07-0.48,0.07-0.72c0-1-0.39-1.92-1.18-2.76c-0.5-0.53-1.08-0.87-1.72-1.04
			c-0.57-0.14-1.47-0.21-2.69-0.21h-0.54c-1.27,0-2.7,0.08-4.3,0.25c-1.6,0.17-3.65,0.44-6.13,0.83c-1.51,0.24-2.67,0.45-3.48,0.63
			c-0.81,0.18-1.43,0.38-1.85,0.61c-0.42,0.23-0.81,0.53-1.17,0.91c-0.38,0.36-0.68,0.81-0.9,1.36c-0.21,0.55-0.41,1.43-0.57,2.65
			s-0.36,2.99-0.57,5.31c-0.5,5.48-0.75,10.49-0.75,15.03c0,4.95,0.3,9.36,0.9,13.24c1.29,7.7,4.12,12.12,8.5,13.27
			c0.74,0.17,1.49,0.25,2.26,0.25c1.96,0,4.07-0.51,6.31-1.54c0.65-0.33,1.57-0.88,2.78-1.65c1.21-0.76,2.37-1.54,3.5-2.31
			c1.12-0.78,1.9-1.36,2.33-1.74c0.88-0.81,1.33-1.78,1.33-2.91c0-0.14-0.01-0.29-0.04-0.43
			C401.52,677.75,400.84,676.74,399.55,676.12z M425.66,669.12c-0.98-1.65-2.4-3.18-4.27-4.59s-4.67-3.1-8.43-5.06
			c-1.79-0.96-3.16-1.7-4.11-2.22s-1.61-0.95-2.01-1.27c-0.39-0.32-0.66-0.64-0.81-0.95c-0.19-0.31-0.29-0.65-0.29-1
			c0-1.27,1.18-2.86,3.55-4.77c2.94-2.42,5.51-3.79,7.71-4.12c0.31-0.05,0.63-0.1,0.97-0.16s0.59-0.11,0.75-0.16
			c1.22-0.43,2-1.21,2.33-2.33c0.09-0.31,0.14-0.62,0.14-0.93c0-0.79-0.29-1.55-0.86-2.29c-0.96-1.08-2.26-1.61-3.91-1.61
			c-1.05,0-2.25,0.21-3.59,0.65c-1.03,0.36-2.26,0.9-3.69,1.61c-1.44,0.72-2.67,1.4-3.69,2.04c-1.58,1.08-3.03,2.34-4.36,3.78
			c-1.33,1.45-2.31,2.86-2.96,4.25c-0.67,1.55-1,3.04-1,4.45c0,2.65,1.21,5.08,3.62,7.28c0.53,0.46,1.09,0.89,1.7,1.31
			c0.61,0.42,1.55,0.97,2.82,1.67c1.27,0.69,3.14,1.7,5.63,3.01c2.73,1.46,4.72,2.74,5.97,3.84c1.25,1.1,1.95,2.16,2.1,3.19
			c0.02,0.14,0.04,0.27,0.04,0.39s-0.02,0.27-0.05,0.45c-0.04,0.18-0.14,0.46-0.3,0.84c-0.62,1.15-1.81,2.22-3.55,3.21
			c-1.75,0.99-3.62,1.66-5.63,1.99c-2.44,0.36-3.84,1.4-4.2,3.12c-0.05,0.26-0.07,0.53-0.07,0.79c0,0.65,0.2,1.33,0.59,2.06
			c0.4,0.73,1.05,1.31,1.96,1.74c0.69,0.26,1.47,0.39,2.33,0.39c2.1,0,4.72-0.75,7.85-2.26c5.04-2.61,8.12-5.87,9.22-9.79
			c0.09-0.41,0.16-0.84,0.18-1.29c0.02-0.31,0.04-0.66,0.04-1.04v-0.65c-0.02-1.08-0.17-2.04-0.43-2.89
			C426.69,670.94,426.26,670.05,425.66,669.12z M498,682.97c0.07,0.34,0.11,0.61,0.11,0.83c0,0.12-0.01,0.23-0.04,0.32
			c-0.38,2.2-1.64,3.35-3.77,3.44c-1.15,0-2.14-0.39-2.98-1.18c-0.43-0.38-0.8-0.83-1.11-1.35c-0.31-0.51-0.62-1.22-0.93-2.13
			c-0.31-0.86-0.63-1.48-0.95-1.85c-0.32-0.37-0.74-0.58-1.24-0.63c-0.12-0.02-0.32-0.04-0.61-0.04c-0.46,0-1.09,0.02-1.9,0.07
			c-1.34,0.07-2.77,0.16-4.29,0.27s-2.66,0.21-3.43,0.3c-1.08,0.12-1.81,0.39-2.21,0.83c-0.39,0.43-0.64,1.24-0.73,2.44
			c-0.07,0.89-0.23,1.58-0.47,2.1c-0.24,0.51-0.6,0.96-1.08,1.34c-0.26,0.22-0.51,0.36-0.75,0.43c-0.24,0.07-0.59,0.12-1.04,0.14
			h-0.39c-0.26,0-0.48-0.01-0.65-0.04c-0.26-0.05-0.5-0.13-0.72-0.25c-0.38-0.21-0.76-0.53-1.13-0.93
			c-0.37-0.41-0.65-0.83-0.84-1.25c-0.24-0.53-0.36-1.47-0.36-2.83c0-1.82,0.21-4.38,0.65-7.68c0.43-3.04,1.13-6.57,2.1-10.6
			c0.97-4.03,2.06-7.93,3.28-11.71c2.92-8.97,5.98-14.19,9.18-15.67c0.41-0.21,0.76-0.35,1.06-0.39s0.77-0.07,1.42-0.07
			c0.86,0,1.57,0.1,2.12,0.3c0.55,0.2,1.12,0.58,1.72,1.13c0.79,0.69,1.43,1.57,1.92,2.62c0.49,1.05,0.93,2.62,1.31,4.7
			c0.38,2.08,0.8,5,1.25,8.75c1.6,13.08,3.25,22.05,4.95,26.9C497.75,682.07,497.93,682.63,498,682.97z M486.35,670.3
			c0-0.12-0.01-0.25-0.04-0.39c-0.02-0.31-0.08-0.75-0.16-1.31c-0.08-0.56-0.2-1.33-0.34-2.31c-0.19-1.17-0.41-2.65-0.65-4.43
			c-0.24-1.78-0.46-3.44-0.65-4.97c-0.46-3.44-0.77-5.39-0.93-5.85c-0.17-0.31-0.38-0.47-0.65-0.47h-0.07
			c-0.29,0.02-0.56,0.23-0.83,0.61c-0.43,0.72-1.12,2.61-2.06,5.69c-0.94,3.07-1.87,6.4-2.78,9.99c-0.57,2.27-0.86,3.85-0.86,4.73
			c0,0.31,0.04,0.54,0.11,0.68c0.05,0.07,0.14,0.16,0.29,0.27c0.14,0.11,0.31,0.21,0.5,0.3c0.19,0.1,0.35,0.16,0.47,0.18l1.04-0.14
			c0.69-0.07,1.53-0.17,2.51-0.29c1-0.14,1.89-0.28,2.65-0.39c0.77-0.12,1.24-0.22,1.43-0.29c0.38-0.17,0.66-0.47,0.83-0.9
			c0.07-0.14,0.12-0.28,0.14-0.39C486.33,670.51,486.35,670.4,486.35,670.3z M521.6,645.81c0.62-0.62,1.2-1.08,1.72-1.36
			c0.53-0.29,1.18-0.51,1.97-0.68c1.43-0.26,2.4-0.79,2.91-1.58c0.43-0.65,0.65-1.29,0.65-1.94c0-0.43-0.16-1.03-0.48-1.79
			c-0.32-0.77-1.13-1.38-2.42-1.83c-0.62-0.19-1.25-0.29-1.9-0.29c-2.85,0-6.07,1.85-9.68,5.56c-4.59,4.78-8.27,11.14-11.05,19.08
			c-0.84,2.34-1.42,4.39-1.76,6.15c-0.33,1.76-0.5,3.56-0.5,5.4v0.22c0,4.73,1.46,8.66,4.38,11.76c2.3,2.46,4.95,3.87,7.96,4.23
			c0.45,0.05,0.91,0.07,1.36,0.07c1.65,0,3.38-0.36,5.2-1.08c1.41-0.6,2.9-1.42,4.47-2.47c1.57-1.05,2.64-1.94,3.21-2.65
			c0.55-0.86,0.83-1.69,0.83-2.47c0-0.86-0.31-1.67-0.93-2.44c-0.72-0.88-1.72-1.33-3.01-1.33c-0.62,0-1.2,0.11-1.74,0.34
			c-0.54,0.23-1.37,0.71-2.49,1.45c-1.2,0.79-2.18,1.35-2.94,1.69s-1.48,0.51-2.15,0.54c-0.14,0.02-0.29,0.04-0.43,0.04
			c-1.24,0-2.34-0.54-3.3-1.61c-1.46-1.58-2.19-3.72-2.19-6.42c0-3.87,1.49-8.88,4.48-15.03
			C516.19,652.5,518.81,648.65,521.6,645.81z M559.12,671.17c-0.17-3.63-0.29-9.39-0.36-17.25c-0.05-3.78-0.1-7.03-0.16-9.76
			c-0.06-2.73-0.1-4.29-0.13-4.7c-0.17-1.91-0.9-3.18-2.19-3.8c-0.46-0.19-0.91-0.29-1.36-0.29c-0.29,0-0.7,0.06-1.24,0.18
			c-0.54,0.12-1.04,0.48-1.49,1.08c-0.36,0.43-0.62,1.02-0.79,1.78c-0.17,0.75-0.31,2.04-0.43,3.86c-0.24,3.8-0.39,6.95-0.47,9.43
			c-0.02,1.24-0.04,2.55-0.04,3.91c0,1.39,0.01,2.83,0.04,4.34c0.05,1.91,0.08,3.43,0.09,4.56c0.01,1.12,0.01,1.97,0,2.55
			c-0.01,0.57-0.04,0.98-0.07,1.22c-0.04,0.24-0.1,0.43-0.2,0.57c-0.07,0.14-0.19,0.29-0.36,0.45c-0.17,0.16-0.33,0.28-0.5,0.38
			c-0.29,0.12-0.86,0.28-1.72,0.47c-0.86,0.19-1.73,0.37-2.62,0.54c-0.88,0.17-1.51,0.25-1.87,0.25s-0.69-0.08-1-0.25
			c-0.31-0.17-0.54-0.38-0.68-0.65c-0.19-0.29-0.37-1.92-0.54-4.91c-0.17-2.99-0.37-8.29-0.61-15.89c-0.07-2.25-0.14-4.2-0.2-5.85
			c-0.06-1.65-0.1-2.61-0.12-2.87c-0.22-1.39-0.86-2.34-1.94-2.87c-0.45-0.21-0.93-0.32-1.43-0.32c-0.67,0-1.35,0.2-2.04,0.61
			c-0.29,0.17-0.53,0.37-0.72,0.61c-0.19,0.24-0.39,0.56-0.61,0.97c-0.17,0.33-0.29,0.63-0.38,0.9c-0.08,0.26-0.14,0.62-0.18,1.08
			c-0.04,0.45-0.08,1.15-0.12,2.08c-0.19,3.54-0.29,6.96-0.29,10.26c0,1.48,0.05,3.75,0.14,6.8c0.09,3.05,0.47,8.67,1.11,16.88
			c0.17,2.08,0.31,3.7,0.43,4.86s0.25,2.04,0.39,2.64c0.14,0.6,0.32,1.09,0.54,1.47c0.86,1.41,2.01,2.12,3.44,2.12
			c0.02,0,0.4,0,1.13,0s1.51-0.72,2.35-2.15l0.5-0.93l-0.11-2.55c-0.02-0.62-0.04-1.14-0.04-1.54c0-0.21,0.01-0.48,0.02-0.79
			c0.01-0.31,0.09-0.58,0.23-0.81s0.37-0.44,0.68-0.63c0.14-0.12,0.37-0.22,0.68-0.3s0.78-0.17,1.42-0.27
			c0.63-0.09,1.54-0.2,2.71-0.32c0.43-0.07,0.83-0.11,1.18-0.11c0.69,0,1.24,0.18,1.63,0.54c0.39,0.36,0.68,1.3,0.84,2.83
			c0.22,1.72,0.39,2.95,0.52,3.68c0.13,0.73,0.28,1.3,0.45,1.7c0.5,1.41,1.45,2.33,2.83,2.76c0.26,0.07,0.54,0.11,0.83,0.11
			c0.36,0,0.82-0.08,1.38-0.25c0.56-0.17,1.09-0.5,1.6-1c0.57-0.57,0.92-1.3,1.04-2.19c0.02-0.21,0.04-0.48,0.04-0.79
			c0-0.88-0.11-2.15-0.32-3.8C559.6,678.33,559.29,674.8,559.12,671.17z M593.45,676.12c-0.36-0.21-0.67-0.35-0.93-0.39
			c-0.17-0.05-0.36-0.07-0.57-0.07c-0.17,0-0.35,0.01-0.54,0.04c-0.46,0-0.9,0.08-1.33,0.23c-0.43,0.16-0.99,0.44-1.69,0.84
			c-0.69,0.41-1.65,1.02-2.87,1.83c-0.84,0.55-1.62,1.05-2.35,1.49s-1.25,0.72-1.56,0.84c-0.53,0.21-1,0.32-1.43,0.32
			c-0.57,0-1.14-0.26-1.7-0.79c-0.56-0.53-1.03-1.77-1.42-3.73c-0.1-0.41-0.16-0.72-0.18-0.93v-0.32c0-0.1,0-0.2,0.02-0.3
			c0.01-0.11,0.05-0.25,0.12-0.41c0.07-0.17,0.17-0.33,0.31-0.5c0.13-0.17,0.26-0.3,0.38-0.39c0.14-0.07,0.48-0.17,1-0.3
			c0.53-0.13,1.11-0.27,1.76-0.41c2.46-0.43,4.23-0.77,5.29-1c1.06-0.24,1.8-0.45,2.21-0.65c1.91-0.93,2.87-2.21,2.87-3.84
			c0-0.33-0.05-0.69-0.14-1.08c-0.31-1.03-0.99-1.82-2.04-2.37c-0.43-0.26-1-0.39-1.72-0.39c-0.14,0-0.5,0.03-1.08,0.09
			c-0.57,0.06-1.88,0.34-3.91,0.84c-1.36,0.33-2.4,0.56-3.12,0.68c-0.55,0.1-0.99,0.14-1.33,0.14c-0.1,0-0.25-0.01-0.47-0.04
			c-0.21-0.02-0.41-0.14-0.57-0.36c-0.14-0.14-0.25-0.29-0.3-0.43c-0.06-0.14-0.1-0.36-0.13-0.65c-0.02-0.29-0.05-0.72-0.07-1.29
			v-0.9c0-0.72,0.01-1.8,0.04-3.26c0.02-1.46,0.07-3.18,0.13-5.17c0.06-1.98,0.12-3.72,0.18-5.22c0.06-1.49,0.13-2.37,0.2-2.64
			c0.19-0.72,0.74-1.21,1.65-1.47c0.19-0.05,0.7-0.11,1.52-0.18c0.83-0.07,1.76-0.13,2.82-0.18c2.1-0.09,3.72-0.18,4.86-0.25
			c1.14-0.07,1.97-0.16,2.49-0.25c0.53-0.09,0.93-0.2,1.22-0.32c1.32-0.65,2.1-1.59,2.37-2.83c0.05-0.24,0.07-0.48,0.07-0.72
			c0-1-0.39-1.92-1.18-2.76c-0.5-0.53-1.08-0.87-1.72-1.04c-0.57-0.14-1.47-0.21-2.69-0.21h-0.54c-1.27,0-2.7,0.08-4.3,0.25
			c-1.6,0.17-3.65,0.44-6.13,0.83c-1.51,0.24-2.67,0.45-3.48,0.63c-0.81,0.18-1.43,0.38-1.85,0.61c-0.42,0.23-0.81,0.53-1.17,0.91
			c-0.38,0.36-0.68,0.81-0.9,1.36c-0.21,0.55-0.41,1.43-0.57,2.65s-0.36,2.99-0.57,5.31c-0.5,5.48-0.75,10.49-0.75,15.03
			c0,4.95,0.3,9.36,0.9,13.24c1.29,7.7,4.12,12.12,8.5,13.27c0.74,0.17,1.49,0.25,2.26,0.25c1.96,0,4.07-0.51,6.31-1.54
			c0.65-0.33,1.57-0.88,2.78-1.65c1.21-0.76,2.37-1.54,3.5-2.31c1.12-0.78,1.9-1.36,2.33-1.74c0.88-0.81,1.33-1.78,1.33-2.91
			c0-0.14-0.01-0.29-0.04-0.43C595.42,677.75,594.74,676.74,593.45,676.12z M627.02,636.91c-0.24-0.09-0.49-0.17-0.75-0.21
			c-0.26-0.05-0.69-0.08-1.29-0.09c-0.6-0.01-1.51-0.02-2.73-0.02c-6.31,0.07-13.18,0.66-20.59,1.76c-1.63,0.24-2.84,0.54-3.64,0.91
			c-0.8,0.37-1.38,0.89-1.74,1.56c-0.31,0.57-0.47,1.16-0.47,1.76c0,0.36,0.11,0.87,0.32,1.52c0.22,0.66,0.81,1.2,1.79,1.63
			c0.36,0.17,0.93,0.25,1.72,0.25h0.36c0.79,0,1.87-0.06,3.23-0.18c0.74-0.05,1.36-0.07,1.87-0.07c0.38,0,0.78,0.03,1.18,0.09
			c0.41,0.06,0.72,0.28,0.93,0.66c0.07,0.1,0.12,0.23,0.16,0.41c0.04,0.18,0.06,0.48,0.07,0.9c0.01,0.42,0.02,1.03,0.02,1.83
			s0,1.86,0,3.17v2.01c0,8.32,0.55,16.93,1.65,25.83c0.43,3.42,0.88,5.8,1.35,7.16c0.47,1.35,1.17,2.22,2.1,2.6
			c0.57,0.26,1.15,0.39,1.72,0.39c0.29,0,0.74-0.07,1.34-0.21c0.61-0.14,1.2-0.57,1.78-1.29c0.48-0.57,0.74-1.22,0.79-1.94
			c0.02-0.14,0.04-0.32,0.04-0.54c0-0.72-0.11-1.72-0.32-3.01c-1.24-7.6-2.02-17.54-2.33-29.81c-0.05-1.67-0.08-3.01-0.11-4.02
			c-0.02-1-0.04-1.76-0.04-2.26s0.02-0.87,0.05-1.09c0.04-0.23,0.09-0.4,0.16-0.52c0.12-0.31,0.32-0.55,0.59-0.72
			c0.27-0.17,0.75-0.29,1.42-0.36c0.67-0.07,1.65-0.14,2.94-0.21c1.41-0.05,2.52-0.1,3.32-0.16c0.8-0.06,1.4-0.12,1.79-0.18
			s0.74-0.15,1.02-0.27c1.75-0.81,2.65-2,2.73-3.55v-0.14C629.46,638.99,628.65,637.8,627.02,636.91z M657.62,676.12
			c-0.36-0.21-0.67-0.35-0.93-0.39c-0.17-0.05-0.36-0.07-0.57-0.07c-0.17,0-0.35,0.01-0.54,0.04c-0.46,0-0.9,0.08-1.33,0.23
			c-0.43,0.16-0.99,0.44-1.69,0.84c-0.69,0.41-1.65,1.02-2.87,1.83c-0.84,0.55-1.62,1.05-2.35,1.49s-1.25,0.72-1.56,0.84
			c-0.53,0.21-1,0.32-1.43,0.32c-0.57,0-1.14-0.26-1.7-0.79c-0.56-0.53-1.03-1.77-1.42-3.73c-0.1-0.41-0.16-0.72-0.18-0.93v-0.32
			c0-0.1,0-0.2,0.02-0.3c0.01-0.11,0.05-0.25,0.12-0.41c0.07-0.17,0.17-0.33,0.31-0.5c0.13-0.17,0.26-0.3,0.38-0.39
			c0.14-0.07,0.48-0.17,1-0.3c0.53-0.13,1.11-0.27,1.76-0.41c2.46-0.43,4.23-0.77,5.29-1c1.06-0.24,1.8-0.45,2.21-0.65
			c1.91-0.93,2.87-2.21,2.87-3.84c0-0.33-0.05-0.69-0.14-1.08c-0.31-1.03-0.99-1.82-2.04-2.37c-0.43-0.26-1-0.39-1.72-0.39
			c-0.14,0-0.5,0.03-1.08,0.09c-0.57,0.06-1.88,0.34-3.91,0.84c-1.36,0.33-2.4,0.56-3.12,0.68c-0.55,0.1-0.99,0.14-1.33,0.14
			c-0.1,0-0.25-0.01-0.47-0.04c-0.21-0.02-0.41-0.14-0.57-0.36c-0.14-0.14-0.25-0.29-0.3-0.43c-0.06-0.14-0.1-0.36-0.13-0.65
			c-0.02-0.29-0.05-0.72-0.07-1.29v-0.9c0-0.72,0.01-1.8,0.04-3.26c0.02-1.46,0.07-3.18,0.13-5.17c0.06-1.98,0.12-3.72,0.18-5.22
			c0.06-1.49,0.13-2.37,0.2-2.64c0.19-0.72,0.74-1.21,1.65-1.47c0.19-0.05,0.7-0.11,1.52-0.18c0.83-0.07,1.76-0.13,2.82-0.18
			c2.1-0.09,3.72-0.18,4.86-0.25c1.14-0.07,1.97-0.16,2.49-0.25c0.53-0.09,0.93-0.2,1.22-0.32c1.32-0.65,2.1-1.59,2.37-2.83
			c0.05-0.24,0.07-0.48,0.07-0.72c0-1-0.39-1.92-1.18-2.76c-0.5-0.53-1.08-0.87-1.72-1.04c-0.57-0.14-1.47-0.21-2.69-0.21h-0.54
			c-1.27,0-2.7,0.08-4.3,0.25c-1.6,0.17-3.65,0.44-6.13,0.83c-1.51,0.24-2.67,0.45-3.48,0.63c-0.81,0.18-1.43,0.38-1.85,0.61
			c-0.42,0.23-0.81,0.53-1.17,0.91c-0.38,0.36-0.68,0.81-0.9,1.36c-0.21,0.55-0.41,1.43-0.57,2.65s-0.36,2.99-0.57,5.31
			c-0.5,5.48-0.75,10.49-0.75,15.03c0,4.95,0.3,9.36,0.9,13.24c1.29,7.7,4.12,12.12,8.5,13.27c0.74,0.17,1.49,0.25,2.26,0.25
			c1.96,0,4.07-0.51,6.31-1.54c0.65-0.33,1.57-0.88,2.78-1.65c1.21-0.76,2.37-1.54,3.5-2.31c1.12-0.78,1.9-1.36,2.33-1.74
			c0.88-0.81,1.33-1.78,1.33-2.91c0-0.14-0.01-0.29-0.04-0.43C659.59,677.75,658.91,676.74,657.62,676.12z M691.58,676.44
			c0.09,0.38,0.14,0.75,0.14,1.11c0,0.55-0.12,1.09-0.36,1.61c-0.41,0.84-1.06,1.46-1.97,1.87c-0.36,0.17-0.81,0.25-1.36,0.25
			c-0.89,0-2.03-0.21-3.44-0.65c-1.08-0.33-2.31-0.67-3.69-1c-1.39-0.33-2.67-0.63-3.84-0.88s-1.92-0.38-2.26-0.38
			c-0.77,0-1.2,0.18-1.29,0.54s-0.14,0.69-0.14,1c0,0.65,0.11,1.58,0.32,2.8c0.24,1.41,0.37,2.33,0.39,2.76
			c0.02,0.43,0.04,0.73,0.04,0.9c0,0.5-0.06,0.92-0.18,1.25c-0.12,0.43-0.38,0.87-0.79,1.33c-0.41,0.45-0.85,0.8-1.33,1.04
			c-0.48,0.19-1.02,0.29-1.61,0.29c-0.57,0-1.11-0.1-1.61-0.29c-0.93-0.48-1.64-1.23-2.12-2.26c-0.62-1.6-1.29-5.26-1.99-10.98
			c-0.71-5.71-1.27-11.97-1.7-18.76c-0.12-1.91-0.18-3.32-0.18-4.23c0-0.91,0-1.57,0-1.97c0-1.27,0.02-2.77,0.07-4.52
			c0.05-2.2,0.11-3.81,0.18-4.82c0.07-1.02,0.21-1.72,0.43-2.12c0.21-0.39,0.55-0.78,1-1.17c1.34-1.24,3.74-1.92,7.21-2.04
			c0.36-0.02,0.7-0.04,1.04-0.04c4.88,0,9.07,1.28,12.59,3.84c2.7,2.08,4.4,4.85,5.09,8.32c0.14,0.86,0.21,1.72,0.21,2.58
			c0,4.76-2.07,9.62-6.21,14.6c-0.38,0.46-0.77,0.92-1.17,1.38c-0.39,0.47-0.7,0.82-0.92,1.06c-0.48,0.53-0.72,0.99-0.72,1.4
			c0,0.29,0.13,0.54,0.39,0.75c0.29,0.26,1.27,0.62,2.94,1.08c2.22,0.6,3.85,1.23,4.88,1.9
			C690.67,674.67,691.32,675.48,691.58,676.44z M681.86,654.16c0.17-0.69,0.25-1.42,0.25-2.19c0-0.77-0.1-1.44-0.29-2.01
			c-0.41-1.2-1.35-2.24-2.83-3.14c-1.48-0.9-3.28-1.5-5.38-1.81c-0.46-0.07-0.75-0.11-0.9-0.11s-0.25,0-0.32,0
			c-0.14,0-0.28,0.01-0.39,0.04c-0.14,0.02-0.32,0.08-0.54,0.18c-0.02,0.02-0.06,0.05-0.11,0.07c-0.26,0.1-0.47,0.24-0.61,0.43
			c-0.14,0.19-0.22,0.48-0.23,0.86c-0.01,0.38-0.02,0.71-0.02,0.97c0,0.53,0.01,1.21,0.04,2.04c0.07,1.27,0.18,3.01,0.32,5.24
			c0,0.33,0.01,0.68,0.04,1.04c0.14,2.18,0.26,3.9,0.34,5.18c0.08,1.28,0.17,2.24,0.27,2.87c0.09,0.63,0.2,1.07,0.3,1.31
			c0.11,0.24,0.24,0.39,0.41,0.47c0.12,0.1,0.21,0.14,0.29,0.14c0.07,0,0.13,0,0.18,0h0.18l0.54-0.21c0.29-0.12,0.77-0.5,1.45-1.15
			s1.4-1.38,2.15-2.19c0.75-0.81,1.37-1.54,1.85-2.19c0.65-0.88,1.25-1.89,1.83-3.01S681.65,654.93,681.86,654.16z M706.22,677.09
			c-0.41-0.1-0.82-0.15-1.23-0.15c-1.54,0-2.97,0.61-4.3,1.84c-1.43,1.67-2.15,3.54-2.15,5.58c0,0.44,0.12,1.43,0.36,2.95
			s1.55,2.77,3.95,3.77c0.68,0.21,1.37,0.31,2.05,0.31c1.09,0,2.28-0.38,3.56-1.15s2.28-1.99,3-3.66c0.38-1.02,0.56-2,0.56-2.92
			c0-1.23-0.46-2.53-1.38-3.89C709.71,678.39,708.24,677.5,706.22,677.09z M686.06,387.12c-1.09-1.04-2.24-2.11-3.45-3.22
			c-1.21-1.1-2.09-1.87-2.64-2.3c-1.05-0.95-2.14-1.42-3.28-1.42c-0.97,0.02-1.75,0.32-2.35,0.91c-0.6,0.59-0.9,1.37-0.9,2.33
			c0,1.01,0.49,2.01,1.48,3c0.35,0.33,1.01,0.89,1.96,1.67c0.96,0.78,2.01,1.62,3.14,2.52c1.13,0.9,2.14,1.68,3.02,2.35
			c0.88,0.67,1.42,1.06,1.62,1.16c0.33,0.14,0.63,0.23,0.9,0.25c0.27,0.02,0.43,0.03,0.49,0.03c0.39,0,0.72-0.05,0.99-0.15
			c0.54-0.23,1-0.61,1.38-1.14c0.38-0.54,0.57-1.06,0.57-1.58c0-0.33-0.1-0.73-0.29-1.21c-0.2-0.47-0.42-0.9-0.67-1.27
			C687.81,388.8,687.15,388.16,686.06,387.12z"/>
	</g>
</g>
</svg>
