<?xml version="1.0" encoding="UTF-8" standalone="no"?>
<svg
   xmlns:dc="http://purl.org/dc/elements/1.1/"
   xmlns:cc="http://creativecommons.org/ns#"
   xmlns:rdf="http://www.w3.org/1999/02/22-rdf-syntax-ns#"
   xmlns:svg="http://www.w3.org/2000/svg"
   xmlns="http://www.w3.org/2000/svg"
   xmlns:sodipodi="http://sodipodi.sourceforge.net/DTD/sodipodi-0.dtd"
   xmlns:inkscape="http://www.inkscape.org/namespaces/inkscape"
   version="1.1"
   id="svg2"
   xml:space="preserve"
   width="462.66666"
   height="784"
   viewBox="0 0 462.66666 784"
   sodipodi:docname="ExitLocus-LogoNEG-Web.eps"><metadata
     id="metadata8"><rdf:RDF><cc:Work
         rdf:about=""><dc:format>image/svg+xml</dc:format><dc:type
           rdf:resource="http://purl.org/dc/dcmitype/StillImage" /></cc:Work></rdf:RDF></metadata><defs
     id="defs6" /><sodipodi:namedview
     pagecolor="#ffffff"
     bordercolor="#666666"
     borderopacity="1"
     objecttolerance="10"
     gridtolerance="10"
     guidetolerance="10"
     inkscape:pageopacity="0"
     inkscape:pageshadow="2"
     inkscape:window-width="640"
     inkscape:window-height="480"
     id="namedview4" /><g
     id="g10"
     inkscape:groupmode="layer"
     inkscape:label="ink_ext_XXXXXX"
     transform="matrix(1.3333333,0,0,-1.3333333,0,784)"><g
       id="g12"
       transform="scale(0.1)"><path
         d="m 366.289,3541.29 -15.238,-15.24 -34.571,24.97 -34.57,-24.97 -15.269,15.24 24.961,34.61 -24.961,34.57 15.269,15.23 34.57,-24.96 34.571,24.96 15.277,-15.23 -24.957,-34.57 z m -49.809,110.82 c -42.101,0 -76.25,-34.14 -76.25,-76.21 0,-42.11 34.18,-76.21 76.25,-76.21 42.11,0 76.219,34.1 76.219,76.21 0,42.07 -34.109,76.21 -76.219,76.21"
         style="fill:#ffffff;fill-opacity:1;fill-rule:nonzero;stroke:none"
         id="path14" /><path
         d="m 444.141,3833.16 -63.161,-10.23 -10.199,-63.13 h -32.34 l -10.242,63.13 -63.121,10.23 v 32.35 l 63.121,10.19 10.242,63.13 h 32.34 l 10.199,-63.13 63.161,-10.19 z M 273.75,3930.2 c -44.648,-44.69 -44.648,-117.08 0,-161.72 44.648,-44.65 117.07,-44.65 161.68,0 44.691,44.64 44.691,117.07 0,161.72 -44.61,44.6 -117.032,44.6 -161.68,0"
         style="fill:#ffffff;fill-opacity:1;fill-rule:nonzero;stroke:none"
         id="path16" /><path
         d="m 677.852,3852.85 -15.231,-15.23 -34.609,24.96 -34.571,-24.96 -15.242,15.23 24.961,34.57 -24.961,34.61 15.242,15.24 34.571,-24.97 34.609,24.97 15.231,-15.28 -24.961,-34.57 z m -49.84,110.82 c -42.071,0 -76.172,-34.14 -76.211,-76.25 0.039,-42.07 34.14,-76.21 76.211,-76.21 42.148,0 76.25,34.14 76.25,76.21 0,42.11 -34.102,76.25 -76.25,76.25"
         style="fill:#ffffff;fill-opacity:1;fill-rule:nonzero;stroke:none"
         id="path18" /><path
         d="m 677.852,1015.59 -15.231,-15.28 -34.609,24.96 -34.571,-24.96 -15.242,15.28 24.961,34.57 -24.961,34.57 15.242,15.23 34.571,-24.96 34.609,24.96 15.231,-15.23 -24.961,-34.57 z m -49.84,110.78 c -42.071,0 -76.172,-34.1 -76.211,-76.21 0.039,-42.11 34.14,-76.211 76.211,-76.211 42.109,0 76.25,34.101 76.25,76.211 0,42.11 -34.102,76.21 -76.25,76.21"
         style="fill:#ffffff;fill-opacity:1;fill-rule:nonzero;stroke:none"
         id="path20" /><path
         d="m 444.141,1072.11 -63.161,-10.23 -10.199,-63.13 h -32.34 l -10.203,63.13 -63.16,10.23 v 32.3 l 63.16,10.24 10.203,63.12 h 32.34 l 10.199,-63.12 63.161,-10.24 z M 273.75,1169.1 c -44.648,-44.65 -44.648,-117.03 0,-161.68 44.648,-44.65 117.07,-44.65 161.719,0 44.652,44.65 44.652,117.03 0,161.68 -44.649,44.65 -117.071,44.65 -161.719,0"
         style="fill:#ffffff;fill-opacity:1;fill-rule:nonzero;stroke:none"
         id="path22" /><path
         d="m 266.641,1396.29 15.269,15.23 34.57,-24.96 34.571,24.96 15.238,-15.23 -24.918,-34.57 24.957,-34.57 -15.277,-15.27 -34.571,24.96 -34.57,-24.96 -15.269,15.27 24.961,34.57 z m 49.839,-110.82 c 42.11,0 76.219,34.14 76.219,76.25 0,42.11 -34.109,76.21 -76.219,76.21 -42.101,0 -76.25,-34.14 -76.25,-76.21 0,-42.11 34.18,-76.25 76.25,-76.25"
         style="fill:#ffffff;fill-opacity:1;fill-rule:nonzero;stroke:none"
         id="path24" /><path
         d="m 1359.26,1773.2 h 111.87 l 22.5,-38.94 4.96,-8.64 28.52,-49.33 -55.98,-96.91 h -111.87 l -55.98,96.91 z m 166.17,-207.15 c 35.62,35.63 50.35,84.26 44.26,130.63 -0.59,4.34 -1.33,8.67 -2.27,13.01 -6.13,28.12 -20.12,54.92 -41.99,76.79 -3.67,3.68 -7.5,7.11 -11.45,10.36 -3.75,3.04 -7.57,5.89 -11.48,8.55 -15,10.16 -31.41,17.42 -48.36,21.8 -6.87,1.76 -13.87,3.04 -20.86,3.86 -40.86,4.73 -83.16,-6.6 -116.72,-34.1 -2.54,-2.07 -4.96,-4.25 -7.38,-6.48 -1.45,-1.33 -2.81,-2.62 -4.22,-3.99 -60.86,-60.86 -60.86,-159.57 0,-220.43 60.86,-60.85 159.61,-60.85 220.47,0"
         style="fill:#ffffff;fill-opacity:1;fill-rule:nonzero;stroke:none"
         id="path26" /><path
         d="m 1025.27,1941.8 15.24,15.23 34.57,-24.96 34.57,24.96 15.23,-15.23 -24.92,-34.57 24.96,-34.57 -15.23,-15.28 -34.61,24.96 -34.57,-24.96 -15.24,15.28 24.93,34.57 z m 49.81,-110.82 c 42.11,0 76.21,34.14 76.21,76.25 0,8.71 -1.49,17.03 -4.18,24.8 -4.14,11.92 -11.09,22.5 -20.16,30.9 -13.59,12.69 -31.79,20.51 -51.87,20.51 -42.11,0 -76.209,-34.1 -76.209,-76.21 0,-42.11 34.139,-76.25 76.209,-76.25"
         style="fill:#ffffff;fill-opacity:1;fill-rule:nonzero;stroke:none"
         id="path28" /><path
         d="m 1205.7,1016.17 c -14.18,-14.18 -33.04,-22.029 -53.12,-22.029 -20.08,0 -38.99,7.849 -53.17,22.029 l -401.012,401.06 c 6.911,0.54 13.75,1.79 20.512,3.59 0.969,0.27 1.949,0.43 2.93,0.74 0.191,0.04 0.39,0.12 0.621,0.2 11.988,3.63 23.48,9.33 34.019,16.91 l 382.58,-382.54 c 3.67,-3.71 8.52,-5.54 13.32,-5.54 4.89,0 9.69,1.83 13.36,5.54 7.38,7.39 7.38,19.34 0,26.72 l -382.541,382.54 c 12.582,17.46 19.77,37.58 21.492,58.13 L 1205.7,1122.5 c 14.22,-14.22 22.03,-33.09 22.03,-53.16 0,-20.08 -7.81,-38.95 -22.03,-53.17 z m -554.098,447.81 c -3.282,0.82 -6.524,1.8 -9.723,3.05 -11.141,4.26 -21.609,10.82 -30.59,19.81 -7.891,7.85 -13.867,16.87 -18.09,26.48 -0.578,1.37 -1.168,2.73 -1.75,4.1 -1.179,3.2 -2.187,6.45 -3.008,9.73 -5.863,23.05 -2.23,48.01 10.969,68.63 3.36,5.24 7.27,10.24 11.879,14.84 4.609,4.58 9.57,8.48 14.84,11.84 20.633,13.2 45.551,16.84 68.601,11.02 3.282,-0.82 6.52,-1.84 9.719,-3.05 1.25,-0.47 2.461,-1.02 3.711,-1.52 9.731,-4.26 18.91,-10.32 26.918,-18.29 8.981,-9.02 15.543,-19.49 19.801,-30.62 1.211,-3.2 2.191,-6.45 3.051,-9.73 5.82,-23.04 2.191,-47.97 -10.981,-68.59 -3.398,-5.27 -7.301,-10.27 -11.871,-14.84 -4.609,-4.61 -9.609,-8.52 -14.848,-11.88 -20.621,-13.2 -45.582,-16.84 -68.628,-10.98 z m -154.961,154.97 -141.95,141.95 c -14.222,14.22 -22.031,33.08 -22.031,53.16 0,20.08 7.809,38.95 22.031,53.17 14.18,14.18 33.079,21.99 53.118,21.99 20.082,0 38.992,-7.81 53.171,-21.99 l 217.969,-217.97 c -15.429,-1.29 -30.59,-5.67 -44.57,-13.05 -4.649,-2.5 -9.18,-5.27 -13.559,-8.44 l -199.492,199.5 c -7.348,7.34 -19.34,7.38 -26.68,0 -7.378,-7.39 -7.378,-19.34 0,-26.72 l 199.454,-199.5 c -12.543,-17.46 -19.762,-37.57 -21.442,-58.08 z M 805,1529.88 c 0.898,30.9 -10.352,62.11 -33.949,85.71 -2.891,2.89 -5.821,5.54 -8.86,8 -2.742,2.23 -5.55,4.34 -8.441,6.29 -0.629,0.39 -1.289,0.74 -1.91,1.14 -2.309,1.52 -4.649,2.96 -7.039,4.29 -0.539,0.31 -1.129,0.55 -1.711,0.86 -2.5,1.33 -5.039,2.62 -7.699,3.75 -0.352,0.16 -0.7,0.28 -1.051,0.43 -2.86,1.21 -5.75,2.35 -8.68,3.32 -0.109,0.04 -0.23,0.04 -0.351,0.08 -11.868,3.95 -24.258,5.98 -36.637,5.98 -1.133,0 -2.262,-0.12 -3.363,-0.16 l -156.09,156.05 -64.918,64.93 c -15.59,15.58 -36.02,23.4 -56.492,23.4 -20.43,0 -40.899,-7.82 -56.481,-23.4 -31.168,-31.17 -31.168,-81.76 0,-112.97 L 572.34,1536.56 c -0.891,-30.9 10.359,-62.11 33.949,-85.7 2.731,-2.74 5.551,-5.27 8.481,-7.66 0.152,-0.15 0.351,-0.31 0.5,-0.47 2.781,-2.22 5.589,-4.25 8.48,-6.21 0.391,-0.27 0.82,-0.54 1.211,-0.86 2.699,-1.71 5.43,-3.32 8.199,-4.84 0.711,-0.35 1.41,-0.74 2.11,-1.13 2.539,-1.29 5.121,-2.46 7.742,-3.6 1.047,-0.43 2.066,-0.86 3.078,-1.29 2.39,-0.89 4.769,-1.71 7.148,-2.46 1.371,-0.46 2.742,-0.86 4.102,-1.25 2.148,-0.58 4.301,-1.13 6.488,-1.6 1.641,-0.35 3.32,-0.66 5.043,-0.97 1.91,-0.32 3.859,-0.59 5.82,-0.82 4.649,-0.59 9.289,-0.94 13.981,-0.94 1.058,0 2.148,0.12 3.207,0.15 0.031,0 0.109,0 0.109,0 l 404.062,-404.06 c 15.63,-15.58 36.1,-23.401 56.53,-23.401 20.43,0 40.9,7.781 56.48,23.401 31.17,31.17 31.17,81.76 0,112.97 L 805,1529.88"
         style="fill:#ffffff;fill-opacity:1;fill-rule:nonzero;stroke:none"
         id="path30" /><path
         d="m 496.762,1893.24 c 2.418,0 4.84,0.94 6.679,2.78 l 108.899,108.9 c 3.711,3.67 3.711,9.69 0,13.36 -3.668,3.67 -9.641,3.67 -13.32,0 l -108.942,-108.9 c -3.668,-3.72 -3.668,-9.65 0,-13.36 1.871,-1.84 4.262,-2.78 6.684,-2.78"
         style="fill:#ffffff;fill-opacity:1;fill-rule:nonzero;stroke:none"
         id="path32" /><path
         d="m 588.871,1870.74 c 1.867,-1.83 4.289,-2.77 6.68,-2.77 2.418,0 4.84,0.94 6.679,2.77 l 35.43,35.39 c 3.668,3.67 3.668,9.65 0,13.36 -3.711,3.67 -9.691,3.67 -13.359,0 l -35.391,-35.43 c -3.711,-3.67 -3.711,-9.65 -0.039,-13.32"
         style="fill:#ffffff;fill-opacity:1;fill-rule:nonzero;stroke:none"
         id="path34" /><path
         d="m 657.621,1805.94 c 2.379,0 4.801,0.9 6.641,2.77 l 35.429,35.39 c 3.668,3.67 3.668,9.65 0,13.36 -3.711,3.67 -9.691,3.67 -13.363,0 l -35.387,-35.39 c -3.711,-3.71 -3.711,-9.69 0,-13.36 1.789,-1.87 4.258,-2.77 6.68,-2.77"
         style="fill:#ffffff;fill-opacity:1;fill-rule:nonzero;stroke:none"
         id="path36" /><path
         d="m 676.211,1709.92 c 1.84,-1.87 4.258,-2.77 6.641,-2.77 2.457,0 4.878,0.9 6.679,2.77 l 108.91,108.91 c 3.707,3.67 3.707,9.65 0,13.32 -3.671,3.71 -9.652,3.71 -13.32,0 l -108.91,-108.91 c -3.672,-3.67 -3.672,-9.65 0,-13.32"
         style="fill:#ffffff;fill-opacity:1;fill-rule:nonzero;stroke:none"
         id="path38" /><path
         d="m 775,1684.65 c 1.84,-1.88 4.262,-2.77 6.68,-2.77 2.422,0 4.84,0.89 6.679,2.77 l 35.391,35.39 c 3.672,3.67 3.672,9.69 -0.039,13.36 -3.672,3.67 -9.652,3.67 -13.32,0 L 775,1697.97 c -3.672,-3.67 -3.672,-9.65 0,-13.32"
         style="fill:#ffffff;fill-opacity:1;fill-rule:nonzero;stroke:none"
         id="path40" /><path
         d="m 843.711,1619.84 c 2.379,0 4.84,0.9 6.641,2.78 l 35.429,35.39 c 3.668,3.67 3.668,9.65 0,13.36 -3.711,3.67 -9.691,3.67 -13.359,0 l -35.391,-35.39 c -3.711,-3.71 -3.711,-9.69 0,-13.36 1.84,-1.88 4.258,-2.78 6.68,-2.78"
         style="fill:#ffffff;fill-opacity:1;fill-rule:nonzero;stroke:none"
         id="path42" /><path
         d="m 862.301,1523.83 c 1.84,-1.88 4.258,-2.78 6.679,-2.78 2.43,0 4.848,0.9 6.68,2.78 l 108.91,108.87 c 3.668,3.71 3.668,9.68 0,13.35 -3.711,3.72 -9.691,3.72 -13.359,0 l -108.91,-108.9 c -3.672,-3.67 -3.672,-9.65 0,-13.32"
         style="fill:#ffffff;fill-opacity:1;fill-rule:nonzero;stroke:none"
         id="path44" /><path
         d="m 961.09,1498.52 c 1.84,-1.84 4.262,-2.74 6.68,-2.74 2.429,0 4.851,0.9 6.679,2.74 l 35.391,35.39 c 3.71,3.71 3.71,9.68 0,13.36 -3.67,3.71 -9.64,3.71 -13.32,0 l -35.43,-35.39 c -3.668,-3.68 -3.668,-9.65 0,-13.36"
         style="fill:#ffffff;fill-opacity:1;fill-rule:nonzero;stroke:none"
         id="path46" /><path
         d="m 1071.88,1485.23 c -3.72,3.68 -9.65,3.68 -13.36,0 l -35.4,-35.39 c -3.67,-3.71 -3.67,-9.68 0,-13.36 1.88,-1.83 4.26,-2.77 6.68,-2.77 2.43,0 4.85,0.94 6.68,2.77 l 35.4,35.4 c 3.71,3.71 3.71,9.68 0,13.35"
         style="fill:#ffffff;fill-opacity:1;fill-rule:nonzero;stroke:none"
         id="path48" /><path
         d="m 1048.44,1337.7 c 1.79,-1.84 4.26,-2.78 6.68,-2.78 2.38,0 4.8,0.94 6.68,2.78 l 108.86,108.9 c 3.72,3.67 3.72,9.65 0,13.36 -3.67,3.67 -9.64,3.67 -13.36,0 l -108.86,-108.91 c -3.71,-3.71 -3.71,-9.68 0,-13.35"
         style="fill:#ffffff;fill-opacity:1;fill-rule:nonzero;stroke:none"
         id="path50" /><path
         d="m 1147.23,1312.42 c 1.79,-1.83 4.22,-2.77 6.68,-2.77 2.38,0 4.8,0.94 6.64,2.77 l 35.43,35.39 c 3.67,3.67 3.67,9.65 0,13.36 -3.71,3.67 -9.69,3.67 -13.36,0 l -35.39,-35.39 c -3.71,-3.67 -3.71,-9.69 0,-13.36"
         style="fill:#ffffff;fill-opacity:1;fill-rule:nonzero;stroke:none"
         id="path52" /><path
         d="m 1215.94,1247.62 c 2.38,0 4.8,0.93 6.64,2.77 l 35.43,35.39 c 3.67,3.67 3.67,9.65 0,13.36 -3.67,3.67 -9.69,3.67 -13.36,0 l -35.39,-35.39 c -3.71,-3.71 -3.71,-9.69 0,-13.36 1.79,-1.84 4.26,-2.77 6.68,-2.77"
         style="fill:#ffffff;fill-opacity:1;fill-rule:nonzero;stroke:none"
         id="path54" /><path
         d="m 1356.8,1273.87 c -3.71,3.67 -9.69,3.67 -13.36,0 l -108.91,-108.91 c -3.67,-3.71 -3.67,-9.69 0,-13.36 1.84,-1.83 4.26,-2.77 6.68,-2.77 2.38,0 4.84,0.94 6.68,2.77 l 108.91,108.91 c 3.67,3.67 3.67,9.69 0,13.36"
         style="fill:#ffffff;fill-opacity:1;fill-rule:nonzero;stroke:none"
         id="path56" /><path
         d="m 3361.68,1927.5 -92.81,-223.91 4.65,-1.71 c 28.78,-10.59 58.24,-19.61 88.16,-27.11 v -124.81 l -7.03,-12.11 -13.4,-19.49 -13.09,3.12 -3,23.09 -1.57,29.57 -28,7.89 -16.57,-24.1 -14.84,-18.4 -12.81,4.18 -1.21,23.24 0.78,29.57 -27.35,10.08 -18.39,-22.69 -16.25,-17.19 -12.47,5.16 0.63,23.28 3.09,29.41 -26.41,12.23 -20.16,-21.25 -17.58,-15.82 -11.99,6.13 2.46,23.12 5.39,29.11 -25.43,14.25 -21.68,-19.61 -18.75,-14.37 -11.48,7.03 4.22,22.89 7.66,28.6 -24.18,16.17 -23.21,-17.82 -19.8,-12.89 -10.9,7.89 6.02,22.47 9.92,27.92 -15.98,12.62 0.78,0.78 -0.27,0.47 15.66,15.63 13.63,13.63 9.81,9.84 0.35,-0.35 26.72,26.68 9.22,9.22 c 51.68,-40.08 107.66,-74.1 167.15,-101.48 l 4.45,-2.07 145.86,352.11 z m 0,-502.07 c -22.85,4.96 -46.21,7.54 -69.96,7.54 -77.7,0 -153.01,-27.62 -212.07,-77.74 l -3.91,-3.32 178.48,-178.47 3.08,1.48 c 21.76,10.78 47.19,10.78 69.07,0 l 3.01,-1.48 32.3,32.26 v -201.68 l -32.3,32.31 -3.05,-1.49 c -21.84,-10.78 -47.23,-10.78 -69.03,0 l -3.08,1.53 -178.48,-178.518 3.95,-3.321 c 5,-4.261 10.11,-8.32 15.39,-12.261 h -89.53 l 8.04,11.601 3.68,3.16 -21.96,26.801 -3.63,-2.621 -22.07,-9.731 -23.2,-4.718 -6.76,10.117 13.28,19.641 17.07,16.492 4.1,2.457 -16.29,30.551 -4.1,-2.04 -23.44,-5.109 -23.67,-0.121 -4.69,11.25 16.88,16.641 19.88,12.808 4.65,1.531 -10.12,33.32 -4.45,-1.25 -23.91,-0.47 -23.28,4.49 -2.34,11.95 19.76,13.05 22.07,8.71 4.81,0.67 -2.58,25.89 -0.47,4.73 -0.39,3.91 -4.84,-0.36 -6.53,1.18 -16.79,3 -21.96,8.99 v 12.19 l 21.18,8.59 0.78,0.35 23.32,4.22 4.84,-0.31 0.08,0.47 0.47,4.72 2.89,29.5 -4.69,0.46 -22.22,8.72 -19.73,13 2.34,12 23.28,4.49 23.68,-0.39 4.68,-1.29 10.12,33.16 -4.26,1.53 -20.27,12.92 -16.88,16.65 4.69,11.28 23.67,-0.15 23.17,-5 4.37,-2.19 16.41,30.67 -4.02,2.26 -17.27,16.6 -13.28,19.61 6.8,10.16 23.2,-4.77 21.64,-9.41 3.83,-3.17 22.22,26.96 -3.47,3 -13.52,19.5 -8.98,21.56 8.63,8.63 21.6,-8.94 19.22,-13.28 3.24,-3.64 26.8,22 -2.77,3.67 -9.61,21.95 -4.77,23.2 10.16,6.8 19.61,-13.28 16.44,-17.03 2.38,-4.26 30.63,16.37 -1.99,4.1 -5.16,23.48 -0.12,23.67 11.25,4.65 16.68,-16.84 12.82,-19.88 1.52,-4.69 33.48,10.19 -1.45,4.57 -0.43,23.72 4.49,23.28 12,2.38 12.96,-19.77 8.72,-21.99 0.5,-4.88 34.77,3.4 -0.35,4.88 4.18,23.28 8.9,21.96 h 12.23 l 8.95,-21.96 4.17,-23.32 -0.35,-4.84 34.53,-3.4 0.67,4.41 8.75,22.43 6.99,10.66 z M 2657.07,842.27 c -0.55,9.41 -0.9,19.609 -0.9,30.699 V 975 c 0,10.898 -1.6,21.449 -4.53,31.41 -0.51,1.79 -1.05,3.55 -1.68,5.31 -0.66,1.8 -1.33,3.59 -2.07,5.39 -7.07,17.42 -18.48,32.69 -32.81,44.41 -1.33,1.1 -2.66,2.11 -4.03,3.13 -1.28,1.01 -2.65,1.95 -4.06,2.89 -17.85,12.15 -39.41,19.26 -62.61,19.26 h -243.25 v 0.04 l 4.69,4.64 0.35,-0.35 26.6,26.6 1.88,1.84 h 209.73 c 23.32,0 45,7.19 62.92,19.45 1.37,0.94 2.74,1.92 4.07,2.93 1.36,1.02 2.65,2.03 3.98,3.13 15.27,12.58 27.15,29.14 34.06,48.08 0.67,1.76 1.25,3.56 1.84,5.39 0.51,1.76 1.02,3.52 1.48,5.32 2.23,8.79 3.44,18.01 3.44,27.5 v 3.08 l 7.31,-15 h 19.41 l 6.06,12.46 v -0.54 c 0,-61.64 50.15,-111.8 111.79,-111.8 h 67.74 l -5.63,-2.27 0.04,-24.88 13.83,-5.62 h -75.98 c -61.64,0 -111.79,-50.16 -111.79,-111.8 V 872.969 c 0,-11.09 -0.32,-21.289 -0.9,-30.699 z m -288.67,170.78 3.28,-4.03 68.36,68.32 h 24.49 l -80.58,-80.539 4.02,-3.321 c 25.43,-20.98 57.65,-32.539 90.78,-32.539 33.09,0 65.27,11.559 90.7,32.539 l 4.03,3.282 -80.59,80.578 h 24.49 l 68.36,-68.32 3.28,3.99 c 9.85,11.95 17.35,25.15 22.74,38.94 9.1,-7.97 16.79,-17.54 22.62,-28.24 l -3.95,2.15 -21.33,-31.719 13.09,-10.309 6.72,-8.832 8.75,-22.77 -7.62,-7.621 -22.81,8.75 -8.79,6.68 -10.35,13.082 -31.68,-21.32 8,-14.61 2.82,-10.82 -0.71,-24.652 -9.8,-4.18 -17.58,16.871 -5.51,9.692 -4.53,16.168 -37.3,-7.77 1.75,-16.559 -1.56,-11.171 -10.08,-22.7 -10.54,-0.121 -9.65,22.43 -1.37,11.09 2.03,16.801 -37.18,7.109 -4.81,-16.137 -5.7,-9.801 -17.93,-17.269 -9.65,3.949 -0.23,24.527 2.96,10.942 8.28,14.801 -31.44,20.859 -10.51,-13.129 -8.9,-6.91 -22.86,-9.02 -7.38,7.34 9.02,22.891 6.84,8.828 13.16,10.551 -20.89,31.479 -14.77,-8.28 -10.86,-3.01 -24.57,0.28 -3.91,9.64 17.27,17.93 9.8,5.71 16.14,4.76 -5.2,27.03 h 29.34 c 4.33,-23.04 14.3,-45.23 30,-64.29 z m 23.9,164.92 12.23,12.23 61.21,-61.18 h -24.49 z m 408.52,383.24 13.36,32.23 -3.44,2.26 -15.27,9.89 -3.17,3.36 -8.59,24.1 5.35,5.39 24.14,-8.56 3.4,-3.16 9.88,-15.27 2.19,-3.36 32.27,13.47 -4.26,20.04 -0.43,2.03 0.12,5.16 11.09,24.1 h 7.42 l 3.91,-8.44 7.19,-15.66 0.15,-5.67 -4.68,-21.79 32.22,-13.36 12.11,18.71 3.36,3.16 24.14,8.56 5.35,-5.35 -8.55,-24.1 -3.17,-3.36 -18.75,-12.15 13.36,-32.23 21.72,4.69 4.53,-0.16 22.85,-10.97 v -7.58 l -22.85,-11.06 -4.41,-0.11 -21.8,4.68 -13.36,-32.22 18.71,-12.15 3.17,-3.32 8.55,-24.18 -5.35,-5.31 -24.14,8.55 -3.36,3.16 -12.11,18.75 -32.22,-13.24 4.68,-21.68 -0.15,-4.33 -10.98,-22.62 h -7.62 l -11.01,22.58 -0.12,4.1 4.69,21.8 -32.27,13.36 -12.11,-18.72 -3.36,-3.2 -24.14,-8.55 -5.35,5.35 8.56,24.18 3.16,3.36 18.67,12.11 -13.44,32.18 -22.03,-4.64 -5,0.15 -15.27,7.11 -8.52,3.95 v 7.46 l 23.79,11.05 5.35,0.16 1.02,-0.24 z m -112.7,-305.35 -0.15,-4.38 -11.02,-22.57 h -7.57 l -10.98,22.57 -0.16,4.11 4.69,21.79 -6.76,2.82 -4.72,1.91 -4.73,1.95 -16.06,6.64 -12.11,-18.71 -3.35,-3.16 -24.15,-8.56 -5.31,5.35 8.56,24.15 3.12,3.35 18.67,12.15 -13.43,32.19 -22.04,-4.69 -4.96,0.16 -18.86,8.79 -4.96,2.3 v 7.46 l 23.82,11.06 1.22,0.04 4.14,0.12 21.83,-4.69 13.36,32.22 -6.64,4.26 -12.11,7.85 -3.16,3.4 -8.56,24.1 5.35,5.36 24.11,-8.56 3.35,-3.12 7.9,-12.11 4.21,-6.57 16.06,6.76 4.73,1.95 4.72,2 6.72,2.81 -4.65,22.07 0.08,2.81 0.08,2.35 11.05,24.1 h 7.46 l 2.23,-4.89 8.83,-19.21 0.15,-5.67 -4.68,-21.83 5.51,-2.27 9.45,-3.91 17.3,-7.18 12.07,18.75 3.4,3.12 24.14,8.6 5.31,-5.36 -8.55,-24.14 -3.16,-3.36 -18.71,-12.11 13.32,-32.22 21.71,4.69 4.54,-0.16 22.85,-11.02 v -7.57 l -22.85,-11.02 -4.46,-0.16 -21.76,4.73 -13.35,-32.27 18.71,-12.11 3.16,-3.35 8.55,-24.15 -5.31,-5.35 -24.14,8.56 -3.4,3.2 -12.07,18.75 -17.3,-7.11 -9.45,-3.9 -5.51,-2.27 z m -220.58,-3.36 -0.27,0.43 28.16,28.16 -0.74,-5.93 37.26,-7.15 4.73,16.13 5.7,9.81 17.97,17.26 9.61,-3.94 0.31,-24.54 -3,-10.89 -8.32,-14.77 31.52,-20.9 10.55,13.21 8.94,6.95 22.97,9.14 7.38,-7.35 -9.14,-22.96 -6.95,-8.99 -13.2,-10.55 20.86,-31.48 4.57,2.54 c -5.98,-12.23 -14.3,-23.05 -24.38,-31.95 -5.39,14.14 -13.01,27.61 -23.05,39.8 l -3.28,4.02 -69.53,-69.53 h -24.53 l 81.8,81.76 -4.03,3.32 c -25.43,20.98 -57.61,32.5 -90.7,32.5 -6.17,0 -12.27,-0.39 -18.24,-1.17 z m -534.42,-446.051 -24.14,10.031 -13.59,-13.628 10,-24.141 13.09,-21.871 -13.64,-13.641 -0.74,0.75 -21.48,12.692 -24.14,10.039 -13.64,-13.59 8.05,-19.418 1.99,-4.723 13.05,-21.918 -13.59,-13.59 -21.53,12.649 -24.14,10.082 -13.59,-13.633 10.04,-24.137 13.04,-21.882 -13.67,-13.629 -0.7,0.699 -21.49,12.742 -24.14,10.039 -13.63,-13.641 10.04,-24.14 13.09,-21.871 -13.68,-13.629 -21.48,12.73 -24.1,10.039 -13.63,-13.629 10.03,-24.14 13.01,-21.879 -13.59,-13.629 -0.74,0.738 -21.49,12.7 -24.14,10.031 -13.63,-13.629 10.04,-24.141 13.04,-21.871 -13.59,-13.64 -21.52,12.742 -24.1,10.039 -13.68,-13.641 10.04,-24.14 13.09,-21.868 -13.63,-13.632 -0.75,0.742 -21.48,12.687 -24.14,10.039 -13.63,-13.629 10.04,-24.14 13.04,-21.879 -13.59,-13.629 -21.52,12.738 -24.15,10.031 -13.59,-13.628 10.04,-24.141 13.05,-21.871 -13.64,-13.641 -0.74,0.75 -21.48,12.692 -24.14,10.039 -13.64,-13.59 10.04,-24.141 13.09,-21.918 -13.63,-13.629 -21.53,12.727 -24.14,10.043 -13.63,-13.633 10.04,-24.137 13.08,-21.882 -13.63,-13.629 -0.74,0.738 -21.49,12.703 -24.14,10.039 -13.63,-13.601 10.04,-24.18 13.09,-21.871 -13.64,-13.59 -21.52,12.691 -24.14,10.039 -13.59,-13.629 5.43,-13.05 4.6,-11.09 13.05,-21.879 -13.63,-13.629 -0.74,0.738 -21.49,12.7 -24.14,10.031 V 742.34 l 44.18,44.14 18.87,18.911 18.9,18.871 18.01,18.008 319.53,319.57 51.96,51.95 18.9,18.87 0.08,0.07 18.79,18.83 51.95,51.96 787.19,787.14 h 600.82 l 2.97,-7.14 13.09,-21.88 -13.68,-13.63 -21.48,12.69 -8.13,3.4 -4.68,1.95 -4.73,2 -6.6,2.69 -13.63,-13.59 2.77,-6.6 1.95,-4.73 1.96,-4.69 3.36,-8.12 13.08,-21.92 -13.63,-13.59 -0.74,0.7 -21.49,12.74 -7.62,3.16 -4.72,1.95 -4.69,1.96 -7.11,2.97 -9.14,-9.14 0.74,-9.34 0.47,-6.21 0.24,-3.2 0.93,-2.27 3.17,-7.62 13.04,-21.87 -13.59,-13.63 h -0.04 l -21.48,12.69 -8.13,3.4 -4.72,1.95 -11.25,4.69 -4.57,-4.53 -9.11,-9.06 2.78,-6.61 1.95,-4.72 1.95,-4.69 3.4,-8.12 13.05,-21.92 -13.63,-13.63 -21.53,12.73 -8.63,3.6 -4.69,1.95 -4.72,1.95 -6.06,2.54 -13.63,-13.63 2.54,-6.06 1.95,-4.72 1.95,-4.69 3.6,-8.67 13.04,-21.88 -13.63,-13.63 -0.7,0.74 -21.53,12.7 -24.14,10.08 -13.63,-13.64 10.04,-24.14 13.09,-21.87 -13.64,-13.63 -21.52,12.69 -24.1,10.04 -13.63,-13.63 0.07,-0.16 1.8,-4.37 1.84,-4.38 6.32,-15.19 2.04,-3.44 2.96,-4.96 2.93,-4.96 5.12,-8.56 -13.63,-13.63 -0.7,0.74 -3.29,1.91 -4.14,2.47 -14.1,8.35 -24.14,10.04 -13.59,-13.63 10.04,-24.14 13.04,-21.87 -13.63,-13.64 -21.52,12.7 -24.1,10.04 -13.64,-13.64 10.04,-24.14 13.05,-21.87 -13.63,-13.63 -0.71,0.74 -21.52,12.73 -24.14,10.04 -13.59,-13.67 10.03,-24.1 13.05,-21.92 -13.63,-13.59 -21.53,12.7 -24.14,10.03 -13.08,-13.08 -0.51,-0.55 0.51,-1.25 9.53,-22.89 13.05,-21.87 -13.64,-13.64 -0.74,0.75 -8.2,4.88 -9.45,5.55 -3.83,2.3 -24.14,10.04 -4.81,-4.84 -4.72,-4.69 -4.11,-4.1 4.11,-9.85 4.72,-11.36 1.21,-2.93 13.09,-21.92 -13.63,-13.59 -0.67,0.39 -4.72,2.77 -4.73,2.81 -11.37,6.72 -24.14,10.04 -13.63,-13.59 10.04,-24.14 13.04,-21.92 -13.63,-13.63 -0.7,0.74 -21.53,12.74 -24.14,10.04 -13.63,-13.64 10.04,-24.14 13.09,-21.87 -13.64,-13.64 -21.48,12.7 -24.14,10.04 -13.63,-13.59 10.03,-24.15 13.05,-21.91 -13.63,-13.63 -0.74,0.74 -21.49,12.7 -24.14,10.07 -13.63,-13.63 10.04,-24.14 6.05,-10.08 2.93,-4.96 2.97,-4.96 1.13,-1.87 -3.51,-3.56 -6.53,-6.48 -3.63,-3.6 -1.44,0.86 -20,11.84 -24.14,10.04 -2.54,-2.5 -3.28,-3.32 -3.36,-3.32 -4.46,-4.46 10,-24.14 13.09,-21.87 -13.63,-13.64 -0.75,0.71 -10.66,6.33 -8.98,5.31 -1.84,1.05 -24.14,10.08 -5.94,-5.98 -3.51,-3.47 -3.64,-3.67 -0.54,-0.51 10.07,-24.14 13.05,-21.88 -13.63,-13.63 -14.45,8.55 -4.11,2.39 -2.93,1.76 -1.21,0.5 -22.93,9.53 -13.63,-13.63 2.93,-7.03 1.99,-4.77 5.12,-12.3 13.05,-21.88 -4.81,-4.84 -6.09,-6.05 -2.74,-2.78 -0.74,0.75 -1.56,0.93 -5.16,3.05 -14.76,8.75 -2.54,1.05 -21.6,8.99 -13.64,-13.63 10.08,-24.14 0.67,-1.14 2.81,-4.72 2.73,-4.57 0.08,-0.16 2.31,-3.87 2.42,-4.06 2.03,-3.36 -11.99,-11.95 -1.64,-1.68 -3.48,2.07 -4.73,2.73 -13.32,7.89 -24.14,10.04 -13.59,-13.59 6.87,-16.6 2.03,-4.85 1.14,-2.69 1.21,-2.07 11.83,-19.85 -13.63,-13.59 -0.74,0.7 -21.49,12.74 -24.14,10.04 -13.63,-13.64 10.08,-24.14 13.05,-21.87 -13.68,-13.631 -21.48,12.691 -24.1,10.08 -13.67,-13.63 10.07,-24.141 13.05,-21.918 -13.63,-13.59 -0.74,0.699 -21.49,12.731 -24.14,10.039 -13.63,-13.629 10.04,-24.141 13.08,-21.871 -13.63,-13.64 -21.52,12.703 -24.1,10.078 -13.64,-13.68 10.04,-24.101 13.05,-21.911 -13.63,-13.597 -0.71,0.711 -21.52,12.687 -24.14,10.082 -13.59,-13.633 4.6,-11.097 5.43,-13.039 13.05,-21.883 -13.67,-13.629 z M 273.75,842.27 H 108.59 v 995.78 l 0.16,0.15 253.199,252.46 h 732.661 c 16.91,0 33.75,1.18 50.39,3.4 3.4,0.47 6.8,0.98 10.16,1.53 27.65,4.45 54.68,11.83 80.62,22.22 v -27.15 h 55.55 c 1.64,-1.95 3.28,-3.86 4.88,-5.82 2.74,-3.16 5.47,-6.32 8.24,-9.41 0.67,-0.74 1.33,-1.48 2.03,-2.23 1.45,-1.6 2.86,-3.2 4.34,-4.8 0.74,-0.82 1.52,-1.64 2.3,-2.46 9.61,-10.35 19.61,-20.32 29.97,-29.96 1.75,-1.64 3.51,-3.28 5.35,-4.93 0.62,-0.58 1.25,-1.17 1.87,-1.71 1.72,-1.57 3.44,-3.05 5.16,-4.57 2.19,-1.92 4.33,-3.83 6.48,-5.71 2.5,-2.15 5.04,-4.22 7.58,-6.29 10.86,-9.02 22.07,-17.61 33.56,-25.86 2.65,-1.87 5.35,-3.75 8.04,-5.62 4.3,-2.97 8.6,-5.82 12.93,-8.67 2.78,-1.8 5.55,-3.56 8.32,-5.32 11.92,-7.5 24.1,-14.57 36.6,-21.21 2.9,-1.56 5.79,-3.08 8.72,-4.57 3.71,-1.91 7.5,-3.79 11.25,-5.62 0.93,-0.43 1.87,-0.9 2.77,-1.33 1.91,-0.94 3.87,-1.8 5.78,-2.69 1.05,-0.51 2.11,-0.98 3.12,-1.49 12.78,-5.82 25.79,-11.25 39.03,-16.21 2.26,-0.82 4.57,-1.68 6.83,-2.5 0.82,-0.31 1.61,-0.59 2.39,-0.86 2.18,-0.78 4.33,-1.56 6.56,-2.3 2.73,-0.94 5.55,-1.84 8.36,-2.78 3.09,-0.97 6.21,-1.99 9.33,-2.97 13.4,-4.1 27,-7.77 40.79,-10.93 3.16,-0.75 6.36,-1.45 9.61,-2.11 5.11,-1.1 10.27,-2.15 15.43,-3.09 3.24,-0.62 6.48,-1.13 9.68,-1.68 9.1,-1.52 18.25,-2.85 27.42,-3.94 V 1215.23 L 1303.12,842.27 Z m -165.16,1076.4 v 171.99 h 171.64 l 8.129,-19.45 -13.668,-13.63 -24.14,10.04 -21.492,12.73 -13.629,-13.63 13.09,-21.92 10.031,-24.14 -13.629,-13.63 -24.141,10.08 -21.48,12.69 -0.75,0.75 -13.629,-13.64 13.047,-21.87 10.043,-24.14 -13.633,-13.63 -24.149,10.03 -21.441,12.74 -13.629,-13.63 13.039,-21.92 10.039,-24.1 -13.629,-13.63 -13.359,5.54 -2.66,1.1 z m 1657.23,-613.71 -18.79,-18.83 -0.12,-0.04 -18.86,-18.9 -14.18,-14.18 v 675.19 c 0,9.34 -0.75,18.44 -2.07,27.39 -1.49,9.53 -3.71,18.79 -6.6,27.77 -0.55,1.64 -1.1,3.28 -1.68,4.88 -0.59,1.68 -1.22,3.28 -1.84,4.92 -0.63,1.64 -1.25,3.29 -1.91,4.93 -14.85,34.96 -40.39,64.25 -72.54,83.71 -2.74,1.64 -5.51,3.2 -8.28,4.68 -15.47,8.29 -32.31,14.34 -50.04,17.78 -3.17,0.62 -6.33,1.13 -9.57,1.6 -2.39,0.31 -4.73,0.62 -7.11,0.86 v 37.73 c 6.13,-3.67 12.42,-7.15 18.79,-10.47 2.77,-1.48 5.58,-2.93 8.39,-4.29 15.9,-7.85 32.31,-14.53 49.11,-20.08 2.96,-0.98 5.97,-1.95 9.02,-2.85 24.06,-7.23 48.91,-12.07 74.26,-14.42 3.12,-0.31 6.29,-0.58 9.41,-0.82 8.56,-0.54 17.11,-0.86 25.7,-0.86 0.04,0 0.08,0 0.12,0 9.1,0 18.17,0.36 27.19,1.02 3.16,0.2 6.29,0.51 9.45,0.78 25.71,2.5 50.86,7.58 75.24,15.08 3,0.94 6.01,1.91 8.98,2.93 16.76,5.62 33.13,12.46 48.95,20.39 2.85,1.41 5.62,2.89 8.39,4.37 5.55,2.97 11.02,6.02 16.41,9.26 v -37.77 c -1.44,-0.12 -2.89,-0.35 -4.37,-0.51 -3.25,-0.39 -6.45,-0.9 -9.61,-1.44 -17.86,-3.21 -34.73,-9.03 -50.36,-17.04 -2.77,-1.48 -5.54,-2.96 -8.28,-4.57 -33.28,-19.45 -59.72,-49.25 -74.88,-85.07 -0.7,-1.64 -1.29,-3.29 -1.95,-4.93 -0.67,-1.64 -1.29,-3.24 -1.84,-4.92 -0.58,-1.6 -1.13,-3.24 -1.68,-4.88 -1.99,-6.13 -3.67,-12.46 -5,-18.91 -2.42,-11.72 -3.67,-23.83 -3.67,-36.25 v -609.06 z m -344.41,785.7 h 18.28 c 27.54,-22.34 57.5,-41.71 89.45,-57.73 2.81,-1.41 5.66,-2.81 8.52,-4.14 15.89,-7.58 32.22,-14.34 49.02,-20.16 2.97,-1.05 5.98,-2.07 8.94,-3.01 21.65,-7.1 43.91,-12.69 66.76,-16.71 8.75,-18.4 13.67,-38.99 13.67,-60.71 v -9.18 c -36.6,4.69 -72.1,12.97 -106.17,24.46 -2.97,1.01 -5.93,2.07 -8.9,3.12 -16.72,5.98 -33.09,12.74 -49.03,20.2 -2.85,1.32 -5.66,2.69 -8.51,4.06 -43.99,21.56 -84.69,48.75 -121.21,80.62 -2.43,2.07 -4.77,4.18 -7.07,6.29 -11.64,10.51 -22.82,21.49 -33.48,32.89 z m 170.7,-68.94 c -16.8,5.82 -33.16,12.58 -49.02,20.16 l 10.97,26.56 c 18.09,-2.5 35.08,-8.44 50.32,-17.11 z m 361.09,21.33 c -15.82,-7.7 -32.15,-14.53 -48.9,-20.43 l -12.42,30.04 c 15.39,8.39 32.5,13.98 50.66,16.13 z m 496.76,47.61 -9.49,-17.03 -26.72,3.64 -25.39,6.21 -12.07,-19.38 16.72,-20.08 15.08,-22.42 -11.25,-16.09 -26.22,6.37 -24.64,8.67 -13.91,-18.01 14.53,-21.68 12.74,-23.83 -12.86,-14.92 -25.39,8.98 -23.63,11.14 -15.7,-16.53 12.3,-23 10.28,-25 -14.26,-13.52 -24.46,11.48 -22.3,13.48 -17.3,-14.84 9.92,-24.14 7.61,-25.9 -15.5,-12.03 -23.13,13.9 -20.9,15.67 -18.75,-13.01 7.43,-25.04 5.03,-26.48 -16.68,-10.43 -21.56,16.17 -19.22,17.69 -19.92,-11.05 4.85,-25.67 2.3,-26.87 -17.66,-8.63 -19.84,18.24 -17.3,19.57 -20.98,-9.02 2.23,-26.02 -0.4,-26.99 -18.43,-6.8 -17.89,20.2 -15.24,21.17 -21.79,-6.8 -0.4,-26.13 -3.16,-26.8 -19.02,-4.92 -15.78,21.87 -12.97,22.66 -22.39,-4.57 -3.04,-25.98 -5.82,-26.28 -19.46,-3.01 -13.47,23.4 -10.67,23.82 -16.25,-1.68 v 35.9 c 62.11,5.98 121.84,19.96 178.25,40.9 l -39.89,96.25 13.91,-14.34 4.45,-4.6 5.9,2.42 23.75,9.84 -0.12,6.41 -0.35,24.1 41.29,-99.73 c 68.87,31.64 131.76,74.03 186.6,124.96 l -76.25,76.25 22.23,-9.65 5.9,-2.53 18.16,18.16 4.57,4.53 -2.58,5.9 -7.85,18.09 73.28,-73.25 c 30.43,32.82 57.78,68.56 81.6,106.64 z m -274.26,0 h 2.15 l -0.97,-1.13 -6.18,-6.99 0.35,-0.55 13.13,-21.72 10.74,-24.84 -13.59,-13.63 -24.88,10.74 -22.23,13.48 -1.13,-1.02 -7.11,-6.25 -9.42,-8.2 10.39,-23.79 7.43,-26.1 -15.28,-11.71 -23.2,13.9 -20.31,16.25 -19.54,-13.05 7.27,-24.96 3.95,-26.79 -16.72,-9.65 -21.17,16.83 -18.05,18.75 -11.29,-5.58 -8.48,-4.18 -1.29,-0.63 3.91,-25.7 0.43,-27.11 -17.81,-7.34 -18.83,19.45 -15.24,20.7 -0.19,0.24 -8.87,-3.05 -13.32,-4.49 0.51,-25.98 -3.09,-26.91 -18.67,-5 -16.13,21.76 -12.54,22.73 -22.97,-4.53 -2.93,-25.82 -6.56,-26.29 -19.14,-2.5 -1.06,1.91 v 76.29 c 0,21.72 4.93,42.31 13.68,60.71 23.75,4.18 46.91,10.04 69.33,17.54 3.01,0.97 5.98,2.03 8.95,3.08 16.72,5.94 33.08,12.74 48.94,20.39 2.81,1.37 5.67,2.78 8.48,4.22 31.05,15.74 60.19,34.77 87.03,56.52 z M 108.59,2282.23 v 69.45 c 1.18,0.7 2.39,1.37 3.519,2.07 38.442,23.79 64.02,66.25 64.02,114.73 0,48.51 -25.578,91.01 -64.02,114.76 -1.129,0.71 -2.339,1.41 -3.519,2.07 v 225.71 h 986.02 c 11.13,0 22.19,-0.59 33.12,-1.64 3.4,-0.32 6.8,-0.71 10.2,-1.14 22.11,-2.81 43.71,-7.69 64.61,-14.69 3.59,-1.17 7.15,-2.42 10.7,-3.75 9.34,-3.43 18.48,-7.3 27.46,-11.56 5.71,-2.69 11.29,-5.58 16.84,-8.59 5.43,-2.97 10.74,-6.02 16.01,-9.26 v 50.63 h 240.9 v -91.57 c 3.28,3.09 6.68,6.1 10.12,9.03 2.38,2.07 4.84,4.06 7.31,6.05 16.56,13.52 34.17,25.31 52.65,35.39 2.77,1.49 5.55,3.05 8.36,4.46 15.78,8 32.23,14.68 49.06,20.15 3.01,0.94 5.98,1.95 9.07,2.81 19.68,5.78 40.03,9.73 60.78,11.84 3.12,0.31 6.29,0.55 9.41,0.78 8.56,0.66 17.07,1.06 25.7,1.06 0.04,0 0.08,0 0.08,0 9.14,0 18.21,-0.43 27.23,-1.18 3.16,-0.23 6.29,-0.5 9.45,-0.86 21.1,-2.22 41.72,-6.4 61.76,-12.42 3.05,-0.94 6.05,-1.83 9.06,-2.85 16.8,-5.59 33.13,-12.42 48.83,-20.59 2.81,-1.44 5.63,-2.96 8.36,-4.49 17.97,-9.96 35.08,-21.56 51.17,-34.8 2.46,-1.99 4.88,-4.03 7.27,-6.1 3.12,-2.69 6.25,-5.43 9.29,-8.28 v 91.57 h 240.9 v -50.63 c 19.1,11.84 39.34,21.64 60.31,29.41 3.52,1.33 7.11,2.58 10.71,3.75 22.03,7.35 44.88,12.43 68.28,15.12 3.4,0.39 6.84,0.74 10.23,1.06 9.73,0.82 19.54,1.29 29.42,1.29 h 962.42 v -223.29 c -1.21,-0.66 -2.38,-1.36 -3.56,-2.07 -5,-3.08 -9.76,-6.48 -14.25,-10.15 -1.41,-1.13 -2.74,-2.27 -4.07,-3.44 -1.28,-1.17 -2.57,-2.34 -3.82,-3.55 -6.14,-5.79 -11.68,-12.19 -16.6,-19.07 -1.14,-1.52 -2.23,-3.08 -3.25,-4.72 -1.05,-1.53 -2.03,-3.09 -3.01,-4.69 -10.15,-17.07 -16.71,-36.6 -18.47,-57.5 -0.16,-1.56 -0.31,-3.13 -0.35,-4.73 -0.12,-1.56 -0.12,-3.12 -0.12,-4.69 -0.04,-0.74 -0.08,-1.44 -0.08,-2.18 0,-10.86 1.33,-21.45 3.75,-31.56 0.39,-1.57 0.78,-3.09 1.21,-4.61 0.43,-1.53 0.86,-3.05 1.33,-4.57 5.98,-18.83 15.98,-35.94 29.02,-50.2 1.14,-1.21 2.31,-2.46 3.48,-3.63 1.21,-1.21 2.42,-2.42 3.67,-3.6 6.6,-6.21 13.83,-11.75 21.56,-16.56 0.94,-0.59 1.92,-1.13 2.86,-1.68 0.23,-0.15 0.47,-0.23 0.7,-0.39 v -225.7 H 1979.41 V 2220 c -3.71,-3.44 -7.46,-6.8 -11.29,-10.04 -2.42,-2.07 -4.88,-4.02 -7.34,-6.01 -15.78,-12.78 -32.54,-23.99 -50.08,-33.64 -2.77,-1.52 -5.5,-3.04 -8.36,-4.49 -15.74,-8.09 -32.11,-14.88 -48.9,-20.39 -3.01,-1.02 -6.02,-1.95 -9.06,-2.85 -19.69,-5.86 -40,-9.88 -60.71,-12.11 -3.16,-0.31 -6.29,-0.63 -9.45,-0.86 -9.02,-0.74 -18.09,-1.17 -27.23,-1.17 0,0 -0.04,0 -0.08,0 -8.63,0 -17.14,0.43 -25.7,1.05 -3.16,0.24 -6.29,0.47 -9.45,0.78 -20.35,2.07 -40.31,5.9 -59.73,11.49 -3.05,0.9 -6.01,1.87 -9.06,2.85 -16.84,5.39 -33.28,12.03 -49.1,19.96 -2.82,1.45 -5.59,2.97 -8.36,4.45 -18.09,9.77 -35.35,21.18 -51.56,34.22 -2.5,1.96 -5,3.91 -7.39,5.98 -4.14,3.48 -8.16,7.07 -12.11,10.74 v -91.52 h -240.9 v 50.62 c -5.27,-3.24 -10.58,-6.29 -15.97,-9.22 -5.55,-3 -11.13,-5.89 -16.84,-8.59 -8.83,-4.22 -17.81,-8.01 -26.95,-11.41 -3.71,-1.36 -7.42,-2.69 -11.17,-3.94 -22,-7.31 -44.77,-12.38 -68.05,-15.12 -3.4,-0.35 -6.8,-0.7 -10.19,-1.01 -9.85,-0.82 -19.77,-1.33 -29.81,-1.33 H 108.59 Z m 57.82,566.56 v 25.19 l 53.668,8.72 8.711,53.71 h 27.5 l 8.672,-53.71 53.711,-8.72 v -25.23 z m 516.32,55.59 19.461,19.45 44.137,-31.88 44.102,31.88 19.449,-19.45 -31.828,-44.15 8.277,-11.48 h -80.039 l 8.32,11.48 z m -574.14,147.07 821.211,821.21 3.719,3.75 3.71,3.71 85.7,85.66 85.16,85.16 5.97,6.01 6.06,6.02 32.34,32.34 25.24,25.28 18.98,18.94 64.37,64.38 1584.89,1584.92 V 4629.57 l -13.64,-13.63 -24.14,10.04 -21.48,12.69 -0.74,0.74 -13.64,-13.63 13.09,-21.87 10.04,-24.14 -13.63,-13.64 -24.14,10.04 -21.53,12.74 -13.59,-13.68 13.05,-21.83 10.03,-24.18 -13.63,-13.6 -24.1,10.04 -21.52,12.7 -0.75,0.74 -13.63,-13.63 13.05,-21.88 10.08,-24.14 -13.64,-13.63 -24.14,10.04 -21.52,12.69 -13.59,-13.63 13.04,-21.83 10.04,-24.14 -13.59,-13.68 -24.14,10.08 -21.53,12.7 -13.63,-13.64 13.09,-21.87 10,-24.14 -13.63,-13.63 -24.11,10.03 -21.48,12.7 -13.67,-13.59 13.08,-21.92 10.04,-24.14 -13.63,-13.59 -24.14,10.04 -21.49,12.69 -0.74,0.74 -13.59,-13.63 13.05,-21.87 10.03,-24.14 -13.67,-13.64 -24.1,10.04 -21.48,12.74 -13.68,-13.64 13.09,-21.91 10.04,-24.14 -13.63,-13.59 -24.14,10.03 -21.49,12.7 -0.74,0.74 -13.59,-13.63 13.04,-21.88 10,-24.14 -13.59,-13.63 -24.14,10.04 -21.49,12.7 -13.67,-13.6 5.74,-9.61 7.35,-12.26 2.69,-6.57 7.35,-17.57 -1.25,-1.29 -12.39,-12.39 -24.14,10.08 -3.59,2.11 -17.89,10.63 -0.74,0.7 -13.64,-13.63 13.09,-21.88 2.58,-6.29 6.4,-15.35 1.06,-2.5 -2.11,-2.07 -3.98,-4.02 -7.54,-7.54 -24.14,10.04 -9.65,5.7 -11.84,6.99 -3.9,-3.86 -9.73,-9.73 13.05,-21.92 10.03,-24.14 -4.57,-4.57 -4.02,-3.98 -5.04,-5.04 -5.62,2.34 -18.52,7.7 -1.99,1.21 -12.31,7.23 -7.18,4.25 -0.75,0.75 -13.63,-13.64 13.09,-21.87 10.04,-24.14 -13.64,-13.63 -24.14,10.03 -21.48,12.74 -13.63,-13.63 13.04,-21.92 8.44,-20.19 1.6,-3.91 -1.72,-1.72 -3.39,-3.44 -8.52,-8.47 -24.14,10.04 -21.49,12.69 -0.74,0.74 -13.63,-13.63 13.09,-21.87 6.64,-15.98 3.24,-7.85 0.12,-0.31 -3.29,-3.29 -10.31,-10.35 -24.14,10.08 -21.48,12.7 -13.68,-13.64 13.09,-21.87 10.04,-24.14 -13.63,-13.63 -23.67,9.84 -0.47,0.19 -8.79,5.2 -12.7,7.5 -0.74,0.74 -13.63,-13.63 13.08,-21.88 10,-24.14 -13.59,-13.63 -5.04,2.11 -8.55,6.09 -2,1.45 -3.16,-1.84 -0.31,0.12 -5.08,2.15 -3.32,1.95 -18.17,10.7 -13.67,-13.59 13.09,-21.87 10.04,-24.14 -13.64,-13.64 -24.14,10.04 -21.48,12.74 -0.74,0.7 -12.82,-12.77 -0.82,-0.86 1.53,-2.5 11.56,-19.38 0.47,-1.13 1.83,-4.45 -1.48,-2.58 v -0.04 l 6.13,-8.56 3.01,-7.22 0.08,-0.16 -13.63,-13.63 -1.57,0.62 -5.23,2.19 -17.34,7.23 -21.49,12.69 -13.63,-13.59 13.05,-21.92 0.35,-0.82 4.72,-11.4 4.77,-11.45 0.19,-0.47 -13.63,-13.59 -5.43,2.27 -5.27,2.18 -5.24,2.15 -8.2,3.44 -21.48,12.69 -0.75,0.75 -13.63,-13.64 12.07,-20.23 1.02,-1.64 10.04,-24.14 -13.64,-13.63 -24.14,10.03 -8.24,4.93 -13.24,7.81 -13.63,-13.63 13,-21.88 10.08,-24.14 -4.53,-4.57 -9.1,-9.06 -15.74,6.56 -8.4,3.48 -21.49,12.69 -0.74,0.74 -13.63,-13.63 6.48,-10.82 6.61,-11.05 10,-24.14 -13.6,-13.64 -3.01,1.25 -21.13,8.79 -2.34,1.41 -4.34,2.54 -4.3,2.54 -10.5,6.25 -13.64,-13.64 13.05,-21.87 3.56,-8.6 3.28,-7.81 3.2,-7.73 -13.63,-13.63 -24.14,10.03 -21.49,12.7 -0.74,0.74 -13.63,-13.63 3.55,-5.9 9.53,-15.98 10.04,-24.14 -13.63,-13.63 -15.39,6.41 -4.42,1.83 -4.33,1.8 -0.12,0.08 -21.41,12.65 -13.59,-13.63 13.05,-21.87 10.04,-24.14 -3.52,-3.52 -3.87,-3.91 -3.9,-3.9 -2.35,-2.31 -20.7,8.64 -3.44,1.4 -15.66,9.26 -5.82,3.48 -0.74,0.7 -13.64,-13.63 13.09,-21.88 10.04,-24.14 -13.63,-13.63 -24.14,10.08 -21.49,12.69 -13.63,-13.63 13.05,-21.88 10.03,-24.14 -13.63,-13.63 -3.05,1.29 -4.68,1.95 -4.69,1.92 -11.72,4.88 -8.24,4.88 -4.1,2.42 -4.1,2.46 -5.04,2.97 -0.75,0.71 -13.63,-13.64 4.38,-7.26 5,-8.44 3.71,-6.17 2.77,-6.68 3.63,-8.75 3.64,-8.71 -4.38,-4.34 -8.71,-8.75 -0.55,-0.54 -24.14,10.03 -21.48,12.74 -13.63,-13.63 6.48,-10.86 4.84,-8.13 1.72,-2.89 10.04,-24.14 -13.63,-13.63 -6.41,2.65 -10.74,4.5 -6.99,2.89 -21.49,12.69 -0.74,0.74 -13.63,-13.63 3.24,-5.43 9.85,-16.44 0.23,-0.63 9.8,-23.51 -13.63,-13.64 -19.65,8.21 -4.49,1.83 -7.23,4.3 -14.25,8.44 -13.64,-13.64 9.03,-15.15 4.02,-6.72 3.36,-8.09 6.68,-16.05 -13.63,-13.63 -24.14,10.03 -7.19,4.26 -13.52,7.97 -0.78,0.51 -0.74,0.7 -13.63,-13.63 13.08,-21.88 1.6,-3.86 5.39,-13.01 3.05,-7.27 -13.63,-13.63 -24.14,10.08 -18.09,10.66 -3.43,2.03 -5.43,-5.46 -8.17,-8.17 13.05,-21.87 6.17,-14.89 3.87,-9.25 -13.64,-13.64 -24.14,10.04 -11.64,6.92 -8.12,4.8 -1.72,1.02 -0.74,0.7 -13.64,-13.63 13.09,-21.88 10.04,-24.14 -3.44,-3.44 -7.89,-7.85 -2.3,-2.34 -9.5,3.94 -14.64,6.14 -6.18,3.63 -15.31,9.06 -13.63,-13.63 12.19,-20.43 H 842.852 c 0.429,3.75 0.738,7.58 0.738,11.44 0,53.72 -43.551,97.27 -97.262,97.31 -53.75,-0.04 -97.269,-43.56 -97.269,-97.31 0,-3.86 0.281,-7.69 0.742,-11.44 H 339.02 c 3.402,28.55 -5.782,58.32 -27.692,80.23 -38.008,37.97 -99.566,37.97 -137.539,0 -21.91,-21.91 -31.129,-51.68 -27.769,-80.23 h -37.43 z m 0,213.78 v 830.08 h 990.43 l -174.219,-174.22 -3.86,-3.82 -91.332,-91.33 -4.839,-4.89 -716.18,-716.17 z m 2606.57,830.08 v -0.27 l 27.26,-10.47 21.29,-10.16 -1.05,-13.39 -22.31,-6.64 -28.94,-6.14 -3.44,-28.9 26.41,-12.54 20.46,-11.84 -2.11,-13.32 -22.73,-4.8 -29.38,-3.91 -5.66,-28.55 25.31,-14.61 19.5,-13.36 -3.17,-13.09 -23.05,-3.05 -29.57,-1.52 -7.89,-28.05 24.11,-16.56 18.35,-14.84 -4.14,-12.82 -23.28,-1.21 -29.61,0.75 -10.04,-27.31 22.78,-18.4 17.11,-16.29 -5.16,-12.38 -23.24,0.63 -29.45,3.04 -12.23,-26.4 21.29,-20.12 15.78,-17.58 -6.09,-11.99 -23.13,2.42 -29.1,5.43 -14.26,-25.43 19.57,-21.72 14.42,-18.75 -7.07,-11.44 -22.86,4.22 -28.59,7.65 -16.17,-24.22 17.81,-23.16 12.11,-18.67 -225.66,225.7 130.58,-87.3 2.62,4.17 c 47.66,77.74 82.5,162 103.51,250.47 l 1.14,4.77 -258.09,51.33 48.91,48.86 220.27,-43.78 0.74,4.84 c 4.18,26.68 7.07,53.67 8.75,80.7 z m 442.69,0 c -25.27,-32.38 -41.48,-71.91 -45,-114.37 l -0.47,-5.16 h 163.32 l 1.02,3.32 c 5.35,16.88 18.59,30.08 35.47,35.43 l 3.32,1.06 v 79.72 h 26.09 v -79.72 l 3.28,-1.06 c 6.17,-1.95 11.8,-4.96 16.8,-8.79 v -86.01 c -5,-3.83 -10.63,-6.84 -16.8,-8.75 l -3.28,-1.06 V 3746.6 l 5.08,0.43 c 5.04,0.39 10.04,1.09 15,1.84 v -52.54 l -16.88,-2.27 0.9,-10.74 -2.81,-17.23 -9.22,-22.07 h -11.6 l -9.22,22.07 -2.85,17.23 0.9,10.74 -36.41,4.85 -1.95,-10.63 -7.23,-15.94 -14.61,-18.86 -11.17,2.97 -3.2,23.71 1.72,17.34 3.67,10.2 -33.95,14.06 -4.65,-9.77 -11.05,-13.51 -18.98,-14.5 -10.04,5.79 3,23.75 6.18,16.28 6.17,8.87 -29.18,22.42 -6.99,-8.28 -14.14,-10.15 -22.15,-9.11 -8.21,8.21 9.11,22.15 10.19,14.14 8.24,7.03 -22.38,29.1 -8.91,-6.13 -16.32,-6.17 -23.71,-3.01 -5.79,10.04 14.46,18.98 13.55,11.06 9.77,4.6 -14.06,33.99 -10.2,-3.63 -17.34,-1.72 -23.72,3.16 -3,11.21 18.9,14.61 15.9,7.19 10.63,1.95 -4.89,36.41 -10.82,-0.86 -17.42,2.81 -22.42,9.26 v 11.52 l 22.42,9.26 17.58,2.81 10.78,-0.82 4.81,36.33 -10.63,1.95 -15.94,7.23 -18.9,14.61 3,11.17 23.72,3.21 17.34,-1.68 10.2,-3.72 14.06,33.99 -9.77,4.65 -8.44,6.87 z m -232.15,-863.83 -11.91,26.72 -7.89,22.31 10.19,8.75 20.47,-11.1 24.85,-16.17 22.89,18.05 -9.81,27.58 -6.13,22.81 10.9,7.93 19.49,-12.7 23.48,-18 24.22,16.17 -7.54,28.24 -4.34,23.24 11.48,7.03 18.44,-14.14 21.99,-19.84 25.43,14.22 -5.35,28.75 -2.5,23.51 11.99,6.14 17.35,-15.59 20.39,-21.48 26.41,12.18 -3.05,29.11 -0.67,23.63 12.47,5.12 16.01,-16.84 18.63,-23.05 27.35,10.12 -0.82,29.22 1.25,23.55 12.81,4.18 14.61,-18.04 16.8,-24.46 28,7.93 1.53,29.22 3.04,23.44 13.13,3.12 13.16,-19.14 7.23,-12.5 v -122.89 c -29.8,-7.46 -59.1,-16.4 -87.77,-26.95 l -4.61,-1.72 92.38,-222.97 v -150.15 l -145.47,351.17 -4.45,-2.07 c -82.62,-38.01 -158.52,-88.71 -225.55,-150.74 h -0.04 l -74.29,74.33 z m -215.74,221.61 1.64,22.5 1.6,4.92 17.39,20.04 7.14,-2.07 3.87,-26.25 -1.4,-5.51 -10.63,-19.65 27.19,-21.84 16.87,14.61 4.1,2.07 25.59,1.49 3.63,-6.6 -14.96,-20.78 -3.98,-2.35 -21.37,-6.4 3.79,-34.65 22.15,-1.6 4.33,-1.41 18.87,-16.99 -2.11,-7.27 -24.41,-4.06 -108.48,108.48 z m -64.3,36.29 20.82,-14.97 2.35,-3.98 3.75,-12.42 -29.77,29.76 z m 185.55,306.05 0.47,24.34 9.92,4.02 17.89,-16.95 5.67,-9.65 4.68,-15.98 37.46,7.31 -1.87,16.56 1.45,10.9 9.96,22.22 h 10.78 l 9.88,-22.22 1.48,-10.86 -1.91,-16.57 37.5,-7.34 4.69,15.98 5.62,9.65 17.93,16.95 9.89,-4.02 0.46,-24.38 -2.93,-10.7 -8.2,-14.65 31.84,-20.98 10.47,13.01 9.06,6.88 23.12,8.86 7.54,-7.38 -9.02,-22.7 -6.92,-8.78 -13.28,-10.43 21.33,-31.37 14.77,8.05 10.94,2.89 24.88,-0.47 4.02,-9.61 -17.15,-17.54 -9.8,-5.59 -16.33,-4.57 7.5,-37.03 16.8,1.84 11.25,-1.41 22.73,-9.8 v -10.39 l -22.73,-9.77 -11.25,-1.45 -16.8,1.88 -7.46,-36.99 16.25,-4.65 9.84,-5.59 17.15,-17.54 -4.02,-9.61 -24.88,-0.46 -10.94,2.93 -14.77,7.96 -21.33,-31.32 13.28,-10.43 6.92,-8.79 9.02,-22.66 -7.54,-7.42 -23.12,8.94 -9.06,6.8 -10.47,12.97 -31.84,-20.9 8.2,-14.65 2.93,-10.74 -0.46,-24.33 -9.89,-4.03 -17.93,16.95 -5.62,9.65 -4.69,15.98 -37.5,-7.3 1.91,-16.57 -1.48,-10.97 -9.88,-22.31 h -10.78 l -9.96,22.31 -1.45,10.93 1.87,16.57 -37.46,7.34 -4.68,-16.02 -5.67,-9.61 -17.89,-16.99 -9.92,4.07 -0.47,24.29 2.97,10.78 8.2,14.65 -31.87,20.9 -10.51,-12.97 -8.95,-6.8 -23.2,-8.94 -7.5,7.38 9.03,22.7 6.87,8.79 13.28,10.43 -21.29,31.32 -14.76,-7.96 -10.98,-2.93 -24.88,0.46 -4.03,9.61 17.15,17.54 9.85,5.59 16.32,4.61 -7.46,37.03 -16.75,-1.88 -11.14,1.45 -22.58,9.77 v 10.43 l 22.58,9.76 11.06,1.41 16.76,-1.84 7.5,37.03 -16.29,4.57 -9.85,5.59 -17.15,17.54 4.03,9.61 24.88,0.47 10.98,-2.89 14.76,-8.05 21.29,31.37 -13.28,10.43 -6.87,8.78 -9.03,22.7 7.5,7.38 23.17,-8.86 8.98,-6.88 10.51,-12.97 31.87,20.94 -8.2,14.65 z m 39.88,-616.88 -100.62,100.63 -5.04,5 -4.96,5.04 -124.06,124.02 -288.36,288.36 -17.15,17.11 -17.11,17.11 -126.72,126.76 -25.12,25.12 11.21,11.25 3.4,3.35 3.4,3.44 15.78,15.71 568.79,-568.79 10.98,-11.02 9.18,-9.14 483.71,-483.71 h -67.5 z m -544.84,-299.92 h 7.3 l 2.39,5.94 10.62,26.52 0.43,0.98 0.16,1.05 1.05,6.76 15.94,5.63 3.91,-8.67 0.47,-1.02 0.7,-0.86 16.83,-21.84 2.39,-3.04 -12.15,-14.53 12.07,-19.38 25.35,6.13 26.76,3.68 9.57,-17.19 -0.04,-0.04 h -50.74 c -16.99,0 -33.91,-1.17 -50.59,-3.4 -7.15,11.29 -14.65,22.42 -22.42,33.28 z m -248.44,-29.84 h -23.51 c -26.6,21.56 -55.43,40.43 -86.18,56.09 -2.77,1.45 -5.62,2.85 -8.47,4.22 -15.82,7.74 -32.15,14.57 -48.87,20.55 -2.97,1.05 -5.9,2.11 -8.9,3.08 -22.78,7.66 -46.33,13.68 -70.43,17.89 -8.75,18.4 -13.68,38.91 -13.68,60.59 v 76.52 l 1.06,1.88 19.14,-2.5 6.56,-26.29 2.93,-25.86 22.97,-4.53 12.54,22.73 16.13,21.76 18.63,-5 3.09,-26.91 -0.47,-25.98 14.38,-4.88 7.81,-2.66 3.01,4.06 12.42,16.88 18.83,19.45 17.81,-7.38 -0.47,-27.07 -3.87,-25.66 2.31,-1.18 8.47,-4.18 10.28,-5.03 18.05,18.71 21.17,16.83 16.72,-9.65 -3.95,-26.75 -7.27,-25 19.54,-13.01 20.31,16.17 23.2,13.94 15.28,-11.71 -7.43,-26.1 -10.39,-23.79 11.49,-10.04 6.17,-5.43 4.37,2.66 17.86,10.78 24.88,10.78 13.59,-13.63 -10.74,-24.84 -13.48,-22.27 1.72,-1.95 5.55,-6.29 z m -704.69,31.13 c 2.31,2.15 4.69,4.22 7.08,6.29 36.71,32.42 77.81,60.08 122.22,81.95 2.81,1.41 5.67,2.78 8.52,4.11 15.94,7.5 32.26,14.29 48.98,20.27 2.97,1.05 5.94,2.15 8.91,3.16 34.37,11.68 70.23,20.04 107.22,24.81 v -9.3 c 0,-21.68 -4.88,-42.19 -13.63,-60.59 -23.2,-4.06 -45.9,-9.8 -67.85,-17.03 -3.01,-0.97 -6.02,-2.03 -8.95,-3.04 -16.75,-5.9 -33.16,-12.66 -48.98,-20.28 -2.89,-1.32 -5.7,-2.77 -8.52,-4.18 -31.64,-15.89 -61.28,-35.19 -88.51,-57.3 h -98.01 c 10.08,10.78 20.59,21.17 31.52,31.13 z m 168.91,17.27 c 15.86,7.61 32.23,14.37 49.02,20.23 l 12.35,-29.84 c -15.28,-8.56 -32.35,-14.38 -50.43,-16.72 z m 363.32,19.33 c 16.76,-5.93 33.09,-12.81 48.91,-20.5 l -10.59,-25.51 c -18.2,2.03 -35.39,7.5 -50.86,15.74 z m 256.49,920.86 18.55,18.56 93.16,-93.24 z m 353.51,-325.35 11.33,-20.82 -8.75,-10.19 -20.63,7.26 0.2,1.49 0.78,6.25 -5.43,3.12 -15.47,8.95 -5.43,3.16 -5,-3.83 -21.95,-16.72 -0.94,-0.7 -0.66,-0.86 -11.76,-14.37 -0.12,-0.16 -9.45,3.94 v 0.2 l 1.84,18.48 0.07,1.09 -0.15,1.09 -3.67,27.39 -0.86,6.25 -6.06,1.6 -17.26,4.61 -6.06,1.6 -3.87,-4.92 -16.83,-21.84 -0.7,-0.9 -0.47,-1.01 -7.66,-16.96 -0.08,-0.11 -10.15,1.33 -0.04,0.11 -2.97,18.71 -0.2,1.1 -0.39,1.01 -3.4,8.28 c 28.52,27.35 55.28,56.53 79.89,87.58 l 76.52,-76.52 -0.16,-0.2 z m 174.85,-199.92 -1.53,-22.07 -1.37,-4.18 -16.91,-18.59 -7.27,2.11 -4.21,24.76 1.01,3.98 10.59,19.61 -27.23,21.84 -16.87,-14.57 -4.11,-2.15 -25.54,-1.44 -3.67,6.64 14.96,20.82 3.94,2.3 21.37,6.45 -3.91,34.68 -22.42,1.65 -4.76,1.56 -19.77,17.26 2.07,7.19 25.94,3.99 2.54,-0.71 107.85,-107.81 z m 64.18,-36.64 -20.75,14.96 -2.34,4.02 -4.53,15.04 31.79,-31.76 z m -99.54,-426.68 h -20.78 l -141.79,141.8 2.65,2.03 0.16,-0.12 15.12,-10.82 0.89,-0.66 1.02,-0.4 25.51,-10.46 5.86,-2.39 17.07,17.07 4.41,4.46 -2.38,5.82 -8.24,20.19 100.04,-100.04 -26.57,0.67 -10.08,-24.38 22.07,-21.01 17.78,-14.38 z m -813.79,306.6 -6.67,-22.62 -13.4,-1.01 -3.21,6.72 v 24.57 c 8.17,-0.82 16.25,-1.76 24.3,-2.82 z m 41.57,141.45 4.84,0.74 -44.02,221.4 48.86,48.87 3.91,-19.45 -12.07,-16.84 10.78,-18.67 8.17,0.78 39.8,-200.08 0.94,-4.8 4.76,1.13 c 32.62,7.81 64.61,17.5 95.94,29.03 l 13.48,-11.02 0.11,-0.08 -3.9,-9.49 -0.2,0.04 -18.47,1.83 -1.1,0.08 -1.13,-0.11 -27.34,-3.72 -6.21,-0.86 -1.65,-6.05 -4.6,-17.27 -1.64,-6.05 4.96,-3.87 21.83,-16.87 0.86,-0.67 1.06,-0.46 16.91,-7.66 0.16,-0.08 -1.37,-10.16 -0.16,-0.03 -18.36,-3.01 -1.05,-0.16 -1.06,-0.43 -25.46,-10.66 -5.79,-2.42 v -29.42 l -6.13,-8.55 -8.75,2.73 -0.27,19.3 v 0.51 l -0.08,0.46 -3.16,26.8 -0.75,6.41 -6.25,1.64 -19.02,4.92 -6.25,1.6 -3.79,-5.19 -15.78,-21.92 -0.31,-0.43 -0.24,-0.39 -9.61,-16.76 -8.94,1.88 -2.27,19.18 -0.15,0.94 -5.86,26.29 -1.37,6.32 -6.41,0.98 -19.41,2.97 -6.41,0.98 -3.2,-5.59 -13.52,-23.36 -0.23,-0.43 -0.2,-0.43 -7.85,-17.62 -9.14,0.94 -1.29,5.86 v 58.71 c 21.72,1.76 43.4,4.34 64.85,7.74 z m 137.97,165.89 0.43,-0.89 -22.07,22.07 2.61,6.4 19.73,-5.23 -1.76,-12.03 z m -116.96,116.45 8.44,8.44 5.74,0.86 5.31,-19.81 -6.4,-2.54 z m 170.2,-145.16 10.47,-25.58 0.43,-1.06 0.62,-0.9 10.86,-15.03 0.08,-0.16 -2.03,-2.7 -45.31,45.28 h 6.6 l 13.36,28.86 1.05,10 -1.8,12.19 13.05,3.52 15.55,-15.55 1.91,-2.77 2.97,-2.15 17.31,-17.31 -20.2,8.29 -5.82,2.38 -17.07,-17.07 -4.41,-4.46 z m 138.71,63.21 1.84,-18.48 v -0.2 l -9.46,-3.94 -0.12,0.16 -11.71,14.37 -0.75,0.86 -0.89,0.7 -21.96,16.72 -5,3.83 -5.43,-3.16 -12.18,-7.04 -12.39,18.56 8.52,8.51 9.18,-7.26 10.15,-4.81 32.27,-3.16 6.29,10.86 12.46,-18.67 -0.74,-5.67 -0.2,-1.05 z m -317.19,195.47 4.73,8.16 24.61,-2.42 7.22,-3.32 15.36,-12.11 26.36,26.37 -12.15,15.31 -3.28,7.22 -2.42,24.65 6.52,3.79 1.65,0.94 6.56,-4.69 10.9,-7.85 2.61,-1.87 4.65,-6.49 2.42,-6.13 3.91,-9.85 0.12,-0.35 0.74,-1.87 2.77,0.74 30.12,8.09 3.13,0.86 -0.28,1.99 -2.58,17.38 0.71,7.42 0.04,0.55 0.03,0.74 5.28,11.92 2.22,5.11 2.27,5.12 0.51,1.13 h 9.33 l 1.53,-3.36 0.08,-0.19 8.04,-18.36 0.63,-1.41 0.74,-8.28 -0.08,-0.62 -1.01,-7 -1.02,-6.95 -0.51,-3.71 -0.19,-1.29 4.92,-1.37 6.99,-1.87 6.92,-1.88 17.18,-4.68 7.19,18.16 4.61,6.45 20.16,14.45 8.16,-4.73 -2.46,-24.69 -3.24,-7.22 -12.15,-15.31 26.37,-26.41 15.31,12.15 7.22,3.28 24.65,2.46 4.73,-8.16 -14.41,-20.12 -6.49,-4.61 -18.16,-7.23 9.65,-36.01 19.33,2.81 8.71,-0.74 23.32,-10.24 v -9.37 l -23.32,-10.24 -8.36,-0.78 -19.49,2.81 -0.9,-3.2 -3.28,-12.11 -5.58,-20.66 18.12,-7.23 6.45,-4.61 14.41,-20.15 -4.73,-8.13 -24.65,2.42 -7.22,3.28 -15.31,12.15 -19.93,-19.92 -6.44,-6.48 12.15,-15.32 3.24,-7.22 2.42,-24.69 -8.09,-4.69 -17.85,12.78 -2.34,1.68 -1.64,2.3 -2.97,4.18 -7.19,18.16 -9.61,-2.57 -5.23,-1.41 -5.27,-1.41 -15.9,-4.29 2.81,-19.3 -0.74,-7.27 -10.2,-21.95 H 2040 l -10.2,21.95 -0.78,7.54 2.86,19.18 -36.02,9.61 -4.14,-10.47 -1.92,-4.8 -1.17,-2.93 -1.05,-1.52 -3.56,-5 -20.11,-14.42 -8.13,4.69 2.42,24.65 3.28,7.22 3.99,5 2.97,3.71 2.93,3.75 2.26,2.86 -26.36,26.4 -2.89,-2.26 -3.76,-2.97 -3.71,-2.93 -5,-3.99 -7.22,-3.28 -14.03,-1.4 -4.68,-0.47 -4.77,-0.43 -1.17,-0.16 -4.69,8.17 3.36,4.68 3.75,5.24 3.79,5.27 3.55,4.96 4.97,3.56 1.44,1.05 3.01,1.17 4.76,1.92 10.43,4.1 -9.64,36.05 -1.53,-0.23 -17.85,-2.62 -7.23,0.74 -2.22,1.06 -0.16,0.08 -5.16,2.38 -5.27,2.46 -7.65,3.52 -0.16,0.07 -1.37,0.63 v 9.49 l 5.9,2.74 4.41,2.03 4.38,2.07 5.78,2.65 0.9,0.43 0.62,0.28 7.54,0.74 17.07,-2.5 2.15,-0.31 0.9,3.36 3.28,12.42 2.81,10.54 2.58,9.73 -1.91,0.74 -0.35,0.16 -15.98,6.29 -4.3,3.05 -2.15,1.56 -1.56,2.15 z m 102.85,-641.49 -17.77,7.38 -5.94,2.5 -4.45,-4.64 -11.72,-12.07 36.41,87.85 c -22.5,8.28 -45.51,15.47 -68.99,21.48 -1.52,0.39 -3.04,0.74 -4.57,1.13 -1.52,0.39 -3.05,0.78 -4.61,1.14 -9.41,2.3 -18.9,4.41 -28.47,6.29 -1.96,0.39 -3.83,0.74 -5.79,1.09 -1.91,0.39 -3.78,0.74 -5.74,1.09 -7.65,1.37 -15.39,2.66 -23.08,3.79 -1.6,0.24 -3.17,0.47 -4.73,0.71 -1.52,0.19 -3.13,0.43 -4.69,0.62 -8.67,1.17 -17.46,2.19 -26.29,3.05 v 42.54 l 16.25,-1.64 10.67,23.82 13.47,23.36 19.46,-2.97 5.82,-26.28 3.04,-25.98 22.39,-4.61 12.97,22.66 15.78,21.91 19.02,-4.92 3.16,-26.8 0.4,-26.13 21.79,-6.84 10.78,15.08 3.05,-1.29 4.61,-1.91 4.65,-1.96 10.58,-4.41 1.06,-0.43 1.05,-0.2 15.75,-2.57 -1.14,-13.01 -11.79,-5.31 -1.06,-0.47 -0.86,-0.67 -21.83,-16.91 -4.96,-3.83 1.64,-6.05 4.6,-17.27 1.65,-6.05 6.21,-0.86 27.38,-3.67 1.09,-0.16 1.1,0.12 7.15,0.66 -39.11,-94.37 v 0.07 l 0.43,27.07 0.12,6.41 z m 203.4,-140.39 -18.16,18.16 -5.9,-2.53 -4.18,-1.84 18.09,13.79 0.89,0.66 0.75,0.86 11.71,14.42 0.12,0.11 9.46,-3.9 v -0.2 l -1.84,-18.51 -0.12,-1.1 0.2,-1.09 3.67,-27.38 0.39,-2.93 -23.87,-23.87 0.04,0.08 10.74,24.84 2.58,5.9 z m 167.62,26.33 -0.24,0.51 -1.21,6.72 -21.44,-2.93 -6.06,-0.86 0.55,-7.11 -1.02,-6.41 -1.99,-12.46 -10.66,-26.52 h -17.85 l -10.67,26.52 v 0.16 l -3.01,19.21 0.55,6.88 -22.62,3.01 -4.88,0.62 -1.25,-6.79 -0.78,-1.8 -6.84,-15.16 -16.91,-21.79 -10.47,2.77 -6.8,1.83 -0.54,4.18 -3.13,23.17 1.84,18.51 2.3,6.49 -19.64,8.12 -5.98,2.5 -2.97,-6.21 -11.76,-14.41 -21.95,-16.72 -3.56,2.03 -11.91,6.91 3.52,27.39 6.56,17.38 3.9,5.66 -21.99,16.88 -4.49,-5.23 -15.08,-10.86 -25.54,-10.43 -12.62,12.61 10.47,25.51 10.82,15.12 5.27,4.45 -16.91,21.99 -5.71,-3.86 -17.34,-6.57 -27.38,-3.51 -8.95,15.47 16.76,21.95 12.69,10.39 1.68,1.41 6.22,2.93 -1.25,3 -9.38,22.62 -6.48,-2.3 -18.48,-1.84 -27.34,3.71 -4.65,17.27 21.83,16.83 10.63,4.81 6.33,2.89 6.75,1.21 -0.07,0.59 -0.94,7.38 -1.21,8.94 -1.17,8.99 -0.24,1.6 -1.01,-0.08 h -0.2 l -5.51,-0.51 h -0.11 l -3.79,0.63 -2.54,0.43 -12.03,1.99 -13.75,5.74 -4.61,1.96 -2.35,0.93 -2.3,0.98 -2.46,1.05 v 17.86 l 15.54,6.52 5.51,2.27 4.42,1.87 18.36,3.01 6.83,-0.55 3.63,27.5 -6.75,1.21 -16.96,7.7 -21.83,16.87 4.65,17.27 27.34,3.67 18.48,-1.84 6.48,-2.34 10.63,25.66 -6.22,2.97 -9.25,7.54 -4.22,3.44 -0.94,0.78 -2.27,3.05 -14.45,18.9 8.95,15.47 27.38,-3.47 17.34,-6.6 5.71,-3.91 2.93,3.83 2.93,3.79 2.89,3.79 8.16,10.62 -5.27,4.45 -10.82,15.08 -10.47,25.59 12.58,12.61 25.58,-10.5 15.08,-10.82 4.45,-5.28 3.25,2.46 3.78,2.93 3.75,2.89 11.25,8.64 -3.9,5.66 -6.56,17.38 -2.07,16.21 -1.37,10.51 -0.12,0.67 3.87,2.22 11.64,6.72 21.95,-16.76 11.76,-14.37 2.97,-6.25 25.62,10.62 -2.34,6.53 -1.09,11.44 -0.71,7.03 0.28,2.11 0.93,7.07 2.46,18.21 17.27,4.61 16.91,-21.8 7.62,-16.95 1.25,-6.76 16.25,2.19 8.75,1.13 2.5,0.35 -0.12,1.6 -0.43,5.35 0.08,0.51 2.93,18.01 10.67,25.86 h 17.85 l 4.8,-11.64 1.92,-4.65 1.95,-4.73 1.99,-4.84 3.01,-18.67 -0.55,-6.92 27.46,-3.59 1.25,6.76 7.66,16.95 16.88,21.84 17.26,-4.61 3.71,-27.39 -1.79,-18.47 -2.39,-6.53 25.71,-10.62 2.93,6.25 11.75,14.37 6.53,4.96 14.8,11.29 0.67,0.51 5.82,-3.4 9.6,-5.54 -0.46,-3.68 -0.63,-4.88 -2.42,-18.83 -6.52,-17.38 -0.79,-1.09 -3.12,-4.57 h -0.04 l 0.08,-0.04 7.85,-6.06 14.06,-10.82 4.49,5.28 15.08,10.82 25.55,10.5 12.58,-12.65 -10.43,-25.55 -10.82,-15.08 -5.28,-4.45 16.88,-22.03 5.66,3.91 17.39,6.6 27.38,3.47 8.94,-15.47 -16.71,-21.95 -14.42,-11.76 -6.21,-3 10.67,-25.63 6.44,2.34 18.52,1.84 27.38,-3.67 4.57,-17.27 -21.84,-16.87 -16.95,-7.7 -6.88,-1.25 3.52,-27.5 6.64,0.55 17.85,-3.01 24.57,-10.62 v -17.86 l -24.57,-10.66 -17.38,-3.05 -6.87,0.59 -3.64,-27.5 6.8,-1.25 16.95,-7.66 21.84,-16.83 -4.61,-17.27 -27.38,-3.71 -18.52,1.8 -6.44,2.34 -10.67,-25.66 6.21,-2.93 14.42,-11.76 16.71,-21.95 -8.9,-15.47 -27.42,3.51 -17.35,6.57 -5.7,3.86 -8.59,-11.21 -2.89,-3.75 -2.9,-3.79 -2.5,-3.24 5.28,-4.45 10.86,-15.12 10.43,-25.51 -12.62,-12.61 -25.55,10.43 -15.08,10.86 -4.49,5.23 -10.58,-8.13 -3.79,-2.89 -7.58,-5.86 3.91,-5.66 6.52,-17.38 3.51,-27.39 -15.42,-8.94 -22,16.76 -11.75,14.37 -2.93,6.21 -25.71,-10.62 2.39,-6.49 1.79,-18.47 -0.62,-4.73 -2.82,-20.7 -0.27,-1.99 -1.29,-0.32 -13.83,-3.75 -2.11,-0.54 -16.87,21.83 -3.52,7.66 z m -622.19,538.55 9.3,9.34 13.59,13.63 10.08,10.08 v -497.54 c 0,-12.38 1.25,-24.53 3.67,-36.21 1.33,-6.41 3.01,-12.7 4.96,-18.83 0.55,-1.64 1.1,-3.28 1.68,-4.88 0.59,-1.64 1.17,-3.28 1.84,-4.92 0.62,-1.64 1.25,-3.28 1.91,-4.92 15.32,-36.18 42.15,-66.25 75.9,-85.71 2.74,-1.56 5.55,-3.08 8.32,-4.53 15.67,-7.93 32.62,-13.63 50.47,-16.72 3.2,-0.54 6.41,-1.01 9.65,-1.37 1.05,-0.15 2.15,-0.27 3.24,-0.42 v -37.74 c -5.08,3.05 -10.23,5.94 -15.43,8.71 -2.77,1.53 -5.59,3.01 -8.4,4.45 -15.78,7.97 -32.11,14.85 -48.86,20.51 -2.97,1.02 -5.98,2.03 -8.99,2.97 -24.69,7.7 -50.23,12.85 -76.29,15.39 -3.12,0.28 -6.29,0.59 -9.45,0.78 -9.02,0.67 -18.09,0.98 -27.19,0.98 -0.04,0 -0.08,0.04 -0.12,0.04 -8.59,0 -17.14,-0.31 -25.7,-0.86 -3.12,-0.23 -6.29,-0.55 -9.41,-0.82 -25.71,-2.34 -50.9,-7.34 -75.32,-14.77 -3,-0.89 -6.01,-1.87 -9.02,-2.85 -16.8,-5.58 -33.16,-12.3 -48.98,-20.23 -2.86,-1.41 -5.67,-2.81 -8.48,-4.3 -6.02,-3.2 -11.95,-6.48 -17.77,-10 v 37.74 c 1.99,0.23 3.98,0.46 5.97,0.78 3.25,0.39 6.45,0.9 9.61,1.48 17.78,3.36 34.61,9.34 50.12,17.5 2.81,1.49 5.62,3.01 8.32,4.61 32.66,19.49 58.59,49.02 73.55,84.38 0.67,1.64 1.25,3.28 1.92,4.92 0.62,1.64 1.25,3.28 1.83,4.92 0.55,1.6 1.14,3.24 1.65,4.88 2.89,8.95 5.11,18.21 6.6,27.7 1.32,8.9 2.07,18.04 2.07,27.34 v 432.11 l 5.54,5.55 z m -598.2,-630.82 c -10.04,1.49 -20.2,2.42 -30.35,3.05 l 557.57,556.87 v -346.28 c -9.17,-1.14 -18.32,-2.43 -27.42,-3.95 -3.2,-0.55 -6.44,-1.05 -9.68,-1.68 -5.16,-0.94 -10.32,-1.99 -15.43,-3.09 -3.21,-0.66 -6.45,-1.36 -9.61,-2.1 -13.79,-3.17 -27.39,-6.84 -40.79,-10.94 -3.12,-0.98 -6.24,-1.99 -9.37,-3.01 -3.13,-1.02 -6.25,-2.03 -9.37,-3.13 -1.84,-0.62 -3.68,-1.24 -5.47,-1.91 -1.18,-0.39 -2.35,-0.82 -3.44,-1.21 -1.95,-0.7 -3.91,-1.45 -5.82,-2.15 -13.24,-4.96 -26.25,-10.39 -39.03,-16.21 -1.36,-0.62 -2.77,-1.29 -4.14,-1.95 -1.6,-0.74 -3.2,-1.45 -4.72,-2.19 -1.29,-0.62 -2.54,-1.25 -3.83,-1.88 -3.44,-1.67 -6.84,-3.35 -10.23,-5.07 -2.9,-1.53 -5.82,-3.05 -8.72,-4.57 -12.46,-6.64 -24.64,-13.75 -36.6,-21.21 -2.77,-1.76 -5.54,-3.56 -8.28,-5.36 -4.33,-2.81 -8.67,-5.7 -12.93,-8.67 -2.69,-1.83 -5.39,-3.71 -8.05,-5.62 -11.52,-8.21 -22.69,-16.84 -33.59,-25.82 -2.54,-2.11 -5.08,-4.18 -7.54,-6.33 -2.89,-2.46 -5.74,-4.96 -8.55,-7.46 -1.06,-0.94 -2.07,-1.88 -3.13,-2.78 -1.29,-1.21 -2.58,-2.38 -3.9,-3.59 -1.1,-1.02 -2.23,-2.03 -3.32,-3.09 -10.36,-9.6 -20.36,-19.6 -29.97,-29.92 -1.4,-1.52 -2.77,-3.01 -4.14,-4.53 -0.86,-0.9 -1.68,-1.83 -2.5,-2.73 -1.28,-1.45 -2.57,-2.85 -3.82,-4.26 -2.15,-2.42 -4.26,-4.92 -6.41,-7.38 -1.68,-2 -3.36,-3.95 -5,-5.94 h -55.47 v -27.19 c -24.73,9.92 -50.55,17.11 -76.87,21.6 -3.36,0.59 -6.68,1.21 -10.08,1.68 z m 1585.39,3.91 h -69.3 l 3.87,10.47 -22.74,18.4 -17.14,16.29 5.15,12.42 23.28,-0.63 7.31,-0.74 7.46,-0.82 7.46,-0.78 7.19,-0.74 12.19,26.44 -21.22,20.12 -15.82,17.54 6.1,11.99 23.12,-2.38 29.14,-5.43 14.22,25.43 -19.57,21.72 -14.41,18.71 7.07,11.48 22.85,-4.26 28.63,-7.61 16.17,24.18 -17.85,23.16 -12.85,19.84 7.89,10.9 22.46,-6.01 27.89,-9.89 18.09,22.86 -15.94,24.49 -11.29,20.82 8.71,10.23 22,-7.77 26.99,-12.03 13.36,14.41 74.37,-74.37 -0.39,-0.39 c -61.6,-66.61 -112.07,-141.92 -149.96,-223.87 l -2.07,-4.45 47.66,-19.73 z m -259.02,1355.12 408.51,410 V 5880 l -64.49,-64.49 -1611.56,-1611.6 H 0 V 733.672 H 1218.83 V 3.75 l 64.45,64.4883 46.41,46.3707 34.41,34.411 -0.27,0.468 15.62,15.672 23.44,23.43 0.39,-0.391 26.72,26.723 13.59,13.629 20.82,20.789 -0.31,0.461 15.67,15.629 13.63,13.629 9.88,9.921 0.35,-0.351 26.64,26.601 13.64,13.641 20.82,20.781 -0.28,0.469 15.67,15.617 13.59,13.641 9.96,10 0.39,-0.399 40.2,40.2 20.74,20.82 -0.23,0.43 39.33,39.34 0.35,-0.391 40.12,40.109 20.74,20.821 -0.23,0.429 15.62,15.672 13.64,13.629 9.8,9.762 0.35,-0.352 26.72,26.723 13.67,13.598 20.78,20.82 -0.27,0.461 29.26,29.258 9.8,9.851 0.39,-0.39 43.91,43.902 H 3465.51 V 4203.91 H 2475.2"
         style="fill:#ffffff;fill-opacity:1;fill-rule:nonzero;stroke:none"
         id="path58" /><path
         d="m 2348.63,1613.48 c 8.17,8.16 18.99,12.61 30.51,12.65 23.79,0 43.16,-19.37 43.16,-43.16 0,-11.52 -4.49,-22.35 -12.65,-30.51 -8.13,-8.12 -18.99,-12.66 -30.51,-12.66 -23.79,0.04 -43.12,19.38 -43.12,43.17 0,11.52 4.49,22.38 12.61,30.51 z m 30.51,-101.25 c 19.53,0 37.23,7.93 50.04,20.7 12.81,12.81 20.74,30.51 20.74,50.04 0,39.1 -31.72,70.74 -70.78,70.78 -19.53,-0.04 -37.23,-7.93 -50.04,-20.74 -12.77,-12.81 -20.7,-30.51 -20.7,-50 0,-39.1 31.64,-70.78 70.74,-70.78"
         style="fill:#ffffff;fill-opacity:1;fill-rule:nonzero;stroke:none"
         id="path60" /><path
         d="m 2466.52,1730.16 h 0.04 c 8.13,8.12 18.64,12.93 30.16,12.93 23.79,0 42.85,-19.07 42.85,-42.86 0,-11.52 -4.49,-22.34 -12.66,-30.5 -8.16,-8.13 -18.98,-12.62 -30.5,-12.62 -23.79,0 -42.82,19.02 -42.82,42.81 0,11.53 4.81,22.07 12.93,30.24 z m 29.89,-100.67 c 19.53,0 37.22,7.93 50.04,20.71 12.81,12.85 20.7,30.5 20.7,50.03 0,39.11 -31.64,70.79 -70.74,70.79 -19.53,0 -37.23,-7.93 -50,-20.75 -12.86,-12.77 -20.75,-30.5 -20.75,-50.04 0,-39.06 31.68,-70.74 70.75,-70.74"
         style="fill:#ffffff;fill-opacity:1;fill-rule:nonzero;stroke:none"
         id="path62" /><path
         d="m 1690.74,854.18 c -16.13,16.129 -43.16,16.91 -59.29,0.781 l -12.74,-12.691 -16.56,-16.61 c -0.55,-0.539 -1.13,-0.969 -1.76,-1.398 -4.73,-3.321 -11.21,-3.282 -16.01,0 -0.71,0.508 -1.37,1.008 -2.04,1.636 -4.37,4.372 -5.27,11.094 -2.61,16.372 0.58,1.25 1.32,2.421 2.38,3.429 l 19.49,19.531 19.53,19.54 14.69,14.64 -20.04,20.039 -14.65,-14.679 -39.06,-39.071 c -6.41,-6.359 -9.61,-15.039 -10.86,-23.429 -0.86,-5.981 -0.47,-12.149 1.21,-18.008 1.96,-6.641 5.47,-12.973 10.7,-18.133 0.24,-0.27 0.51,-0.508 0.83,-0.738 16.13,-15.309 42.03,-15.621 57.93,0 0.07,0.078 0.19,0.16 0.27,0.23 l 29.3,29.301 c 5.39,5.387 14.37,5.117 19.76,-0.274 2.81,-2.808 4.18,-6.597 4.14,-10.386 -0.08,-3.442 -1.33,-6.801 -3.87,-9.383 l -9.53,-9.488 -3.79,-3.789 -15.07,-15.122 -4.42,-4.41 -19.57,-19.531 20.04,-20.039 43.98,43.98 8.4,8.36 c 3.13,3.172 5.63,6.719 7.5,10.551 2.89,5.859 4.3,12.379 4.22,18.871 -0.08,6.168 -1.52,12.34 -4.18,18.008 -2.07,4.332 -4.76,8.39 -8.32,11.91"
         style="fill:#ffffff;fill-opacity:1;fill-rule:nonzero;stroke:none"
         id="path64" /><path
         d="m 1769.77,912.582 c -1.25,-1.25 -2.58,-2.383 -3.95,-3.48 -5.55,-4.332 -11.95,-7.223 -18.79,-8.481 -0.04,0 -0.08,0 -0.12,0 -2.5,-0.422 -5.03,-0.699 -7.69,-0.699 -3.87,0 -7.62,0.59 -11.17,1.527 -18.36,4.961 -31.96,21.711 -31.96,41.602 0,11.558 4.5,22.379 12.62,30.539 5.43,5.43 12.11,9.18 19.34,11.14 3.63,0.93 7.38,1.481 11.17,1.481 v 27.619 c -3.79,0 -7.5,-0.39 -11.17,-0.98 -15.04,-2.38 -28.56,-9.45 -38.83,-19.729 -12.81,-12.812 -20.74,-30.5 -20.74,-50.031 0,-35.281 25.82,-64.418 59.57,-69.809 3.67,-0.582 7.38,-0.98 11.21,-0.98 2.58,0 5.15,0.16 7.65,0.429 0.04,0 0.08,0 0.12,0.04 6.56,0.71 12.89,2.351 18.79,4.769 8.87,3.551 16.84,8.871 23.48,15.512 12.77,12.808 20.7,30.469 20.7,50.039 h -27.62 c 0,-11.57 -4.49,-22.391 -12.61,-30.508"
         style="fill:#ffffff;fill-opacity:1;fill-rule:nonzero;stroke:none"
         id="path66" /><path
         d="m 1856.52,1046.68 -19.49,-19.53 -17.58,-17.54 -14.18,14.14 c -12.77,12.77 -12.57,33.79 0.16,46.56 12.81,12.78 33.83,12.97 46.6,0.16 l 14.18,-14.14 z m -70.58,43.16 c -23.6,-23.59 -24.26,-62.54 -0.71,-86.13 l 57.58,-57.538 20.04,20 -23.36,23.398 17.54,17.58 19.53,19.49 9.65,9.65 23.36,-23.36 20.04,20.04 -57.54,57.58 c -23.59,23.55 -62.54,22.89 -86.13,-0.71"
         style="fill:#ffffff;fill-opacity:1;fill-rule:nonzero;stroke:none"
         id="path68" /><path
         d="m 2617.34,1720.7 20.04,20.04 -57.58,57.54 c -12.77,12.81 -12.57,33.79 0.2,46.56 12.77,12.82 33.79,12.97 46.56,0.2 l 29.61,-29.61 27.93,-27.97 9.57,9.57 4.73,4.69 5.74,5.78 -47.97,47.97 -4.69,4.73 -4.64,4.6 -0.28,0.28 c -12.73,12.77 -14.26,32.11 -1.48,44.88 1.72,1.68 3.47,3.09 5.39,4.3 1.64,1.01 3.28,1.87 5.04,2.58 1.64,0.62 3.28,1.09 5,1.4 8.44,1.64 17.38,-0.47 24.96,-5.94 1.56,-1.13 3.08,-2.42 4.49,-3.82 l 6.17,-6.18 51.45,-51.4 20,20.04 -57.58,57.54 c -6.05,6.09 -13.05,10.62 -20.55,13.63 -1.83,0.7 -3.63,1.37 -5.5,1.91 -1.76,0.51 -3.6,0.94 -5.36,1.29 -3.86,0.78 -7.85,1.14 -11.75,1.14 -1.64,0 -3.29,-0.04 -4.93,-0.2 -1.71,-0.16 -3.36,-0.39 -5.03,-0.66 -11.61,-2.04 -22.7,-7.5 -31.68,-16.53 -13.32,-13.24 -18.79,-30.86 -17.15,-48.16 -17.35,1.64 -35.12,-4.06 -48.4,-17.35 -23.6,-23.55 -23.48,-61.67 0.15,-85.31 l 57.54,-57.54"
         style="fill:#ffffff;fill-opacity:1;fill-rule:nonzero;stroke:none"
         id="path70" /><path
         d="m 1592.42,735.82 -48.47,-48.48 -18.33,-18.281 -20,20.043 46.72,46.718 -20.04,20.039 -11.95,-11.949 -10.19,-10.238 -24.57,-24.57 -20.04,20.078 4.53,4.492 13.79,13.789 16.44,16.488 22.58,22.531 9.41,9.461 -9.41,9.45 -10.59,10.589 -38.35,-38.359 -10.12,-10.16 -19.53,-19.492 -14.26,-14.297 -4.53,-4.492 20.58,-20.66 39.07,-39.071 19.53,-19.488 20.93,-20.981 18.83,18.829 19.53,19.492 48.48,48.48 -20.04,20.039"
         style="fill:#ffffff;fill-opacity:1;fill-rule:nonzero;stroke:none"
         id="path72" /><path
         d="m 2016.48,1239.84 19.57,-19.49 19.5,-19.53 20.93,-20.98 86.8,86.8 -20,20.04 -48.2,-48.2 -18.6,-18.56 -20,20.04 46.72,46.72 -20.04,20.04 -28.16,-28.17 -18.55,-18.59 -20.04,20.04 18.55,18.59 16.49,16.45 31.71,31.76 -20,20 -86.79,-86.8 20.62,-20.62 19.49,-19.54"
         style="fill:#ffffff;fill-opacity:1;fill-rule:nonzero;stroke:none"
         id="path74" /><path
         d="m 2213.36,1476.95 39.02,39.03 c 5.39,5.43 14.46,5.15 19.81,-0.24 5.39,-5.39 5.62,-14.37 0.23,-19.76 l -36.99,-37.03 -15.35,-15.36 -20.04,20.04 z m -13.24,-53.47 39.06,-39.07 20.98,-20.93 20,20.04 -20.98,20.93 -19.06,19.1 20.62,20.67 6.96,6.95 80.31,0.2 -0.12,27.73 -53.2,0.04 c 13.51,16.25 12.61,40.55 -2.62,55.78 -16.13,16.17 -43.55,17.27 -59.73,1.1 l -51.25,-51.25 -21.09,-21.14 20.62,-20.62 19.5,-19.53"
         style="fill:#ffffff;fill-opacity:1;fill-rule:nonzero;stroke:none"
         id="path76" /><path
         d="m 1922.93,1146.48 -20.04,20 41.06,41.02 c 5.35,5.39 14.37,5.16 19.76,-0.23 5.39,-5.39 5.63,-14.42 0.24,-19.81 z m 60.12,-60.11 -40.08,40.08 41.01,41.01 c 16.18,16.13 15.67,42.89 -0.46,59.06 -16.18,16.14 -43.48,17.19 -59.61,1.02 l -41.53,-41.49 -19.53,-19.57 20.63,-20.58 19.53,-19.53 19.49,-19.53 40.51,-40.51 20.04,20.04"
         style="fill:#ffffff;fill-opacity:1;fill-rule:nonzero;stroke:none"
         id="path78" /><path
         d="m 1480.7,4094.73 h 214.14 v -378.6 l 1.53,1.57 6.01,5.97 44.65,44.65 27.11,27.15 3.36,3.32 0.55,0.55 2.77,2.81 1.25,1.21 3.98,4.02 15.86,15.82 v 271.49 h 107.07 l 107.07,0.04 57.39,-0.04 0.58,0.62 15.63,15.59 3.98,4.02 28.91,28.91 18.94,18.98 38.99,38.99 h -378.56 v 378.51 L 1694.84,4473.24 V 4201.8 H 1423.4 l -61.49,-61.49 -18.98,-18.94 -17.54,-17.58 -6.01,-6.02 -3.09,-3.04 h 164.41"
         style="fill:#ffffff;fill-opacity:1;fill-rule:nonzero;stroke:none"
         id="path80" /><path
         d="m 1061.8,3068.01 -19.5,-19.46 -44.101,31.84 -44.097,-31.84 -19.454,19.46 31.832,44.14 -31.832,44.1 19.454,19.45 44.097,-31.83 44.141,31.83 19.46,-19.45 -31.88,-44.1 z m -63.601,141.37 c -53.711,0 -97.258,-43.52 -97.258,-97.23 0,-53.71 43.547,-97.31 97.258,-97.31 53.711,0 97.271,43.6 97.271,97.31 0,53.71 -43.56,97.23 -97.271,97.23"
         style="fill:#ffffff;fill-opacity:1;fill-rule:nonzero;stroke:none"
         id="path82" /><path
         d="m 670.16,3377.77 53.711,8.68 8.668,53.75 h 27.539 l 8.672,-53.75 53.711,-8.68 v -27.54 l -53.711,-8.67 -8.672,-53.71 h -27.539 l -8.668,53.71 -53.711,8.67 z m 144.961,-82.54 c 37.969,37.97 37.969,99.57 0,137.54 -38.012,38.01 -99.57,38.01 -137.582,0 -37.969,-37.97 -37.969,-99.57 0,-137.54 38.012,-37.96 99.57,-37.96 137.582,0"
         style="fill:#ffffff;fill-opacity:1;fill-rule:nonzero;stroke:none"
         id="path84" /><path
         d="m 418.281,3125.86 53.707,8.71 8.672,53.71 h 27.539 l 8.68,-53.71 53.711,-8.71 v -27.5 l -53.711,-8.67 -8.68,-53.71 H 480.66 l -8.672,53.71 -53.707,8.67 z m 144.918,-82.5 c 37.973,37.97 37.973,99.57 0,137.54 -37.969,38.01 -99.57,38.01 -137.539,0 -38,-37.97 -38,-99.57 0,-137.54 37.969,-38.01 99.57,-38.01 137.539,0"
         style="fill:#ffffff;fill-opacity:1;fill-rule:nonzero;stroke:none"
         id="path86" /><path
         d="m 3064.57,3632.5 c -6.52,67.81 -60.51,121.8 -128.36,128.32 l -5.16,0.51 V 3627.3 h 134.03 l -0.51,5.2"
         style="fill:#ffffff;fill-opacity:1;fill-rule:nonzero;stroke:none"
         id="path88" /><path
         d="m 2780.2,3604.8 c 6.52,-67.85 60.5,-121.79 128.35,-128.32 l 5.16,-0.5 V 3610 h -133.98 l 0.47,-5.2"
         style="fill:#ffffff;fill-opacity:1;fill-rule:nonzero;stroke:none"
         id="path90" /><path
         d="m 3064.57,3604.8 0.51,5.2 h -134.03 v -134.02 l 5.16,0.5 c 67.85,6.53 121.84,60.47 128.36,128.32"
         style="fill:#ffffff;fill-opacity:1;fill-rule:nonzero;stroke:none"
         id="path92" /><path
         d="m 2780.2,3632.5 -0.47,-5.2 h 133.98 v 134.03 l -5.16,-0.51 c -67.85,-6.52 -121.83,-60.51 -128.35,-128.32"
         style="fill:#ffffff;fill-opacity:1;fill-rule:nonzero;stroke:none"
         id="path94" /><path
         d="m 2132.77,3130.43 6.72,6.17 21.56,16.17 16.68,-10.39 -5.03,-26.52 -7.43,-25.04 18.75,-13.01 20.9,15.67 23.13,13.86 15.5,-11.99 -7.61,-25.86 -9.92,-24.18 17.3,-14.88 22.3,13.52 24.46,11.48 v -42.03 c -70.67,9.41 -129.26,54.61 -157.31,117.03 z m 128.21,65.66 h -154.73 c 0.12,-0.89 0.2,-1.71 0.31,-2.61 1.29,-13.83 3.99,-27.27 7.82,-40.2 2.07,-6.91 4.45,-13.71 7.18,-20.35 1.29,-3.09 2.62,-6.09 4.03,-9.14 29.76,-63.24 89.96,-109.34 161.71,-119.49 3.32,-0.51 6.68,-0.86 10.04,-1.21 0.75,-0.04 1.45,-0.16 2.15,-0.24 v 154.73 c -18.32,5.78 -32.73,20.19 -38.51,38.51"
         style="fill:#ffffff;fill-opacity:1;fill-rule:nonzero;stroke:none"
         id="path96" /><path
         d="m 2344.49,3414.38 c 22.74,-3.05 44.14,-9.81 63.75,-19.61 l 6.17,-17.27 -10.27,-8.75 -20.43,11.09 -24.8,16.14 -14.42,-11.37 z m 0,-60.4 1.29,-3.63 6.1,-22.81 -7.39,-5.39 z m 29.06,-122.34 h 154.69 c -6.09,73.75 -50,136.76 -112.26,169.61 -2.11,1.09 -4.26,2.19 -6.45,3.2 -2.15,1.06 -4.3,2.03 -6.48,3.01 -21.1,9.38 -43.95,15.39 -67.97,17.42 v -154.72 c 18.28,-5.78 32.69,-20.24 38.47,-38.52"
         style="fill:#ffffff;fill-opacity:1;fill-rule:nonzero;stroke:none"
         id="path98" /><path
         d="m 2146.6,3322.89 68.36,-68.4 1.21,-11.37 -3.98,-2.03 h -12.54 l -12.77,11.49 -20.36,21.48 -26.44,-12.18 2.19,-20.79 h -25.47 c 3.98,29.89 14.41,57.62 29.8,81.8 z m 48.01,52.11 95.27,-95.27 0.2,-0.16 v -2.89 c -6.6,-2.81 -12.62,-6.72 -17.89,-11.37 -7.54,-6.64 -13.67,-14.84 -17.74,-24.22 h -12.69 l -17.74,17.74 -5.31,5.27 -5.59,5.63 -61.17,61.17 c 11.92,16.8 26.29,31.68 42.66,44.1 z m 95.47,39.38 V 3345 l -16.29,-10.86 7.62,-28.2 0.97,-5.32 -80.04,80 c 25.55,17.54 55.36,29.42 87.74,33.76 z m -146.92,-182.74 h 117.82 c 5.78,18.28 20.19,32.74 38.47,38.52 0.04,0 0.04,0 0.04,0 v 154.72 c -38.44,-3.2 -73.9,-16.68 -103.75,-37.61 -1.33,-0.9 -2.62,-1.88 -3.86,-2.82 -1.29,-0.93 -2.58,-1.87 -3.83,-2.85 -16.29,-12.54 -30.63,-27.46 -42.7,-44.14 -0.94,-1.29 -1.83,-2.62 -2.73,-3.91 -0.9,-1.32 -1.84,-2.65 -2.7,-4.02 -18.63,-28.48 -30.58,-61.72 -33.63,-97.5 0,-0.12 -0.04,-0.23 -0.04,-0.39 h 36.91"
         style="fill:#ffffff;fill-opacity:1;fill-rule:nonzero;stroke:none"
         id="path100" /><path
         d="m 2317.27,3233.95 c -11.1,0 -20.04,-8.99 -20.04,-20.08 0,-11.1 8.94,-20.08 20.04,-20.08 11.09,0 20.07,8.98 20.07,20.08 0,11.09 -8.98,20.08 -20.07,20.08"
         style="fill:#ffffff;fill-opacity:1;fill-rule:nonzero;stroke:none"
         id="path102" /><path
         d="m 2344.49,3151.05 c 15.94,6.92 28.71,19.65 35.63,35.59 h 2.89 l 95.43,-95.43 c -12.46,-16.37 -27.35,-30.78 -44.18,-42.66 l -89.77,89.81 z m 92.46,-111.83 c 1.29,0.9 2.62,1.8 3.95,2.73 16.68,12.03 31.56,26.41 44.1,42.66 0.98,1.29 1.88,2.58 2.85,3.87 0.94,1.29 1.92,2.54 2.81,3.82 20.94,29.89 34.42,65.4 37.58,103.79 h -154.69 c -5.78,-18.32 -20.19,-32.73 -38.47,-38.51 v -154.73 c 5.86,0.51 11.64,1.25 17.34,2.23 29.34,4.88 56.6,15.82 80.55,31.44 1.33,0.9 2.65,1.8 3.98,2.7"
         style="fill:#ffffff;fill-opacity:1;fill-rule:nonzero;stroke:none"
         id="path104" /><path
         d="m 3328.55,3937.93 c 13.68,0 24.81,11.13 24.81,24.8 0,13.68 -11.13,24.81 -24.81,24.81 -13.67,0 -24.8,-11.13 -24.8,-24.81 0,-13.67 11.13,-24.8 24.8,-24.8"
         style="fill:#ffffff;fill-opacity:1;fill-rule:nonzero;stroke:none"
         id="path106" /><path
         d="m 3310.35,3747.03 5.16,-0.43 v 163.32 l -3.32,1.06 c -16.88,5.27 -30.12,18.51 -35.47,35.43 l -1.02,3.28 h -163.32 l 0.47,-5.12 c 8.79,-105.66 91.84,-188.75 197.5,-197.54"
         style="fill:#ffffff;fill-opacity:1;fill-rule:nonzero;stroke:none"
         id="path108" /><path
         d="M 3206.13,1086.8 H 2973.2 c -0.58,10.93 -0.7,21.87 -0.23,32.77 h 232.62 c -0.82,-4.8 -1.41,-9.73 -1.41,-14.69 0,-6.13 0.66,-12.18 1.95,-18.08 z m -164.68,230.23 c -44.93,-52.93 -71.72,-118.94 -76.8,-188.01 -0.16,-1.56 -0.24,-3.12 -0.35,-4.72 -0.04,-1.57 -0.24,-3.13 -0.28,-4.73 -0.23,-4.88 -0.35,-9.77 -0.35,-14.69 0,-6.05 0.24,-12.07 0.59,-18.08 0.04,-1.57 0.15,-3.17 0.27,-4.73 0.12,-1.56 0.2,-3.12 0.31,-4.73 5.75,-67.81 32.39,-132.539 76.64,-184.61 l 3.32,-3.898 178.48,178.508 -1.52,3.01 c -1.1,2.31 -2.07,4.65 -2.97,6.99 -0.59,1.57 -1.06,3.17 -1.56,4.73 -0.51,1.56 -1.02,3.13 -1.41,4.73 -1.44,5.9 -2.19,11.95 -2.19,18.08 0,4.96 0.63,9.89 1.57,14.69 0.31,1.6 0.58,3.16 1.01,4.73 0.39,1.6 0.86,3.16 1.41,4.72 1.13,3.52 2.5,7 4.14,10.39 l 1.48,3.01 -178.47,178.52 -3.32,-3.91"
         style="fill:#ffffff;fill-opacity:1;fill-rule:nonzero;stroke:none"
         id="path110" /><path
         d="m 3280.23,1086.8 c 3.36,-2.15 7.35,-3.44 11.61,-3.44 4.21,0 8.2,1.29 11.56,3.44 5.94,3.82 9.88,10.47 9.88,18.08 0,5.71 -2.23,10.86 -5.86,14.69 -1.83,1.99 -4.02,3.55 -6.48,4.73 -2.82,1.32 -5.86,2.11 -9.1,2.11 -3.29,0 -6.33,-0.79 -9.14,-2.11 -2.47,-1.18 -4.65,-2.74 -6.49,-4.73 -3.63,-3.83 -5.9,-8.98 -5.9,-14.69 0,-7.61 3.99,-14.26 9.92,-18.08"
         style="fill:#ffffff;fill-opacity:1;fill-rule:nonzero;stroke:none"
         id="path112" /><path
         d="m 2044.77,3590.35 c 9.84,0 18.08,6.68 20.58,15.74 0.55,1.84 0.9,3.75 0.9,5.79 0,0.54 -0.12,1.09 -0.2,1.64 -0.58,7.65 -5.11,14.14 -11.64,17.46 -2.14,1.09 -4.57,1.83 -7.11,2.14 -0.85,0.08 -1.68,0.24 -2.53,0.24 -11.88,0 -21.53,-9.65 -21.53,-21.48 0,-11.88 9.65,-21.53 21.53,-21.53"
         style="fill:#ffffff;fill-opacity:1;fill-rule:nonzero;stroke:none"
         id="path114" /><path
         d="m 2693.67,1341.56 c 0.59,1.96 0.98,4.03 0.98,6.17 0,2.15 -0.39,4.18 -0.98,6.18 -0.94,3.12 -2.58,5.97 -4.72,8.36 -3.91,4.25 -9.54,6.99 -15.79,6.99 -6.91,0 -13.08,-3.4 -16.99,-8.52 -2.77,-3.63 -4.49,-8.12 -4.49,-13.01 0,-4.92 1.72,-9.37 4.49,-12.96 3.91,-5.16 10.08,-8.56 16.99,-8.56 6.25,0 11.88,2.74 15.79,6.99 2.14,2.39 3.78,5.24 4.72,8.36"
         style="fill:#ffffff;fill-opacity:1;fill-rule:nonzero;stroke:none"
         id="path116" /><path
         d="m 2871.21,1529.41 c 11.84,0 21.49,9.65 21.49,21.53 0,11.87 -9.65,21.52 -21.49,21.52 -11.87,0 -21.52,-9.65 -21.52,-21.52 0,-11.84 9.65,-21.53 21.52,-21.53"
         style="fill:#ffffff;fill-opacity:1;fill-rule:nonzero;stroke:none"
         id="path118" /><path
         d="m 2051.05,4526.64 75.75,-75.7 75.7,-75.74 75.7,-75.71 75.71,75.71 -75.71,75.74 -75.74,75.7 -75.66,75.7 -75.75,75.75 -75.7,75.66 -75.7,-75.66 75.7,-75.75 75.7,-75.7"
         style="fill:#ffffff;fill-opacity:1;fill-rule:nonzero;stroke:none"
         id="path120" /><path
         d="m 2240.12,4867.07 75.66,75.7 151.41,-151.4 75.74,-75.71 75.7,-75.74 75.71,75.7 -75.71,75.75 -75.7,75.7 -75.74,75.7 -75.71,75.71 151.41,151.4 -75.7,75.74 -75.71,-75.7 -75.7,-75.74 -227.11,-227.11 75.71,-75.7 75.74,75.7"
         style="fill:#ffffff;fill-opacity:1;fill-rule:nonzero;stroke:none"
         id="path122" /><path
         d="m 908.98,3660.78 62.391,-62.42 298.979,-298.98 3.87,-3.83 1.09,1.05 3.44,3.48 71.17,71.13 11.25,11.25 3.48,3.52 60.97,60.93 198.29,198.29 -4.5,4.45 -4.02,4.02 -3.98,4.03 -63.25,63.2 -198.24,-198.24 -75.7,-75.75 -18.17,18.21 -57.53,57.54 195.39,195.39 -75.75,75.66 -195.35,-195.35 h -0.04 l -55.78,55.78 -3.4,3.44 -16.48,16.48 75.66,75.71 49.65,49.64 17.15,17.11 17.07,17.07 114.41,114.46 -68.28,68.28 -4.02,3.98 -3.4,3.44 -349.69,-349.69 3.871,-3.86 9.449,-9.42"
         style="fill:#ffffff;fill-opacity:1;fill-rule:nonzero;stroke:none"
         id="path124" /><path
         d="m 1059.14,2633.24 c 3.44,0.71 6.84,1.37 10.27,1.88 8.29,1.25 16.68,1.87 25.2,1.87 h 0.04 c 13.67,0 27.11,-1.64 40.08,-4.8 3.04,-0.74 6.09,-1.57 9.1,-2.5 9.96,-3.09 19.61,-7.03 28.83,-11.92 4.61,-2.46 9.14,-5.15 13.51,-8 1.13,-0.75 2.27,-1.53 3.36,-2.31 3.01,-2.11 5.98,-4.3 8.87,-6.56 2.54,-2.03 5.04,-4.1 7.46,-6.29 2.38,-2.11 4.76,-4.3 7.03,-6.6 4.61,-4.61 8.87,-9.46 12.81,-14.46 3.68,-4.6 7.03,-9.37 10.16,-14.25 10.94,-17.27 18.44,-36.1 22.42,-55.51 0.47,-2.19 0.86,-4.41 1.21,-6.6 0.16,-0.94 0.35,-1.88 0.51,-2.81 2.54,-17.31 2.34,-34.89 -0.47,-52.11 -0.08,-0.32 -0.12,-0.59 -0.15,-0.94 -0.55,-3.17 -1.18,-6.29 -1.92,-9.42 -6.8,-29.53 -21.6,-57.53 -44.57,-80.46 -2.27,-2.31 -4.61,-4.5 -7.03,-6.65 -5.2,-4.6 -10.63,-8.86 -16.29,-12.81 -5.47,-3.79 -11.09,-7.22 -16.87,-10.31 -9.22,-4.84 -18.87,-8.87 -28.83,-11.91 -3.01,-0.9 -6.06,-1.76 -9.1,-2.5 -13.01,-3.17 -26.45,-4.85 -40.16,-4.85 -9.1,0 -18.09,0.78 -26.91,2.19 -3.4,0.55 -6.8,1.21 -10.16,1.95 -23.56,5.32 -45.59,15.67 -64.841,30.51 -2.699,2.07 -5.359,4.3 -7.969,6.52 -2.851,2.54 -5.71,5.12 -8.441,7.86 -4.879,4.88 -9.379,10 -13.559,15.39 -3.121,3.94 -6.011,8 -8.75,12.18 -0.23,0.39 -0.46,0.82 -0.742,1.18 -4.449,7.03 -8.359,14.37 -11.718,21.91 -9.29,21.01 -14.219,43.94 -14.219,67.62 0,23.67 4.929,46.52 14.179,67.54 3.36,7.57 7.27,14.92 11.758,21.95 0.282,0.47 0.59,0.94 0.864,1.4 2.738,4.15 5.668,8.25 8.75,12.19 4.179,5.28 8.628,10.39 13.437,15.2 2.77,2.77 5.621,5.39 8.551,7.93 2.621,2.26 5.281,4.45 7.969,6.52 19.691,15.16 42.231,25.59 66.331,30.78 z m -81.21,-411.91 c 8.398,-3.95 16.949,-7.42 25.62,-10.51 10.9,-3.79 22,-6.84 33.21,-9.26 3.94,-0.86 7.97,-1.6 11.95,-2.26 15.2,-2.58 30.51,-3.95 45.9,-3.95 32.77,0 65.55,5.94 96.64,17.62 6.02,2.23 11.91,4.65 17.77,7.34 3.48,1.57 6.88,3.24 10.24,5 2.22,1.14 4.45,2.31 6.64,3.52 5.55,3.01 10.98,6.21 16.33,9.65 16.44,10.5 32.03,22.89 46.36,37.22 2.5,2.46 4.85,5 7.19,7.58 1.17,1.25 2.38,2.54 3.56,3.83 1.17,1.33 2.26,2.66 3.43,4.02 1.18,1.33 2.35,2.66 3.44,4.03 7.15,8.59 13.63,17.54 19.53,26.75 2.85,4.5 5.55,9.03 8.17,13.6 16.95,30.23 27.81,62.97 32.42,96.4 0.43,3.13 0.82,6.29 1.13,9.46 1.84,17.58 1.95,35.35 0.35,53.01 -0.27,3.12 -0.62,6.28 -1.01,9.41 -4.18,33.4 -14.46,66.09 -30.86,96.44 -2.46,4.54 -5.04,9.03 -7.82,13.44 -6.52,10.59 -13.78,20.82 -21.91,30.67 -1.13,1.32 -2.3,2.65 -3.48,4.02 -1.13,1.33 -2.26,2.69 -3.43,4.02 -1.18,1.29 -2.35,2.54 -3.56,3.79 -2.3,2.54 -4.69,5.12 -7.15,7.58 -14.37,14.34 -29.96,26.72 -46.36,37.23 -5.39,3.43 -10.82,6.68 -16.37,9.64 -2.31,1.29 -4.65,2.5 -6.95,3.72 -3.29,1.64 -6.61,3.28 -9.93,4.8 -5.93,2.74 -11.99,5.2 -18.08,7.46 -30.98,11.6 -63.63,17.46 -96.29,17.46 -15.39,0 -30.78,-1.36 -45.98,-3.9 -3.9,-0.67 -7.81,-1.41 -11.72,-2.27 -10.97,-2.34 -21.91,-5.31 -32.61,-9.02 -2.62,-0.94 -5.241,-1.96 -7.851,-2.93 -6.25,-2.42 -12.469,-5 -18.597,-7.89 -27.93,-13.13 -54.18,-31.21 -77.262,-54.3 -28.481,-28.52 -49.301,-61.72 -62.66,-97.07 -36.84,-97.73 -15.981,-212.3 62.66,-290.98 23.121,-23.08 49.332,-41.21 77.34,-54.37"
         style="fill:#ffffff;fill-opacity:1;fill-rule:nonzero;stroke:none"
         id="path126" /><path
         d="m 1475.2,2431.91 c 1.64,-11.75 4.06,-23.39 7.18,-34.88 0.86,-3.05 1.72,-6.09 2.7,-9.14 5.19,-16.76 12.07,-33.12 20.58,-48.83 1.53,-2.77 3.01,-5.54 4.61,-8.28 6.02,-10.16 12.74,-19.96 20.12,-29.41 1.91,-2.5 3.91,-4.96 5.94,-7.42 5.23,-6.25 10.74,-12.35 16.6,-18.25 6.8,-6.75 13.83,-13.12 21.09,-19.02 2.46,-2.03 5,-3.91 7.54,-5.82 9.57,-7.27 19.49,-13.79 29.73,-19.61 2.73,-1.56 5.51,-3.16 8.32,-4.61 15.78,-8.32 32.27,-14.96 49.1,-19.96 3.05,-0.9 6.13,-1.68 9.18,-2.46 11.17,-2.89 22.5,-5.08 33.91,-6.52 3.12,-0.43 6.29,-0.86 9.41,-1.14 8.56,-0.78 17.15,-1.21 25.7,-1.21 0.04,0 0.08,0 0.12,0 9.06,0 18.17,0.47 27.19,1.37 3.16,0.31 6.33,0.74 9.45,1.13 11.76,1.6 23.4,3.99 34.88,7.07 3.05,0.82 6.14,1.68 9.15,2.58 16.83,5.2 33.2,11.95 48.94,20.43 2.77,1.48 5.55,3.05 8.32,4.65 9.73,5.62 19.1,11.99 28.24,18.94 2.5,1.96 5.04,3.87 7.5,5.86 6.96,5.74 13.71,11.84 20.24,18.36 l -75.71,75.67 c -6.52,-6.53 -13.51,-12.39 -20.85,-17.7 -2.97,-2.11 -5.98,-4.14 -9.07,-6.05 -15.11,-9.42 -31.56,-16.33 -48.86,-20.55 -4.03,-0.98 -8.09,-1.76 -12.23,-2.42 -8.91,-1.49 -18.01,-2.27 -27.19,-2.27 -0.04,0 -0.08,0 -0.12,0 -8.67,0 -17.26,0.7 -25.7,1.99 -3.75,0.55 -7.46,1.29 -11.13,2.11 -17.38,3.91 -33.99,10.51 -49.22,19.69 -3.56,2.15 -7.03,4.45 -10.43,6.88 -7.7,5.43 -15,11.52 -21.8,18.32 -5.9,5.93 -11.29,12.18 -16.09,18.71 -2.5,3.4 -4.84,6.79 -7.03,10.31 -9.65,15.23 -16.6,31.72 -20.82,48.75 -0.98,4.02 -1.8,8.09 -2.5,12.15 -3.01,17.54 -3.24,35.47 -0.67,53.05 0.71,4.45 1.57,8.86 2.54,13.28 3.99,17.11 10.67,33.71 20,49.1 2.19,3.51 4.46,6.99 6.92,10.39 5.23,7.3 11.09,14.3 17.65,20.86 6.17,6.17 12.74,11.76 19.57,16.79 3.79,2.82 7.74,5.4 11.68,7.86 15.24,9.25 31.72,16.01 49.1,20.04 4.07,0.89 8.13,1.71 12.23,2.34 8.44,1.29 17.03,1.99 25.7,1.99 0.04,0 0.08,0 0.12,0 9.18,0 18.28,-0.82 27.19,-2.26 4.49,-0.75 8.9,-1.61 13.32,-2.7 17.26,-4.3 33.67,-11.33 48.71,-20.9 3.52,-2.19 6.95,-4.49 10.27,-7.03 6.6,-4.84 12.86,-10.23 18.71,-16.09 l 75.71,75.7 c -5.86,5.86 -11.99,11.37 -18.24,16.56 -2.43,2.03 -4.93,4.03 -7.39,5.98 -9.45,7.34 -19.26,14.1 -29.41,20.08 -2.78,1.6 -5.51,3.12 -8.28,4.65 -15.74,8.47 -32.07,15.35 -48.87,20.58 -3.05,0.94 -6.05,1.84 -9.14,2.66 -11.84,3.24 -23.83,5.7 -35.94,7.3 -3.12,0.43 -6.29,0.82 -9.45,1.14 -9.02,0.89 -18.13,1.36 -27.19,1.36 -0.04,0 -0.08,0 -0.12,0 -8.55,0 -17.14,-0.39 -25.7,-1.21 -3.12,-0.27 -6.29,-0.66 -9.41,-1.05 -11.76,-1.57 -23.44,-3.79 -34.96,-6.84 -3.05,-0.82 -6.14,-1.64 -9.14,-2.54 -16.84,-5.08 -33.29,-11.76 -49.07,-20.12 -2.81,-1.48 -5.54,-3.04 -8.32,-4.64 -10.62,-6.14 -20.93,-13.01 -30.86,-20.71 -2.5,-1.91 -5,-3.86 -7.46,-5.9 -6.56,-5.43 -12.93,-11.21 -19.06,-17.3 -6.48,-6.52 -12.62,-13.28 -18.32,-20.27 -2.03,-2.46 -3.95,-4.96 -5.86,-7.5 -7.3,-9.53 -13.91,-19.42 -19.77,-29.61 -1.56,-2.78 -3.12,-5.51 -4.6,-8.32 -8.36,-15.78 -15.04,-32.19 -20.12,-49.03 -0.9,-3.04 -1.72,-6.09 -2.54,-9.18 -3.13,-11.87 -5.47,-23.9 -6.95,-36.05 -0.39,-3.13 -0.79,-6.29 -1.06,-9.41 -1.56,-17.66 -1.44,-35.43 0.35,-53.01 0.35,-3.17 0.71,-6.33 1.14,-9.46"
         style="fill:#ffffff;fill-opacity:1;fill-rule:nonzero;stroke:none"
         id="path128" /><path
         d="M 508.91,2202.03 H 775.27 V 2309.1 H 508.91 v 428.28 H 401.84 v -535.35 h 107.07"
         style="fill:#ffffff;fill-opacity:1;fill-rule:nonzero;stroke:none"
         id="path130" /><path
         d="m 2712.42,2439.57 c 1.64,-0.98 3.28,-1.91 4.96,-2.85 1.64,-0.94 3.28,-1.84 5,-2.7 22.03,-11.36 47,-17.85 73.44,-17.85 h 160.59 c 29.53,0 53.55,-23.98 53.55,-53.51 0,-29.54 -24.02,-53.56 -53.55,-53.56 h -287 v -107.07 h 287 c 53.79,0 101.44,26.64 130.62,67.38 1.64,2.31 3.24,4.69 4.81,7.07 1.4,2.27 2.77,4.54 4.1,6.84 12.07,21.09 19.49,45.16 20.82,70.82 0.12,1.72 0.12,3.48 0.15,5.2 0,1.09 0.08,2.18 0.08,3.32 0,0.11 0,0.23 0,0.35 0,0.47 -0.04,0.94 -0.04,1.44 -0.04,1.68 -0.07,3.4 -0.15,5.04 -0.04,2.11 -0.24,4.22 -0.35,6.29 -3.09,37.58 -19.11,71.49 -43.64,97.34 -1.52,1.61 -3.04,3.17 -4.65,4.69 -1.68,1.64 -3.36,3.21 -5.07,4.77 -11.92,10.58 -25.39,19.45 -40.08,26.13 -12.85,5.9 -26.56,10.16 -40.98,12.46 -7.3,1.17 -14.76,1.84 -22.38,1.99 -1.1,0.04 -2.15,0.08 -3.24,0.08 h -160.59 c -15.27,0 -29.06,6.49 -38.83,16.8 -1.4,1.48 -2.73,3.08 -3.98,4.73 -1.13,1.52 -2.19,3.08 -3.17,4.72 -4.76,7.97 -7.57,17.31 -7.57,27.31 0,29.53 24.02,53.51 53.55,53.51 h 286.99 v 107.07 h -286.99 c -15.31,0 -30.12,-2.18 -44.14,-6.21 -1.52,-0.43 -3.05,-0.86 -4.53,-1.37 -0.24,-0.03 -0.39,-0.11 -0.63,-0.15 -1.6,-0.55 -3.16,-1.06 -4.76,-1.64 -0.08,0 -0.16,-0.04 -0.24,-0.08 -1.72,-0.63 -3.43,-1.33 -5.15,-1.99 -59.22,-23.67 -101.17,-81.6 -101.17,-149.14 0,-58.05 30.93,-108.99 77.22,-137.23"
         style="fill:#ffffff;fill-opacity:1;fill-rule:nonzero;stroke:none"
         id="path132" /><path
         d="m 2053.91,2370.43 c 6.6,-25.43 17.38,-49.14 31.56,-70.47 3.32,-5 6.91,-9.84 10.58,-14.61 16.76,-21.4 37.15,-39.8 60.28,-54.3 1.33,-0.85 2.65,-1.67 4.02,-2.5 1.33,-0.82 2.74,-1.56 4.1,-2.34 1.33,-0.78 2.7,-1.6 4.07,-2.34 29.41,-16.06 62.65,-25.98 98,-28.05 4.61,-0.27 9.3,-0.47 14.03,-0.47 0.04,0 0.04,0 0.07,0 9.61,0 19.11,0.67 28.44,1.8 6.02,0.74 11.99,1.64 17.85,2.81 25.79,5.2 50.04,14.65 72.04,27.54 3.35,1.99 6.64,4.02 9.88,6.13 0.19,0.12 0.35,0.24 0.55,0.39 4.49,2.97 8.9,6.06 13.16,9.34 32.46,24.76 58.2,57.81 74.18,95.98 1.25,2.93 2.38,5.86 3.48,8.82 1.56,4.14 2.96,8.32 4.25,12.58 1.06,3.32 2,6.68 2.89,10.04 3.48,13.56 5.75,27.58 6.76,41.95 0.24,3.29 0.39,6.61 0.51,9.93 0.04,2.3 0.16,4.61 0.16,6.91 v 307.81 H 2407.7 v -307.81 c 0,-42.11 -20.59,-79.49 -52.23,-102.66 -2.7,-1.99 -5.47,-3.82 -8.32,-5.58 -19.42,-11.95 -42.19,-18.91 -66.6,-18.91 -25.08,0 -48.44,7.35 -68.17,19.92 -1.36,0.86 -2.77,1.8 -4.1,2.74 -1.37,0.94 -2.69,1.87 -4.02,2.89 -1.37,0.98 -2.7,2.03 -4.03,3.08 -28.55,23.36 -46.83,58.83 -46.83,98.52 v 307.81 h -107.07 v -307.81 c 0,-16.41 1.72,-32.38 4.92,-47.81 0.78,-3.83 1.64,-7.58 2.66,-11.33"
         style="fill:#ffffff;fill-opacity:1;fill-rule:nonzero;stroke:none"
         id="path134" /></g></g></svg>
