<?xml version="1.0" encoding="utf-8"?>
<!-- Generator: Adobe Illustrator 25.4.1, SVG Export Plug-In . SVG Version: 6.00 Build 0)  -->
<svg version="1.1" id="Calque_1" xmlns="http://www.w3.org/2000/svg" xmlns:xlink="http://www.w3.org/1999/xlink" x="0px" y="0px"
	 viewBox="0 0 112.2105 90.44732" style="enable-background:new 0 0 112.2105 90.44732;" xml:space="preserve">
<style type="text/css">
	.st0{clip-path:url(#SVGID_00000032620448399945838090000001745020096826511036_);fill:#ADADAD;}
	
		.st1{clip-path:url(#SVGID_00000032620448399945838090000001745020096826511036_);fill:none;stroke:#ADADAD;stroke-width:0.567;stroke-miterlimit:10;}
	
		.st2{clip-path:url(#SVGID_00000032620448399945838090000001745020096826511036_);fill:none;stroke:#FFFFFF;stroke-width:0.567;stroke-miterlimit:10;}
	.st3{clip-path:url(#SVGID_00000032620448399945838090000001745020096826511036_);fill:#FFFFFF;}
	
		.st4{clip-path:url(#SVGID_00000032620448399945838090000001745020096826511036_);fill:none;stroke:#ADADAD;stroke-width:0.709;stroke-linecap:round;}
	
		.st5{clip-path:url(#SVGID_00000032620448399945838090000001745020096826511036_);fill:none;stroke:#FFFFFF;stroke-width:0.709;stroke-linecap:round;}
</style>
<g>
	<defs>
		<rect id="SVGID_1_" x="-14.07888" y="-10.47518" width="140.43741" height="112.34856"/>
	</defs>
	<clipPath id="SVGID_00000111889839172805708890000016052247575885790135_">
		<use xlink:href="#SVGID_1_"  style="overflow:visible;"/>
	</clipPath>
	<path style="clip-path:url(#SVGID_00000111889839172805708890000016052247575885790135_);fill:#ADADAD;" d="M81.97536,39.35084
		c0.03743-0.27994,0.18711-0.41853,0.44764-0.41853h1.79333c0.27994,0,0.40052,0.13858,0.36449,0.41853l-1.65334,13.41248
		c-0.03743,0.27995-0.18431,0.42131-0.44627,0.42131h-1.79329c-0.27998,0-0.40192-0.14135-0.36449-0.42131l0.0845-0.72757
		c0.01942-0.05682,0.00973-0.09147-0.0277-0.11226c-0.03743-0.01802-0.07481-0.0097-0.11224,0.02771
		c-0.91468,0.9715-2.02476,1.45655-3.33163,1.45655c-2.59576,0-4.15347-1.26946-4.67732-3.80838
		c-0.22314-0.98951-0.23283-2.18414-0.02775-3.58386c0.14968-1.3443,0.41994-2.47379,0.81212-3.38846
		c1.1198-2.61376,3.01431-3.92064,5.68488-3.92064c1.30547,0,2.30609,0.47674,2.99624,1.42883
		c0.07346,0.11087,0.12891,0.09285,0.16769-0.05682L81.97536,39.35084z M80.04349,49.57165
		c0.54326-0.8038,0.90635-1.97902,1.09341-3.52982c0.18571-1.52861,0.09287-2.72462-0.2813-3.58248
		c-0.41025-0.95209-1.1198-1.42883-2.12732-1.42883c-1.04634,0-1.90558,0.44763-2.57635,1.34291
		c-0.67078,0.88002-1.1198,2.11068-1.3443,3.69889c-0.15108,1.41774-0.06513,2.57356,0.25224,3.47161
		c0.39219,1.02693,1.20431,1.53832,2.43775,1.53832C78.50375,51.08226,79.3533,50.58057,80.04349,49.57165"/>
	<path style="clip-path:url(#SVGID_00000111889839172805708890000016052247575885790135_);fill:#ADADAD;" d="M91.74901,53.3512
		c-1.60487,0-2.86601-0.36864-3.7793-1.10453c-0.91604-0.73867-1.30827-1.6478-1.17661-2.73156l0.0277-0.16769
		c0.03743-0.27994,0.18571-0.41991,0.44903-0.41991h1.67829c0.13166,0,0.23422,0.01941,0.30907,0.05682
		c0.07482,0.03742,0.10252,0.08315,0.0845,0.13858l-0.0291,0.22451c-0.0554,0.52248,0.16909,0.97981,0.67217,1.37202
		c0.50443,0.3922,1.16688,0.5876,1.98872,0.5876c0.83847,0,1.53416-0.18155,2.08575-0.54465
		c0.55155-0.36448,0.86338-0.82737,0.93824-1.38726c0.0554-0.54187-0.13585-0.94793-0.57515-1.21679
		c-0.43795-0.27163-1.16138-0.55574-2.16889-0.85509c-0.72897-0.2051-1.3166-0.40191-1.76424-0.5876
		c-0.44898-0.1871-0.93405-0.44764-1.45515-0.7844c-0.52385-0.33677-0.89388-0.7553-1.10733-1.26115
		c-0.21481-0.50307-0.28548-1.099-0.20927-1.79055c0.14832-1.25145,0.74699-2.24511,1.79058-2.98378
		c1.0463-0.7359,2.35321-1.10454,3.92061-1.10454c1.58685,0,2.82444,0.37835,3.70998,1.13364
		c0.88698,0.75668,1.257,1.72125,1.10732,2.89785c-0.03743,0.24253-0.1871,0.36449-0.44903,0.36449H96.145
		c-0.11089,0-0.20512-0.0194-0.27998-0.05543c-0.07481-0.0388-0.10252-0.08454-0.0845-0.14137l0.0291-0.16769
		c0.0554-0.54187-0.15386-0.99366-0.63059-1.35815c-0.47674-0.3631-1.15166-0.54603-2.0303-0.54603
		c-0.80104,0-1.47041,0.15937-2.0012,0.47673c-0.53353,0.31737-0.83568,0.74699-0.91049,1.28748
		c-0.01942,0.24392,0.01382,0.45734,0.09837,0.64444c0.08315,0.1857,0.1954,0.34509,0.33539,0.47673
		c0.14134,0.13027,0.35061,0.26055,0.63055,0.39082c0.27858,0.13166,0.53636,0.23421,0.76919,0.30766
		c0.23418,0.07622,0.55573,0.17739,0.96594,0.30905c0.59731,0.16769,1.06435,0.30628,1.4011,0.41992
		c0.33538,0.11225,0.75671,0.2938,1.2584,0.54603c0.50583,0.25084,0.88693,0.51831,1.15025,0.79826
		c0.26057,0.27995,0.47538,0.64859,0.64307,1.10593c0.16765,0.45734,0.21616,0.96457,0.13995,1.52584
		c-0.1663,1.26946-0.78302,2.27838-1.84873,3.02398C94.71754,52.9784,93.3746,53.3512,91.74901,53.3512"/>
	<path style="clip-path:url(#SVGID_00000111889839172805708890000016052247575885790135_);fill:#ADADAD;" d="M105.21855,53.3512
		c-1.60626,0-2.86601-0.36864-3.78069-1.10453c-0.91464-0.73867-1.30687-1.6478-1.17661-2.73156l0.0291-0.16769
		c0.03603-0.27994,0.18571-0.41991,0.44767-0.41991h1.67965c0.1303,0,0.23283,0.01941,0.30908,0.05682
		c0.07342,0.03742,0.10117,0.08315,0.08315,0.13858l-0.02774,0.22451c-0.0554,0.52248,0.16769,0.97981,0.67216,1.37202
		c0.50443,0.3922,1.16553,0.5876,1.98872,0.5876c0.83847,0,1.53276-0.18155,2.08575-0.54465
		c0.55019-0.36448,0.86198-0.82737,0.93684-1.38726c0.0568-0.54187-0.13445-0.94793-0.57375-1.21679
		c-0.43795-0.27163-1.16138-0.55574-2.17029-0.85509c-0.72758-0.2051-1.3152-0.40191-1.76284-0.5876
		c-0.44898-0.1871-0.93405-0.44764-1.45654-0.7844c-0.52385-0.33677-0.89248-0.7553-1.10593-1.26115
		c-0.21616-0.50307-0.28548-1.099-0.21062-1.79055c0.14967-1.25145,0.74699-2.24511,1.79193-2.98378
		c1.0463-0.7359,2.35321-1.10454,3.92061-1.10454c1.58685,0,2.82444,0.37835,3.70998,1.13364
		c0.88698,0.75668,1.25561,1.72125,1.10732,2.89785c-0.03883,0.24253-0.1871,0.36449-0.44903,0.36449h-1.65194
		c-0.11229,0-0.20512-0.0194-0.27998-0.05543c-0.07481-0.0388-0.10252-0.08454-0.0859-0.14137l0.03049-0.16769
		c0.0554-0.54187-0.15522-0.99366-0.63059-1.35815c-0.47674-0.3631-1.15305-0.54603-2.0303-0.54603
		c-0.80239,0-1.47041,0.15937-2.00259,0.47673c-0.53214,0.31737-0.83568,0.74699-0.9091,1.28748
		c-0.01942,0.24392,0.01382,0.45734,0.09698,0.64444c0.08454,0.1857,0.19679,0.34509,0.33539,0.47673
		c0.14139,0.13027,0.35065,0.26055,0.63195,0.39082c0.27859,0.13166,0.53636,0.23421,0.76919,0.30766
		c0.23418,0.07622,0.55574,0.17739,0.96594,0.30905c0.59731,0.16769,1.06435,0.30628,1.4011,0.41992
		c0.33538,0.11225,0.75671,0.2938,1.2584,0.54603c0.50443,0.25084,0.88693,0.51831,1.14886,0.79826
		c0.26196,0.27995,0.47678,0.64859,0.64582,1.10593c0.1663,0.45734,0.21346,0.96457,0.1386,1.52584
		c-0.16769,1.26946-0.78442,2.27838-1.85013,3.02398C108.1857,52.9784,106.84415,53.3512,105.21855,53.3512"/>
	<path style="clip-path:url(#SVGID_00000111889839172805708890000016052247575885790135_);fill:#ADADAD;" d="M69.17947,42.5141
		c-0.52245-2.53892-2.08021-3.807-4.67593-3.807c-1.28749,0-2.39897,0.48507-3.33162,1.45517
		c-0.03743,0.03881-0.07626,0.04573-0.11229,0.0291c-0.03739-0.01801-0.04712-0.05681-0.0277-0.11363l0.08454-0.72758
		c0.03604-0.27995-0.08454-0.41854-0.36588-0.41854h-1.79193c-0.26053,0-0.41021,0.13858-0.44764,0.41854l-4.57336,37.96044
		c0.31598-0.13027,0.65965-0.20373,1.02274-0.20373c0.57654,0,1.10733,0.18294,1.54663,0.49199l3.04061-25.56242
		c0.03603-0.13166,0.10256-0.15106,0.19683-0.05821c0.68875,0.95348,1.67829,1.43022,2.96714,1.43022
		c2.66918,0,4.56367-1.30826,5.68344-3.92064c0.37282-0.87725,0.65415-2.00674,0.84126-3.38846
		C69.40401,44.66082,69.3846,43.46619,69.17947,42.5141 M66.63226,46.04252c-0.1871,1.53139-0.62645,2.76344-1.3166,3.69752
		c-0.69154,0.89665-1.5591,1.3429-2.60405,1.3429c-1.00891,0-1.71711-0.47673-2.12732-1.42744
		c-0.35616-0.82183-0.43935-2.01645-0.25364-3.58387c0.16769-1.53278,0.5225-2.70662,1.06436-3.52843
		c0.69154-1.00753,1.5397-1.51337,2.54865-1.51337c1.23066,0,2.04413,0.51554,2.43636,1.54109
		C66.71542,43.41076,66.79992,44.56935,66.63226,46.04252"/>
	
		<path style="clip-path:url(#SVGID_00000111889839172805708890000016052247575885790135_);fill:none;stroke:#ADADAD;stroke-width:0.567;stroke-miterlimit:10;" d="
		M57.6622,79.80917c0,1.49259-1.20989,2.70246-2.70247,2.70246c-1.49258,0-2.70382-1.20987-2.70382-2.70246
		c0-1.49258,1.21125-2.70245,2.70382-2.70245C56.45231,77.10673,57.6622,78.3166,57.6622,79.80917z"/>
	
		<path style="clip-path:url(#SVGID_00000111889839172805708890000016052247575885790135_);fill:none;stroke:#FFFFFF;stroke-width:0.567;stroke-miterlimit:10;" d="
		M59.90802,13.66757c0,1.4926-1.21128,2.70247-2.70247,2.70247c-1.49258,0-2.70382-1.20987-2.70382-2.70247
		c0-1.49258,1.21124-2.70245,2.70382-2.70245C58.69674,10.96512,59.90802,12.17499,59.90802,13.66757z"/>
	<path style="clip-path:url(#SVGID_00000111889839172805708890000016052247575885790135_);fill:#FFFFFF;" d="M12.61757,53.40858
		c-1.36232,0-2.49176-0.35062-3.38982-1.05187c-0.89392-0.69849-1.46488-1.67413-1.70603-2.92419
		c-0.20648-0.9715-0.23418-2.11069-0.0845-3.41618c0.18567-1.3637,0.48502-2.48349,0.89662-3.36212
		c0.53911-1.23066,1.35263-2.198,2.43501-2.89787c1.08237-0.69986,2.31438-1.04911,3.69751-1.04911
		c1.30547,0,2.39757,0.34925,3.27483,1.04911c0.87725,0.69986,1.44682,1.65751,1.70878,2.87014
		c0.20508,0.91468,0.23283,2.03585,0.0845,3.36074c-0.15103,1.32628-0.44763,2.47378-0.89662,3.44528
		c-0.55992,1.25006-1.37204,2.22571-2.4364,2.92419C15.13847,53.05796,13.94249,53.40858,12.61757,53.40858 M12.89755,51.08308
		c0.74559,0,1.41358-0.20926,2.00255-0.62918c0.58763-0.42131,1.05049-1.01308,1.38448-1.77808
		c0.29935-0.80241,0.50448-1.67968,0.61672-2.63315c0.11225-1.11979,0.13166-1.98735,0.05684-2.60406
		c-0.14968-0.76361-0.47119-1.35677-0.96598-1.77807c-0.4961-0.42131-1.1253-0.63057-1.89031-0.63057
		c-1.56879,0-2.70801,0.80381-3.41617,2.40865c-0.26192,0.63612-0.46705,1.50367-0.61672,2.60406
		c-0.11085,1.02693-0.12058,1.90557-0.0277,2.63315c0.13026,0.74699,0.44763,1.3346,0.95207,1.76422
		C11.4978,50.86966,12.13115,51.08308,12.89755,51.08308"/>
	<path style="clip-path:url(#SVGID_00000111889839172805708890000016052247575885790135_);fill:#FFFFFF;" d="M31.01646,52.37194
		c-1.09346,0.69017-2.31997,1.03663-3.68368,1.03663c-1.36232,0-2.48627-0.36032-3.3732-1.07959
		c-0.88698-0.71926-1.44132-1.69353-1.66581-2.92558c-0.16769-0.93407-0.16769-2.06218,0-3.38846
		c0.16769-1.3443,0.44763-2.47378,0.83982-3.38846c0.48507-1.19324,1.26948-2.14533,2.35181-2.85628
		c1.08377-0.70957,2.3061-1.06296,3.66841-1.06296c1.36371,0,2.50568,0.35339,3.43004,1.06296
		c0.92437,0.71095,1.47042,1.60622,1.63951,2.68859c0.07342,0.24392,0.11085,0.50446,0.11085,0.7844
		c0,0.26194-0.13995,0.41022-0.41993,0.44764l-1.79193,0.25224c-0.24251,0.01802-0.38386-0.08455-0.41989-0.30767l-0.05545-0.36448
		c-0.05684-0.63473-0.33678-1.16691-0.84122-1.59514c-0.50308-0.42963-1.15723-0.64582-1.95963-0.64582
		c-0.80243,0-1.49397,0.21619-2.07187,0.64582c-0.57929,0.42823-0.99923,0.99921-1.26115,1.70878
		c-0.22453,0.54049-0.41854,1.42606-0.58763,2.6581c-0.13026,1.13919-0.14968,2.01644-0.0568,2.63315
		c0.09423,0.74699,0.37417,1.3346,0.84122,1.76422c0.46565,0.42823,1.10039,0.64305,1.90418,0.64305
		c0.76501,0,1.45654-0.20927,2.07187-0.62919c0.61672-0.41992,1.04494-0.95626,1.28885-1.61039l0.02635-0.11226l0.0291-0.02771
		c0.01802-0.07345,0.079-0.15799,0.18157-0.25223c0.10256-0.09285,0.21066-0.13166,0.32151-0.11226l1.71018,0.30767
		c0.26053,0.05682,0.36309,0.2065,0.30625,0.44902c-0.07342,0.22452-0.13995,0.40191-0.1954,0.53218
		C32.88735,50.76711,32.10852,51.68179,31.01646,52.37194"/>
	<path style="clip-path:url(#SVGID_00000111889839172805708890000016052247575885790135_);fill:#FFFFFF;" d="M46.29638,39.35084
		c0.03743-0.27994,0.18711-0.41853,0.44763-0.41853h1.79333c0.27994,0,0.40052,0.13858,0.36309,0.41853l-1.65194,13.41248
		c-0.03743,0.27995-0.18571,0.42131-0.44764,0.42131h-1.79193c-0.28134,0-0.40192-0.14135-0.36449-0.42131l0.08315-0.72757
		c0.01937-0.05682,0.00969-0.09147-0.02774-0.11226c-0.03739-0.01802-0.07342-0.0097-0.11085,0.02771
		c-0.91468,0.9715-2.02615,1.45655-3.33302,1.45655c-2.59436,0-4.15347-1.26946-4.67592-3.80838
		c-0.22454-0.98951-0.23422-2.18414-0.02774-3.58386c0.14828-1.3443,0.41993-2.47379,0.81212-3.38846
		c1.1198-2.61376,3.0143-3.92064,5.68488-3.92064c1.30547,0,2.3047,0.47674,2.99624,1.42883
		c0.07346,0.11087,0.12891,0.09285,0.1663-0.05682L46.29638,39.35084z M44.36449,49.57165
		c0.54047-0.8038,0.90495-1.97902,1.09341-3.52982c0.18436-1.52861,0.09148-2.72462-0.28129-3.58248
		c-0.41025-0.95209-1.1198-1.42883-2.12732-1.42883c-1.04634,0-1.90557,0.44763-2.57635,1.34291
		c-0.67217,0.88002-1.1198,2.11068-1.3457,3.69889c-0.14967,1.41774-0.06513,2.57356,0.25364,3.47161
		c0.39079,1.02693,1.20291,1.53832,2.43496,1.53832C42.82476,51.08226,43.6743,50.58057,44.36449,49.57165"/>
	<path style="clip-path:url(#SVGID_00000111889839172805708890000016052247575885790135_);fill:#FFFFFF;" d="M57.20501,16.37015
		c-0.54051,0-1.0408-0.16213-1.46352-0.43516c-0.03324,0.05959-0.07482,0.10671-0.0859,0.19402l-4.50823,36.63416
		c-0.03743,0.27995,0.08315,0.41992,0.36309,0.41992h1.79193c0.26192,0,0.4116-0.13997,0.44903-0.41992l4.50544-36.60506
		C57.93393,16.29533,57.57778,16.37015,57.20501,16.37015"/>
	<path style="clip-path:url(#SVGID_00000111889839172805708890000016052247575885790135_);fill:#FFFFFF;" d="M0.9337,53.18379
		c-0.27998,0-0.40191-0.14135-0.36449-0.4213l2.52505-20.47489c0.03743-0.27995,0.18706-0.41992,0.44903-0.41992h1.79193
		c0.27994,0,0.40052,0.13997,0.36309,0.41992L3.17326,52.76249c-0.03743,0.27994-0.18711,0.4213-0.44763,0.4213H0.9337z"/>
	
		<line style="clip-path:url(#SVGID_00000111889839172805708890000016052247575885790135_);fill:none;stroke:#ADADAD;stroke-width:0.709;stroke-linecap:round;" x1="12.1888" y1="74.45624" x2="37.08046" y2="58.48545"/>
	
		<line style="clip-path:url(#SVGID_00000111889839172805708890000016052247575885790135_);fill:none;stroke:#ADADAD;stroke-width:0.709;stroke-linecap:round;" x1="38.2593" y1="85.45148" x2="47.22451" y2="61.85561"/>
	
		<line style="clip-path:url(#SVGID_00000111889839172805708890000016052247575885790135_);fill:none;stroke:#ADADAD;stroke-width:0.709;stroke-linecap:round;" x1="38.73049" y1="8.67261" x2="48.57434" y2="31.6393"/>
	
		<line style="clip-path:url(#SVGID_00000111889839172805708890000016052247575885790135_);fill:none;stroke:#ADADAD;stroke-width:0.709;stroke-linecap:round;" x1="25.13813" y1="17.34359" x2="41.77689" y2="33.51397"/>
	
		<line style="clip-path:url(#SVGID_00000111889839172805708890000016052247575885790135_);fill:none;stroke:#ADADAD;stroke-width:0.709;stroke-linecap:round;" x1="26.44737" y1="88.90494" x2="42.15203" y2="64.53159"/>
	
		<line style="clip-path:url(#SVGID_00000111889839172805708890000016052247575885790135_);fill:none;stroke:#ADADAD;stroke-width:0.709;stroke-linecap:round;" x1="70.83755" y1="8.20334" x2="61.22927" y2="30.93581"/>
	
		<line style="clip-path:url(#SVGID_00000111889839172805708890000016052247575885790135_);fill:none;stroke:#ADADAD;stroke-width:0.709;stroke-linecap:round;" x1="95.9137" y1="18.74956" x2="74.58788" y2="33.51466"/>
	
		<line style="clip-path:url(#SVGID_00000111889839172805708890000016052247575885790135_);fill:none;stroke:#ADADAD;stroke-width:0.709;stroke-linecap:round;" x1="84.19569" y1="17.10937" x2="68.25816" y2="33.04691"/>
	
		<line style="clip-path:url(#SVGID_00000111889839172805708890000016052247575885790135_);fill:none;stroke:#ADADAD;stroke-width:0.709;stroke-linecap:round;" x1="84.19569" y1="76.40215" x2="66.38442" y2="58.3567"/>
	
		<line style="clip-path:url(#SVGID_00000111889839172805708890000016052247575885790135_);fill:none;stroke:#ADADAD;stroke-width:0.709;stroke-linecap:round;" x1="12.4829" y1="18.74956" x2="35.44958" y2="33.74887"/>
	
		<line style="clip-path:url(#SVGID_00000111889839172805708890000016052247575885790135_);fill:none;stroke:#ADADAD;stroke-width:0.709;stroke-linecap:round;" x1="15.23883" y1="62.5746" x2="30.94075" y2="56.48231"/>
	
		<line style="clip-path:url(#SVGID_00000111889839172805708890000016052247575885790135_);fill:none;stroke:#ADADAD;stroke-width:0.709;stroke-linecap:round;" x1="93.33595" y1="62.80881" x2="79.27484" y2="57.41916"/>
	
		<line style="clip-path:url(#SVGID_00000111889839172805708890000016052247575885790135_);fill:none;stroke:#ADADAD;stroke-width:0.709;stroke-linecap:round;" x1="62.22465" y1="68.14151" x2="67.07796" y2="82.37167"/>
	
		<line style="clip-path:url(#SVGID_00000111889839172805708890000016052247575885790135_);fill:none;stroke:#ADADAD;stroke-width:0.709;stroke-linecap:round;" x1="45.84637" y1="1.36698" x2="50.47933" y2="25.12916"/>
	
		<line style="clip-path:url(#SVGID_00000111889839172805708890000016052247575885790135_);fill:none;stroke:#FFFFFF;stroke-width:0.709;stroke-linecap:round;" x1="26.78455" y1="5.7805" x2="43.89199" y2="30.2872"/>
	
		<line style="clip-path:url(#SVGID_00000111889839172805708890000016052247575885790135_);fill:none;stroke:#FFFFFF;stroke-width:0.709;stroke-linecap:round;" x1="82.50264" y1="5.54956" x2="66.55034" y2="30.28732"/>
	
		<line style="clip-path:url(#SVGID_00000111889839172805708890000016052247575885790135_);fill:none;stroke:#FFFFFF;stroke-width:0.709;stroke-linecap:round;" x1="91.57014" y1="31.45599" x2="84.40337" y2="33.99894"/>
	
		<line style="clip-path:url(#SVGID_00000111889839172805708890000016052247575885790135_);fill:none;stroke:#FFFFFF;stroke-width:0.709;stroke-linecap:round;" x1="96.14272" y1="74.90756" x2="71.63596" y2="58.26215"/>
	
		<line style="clip-path:url(#SVGID_00000111889839172805708890000016052247575885790135_);fill:none;stroke:#FFFFFF;stroke-width:0.709;stroke-linecap:round;" x1="66.70814" y1="66.85091" x2="78.50273" y2="83.95296"/>
	
		<line style="clip-path:url(#SVGID_00000111889839172805708890000016052247575885790135_);fill:none;stroke:#FFFFFF;stroke-width:0.709;stroke-linecap:round;" x1="45.69484" y1="89.71495" x2="49.66779" y2="67.08128"/>
	
		<line style="clip-path:url(#SVGID_00000111889839172805708890000016052247575885790135_);fill:none;stroke:#FFFFFF;stroke-width:0.709;stroke-linecap:round;" x1="24.84593" y1="76.20474" x2="42.95689" y2="58.71577"/>
</g>
</svg>
